<svg xmlns="http://www.w3.org/2000/svg" version="1.1" xmlns:xlink="http://www.w3.org/1999/xlink" width="512" height="512" x="0" y="0" viewBox="0 0 173.397 173.397" style="enable-background:new 0 0 512 512" xml:space="preserve" fill-rule="evenodd" class=""><g><circle cx="86.699" cy="86.699" r="84.667" fill="#257ab7" opacity="1" data-original="#81592f" class=""></circle><g fill="#fff"><path fill-rule="nonzero" d="M129.253 107.546V79.253h4.234v28.293z" fill="#ffffff" opacity="1" data-original="#ffffff"></path><circle cx="131.37" cy="70.066" r="9.769" fill="#ffffff" opacity="1" data-original="#ffffff"></circle><path d="M32.258 106.964h108.881v7.28H32.258zM119.305 98.18a4.422 4.422 0 0 0 4.413-4.413v-5.254H118.5v-3.33h5.218V83.71c0-1.412-.457-2.855-1.717-3.493l-11.44-5.794V60.36a4.602 4.602 0 0 0-4.593-4.593H36.576a4.33 4.33 0 0 0-4.318 4.317v25.1h5.219v3.329h-5.219v5.35a4.33 4.33 0 0 0 4.318 4.318h7.69a8.784 8.784 0 0 1 17.567 0h38.357a8.784 8.784 0 0 1 17.567 0zM43.599 64.454v8.76h9.332v-8.76zm11.751 0v8.76h9.331v-8.76zm11.75 0v8.76h9.332v-8.76zm11.751 25.736h8.165V64.453h-8.165zm10.585-25.736v25.736H97.6V64.453zm10.584 0v8.76h8.122v-8.76zM78.851 92.609v3.152h18.75V92.61zm-33.04-14.205H72.59v2.42H45.81zm0 3.902H72.59v2.42H45.81zm0 3.903H72.59v2.42H45.81z" fill="#ffffff" opacity="1" data-original="#ffffff"></path><path d="M53.05 91.817a6.364 6.364 0 1 1 0 12.728 6.364 6.364 0 0 1 0-12.728zm0 3.475a2.889 2.889 0 1 1 0 5.777 2.889 2.889 0 0 1 0-5.777zM108.973 91.817a6.364 6.364 0 1 1 0 12.728 6.364 6.364 0 0 1 0-12.728zm0 3.475a2.889 2.889 0 1 1 0 5.777 2.889 2.889 0 0 1 0-5.777z" fill="#ffffff" opacity="1" data-original="#ffffff"></path></g></g></svg>