<?xml version="1.0" encoding="iso-8859-1"?>
<!-- Generator: Adobe Illustrator 19.0.0, SVG Export Plug-In . SVG Version: 6.00 Build 0)  -->
<svg version="1.1" id="Capa_1" xmlns="http://www.w3.org/2000/svg" xmlns:xlink="http://www.w3.org/1999/xlink" x="0px" y="0px"
	 viewBox="0 0 512 512" style="enable-background:new 0 0 512 512;" xml:space="preserve">
<circle style="fill:#00ADE8;" cx="256" cy="256" r="256"/>
<path style="fill:#0082D1;" d="M512,256c0-17.36-1.737-34.313-5.03-50.703L378.308,76.184c-5.52-6.251-13.579-10.211-22.522-10.211
	H156.214c-16.54,0-30.072,13.533-30.072,30.072v96.176h-20.547c-8.369,0-15.177,6.809-15.177,15.177v8.774h-5.695
	c-5.609,0-10.197,4.589-10.197,10.197v44.979c0,3.125,1.426,5.928,3.658,7.8l47.958,47.845v72.644l26.913,29.057
	c0,5.356,2.463,10.163,6.312,13.349l68.853,68.452C237.346,511.48,246.612,512,256,512C397.385,512,512,397.385,512,256z"/>
<path style="fill:#3C3B41;" d="M105.595,199.809h25.97v-7.589h-25.97c-8.369,0-15.177,6.809-15.177,15.177v8.774h-5.695
	c-5.609,0-10.197,4.589-10.197,10.197v44.979c0,5.609,4.589,10.197,10.197,10.197h18.978c5.609,0,10.197-4.589,10.197-10.197V226.37
	c0-5.609-4.589-10.197-10.197-10.197h-5.695v-8.774C98.006,203.214,101.41,199.809,105.595,199.809z"/>
<path style="fill:#171719;" d="M406.405,199.809h-25.97v-7.589h25.97c8.369,0,15.177,6.809,15.177,15.177v8.774h5.695
	c5.609,0,10.197,4.589,10.197,10.197v44.979c0,5.609-4.589,10.197-10.197,10.197h-18.978c-5.609,0-10.197-4.589-10.197-10.197
	V226.37c0-5.609,4.589-10.197,10.197-10.197h5.695v-8.774C413.994,203.214,410.59,199.809,406.405,199.809z"/>
<path style="fill:#3C3B41;" d="M187.328,446.028h-16.941c-9.533,0-17.333-7.8-17.333-17.333v-37.471h51.607v37.471
	C204.661,438.228,196.861,446.028,187.328,446.028z"/>
<path style="fill:#171719;" d="M341.612,446.028h-16.941c-9.533,0-17.333-7.8-17.333-17.333v-37.471h51.607v37.471
	C358.946,438.228,351.146,446.028,341.612,446.028z"/>
<path style="fill:#E02424;" d="M385.858,399.637H126.142V96.045c0-16.54,13.532-30.072,30.072-30.072h199.572
	c16.54,0,30.072,13.533,30.072,30.072V399.637z"/>
<path style="fill:#C2001B;" d="M385.86,96.04v303.6H256V65.97h99.79C372.33,65.97,385.86,79.5,385.86,96.04z"/>
<path style="fill:#CAE8F9;" d="M235.745,283.255h-77.614c-5.742,0-10.396-4.654-10.396-10.396v-57.532
	c0-5.741,4.654-10.396,10.396-10.396h77.614c5.742,0,10.396,4.654,10.396,10.396v57.532
	C246.14,278.601,241.486,283.255,235.745,283.255z"/>
<path style="fill:#7FC8F1;" d="M353.869,283.255h-77.614c-5.741,0-10.396-4.654-10.396-10.396v-57.532
	c0-5.741,4.654-10.396,10.396-10.396h77.614c5.741,0,10.396,4.654,10.396,10.396v57.532
	C364.265,278.601,359.611,283.255,353.869,283.255z"/>
<circle style="fill:#FFFFFF;" cx="178.86" cy="341.74" r="31.12"/>
<circle style="fill:#CAE8F9;" cx="178.86" cy="341.74" r="21.12"/>
<circle style="fill:#E1E1E3;" cx="333.14" cy="341.74" r="31.12"/>
<circle style="fill:#7FC8F1;" cx="333.14" cy="341.74" r="21.12"/>
<g>
	<rect x="223.46" y="322.93" style="fill:#FFFFFF;" width="65.09" height="7.04"/>
	<rect x="223.46" y="338.22" style="fill:#FFFFFF;" width="65.09" height="7.04"/>
	<rect x="223.46" y="353.5" style="fill:#FFFFFF;" width="65.09" height="7.04"/>
</g>
<path style="fill:#CAE8F9;" d="M353.869,184.199H158.131c-5.742,0-10.396-4.654-10.396-10.396v-51.017
	c0-5.741,4.654-10.396,10.396-10.396H353.87c5.741,0,10.396,4.654,10.396,10.396v51.017
	C364.265,179.545,359.611,184.199,353.869,184.199z"/>
<path style="fill:#7FC8F1;" d="M364.27,122.79v51.01c0,5.75-4.66,10.4-10.4,10.4H256v-71.81h97.87
	C359.61,112.39,364.27,117.04,364.27,122.79z"/>
<g>
	<rect x="256" y="322.93" style="fill:#E1E1E3;" width="32.54" height="7.04"/>
	<rect x="256" y="338.22" style="fill:#E1E1E3;" width="32.54" height="7.04"/>
	<rect x="256" y="353.5" style="fill:#E1E1E3;" width="32.54" height="7.05"/>
</g>
<g>
</g>
<g>
</g>
<g>
</g>
<g>
</g>
<g>
</g>
<g>
</g>
<g>
</g>
<g>
</g>
<g>
</g>
<g>
</g>
<g>
</g>
<g>
</g>
<g>
</g>
<g>
</g>
<g>
</g>
</svg>
