<?xml version="1.0" encoding="iso-8859-1"?>
<!-- Generator: Adobe Illustrator 19.0.0, SVG Export Plug-In . SVG Version: 6.00 Build 0)  -->
<svg version="1.1" id="Capa_1" xmlns="http://www.w3.org/2000/svg" xmlns:xlink="http://www.w3.org/1999/xlink" x="0px" y="0px"
	 viewBox="0 0 512 512" style="enable-background:new 0 0 512 512;" xml:space="preserve">
<circle style="fill:#FFDA00;" cx="256" cy="256" r="256"/>
<path style="fill:#FFB600;" d="M512,256c0-14.88-1.285-29.458-3.721-43.642L390.021,94.1L128.676,419.57l89.667,89.667
	C230.633,511.048,243.205,512,256,512C397.385,512,512,397.385,512,256z"/>
<path style="fill:#495959;" d="M158.558,424.54h-16.764c-10.943,0-19.815-8.871-19.815-19.815v-54.711
	c0-10.943,8.871-19.815,19.815-19.815h16.764c10.943,0,19.815,8.871,19.815,19.815v54.711
	C178.373,415.669,169.501,424.54,158.558,424.54z"/>
<path style="fill:#3F4A4A;" d="M370.206,425.017h-16.764c-10.943,0-19.815-8.871-19.815-19.815v-54.711
	c0-10.943,8.871-19.815,19.815-19.815h16.764c10.943,0,19.815,8.871,19.815,19.815v54.711
	C390.02,416.146,381.149,425.017,370.206,425.017z"/>
<path style="fill:#F42727;" d="M367.617,391.07H144.383c-17.885,0-32.383-14.498-32.383-32.383V151.715
	c0-17.885,14.498-32.383,32.383-32.383h223.234c17.885,0,32.383,14.498,32.383,32.383v206.972
	C400,376.572,385.502,391.07,367.617,391.07z"/>
<g>
	<path style="fill:#D30F0F;" d="M367.617,119.333H255.571V391.07h112.046c17.885,0,32.383-14.498,32.383-32.383V151.715
		C400,133.831,385.502,119.333,367.617,119.333z"/>
	<path style="fill:#D30F0F;" d="M400,117.48c0-17.885-14.498-32.383-32.383-32.383H144.383C126.498,85.097,112,99.595,112,117.48
		v81.351h288V117.48z"/>
</g>
<path style="fill:#B20D0D;" d="M400,117.48c0-17.885-14.498-32.383-32.383-32.383H255.571v113.734H400V117.48z"/>
<rect x="128.68" y="220.97" style="fill:#FFFFFF;" width="118.26" height="68.47"/>
<rect x="265.06" y="220.97" style="fill:#F0F0F0;" width="118.26" height="68.47"/>
<rect x="128.68" y="111.28" style="fill:#FFFFFF;" width="118.26" height="68.47"/>
<rect x="265.06" y="111.28" style="fill:#F0F0F0;" width="118.26" height="68.47"/>
<circle style="fill:#87C7FF;" cx="163.96" cy="336.79" r="25.04"/>
<circle style="fill:#65B1FC;" cx="348.04" cy="336.79" r="25.04"/>
<path style="fill:#D30F0F;" d="M241.494,372.79h-24.32c-6.321,0-11.445-5.124-11.445-11.445v-47.21
	c0-6.321,5.124-11.445,11.445-11.445h24.32c6.321,0,11.445,5.124,11.445,11.445v47.21
	C252.939,367.666,247.815,372.79,241.494,372.79z"/>
<path style="fill:#B20D0D;" d="M294.826,372.79h-24.32c-6.321,0-11.445-5.124-11.445-11.445v-47.21
	c0-6.321,5.124-11.445,11.445-11.445h24.32c6.321,0,11.445,5.124,11.445,11.445v47.21
	C306.271,367.666,301.147,372.79,294.826,372.79z"/>
<g>
</g>
<g>
</g>
<g>
</g>
<g>
</g>
<g>
</g>
<g>
</g>
<g>
</g>
<g>
</g>
<g>
</g>
<g>
</g>
<g>
</g>
<g>
</g>
<g>
</g>
<g>
</g>
<g>
</g>
</svg>
