<svg id="Layer_1" enable-background="new 0 0 24 24" height="512" viewBox="0 0 24 24" width="512" xmlns="http://www.w3.org/2000/svg"><circle cx="12" cy="12" fill="#379df1" r="12"/><path d="m15.6 17.4h-7.2v.7c0 .4-.3.7-.7.7h-1.5c-.4 0-.7-.3-.7-.7v-6.5h-.7v-2.8h.7v-2.2c0-.8.6-1.4 1.4-1.4h10.1c.8 0 1.4.6 1.4 1.4v2.2h.7v2.9h-.7v6.5c0 .4-.3.7-.7.7h-1.4c-.4 0-.7-.3-.7-.7zm-8.6-10.8v5h10v-5zm1.8 9.4c.6 0 1.1-.5 1.1-1.1s-.5-1.1-1.1-1.1-1.1.5-1.1 1.1.5 1.1 1.1 1.1zm6.4 0c.6 0 1.1-.5 1.1-1.1s-.5-1.1-1.1-1.1-1.1.5-1.1 1.1c.1.6.6 1.1 1.1 1.1z" fill="#fff"/></svg>