<?xml version="1.0" encoding="iso-8859-1"?>
<!-- Generator: Adobe Illustrator 19.0.0, SVG Export Plug-In . SVG Version: 6.00 Build 0)  -->
<svg version="1.1" id="Capa_1" xmlns="http://www.w3.org/2000/svg" xmlns:xlink="http://www.w3.org/1999/xlink" x="0px" y="0px"
	 viewBox="0 0 512 512" style="enable-background:new 0 0 512 512;" xml:space="preserve">
<path style="fill:#4FC0E8;" d="M0,256c0,141.397,114.603,256,256,256s256-114.603,256-256S397.397,0,256,0S0,114.613,0,256z"/>
<path style="fill:#3DAED9;" d="M510.251,285.931L345.28,120.96l-6.016-5.76h-0.491c-9.719-8.139-21.958-12.661-34.635-12.8H202.667
	c-27.499,0-49.067,22.88-49.067,52.085v213.184c0,8.715,5.067,18.133,12.8,21.429v13.216l-0.299,0.971l0.32,0.32
	c0.201,3.202,2.741,5.76,5.941,5.984l101.195,101.813C396.8,503.04,496.096,407.467,510.251,285.931z"/>
<g>
	<path style="fill:#F4F6F9;" d="M304.139,102.4H202.667c-27.499,0-49.067,22.88-49.067,52.085v213.184
		c0,8.715,5.067,18.133,12.8,21.429V403.2c0,3.535,2.865,6.4,6.4,6.4h38.4c3.535,0,6.4-2.865,6.4-6.4v-12.8h76.8v12.8
		c0,3.535,2.865,6.4,6.4,6.4h38.4c3.535,0,6.4-2.865,6.4-6.4v-16.512c6.869-4.267,12.8-11.659,12.8-19.019V154.485
		C358.4,126.741,333.045,102.4,304.139,102.4z M166.4,185.6h179.2v108.8H166.4V185.6z M202.667,115.2h101.515
		c21.696,0,41.461,18.72,41.461,39.285V172.8H166.4v-18.315C166.4,132.448,182.315,115.2,202.667,115.2z M204.8,396.8h-25.6v-6.4
		h25.6V396.8z M307.2,396.8v-6.4h25.6v6.4H307.2z M334.592,377.6H172.171c-2.336,0-5.771-5.227-5.771-9.931V307.2h179.2v60.469
		C345.6,371.008,338.293,377.6,334.592,377.6z"/>
	<path style="fill:#F4F6F9;" d="M217.6,326.4h-32c-3.535,0-6.4,2.865-6.4,6.4v25.6c0,3.535,2.865,6.4,6.4,6.4h32
		c3.535,0,6.4-2.865,6.4-6.4v-25.6C224,329.265,221.135,326.4,217.6,326.4z M211.2,352H192v-12.8h19.2V352z"/>
	<path style="fill:#F4F6F9;" d="M326.4,326.4h-32c-3.535,0-6.4,2.865-6.4,6.4v25.6c0,3.535,2.865,6.4,6.4,6.4h32
		c3.535,0,6.4-2.865,6.4-6.4v-25.6C332.8,329.265,329.935,326.4,326.4,326.4z M320,352h-19.2v-12.8H320V352z"/>
</g>
<g>
</g>
<g>
</g>
<g>
</g>
<g>
</g>
<g>
</g>
<g>
</g>
<g>
</g>
<g>
</g>
<g>
</g>
<g>
</g>
<g>
</g>
<g>
</g>
<g>
</g>
<g>
</g>
<g>
</g>
</svg>
