<svg height="512" viewBox="0 0 512 512" width="512" xmlns="http://www.w3.org/2000/svg"><g id="BULINE"><circle cx="256" cy="256" fill="#fcc8bc" r="256"/></g><g id="Icons"><path d="m511.63 253.42a255.73 255.73 0 1 1 -9-67.37 256.31 256.31 0 0 1 9 67.37z" fill="#b0d46c"/><path d="m188.74 480.08a254.44 254.44 0 0 0 93 28 258.75 258.75 0 0 1 -26.11 1.32 256 256 0 1 1 0-512 258.75 258.75 0 0 1 26.11 1.32 256 256 0 0 0 -93 481.34z" fill="#9cb762"/><path d="m511.63 253.42q0 4.84-.18 9.64a256 256 0 0 1 -3.62 34.51q-2 11.81-5.16 23.22h-179.17v179.53a258 258 0 0 1 -110.38 5.58q-12.41-2.07-24.37-5.31v-179.8h-180.16c-12.74-43.25-11.73-91.47 0-134.74h180.16v-179.8q11.97-3.25 24.37-5.31a258 258 0 0 1 110.38 5.58v179.53h179.17a255.08 255.08 0 0 1 8.61 54q.35 6.65.35 13.37z" fill="#32314b"/><path d="m60.7 320.29c0 .17.08.33.13.5h-52.24c-.05-.17-.09-.33-.13-.5q-3.11-11.42-5.13-23.23a256.62 256.62 0 0 1 -3.57-35q-.13-4.31-.14-8.64 0-7.23.41-14.35a254 254 0 0 1 8.56-53h52.24a257.88 257.88 0 0 0 -5.26 111q2.03 11.8 5.13 23.22z" fill="#27273d"/><circle cx="417.06" cy="127.1" fill="#cde598" r="19.61"/><circle cx="390.97" cy="95.66" fill="#cde598" r="13.89"/><path d="m188.74 480.08a254.44 254.44 0 0 0 93 28 258.75 258.75 0 0 1 -26.11 1.32 256.17 256.17 0 0 1 -66.89-8.83z" fill="#27273d"/><path d="m281.74-1.26a254.44 254.44 0 0 0 -93 28v-20.49a256.17 256.17 0 0 1 66.89-8.83 258.75 258.75 0 0 1 26.11 1.32z" fill="#27273d"/><g fill="#fff"><path d="m38.62 239.07v23h-38.86q-.13-4.31-.14-8.64 0-7.23.41-14.35z"/><path d="m60.54 239.07h50.17v23h-50.17z"/><path d="m132.62 240.07h50.17v23h-50.17z"/><path d="m231.54 315.98h50.17v23h-50.17z" transform="matrix(0 1 -1 0 584.11 70.86)"/><path d="m231.54 388.07h50.17v23h-50.17z" transform="matrix(0 1 -1 0 656.19 142.94)"/><path d="m230.54 460.15h50.17v23h-50.17z" transform="matrix(0 1 -1 0 727.28 216.03)"/><path d="m231.54 102.08h50.17v23h-50.17z" transform="matrix(0 1 -1 0 370.21 -143.04)"/><path d="m231.54 174.17h50.17v23h-50.17z" transform="matrix(0 1 -1 0 442.29 -70.96)"/><path d="m231.54 30.32h50.17v23h-50.17z" transform="matrix(0 1 -1 0 298.44 -214.81)"/><path d="m230.54 246.26h50.17v23h-50.17z" transform="matrix(0 1 -1 0 513.38 2.13)"/><path d="m328.28 240.07h50.17v23h-50.17z"/><path d="m400.37 240.07h50.17v23h-50.17z"/><path d="m511.63 253.42q0 4.84-.18 9.64h-39v-23h38.83q.35 6.64.35 13.36z"/></g><path d="m507.83 297.57q-2 11.81-5.16 23.22h-180.55v-23.22z" fill="#27273d"/><path d="m213.12.94v184.73h-24.37v-179.42q11.97-3.25 24.37-5.31z" fill="#27273d"/><path d="m213.12 297.06v208.84q-12.41-2.07-24.37-5.31v-180.3h-180.29c-2.1-7.66-3.74-15.42-5.13-23.23z" fill="#27273d"/></g></svg>