<svg xmlns="http://www.w3.org/2000/svg" version="1.1" xmlns:xlink="http://www.w3.org/1999/xlink" width="512" height="512" x="0" y="0" viewBox="0 0 512.001 512.001" style="enable-background:new 0 0 512 512" xml:space="preserve" class=""><g><path d="M485.271 240.532c0-35.798-21.77-66.511-52.792-79.623a76.705 76.705 0 0 0 8.592-35.348c0-42.561-34.502-77.063-77.063-77.063-12.126 0-23.593 2.809-33.799 7.798C321.141 23.827 291.362 0 256 0s-65.14 23.827-74.209 56.296c-10.206-4.99-21.673-7.798-33.799-7.798-42.561 0-77.063 34.502-77.063 77.063a76.693 76.693 0 0 0 8.592 35.348c-31.022 13.113-52.792 43.825-52.792 79.623 0 46.393 36.576 84.196 82.459 86.265 6.397 23.17 31.1 40.443 60.622 40.443 16.732 0 31.91-5.557 43.095-14.581 11.186 9.024 26.364 14.581 43.095 14.581s31.91-5.557 43.095-14.581c11.186 9.024 26.364 14.581 43.095 14.581 29.522 0 54.225-17.273 60.622-40.444 45.883-2.069 82.459-39.871 82.459-86.264z" style="" fill="#e4e23a" data-original="#129b12" class="" opacity="1"></path><path d="M251.377.153c-.949.057-1.894.125-2.833.217-.288.028-.574.06-.86.091a76.344 76.344 0 0 0-3.01.383c-.187.027-.374.054-.56.083a77.628 77.628 0 0 0-3.534.629l-.006.001c20.23 4.114 39.171 18.204 51.171 35.964 8.498 12.577 23.017 19.827 38.161 18.797l.302-.021C321.141 23.827 291.362 0 256 0c-1.24 0-2.471.036-3.696.094-.31.015-.617.041-.927.059zM432.479 160.909a76.693 76.693 0 0 0 8.592-35.348c0-42.561-34.502-77.063-77.063-77.063-5.282 0-10.438.534-15.42 1.548 35.166 7.147 61.633 38.239 61.633 75.515a76.693 76.693 0 0 1-8.592 35.348c31.022 13.113 52.792 43.825 52.792 79.623 0 46.393-36.576 84.195-82.458 86.264-5.243 18.991-22.787 34.012-45.199 38.816a73.48 73.48 0 0 0 15.427 1.627c29.522 0 54.225-17.273 60.622-40.444 45.883-2.069 82.458-39.871 82.458-86.264 0-35.797-21.768-66.51-52.792-79.622z" style="" fill="#c8b93d" data-original="#097c09" class="" opacity="1"></path><path d="M200.82 339.895c-6.95 11.788-35.752 24.969-46.433 25.718 1.175.252 2.366.472 3.567.668.096.016.192.033.289.048 1.217.193 2.446.359 3.688.492l.096.009a73.37 73.37 0 0 0 3.381.27 74.116 74.116 0 0 0 4.403.141c15.26 0 29.216-4.633 40.042-12.292l1.898-1.38-9.666-15.859-1.265 2.185z" style="" fill="#afad32" data-original="#009000" class="" opacity="1"></path><path d="m294.533 359.573 33.016-52.099a9.873 9.873 0 0 0-15.364-12.223l-24.315 24.617c-3.225 3.265-8.75.55-8.136-3.997l7.15-52.976c.764-5.66-3.42-10.786-9.119-11.171l-6.699-.453a9.873 9.873 0 0 0-10.389 8.139l-12.763 72.513c-.71 4.033-5.831 5.363-8.414 2.187l-39.972-49.159a9.871 9.871 0 0 0-11.485-2.873l-6.999 2.941c-5.541 2.329-7.733 9.027-4.641 14.181l41.076 68.467c5.948 9.915 8.401 21.547 6.914 33.014-5.323 41.057-11.936 79.778-38.997 111.32H326.6c-28.968-33.766-36.114-75.757-39.948-120.035-.981-11.371 1.772-22.754 7.881-32.393z" style="" fill="#bf6101" data-original="#bf6101" class=""></path><path d="M327.549 307.474a9.873 9.873 0 0 0-15.364-12.223l-10.859 10.993-13.456 13.623c-3.225 3.265-8.75.55-8.136-3.997l7.15-52.976c.745-5.517-3.216-10.514-8.694-11.12l-20.105 124.965a52.359 52.359 0 0 0-.921 15.225c3.836 44.279 10.982 86.27 39.95 120.036h29.488c-28.968-33.766-36.114-75.757-39.948-120.035a52.114 52.114 0 0 1 7.878-32.392l33.017-52.099z" style="" fill="#9a4d01" data-original="#9a4d01" class=""></path><path d="M241.333 60.5c-21.621 0-40.232 12.832-48.669 31.29A53.238 53.238 0 0 0 161.833 82c-29.547 0-53.5 23.953-53.5 53.5a53.23 53.23 0 0 0 7.177 26.752c-25.656 3.945-45.304 26.115-45.304 52.875 0 29.547 23.953 53.5 53.5 53.5S294.833 143.547 294.833 114s-23.951-53.5-53.5-53.5z" style="" fill="#d1bd57" data-original="#28a528" class="" opacity="1"></path></g></svg>