<svg clip-rule="evenodd" fill-rule="evenodd" height="512" image-rendering="optimizeQuality" shape-rendering="geometricPrecision" text-rendering="geometricPrecision" viewBox="0 0 512 512" width="512" xmlns="http://www.w3.org/2000/svg" xmlns:xodm="http://www.corel.com/coreldraw/odm/2003"><g id="Layer_x0020_1"><g id="_1856692153056"><path d="m433.98 512c-.8 0-1.5-.1-2.2-.4l-142.1-57.1c-33.9 53.4-90.4 56.3-92.8 56.4-2.5.1-4.7-1.3-5.7-3.6l-22.7-51.5-132.2 50.1c-1.8.7-3.9.4-5.5-.7s-2.6-3-2.6-4.9c0-37.7 38.7-86.5 57-107.4h-77c-2.2 0-4.2-1.2-5.3-3.1s-1-4.3.2-6.1c15.2-23.7 48.1-42.1 65.8-52 2.5-1.4 5.3-3 7.3-4.1v-253.6c0-3.3 2.7-6 6-6s6 2.7 6 6c0 15.4 15.6 30.9 42.9 42.6 29.2 12.5 68.3 19.4 109.9 19.4s80.6-6.9 109.9-19.4c27.2-11.7 42.9-27.2 42.9-42.6 0-3.3 2.7-6 6-6s6 2.7 6 6v82.4l26.2-26.2c2.3-2.3 6.1-2.3 8.5 0 2.3 2.3 2.3 6.1 0 8.5-8.7 8.7-3.8 28.2 10.6 42.7 14.4 14.4 33.8 19.3 42.6 10.7l.1-.1c2.3-2.3 6.1-2.3 8.5 0 2.3 2.3 2.3 6.1 0 8.5l-96.7 96.5v25.9c48.2 1.2 72.6 71.5 73.7 74.6.6 1.8.3 3.9-.8 5.4-1.1 1.6-2.9 2.5-4.9 2.5h-79.2c46.9 50 45.7 98.6 45.6 100.8-.1 2-1.1 3.7-2.7 4.8-1 .7-2.1 1-3.3 1z" fill="#a56a43"/><path d="m76.18 106.72v-32.72c0-3.3 2.7-6 6-6s6 2.7 6 6c0 15.4 15.6 30.9 42.9 42.6 29.2 12.5 68.3 19.4 109.9 19.4s80.6-6.9 109.9-19.4c27.2-11.7 42.9-27.2 42.9-42.6 0-3.3 2.7-6 6-6s6 2.7 6 6v32.37c-10.87 13.93-27.6 24.25-43.02 31.19-36.75 16.54-81.88 22.54-121.88 22.54-40.01 0-85.16-5.97-121.92-22.49-15.32-6.89-31.92-17.11-42.78-30.89z" fill="#865636"/><path d="m240.88 148.1c-92.4 0-164.7-32.5-164.7-74s72.3-74.1 164.7-74.1 164.7 32.5 164.7 74-72.4 74.1-164.7 74.1z" fill="#fdd7ad"/><g fill="#865636"><path d="m238.58 417.5c-3.3 0-6-2.7-6-6v-103.4c0-3.3 2.7-6 6-6s6 2.7 6 6v103.4c0 3.4-2.7 6-6 6z"/><path d="m238.58 279.8c-3.3 0-6-2.7-6-6v-32.2c0-3.3 2.7-6 6-6s6 2.7 6 6v32.2c0 3.3-2.7 6-6 6z"/><path d="m238.58 227.7c-3.3 0-6-2.7-6-6v-22.1c0-3.3 2.7-6 6-6s6 2.7 6 6v22.1c0 3.3-2.7 6-6 6z"/><path d="m316.78 326.3c-3.3 0-6-2.7-6-6v-120.7c0-3.3 2.7-6 6-6s6 2.7 6 6v120.7c0 3.3-2.7 6-6 6z"/><path d="m316.78 417.5c-3.3 0-6-2.7-6-6v-64.4c0-3.3 2.7-6 6-6s6 2.7 6 6v64.4c0 3.4-2.7 6-6 6z"/><path d="m164.88 349.9c-3.3 0-6-2.7-6-6v-144.3c0-3.3 2.7-6 6-6s6 2.7 6 6v144.3c0 3.3-2.7 6-6 6z"/><path d="m164.88 417.5c-3.3 0-6-2.7-6-6v-35.5c0-3.3 2.7-6 6-6s6 2.7 6 6v35.5c0 3.4-2.7 6-6 6z"/><path d="m481.58 208.4c-12.6 0-27.1-6.4-39.2-18.5-9.1-9.1-15.3-20-17.5-30.8-2.4-11.7 0-21.9 6.9-28.8s17.1-9.3 28.8-6.9c10.8 2.2 21.7 8.5 30.8 17.5 19.7 19.7 24.4 45.9 10.6 59.6-5.3 5.4-12.5 7.9-20.4 7.9z"/></g><path d="m240.88 106.1c-38.1 0-66.8-13.8-66.8-32.1s28.7-32 66.8-32 66.8 13.8 66.8 32.1-28.7 32-66.8 32z" fill="#a56a43"/></g></g></svg>