<svg height="512" viewBox="0 0 512 512" width="512" xmlns="http://www.w3.org/2000/svg"><g id="Layer_8" data-name="Layer 8"><path d="m457.689 496a14.311 14.311 0 0 0 14.311-14.311 14.31 14.31 0 0 0 -9-13.287l-.345-.139a94.68 94.68 0 0 1 -47.042-40.933l-9.558-16.73a58.971 58.971 0 0 0 -15.819-17.919l-6.51-4.883a58.97 58.97 0 0 0 -35.383-11.798 58.972 58.972 0 0 0 -46.049 22.132l-1.8 2.251a41.613 41.613 0 0 1 -32.494 15.617 41.629 41.629 0 0 0 -12 1.767 41.616 41.616 0 0 1 20.5 13.85l11.823 14.783a41.612 41.612 0 0 0 19.335 13.482l26.805 8.935a13.947 13.947 0 0 1 9.537 13.236 13.947 13.947 0 0 1 -13.947 13.947z" fill="#187d51"/><path d="m448 481.689a14.313 14.313 0 0 0 -9-13.288l-.345-.138a94.68 94.68 0 0 1 -47.042-40.933l-9.558-16.73a58.971 58.971 0 0 0 -15.819-17.919l-6.51-4.883a58.831 58.831 0 0 0 -23.62-10.464 58.932 58.932 0 0 0 -33.812 20.8l-1.8 2.25a41.614 41.614 0 0 1 -32.494 15.616 41.629 41.629 0 0 0 -12 1.767 41.609 41.609 0 0 1 20.5 13.85l11.823 14.783a41.612 41.612 0 0 0 19.335 13.482l26.805 8.935a13.947 13.947 0 0 1 -4.41 27.183h103.636a14.311 14.311 0 0 0 14.311-14.311z" fill="#1c8c56"/><path d="m320.28 175.869 39.72-63.869h-16l-40 44v-12.4a95.6 95.6 0 0 1 28-67.6 95.6 95.6 0 0 1 67.6-28h32.4v32.4a95.6 95.6 0 0 1 -28 67.6 95.6 95.6 0 0 1 -67.6 28h-15.909z" fill="#26b979"/><path d="m399.6 48a95.6 95.6 0 0 0 -95.6 95.6v12.4l40-44h13.428c27.954-29.953 59.663-53.906 73.773-64z" fill="#2bd78c"/><path d="m191.509 144h-15.909a95.6 95.6 0 0 1 -67.6-28 95.6 95.6 0 0 1 -28-67.6v-32.4h32.4a95.6 95.6 0 0 1 67.6 28 95.6 95.6 0 0 1 28 67.6v12.4l-40-44h-16l39.72 63.868z" fill="#26b979"/><path d="m80.072 16h-.072v32.4a95.6 95.6 0 0 0 95.6 95.6h15.911l.211-.132-39.722-63.868h2.641c-26.662-28.6-58.157-52.371-74.569-64z" fill="#2bd78c"/><path d="m54.311 496a14.311 14.311 0 0 1 -14.311-14.311 14.31 14.31 0 0 1 9-13.289l.345-.139a94.68 94.68 0 0 0 47.038-40.931l9.562-16.734a58.971 58.971 0 0 1 15.819-17.919l6.51-4.883a58.97 58.97 0 0 1 35.383-11.794 58.972 58.972 0 0 1 46.049 22.132l1.8 2.251a41.613 41.613 0 0 0 32.494 15.617 41.613 41.613 0 0 1 32.494 15.617l11.829 14.783a41.612 41.612 0 0 0 19.335 13.482l26.805 8.935a13.947 13.947 0 0 1 9.537 13.236 13.947 13.947 0 0 1 -13.947 13.947z" fill="#209e5f"/><path d="m320 482.053a13.946 13.946 0 0 0 -9.537-13.232l-26.805-8.935a41.612 41.612 0 0 1 -19.335-13.486l-11.829-14.787a41.613 41.613 0 0 0 -32.494-15.613 41.614 41.614 0 0 1 -32.494-15.618l-1.8-2.25a58.932 58.932 0 0 0 -33.812-20.8 58.831 58.831 0 0 0 -23.62 10.464l-6.51 4.883a58.971 58.971 0 0 0 -15.819 17.921l-9.562 16.73a94.68 94.68 0 0 1 -47.042 40.933l-.341.137a14.311 14.311 0 0 0 5.311 27.6h251.742a13.948 13.948 0 0 0 13.947-13.947z" fill="#26b979"/><path d="m256 417.767a41.611 41.611 0 0 0 -12-1.767 41.613 41.613 0 0 1 -32.494-15.617l-1.8-2.251q-1.473-1.841-3.075-3.545l1.369-2.587a376.933 376.933 0 0 0 24-132.352v-5.593q0-4.6-.253-9.175c-1.536-27.84-11.181-54.628-25.906-78.305l-53.841-86.575h16l55.934 61.527a259.364 259.364 0 0 1 40.066 58.473l80-88h16l-64.151 103.152a166.526 166.526 0 0 0 -15.849 70.903 423.59 423.59 0 0 0 8.226 83.076l7.3 36.469a41.616 41.616 0 0 1 -27.526 10.4 41.629 41.629 0 0 0 -12 1.767z" fill="#9c6b56"/><path d="m231.747 244.88q.253 4.577.253 9.175v5.593a376.933 376.933 0 0 1 -24 132.352l-1.369 2.587q1.6 1.7 3.075 3.545l1.8 2.25a41.614 41.614 0 0 0 32.494 15.618c1.348 0 2.671.166 4 .294 1.329-.128 2.651-.294 4-.294a41.616 41.616 0 0 0 27.521-10.4l-7.3-36.469a423.59 423.59 0 0 1 -8.221-83.076 166.526 166.526 0 0 1 15.849-70.9l64.151-103.155-80 88c-1.871-3.742-3.94-7.372-5.987-11.014l-10.013 11.014a259.341 259.341 0 0 0 -40.066-58.473l-55.934-61.527 53.841 86.575c14.725 23.677 24.37 50.465 25.906 78.305z" fill="#b36e5b"/><path d="m176 440v-16h-15.031a48.662 48.662 0 0 0 -34.625 14.344 32.746 32.746 0 0 1 -23.313 9.656h-22.707a94.622 94.622 0 0 1 -21.924 16h44.628a48.633 48.633 0 0 0 34.625-14.34 32.761 32.761 0 0 1 23.316-9.66z" fill="#1c8c56"/><path d="m420.344 434.723-7.375-2.95a108.052 108.052 0 0 0 -40.352-7.773h-4.617v16h4.617a92.142 92.142 0 0 1 34.406 6.629l35.793 10.789-.034-.074a94.626 94.626 0 0 1 -22.438-22.621z" fill="#209e5f"/><path d="m307.658 459.886a41.543 41.543 0 0 1 -17.858-11.886h-49.8v16h80z" fill="#187d51"/><path d="m336 424h16v16h-16z" fill="#26b979"/><path d="m208 448h16v16h-16z" fill="#1c8c56"/><path d="m432 58.264v-10.264h-13.713l-13.068 8.238a186.891 186.891 0 0 0 -45.907 43.362l-10.163 12.4h10.851l-30.955 49.775 42.855-52.306a171.355 171.355 0 0 1 42.022-39.809z" fill="#209e5f"/><path d="m152 80h10.526l-9.626-12.133a187.558 187.558 0 0 0 -46.125-43.633l-12.375-8.234h-14.4v9.635l17.906 11.916a171.98 171.98 0 0 1 42.328 40.09l33.4 37.147-4.547-7.311z" fill="#209e5f"/><path d="m283.658 459.886a41.543 41.543 0 0 1 -17.858-11.886h-25.8v16h56z" fill="#1c8c56"/><path d="m405.8 446.206a94.669 94.669 0 0 1 -14.187-18.876l-1-1.744a108.6 108.6 0 0 0 -18-1.586h-4.613v16h4.617a92.12 92.12 0 0 1 33.183 6.206z" fill="#26b979"/></g></svg>