<svg height="512" viewBox="0 0 64 64" width="512" xmlns="http://www.w3.org/2000/svg"><g id="_15-tree" data-name="15-tree"><path d="m60.071 32.122a22.789 22.789 0 0 1 -11.071 2.011 43.375 43.375 0 0 0 5.18-8.241 33.963 33.963 0 0 0 2.6-7.73 2.086 2.086 0 0 0 .04-.349 1.784 1.784 0 0 0 -.8-1.461 1.765 1.765 0 0 0 -2.65.88c-1.4 4.081-5.77 12.81-16.68 18.54-.14-4.53-.5-9.28-.88-11.829a34.8 34.8 0 0 0 13.221-15.271 2.057 2.057 0 0 0 .15-.76 1.9 1.9 0 0 0 -3.61-.849c-.94 1.969-5.46 8.609-10.66 10.07.07.759.14 1.57.19 2.43l-.19-2.43c-.611-6.233-1.82-9.133-2.911-9.133s-2.3 2.9-2.91 9.13l-.19 2.43c.05-.86.12-1.671.19-2.43-5.2-1.461-9.72-8.1-10.66-10.07a1.9 1.9 0 0 0 -3.61.849 2.057 2.057 0 0 0 .15.76 34.8 34.8 0 0 0 13.22 15.271c-.38 2.549-.74 7.3-.88 11.829-10.91-5.73-15.28-14.459-16.68-18.54a1.765 1.765 0 0 0 -2.65-.88 1.784 1.784 0 0 0 -.8 1.461 2.086 2.086 0 0 0 .04.349 33.963 33.963 0 0 0 2.6 7.73 43.375 43.375 0 0 0 5.18 8.244 22.789 22.789 0 0 1 -11.07-2.011 1.395 1.395 0 0 0 -1.35 2.42 21.8 21.8 0 0 0 8.7 3.841 35.187 35.187 0 0 0 8.13.659 57.793 57.793 0 0 0 7.34 6.13c-.569 12.26-.75 17.828-.75 17.828h12s-.16-8.18-.75-17.831a57.793 57.793 0 0 0 7.34-6.13 35.187 35.187 0 0 0 8.13-.659 21.8 21.8 0 0 0 8.7-3.841 1.395 1.395 0 0 0 -1.35-2.42z" fill="#874c16"/><path d="m37.251 45.172c-2.166 1.5-2.322 4.315-2.669 7.613-.337 3.209-.855 6.871-3.582 10.215h7s-.159-8.177-.749-17.828z" fill="#653910"/><path d="m9.642 25.507s-1.36-3.175-4.343-3.5-4.299 2.559-4.299 2.559.673 3.089 3.656 3.411 4.986-2.47 4.986-2.47z" fill="#8ad355"/><path d="m7.65 16.638a4.721 4.721 0 0 0 -1.7-4.108 3.627 3.627 0 0 0 -4.064.141 3.625 3.625 0 0 0 1.273 3.862c1.998 1.396 4.491.105 4.491.105z" fill="#5eac24"/><path d="m14.947 8.609s-1.013-3.524-3.837-4.536-4.777 1.475-4.777 1.475-.071 3.162 2.753 4.174 5.861-1.113 5.861-1.113z" fill="#8ad355"/><g fill="#5eac24"><path d="m27.66 23.6s-2.741-1.926-5.3-1.111a4 4 0 0 0 -2.6 3.648 3.994 3.994 0 0 0 4.229 1.473c2.561-.82 3.671-4.01 3.671-4.01z"/><path d="m19.751 9.246s3.765-.132 5.506-2.575-.121-5-.121-5-3.024-.925-4.765 1.518-.62 6.057-.62 6.057z"/><path d="m22.824 42.148s-4.972-.489-7.649 2.484-1.043 7.135-1.043 7.135 4.31 1.191 6.987-1.782 1.705-7.837 1.705-7.837z"/></g><path d="m19.656 9.1c1.128 8.233 9.244 10.462 9.244 10.462.05-.859.12-1.669.19-2.429-3.976-1.117-7.55-5.259-9.434-8.033z" fill="#653910"/><path d="m17.2 28.014c2.612 9.109 10.047 11.369 10.047 11.369 0-1.151.02-2.37.06-3.611a36.466 36.466 0 0 1 -10.107-7.758z" fill="#653910"/><path d="m28 63c0-19.345 1.663-34.52 2.844-46.413a.493.493 0 0 1 .984.058l-.828 46.355z" fill="#9f7045"/><path d="m55.757 37.553s3.857-.287 5.887 1.923.5 4.975.5 4.975-2.886 1.293-4.916-.917-1.471-5.981-1.471-5.981z" fill="#6dc82a"/><path d="m54.36 25.507s1.36-3.175 4.343-3.5 4.297 2.559 4.297 2.559-.673 3.089-3.656 3.411-4.984-2.47-4.984-2.47z" fill="#8ad355"/><path d="m56.352 16.638a4.721 4.721 0 0 1 1.7-4.108 3.627 3.627 0 0 1 4.064.141 3.627 3.627 0 0 1 -1.273 3.862c-1.999 1.396-4.491.105-4.491.105z" fill="#5eac24"/><path d="m49.055 8.609s1.012-3.524 3.836-4.536 4.778 1.475 4.778 1.475.07 3.162-2.754 4.174-5.86-1.113-5.86-1.113z" fill="#8ad355"/><path d="m36.342 23.6s2.741-1.926 5.3-1.111a4 4 0 0 1 2.6 3.648 3.994 3.994 0 0 1 -4.229 1.473c-2.561-.82-3.671-4.01-3.671-4.01z" fill="#5eac24"/><path d="m44.251 9.246s-3.766-.132-5.507-2.575.122-5 .122-5 3.024-.925 4.765 1.518.62 6.057.62 6.057z" fill="#5eac24"/><path d="m41.178 42.148s4.972-.489 7.649 2.484 1.043 7.135 1.043 7.135-4.311 1.191-6.988-1.782-1.704-7.837-1.704-7.837z" fill="#5eac24"/><path d="m44.345 9.1c-1.127 8.233-9.245 10.462-9.245 10.462-.05-.859-.12-1.669-.19-2.429 3.978-1.117 7.551-5.259 9.435-8.033z" fill="#653910"/><path d="m46.8 28.014c-2.612 9.109-10.046 11.369-10.046 11.369 0-1.151-.02-2.37-.06-3.611a36.46 36.46 0 0 0 10.106-7.758z" fill="#653910"/><path d="m8.245 37.553s-3.858-.287-5.887 1.923-.5 4.975-.5 4.975 2.886 1.293 4.915-.917 1.472-5.981 1.472-5.981z" fill="#6dc82a"/></g></svg>