<svg id="Capa_1" enable-background="new 0 0 510 510" height="512" viewBox="0 0 510 510" width="512" xmlns="http://www.w3.org/2000/svg"><g><path d="m248.27 25.256c-6.413 19.238-19.991 59.975-23.878 71.635l9.275 20.775 19.644-12.666c.037-.111 1.75-5.248 1.689-5.064l5.667-45.602-5.667-26.834c-.15-.051-6.967-2.322-6.73-2.244z" fill="#a05f4b"/><path d="m255 27.5v72.436c5.885-17.656 18.258-54.773 21.73-65.191-7.599-2.535-14.13-4.712-21.73-7.245z" fill="#724435"/><path d="m157.5 165c-10.187 0-73.576 0-83.787 0-8.956-8.955-16.651-16.65-25.606-25.606-7.419 7.419-13.794 13.794-21.213 21.213 6.782 6.782 12.61 12.61 19.393 19.394-11.466 11.467-22.934 22.936-34.393 34.394l21.213 21.213c12.905-12.907 27.701-27.703 40.606-40.608h103.787l1.833-22z" fill="#a05f4b"/><path d="m407.5 255h80c0-10.492 0-19.508 0-30-7.259 0-52.693 0-60 0l-23.167 10.606z" fill="#724435"/><path d="m452.352 328.935c-10.243-1.707-74.417-12.402-84.728-14.121-18.967 25.172-11.839 15.712-13.499 17.915l17.107 13.1c11.062 1.844 80.28 13.381 91.416 15.236 11.275-11.275 24.183-24.184 35.458-35.458-7.419-7.419-13.794-13.794-21.213-21.213-8.583 8.583-15.958 15.958-24.541 24.541z" fill="#724435"/><path d="m150.615 347.337c-14.993-11.245-46.517-34.888-55.367-41.525-4.724-14.173-8.794-26.382-13.518-40.555-9.954 3.317-18.507 6.169-28.461 9.486 5.496 16.488 10.989 32.968 16.482 49.445 8.185 6.14 59.451 44.589 67.691 50.768l17.641-7.956z" fill="#a05f4b"/><path d="m232.5 105c-7.086-7.086-97.914-97.914-105-105-10.492 0-19.508 0-30 0-10.499 10.498-19.502 19.502-30 30 6.664 9.996 113.336 170.004 120 180v60c-4.616 9.678-78.432 164.449-83.047 174.127l17.797 20.123 132.75-73.928 10.865-141.988-10.865-143.334c-7.869 0-14.631 0-22.5 0z" fill="#c57f4e"/><path d="m312.25 445.5 70.367-5.625c-1.829-15.105-13.276-109.67-15.117-124.875 16.305-24.457 50.467-75.7 60-90-5.242-20.969-9.758-39.031-15-60-7.293 7.293-52.688 52.688-60 60-2.269-9.075-16.468-65.872-18.752-75.007 5.9-7.26 42.814-52.686 48.752-59.993-4.772-14.318-10.228-30.682-15-45-24.457 16.305-75.7 50.467-90 60-7.869 0-14.631 0-22.5 0v285.322z" fill="#a05f4b"/><path d="m173.704 428.205c-22.913-8.779-48.99-2.709-66.581 16.983-2.784-1.223-5.698-2.171-8.714-2.809-36.168-7.653-66.043 30.3-53.864 67.62h210.455l13.333-56.71-13.333-62.967c-32.18-2.711-62.071 12.145-81.296 37.883z" fill="#7cd486"/><path d="m440.01 457.225c-13.717-15.462-34.399-19.787-52.049-12.036-17.589-19.691-43.674-25.761-66.581-16.983-15.782-21.129-39.359-35.607-66.38-37.883v119.678h195.538c5.908-18.106 2.08-38.563-10.528-52.776z" fill="#60a38e"/></g></svg>