<svg id="Layer_2" viewBox="0 0 512 512" xmlns="http://www.w3.org/2000/svg" data-name="Layer 2"><g id="Icon"><g id="_31" data-name="31"><circle cx="256" cy="256" fill="#006ce2" r="256"/><path d="m391.79 170.94c0 29.99-24.31 54.3-54.3 54.3s-54.3-24.31-54.3-54.3 24.31-54.3 54.3-54.3 54.3 24.31 54.3 54.3zm-21.98 66.36h-64.64c-24.47 0-45.58 14.36-55.36 35.11 31.33 5.61 56.73 28.49 65.99 58.4h96.84c10.14 0 18.36-8.22 18.36-18.35v-13.97c0-33.79-27.4-61.19-61.19-61.19zm-174.52-103.71c-36.65 0-66.36 29.71-66.36 66.36s29.71 66.36 66.36 66.36 66.36-29.71 66.36-66.36-29.71-66.36-66.36-66.36zm114.29 239.33v-17.06c0-41.31-33.48-74.79-74.79-74.79h-79c-41.31 0-74.79 33.48-74.79 74.79v17.06c0 12.39 10.05 22.44 22.44 22.44h183.71c12.39 0 22.44-10.05 22.44-22.44z" fill="#fff"/></g></g></svg>