<svg height="512" viewBox="0 0 64 64" width="512" xmlns="http://www.w3.org/2000/svg"><g id="_16_Group" data-name="16 Group"><path d="m61.8091 35.1108c.3756-9.5978-10.6726-10.8776-17.8091-11.7481l-9.1479 1.5245c-5.0186.8364 5.4931 20.0991 9.1479 20.0991s9.49-1.1206 13.7417-2.06c3.7083-.6907 4.3883-4.6307 4.0674-7.8155z" fill="#ffc107"/><path d="m44.0006 8.1074c-12.6667.0639-12.6678 18.9343 0 19 12.6656-.064 12.6666-18.9343 0-19z" fill="#ffa000"/><path d="m20 23.3627c-7.1444.8714-18.1806 2.1513-17.8091 11.7481-.3208 3.1838.3579 7.1247 4.0674 7.815a50.5891 50.5891 0 0 0 27.4834 0c3.7083-.6902-13.7417-19.5631-13.7417-19.5631z" fill="#ff3c38"/><path d="m20.0009 8.1085c-12.6676-.1723-12.6675 19.1685-.0009 18.9978 12.6667.1723 12.6666-19.1686.0009-18.9978z" fill="#e52828"/><path d="m52.7183 44.5879c-.4155-12.1061-11.6683-12.0679-20.7183-13.6065-8.4352 1.1185-20.9815 2.28-20.7183 13.6065-.359 3.6467.3631 8.2072 4.6353 8.9985a59.1625 59.1625 0 0 0 32.166 0c4.2711-.7912 4.9949-5.3506 4.6353-8.9985z" fill="#26a6fe"/><path d="m32.0005 13.0547c-14.666.2571-14.6683 21.7408 0 22 14.6651-.2571 14.6673-21.7408 0-22z" fill="#1c82ba"/></g></svg>