<svg clip-rule="evenodd" fill-rule="evenodd" height="512" image-rendering="optimizeQuality" shape-rendering="geometricPrecision" text-rendering="geometricPrecision" viewBox="0 0 6.82666 6.82666" width="512" xmlns="http://www.w3.org/2000/svg"><g id="Layer_x0020_1"><circle cx="3.413" cy="3.413" fill="#d9af00" r="3.333"/><g id="_366352416" fill="#fff"><path id="_366353448" d="m2.27925 5.10285-.418772-.241756.119024-.136815.388744.224453c-.0296654.051374-.0593307.102744-.0889961.154118z"/><path id="_366354048" d="m5.42801 2.21058c-.0113622.0196929-.0250512.0375472-.0407008.0532717l.122728.070874c.0247047-.0199409.0616063-.083815.0664764-.115209l-.12274-.0708622c-.00573622.0212087-.0142677.0420236-.0257638.0619252z"/><path id="_366353736" d="m4.67946 1.95753.446681.257835c.0424055.0245394.0917047.0266457.13413.0100669.00520472-.00368504.0110197-.00635039.017122-.00791339.0245039-.013185.0457638-.0330945.0606654-.0589055.0427717-.0740748.0172323-.169169-.0568386-.211933l-.446618-.257866-.155142.268717z"/><path id="_366352824" d="m3.75394 2.5892c-.0741378.0373701-.14985.0987717-.208839.150213-.120917.105449-.23398.22561-.340591.345335-.114906.129039-.225815.262866-.332449.39889l-.123657-.123665.981185-1.25767c.0419921.102906.0437756.249634.0373307.354839-.00268504.0438189-.00709055.0879134-.0129803.132063z"/><path id="_366352800" d="m4.50687 2.25645-.08204.14211.14283.08251.0821-.1421z"/><path id="_366352704" d="m4.26056 2.68309-.08204.14209.14292.08247.08202-.14211z"/><path id="_366352680" d="m4.01426 3.10968-.08203.14209.14289.08245.08201-.1421z"/><path id="_366353040" d="m4.21379 1.3605-.386693.669724c.10024.20426.0761457.60639-.0644213 1.04126-.0682913.211024-.15963.412957-.260843.577976l.0769606.00650787.237291-.410996.00009055-.00016929.00009449-.00015354.245496-.425213.00072047-.00129528.00076378-.00127559.132504-.2295.0007126-.00128346.00075984-.00126772.111421-.192992.00014567-.00025984.00015748-.00025984.132843-.230091.00098425-.00179134.00105906-.00174409.11911-.206307.00046063-.0008189.00048819-.00082284.310976-.538622-.280248-.0907638c-.212461-.0689291-.312354-.0784921-.380835.0401535zm.25678.240803c-.00874803 0-.017689-.00216535-.0258976-.00694488l-.031126-.0179606c-.0248858-.0143425-.0333819-.0460984-.0190354-.071.0143465-.024815.0461024-.0333858.0710039-.0190394l.0311417.0180433c.0248071.0143425.0333661.0461063.0190236.0709173-.00964567.016689-.0271575.0259843-.0451102.0259843z"/><path id="_366352992" d="m1.78067 4.77226-.34972-.20189-.180803.180803c.0147165.0568425.0784016.206437.342752.236929l.187772-.215843z"/><path id="_366353112" d="m2.23601 3.76531-.728961.728965.343122.198106.955417-1.09823c-.0324173-.0562008-.153531-.142488-.208138-.189193l-.175839.175929c-.00974409.00974803-.0230197.015252-.0368228.015252h-.13352v.132358c0 .0138031-.00551575.0270669-.0152598.036811z"/><path id="_366353088" d="m2.68009 4.6457-.25311.438319c-.00019685.00035827-.00039764.0007126-.00060236.00107087-.00022047.00038189-.00044488.00075984-.00067323.00113386l-.16398.283969.323646.18685.418268-.724496-.27948-.161394-.00049213-.00027953-.00046457-.00027559-.0431102-.0248976z"/><path id="_366352128" d="m3.32194 3.7386-.50127.86824.2139.12351.55932-.96874z"/></g></g></svg>