<svg clip-rule="evenodd" fill-rule="evenodd" height="512" image-rendering="optimizeQuality" shape-rendering="geometricPrecision" text-rendering="geometricPrecision" viewBox="0 0 2666.66 2666.66" width="512" xmlns="http://www.w3.org/2000/svg" xmlns:xodm="http://www.corel.com/coreldraw/odm/2003"><g id="Layer_x0020_1"><circle cx="1333.33" cy="1333.33" fill="#f06730" r="1333.33"/><g fill="#fefefe"><path d="m2166.65 2160.67h-1666.64c-11.04 0-20-8.97-20-20v-870.39c0-11.04 8.96-20 20-20h880.09v-360.81c0-11.04 8.97-20 20-20h766.56c11.04 0 20 8.96 20 20v1251.2c0 11.04-8.96 20-20 20zm-1646.64-40.02h1626.64v-1211.19h-726.54v360.81c0 11.04-8.97 20-20 20h-880.1v830.37z"/><path d="m1113.83 2160.67h-346.76c-11.04 0-20-8.97-20-20v-342.34c0-11.04 8.96-20 20-20h346.75c11.04 0 20 8.97 20 20v342.33c.01 11.05-8.94 20.01-19.99 20.01zm-326.76-40.02h306.75v-302.33h-306.75z"/><path d="m1301.16 1290.28c-10.56 0-19.39-8.26-19.96-18.93l-38.56-725.37h-145.04l-38.56 725.37c-1.41 26.55-41.33 24.07-39.94-2.14l39.55-744.29c.57-10.61 9.33-18.93 19.98-18.93l182.98-.01c10.64 0 19.4 8.32 19.97 18.93l39.55 744.3c.61 11.44-8.53 21.07-19.99 21.07z"/><path d="m861.02 1290.28c-10.56 0-19.39-8.26-19.96-18.93l-38.56-725.35h-145.04l-38.56 725.36c-1.4 26.43-41.33 24.1-39.94-2.13l39.57-744.3c.57-10.61 9.33-18.93 19.97-18.93h182.98c10.64 0 19.4 8.32 19.98 18.93l39.57 744.29c.61 11.47-8.55 21.06-20.02 21.06z"/><path d="m1267.26 652.01h-194.27c-26.33 0-26.33-40 0-40h194.25c26.32 0 26.33 40 .02 40z"/><path d="m827.1 652.01h-194.25c-26.33 0-26.33-40 0-40h194.25c26.32 0 26.34 40 0 40z"/><path d="m1185.26 1511.59h-189.54c-11.04 0-20-8.97-20-20v-125.84c0-11.04 8.96-20 20-20h189.54c11.04 0 20 8.97 20 20v125.84c0 11.03-8.96 20-20 20zm-169.54-40.01h149.54v-85.83l-149.54-.01z"/><path d="m885.19 1511.59h-189.54c-11.04 0-20-8.97-20-20v-125.84c0-11.04 8.96-20 20-20h189.52c11.04 0 20 8.97 20 20v125.84c.02 11.03-8.94 20-19.98 20zm-169.54-40.01h149.54v-85.83l-149.54-.01z"/><path d="m1185.26 1722.88h-189.54c-11.04 0-20-8.97-20-20v-125.84c0-11.04 8.96-20 20-20h189.54c11.04 0 20 8.97 20 20v125.84c0 11.03-8.96 20-20 20zm-169.54-40.01h149.54v-85.83h-149.54z"/><path d="m885.19 1722.88h-189.54c-11.04 0-20-8.97-20-20v-125.84c0-11.04 8.96-20 20-20h189.52c11.04 0 20 8.97 20 20v125.84c.02 11.03-8.94 20-19.98 20zm-169.54-40.01h149.54v-85.83h-149.54z"/><path d="m1766.71 1296.7c-15.81 0-25.84-18.3-16.24-31.67l71.89-100.13-116.41-11.56c-15.28-1.52-23.22-19.09-14.27-31.57l92.4-128.73c15.3-21.31 47.8 2.02 32.5 23.33l-72.21 100.6 116.41 11.56c15.28 1.52 23.22 19.1 14.27 31.57l-92.08 128.28c-3.91 5.44-10.04 8.33-16.26 8.33z"/><path d="m2067.4 1775.7h-755.46c-11.04 0-20-8.97-20-20v-123.14c0-11.04 8.96-20 20-20h755.48c11.04 0 20 8.97 20 20v123.14c0 11.03-8.98 20-20.02 20zm-735.46-40.01h715.46v-83.12l-715.46-.01z"/><path d="m2067.4 1535.07h-755.46c-11.04 0-20-8.97-20-20v-123.14c0-11.04 8.96-20 20-20h755.48c11.04 0 20 8.97 20 20v123.14c0 11.04-8.98 20-20.02 20zm-735.46-40h715.46v-83.12h-715.46v83.13z"/><path d="m2067.4 2016.32h-755.46c-11.04 0-20-8.97-20-20v-123.14c0-11.04 8.96-20 20-20l755.48.01c11.04 0 20 8.97 20 20v123.14c0 11.02-8.98 20-20.02 20zm-735.46-40.01h715.46v-83.12h-715.46z"/><path d="m940.45 2160.67c-11.04 0-20-8.97-20-20v-342.34c0-26.33 40-26.32 40 0v342.33c0 11.05-8.94 20.01-20 20.01z"/><path d="m1001.46 2013.99c-26.98 0-20-37.02-20-68.96 0-26.33 40-26.32 40 0 0 31.94 6.98 68.96-20 68.96z"/><path d="m879.45 2013.99c-26.98 0-20-37.02-20-68.96 0-26.33 40-26.32 40 0 0 31.94 6.98 68.96-20 68.96z"/></g></g></svg>