<?xml version="1.0" encoding="UTF-8"?>
<svg class="" width="512" height="512" enable-background="new 0 0 512 512" version="1.1" viewBox="0 0 512 512" xml:space="preserve" xmlns="http://www.w3.org/2000/svg"><rect class="" x="399.44" y="273.93" width="67.822" height="60.276" fill="#b8002a" data-original="#b4b4b4"/><rect class="" x="44.736" y="273.93" width="67.822" height="60.276" fill="#de0436" data-original="#e0e0e0"/><path class="" d="m357.36 251.98v-119.24c0-45.452-29.918-83.915-71.134-96.775v-35.958h-30.226l-20.916 302.04 20.916 194.28h101.36v-140.16h68.076v-104.19z" fill="#e08620" data-original="#b8002a"/><path class="" d="m225.78 0v35.958c-41.217 12.86-71.134 51.324-71.134 96.775v119.24h-68.077v104.19h68.076v140.16h101.36v-496.32z" fill="#f9a821" data-original="#de0436"/><path class="" d="m256 242.43-20.916 61.643 20.916 61.643c34.045 0 61.643-27.599 61.643-61.643s-27.599-61.643-61.643-61.643z" fill="#b8002a" data-original="#b4b4b4"/><path class="" d="m194.36 304.07c0 34.045 27.599 61.643 61.643 61.643v-123.29c-34.045 0-61.643 27.599-61.643 61.645z" fill="#de0436" data-original="#e0e0e0"/><path class="" d="m280.9 304.07c0-13.748-11.145-24.893-24.893-24.893l-10.458 24.893 10.458 24.893c13.748-1e-3 24.893-11.146 24.893-24.893z" fill="#b8002a" data-original="#707070"/><path class="" d="m231.11 304.07c0 13.748 11.145 24.893 24.893 24.893v-49.786c-13.749-1e-3 -24.893 11.144-24.893 24.893z" fill="#de0436" data-original="#b4b4b4"/><polygon class="" points="391.87 169.32 391.87 137.98 256 137.98 235.09 153.65 256 169.32" fill="#b8002a" data-original="#707070"/><polygon class="" points="256 512 391.87 512 391.87 480.65 256 480.65 235.09 496.32" fill="#b8002a" data-original="#707070"/><rect class="" x="120.14" y="137.98" width="135.86" height="31.348" fill="#de0436" data-original="#b4b4b4"/><rect class="" x="120.14" y="480.65" width="135.86" height="31.348" fill="#de0436" data-original="#b4b4b4"/></svg>
