<?xml version="1.0" encoding="UTF-8"?>
<svg class="" width="512" height="512" enable-background="new 0 0 512 512" version="1.1" viewBox="0 0 511.94 511.94" xml:space="preserve" xmlns="http://www.w3.org/2000/svg"><path d="m190.52 239.11c-0.52125 0-1.0369 0.0264-1.5448 0.0781s-1.008 0.12954-1.4998 0.23045c-0.49184 0.1009-0.97379 0.22547-1.4471 0.373-0.4733 0.14754-0.93824 0.31811-1.3905 0.50971-0.45223 0.1916-0.89158 0.40353-1.3202 0.63664-0.42858 0.23313-0.8455 0.48761-1.2479 0.75969-0.40239 0.27208-0.79029 0.5625-1.1639 0.87099-0.37365 0.30849-0.73371 0.63411-1.0761 0.97646-0.34234 0.34234-0.66797 0.70045-0.97645 1.0741-0.30849 0.37364-0.59891 0.76349-0.87099 1.1659-0.27208 0.4024-0.52461 0.81737-0.75774 1.246-0.23311 0.42859-0.44699 0.86989-0.6386 1.3221-0.19159 0.45223-0.36216 0.91716-0.5097 1.3905-0.14753 0.47331-0.2721 0.95526-0.37301 1.4471-0.1009 0.49185-0.17871 0.99201-0.23044 1.4998-0.0517 0.50782-0.0781 1.0235-0.0781 1.5448v3.4703c0 0.52124 0.0264 1.0369 0.0781 1.5448 0.0517 0.50782 0.12954 1.008 0.23044 1.4998 0.10091 0.49184 0.22548 0.97574 0.37301 1.449 0.14754 0.47331 0.31811 0.93629 0.5097 1.3885 0.19161 0.45223 0.40549 0.89353 0.6386 1.3221 0.23313 0.42859 0.48566 0.84551 0.75774 1.2479s0.5625 0.79029 0.87099 1.1639c0.30848 0.37365 0.63411 0.73176 0.97645 1.0741 0.34235 0.34234 0.70241 0.66992 1.0761 0.97841 0.37363 0.30849 0.76153 0.59891 1.1639 0.87099 0.4024 0.27208 0.81932 0.52461 1.2479 0.75773 0.42859 0.23312 0.86794 0.447 1.3202 0.63861 0.45222 0.19159 0.91716 0.36216 1.3905 0.5097 0.47332 0.14753 0.95527 0.2721 1.4471 0.37301 0.49185 0.1009 0.99201 0.17675 1.4998 0.22848 0.50782 0.0517 1.0235 0.0781 1.5448 0.0781h130.91c0.52126 0 1.0369-0.0264 1.5448-0.0781s1.008-0.12758 1.4998-0.22848c0.49184-0.10091 0.97574-0.22548 1.4491-0.37301 0.47331-0.14754 0.93629-0.31811 1.3885-0.5097 0.45223-0.19161 0.89353-0.40549 1.3221-0.63861 0.42858-0.23312 0.84551-0.48565 1.2479-0.75773 0.40238-0.27208 0.79028-0.5625 1.1639-0.87099 0.37364-0.30849 0.73174-0.63607 1.0741-0.97841 0.34234-0.34234 0.66797-0.70045 0.97645-1.0741 0.30849-0.37363 0.60087-0.76153 0.87295-1.1639 0.27208-0.4024 0.5246-0.81932 0.75773-1.2479 0.23311-0.42858 0.447-0.86988 0.6386-1.3221 0.19159-0.45223 0.36022-0.91521 0.50775-1.3885s0.27405-0.95721 0.37496-1.449c0.1009-0.49185 0.17676-0.99201 0.22849-1.4998 0.0517-0.50783 0.0781-1.0235 0.0781-1.5448v-3.4703c0-0.52118-0.0264-1.037-0.0781-1.5448s-0.12759-1.008-0.22849-1.4998c-0.10091-0.49181-0.22743-0.97381-0.37496-1.4471s-0.31616-0.9363-0.50775-1.3885c-0.1916-0.45221-0.40549-0.89353-0.6386-1.3221-0.23313-0.42859-0.48565-0.84551-0.75773-1.2479s-0.56446-0.79027-0.87295-1.1639c-0.30848-0.37366-0.63411-0.7337-0.97645-1.076-0.34235-0.34236-0.70045-0.66795-1.0741-0.97646s-0.76155-0.59889-1.1639-0.87099c-0.4024-0.2721-0.81933-0.52654-1.2479-0.75969-0.42859-0.23313-0.86989-0.44502-1.3221-0.63664-0.45222-0.19162-0.9152-0.36216-1.3885-0.50971-0.47332-0.14755-0.95722-0.27209-1.4491-0.373-0.49184-0.10092-0.99201-0.1787-1.4998-0.23045-0.50782-0.0517-1.0235-0.0781-1.5448-0.0781z" fill="#f8dba8"/><path d="m190.52 209.11c-1.5551 0-3.0918 0.08-4.6069 0.23435-1.5151 0.15434-3.0086 0.38441-4.4761 0.68547-1.4674 0.30106-2.9077 0.673-4.3198 1.1132-1.4121 0.44015-2.7948 0.94771-4.1441 1.5194-1.3492 0.57163-2.6662 1.2066-3.9449 1.9021s-2.5198 1.4517-3.7203 2.2634c-1.2005 0.81174-2.3595 1.6789-3.4742 2.5993-1.1148 0.92038-2.1853 1.8943-3.2067 2.9157s-1.9934 2.0919-2.9137 3.2067c-0.92037 1.1148-1.7895 2.2737-2.6013 3.4742-0.81174 1.2005-1.566 2.4416-2.2615 3.7203s-1.3324 2.5957-1.9041 3.9449c-0.57164 1.3492-1.0792 2.73-1.5194 4.1421s-0.8121 2.8544-1.1132 4.3218c-0.30105 1.4674-0.53112 2.961-0.68547 4.476-0.15433 1.5151-0.23239 3.0518-0.23239 4.6069v3.4703c0 1.5551 0.0781 3.0938 0.23239 4.6088 0.15435 1.5151 0.38442 3.0067 0.68547 4.4741 0.30106 1.4674 0.673 2.9097 1.1132 4.3218 0.44016 1.4121 0.94772 2.7949 1.5194 4.1441 0.57164 1.3492 1.2086 2.6642 1.9041 3.9429s1.4497 2.5217 2.2615 3.7222c0.81175 1.2005 1.6809 2.3594 2.6013 3.4742 0.92038 1.1148 1.8924 2.1853 2.9137 3.2067 1.0214 1.0214 2.0919 1.9934 3.2067 2.9137 1.1148 0.92037 2.2737 1.7876 3.4742 2.5993s2.4416 1.5679 3.7203 2.2634 2.5957 1.3305 3.9449 1.9021c1.3492 0.57165 2.732 1.0792 4.1441 1.5194s2.8524 0.81405 4.3198 1.1151 2.961 0.53113 4.4761 0.68546c1.5151 0.15434 3.0518 0.23239 4.6069 0.23239h130.91c1.5551 0 3.0918-0.0781 4.6069-0.23239 1.5151-0.15433 3.0086-0.38441 4.4761-0.68546 1.4674-0.30107 2.9097-0.67496 4.3218-1.1151s2.7949-0.94771 4.1441-1.5194c1.3492-0.57164 2.6642-1.2066 3.9429-1.9021 1.2787-0.69551 2.5198-1.4517 3.7203-2.2634s2.3614-1.6789 3.4762-2.5993c1.1148-0.92039 2.1833-1.8924 3.2047-2.9137 1.0214-1.0214 1.9953-2.0919 2.9157-3.2067 0.92038-1.1148 1.7876-2.2737 2.5993-3.4742 0.81174-1.2005 1.5679-2.4436 2.2634-3.7222 0.6955-1.2787 1.3305-2.5937 1.9021-3.9429 0.57164-1.3492 1.0792-2.7319 1.5194-4.1441 0.44016-1.4121 0.81405-2.8544 1.1151-4.3218s0.52917-2.959 0.68352-4.4741c0.15433-1.5151 0.23434-3.0537 0.23434-4.6088v-3.4703c0-1.5551-0.08-3.0918-0.23434-4.6069-0.15435-1.5151-0.38247-3.0086-0.68352-4.476-0.30106-1.4674-0.67495-2.9097-1.1151-4.3218s-0.94772-2.7929-1.5194-4.1421c-0.57164-1.3492-1.2066-2.6662-1.9021-3.9449s-1.4517-2.5198-2.2634-3.7203c-0.81175-1.2005-1.6789-2.3594-2.5993-3.4742-0.92036-1.1148-1.8943-2.1853-2.9157-3.2067s-2.09-1.9953-3.2047-2.9157c-1.1148-0.92037-2.2756-1.7876-3.4762-2.5993-1.2005-0.81175-2.4416-1.5679-3.7203-2.2634s-2.5937-1.3305-3.9429-1.9021c-1.3492-0.57165-2.732-1.0792-4.1441-1.5194-1.4121-0.44016-2.8544-0.8121-4.3218-1.1132-1.4674-0.30106-2.961-0.53113-4.4761-0.68547s-3.0518-0.23435-4.6069-0.23435zm0 30.001h130.91c0.52126 0 1.0369 0.0264 1.5448 0.0781s1.008 0.12953 1.4998 0.23045c0.49184 0.10091 0.97574 0.22545 1.4491 0.373 0.47331 0.14755 0.93629 0.31809 1.3885 0.50971 0.45223 0.19162 0.89353 0.40351 1.3221 0.63664 0.42858 0.23315 0.84551 0.48759 1.2479 0.75969 0.40238 0.2721 0.79028 0.56248 1.1639 0.87099 0.37364 0.30851 0.73174 0.6341 1.0741 0.97646 0.34234 0.34235 0.66797 0.70239 0.97645 1.076 0.30849 0.37365 0.60087 0.76153 0.87295 1.1639 0.27208 0.4024 0.5246 0.81932 0.75773 1.2479 0.23311 0.42858 0.447 0.8699 0.6386 1.3221 0.19159 0.45222 0.36022 0.91523 0.50775 1.3885s0.27405 0.95529 0.37496 1.4471c0.1009 0.49182 0.17676 0.99206 0.22849 1.4998 0.0517 0.50777 0.0781 1.0236 0.0781 1.5448v3.4703c0 0.52124-0.0264 1.0369-0.0781 1.5448-0.0517 0.50782-0.12759 1.008-0.22849 1.4998-0.10091 0.49184-0.22743 0.97574-0.37496 1.449s-0.31616 0.93629-0.50775 1.3885c-0.1916 0.45223-0.40549 0.89353-0.6386 1.3221-0.23313 0.42859-0.48565 0.84551-0.75773 1.2479s-0.56446 0.79029-0.87295 1.1639c-0.30848 0.37365-0.63411 0.73176-0.97645 1.0741-0.34235 0.34234-0.70045 0.66992-1.0741 0.97841s-0.76155 0.59891-1.1639 0.87099c-0.4024 0.27208-0.81933 0.52461-1.2479 0.75773-0.42859 0.23312-0.86989 0.447-1.3221 0.63861-0.45222 0.19159-0.9152 0.36216-1.3885 0.5097-0.47332 0.14753-0.95722 0.2721-1.4491 0.37301-0.49184 0.1009-0.99201 0.17675-1.4998 0.22848-0.50782 0.0517-1.0235 0.0781-1.5448 0.0781h-130.91c-0.52125 0-1.0369-0.0264-1.5448-0.0781s-1.008-0.12758-1.4998-0.22848c-0.49184-0.10091-0.97379-0.22548-1.4471-0.37301-0.4733-0.14754-0.93824-0.31811-1.3905-0.5097-0.45223-0.19161-0.89158-0.40549-1.3202-0.63861-0.42858-0.23312-0.8455-0.48565-1.2479-0.75773-0.40239-0.27208-0.79029-0.5625-1.1639-0.87099-0.37365-0.30849-0.73371-0.63607-1.0761-0.97841-0.34234-0.34234-0.66797-0.70045-0.97645-1.0741-0.30849-0.37363-0.59891-0.76153-0.87099-1.1639-0.27208-0.4024-0.52461-0.81932-0.75774-1.2479-0.23311-0.42858-0.44699-0.86988-0.6386-1.3221-0.19159-0.45223-0.36216-0.91521-0.5097-1.3885-0.14753-0.47331-0.2721-0.95721-0.37301-1.449-0.1009-0.49185-0.17871-0.99201-0.23044-1.4998-0.0517-0.50783-0.0781-1.0235-0.0781-1.5448v-3.4703c0-0.52125 0.0264-1.0369 0.0781-1.5448s0.12954-1.008 0.23044-1.4998c0.10091-0.49184 0.22548-0.97379 0.37301-1.4471 0.14754-0.47331 0.31811-0.93824 0.5097-1.3905 0.19161-0.45223 0.40549-0.89353 0.6386-1.3221 0.23313-0.42858 0.48566-0.84355 0.75774-1.246 0.27208-0.40239 0.5625-0.79224 0.87099-1.1659 0.30848-0.37364 0.63411-0.73175 0.97645-1.0741 0.34235-0.34235 0.70241-0.66797 1.0761-0.97646 0.37363-0.30849 0.76153-0.59891 1.1639-0.87099 0.4024-0.27208 0.81932-0.52656 1.2479-0.75969 0.42859-0.23311 0.86794-0.44504 1.3202-0.63664 0.45222-0.1916 0.91716-0.36217 1.3905-0.50971 0.47332-0.14753 0.95527-0.2721 1.4471-0.373 0.49185-0.10091 0.99201-0.17871 1.4998-0.23045 0.50782-0.0517 1.0235-0.0781 1.5448-0.0781z" fill="#a41e14"/><path d="m255.97 111.67c-2.4865 0-4.9592 0.0626-7.4152 0.18748-2.456 0.12491-4.8951 0.31176-7.3175 0.55853-2.4225 0.24678-4.8282 0.55227-7.214 0.91787-2.3859 0.36559-4.7526 0.78997-7.0988 1.2713-2.3462 0.48136-4.6722 1.021-6.9758 1.615s-4.5851 1.2433-6.843 1.947c-2.2578 0.70377-4.4914 1.4608-6.7004 2.2712s-4.3928 1.6736-6.55 2.5876-4.2875 1.8797-6.3899 2.8942-4.1775 2.079-6.222 3.191-4.0588 2.2716-6.0423 3.4781-3.9353 2.4595-5.8548 3.7574-3.807 2.6406-5.6595 4.0269-3.6701 2.817-5.4525 4.2886-3.5284 2.9847-5.2377 4.5386c-1.7093 1.5538-3.382 3.1476-5.0151 4.7807s-3.2268 3.3058-4.7807 5.0151-3.067 3.4553-4.5386 5.2377-2.9023 3.6-4.2886 5.4525-2.729 3.74-4.0269 5.6595-2.5509 3.8713-3.7574 5.8548-2.3661 3.9978-3.4781 6.0423-2.1765 4.1196-3.191 6.222-1.9802 4.2327-2.8942 6.3899c-0.91399 2.1572-1.7772 4.341-2.5876 6.55s-1.5675 4.4426-2.2712 6.7004c-0.70377 2.2578-1.353 4.5394-1.947 6.843s-1.1337 4.6295-1.615 6.9758c-0.48137 2.3462-0.90575 4.7129-1.2713 7.0988-0.3656 2.3859-0.67109 4.7916-0.91787 7.214-0.24677 2.4225-0.43362 4.8615-0.55853 7.3175s-0.18748 4.9287-0.18748 7.4152 0.0626 4.9592 0.18748 7.4152c0.12491 2.456 0.31176 4.8951 0.55853 7.3175 0.24678 2.4225 0.55227 4.8282 0.91787 7.214 0.36559 2.3859 0.78997 4.7526 1.2713 7.0988 0.48136 2.3462 1.021 4.6722 1.615 6.9758s1.2433 4.5851 1.947 6.843c0.70377 2.2578 1.4608 4.4914 2.2712 6.7004 0.8104 2.2091 1.6736 4.3928 2.5876 6.55s1.8797 4.2875 2.8942 6.3899 2.079 4.1775 3.191 6.222 2.2716 4.0588 3.4781 6.0423 2.4595 3.9353 3.7574 5.8548 2.6406 3.807 4.0269 5.6595 2.817 3.6701 4.2886 5.4525 2.9847 3.5284 4.5386 5.2377c1.5538 1.7093 3.1476 3.382 4.7807 5.0151s3.3058 3.2268 5.0151 4.7807 3.4553 3.067 5.2377 4.5386 3.6 2.9023 5.4525 4.2886 3.74 2.729 5.6595 4.0269 3.8713 2.5509 5.8548 3.7574 3.9978 2.3661 6.0423 3.4781 4.1196 2.1765 6.222 3.191 4.2327 1.9802 6.3899 2.8942 4.341 1.7772 6.55 2.5876c2.2091 0.81039 4.4426 1.5674 6.7004 2.2712 2.2578 0.70377 4.5394 1.353 6.843 1.947s4.6295 1.1337 6.9758 1.615c2.3462 0.48137 4.7129 0.90575 7.0988 1.2713 2.3859 0.3656 4.7916 0.67109 7.214 0.91787 2.4225 0.24677 4.8615 0.43362 7.3175 0.55853s4.9287 0.18748 7.4152 0.18748 4.9592-0.0626 7.4152-0.18748c2.456-0.12491 4.8951-0.31176 7.3175-0.55853 2.4225-0.24678 4.8282-0.55227 7.214-0.91787 2.3859-0.36559 4.7526-0.78997 7.0988-1.2713 2.3462-0.48136 4.6722-1.021 6.9758-1.615s4.5851-1.2433 6.843-1.947c2.2578-0.70377 4.4914-1.4608 6.7004-2.2712 2.2091-0.81041 4.3928-1.6736 6.55-2.5876s4.2875-1.8797 6.3899-2.8942 4.1775-2.079 6.222-3.191 4.0588-2.2716 6.0423-3.4781 3.9353-2.4595 5.8548-3.7574 3.807-2.6406 5.6595-4.0269 3.6701-2.817 5.4525-4.2886 3.5284-2.9847 5.2377-4.5386c1.7093-1.5538 3.382-3.1476 5.0151-4.7807s3.2268-3.3058 4.7807-5.0151 3.067-3.4553 4.5386-5.2377 2.9023-3.6 4.2886-5.4525 2.729-3.74 4.0269-5.6595 2.5509-3.8713 3.7574-5.8548 2.3661-3.9978 3.4781-6.0423 2.1765-4.1196 3.191-6.222 1.9802-4.2327 2.8942-6.3899 1.7772-4.341 2.5876-6.55c0.81039-2.209 1.5674-4.4426 2.2712-6.7004 0.70377-2.2578 1.353-4.5394 1.947-6.843s1.1337-4.6295 1.615-6.9758c0.48137-2.3462 0.90575-4.7129 1.2713-7.0988 0.3656-2.3859 0.67109-4.7916 0.91787-7.214 0.24677-2.4225 0.43362-4.8615 0.55853-7.3175s0.18748-4.9287 0.18748-7.4152-0.0626-4.9592-0.18748-7.4152c-0.12491-2.456-0.31176-4.8951-0.55853-7.3175-0.24678-2.4225-0.55227-4.8282-0.91787-7.214-0.36559-2.3859-0.78997-4.7526-1.2713-7.0988-0.48136-2.3462-1.021-4.6722-1.615-6.9758s-1.2433-4.5851-1.947-6.843c-0.70377-2.2578-1.4608-4.4914-2.2712-6.7004-0.81041-2.2091-1.6736-4.3928-2.5876-6.55s-1.8797-4.2875-2.8942-6.3899-2.079-4.1775-3.191-6.222-2.2716-4.0588-3.4781-6.0423-2.4595-3.9353-3.7574-5.8548-2.6406-3.807-4.0269-5.6595-2.817-3.6701-4.2886-5.4525-2.9847-3.5284-4.5386-5.2377c-1.5538-1.7093-3.1476-3.382-4.7807-5.0151s-3.3058-3.2268-5.0151-4.7807-3.4553-3.067-5.2377-4.5386-3.6-2.9023-5.4525-4.2886-3.74-2.729-5.6595-4.0269-3.8713-2.5509-5.8548-3.7574-3.9978-2.3661-6.0423-3.4781-4.1196-2.1765-6.222-3.191-4.2327-1.9802-6.3899-2.8942c-2.1572-0.91399-4.341-1.7772-6.55-2.5876s-4.4426-1.5675-6.7004-2.2712c-2.2578-0.70377-4.5394-1.353-6.843-1.947s-4.6295-1.1337-6.9758-1.615c-2.3462-0.48137-4.7129-0.90575-7.0988-1.2713-2.3859-0.3656-4.7916-0.67109-7.214-0.91787-2.4225-0.24677-4.8615-0.43362-7.3175-0.55853s-4.9287-0.18748-7.4152-0.18748zm-65.455 97.438h130.91c1.5551 0 3.0918 0.08 4.6069 0.23435 1.5151 0.15434 3.0087 0.38441 4.4761 0.68547s2.9097 0.673 4.3218 1.1132c1.4121 0.44015 2.7949 0.94771 4.1441 1.5194 1.3492 0.57163 2.6642 1.2066 3.9429 1.9021s2.5198 1.4517 3.7203 2.2634c1.2005 0.81174 2.3614 1.6789 3.4762 2.5993 1.1148 0.92038 2.1833 1.8943 3.2047 2.9157s1.9953 2.0919 2.9157 3.2067c0.92038 1.1148 1.7876 2.2737 2.5993 3.4742 0.81174 1.2005 1.5679 2.4416 2.2634 3.7203s1.3305 2.5957 1.9021 3.9449c0.57164 1.3492 1.0792 2.73 1.5194 4.1421s0.81405 2.8544 1.1151 4.3218 0.52918 2.961 0.68352 4.476c0.15433 1.5151 0.23434 3.0518 0.23434 4.6069v3.4703c0 1.5551-0.08 3.0938-0.23434 4.6088s-0.38247 3.0067-0.68352 4.4741c-0.30106 1.4674-0.67495 2.9097-1.1151 4.3218-0.44016 1.4121-0.94772 2.7949-1.5194 4.1441-0.57164 1.3492-1.2066 2.6642-1.9021 3.9429s-1.4517 2.5217-2.2634 3.7222c-0.81175 1.2005-1.6789 2.3594-2.5993 3.4742-0.92036 1.1148-1.8943 2.1853-2.9157 3.2067s-2.09 1.9934-3.2047 2.9137c-1.1148 0.92037-2.2756 1.7876-3.4762 2.5993s-2.4416 1.5679-3.7203 2.2634-2.5937 1.3305-3.9429 1.9021c-1.3492 0.57165-2.732 1.0792-4.1441 1.5194s-2.8544 0.81405-4.3218 1.1151-2.961 0.53113-4.4761 0.68546c-1.5151 0.15434-3.0518 0.23239-4.6069 0.23239h-130.91c-1.5551 0-3.0918-0.0781-4.6069-0.23239-1.5151-0.15433-3.0087-0.38441-4.4761-0.68546-1.4674-0.30107-2.9077-0.67496-4.3198-1.1151s-2.7948-0.94771-4.1441-1.5194c-1.3492-0.57164-2.6662-1.2066-3.9449-1.9021-1.2787-0.69551-2.5198-1.4517-3.7203-2.2634s-2.3595-1.6789-3.4742-2.5993c-1.1148-0.92038-2.1853-1.8924-3.2067-2.9137s-1.9934-2.0919-2.9137-3.2067c-0.92037-1.1148-1.7895-2.2737-2.6013-3.4742-0.81174-1.2005-1.566-2.4436-2.2615-3.7222-0.6955-1.2787-1.3324-2.5937-1.9041-3.9429-0.57164-1.3492-1.0792-2.732-1.5194-4.1441-0.44016-1.4121-0.8121-2.8544-1.1132-4.3218-0.30105-1.4674-0.53113-2.959-0.68547-4.4741-0.15433-1.5151-0.23239-3.0537-0.23239-4.6088v-3.4703c0-1.5551 0.0781-3.0918 0.23239-4.6069 0.15434-1.5151 0.38442-3.0086 0.68547-4.476 0.30106-1.4674 0.673-2.9097 1.1132-4.3218s0.94772-2.7929 1.5194-4.1421c0.57164-1.3492 1.2086-2.6662 1.9041-3.9449s1.4497-2.5198 2.2615-3.7203c0.81175-1.2005 1.6809-2.3594 2.6013-3.4742 0.92038-1.1148 1.8924-2.1853 2.9137-3.2067s2.0919-1.9953 3.2067-2.9157c1.1148-0.92037 2.2737-1.7876 3.4742-2.5993 1.2005-0.81175 2.4416-1.5679 3.7203-2.2634s2.5957-1.3305 3.9449-1.9021c1.3492-0.57165 2.732-1.0792 4.1441-1.5194 1.4121-0.44016 2.8524-0.8121 4.3198-1.1132 1.4674-0.30106 2.961-0.53113 4.4761-0.68547s3.0518-0.23435 4.6069-0.23435z" fill="#f8dba8"/><path d="m258.05 80.362a176.42 176.42 0 0 0-176.42 176.42 176.42 176.42 0 0 0 176.42 176.42 176.42 176.42 0 0 0 176.42-176.42 176.42 176.42 0 0 0-176.42-176.42zm-2.0759 31.309c2.4865 0 4.9592 0.0626 7.4152 0.18748 2.456 0.12491 4.8951 0.31176 7.3175 0.55853 2.4225 0.24678 4.8282 0.55227 7.214 0.91787 2.3859 0.36559 4.7526 0.78997 7.0988 1.2713 2.3462 0.48136 4.6722 1.021 6.9758 1.615s4.5851 1.2433 6.843 1.947c2.2578 0.70377 4.4914 1.4608 6.7004 2.2712 2.2091 0.8104 4.3928 1.6736 6.55 2.5876s4.2875 1.8797 6.3899 2.8942 4.1775 2.079 6.222 3.191 4.0588 2.2716 6.0423 3.4781 3.9353 2.4595 5.8548 3.7574 3.807 2.6406 5.6595 4.0269 3.6701 2.817 5.4525 4.2886 3.5284 2.9847 5.2377 4.5386c1.7093 1.5538 3.382 3.1476 5.0151 4.7807s3.2268 3.3058 4.7807 5.0151 3.067 3.4553 4.5386 5.2377 2.9023 3.6 4.2886 5.4525 2.729 3.74 4.0269 5.6595 2.5509 3.8713 3.7574 5.8548 2.3661 3.9978 3.4781 6.0423 2.1765 4.1196 3.191 6.222 1.9802 4.2327 2.8942 6.3899 1.7772 4.341 2.5876 6.55c0.81039 2.2091 1.5674 4.4426 2.2712 6.7004 0.70377 2.2578 1.353 4.5394 1.947 6.843s1.1337 4.6295 1.615 6.9758c0.48137 2.3462 0.90575 4.7129 1.2713 7.0988 0.3656 2.3859 0.67109 4.7916 0.91787 7.214 0.24677 2.4225 0.43362 4.8615 0.55853 7.3175s0.18748 4.9287 0.18748 7.4152-0.0626 4.9592-0.18748 7.4152c-0.12491 2.456-0.31176 4.8951-0.55853 7.3175-0.24678 2.4225-0.55227 4.8282-0.91787 7.214-0.36559 2.3859-0.78997 4.7526-1.2713 7.0988-0.48136 2.3462-1.021 4.6722-1.615 6.9758s-1.2433 4.5851-1.947 6.843c-0.70377 2.2578-1.4608 4.4914-2.2712 6.7004-0.81041 2.2091-1.6736 4.3928-2.5876 6.55s-1.8797 4.2875-2.8942 6.3899-2.079 4.1775-3.191 6.222-2.2716 4.0588-3.4781 6.0423-2.4595 3.9353-3.7574 5.8548-2.6406 3.807-4.0269 5.6595-2.817 3.6701-4.2886 5.4525-2.9847 3.5284-4.5386 5.2377c-1.5538 1.7093-3.1476 3.382-4.7807 5.0151s-3.3058 3.2268-5.0151 4.7807-3.4553 3.067-5.2377 4.5386-3.6 2.9023-5.4525 4.2886-3.74 2.729-5.6595 4.0269-3.8713 2.5509-5.8548 3.7574-3.9978 2.3661-6.0423 3.4781-4.1196 2.1765-6.222 3.191-4.2327 1.9802-6.3899 2.8942-4.341 1.7772-6.55 2.5876c-2.209 0.81039-4.4426 1.5674-6.7004 2.2712-2.2578 0.70377-4.5394 1.353-6.843 1.947s-4.6295 1.1337-6.9758 1.615c-2.3462 0.48137-4.7129 0.90575-7.0988 1.2713-2.3859 0.3656-4.7916 0.67109-7.214 0.91787-2.4225 0.24677-4.8615 0.43362-7.3175 0.55853s-4.9287 0.18748-7.4152 0.18748-4.9592-0.0626-7.4152-0.18748c-2.456-0.12491-4.8951-0.31176-7.3175-0.55853-2.4225-0.24678-4.8282-0.55227-7.214-0.91787-2.3859-0.36559-4.7526-0.78997-7.0988-1.2713-2.3462-0.48136-4.6722-1.021-6.9758-1.615s-4.5851-1.2433-6.843-1.947c-2.2578-0.70377-4.4914-1.4608-6.7004-2.2712-2.2091-0.81041-4.3928-1.6736-6.55-2.5876s-4.2875-1.8797-6.3899-2.8942-4.1775-2.079-6.222-3.191-4.0588-2.2716-6.0423-3.4781-3.9353-2.4595-5.8548-3.7574-3.807-2.6406-5.6595-4.0269-3.6701-2.817-5.4525-4.2886-3.5284-2.9847-5.2377-4.5386c-1.7093-1.5538-3.382-3.1476-5.0151-4.7807s-3.2268-3.3058-4.7807-5.0151-3.067-3.4553-4.5386-5.2377-2.9023-3.6-4.2886-5.4525-2.729-3.74-4.0269-5.6595-2.5509-3.8713-3.7574-5.8548-2.3661-3.9978-3.4781-6.0423-2.1765-4.1196-3.191-6.222-1.9802-4.2327-2.8942-6.3899c-0.91399-2.1572-1.7772-4.341-2.5876-6.55s-1.5675-4.4426-2.2712-6.7004c-0.70377-2.2578-1.353-4.5394-1.947-6.843s-1.1337-4.6295-1.615-6.9758c-0.48137-2.3462-0.90575-4.7129-1.2713-7.0988-0.3656-2.3859-0.67109-4.7916-0.91787-7.214-0.24677-2.4225-0.43362-4.8615-0.55853-7.3175s-0.18748-4.9287-0.18748-7.4152 0.0626-4.9592 0.18748-7.4152c0.12491-2.456 0.31176-4.8951 0.55853-7.3175 0.24678-2.4225 0.55227-4.8282 0.91787-7.214 0.36559-2.3859 0.78997-4.7526 1.2713-7.0988 0.48136-2.3462 1.021-4.6722 1.615-6.9758s1.2433-4.5851 1.947-6.843c0.70377-2.2578 1.4608-4.4914 2.2712-6.7004s1.6736-4.3928 2.5876-6.55 1.8797-4.2875 2.8942-6.3899 2.079-4.1775 3.191-6.222 2.2716-4.0588 3.4781-6.0423 2.4595-3.9353 3.7574-5.8548 2.6406-3.807 4.0269-5.6595 2.817-3.6701 4.2886-5.4525 2.9847-3.5284 4.5386-5.2377c1.5538-1.7093 3.1476-3.382 4.7807-5.0151s3.3058-3.2268 5.0151-4.7807 3.4553-3.067 5.2377-4.5386 3.6-2.9023 5.4525-4.2886 3.74-2.729 5.6595-4.0269 3.8713-2.5509 5.8548-3.7574 3.9978-2.3661 6.0423-3.4781 4.1196-2.1765 6.222-3.191 4.2327-1.9802 6.3899-2.8942c2.1572-0.91399 4.341-1.7772 6.55-2.5876s4.4426-1.5675 6.7004-2.2712c2.2578-0.70377 4.5394-1.353 6.843-1.947s4.6295-1.1337 6.9758-1.615c2.3462-0.48137 4.7129-0.90575 7.0988-1.2713 2.3859-0.3656 4.7916-0.67109 7.214-0.91787 2.4225-0.24677 4.8615-0.43362 7.3175-0.55853s4.9287-0.18748 7.4152-0.18748z" fill="#a41e14"/><path class="" d="m507.03 244.84c-17.92-16.357-22.563-42.786-11.289-64.271 4e-3 -7e-3 0.047-0.091 0.051-0.098 1.954-3.738 2.203-8.143 0.757-12.105-1.446-3.963-4.534-7.149-8.436-8.751-22.446-9.212-35.878-32.442-32.664-56.491 3e-3 -0.024 0.017-0.132 0.021-0.157 0.541-4.201-0.737-8.434-3.487-11.655-2.717-3.183-6.656-5.084-10.833-5.249-24.258-1.003-44.809-18.267-49.981-41.991-0.014-0.064-0.036-0.162-0.051-0.226-0.946-4.082-3.557-7.581-7.199-9.652-3.641-2.07-7.984-2.523-11.975-1.25l-0.106 0.034c-23.104 7.338-48.303-1.834-61.265-22.275l-0.072-0.114c-2.255-3.574-5.913-6.031-10.075-6.767-4.16-0.736-8.441 0.318-11.784 2.903-19.233 14.865-46.098 14.865-65.331 0-3.341-2.583-7.616-3.638-11.778-2.904-4.16 0.734-7.817 3.188-10.074 6.758l-0.06 0.094c-12.981 20.471-38.18 29.642-61.297 22.3l-0.126-0.04c-4.021-1.274-8.396-0.778-12.046 1.335s-6.246 5.682-7.145 9.803c-5.169 23.708-25.698 40.966-49.937 41.988-4.22 0.145-8.179 2.102-10.914 5.321-2.75 3.237-3.994 7.531-3.431 11.741 3.214 24.049-10.218 47.279-32.736 56.521-3.909 1.601-6.941 4.814-8.388 8.784-1.446 3.969-1.131 8.401 0.831 12.142 11.273 21.485 6.631 47.915-11.289 64.271-6e-3 6e-3 -0.071 0.065-0.078 0.071-3.105 2.845-4.843 6.89-4.839 11.101s1.806 8.253 4.917 11.092c17.92 16.357 22.563 42.786 11.289 64.271-4e-3 7e-3 -0.047 0.091-0.051 0.098-1.954 3.738-2.203 8.143-0.757 12.105 1.446 3.963 4.534 7.149 8.436 8.751 22.446 9.212 35.878 32.442 32.664 56.491-3e-3 0.024-0.017 0.132-0.021 0.157-0.541 4.201 0.737 8.434 3.487 11.655 2.717 3.183 6.656 5.084 10.833 5.249 24.258 1.003 44.809 18.267 49.981 41.991 0.014 0.064 0.036 0.162 0.051 0.226 0.946 4.079 3.553 7.576 7.191 9.647 3.638 2.072 7.977 2.527 11.967 1.259l0.123-0.039c23.103-7.336 48.302 1.833 61.265 22.275l0.072 0.114c2.255 3.574 5.913 6.031 10.075 6.767 0.869 0.153 1.742 0.229 2.611 0.229 3.295 0 6.527-1.087 9.173-3.132 19.233-14.865 46.098-14.865 65.331 0 3.342 2.583 7.62 3.64 11.778 2.904 4.16-0.734 7.817-3.188 10.074-6.758l0.06-0.094c12.98-20.471 38.178-29.643 61.297-22.3l0.126 0.04c4.021 1.274 8.396 0.778 12.046-1.335s6.246-5.682 7.145-9.803c5.169-23.708 25.698-40.966 49.937-41.988 4.22-0.145 8.179-2.102 10.914-5.321 2.75-3.237 3.994-7.531 3.431-11.741-3.214-24.049 10.218-47.279 32.736-56.521 3.909-1.601 6.941-4.814 8.388-8.784 1.446-3.969 1.131-8.401-0.831-12.142-11.273-21.485-6.631-47.915 11.309-64.289l0.058-0.053c3.105-2.844 4.843-6.889 4.839-11.101-6e-3 -4.21-1.808-8.252-4.918-11.091zm-251.06 185.43c-96.11 0-174.3-78.191-174.3-174.3s78.191-174.3 174.3-174.3 174.3 78.191 174.3 174.3-78.191 174.3-174.3 174.3z" fill="#f8dba8" data-original="#000000"/></svg>
