<?xml version="1.0" encoding="UTF-8"?>
<svg class="" width="512" height="512" enable-background="new 0 0 512 512" version="1.1" viewBox="0 0 512 512" xml:space="preserve" xmlns="http://www.w3.org/2000/svg">


















<circle class="" cx="256" cy="256" r="256" fill="#3f8fe4" data-original="#28384c"/><circle cx="256.26" cy="258.79" r="210" fill="#89dff2" stroke-width="0"/><g transform="matrix(.96287 0 0 .96287 9.9037 11.031)" fill="#3f8fe4"><path d="m290.16 311.96c-5.8242 3.6016-12.258 6.3008-19.105 7.9297v42.625c18.289-2.5859 35.109-9.8047 49.227-20.434z"/><path d="m200.54 290.66c-3.6016-5.8242-6.3008-12.258-7.9258-19.105h-42.629c2.5859 18.289 9.8047 35.109 20.438 49.227z"/><path d="m240.94 319.89c-6.8477-1.625-13.281-4.3281-19.105-7.9297l-30.121 30.121c14.117 10.629 30.938 17.852 49.227 20.438z"/><path d="m319.39 271.56c-1.625 6.8477-4.3281 13.281-7.9297 19.105l30.117 30.121c10.633-14.117 17.852-30.938 20.441-49.227z"/><path d="m192.61 241.44c1.625-6.8477 4.3281-13.281 7.9297-19.109l-30.121-30.121c-10.633 14.117-17.852 30.938-20.438 49.23z"/><path d="m271.06 150.48v42.629c6.8477 1.625 13.285 4.3281 19.109 7.9297l30.121-30.121c-14.117-10.629-30.941-17.852-49.23-20.438z"/><path d="m291.05 256.5c0-19.328-15.723-35.051-35.051-35.051s-35.051 15.723-35.051 35.051 15.723 35.051 35.051 35.051 35.051-15.727 35.051-35.051z"/><path d="m311.46 222.34c3.6055 5.8242 6.3047 12.262 7.9297 19.109h42.625c-2.582-18.293-9.8008-35.113-20.434-49.234z"/><path d="m221.83 201.03c5.8281-3.6016 12.262-6.3008 19.113-7.9297v-42.625c-18.293 2.582-35.113 9.8047-49.23 20.434z"/><path d="m170.27 149.46c19.816-15.902 44.117-26.426 70.68-29.34v-41.684c-37.977 3.1836-72.609 18.293-100.14 41.562z"/><path d="m392.37 271.56c-2.918 26.559-13.441 50.859-29.344 70.672l29.461 29.461c23.27-27.527 38.379-62.16 41.566-100.13z"/><path d="m363.04 170.77c15.902 19.816 26.426 44.117 29.336 70.68h41.684c-3.1797-37.977-18.289-72.609-41.559-100.14z"/><path d="m341.73 363.53c-19.812 15.898-44.117 26.422-70.676 29.336v41.684c37.977-3.1836 72.605-18.289 100.14-41.559z"/><path d="m271.06 78.441v41.684c26.562 2.9141 50.863 13.441 70.676 29.344l29.461-29.461c-27.527-23.273-62.16-38.383-100.14-41.566z"/><path d="m148.97 342.23c-15.902-19.812-26.426-44.117-29.34-70.676h-41.684c3.1836 37.977 18.293 72.605 41.562 100.14z"/><path d="m240.94 392.87c-26.559-2.9141-50.859-13.441-70.672-29.344l-29.461 29.461c27.527 23.273 62.16 38.379 100.13 41.566z"/><path d="m119.63 241.44c2.9141-26.562 13.438-50.863 29.344-70.676l-29.465-29.461c-23.27 27.527-38.379 62.16-41.562 100.14z"/></g></svg>
