<?xml version="1.0" encoding="iso-8859-1"?>
<!-- Generator: Adobe Illustrator 19.0.0, SVG Export Plug-In . SVG Version: 6.00 Build 0)  -->
<svg version="1.1" id="Layer_1" xmlns="http://www.w3.org/2000/svg" xmlns:xlink="http://www.w3.org/1999/xlink" x="0px" y="0px"
	 viewBox="0 0 512 512" style="enable-background:new 0 0 512 512;" xml:space="preserve">
<path style="fill:#FFCD54;" d="M512,256.006C512,397.402,397.394,512.004,256.004,512C114.606,512.004,0,397.402,0,256.006
	C-0.007,114.61,114.606,0,256.004,0C397.394,0,512,114.614,512,256.006z"/>
<path style="fill:#F4BA41;" d="M512,256.005c0-26.041-3.916-51.162-11.142-74.838c-0.214-0.266-0.423-0.535-0.656-0.789
	c-0.197-0.214-95.22-95.191-95.545-95.545c-2.816-3.061-7.571-3.253-10.637-0.445c-3.058,2.811-3.264,7.574-0.449,10.633
	c24.494,26.634,32.879,64.155,25.373,98.356c-0.422-0.426-81.017-81.015-81.091-81.083c-0.463-0.468-0.87-0.975-1.346-1.436
	c-2.992-2.884-7.756-2.804-10.644,0.185c-2.889,2.988-2.807,7.751,0.176,10.644c13.085,12.643,20.288,29.433,20.288,47.278
	c0,12.948-3.84,25.318-10.922,35.975c-0.037-0.029-0.064-0.07-0.102-0.099c-0.45-0.613-72.647-72.806-73.253-73.253
	c-1.394-1.895-3.615-3.084-6.05-3.084c-3.183,0-6.028,2.007-7.093,5.007l-10.595,29.823c-0.201-0.183-0.436-0.291-0.651-0.449
	c-0.208-0.287-49.027-49.116-49.365-49.364c-0.208-0.287-0.311-0.622-0.565-0.884c-0.301-0.313-0.689-0.46-1.027-0.708
	c-0.208-0.287-0.311-0.622-0.565-0.884c-2.881-2.989-7.645-3.069-10.644-0.185c-5.474,5.293-10.038,11.219-13.77,17.555
	c-0.261-0.34-0.422-0.732-0.749-1.031c-0.233-0.214-42.641-42.669-42.995-42.995c-3.05-2.809-7.813-2.618-10.637,0.445
	c-42.665,46.387-42.665,121.874,0,168.261c0.19,0.206,0.45,0.285,0.656,0.465c0.327,0.365,0.604,0.765,0.937,1.127
	c0.19,0.206,71.238,71.184,71.522,71.494l-33.17,93.367c-0.816,2.304-0.463,4.866,0.942,6.862c0.386,0.547,0.967,0.864,1.471,1.282
	c0.061,0.095,82.861,83.022,82.927,83.116c0.028,0.039,0.076,0.054,0.106,0.092c7.67,0.691,15.422,1.1,23.271,1.1
	C397.394,512.004,512,397.401,512,256.005z"/>
<g>
	<path style="fill:#F6F6F6;" d="M175.493,227.07c1.462,1.411,3.351,2.113,5.234,2.113c1.97,0,3.933-0.768,5.41-2.298
		c2.889-2.988,2.809-7.751-0.176-10.644c-13.085-12.643-20.288-29.433-20.288-47.277s7.204-34.634,20.288-47.277
		c2.985-2.893,3.066-7.655,0.176-10.644c-2.881-2.988-7.645-3.069-10.644-0.183c-16.039,15.506-24.876,36.144-24.876,58.105
		S159.454,211.563,175.493,227.07z"/>
	<path style="fill:#F6F6F6;" d="M112.886,255.527c1.823,0,3.646-0.658,5.094-1.988c3.058-2.812,3.264-7.575,0.448-10.633
		c-37.497-40.771-37.497-107.114,0-147.885c2.815-3.058,2.609-7.821-0.448-10.633c-3.051-2.809-7.814-2.617-10.637,0.445
		c-42.665,46.387-42.665,121.874,0,168.261C108.828,254.708,110.857,255.527,112.886,255.527z"/>
	<path style="fill:#F6F6F6;" d="M325.862,226.886c1.477,1.529,3.44,2.298,5.41,2.298c1.882,0,3.771-0.702,5.234-2.113
		c16.039-15.506,24.876-36.144,24.876-58.105s-8.836-42.598-24.876-58.105c-2.992-2.885-7.755-2.804-10.644,0.183
		c-2.889,2.988-2.809,7.751,0.176,10.644c13.085,12.643,20.288,29.433,20.288,47.277s-7.204,34.634-20.288,47.277
		C323.055,219.135,322.974,223.898,325.862,226.886z"/>
	<path style="fill:#F6F6F6;" d="M393.571,242.907c-2.815,3.058-2.609,7.822,0.448,10.633c1.449,1.33,3.271,1.988,5.094,1.988
		c2.029,0,4.058-0.819,5.542-2.433c42.665-46.387,42.665-121.874,0-168.261c-2.815-3.061-7.571-3.252-10.637-0.445
		c-3.058,2.812-3.264,7.575-0.448,10.633C431.069,135.793,431.069,202.134,393.571,242.907z"/>
	<path style="fill:#F6F6F6;" d="M263.093,133.51c-1.066-2.999-3.91-5.006-7.093-5.006c-3.183,0-6.028,2.006-7.093,5.006
		L147.289,419.548c-0.816,2.304-0.463,4.866,0.941,6.862c1.411,1.999,3.705,3.186,6.153,3.186h203.237
		c2.448,0,4.741-1.187,6.153-3.186c1.404-1.996,1.757-4.558,0.941-6.862L263.093,133.51z M304.625,295.385l33.006,92.904
		L204.169,351.89L304.625,295.385z M190.755,342.163l36.509-102.763l63.748,46.365L190.755,342.163z M256,158.518l39.844,112.148
		l-63.326-46.055L256,158.518z M165.04,414.542l18.695-52.622l160.034,43.646l3.189,8.976H165.04z"/>
</g>
<g>
</g>
<g>
</g>
<g>
</g>
<g>
</g>
<g>
</g>
<g>
</g>
<g>
</g>
<g>
</g>
<g>
</g>
<g>
</g>
<g>
</g>
<g>
</g>
<g>
</g>
<g>
</g>
<g>
</g>
</svg>
