<svg clip-rule="evenodd" fill-rule="evenodd" height="512" image-rendering="optimizeQuality" shape-rendering="geometricPrecision" text-rendering="geometricPrecision" viewBox="0 0 43.3492 43.3492" width="512" xmlns="http://www.w3.org/2000/svg"><g id="Layer_x0020_1"><circle cx="21.675" cy="21.675" fill="#5c6bc0" r="21.675"/><g id="_462867224" fill="#fffffe" fill-rule="nonzero"><path id="_462867872" d="m33.0533 35.1933h-22.7589c-.1325 0-.24-.1081-.24-.2414v-15.1724c0-.1332.1075-.2413.24-.2413.1349 0 .2424.1081.2424.2413v14.931h22.2765v-14.931c0-.1332.1075-.2413.24-.2413.135 0 .2425.1081.2425.2413v15.1724c0 .1333-.1075.2414-.2425.2414z"/><path id="_462867464" d="m20.5527 35.1933c-.1324 0-.2399-.1081-.2399-.2414v-10.2433h-6.559v10.2433c0 .1333-.1075.2414-.2399.2414-.135 0-.2425-.1081-.2425-.2414v-10.4847c0-.1333.1075-.2414.2425-.2414h7.0388c.135 0 .2425.1081.2425.2414v10.4847c0 .1333-.1075.2414-.2425.2414z"/><path id="_462867536" d="m19.103 30.7049c-.1325 0-.24-.1082-.24-.2414v-1.5078c0-.1333.1075-.2414.24-.2414.135 0 .2424.1081.2424.2414v1.5078c0 .1332-.1074.2414-.2424.2414z"/><path id="_462867896" d="m24.0397 30.2366h5.5266v-5.528h-5.5266zm5.7691.4828h-6.0116c-.1324 0-.2399-.1082-.2399-.2414v-6.0108c0-.1333.1075-.2414.2399-.2414h6.0116c.1325 0 .2399.1081.2399.2414v6.0108c0 .1332-.1074.2414-.2399.2414z"/><path id="_462867344" d="m26.8018 30.7194c-.1325 0-.24-.1082-.24-.2414v-6.0108c0-.1333.1075-.2414.24-.2414.1349 0 .2424.1081.2424.2414v6.0108c0 .1332-.1075.2414-.2424.2414z"/><path id="_462867488" d="m29.8088 27.7143h-6.0116c-.1324 0-.2399-.1081-.2399-.2414 0-.1339.1075-.2414.2399-.2414h6.0116c.1325 0 .2399.1075.2399.2414 0 .1333-.1074.2414-.2399.2414z"/><path id="_462867440" d="m8.8196 19.5382h25.7109l-12.8554-10.8255zm26.3709.4827h-27.0333c-.1025 0-.1925-.0635-.2275-.1584-.0325-.0955-.005-.2024.0725-.2678l13.5154-11.3822c.09-.0755.2225-.0755.3124 0l13.5179 11.3822c.0775.0654.105.1723.07.2678-.035.0949-.125.1584-.2274.1584z"/><path id="_462867296" d="m19.4304 15.5877h1.3748c.08 0 .155.0409.2.1081.045.068.0525.1534.02.2282l-.7949 1.8624 3.0345-3.0352h-1.3223c-.085 0-.1649-.0465-.2074-.1207-.045-.0748-.045-.1672 0-.2414l1.5147-2.6279h-1.6097zm.0875 3.4941c-.0475 0-.095-.0138-.135-.0415-.095-.0647-.1325-.1885-.0875-.2947l1.1424-2.6751h-1.4248c-.085 0-.165-.0459-.21-.1207-.0425-.0748-.0425-.1666 0-.2414l2.4896-4.3093c.0425-.0742.1225-.1206.2075-.1206h2.1697c.0849 0 .1649.0464.2074.1206.045.0748.045.1672 0 .2414l-1.5147 2.6279h1.4847c.1 0 .1875.0585.225.149.0375.0899.015.1936-.0525.2628l-4.3318 4.3307c-.0475.047-.1075.0709-.17.0709z"/></g></g></svg>