<svg id="Layer_1" enable-background="new 0 0 132 132" height="512" viewBox="0 0 132 132" width="512" xmlns="http://www.w3.org/2000/svg"><g><circle cx="66" cy="66" fill="#96ddff" r="64"/><g fill="#83d3f2"><path d="m21.28509 106.08782c0 .56006.44995 1.01001 1 1.01001h2.25977c.55005 0 1-.44995 1-1.01001 0-.5498-.44995-1.00977-1-1.00977h-2.25977c-.55005.00001-1 .45997-1 1.00977z"/><path d="m53.89274 122.36108c0 .5498.44995 1.00977 1 1.00977h.17993c.55005 0 1.01001-.45996 1.01001-1.00977 0-.55005-.45996-1.01025-1.01001-1.01025h-.17993c-.55005 0-1 .46021-1 1.01025z"/><path d="m27.89495 106.08782c0 .56006.45996 1.01001 1.01001 1.01001h8.46997c.56006 0 1.01001-.44995 1.01001-1.01001 0-.5498-.44995-1.00977-1.01001-1.00977h-8.46997c-.55005.00001-1.01001.45997-1.01001 1.00977z"/><path d="m28.23406 23.86652c-.55981 0-1.00977.44995-1.00977 1.01001 0 .55005.44995 1.01001 1.00977 1.01001h.17017c.55981 0 1.01001-.45996 1.01001-1.01001 0-.56006-.4502-1.01001-1.01001-1.01001z"/><path d="m41.91497 105.07806h-.16992c-.56006 0-1.01001.45996-1.01001 1.00977 0 .56006.44995 1.01001 1.01001 1.01001h.16992c.55005 0 1.01001-.44995 1.01001-1.01001 0-.54981-.45996-1.00977-1.01001-1.00977z"/><path d="m38.07415 24.87653c0-.56006-.45996-1.01001-1.01001-1.01001h-4.29004c-.56006 0-1.01001.44995-1.01001 1.01001 0 .55005.44995 1.01001 1.01001 1.01001h4.29004c.55005 0 1.01001-.45996 1.01001-1.01001z"/><path d="m58.43278 122.36108c0 .5498.44995 1.00977 1 1.00977h11.31006c.55981 0 1.00977-.45996 1.00977-1.00977 0-.55005-.44995-1.01025-1.00977-1.01025h-11.31006c-.55005 0-1 .46021-1 1.01025z"/><path d="m43.58416 24.87653c0-.56006-.44995-1.01001-1.01001-1.01001h-1.1499c-.55005 0-1 .44995-1 1.01001 0 .55005.44995 1.01001 1 1.01001h1.1499c.56006 0 1.01001-.45996 1.01001-1.01001z"/><path d="m92.075 109.46795c0-.56006-.44995-1.01001-1-1.01001h-1.1499c-.56006 0-1.01001.44995-1.01001 1.01001 0 .55005.44995 1.01001 1.01001 1.01001h1.1499c.55005 0 1-.45996 1-1.01001z"/><path d="m99.72515 108.45794h-4.29004c-.55005 0-1.01001.44995-1.01001 1.01001 0 .55005.45996 1.01001 1.01001 1.01001h4.29004c.55981 0 1.00977-.45996 1.00977-1.01001 0-.56006-.44995-1.01001-1.00977-1.01001z"/><path d="m103.08501 109.46795c0 .55005.44995 1.01001 1.01001 1.01001h.16992c.56006 0 1.01001-.45996 1.01001-1.01001 0-.56006-.44995-1.01001-1.01001-1.01001h-.16992c-.56005 0-1.01001.44995-1.01001 1.01001z"/><path d="m107.62505 109.46795c0 .55005.44995 1.01001 1.01001 1.01001h3.37988c.64014-.66016 1.27002-1.33008 1.87012-2.02002h-5.25c-.56006 0-1.01001.44995-1.01001 1.01001z"/><path d="m111.55486 31.62691c0 .56006-.44995 1.01001-1 1.01001h-2.25977c-.55005 0-1-.44995-1-1.01001 0-.5498.44995-1.00977 1-1.00977h2.25977c.55005 0 1 .45996 1 1.00977z"/><path d="m104.945 31.62691c0 .56006-.45996 1.01001-1.01001 1.01001h-8.46997c-.56006 0-1.01001-.44995-1.01001-1.01001 0-.5498.44995-1.00977 1.01001-1.00977h8.46997c.55005 0 1.01001.45996 1.01001 1.00977z"/><path d="m90.92498 30.61714h.16992c.56006 0 1.01001.45996 1.01001 1.00977 0 .56006-.44995 1.01001-1.01001 1.01001h-.16992c-.55005 0-1.01001-.44995-1.01001-1.01001 0-.54981.45996-1.00977 1.01001-1.00977z"/><path d="m20.85503 55.76955c.5498 0 1 .45996 1 1.01001 0 .55981-.4502 1.01001-1 1.01001h-13.26025c-.5498 0-1.00977-.4502-1.00977-1.01001 0-.55005.45996-1.01001 1.00977-1.01001z"/><path d="m31.25494 56.77956c0 .55981-.45996 1.01001-1.01001 1.01001h-5.03003c-.55005 0-1.01001-.4502-1.01001-1.01001 0-.55005.45996-1.01001 1.01001-1.01001h5.03003c.55005 0 1.01001.45996 1.01001 1.01001z"/><path d="m34.42824 82.99278c0 .5498.44995 1.00977 1.01001 1.00977h1.42528c.55981 0 1.00977-.45996 1.00977-1.00977 0-.55005-.44995-1.01025-1.00977-1.01025h-1.42528c-.56006 0-1.01001.4602-1.01001 1.01025z"/><path d="m25.91803 82.99278c0 .5498.44995 1.00977 1.01001 1.00977h5.23078c.55981 0 1.00977-.45996 1.00977-1.00977 0-.55005-.44995-1.01025-1.00977-1.01025h-5.23078c-.56006 0-1.01001.4602-1.01001 1.01025z"/><path d="m45.66887 82.99278c0-.55005-.45996-1.01025-1.01001-1.01025h-4.29004c-.55005 0-1.01001.46021-1.01001 1.01025 0 .5498.45996 1.00977 1.01001 1.00977h4.29004c.55005 0 1.01001-.45996 1.01001-1.00977z"/><path d="m104.98003 81.98277c0-.56006.45996-1.01001 1.01001-1.01001h8.46997c.56006 0 1.01001.44995 1.01001 1.01001 0 .5498-.44995 1.00977-1.01001 1.00977h-8.46997c-.55005 0-1.01001-.45996-1.01001-1.00977z"/><path d="m119.00005 82.99254h-.16992c-.56006 0-1.01001-.45996-1.01001-1.00977 0-.56006.44995-1.01001 1.01001-1.01001h.16992c.55005 0 1.01001.44995 1.01001 1.01001 0 .54981-.45996 1.00977-1.01001 1.00977z"/><path d="m66.53425 12.78751c0 .5498.44995 1.00977 1.01001 1.00977h1.42528c.55981 0 1.00977-.45996 1.00977-1.00977 0-.55005-.44995-1.01025-1.00977-1.01025h-1.42528c-.56006 0-1.01001.4602-1.01001 1.01025z"/><path d="m58.02405 12.78751c0 .5498.44995 1.00977 1.01001 1.00977h5.23078c.55981 0 1.00977-.45996 1.00977-1.00977 0-.55005-.44995-1.01025-1.00977-1.01025h-5.23078c-.56006 0-1.01001.4602-1.01001 1.01025z"/><path d="m77.77489 12.78751c0-.55005-.45996-1.01025-1.01001-1.01025h-4.29004c-.55005 0-1.01001.46021-1.01001 1.01025 0 .5498.45996 1.00977 1.01001 1.00977h4.29004c.55005 0 1.01001-.45996 1.01001-1.00977z"/><path d="m104.43075 56.7798c0 .5498.44995 1.00977 1.01001 1.00977h1.42528c.55981 0 1.00977-.45996 1.00977-1.00977 0-.55005-.44995-1.01025-1.00977-1.01025h-1.42528c-.56006 0-1.01001.4602-1.01001 1.01025z"/><path d="m95.92054 56.7798c0 .5498.44995 1.00977 1.01001 1.00977h5.23078c.55981 0 1.00977-.45996 1.00977-1.00977 0-.55005-.44995-1.01025-1.00977-1.01025h-5.23078c-.56006 0-1.01001.4602-1.01001 1.01025z"/><path d="m115.67138 56.7798c0-.55005-.45996-1.01025-1.01001-1.01025h-4.29004c-.55005 0-1.01001.46021-1.01001 1.01025 0 .5498.45996 1.00977 1.01001 1.00977h4.29004c.55005 0 1.01001-.45996 1.01001-1.00977z"/><path d="m60.69837 39.36583c0 .5498.44995 1.00977 1.01001 1.00977h1.42528c.55981 0 1.00976-.45996 1.00976-1.00977 0-.55005-.44995-1.01025-1.00976-1.01025h-1.42528c-.56006-.00001-1.01001.4602-1.01001 1.01025z"/><path d="m52.18816 39.36583c0 .5498.44995 1.00977 1.01001 1.00977h5.23079c.55981 0 1.00977-.45996 1.00977-1.00977 0-.55005-.44995-1.01025-1.00977-1.01025h-5.23079c-.56006-.00001-1.01001.4602-1.01001 1.01025z"/></g><g><g><path d="m58.88577 104.02625h-9.07825v-32.66309l-6.91426-14.92745 8.23683-3.81538 7.75568 16.74246z" fill="#83d3f2"/></g><g><path d="m85.56105 104.02625h-9.07825v-34.66346l7.75488-16.74246 8.23684 3.81538-6.91347 14.92745z" fill="#83d3f2"/></g><g><path d="m63.08 42.168h9.078v61.858h-9.078z" fill="#83d3f2"/></g><g><path d="m67.74944 20.69201c-6.75087 0-12.23094 5.47997-12.23094 12.25567 0 6.75091 5.48007 12.23088 12.23094 12.23088 6.75085 0 12.23093-5.47997 12.23093-12.23088.00001-6.7757-5.48007-12.25567-12.23093-12.25567zm0 17.56231c-2.92984 0-5.31486-2.37685-5.31486-5.31491 0-2.94631 2.38502-5.32316 5.31486-5.32316 2.92983 0 5.31506 2.37685 5.31506 5.32316 0 2.93806-2.38522 5.31491-5.31506 5.31491z" fill="#83d3f2"/></g><g><path d="m92.64207 34.39013c-6.75086 0-12.23093 5.47997-12.23093 12.25567 0 6.75091 5.48007 12.23088 12.23093 12.23088s12.23093-5.47997 12.23093-12.23088c0-6.7757-5.48007-12.25567-12.23093-12.25567zm0 17.56231c-2.92984 0-5.31485-2.37686-5.31485-5.31491 0-2.94631 2.38501-5.32317 5.31485-5.32317s5.31506 2.37685 5.31506 5.32317c-.00001 2.93805-2.38522 5.31491-5.31506 5.31491z" fill="#83d3f2"/></g><g><path d="m43.15686 34.39013c-6.75086 0-12.23094 5.47997-12.23094 12.25567 0 6.75091 5.48008 12.23088 12.23094 12.23088s12.23094-5.47997 12.23094-12.23088c0-6.7757-5.48008-12.25567-12.23094-12.25567zm0 17.56231c-2.92984 0-5.31486-2.37686-5.31486-5.31491 0-2.94631 2.38502-5.32317 5.31486-5.32317s5.31506 2.37685 5.31506 5.32317c0 2.93805-2.38522 5.31491-5.31506 5.31491z" fill="#83d3f2"/></g></g><path d="m91.7149 90.8595v33.76001c-7.56982 3.33002-15.90991 5.23005-24.67993 5.37-8.22998-.13-16.08984-1.81-23.28979-4.76997v-34.36004z" fill="#83d3f2"/><g><g><path d="m56.83722 104.02625h-9.07825v-32.66309l-6.91427-14.92745 8.23684-3.81538 7.75568 16.74246z" fill="#fff"/></g><g><path d="m83.5125 104.02625h-9.07825v-34.66346l7.75488-16.74246 8.23683 3.81538-6.91346 14.92745z" fill="#f34b50"/></g><g><path d="m61.031 42.168h9.078v61.858h-9.078z" fill="#fad553"/></g><g><path d="m65.70088 20.69201c-6.75086 0-12.23093 5.47997-12.23093 12.25567 0 6.75091 5.48008 12.23088 12.23093 12.23088s12.23094-5.47997 12.23094-12.23088c0-6.7757-5.48008-12.25567-12.23094-12.25567zm0 17.56231c-2.92984 0-5.31485-2.37685-5.31485-5.31491 0-2.94631 2.38502-5.32316 5.31485-5.32316 2.92984 0 5.31506 2.37685 5.31506 5.32316 0 2.93806-2.38522 5.31491-5.31506 5.31491z" fill="#fad553"/></g><g><path d="m90.59351 34.39013c-6.75086 0-12.23093 5.47997-12.23093 12.25567 0 6.75091 5.48007 12.23088 12.23093 12.23088s12.23093-5.47998 12.23093-12.23088c.00001-6.7757-5.48006-12.25567-12.23093-12.25567zm0 17.56231c-2.92984 0-5.31486-2.37686-5.31486-5.31491 0-2.94631 2.38502-5.32317 5.31486-5.32317s5.31506 2.37685 5.31506 5.32317c0 2.93805-2.38522 5.31491-5.31506 5.31491z" fill="#f34b50"/></g><g><path d="m41.10831 34.39013c-6.75086 0-12.23093 5.47997-12.23093 12.25567 0 6.75091 5.48008 12.23088 12.23093 12.23088s12.23094-5.47998 12.23094-12.23088c-.00001-6.7757-5.48008-12.25567-12.23094-12.25567zm0 17.56231c-2.92984 0-5.31485-2.37686-5.31485-5.31491 0-2.94631 2.38501-5.32317 5.31485-5.32317s5.31506 2.37685 5.31506 5.32317c-.00001 2.93805-2.38522 5.31491-5.31506 5.31491z" fill="#fff"/></g></g><path d="m73.48492 23.48957c1.77002 2.12 2.84009 4.85999 2.84009 7.84998 0 5.20001-3.25 9.63-7.82007 11.40002v59.67993h-7.46997v1.61005h9.07007v-59.67999c4.58008-1.78003 7.83008-6.21002 7.83008-11.40002-.00001-3.81-1.72999-7.21998-4.4502-9.45997z" fill="#fab941"/><path d="m98.4251 37.23957c1.73999 2.12 2.78979 4.82996 2.78979 7.79999 0 6.75-5.47998 12.22998-12.22998 12.22998-.42993 0-.84985-.02002-1.27002-.07001l-5.80981 12.56v32.65997h-7.46997v1.61005h9.07983v-32.67005l5.81006-12.54998c.42017.04004.84009.07001 1.27002.07001 6.75 0 12.22998-5.47998 12.22998-12.22998 0-3.78998-1.70996-7.16999-4.3999-9.40998z" fill="#e53946"/><path d="m50.12505 54.87952c1.98999-2.16998 3.20996-5.06 3.20996-8.22998 0-3.78003-1.70996-7.15997-4.38989-9.40002 1.73999 2.12 2.78979 4.83002 2.78979 7.79004 0 3.17999-1.22998 6.06-3.20996 8.23999l6.70996 14.47998v34.65997h-7.47998v1.61005h9.08008v-34.67005z" fill="#ededed"/><path d="m89.66509 95.00454v30.47496c-7.32007 2.92005-15.31006 4.52003-23.66992 4.52003-8.6001 0-16.81006-1.70001-24.30005-4.77998v-30.21501c0-2.28924 1.85579-4.14503 4.14503-4.14503h39.6799c2.28925-.00001 4.14504 1.85579 4.14504 4.14503z" fill="#4a749b"/><path d="m89.66509 121.12952v4.34998c-7.32007 2.92005-15.31006 4.52003-23.66992 4.52003-8.6001 0-16.81006-1.70001-24.30005-4.77998v-4.37c7.42993 3.31 15.65991 5.14996 24.30005 5.14996 8.3999.00001 16.40991-1.72997 23.66992-4.86999z" fill="#386384"/><g fill="#6894af"><path d="m46.15508 101.1695v7.78003c0 .66998-.55005 1.21002-1.20996 1.21002-.66016 0-1.19995-.54004-1.19995-1.21002v-7.78003c0-.65997.53979-1.19995 1.19995-1.19995.65991 0 1.20996.53998 1.20996 1.19995z"/><path d="m54.60503 94.74952c0 .66003-.55005 1.21002-1.20996 1.21002h-4.98999c-.65991 0-1.19995-.54999-1.19995-1.21002 0-.65997.54004-1.20001 1.19995-1.20001h4.98999c.65992 0 1.20996.54004 1.20996 1.20001z"/><path d="m69.76495 94.74952c0 .66003-.53979 1.21002-1.19995 1.21002h-11.16993c-.66016 0-1.19995-.54999-1.19995-1.21002 0-.65997.53979-1.20001 1.19995-1.20001h11.16992c.66016 0 1.19996.54004 1.19996 1.20001z"/></g></g></svg>