<?xml version="1.0" encoding="iso-8859-1"?>
<!-- Generator: Adobe Illustrator 19.0.0, SVG Export Plug-In . SVG Version: 6.00 Build 0)  -->
<svg version="1.1" id="Layer_1" xmlns="http://www.w3.org/2000/svg" xmlns:xlink="http://www.w3.org/1999/xlink" x="0px" y="0px"
	 viewBox="0 0 512 512" style="enable-background:new 0 0 512 512;" xml:space="preserve">
<path style="fill:#9ED368;" d="M512,256.006C512,397.402,397.394,512.004,256.004,512C114.606,512.004,0,397.402,0,256.006
	C-0.007,114.61,114.606,0,256.004,0C397.394,0,512,114.614,512,256.006z"/>
<path style="fill:#8BC052;" d="M511.299,274.005c-0.313-0.338-0.596-0.705-0.977-0.978c-0.459-0.614-190.471-190.646-191.091-191.09
	c-1.351-1.819-3.432-3.05-5.839-3.05H187.94c-3.706,0-6.839,2.75-7.315,6.425l-43.44,333.042h-23.043
	c-4.079,0-7.379,3.305-7.379,7.379c0,2.451,1.273,4.517,3.111,5.859c0.45,0.62,66.26,66.429,66.88,66.881
	c0.415,0.567,0.908,1.034,1.461,1.459c24.533,7.815,50.66,12.067,77.788,12.067C391.336,512.004,502.054,406.991,511.299,274.005z"
	/>
<path style="fill:#F6F6F6;" d="M387.191,418.353h-23.042l-43.44-333.041c-0.476-3.676-3.611-6.425-7.315-6.425H187.939
	c-3.705,0-6.839,2.75-7.315,6.425l-43.44,333.041h-23.042c-4.079,0-7.379,3.305-7.379,7.379c0,4.076,3.3,7.379,7.379,7.379h29.519
	h214.012h29.519c4.079,0,7.379-3.305,7.379-7.379S391.27,418.353,387.191,418.353z M347.809,407.157l-86.007-76.083l68.212-60.342
	L347.809,407.157z M250.667,321.225l-74.496-65.901l74.496-85.67l74.496,85.67L250.667,321.225z M171.319,270.733l68.212,60.342
	l-86.007,76.083L171.319,270.733z M250.667,340.924l87.529,77.429H163.138L250.667,340.924z M325.053,232.699l-64.604-74.294
	l47.75-54.913L325.053,232.699z M250.667,147.154l-46.528-53.507h93.057L250.667,147.154z M193.134,103.49l47.751,54.913
	l-64.604,74.294L193.134,103.49z"/>
<g>
</g>
<g>
</g>
<g>
</g>
<g>
</g>
<g>
</g>
<g>
</g>
<g>
</g>
<g>
</g>
<g>
</g>
<g>
</g>
<g>
</g>
<g>
</g>
<g>
</g>
<g>
</g>
<g>
</g>
</svg>
