<svg clip-rule="evenodd" fill-rule="evenodd" height="512" image-rendering="optimizeQuality" shape-rendering="geometricPrecision" text-rendering="geometricPrecision" viewBox="0 0 2667 2667" width="512" xmlns="http://www.w3.org/2000/svg"><g id="Layer_x0020_1"><circle cx="1333" cy="1333" fill="#f10" r="1333"/><path d="m959 1558 160-241c29-44 96 1 67 44l-119 179h188c32 0 51 36 33 62l-160 241c-29 44-96 0-67-44l119-179h-188c-31 0-51-35-33-62zm685 360v-675h-1041v675zm-1079 80h-4v63h1125v-63zm-42-80v-715c0-23 18-40 40-40h34v-597c0-22 18-40 40-40h973c23 0 40 18 40 40v597h34c22 0 40 17 40 40v454h190v-451h-39c-22 0-40-18-40-40v-105h-73c-22 0-40-18-40-40v-210c0-23 18-40 40-40h21v-93c0-53 80-53 80 0v93h182v-93c0-53 80-53 80 0v93h20c22 0 40 17 40 40v210c0 22-18 40-40 40h-73v105c0 22-18 40-40 40h-38v491c0 22-18 40-40 40h-230v181c24 0 42 17 42 40v143c0 22-18 40-40 40h-1205c-22 0-40-18-40-40v-143c0-23 18-40 42-40zm154-755h893v-557h-893zm800-54h-707c-22 0-40-18-40-40v-370c0-22 18-40 40-40h707c22 0 40 18 40 40v370c0 22-18 40-40 40zm-667-80h627v-290h-627zm1182 97v-65h-77v65zm-699-202h-339c-52 0-52-80 0-80h339c52 0 52 80 0 80zm509 57h303v-130h-303z" fill="#fff"/></g></svg>