<svg clip-rule="evenodd" fill-rule="evenodd" height="512" image-rendering="optimizeQuality" shape-rendering="geometricPrecision" text-rendering="geometricPrecision" viewBox="0 0 850 850" width="512" xmlns="http://www.w3.org/2000/svg"><g id="Layer_x0020_1"><circle cx="425" cy="425" fill="#3a5a99" r="425"/><g id="_337826032"><g><path d="m447 642h-55c-4 0-7-3-7-7v-446c0-11 9-20 20-20h29c11 0 20 9 20 20v446c0 4-3 7-7 7zm-48-14h40v-439c0-3-2-6-5-6h-29c-3 0-6 3-6 6z" fill="#fff"/></g><g><path d="m548 295h-101c-4 0-8-3-8-8v-41c0-4 4-7 8-7h101c15 0 28 12 28 28-1 15-13 28-28 28zm-94-15h94c7 0 13-5 13-13 0-7-6-13-13-13h-94zm-62 15h-90c-15 0-27-13-27-28s12-28 27-28h90c4 0 8 4 8 8v41c-1 4-4 7-8 7zm-90-42c-7 0-13 6-13 14 0 7 6 13 13 13h83v-27z" fill="#fff"/></g><g><path d="m490 499h-43c-4 0-8-3-8-7s4-8 8-8h36v-71h-36c-4 0-8-3-8-7 0-5 4-7 8-7h43c4 0 8 3 8 7v86c-1 4-4 7-8 7z" fill="#fff"/></g><g><path d="m447 351c-2 0-4-1-6-3-2-4-2-8 1-11l71-55c4-3 8-2 11 1 2 3 2 8-1 10l-72 56c-1 1-3 2-4 2z" fill="#fff"/></g><g><path d="m392 351c-1 0-3-1-4-2l-71-56c-4-2-4-7-2-10 3-3 7-4 11-1l71 55c3 3 4 7 1 11-2 1-4 3-6 3z" fill="#fff"/></g><g><path d="m362 253c-5 0-8-3-8-7v-18c0-5-5-10-10-10h-7c-6 0-11 5-11 10v18c0 4-4 7-8 7s-7-3-7-7v-18c0-13 11-25 25-25h7c14 0 25 12 25 25v18c1 4-2 7-6 7z" fill="#fff"/></g><g><path d="m528 253c-4 0-7-3-7-7v-18c0-5-5-10-10-10h-8c-5 0-10 5-10 10v18c0 4-3 7-7 7-5 0-8-3-8-7v-18c0-13 11-25 25-25h7c14 0 25 12 25 25v18c1 4-2 7-7 7z" fill="#fff"/></g><g><path d="m673 302c-1 0-1 0-1 0-44-4-80-14-107-29-4-2-5-6-3-10 2-3 6-5 10-3 25 15 60 23 101 27 4 0 7 4 7 8s-3 7-7 7z" fill="#fff"/></g><g><path d="m639 642h-428c-4 0-8-3-8-7s4-8 8-8h428c4 0 8 4 8 8s-4 7-8 7z" fill="#fff"/></g><g><path d="m576 681h-303c-4 0-7-3-7-7 0-5 3-8 7-8h303c4 0 8 3 8 8 0 4-4 7-8 7z" fill="#fff"/></g><g><path d="m177 302c-4 0-7-3-7-7s3-8 7-8c41-4 76-12 101-27 4-2 8 0 10 3 2 4 1 8-3 10-27 15-63 25-107 29z" fill="#fff"/></g></g></g></svg>