<svg enable-background="new 0 0 492 492" height="512" viewBox="0 0 492 492" width="512" xmlns="http://www.w3.org/2000/svg"><g id="Layer_1"><g><circle clip-rule="evenodd" cx="246.26" cy="246.74" fill="#a5dadb" fill-rule="evenodd" r="238.321"/><g clip-rule="evenodd" fill-rule="evenodd"><path d="m61.628 98.219-.688-1.309c.585-.722 1.165-1.448 1.758-2.163z" fill="#81cacc"/><path d="m7.949 247.454 5.354 9.402-4.08 14.708c-.821-7.928-1.251-15.971-1.274-24.11z" fill="#aadbdd"/><path d="m13.302 256.856-5.354-9.402c-.001-.238-.009-.475-.009-.714 0-3.802.099-7.581.275-11.339z" fill="#a2d7da"/><path d="m86.087 423.209 55.866-10.365-6.442 44.955c-17.944-9.435-34.547-21.078-49.424-34.59z" fill="#c4e6e7"/><path d="m63.756 399.984 41.004-160.759 37.193 173.619-55.866 10.365c-7.957-7.227-15.412-14.993-22.331-23.225z" fill="#bde4e4"/><path d="m104.76 239.225-89.898-49.667c1.388-5.636 2.977-11.193 4.758-16.664l90.351-20.039z" fill="#a8dbdc"/><path d="m60.94 96.91.688 1.309-1.975.29c.426-.536.856-1.067 1.287-1.599z" fill="#86cccd"/><path d="m59.653 98.508 1.975-.29-13.888 16.644c3.744-5.624 7.718-11.08 11.913-16.354z" fill="#92d1d3"/><path d="m47.74 114.862 13.888-16.643 48.343 54.637-90.351 20.038c6.756-20.737 16.268-40.228 28.12-58.032z" fill="#9bd4d7"/><path d="m13.302 256.856-5.088-21.455c.737-15.729 3.006-31.055 6.648-45.843l89.898 49.667z" fill="#aadbdd"/><path d="m15.423 306.218 89.337-66.994-41.004 160.76c-22.571-26.853-39.337-58.748-48.333-93.766z" fill="#b9e2e3"/><path d="m9.222 271.564 4.08-14.708 91.458-17.631-89.337 66.994c-2.891-11.252-4.976-22.825-6.201-34.655z" fill="#b3dfe0"/><path d="m201.429 335.283-96.669-96.058 63.945-18.509z" fill="#bce3e4"/><path d="m168.705 220.716-58.734-67.861 40.907-70.504z" fill="#a5dadb"/><path d="m104.76 239.225 5.211-86.37 58.734 67.861z" fill="#b2dee0"/><path d="m336.774 189.87-47.592-85.483 82.178-60.514c3.422 2.115 6.786 4.315 10.09 6.596z" fill="#9ad4d6"/><path d="m61.628 98.219 1.07-3.472c11.934-14.396 25.529-27.364 40.491-38.613l47.689 26.218z" fill="#8acdd0"/><path d="m109.971 152.855-48.343-54.636 89.25-15.868z" fill="#97d4d5"/><path d="m150.878 82.351-47.689-26.218c14.501-10.902 30.29-20.176 47.091-27.579z" fill="#86cccd"/><path d="m141.952 412.844-37.192-173.619 96.669 96.058z" fill="#c0e4e5"/><path d="m313.726 312.37-62.468-42.296 85.516-80.204z" fill="#bbe2e4"/><path d="m135.51 457.799 6.442-44.955 43.303 64.323c-17.444-4.611-34.106-11.145-49.745-19.368z" fill="#c6e7e8"/><path d="m251.258 270.074 37.924-165.688 47.592 85.484z" fill="#addcde"/><path d="m150.878 82.351-.598-53.797c8.253-3.636 16.746-6.827 25.457-9.524l78.492 16.606z" fill="#86cccd"/><path d="m201.429 335.283-32.724-114.567 82.553 49.358z" fill="#bde4e4"/><path d="m261.666 480.696-119.714-67.852 59.477-77.561z" fill="#c8e7e9"/><path d="m185.256 477.167-43.303-64.323 119.714 67.852-8.289 4.25c-2.365.069-4.736.114-7.117.114-21.089 0-41.532-2.752-61.005-7.893z" fill="#cae9ea"/><path d="m251.258 270.074-82.553-49.358 120.477-116.33z" fill="#b2dee0"/><path d="m168.705 220.716-17.827-138.365 138.304 22.035z" fill="#a2d7da"/><path d="m289.182 104.386-138.304-22.035 103.351-46.714z" fill="#90d1d3"/><path d="m253.377 484.946 8.289-4.25 1.836 3.739c-3.356.24-6.731.411-10.125.511z" fill="#d2ecec"/><path d="m261.666 480.696-60.237-145.413 105.6 118.973z" fill="#cceaeb"/><path d="m307.029 454.256-105.6-118.973 112.297-22.913z" fill="#c8e7e9"/><path d="m263.502 484.435-1.836-3.739 45.363-26.44-2.751 23.677c-13.191 3.3-26.816 5.503-40.776 6.502z" fill="#d4edee"/><path d="m201.429 335.283 49.829-65.209 62.468 42.296z" fill="#c0e4e5"/><path d="m289.182 104.386-34.952-68.75 97.625-2.587c6.686 3.31 13.194 6.922 19.506 10.823z" fill="#8acdd0"/><path d="m307.029 454.256 6.697-141.886 69.894 45.829z" fill="#cae9ea"/><path d="m254.229 35.637-78.492-16.606c3.109-.962 6.25-1.852 9.412-2.688l157.198 12.259c3.207 1.415 6.376 2.898 9.507 4.448z" fill="#81cacc"/><path d="m416.289 413.711-32.669-55.512 48.335-52.873 6.938 81.733c-6.885 9.431-14.441 18.339-22.604 26.652z" fill="#c9e8e9"/><path d="m383.62 358.199-69.894-45.829 118.228-7.045z" fill="#c3e5e7"/><path d="m431.954 305.325-95.18-115.455 101.717-83.999c3.856 5.253 7.504 10.666 10.927 16.233z" fill="#aadbdd"/><path d="m336.774 189.87 44.676-139.402c21.967 15.159 41.26 33.91 57.04 55.403z" fill="#97d4d5"/><path d="m357.605 457.485-50.576-3.228 76.59-96.058 32.669 55.512c-17.121 17.431-36.899 32.24-58.683 43.774z" fill="#d2ecec"/><path d="m313.726 312.37 23.048-122.5 95.18 115.455z" fill="#b9e2e3"/><path d="m304.279 477.934 2.751-23.677 50.576 3.228c-16.7 8.84-34.571 15.756-53.327 20.449z" fill="#daeff0"/><path d="m283.033 11.245-81.882 1.457c14.609-2.799 29.685-4.282 45.109-4.282 12.507-.001 24.786.968 36.773 2.825z" fill="#79c7c9"/><path d="m342.347 28.601-157.198-12.259c5.264-1.393 10.602-2.605 16.002-3.641l81.882-1.457c20.78 3.224 40.672 9.134 59.314 17.357z" fill="#81cacc"/><path d="m431.954 305.325 17.463-183.221c21.829 35.505 34.601 77.167 35.127 121.777z" fill="#a7dadc"/><path d="m431.954 305.325 52.59-61.444c.011.953.036 1.903.036 2.859 0 16.169-1.619 31.958-4.687 47.223z" fill="#addcdd"/><path d="m438.892 387.058-6.938-81.733 35.094 31.253c-7.349 18.033-16.836 34.966-28.156 50.48z" fill="#c6e7e8"/><path d="m467.048 336.578-35.094-31.253 47.939-11.363c-2.968 14.743-7.296 28.992-12.845 42.616z" fill="#bbe2e4"/></g><path d="m246.26.98c67.864 0 129.304 27.508 173.778 71.982s71.982 105.914 71.982 173.778-27.508 129.304-71.982 173.778-105.914 71.982-173.778 71.982-129.304-27.508-173.778-71.982-71.982-105.914-71.982-173.778 27.508-129.304 71.982-173.778 105.914-71.982 173.778-71.982zm163.247 82.513c-41.778-41.778-99.495-67.618-163.247-67.618s-121.469 25.84-163.247 67.618-67.618 99.495-67.618 163.247 25.841 121.469 67.618 163.247c41.778 41.778 99.495 67.618 163.247 67.618s121.469-25.841 163.247-67.618c41.778-41.778 67.618-99.495 67.618-163.247s-25.84-121.469-67.618-163.247z" fill="#556d6e"/></g><g><g clip-rule="evenodd" fill="#556d6e" fill-rule="evenodd"><path d="m174.071 155.214h144.381v13.35h-144.381z"/><path d="m237.816 174.626h16.89v176.295h-16.89z"/><path d="m237.816 134.964h16.89v14.186h-16.89z"/><path d="m313.905 369.084h-38.876v-12.097h-57.536v12.097h-38.876c-1.674 0-3.032 1.358-3.032 3.032s1.357 3.032 3.032 3.032h135.287c1.674 0 3.032-1.357 3.032-3.032.001-1.675-1.357-3.032-3.031-3.032z"/><path d="m308.325 140.856c0-1.674-1.358-3.032-3.032-3.032s-3.032 1.358-3.032 3.032v8.295h6.064z"/><path d="m249.293 121.363c0-1.674-1.357-3.032-3.032-3.032-1.674 0-3.032 1.358-3.032 3.032v7.537h6.064z"/><path d="m190.261 140.856c0-1.674-1.357-3.032-3.032-3.032-1.674 0-3.032 1.358-3.032 3.032v8.295h6.064z"/><path d="m200.688 174.626h-14.235c-14.964 12.48-34.297 17.016-48.629 18.57-17.728 1.924-31.937-.157-32.079-.178-1.656-.249-3.199.889-3.45 2.544-.25 1.655.889 3.201 2.544 3.45.604.092 15.002 2.213 33.48.229 10.893-1.17 20.936-3.536 29.848-7.035 10.082-3.958 18.735-9.38 25.768-16.142l37.819 44.111v-9.315z"/><path d="m390.226 195.566c-.25-1.656-1.791-2.794-3.448-2.548-.142.021-14.377 2.102-32.132.178-14.353-1.555-33.71-6.09-48.682-18.57h-14.225l-30.971 36.217v9.33l37.715-44.105c7.033 6.761 15.692 12.182 25.781 16.14 8.919 3.499 18.973 5.865 29.884 7.033 18.504 1.984 32.926-.137 33.53-.229 1.657-.248 2.797-1.79 2.548-3.446z"/></g></g></g></svg>
