<?xml version="1.0" encoding="UTF-8" standalone="no"?>
<svg
   id="Capa_1"
   enable-background="new 0 0 611.328 611.328"
   height="512"
   viewBox="0 0 611.328 611.328"
   width="512"
   version="1.1"
   sodipodi:docname="puisard3.svg"
   inkscape:version="1.1.2 (b8e25be833, 2022-02-05)"
   xmlns:inkscape="http://www.inkscape.org/namespaces/inkscape"
   xmlns:sodipodi="http://sodipodi.sourceforge.net/DTD/sodipodi-0.dtd"
   xmlns="http://www.w3.org/2000/svg"
   xmlns:svg="http://www.w3.org/2000/svg">
  <defs
     id="defs9" />
  <sodipodi:namedview
     id="namedview7"
     pagecolor="#ffffff"
     bordercolor="#999999"
     borderopacity="1"
     inkscape:pageshadow="0"
     inkscape:pageopacity="0"
     inkscape:pagecheckerboard="0"
     showgrid="false"
     inkscape:zoom="1.1159029"
     inkscape:cx="241.0604"
     inkscape:cy="253.15823"
     inkscape:window-width="1920"
     inkscape:window-height="1001"
     inkscape:window-x="-1929"
     inkscape:window-y="-9"
     inkscape:window-maximized="1"
     inkscape:current-layer="Capa_1" />
  <g
     id="g1052">
    <circle
       style="fill:#1fa032;fill-opacity:1;stroke:#ffffff;stroke-width:0"
       id="path852"
       cx="305.53998"
       cy="305.54001"
       r="304.47" />
    <path
       id="path1015"
       style="fill:#b6f7ab;fill-opacity:1;stroke:#ffffff;stroke-width:0"
       d="m 387.33873,333.27758 v 202.2011 c 4.94685,-1.76583 9.82079,-3.68824 14.61484,-5.75779 4.79405,-2.06953 9.50928,-4.28671 14.13911,-6.64862 4.62982,-2.36191 9.17424,-4.86852 13.62839,-7.51146 4.45414,-2.64295 8.81798,-5.42204 13.08503,-8.33469 V 333.28458 Z" />
    <path
       id="path1115"
       style="fill:#b6f7ab;fill-opacity:1;stroke:#ffffff;stroke-width:0"
       d="m 63.060457,333.27758 c 0.658085,5.79087 1.519522,11.52045 2.576894,17.18241 1.057513,5.66271 2.309916,11.25758 3.752238,16.77663 1.442324,5.51905 3.075387,10.9612 4.887938,16.32189 1.81255,5.36069 3.80647,10.63989 5.974665,15.82749 2.168194,5.18761 4.510158,10.28431 7.019414,15.28413 2.509255,4.99983 5.184122,9.90146 8.019855,14.6988 2.835734,4.79733 5.830689,9.49135 8.978319,14.07147 3.14763,4.58014 6.44754,9.04697 9.89248,13.3952 V 333.27758 Z" />
    <path
       id="path1113"
       style="fill:#b6f7ab;fill-opacity:1;stroke:#ffffff;stroke-width:0"
       d="m 496.88589,333.26358 v 123.56268 c 3.44498,-4.34816 6.74481,-8.81742 9.89248,-13.39751 3.14768,-4.58009 6.14254,-9.27184 8.97832,-14.06914 2.83579,-4.79732 5.51055,-9.699 8.01986,-14.6988 2.5093,-4.9998 4.85352,-10.09886 7.02175,-15.28646 2.16822,-5.18761 4.1621,-10.46449 5.97466,-15.82517 1.81256,-5.36068 3.44331,-10.80516 4.88561,-16.32422 1.44229,-5.51905 2.69481,-11.11158 3.75224,-16.77429 1.05743,-5.66273 1.91892,-11.39541 2.57689,-17.18709 z" />
    <path
       id="path1111"
       style="fill:#b6f7ab;fill-opacity:1;stroke:#ffffff;stroke-width:0"
       d="m 277.79389,333.26126 v 214.73576 c 4.55263,0.51731 9.14264,0.91507 13.76598,1.18235 4.62335,0.26728 9.28066,0.40577 13.96887,0.40577 4.68823,0 9.34363,-0.13849 13.96653,-0.40577 4.62291,-0.26729 9.21367,-0.66507 13.76599,-1.18235 V 333.26126 Z" />
    <path
       id="path1109"
       style="fill:#b6f7ab;fill-opacity:1;stroke:#ffffff;stroke-width:0"
       d="m 223.71408,333.25193 -55.46269,0.01 V 507.2007 c 4.26704,2.91279 8.62874,5.69406 13.08269,8.33701 4.45397,2.64295 8.99882,5.14962 13.6284,7.51147 4.62957,2.36185 9.34524,4.57912 14.1391,6.64862 4.79387,2.06951 9.66567,3.98955 14.6125,5.75545 z" />
    <path
       id="path1107"
       style="fill:#b6f7ab;fill-opacity:1;stroke:#ffffff;stroke-width:0"
       d="m 114.17159,154.24755 c -3.47902,4.39103 -6.8122,8.90296 -9.98809,13.53044 -3.17626,4.62799 -6.197262,9.37138 -9.055281,14.22072 -2.85802,4.84935 -5.553426,9.80417 -8.078157,14.85971 -2.52473,5.05553 -4.878005,10.21012 -7.054394,15.4567 -2.17639,5.24658 -4.175663,10.58691 -5.988656,16.00939 -1.812994,5.42249 -3.439402,10.92755 -4.873945,16.51079 -1.434545,5.58323 -2.676219,11.24368 -3.717259,16.97252 -1.041039,5.72883 -1.881448,11.52599 -2.513929,17.3853 h 51.269711 z" />
    <path
       id="path1105"
       style="fill:#b6f7ab;fill-opacity:1;stroke:#ffffff;stroke-width:0"
       d="m 496.88124,154.23122 v 124.95023 h 51.26737 c -0.63236,-5.85944 -1.47305,-11.65866 -2.51393,-17.38762 -1.04088,-5.72897 -2.28289,-11.38685 -3.71726,-16.9702 -1.43436,-5.58333 -3.06112,-11.09054 -4.87394,-16.51311 -1.81283,-5.42256 -3.81009,-10.76041 -5.98633,-16.00706 -2.17624,-5.24665 -4.53209,-10.40346 -7.05672,-15.45903 -2.52463,-5.05559 -5.21784,-10.01034 -8.07582,-14.8597 -2.858,-4.84937 -5.87897,-9.59273 -9.05529,-14.22073 -3.17631,-4.62801 -6.50848,-9.14129 -9.98808,-13.53278 z" />
    <path
       id="path1103"
       style="fill:#b6f7ab;fill-opacity:1;stroke:#ffffff;stroke-width:0"
       d="m 223.71408,75.613781 c -4.94683,1.765893 -9.81863,3.685749 -14.6125,5.755454 -4.79386,2.069703 -9.50953,4.288836 -14.1391,6.650952 -4.62958,2.362117 -9.17443,4.86601 -13.6284,7.509141 -4.45395,2.643131 -8.81565,5.424262 -13.08269,8.337012 v 175.32678 h 55.46269 z" />
    <path
       id="path1101"
       style="fill:#b6f7ab;fill-opacity:1;stroke:#ffffff;stroke-width:0"
       d="M 387.33873,75.599789 V 279.18145 h 55.46737 v -175.3291 c -4.26705,-2.91275 -8.63089,-5.691741 -13.08503,-8.334682 -4.45415,-2.64294 -8.99857,-5.149611 -13.62839,-7.511473 -4.62983,-2.361861 -9.34506,-4.579108 -14.13911,-6.648621 -4.79405,-2.069512 -9.66799,-3.991893 -14.61484,-5.757785 z" />
    <path
       id="path1099"
       style="fill:#b6f7ab;fill-opacity:1;stroke:#ffffff;stroke-width:0"
       d="m 305.52874,61.486336 c -4.68821,0 -9.34546,0.138492 -13.96887,0.405774 -4.6234,0.26728 -9.21362,0.662738 -13.76598,1.180007 V 279.19544 h 55.46737 V 63.072117 c -4.55259,-0.517286 -9.14314,-0.912731 -13.76599,-1.180007 -4.62283,-0.267277 -9.2783,-0.405774 -13.96653,-0.405774 z" />
  </g>
</svg>
