<?xml version="1.0" encoding="UTF-8"?>
<svg class="" width="512" height="512" enable-background="new 0 0 512 512" version="1.1" viewBox="0 0 512 512" xml:space="preserve" xmlns="http://www.w3.org/2000/svg"><rect x="84.104" y="132.91" width="343.62" height="266.93" fill="#fff" stroke-width="0"/><g fill="#fbcf17">
<path class="" d="m306.33 328.96h-100.65c-8.297 0-15.024-6.727-15.024-15.024v-24.213c0-35.149 28.595-63.745 63.744-63.745h3.205c35.149 0 63.744 28.596 63.744 63.745v24.213c1e-3 8.297-6.726 15.024-15.023 15.024zm-85.621-30.049h70.596v-9.189c0-18.58-15.116-33.697-33.696-33.697h-3.205c-18.58 0-33.696 15.117-33.696 33.697l1e-3 9.189z" style="" data-original="#d6d9e1"/>
<path class="" d="m256 256.03c-8.297 0-15.024-6.727-15.024-15.024v-123.11c0-8.297 6.727-15.024 15.024-15.024s15.024 6.727 15.024 15.024v123.11c0 8.298-6.726 15.024-15.024 15.024z" style="" data-original="#bf4e15"/>
<path class="" d="m442.93 429.82h-373.85c-8.297 0-15.024-6.727-15.024-15.024v-296.91c0-8.297 6.727-15.024 15.024-15.024h373.85c8.297 0 15.024 6.727 15.024 15.024v296.91c0 8.298-6.726 15.025-15.024 15.025zm-358.82-30.049h343.8v-266.86h-343.8v266.86z" style="" data-original="#d6d9e1"/>
</g><path class="" d="m442.93 102.87h-186.93v30.049h171.9v266.86h-171.9v30.049h186.93c8.297 0 15.024-6.727 15.024-15.024v-296.91c-1e-3 -8.297-6.727-15.024-15.025-15.024z" fill="#eda009" style="" data-original="#9c9faa"/>
<g fill="#89dff2">
	<path class="" d="m442.93 507.41h-373.85c-8.297 0-15.024-6.727-15.024-15.024v-77.583c0-8.297 6.727-15.024 15.024-15.024h373.85c8.297 0 15.024 6.727 15.024 15.024v77.583c0 8.297-6.726 15.024-15.024 15.024z" style="" data-original="#e3323b"/>
	<path class="" d="m496.98 132.92h-481.95c-4.867 0-9.432-2.358-12.25-6.325-2.818-3.969-3.539-9.057-1.934-13.651l34.314-98.274c2.106-6.032 7.796-10.072 14.185-10.072h413.32c6.388 0 12.079 4.04 14.185 10.072l34.314 98.273c1.605 4.594 0.883 9.682-1.934 13.651-2.819 3.969-7.384 6.326-12.251 6.326z" style="" data-original="#e3323b"/>
</g>
<path class="" d="m295.98 429.82h-79.954c-7.704 0-14.16-5.827-14.946-13.492l-10.346-100.86c-0.434-4.229 0.945-8.445 3.793-11.6 2.849-3.156 6.901-4.957 11.153-4.957h100.64c4.252 0 8.304 1.801 11.153 4.957 2.849 3.155 4.227 7.37 3.793 11.6l-10.346 100.86c-0.785 7.665-7.241 13.492-14.945 13.492z" fill="#636978" style="" data-original="#636978"/>
<path class="" d="m496.98 429.82h-481.95c-8.297 0-15.024-6.727-15.024-15.024s6.727-15.024 15.024-15.024h481.95c8.297 0 15.024 6.727 15.024 15.024s-6.726 15.024-15.023 15.024z" fill="#fbcf17" style="" data-original="#bf4e15"/>
<path class="" d="m442.93 399.78h-186.93v107.63h186.93c8.297 0 15.024-6.727 15.024-15.024v-77.583c-1e-3 -8.297-6.727-15.024-15.025-15.024z" fill="#3f8fe4" style="" data-original="#ba1a22"/>
<path class="" d="m257.61 225.98h-1.609v30.049h1.609c18.58 0 33.696 15.117 33.696 33.697v9.189h-35.304v30.049h50.329c8.297 0 15.024-6.727 15.024-15.024v-24.213c-1e-3 -35.151-28.596-63.747-63.745-63.747z" fill="#eda009" style="" data-original="#9c9faa"/>
<path class="" d="m306.33 298.91h-50.329v130.91h39.983c7.704 0 14.16-5.827 14.946-13.492l10.346-100.86c0.434-4.23-0.945-8.445-3.793-11.6-2.849-3.155-6.902-4.956-11.153-4.956z" fill="#333940" style="" data-original="#333940"/>
<g fill="#eda009">
	<path class="" d="m496.98 399.78h-240.98v30.049h240.98c8.297 0 15.024-6.727 15.024-15.024s-6.727-15.025-15.024-15.025z" style="" data-original="#994400"/>
	<path class="" d="m256 102.87h-7e-3v153.16h7e-3c8.297 0 15.024-6.727 15.024-15.024v-123.11c0-8.297-6.726-15.024-15.024-15.024z" style="" data-original="#994400"/>
</g>
<path class="" d="m476.85 14.665c-2.106-6.032-7.796-10.072-14.185-10.072h-206.66v128.32h240.98c4.867 0 9.432-2.358 12.25-6.325 2.818-3.969 3.539-9.057 1.934-13.651l-34.314-98.274z" fill="#3f8fe4" style="" data-original="#ba1a22"/>















</svg>
