<svg clip-rule="evenodd" fill-rule="evenodd" height="512" image-rendering="optimizeQuality" shape-rendering="geometricPrecision" text-rendering="geometricPrecision" viewBox="0 0 173.397 173.397" width="512" xmlns="http://www.w3.org/2000/svg"><g id="Layer_x0020_1"><circle cx="86.699" cy="86.699" fill="#0f9d58" r="84.667"/><g id="_395022824" fill="#fff"><path id="_395025488" d="m42.1529 94.6106h8.3381v-54.1658h-8.3381z"/><path id="_395024768" d="m106.078 94.6106h8.338v-54.1658h-8.338z"/><path id="_395024840" d="m124.298 60.2088v-12.9698h-22.5688v12.9698zm-24.9879-12.9698h-3.1397v12.9698h3.1397zm-5.5589 0h-3.1397v12.9698h3.1397zm-5.5588 0h-3.1397v12.9698h3.1397zm-5.5589 0h-3.1396v12.9698h3.1396zm-5.5588 0h-44.8042v12.9698h44.8042z"/><path id="_395024336" d="m123.731 51.6072v4.2334h4.4671c.1696 0 .3131.1434.3131.3131v9.038c0 2.5068 2.0397 4.5465 4.5465 4.5465h5.9533c1.169 0 2.1167-.9477 2.1167-2.1167s-.9477-2.1167-2.1167-2.1167h-5.9533c-.1698 0-.3131-.1433-.3131-.3131v-9.038c0-2.5067-2.0398-4.5465-4.5465-4.5465z" fill-rule="nonzero"/><path id="_395024576" d="m68.8387 71.0191h18.8901l-3.6203 18.2875h-11.6495z"/><path id="_395024456" d="m76.9775 71.4512v-11.6745h2.6126v11.6745z" fill-rule="nonzero"/><g><path id="_395024000" d="m42.1493 94.0057v7.9143h15.6814v-7.9143z"/><path id="_395023712" d="m42.1493 104.35v7.914h21.2672v-7.914h-3.1489-1.2185z"/><path id="_395023592" d="m57.8307 114.694h-15.6814v7.914h15.6814z"/><path id="_395023400" d="m63.4165 125.038h-21.2672v5.999c0 .5254.2166 1.0041.5654 1.3519.3488.3477.829.5636 1.356.5636h19.3458z"/><path id="_395023568" d="m65.8534 125.038v7.914h24.8608v-7.914z"/><path id="_395024120" d="m60.2676 114.694v7.914h4.3674 1.2184 11.212v-7.914h-11.212-1.2184z"/><path id="_395023616" d="m65.8534 104.35v7.914h24.8608v-7.914h-11.2119-1.2185z"/><path id="_395024024" d="m60.2676 94.0058v7.9142h16.7978v-7.9142z"/><path id="_395023376" d="m79.5023 94.0058v7.9142h16.7977v-7.9142z"/><path id="_395023256" d="m98.7369 94.0058v7.9142h15.6811v-7.9142z"/><path id="_395022968" d="m93.1511 104.35v7.914h21.2669v-7.914h-16.8996-1.2184z"/><path id="_395023184" d="m79.5023 114.694v7.914h11.2119 1.2185 4.3673v-7.914h-4.3673-1.2185z"/><path id="_395022848" d="m98.7369 114.694v7.914h15.6811v-7.914z"/><path id="_395022992" d="m93.1511 125.038v7.9145h19.3457c.5272 0 1.0073-.2159 1.3561-.5636.3489-.3478.5654-.8266.5654-1.3519v-5.999z"/></g></g></g></svg>