<?xml version="1.0" encoding="UTF-8"?>
<!-- Generator: Adobe Illustrator 19.0.0, SVG Export Plug-In . SVG Version: 6.00 Build 0)  -->
<svg enable-background="new 0 0 512 512" version="1.1" viewBox="0 0 512 512" xml:space="preserve" xmlns="http://www.w3.org/2000/svg">















<g fill="#e17884">
	<path d="m326.67 349.82v8.084h-44.841v-64.72h-66.406v64.72h-45.379v-8.084c0-7.459-6.047-13.506-13.506-13.506h-36.494v110.02h36.494c7.459 0 13.506-6.045 13.506-13.506v-8.522h156.63v8.522c0 7.461 6.045 13.506 13.506 13.506h38.93v-110.02h-38.93c-7.461-1e-3 -13.507 6.047-13.507 13.506z"/>
	<path d="m62.116 424.31v8.522c0 7.461 6.047 13.506 13.506 13.506h36.494v-110.02h-36.494c-7.459 0-13.506 6.047-13.506 13.506v8.084h-48.61c-7.459 1e-3 -13.506 6.049-13.506 13.508v39.394c0 7.459 6.047 13.506 13.506 13.506h26.084l22.526-1e-3z"/>
</g><path d="m22.06 411.03v-39.394c0-7.459 6.047-13.506 13.506-13.506h-22.06c-7.459 1e-3 -13.506 6.048-13.506 13.507v39.394c0 7.459 6.047 13.506 13.506 13.506h22.06c-7.458 0-13.506-6.048-13.506-13.507z" fill="#e54553"/><rect x="243.04" y="129.5" width="31.684" height="66.778" fill="#ADABA6"/><path d="m498.49 365.28h-49.147v-8.084c0-7.459-1.545-13.506-9.004-13.506h-35.184v110.02h35.184c7.459 0 9.004-6.045 9.004-13.506v-8.522h49.147c7.46 0 13.506-6.047 13.506-13.506v-39.394c0-7.46-6.046-13.507-13.506-13.507z" fill="#e17884"/><g fill="#b52330">
	<path d="m396.68 326.16h-3.467c-7.791 0-14.106 6.315-14.106 14.106v116.45c0 7.791 6.315 14.106 14.106 14.106h3.467c7.791 0 14.106-6.315 14.106-14.106v-116.45c1e-3 -7.791-6.316-14.106-14.106-14.106z"/>
	<path d="m122.94 326.16h-3.467c-7.791 0-14.106 6.315-14.106 14.106v116.45c0 7.791 6.315 14.106 14.106 14.106h3.467c7.791 0 14.106-6.315 14.106-14.106v-116.45c0-7.791-6.316-14.106-14.106-14.106z"/>
</g><path d="m312.15 107.37c0-7.459-6.046-13.506-13.506-13.506h-79.537c-7.459 0-13.506 6.047-13.506 13.506v24.809c0 7.459 6.047 13.506 13.506 13.506h79.537c7.46 0 13.506-6.047 13.506-13.506v-24.809z" fill="#CCC3A8"/><path d="m227.92 132.18v-24.809c0-7.459 6.046-13.506 13.506-13.506h-22.324c-7.459 0-13.506 6.047-13.506 13.506v24.809c0 7.459 6.047 13.506 13.506 13.506h22.324c-7.46 0-13.506-6.047-13.506-13.506z" fill="#C9B585"/><g><path d="m352.97 107.35c0 7.459-6.047 13.506-13.506 13.506h-161.73c-7.459 0-13.506-6.047-13.506-13.506v-52.662c0-7.459 6.047-13.506 13.506-13.506h161.73c7.459 0 13.506 6.047 13.506 13.506v52.662z" fill="#e3a146"/><path d="m186.55 107.35v-52.662c0-7.459 6.047-13.506 13.506-13.506h-22.322c-7.459 0-13.506 6.047-13.506 13.506v52.66c0 7.459 6.047 13.506 13.506 13.506h22.322c-7.458 2e-3 -13.506-6.047-13.506-13.504z" fill="#d8b72e"/><g fill="#c26a17">
	<path d="m197 112.81c-4.662 0-8.441-3.778-8.441-8.441v-46.522c0-4.663 3.78-8.441 8.441-8.441s8.441 3.778 8.441 8.441v46.522c1e-3 4.662-3.779 8.441-8.441 8.441z"/>
	<path d="m228.2 112.81c-4.663 0-8.441-3.778-8.441-8.441v-46.522c0-4.663 3.778-8.441 8.441-8.441 4.662 0 8.441 3.778 8.441 8.441v46.522c0 4.662-3.779 8.441-8.441 8.441z"/>
	<path d="m259.39 112.81c-4.663 0-8.441-3.778-8.441-8.441v-46.522c0-4.663 3.778-8.441 8.441-8.441s8.441 3.778 8.441 8.441v46.522c0 4.662-3.778 8.441-8.441 8.441z"/>
	<path d="m290.58 112.81c-4.662 0-8.441-3.778-8.441-8.441v-46.522c0-4.663 3.78-8.441 8.441-8.441 4.663 0 8.441 3.778 8.441 8.441v46.522c0 4.662-3.779 8.441-8.441 8.441z"/>
	<path d="m321.78 112.81c-4.662 0-8.441-3.778-8.441-8.441v-46.522c0-4.663 3.78-8.441 8.441-8.441 4.662 0 8.441 3.778 8.441 8.441v46.522c0 4.662-3.78 8.441-8.441 8.441z"/>
</g><path d="m237.98 339.23v-46.043h-22.999v64.72h1.194c4.699-0.112 21.805-1.685 21.805-18.677z" fill="#e54553"/><path d="m203.59 191.39v104.67c0 7.459 6.047 13.506 13.506 13.506h83.015c7.459 0 13.506-6.047 13.506-13.506v-104.67h-110.03z" fill="#e17884"/><path d="m225.91 296.06v-104.67h-22.324v104.67c0 7.459 6.047 13.506 13.506 13.506h22.324c-7.459 0-13.506-6.047-13.506-13.506z" fill="#c7433f"/><path d="m317.1 175.55h-116.45c-7.791 0-14.106 6.315-14.106 14.106v3.467c0 7.791 6.315 14.106 14.106 14.106h116.45c7.791 0 14.106-6.315 14.106-14.106v-3.467c0-7.79-6.316-14.106-14.107-14.106z" fill="#e54553"/><path d="m208.86 193.13v-3.467c0-7.791 6.315-14.106 14.106-14.106h-22.324c-7.791 0-14.106 6.315-14.106 14.106v3.467c0 7.791 6.315 14.106 14.106 14.106h22.324c-7.789 2e-3 -14.106-6.315-14.106-14.106z" fill="#b52330"/><g fill="#c7433f">
	<path d="m349.22 351.14v-1.315c0-7.459 6.045-13.506 13.506-13.506h-22.997c-7.461 0-13.506 6.047-13.506 13.506v8.084h14.258c7.263 0 8.553-4.479 8.739-6.769z"/>
	<path d="m349.22 432.84v-1.687s-0.111-6.835-9.116-6.835h-13.882v8.522c0 7.461 6.045 13.506 13.506 13.506h22.999c-7.46 0-13.507-6.045-13.507-13.506z"/>
	<path d="m85.114 351.14v-1.315c0-7.459 6.045-13.506 13.506-13.506h-22.998c-7.461 0-13.506 6.047-13.506 13.506v8.084h14.258c7.263 0 8.553-4.479 8.74-6.769z"/>
	<path d="m85.114 432.84v-1.687s-0.111-6.835-9.116-6.835h-13.882v8.522c0 7.461 6.045 13.506 13.506 13.506h22.999c-7.462 0-13.507-6.045-13.507-13.506z"/>
</g></g>















</svg>
