<svg clip-rule="evenodd" fill-rule="evenodd" height="512" image-rendering="optimizeQuality" shape-rendering="geometricPrecision" text-rendering="geometricPrecision" viewBox="0 0 850 850" width="512" xmlns="http://www.w3.org/2000/svg"><g id="Layer_x0020_1"><circle cx="425" cy="425" fill="#ff4800" r="425"/><g fill="#fff"><path d="m336 652 3-54 86-60 87 61 3 53zm4-72 5-89s1 0 1-1l6-3 60 42zm6-106 4-68 7-5 55 33zm80-31 59 35-60 42-60-41zm-75-55 4-69h5l52 32zm75-28 54 33-54 33-55-33zm37-41-37 23-38-23zm33 0 4 69-60-37 51-32zm5 87 4 67-65-39 54-33zm5 85 5 89-74-51 61-43z"/><path d="m581 591h-56l-5-102 66 91c2 2 2 5 1 8-1 2-3 3-6 3zm-79 0h-155l78-54zm-177 0h-55c-3 0-6-1-7-4-1-2-1-5 1-7l67-92z"/><path d="m375 250 44-77c1-2 3-4 6-4 2 0 5 1 6 4l45 77z"/><path d="m549 400h-34l-4-77h7l37 66c1 2 1 5 0 7s-4 4-6 4zm-213 0h-34c-2 0-5-1-6-4-1-2-1-5 0-7l37-66h7z"/><path d="m569 309h-302c-4 0-7-3-7-7s3-8 7-8h302c5 0 8 4 8 8s-3 7-8 7z"/><path d="m533 279h-215c-4 0-8-3-8-8 0-4 4-7 8-7h215c4 0 7 3 7 7 0 5-3 8-7 8z"/><path d="m631 681h-412c-4 0-8-3-8-7 0-5 4-8 8-8h412c4 0 8 3 8 8 0 4-4 7-8 7z"/></g></g></svg>