<?xml version="1.0" encoding="UTF-8"?>
<svg width="512" height="512" enable-background="new 0 0 36 36" version="1.1" viewBox="0 0 36 36" xmlns="http://www.w3.org/2000/svg">
 <path d="m33.733 14.059-14.233 0.044554v-3.104c0-0.28-0.22-0.5-0.5-0.5h-4c-0.28 0-0.5 0.22-0.5 0.5v1.5h-12.5c-0.28 0-0.5 0.22-0.5 0.5v10c0 0.28 0.22 0.5 0.5 0.5h12.5v1.5c0 0.28 0.22 0.5 0.5 0.5h4c0.28 0 0.5-0.22 0.5-0.5l0.04455-3.0149 14.054-0.04455c0.28-8.93e-4 0.90099-0.39822 0.90099-0.67822v-6.5693c0-0.28-0.48733-0.63454-0.76733-0.63366zm-19.233 8.4406h-12v-9h12zm4 2h-3v-13h3zm15.045-3.5594-14.045-1e-6v-5.8366h14z" fill="#89dff2"/>
 <g stroke-width="0">
  <rect x="2.5" y="13.5" width="12" height="9" fill="#3f8fe4"/>
  <rect x="15.5" y="11.5" width="3" height="13" fill="#89dff2"/>
  <rect x="19.5" y="15.104" width="14.045" height="5.8366" fill="#3f8fe4"/>
 </g>
</svg>
