<?xml version="1.0" encoding="UTF-8"?>
<svg class="" width="512" height="512" enable-background="new 0 0 512 512" version="1.1" viewBox="0 0 512 512" xml:space="preserve" xmlns="http://www.w3.org/2000/svg">


















<g><circle class="" cx="256" cy="256" r="256" fill="#b72126" data-original="#28384c"/><circle cx="256.26" cy="258.79" r="210" fill="#f68084" stroke-width="0"/><g fill="#b72126" stroke-width=".96287"><path d="m289.29 311.41c-5.608 3.4679-11.803 6.0668-18.396 7.6353v41.042c17.61-2.4899 33.805-9.4406 47.399-19.675z"/><path d="m203 290.9c-3.4679-5.6079-6.0668-11.803-7.6315-18.396h-41.046c2.4899 17.61 9.4406 33.805 19.679 47.399z"/><path d="m241.9 319.04c-6.5934-1.5647-12.788-4.1674-18.396-7.6353l-29.003 29.003c13.593 10.234 29.789 17.189 47.399 19.679z"/><path d="m317.43 272.51c-1.5647 6.5934-4.1674 12.788-7.6353 18.396l28.999 29.003c10.238-13.593 17.189-29.789 19.682-47.399z"/><path d="m195.36 243.51c1.5647-6.5934 4.1674-12.788 7.6353-18.399l-29.003-29.003c-10.238 13.593-17.189 29.789-19.679 47.402z"/><path d="m270.9 155.92v41.046c6.5934 1.5647 12.792 4.1674 18.399 7.6353l29.003-29.003c-13.593-10.234-29.792-17.189-47.402-19.679z"/><path d="m290.15 258.01c0-18.61-15.139-33.75-33.75-33.75s-33.75 15.139-33.75 33.75c0 18.61 15.139 33.75 33.75 33.75s33.75-15.143 33.75-33.75z"/><path d="m309.8 225.12c3.4716 5.6079 6.0706 11.807 7.6353 18.399h41.042c-2.4861-17.614-9.4369-33.809-19.675-47.406z"/><path d="m223.5 204.6c5.6117-3.4679 11.807-6.0669 18.403-7.6353v-41.042c-17.614 2.4861-33.809 9.4406-47.402 19.675z"/><path d="m173.85 154.94c19.08-15.312 42.479-25.445 68.056-28.251v-40.136c-36.567 3.0654-69.913 17.614-96.422 40.019z"/><path d="m387.7 272.51c-2.8096 25.573-12.942 48.971-28.254 68.048l28.367 28.367c22.406-26.505 36.954-59.852 40.023-96.412z"/><path d="m359.46 175.46c15.312 19.08 25.445 42.479 28.247 68.056h40.136c-3.0616-36.567-17.61-69.913-40.016-96.422z"/><path d="m338.95 361.06c-19.076 15.308-42.479 25.441-68.052 28.247v40.136c36.567-3.0654 69.909-17.61 96.422-40.016z"/><path d="m270.9 86.559v40.136c25.576 2.8059 48.974 12.942 68.052 28.254l28.367-28.367c-26.505-22.409-59.852-36.958-96.422-40.023z"/><path d="m153.34 340.55c-15.312-19.076-25.445-42.479-28.251-68.052h-40.136c3.0654 36.567 17.614 69.909 40.019 96.422z"/><path d="m241.9 389.31c-25.573-2.8059-48.971-12.942-68.048-28.254l-28.367 28.367c26.505 22.409 59.852 36.954 96.412 40.023z"/><path d="m124.46 243.51c2.8059-25.576 12.939-48.974 28.254-68.052l-28.371-28.367c-22.406 26.505-36.954 59.852-40.019 96.422z"/></g></g></svg>
