<?xml version="1.0" encoding="UTF-8"?>
<svg class="" width="512" height="512" enable-background="new 0 0 512 512" version="1.1" viewBox="0 0 512 512" xml:space="preserve" xmlns="http://www.w3.org/2000/svg">


<g><circle class="" cx="256" cy="256" r="256" fill="#1fa032" data-original="#28384c"/><path class="" d="m459.03 291.31c-19.421 0-35.31-15.89-35.31-35.31s15.89-35.31 35.31-35.31h5.844c-14.892-88.7-84.868-158.68-173.57-173.57v5.844c0 19.421-15.89 35.31-35.31 35.31s-35.31-15.89-35.31-35.31v-5.844c-88.7 14.892-158.68 84.868-173.57 173.57h5.844c19.421 0 35.31 15.89 35.31 35.31s-15.89 35.31-35.31 35.31h-5.844c14.892 88.7 84.868 158.68 173.57 173.57v-5.844c0-19.421 15.89-35.31 35.31-35.31s35.31 15.89 35.31 35.31v5.844c88.7-14.892 158.68-84.868 173.57-173.57h-5.844z" fill="#b6f7ab" data-original="#41566d"/><g fill="#1fa032">
	<path class="" d="m185.38 132.41h-35.31c-4.873 0-8.828-3.955-8.828-8.828s3.955-8.828 8.828-8.828h35.31c4.873 0 8.828 3.955 8.828 8.828s-3.955 8.828-8.828 8.828z" data-original="#5e778e"/>
	<path class="" d="m273.66 132.41h-35.31c-4.873 0-8.828-3.955-8.828-8.828s3.955-8.828 8.828-8.828h35.31c4.873 0 8.828 3.955 8.828 8.828s-3.955 8.828-8.828 8.828z" data-original="#5e778e"/>
	<path class="" d="m150.07 194.21c-4.873 0-8.828-3.955-8.828-8.828v-26.483c0-4.873 3.955-8.828 8.828-8.828s8.828 3.955 8.828 8.828v26.483c0 4.873-3.955 8.828-8.828 8.828z" data-original="#5e778e"/>
	<path class="" d="m185.38 194.21c-4.873 0-8.828-3.955-8.828-8.828v-26.483c0-4.873 3.955-8.828 8.828-8.828s8.828 3.955 8.828 8.828v26.483c0 4.873-3.955 8.828-8.828 8.828z" data-original="#5e778e"/>
	<path class="" d="m185.38 247.17h-35.31c-4.873 0-8.828-3.955-8.828-8.828s3.955-8.828 8.828-8.828h35.31c4.873 0 8.828 3.955 8.828 8.828 0 4.874-3.955 8.828-8.828 8.828z" data-original="#5e778e"/>
	<path class="" d="m185.38 282.48h-35.31c-4.873 0-8.828-3.955-8.828-8.828s3.955-8.828 8.828-8.828h35.31c4.873 0 8.828 3.955 8.828 8.828s-3.955 8.828-8.828 8.828z" data-original="#5e778e"/>
	<path class="" d="m238.34 194.21c-4.873 0-8.828-3.955-8.828-8.828v-26.483c0-4.873 3.955-8.828 8.828-8.828s8.828 3.955 8.828 8.828v26.483c-1e-3 4.873-3.955 8.828-8.828 8.828z" data-original="#5e778e"/>
	<path class="" d="m273.66 194.21c-4.873 0-8.828-3.955-8.828-8.828v-26.483c0-4.873 3.955-8.828 8.828-8.828s8.828 3.955 8.828 8.828v26.483c0 4.873-3.955 8.828-8.828 8.828z" data-original="#5e778e"/>
	<path class="" d="m273.66 247.17h-35.31c-4.873 0-8.828-3.955-8.828-8.828s3.955-8.828 8.828-8.828h35.31c4.873 0 8.828 3.955 8.828 8.828 0 4.874-3.955 8.828-8.828 8.828z" data-original="#5e778e"/>
	<path class="" d="m273.66 282.48h-35.31c-4.873 0-8.828-3.955-8.828-8.828s3.955-8.828 8.828-8.828h35.31c4.873 0 8.828 3.955 8.828 8.828s-3.955 8.828-8.828 8.828z" data-original="#5e778e"/>
	<path class="" d="m150.07 361.93c-4.873 0-8.828-3.955-8.828-8.828v-26.483c0-4.873 3.955-8.828 8.828-8.828s8.828 3.955 8.828 8.828v26.483c0 4.873-3.955 8.828-8.828 8.828z" data-original="#5e778e"/>
	<path class="" d="m185.38 361.93c-4.873 0-8.828-3.955-8.828-8.828v-26.483c0-4.873 3.955-8.828 8.828-8.828s8.828 3.955 8.828 8.828v26.483c0 4.873-3.955 8.828-8.828 8.828z" data-original="#5e778e"/>
	<path class="" d="m238.34 361.93c-4.873 0-8.828-3.955-8.828-8.828v-26.483c0-4.873 3.955-8.828 8.828-8.828s8.828 3.955 8.828 8.828v26.483c-1e-3 4.873-3.955 8.828-8.828 8.828z" data-original="#5e778e"/>
	<path class="" d="m273.66 361.93c-4.873 0-8.828-3.955-8.828-8.828v-26.483c0-4.873 3.955-8.828 8.828-8.828s8.828 3.955 8.828 8.828v26.483c0 4.873-3.955 8.828-8.828 8.828z" data-original="#5e778e"/>
	<path class="" d="m361.93 132.41h-35.31c-4.873 0-8.828-3.955-8.828-8.828s3.955-8.828 8.828-8.828h35.31c4.873 0 8.828 3.955 8.828 8.828s-3.955 8.828-8.828 8.828z" data-original="#5e778e"/>
	<path class="" d="m185.38 397.24h-35.31c-4.873 0-8.828-3.955-8.828-8.828s3.955-8.828 8.828-8.828h35.31c4.873 0 8.828 3.955 8.828 8.828s-3.955 8.828-8.828 8.828z" data-original="#5e778e"/>
	<path class="" d="m273.66 397.24h-35.31c-4.873 0-8.828-3.955-8.828-8.828s3.955-8.828 8.828-8.828h35.31c4.873 0 8.828 3.955 8.828 8.828s-3.955 8.828-8.828 8.828z" data-original="#5e778e"/>
	<path class="" d="m361.93 397.24h-35.31c-4.873 0-8.828-3.955-8.828-8.828s3.955-8.828 8.828-8.828h35.31c4.873 0 8.828 3.955 8.828 8.828s-3.955 8.828-8.828 8.828z" data-original="#5e778e"/>
	<path class="" d="m326.62 194.21c-4.873 0-8.828-3.955-8.828-8.828v-26.483c0-4.873 3.955-8.828 8.828-8.828s8.828 3.955 8.828 8.828v26.483c-1e-3 4.873-3.956 8.828-8.828 8.828z" data-original="#5e778e"/>
	<path class="" d="m361.93 194.21c-4.873 0-8.828-3.955-8.828-8.828v-26.483c0-4.873 3.955-8.828 8.828-8.828s8.828 3.955 8.828 8.828v26.483c0 4.873-3.955 8.828-8.828 8.828z" data-original="#5e778e"/>
	<path class="" d="m361.93 247.17h-35.31c-4.873 0-8.828-3.955-8.828-8.828s3.955-8.828 8.828-8.828h35.31c4.873 0 8.828 3.955 8.828 8.828 0 4.874-3.955 8.828-8.828 8.828z" data-original="#5e778e"/>
	<path class="" d="m361.93 282.48h-35.31c-4.873 0-8.828-3.955-8.828-8.828s3.955-8.828 8.828-8.828h35.31c4.873 0 8.828 3.955 8.828 8.828s-3.955 8.828-8.828 8.828z" data-original="#5e778e"/>
	<path class="" d="m326.62 361.93c-4.873 0-8.828-3.955-8.828-8.828v-26.483c0-4.873 3.955-8.828 8.828-8.828s8.828 3.955 8.828 8.828v26.483c-1e-3 4.873-3.956 8.828-8.828 8.828z" data-original="#5e778e"/>
	<path class="" d="m361.93 361.93c-4.873 0-8.828-3.955-8.828-8.828v-26.483c0-4.873 3.955-8.828 8.828-8.828s8.828 3.955 8.828 8.828v26.483c0 4.873-3.955 8.828-8.828 8.828z" data-original="#5e778e"/>
</g></g>















</svg>
