<svg xmlns="http://www.w3.org/2000/svg" version="1.1" xmlns:xlink="http://www.w3.org/1999/xlink" width="512" height="512" x="0" y="0" viewBox="0 0 128 128" style="enable-background:new 0 0 512 512" xml:space="preserve" class=""><g><path fill="#f9ba48" d="M88.591 75.811c9.738-7.403 16.019-19.102 16.019-32.272C104.61 21.144 86.443 3 64.072 3 41.677 3 23.533 21.144 23.533 43.539c0 13.17 6.282 24.893 16.019 32.296z" opacity="1" data-original="#808285" class=""></path><path d="M89.348 77.106c8.802-6.755 14.813-16.64 16.34-27.677 1.393-10.068-.865-20.479-6.482-28.973-5.387-8.147-13.54-14.287-22.888-17.142C66.753.393 56.305 1.066 47.153 5.053 38.367 8.88 30.994 15.849 26.642 24.384c-4.743 9.3-5.877 20.242-3.111 30.316 1.459 5.315 3.986 10.301 7.365 14.65a41.54 41.54 0 0 0 5.305 5.667c.963.85 2.205 2.264 3.552 2.317 4.206.167 8.454-.004 12.662-.006l35.433-.017h.744c1.93-.001 1.934-3.001 0-3l-29.353.014-16.61.008c-.943 0-2.131.199-3.06.001.987.21.098-.302-.118-.479a40.86 40.86 0 0 1-4.042-3.801 38.797 38.797 0 0 1-4.68-6.193c-5.369-8.802-7.039-19.604-4.583-29.618 2.168-8.84 7.476-16.84 14.845-22.205A39.444 39.444 0 0 1 67.222 4.62c9.183.71 17.943 4.808 24.449 11.311 6.506 6.504 10.613 15.269 11.32 24.454.808 10.501-2.63 21.066-9.633 28.962a39.84 39.84 0 0 1-5.522 5.168c-.647.497-.975 1.285-.538 2.052.36.637 1.409 1.031 2.05.539z" fill="#306ec8" opacity="1" data-original="#000000" class=""></path><path fill="#f9ba48" d="M39.552 66.4a33.433 33.433 0 0 1-9.014-22.861c0-18.495 15.039-33.533 33.533-33.533s33.533 15.039 33.533 33.533A33.433 33.433 0 0 1 88.59 66.4z" opacity="1" data-original="#6d6e71" class=""></path><path d="M40.613 65.339c-7.256-7.864-10.224-19.022-7.656-29.436 2.183-8.852 8.16-16.449 16.208-20.717 8.249-4.374 18.197-4.824 26.856-1.381 8.318 3.308 15.087 10.31 18.139 18.72 4.084 11.256 1.487 24.018-6.63 32.814l1.061-.439H39.552c-1.93 0-1.934 3 0 3h46.972c.674 0 1.395.073 2.067 0 1.165-.127 1.909-1.355 2.596-2.203a37.501 37.501 0 0 0 2.303-3.146c1.29-1.983 2.352-4.1 3.221-6.299 1.805-4.569 2.603-9.565 2.349-14.47a35.273 35.273 0 0 0-9.652-22.42C77.657 7.029 57.949 4.984 44.002 14.842c-6.73 4.756-11.713 11.787-13.812 19.773-2.413 9.178-.947 19.197 4.044 27.275a36.6 36.6 0 0 0 4.258 5.571c1.312 1.422 3.429-.704 2.121-2.122z" fill="#306ec8" opacity="1" data-original="#000000" class=""></path><path fill="#4b9caf" d="M97.422 47.048a33.378 33.378 0 0 1-8.835 19.353H39.551a33.464 33.464 0 0 1-8.845-19.55c21.773-8.422 44.805-8.382 66.716.197z" opacity="1" data-original="#4b9caf" class=""></path><path d="M95.922 47.048c-.756 6.832-3.736 13.252-8.396 18.292l1.061-.439H39.551l1.061.439c-4.695-5.096-7.685-11.587-8.406-18.489l-1.101 1.446c16.365-6.284 34.177-7.943 51.347-4.22 4.969 1.077 9.834 2.575 14.572 4.417 1.8.7 2.58-2.2.798-2.893-16.791-6.528-35.126-8.26-52.788-4.567-5.021 1.05-9.939 2.532-14.726 4.371-.568.218-1.173.758-1.101 1.446.58 5.55 2.354 10.904 5.388 15.605a37.577 37.577 0 0 0 2.211 3.051c.707.885 1.535 2.268 2.748 2.394.231.024.477 0 .708 0h46.815c.461 0 .93.024 1.391 0 1.647-.085 3.034-2.553 3.932-3.773 3.686-5.003 5.842-10.925 6.523-17.08.211-1.916-2.791-1.901-3.001 0z" fill="#306ec8" opacity="1" data-original="#000000" class=""></path><path fill="#59b6d3" d="M94.618 45.946c-1.22.699-6.149 3.945-6.031 10.409v56.533c-.276.02-.561.02-.856.02-12.013 0-12.013-5.923-24.026-5.923-12.003 0-12.003 5.923-24.006 5.923h-.148V56.355c.108-6.513-4.919-9.78-6.1-10.459 20.327-7.398 40.722-7.408 61.167.05z" opacity="1" data-original="#59b6d3" class=""></path><path d="M93.861 44.651c-2.6 1.508-4.721 3.899-5.851 6.683-.762 1.877-.923 3.829-.923 5.827V112.889l1.5-1.5c-3.543.145-7.072-.398-10.309-1.871-2.632-1.198-5.143-2.612-7.976-3.305-3.857-.944-8.049-.975-11.947-.264-2.969.541-5.61 1.841-8.303 3.141-3.35 1.617-6.78 2.319-10.502 2.319l1.5 1.5V57.808c0-1.758.004-3.502-.488-5.215-.96-3.346-3.357-6.247-6.355-7.991l-.358 2.742c15.095-5.452 31.265-7.011 47.033-3.758 4.535.935 8.984 2.232 13.337 3.808 1.818.658 2.602-2.24.798-2.893-15.469-5.6-32.054-7.152-48.222-3.922-4.675.934-9.26 2.254-13.742 3.873-1.174.424-1.536 2.056-.358 2.742 2.38 1.384 4.302 3.674 5.022 6.357.355 1.323.335 2.658.335 4.01v55.349c0 .811.687 1.5 1.5 1.5 3.481 0 6.885-.511 10.104-1.863 2.574-1.082 4.966-2.54 7.674-3.288 3.675-1.016 7.844-1.085 11.568-.291 2.827.603 5.265 1.957 7.867 3.142 3.729 1.698 7.722 2.448 11.823 2.281.81-.033 1.5-.66 1.5-1.5V58.47c0-1.02-.041-2.057.022-3.075.208-3.411 2.367-6.469 5.267-8.151 1.668-.971.159-3.565-1.516-2.593z" fill="#306ec8" opacity="1" data-original="#000000" class=""></path><path d="M126.965 109.808c-1.683-.701-3.274-1.605-4.949-2.326a23.716 23.716 0 0 0-6.504-1.771c-4.791-.596-9.702-.111-14.145 1.814-3.464 1.501-6.569 3.298-10.407 3.72-4.662.512-9.246-.071-13.478-2.103-3.687-1.77-7.153-3.238-11.292-3.564-4.69-.369-9.282.293-13.558 2.26-1.566.72-3.077 1.57-4.69 2.184-2.106.802-4.305 1.227-6.552 1.343-4.514.232-8.58-.571-12.618-2.55-1.835-.899-3.675-1.797-5.643-2.372-2.708-.79-5.58-1.02-8.39-.946-2.731.072-5.475.484-8.04 1.449-2.072.779-4.003 1.859-6.022 2.756-1.761.782-.237 3.368 1.514 2.59 1.693-.752 3.313-1.673 5.038-2.35 2.125-.835 4.354-1.282 6.63-1.409 4.551-.254 8.659.55 12.731 2.544 3.754 1.838 7.392 3.109 11.615 3.297 4.572.204 8.894-.574 13.024-2.533 1.571-.745 3.1-1.578 4.744-2.157 2.083-.734 4.247-1.09 6.45-1.174 4.483-.172 8.431.714 12.428 2.677 3.802 1.867 7.525 3.068 11.802 3.203 4.536.143 8.755-.697 12.836-2.657 1.749-.84 3.455-1.741 5.317-2.313 2.683-.825 5.498-1.022 8.292-.908 2.585.106 5.118.599 7.508 1.605 1.885.793 3.672 1.797 5.561 2.584 1.781.741 2.557-2.161.798-2.893zM126.965 121.901c-1.683-.701-3.274-1.605-4.949-2.326a23.716 23.716 0 0 0-6.504-1.771c-4.791-.596-9.702-.111-14.145 1.814-3.464 1.501-6.569 3.298-10.407 3.72-4.662.512-9.246-.071-13.478-2.103-3.687-1.77-7.153-3.238-11.292-3.564-4.69-.369-9.282.293-13.558 2.26-1.566.72-3.077 1.57-4.69 2.184-2.106.802-4.305 1.227-6.552 1.343-4.514.232-8.58-.571-12.618-2.55-1.835-.899-3.675-1.797-5.643-2.372-2.708-.79-5.58-1.02-8.39-.946-2.731.072-5.475.484-8.04 1.449-2.072.779-4.003 1.859-6.022 2.756-1.761.782-.237 3.368 1.514 2.59 1.693-.752 3.313-1.673 5.038-2.35 2.125-.835 4.354-1.282 6.63-1.409 4.551-.254 8.659.55 12.731 2.544 3.754 1.838 7.392 3.109 11.615 3.297 4.572.204 8.894-.574 13.024-2.533 1.571-.745 3.1-1.578 4.744-2.157 2.083-.734 4.247-1.09 6.45-1.174 4.483-.172 8.431.714 12.428 2.677 3.802 1.867 7.525 3.068 11.802 3.203 4.536.143 8.755-.697 12.836-2.657 1.749-.84 3.455-1.741 5.317-2.313 2.683-.825 5.498-1.022 8.292-.908 2.585.106 5.118.599 7.508 1.605 1.885.793 3.672 1.797 5.561 2.584 1.781.741 2.557-2.161.798-2.893zM76.83 59.865v3.628c0 .385.167.789.439 1.061.26.26.687.456 1.061.439.813-.036 1.5-.659 1.5-1.5v-3.628c0-.385-.167-.789-.439-1.061-.26-.26-.687-.456-1.061-.439-.813.036-1.5.659-1.5 1.5zM76.83 75.398v23.623c0 1.93 3 1.934 3 0V75.398c0-1.93-3-1.934-3 0zM47.807 59.865v3.628c0 .385.167.789.439 1.061.26.26.687.456 1.061.439.813-.036 1.5-.659 1.5-1.5v-3.628c0-.385-.167-.789-.439-1.061-.26-.26-.687-.456-1.061-.439-.813.036-1.5.659-1.5 1.5zM47.807 75.398v23.623c0 1.93 3 1.934 3 0V75.398c0-1.93-3-1.934-3 0zM62.572 58.864v29.898c0 1.93 3 1.934 3 0V58.864c0-1.93-3-1.933-3 0z" fill="#306ec8" opacity="1" data-original="#000000" class=""></path></g></svg>