<svg xmlns="http://www.w3.org/2000/svg" version="1.1" xmlns:xlink="http://www.w3.org/1999/xlink" width="512" height="512" x="0" y="0" viewBox="0 0 128 128" style="enable-background:new 0 0 512 512" xml:space="preserve" class=""><g><path d="M64.068 12.316c-17.43 0-31.621 14.123-31.728 31.533 10.241-3.726 20.814-5.618 31.436-5.618 10.807 0 21.565 1.951 32.021 5.803-.01-17.497-14.231-31.718-31.729-31.718z" fill="#306ec8" opacity="1" data-original="#000000" class=""></path><path d="M37.227 74.387V64.38a33.446 33.446 0 0 1-6.642-16.747 31.226 31.226 0 0 1-.185-3.024c-.01-.185-.01-.38-.01-.566 0-18.571 15.108-33.679 33.679-33.679s33.679 15.108 33.679 33.679c0 .215 0 .429-.019.644-.01.995-.068 1.98-.176 2.955a33.412 33.412 0 0 1-6.642 16.737v9.997c8.729-7.686 13.674-18.59 13.674-30.333 0-22.345-18.171-40.516-40.516-40.516-22.336 0-40.516 18.171-40.516 40.516-.001 11.764 4.954 22.668 13.674 30.344z" fill="#306ec8" opacity="1" data-original="#000000" class=""></path><path d="M37.227 56.548c.078-4.808-3.716-7.237-4.477-7.666l-.039-.02a31.483 31.483 0 0 0 4.516 12.094zM90.91 56.49v4.457a31.437 31.437 0 0 0 4.516-12.085l-.098.059c-.76.439-4.506 2.809-4.418 7.569z" fill="#306ec8" opacity="1" data-original="#000000" class=""></path><path d="M3.367 110.732a53.598 53.598 0 0 0 2.203-1.044c2.908-1.433 5.656-2.787 11.287-2.787 5.632 0 8.379 1.354 11.287 2.787 2.793 1.376 5.675 2.797 11.033 2.97v.021h1.122c3.784 0 6.406-.59 8.565-1.391 1.31-.484 2.449-1.046 3.574-1.601 1.462-.721 2.883-1.421 4.65-1.94 1.748-.51 3.833-.843 6.629-.843 3.654 0 6.089.569 8.147 1.359 1.112.428 2.115.92 3.135 1.423a50.01 50.01 0 0 0 2.439 1.145c2.379 1.022 5.229 1.846 9.706 1.846.19 0 .37-.007.553-.012 5.714-.09 8.704-1.556 11.59-2.98 2.906-1.433 5.651-2.787 11.278-2.787 5.626 0 8.37 1.353 11.276 2.787.89.439 1.81.892 2.813 1.303a.976.976 0 1 0 .74-1.805c-.94-.385-1.79-.804-2.689-1.248-2.978-1.469-6.058-2.988-12.139-2.988-6.083 0-9.162 1.519-12.141 2.988-2.575 1.27-5.027 2.475-9.466 2.734v-54.14c-.107-5.842 4.467-8.768 5.394-9.295l1.814-1.044-1.97-.712c-20.034-7.315-40.331-7.325-60.325-.049l-1.97.712 1.814 1.044c.936.536 5.56 3.501 5.462 9.363v54.158c-4.89-.168-7.462-1.432-10.17-2.767-2.981-1.469-6.064-2.988-12.15-2.988s-9.169 1.519-12.15 2.988c-.694.342-1.389.685-2.123 1.007-.493.217-.718.792-.502 1.285s.789.718 1.284.501zM77 59.967a.974.974 0 1 1 1.95 0v3.539a.974.974 0 1 1-1.95 0zm0 15.15a.974.974 0 1 1 1.95 0v23.041a.974.974 0 1 1-1.95 0zM63.094 58.991a.974.974 0 1 1 1.95 0v29.161a.974.974 0 1 1-1.95 0zm-14.401.976a.974.974 0 1 1 1.95 0v3.539a.974.974 0 1 1-1.95 0zm0 15.15a.974.974 0 1 1 1.95 0v23.041a.974.974 0 1 1-1.95 0zM125.394 120.982c-.94-.385-1.79-.804-2.689-1.248-2.978-1.469-6.058-2.988-12.139-2.988-6.083 0-9.162 1.519-12.141 2.988-2.906 1.433-5.651 2.787-11.279 2.787-5.63 0-8.376-1.354-11.283-2.787-2.98-1.469-6.061-2.988-12.145-2.988-6.083 0-9.163 1.519-12.142 2.988-2.906 1.433-5.651 2.787-11.279 2.787-5.633 0-8.38-1.354-11.288-2.787-2.981-1.469-6.064-2.988-12.15-2.988s-9.169 1.519-12.15 2.988c-.694.342-1.389.685-2.123 1.007a.976.976 0 0 0 .783 1.787 53.598 53.598 0 0 0 2.203-1.044c2.908-1.433 5.656-2.787 11.287-2.787 5.632 0 8.379 1.354 11.287 2.787 2.981 1.469 6.064 2.988 12.151 2.988 6.083 0 9.163-1.519 12.142-2.988 2.906-1.433 5.651-2.787 11.279-2.787 5.629 0 8.375 1.354 11.282 2.787 2.98 1.469 6.062 2.988 12.146 2.988 6.083 0 9.163-1.519 12.142-2.988 2.906-1.433 5.651-2.787 11.278-2.787 5.626 0 8.37 1.353 11.276 2.787.89.439 1.81.892 2.813 1.303a.977.977 0 0 0 1.273-.532.977.977 0 0 0-.534-1.273z" fill="#306ec8" opacity="1" data-original="#000000" class=""></path></g></svg>