<?xml version="1.0" encoding="UTF-8"?>
<svg class="" width="512" height="512" enable-background="new 0 0 512 512" version="1.1" viewBox="0 0 256 256" xml:space="preserve" xmlns="http://www.w3.org/2000/svg"><path d="m41.169 116.06h173.66v133.48h-173.66z" fill="#5fcdff" data-original="#5fcdff"/><path class="" d="m128 56.642-86.827 59.416h173.65c-85.224-61.48-71.485-52.643-86.826-59.416z" fill="#87828e" data-original="#87828e"/><path class="" d="m41.173 116.06h17.383v133.48h-17.383z" fill="#73d7f9" data-original="#73d7f9"/><path d="m139.51 61.725c-14.845 10.164-.511.353-79.38 54.33h-18.96c89.156-60.998 74.639-51.064 86.83-59.41z" fill="#a4a4a5" data-original="#a4a4a5"/><path d="m196.56 116.06h18.27v133.48h-18.27z" fill="#30b6ff" data-original="#30b6ff"/><path d="m214.83 116.06h-20.15c-14.72-10.33-60.164-42.224-75.78-53.18l9.1-6.23c15.346 6.773 1.602-2.067 86.83 59.41z" fill="#796e84" data-original="#796e84"/><circle class="" cx="127.9" cy="49.42" r="42.955" fill="#bce3fb" data-original="#ffefee"/><path class="" d="m153.56 249.54h-51.333v-70.737c0-14.175 11.491-25.667 25.667-25.667 14.175 0 25.667 11.491 25.667 25.667v70.737z" fill="#87828e" data-original="#87828e"/><path d="m135.39 154.245c-10.52 3.21-18.17 12.99-18.17 24.55v70.74h-15v-70.74c0-14.17 11.49-25.66 25.67-25.66 2.61 0 5.13.39 7.5 1.11z" fill="#a4a4a5" data-original="#a4a4a5"/><path d="m127.89 24.894-13.989 24.444c-6.035 10.546 1.033 24.043 13.172 24.59 13.277.598 21.05-13.681 14.806-24.59z" fill="#5fcdff" data-original="#5fcdff"/><g fill="#21b72e"><path class="" d="m165.53 77.475c5.85-7.83 9.32-17.55 9.32-28.05 0-25.9-21.06-46.96-46.95-46.96s-46.96 21.06-46.96 46.96c0 10.55 3.5 20.29 9.39 28.14-.012.008-51.449 35.21-51.46 35.22-.973.673-1.7 1.864-1.7 3.27v133.48c0 2.21 1.79 4 4 4h173.66c2.21 0 4-1.79 4-4v-133.48c0-2.946.833-1.539-53.3-38.58zm-76.59-28.05c0-21.48 17.48-38.96 38.96-38.96 32.24 0 50.38 37.095 31.02 62.48-22.487 29.798-69.98 13.507-69.98-23.52zm6.77 34.15c8.41 7.93 19.74 12.8 32.19 12.8 12.49 0 23.85-4.9 32.26-12.88l41.74 28.56h-147.8zm53.85 161.96h-43.34v-66.74c0-11.94 9.72-21.66 21.67-21.66s21.67 9.72 21.67 21.66zm61.27 0h-53.27v-66.74c0-16.35-13.31-29.66-29.67-29.66s-29.67 13.31-29.67 29.66v66.74h-53.05v-125.48h165.66z" data-original="#5f266d"/><path class="" d="m196.56 172.8c2.21 0 4-1.79 4-4v-3.66c0-2.21-1.79-4-4-4s-4 1.79-4 4v3.66c0 2.21 1.79 4 4 4z" data-original="#5f266d"/><path class="" d="m196.56 154.14c2.21 0 4-1.79 4-4v-15c0-2.21-1.79-4-4-4s-4 1.79-4 4v15c0 2.21 1.79 4 4 4z" data-original="#5f266d"/><path class="" d="m128.89 77.925c14.97-.673 24.063-17.278 16.46-30.57l-13.99-24.45c-1.531-2.674-5.407-2.677-6.94 0l-13.99 24.45c-7.583 13.27 1.394 31.088 18.46 30.57zm-11.52-26.6 10.52-18.38 10.52 18.38c1.51 2.65 1.99 5.67 1.44 8.57v.01c-2.608 13.458-21.376 13.213-23.89.12-.6-2.94-.13-6.01 1.41-8.7z" data-original="#5f266d"/></g></svg>
