<?xml version="1.0" encoding="UTF-8"?>
<svg width="512" height="512" enable-background="new 0 0 611.328 611.328" version="1.1" viewBox="0 0 611.33 611.33" xmlns="http://www.w3.org/2000/svg">
 <g>
  <circle cx="307.18" cy="306.43" r="217.9" fill="#1fa032" stroke-width="0"/>
  <path d="m305.66 611.33c-168.81 0-305.66-136.85-305.66-305.66s136.85-305.66 305.66-305.66 305.66 136.85 305.66 305.66-136.85 305.66-305.66 305.66zm0-89.902c119.16 0 215.76-96.6 215.76-215.76s-96.6-215.76-215.76-215.76-215.76 96.6-215.76 215.76 96.6 215.76 215.76 215.76zm80.911-55.15c-19.249 9.716-40.483 16.073-62.931 18.302v-357.83c22.448 2.229 43.682 8.586 62.931 18.302zm35.96-297.25c38.52 32.977 62.931 81.959 62.931 136.64s-24.411 103.66-62.931 136.64zm-197.78-23.97c19.249-9.716 40.483-16.073 62.931-18.302v357.83c-22.448-2.229-43.682-8.586-62.931-18.302zm-98.891 160.61c0-54.683 24.411-103.66 62.931-136.64v273.28c-38.52-32.977-62.931-81.959-62.931-136.64z" fill="#b6f7ab"/>
 </g>
</svg>
