<?xml version="1.0" encoding="UTF-8"?>
<svg width="512" height="512" enable-background="new 0 0 510 510" version="1.1" viewBox="0 0 510 510" xmlns="http://www.w3.org/2000/svg">
 <circle cx="254.99" cy="255.88" r="229.1" fill="#f68084" stroke-width="0"/>
 <g fill="#1fa032">
  <path d="m255 0c-140.93 0-255 114.05-255 255 0 140.93 114.05 255 255 255 140.93 0 255-114.05 255-255 0-140.93-114.05-255-255-255zm0 480c-124.06 0-225-100.93-225-225 0-124.06 100.94-225 225-225s225 100.94 225 225c0 124.07-100.94 225-225 225z"/>
  <path d="m150 195c24.813 0 45-20.186 45-45 0-24.812-20.187-45-45-45-24.814 0-45 20.188-45 45 0 24.814 20.186 45 45 45zm0-60c8.271 0 15 6.729 15 15s-6.729 15-15 15c-8.272 0-15-6.729-15-15s6.728-15 15-15z"/>
  <path d="m360 105c-24.814 0-45 20.188-45 45 0 24.814 20.186 45 45 45 24.813 0 45-20.186 45-45 0-24.812-20.187-45-45-45zm0 60c-8.272 0-15-6.729-15-15s6.728-15 15-15c8.271 0 15 6.729 15 15s-6.729 15-15 15z"/>
  <path d="m150 315c-24.814 0-45 20.188-45 45 0 24.814 20.186 45 45 45 24.813 0 45-20.186 45-45 0-24.812-20.187-45-45-45zm0 60c-8.272 0-15-6.728-15-15s6.728-15 15-15c8.271 0 15 6.728 15 15s-6.729 15-15 15z"/>
  <path d="m360 315c-24.814 0-45 20.188-45 45 0 24.814 20.186 45 45 45 24.813 0 45-20.186 45-45 0-24.812-20.187-45-45-45zm0 60c-8.272 0-15-6.728-15-15s6.728-15 15-15c8.271 0 15 6.728 15 15s-6.729 15-15 15z"/>
  <path d="m240 60h30v30h-30z"/>
  <path d="m240 120h30v30h-30z"/>
  <path d="m240 360h30v30h-30z"/>
  <path d="m240 420h30v30h-30z"/>
  <path d="m60 240h30v30h-30z"/>
  <path d="m120 240h30v30h-30z"/>
  <path d="m360 240h30v30h-30z"/>
  <path d="m420 240h30v30h-30z"/>
  <path d="m315 210h-120v90h120zm-30 60h-60v-30h60z"/>
 </g>
</svg>
