<svg clip-rule="evenodd" fill-rule="evenodd" height="512" image-rendering="optimizeQuality" shape-rendering="geometricPrecision" text-rendering="geometricPrecision" viewBox="0 0 2667 2667" width="512" xmlns="http://www.w3.org/2000/svg"><g id="Layer_x0020_1"><circle cx="1333" cy="1333" fill="#1d81ce" r="1333"/><path d="m951 2156c-4 12 3 25 15 29 12 5 25-2 29-14l97-276 532 156 42 120c4 12 17 19 29 14 12-4 19-17 15-29-119-342-238-683-357-1025-8-21-37-21-44 0-119 342-239 683-358 1025zm-45-1636c9-9 9-24 0-33s-24-9-33 0c-60 60-108 131-141 211-32 77-49 161-49 249s17 172 49 249c33 79 81 151 141 211 9 9 24 9 33 0s9-24 0-33c-55-56-100-122-131-196-29-71-46-149-46-231s17-160 46-231c31-74 76-140 131-196zm887-33c-9-9-24-9-33 0s-9 24 0 33c56 56 101 122 132 196 29 71 45 149 45 231s-16 160-45 231c-31 74-76 140-132 196-9 9-9 24 0 33s24 9 33 0c60-60 109-132 142-211 31-77 49-161 49-249s-18-172-49-249c-33-80-82-151-142-211zm-794 126c10-9 10-24 0-33-9-9-23-9-33 0-47 48-86 105-112 169-26 61-40 128-40 198s14 137 40 198c26 64 65 121 112 169 10 9 24 9 33 0 10-9 10-24 0-33-43-44-78-96-102-154-23-55-36-116-36-180s13-125 36-181c24-57 59-109 102-153zm701-33c-9-9-24-9-33 0s-9 24 0 33c44 44 79 96 103 153 23 56 36 117 36 181s-13 125-36 180c-24 58-59 110-103 154-9 9-9 24 0 33s24 9 33 0c48-48 86-105 113-169 25-61 39-128 39-198s-14-137-39-198c-27-64-65-121-113-169zm-577 156c9-9 9-23 0-33-9-9-24-9-33 0-32 32-57 70-75 112-17 41-26 85-26 132 0 46 9 91 26 131 18 43 43 81 75 112 9 9 24 9 33 0s9-24 0-33c-28-27-50-60-65-96-14-35-22-74-22-114 0-41 8-79 22-114 15-36 37-69 65-97zm454-33c-9-9-24-9-33 0-9 10-9 24 0 33 27 28 49 61 64 97 15 35 23 73 23 114 0 40-8 79-23 114-15 36-37 69-64 96-9 9-9 24 0 33s24 9 33 0c31-31 57-69 74-112 17-40 27-85 27-131 0-47-10-91-27-132-17-42-43-80-74-112zm-244 87c87 0 158 70 158 157s-71 157-158 157-157-70-157-157 70-157 157-157zm-221 1046 78-225 294 157zm105-301 114-326 82 238zm212-44 83 239-282-150zm109 314 67 192-428-126z" fill="#fff" fill-rule="nonzero"/></g></svg>