<?xml version="1.0" encoding="UTF-8"?>
<svg class="" width="512" height="512" enable-background="new 0 0 512 512" version="1.1" viewBox="0 0 128 128" xml:space="preserve" xmlns="http://www.w3.org/2000/svg"><g><path class="" d="m104.99 34.808-12.033-11.965-19.344 19.457a13.682 13.682 0 0 1-19.35 0.056l-19.456-19.346-11.964 12.033 19.458 19.345a13.681 13.681 0 0 1 0.056 19.349l-19.347 19.456 12.033 11.965 19.344-19.458a13.683 13.683 0 0 1 19.35-0.056l19.456 19.345 11.964-12.034-19.456-19.342a13.682 13.682 0 0 1-0.056-19.35z" fill="#b72126" data-original="#3c99e2"/><path class="" d="m63.837 7.3a56.7 56.7 0 1 0 56.863 56.537 56.7 56.7 0 0 0-56.863-56.537zm0.288 100.13a43.435 43.435 0 1 1 43.309-43.56 43.488 43.488 0 0 1-43.309 43.563z" fill="#b72126" data-original="#5aaae7"/><circle class="" transform="rotate(-45)" cx="-.0098995" cy="90.5" r="12.271" fill="#f68084" stroke-width=".99985" data-original="#cf3c3c"/></g><path class="" d="m70.18 63.98a6.18 6.18 0 0 1-6.16 6.2h-0.02a6.166 6.166 0 0 1-5.45-3.27 6.018 6.018 0 0 1-0.73-2.89 6.18 6.18 0 0 1 6.16-6.2 6.2 6.2 0 0 1 5.43 3.19 6.079 6.079 0 0 1 0.77 2.97z" fill="#f7f7f7" data-original="#f7f7f7"/><g fill="#f68084"><path class="" d="m69.41 61.01-8.4 8.4a6.23 6.23 0 0 1-2.46-2.5l8.36-8.36a6.294 6.294 0 0 1 2.5 2.46z" stroke-width="1.325" data-original="#cf3c3c"/><g stroke="#f68084"><path d="m39.822 28.004 3.5845 3.6405 8.2893 8.1772 1.7363 1.6803 0.86496 0.87397 0.91089 0.79208 0.91089 0.71287 0.9901 0.67327 1.0297 0.51485 1.0693 0.47525 0.9901 0.31683 0.79208 0.15842 1.2277 0.19802 1.3069 0.11881 1.1881-0.0396 0.9901-0.07921 1.0693-0.15842 1.1881-0.35644 1.2277-0.43564 1.1485-0.51485 0.83168-0.51485 0.9505-0.67327 0.9505-0.75248 0.91089-0.87128 0.87129-0.91089 1.2277-1.2277 1.1881-1.2277 3.6832-3.7228 7.0495-7.0495-1.4653-0.87129-1.5842-0.91089-2.0594-1.0693-2.1782-1.0693-1.4653-0.55446-1.1089-0.35644-1.8218-0.59406-1.6238-0.47525-1.2673-0.31683-1.7426-0.35644-1.5842-0.23762-3.1287-0.31683-1.901-0.07921-1.4257-0.07921-1.1881 0.0396-1.6238 0.15842-1.4653 0.11881-1.703 0.19802-1.7822 0.27723-2.0198 0.47525-1.9802 0.51485-1.9406 0.63366-2.5743 0.9505-1.1485 0.51485-1.5842 0.75248-1.703 0.87129-1.4257 0.75248-1.0693 0.71287z" stroke-width=".125"/><path d="m27.843 88.163 3.6405-3.5845 8.1772-8.2893 1.6803-1.7363 0.87397-0.86496 0.79208-0.91089 0.71287-0.91089 0.67327-0.9901 0.51485-1.0297 0.47525-1.0693 0.31683-0.9901 0.15842-0.79208 0.19802-1.2277 0.11881-1.3069-0.0396-1.1881-0.07921-0.9901-0.15842-1.0693-0.35644-1.1881-0.43564-1.2277-0.51485-1.1485-0.51485-0.83168-0.67327-0.9505-0.75248-0.9505-0.87128-0.91089-0.91089-0.87129-1.2277-1.2277-1.2277-1.1881-3.7228-3.6832-7.0495-7.0495-0.87129 1.4653-0.91089 1.5842-1.0693 2.0594-1.0693 2.1782-0.55446 1.4653-0.35644 1.1089-0.59406 1.8218-0.47525 1.6238-0.31683 1.2673-0.35644 1.7426-0.23762 1.5842-0.31683 3.1287-0.07921 1.901-0.07921 1.4257 0.0396 1.1881 0.15842 1.6238 0.11881 1.4653 0.19802 1.703 0.27723 1.7822 0.47525 2.0198 0.51485 1.9802 0.63366 1.9406 0.9505 2.5743 0.51485 1.1485 0.75248 1.5842 0.87129 1.703 0.75248 1.4257 0.71287 1.0693z" stroke-width=".3"/><path d="m99.996 39.916-3.6405 3.5846-8.1772 8.2892-1.6802 1.7363-0.87397 0.86496-0.79208 0.91089-0.71287 0.9109-0.67327 0.99009-0.51485 1.0297-0.47525 1.0693-0.31683 0.9901-0.15842 0.79208-0.19802 1.2277-0.11881 1.3069 0.0396 1.1881 0.0792 0.9901 0.15842 1.0693 0.35643 1.1881 0.43565 1.2277 0.51485 1.1485 0.51485 0.83168 0.67327 0.9505 0.75247 0.9505 0.87129 0.91089 0.91089 0.87129 1.2277 1.2277 1.2277 1.1881 3.7228 3.6832 7.0495 7.0495 0.87129-1.4653 0.91089-1.5842 1.0693-2.0594 1.0693-2.1782 0.55446-1.4653 0.35643-1.1089 0.59406-1.8218 0.47525-1.6238 0.31683-1.2673 0.35644-1.7426 0.23762-1.5842 0.31683-3.1287 0.0792-1.901 0.0792-1.4257-0.0396-1.1881-0.15841-1.6238-0.11881-1.4654-0.19802-1.703-0.27723-1.7822-0.47525-2.0198-0.51485-1.9802-0.63366-1.9406-0.9505-2.5743-0.51485-1.1485-0.75248-1.5842-0.87128-1.703-0.75248-1.4258-0.71287-1.0693z" stroke-width=".125"/><path d="m88.395 99.89-4.0326-3.5845-8.2893-8.1772-1.7363-1.6803-0.86496-0.87397-0.91089-0.79208-0.91089-0.71287-0.9901-0.67327-1.0297-0.51485-1.0693-0.47525-0.9901-0.31683-0.79208-0.15842-1.2277-0.19802-1.3069-0.11881-1.1881 0.0396-0.9901 0.07921-1.0693 0.15842-1.1881 0.35644-1.2277 0.43564-1.1485 0.51485-0.83168 0.51485-0.9505 0.67327-0.9505 0.75248-0.91089 0.87128-0.87129 0.91089-1.2277 1.2277-1.1881 1.2277-3.6832 3.7228-7.0495 7.0495 1.4653 0.87128 1.5842 0.91089 2.0594 1.0693 2.1782 1.0693 1.4653 0.55445 1.1089 0.35644 1.8218 0.59406 1.6238 0.47525 1.2673 0.31683 1.7426 0.35643 1.5842 0.23763 3.1287 0.31683 1.901 0.0792 1.4257 0.0792 1.1881-0.0396 1.9878-0.13041 1.3533-0.14682 1.5069-0.14201 1.7262-0.33323 1.8798-0.36323 1.9242-0.48685 2.3046-0.74569 2.1822-0.81046 1.3445-0.54286 1.7242-0.78048 1.647-0.87129 1.3697-0.86449 0.98529-0.54484z" stroke-width=".125"/></g><path d="m66.91 58.55-8.36 8.36-0.17518-0.35795-0.21003-0.51808-0.18203-0.57409-0.09801-0.60209-0.07001-0.72811 0.02801-0.6721 0.07001-0.53208 0.12602-0.56008 0.14002-0.49007 0.21003-0.44807 0.22404-0.44807 0.22403-0.37806 0.33605-0.47607 0.28004-0.33605 0.26604-0.25204 0.39206-0.35005 0.47607-0.33605 0.37806-0.22404 0.36406-0.22403 0.49007-0.18203 0.47607-0.16802 0.51808-0.12602 0.53208-0.08401 0.46207-0.02801 0.6301 0.014 0.6581 0.08401 0.40606 0.08401 0.46207 0.15402 0.37806 0.11202 0.30805 0.14002z" stroke="#ed75e7" stroke-width=".125"/><path d="m61.01 69.41 8.4-8.4 0.19119 0.42595 0.19603 0.46207 0.19603 0.71411 0.11201 0.56008 0.074734 0.80778-0.0047 0.59243-0.12602 0.57409-0.12602 0.53208-0.16802 0.53208-0.21003 0.49007-0.16803 0.32205-0.29404 0.42006-0.26604 0.43406-0.32205 0.36406-0.29404 0.28004-0.39206 0.33605-0.40606 0.30804-0.40606 0.22404-0.42006 0.22403-0.54608 0.21003-0.49007 0.12602-0.47607 0.11202-0.49007 0.05601-0.46207 0.02801-0.6301-0.014-0.6581-0.08401-0.40606-0.08401-0.46207-0.15402-0.37806-0.11202-0.30805-0.14002z" stroke="#ed75e7" stroke-width=".15"/></g></svg>
