<svg id="Layer_1" enable-background="new 0 0 24 24" height="512" viewBox="0 0 24 24" width="512" xmlns="http://www.w3.org/2000/svg" xmlns:xlink="http://www.w3.org/1999/xlink"><linearGradient id="SVGID_1_" gradientTransform="matrix(1 0 0 -1 0 26)" gradientUnits="userSpaceOnUse" x1="12" x2="12" y1="25.809" y2="1.809"><stop offset=".00000010656" stop-color="#4dbfff"/><stop offset="1" stop-color="#008ddb"/></linearGradient><circle cx="12" cy="12" fill="url(#SVGID_1_)" r="12"/><path d="m7.5 18.2c-2-1.5-3.1-3.7-3.1-6.2 0-4.2 3.4-7.6 7.6-7.6s7.6 3.4 7.6 7.6c0 2.4-1.1 4.7-3.1 6.2l-.8-1.3c2.7-2.1 3.2-5.9 1.1-8.6s-6-3.2-8.6-1.1-3.1 5.9-1.1 8.6c.3.5.7.8 1.1 1.1.1-.1-.7 1.3-.7 1.3zm1.5-2.7c-1.9-1.6-2.2-4.5-.6-6.5s4.5-2.2 6.5-.6 2.2 4.5.6 6.5c-.2.2-.4.4-.6.6l-.8-1.4c1.2-1.2 1.2-3.1 0-4.4s-3.1-1.2-4.4 0-1.2 3.1 0 4.4c.2 0-.6 1.4-.7 1.4zm2.2-2.7h1.5l.8 6.9h-3.1z" fill="#fff"/></svg>