<?xml version="1.0" encoding="UTF-8" standalone="no"?>
<!-- Created with Inkscape (http://www.inkscape.org/) -->

<svg
   version="1.1"
   id="svg2"
   width="193.33333"
   height="192"
   viewBox="0 0 193.33333 192"
   sodipodi:docname="P-130-1(12).eps"
   xmlns:inkscape="http://www.inkscape.org/namespaces/inkscape"
   xmlns:sodipodi="http://sodipodi.sourceforge.net/DTD/sodipodi-0.dtd"
   xmlns="http://www.w3.org/2000/svg"
   xmlns:svg="http://www.w3.org/2000/svg">
  <defs
     id="defs6" />
  <sodipodi:namedview
     id="namedview4"
     pagecolor="#ffffff"
     bordercolor="#000000"
     borderopacity="0.25"
     inkscape:showpageshadow="2"
     inkscape:pageopacity="0.0"
     inkscape:pagecheckerboard="0"
     inkscape:deskcolor="#d1d1d1" />
  <g
     id="g8"
     inkscape:groupmode="layer"
     inkscape:label="ink_ext_XXXXXX"
     transform="matrix(1.3333333,0,0,-1.3333333,0,192)">
    <g
       id="g10"
       transform="scale(0.1)">
      <path
         d="M 9.34375,118.914 V 1319.93 c 0,64.31 52.12105,116.55 116.50025,116.55 H 1326.86 c 64.31,0 116.55,-52.24 116.55,-116.55 V 118.914 C 1443.41,54.5352 1391.17,2.41406 1326.86,2.41406 H 125.844 C 61.4648,2.41406 9.34375,54.5352 9.34375,118.914"
         style="fill:#ffffff;fill-opacity:1;fill-rule:evenodd;stroke:none"
         id="path12" />
      <path
         d="M 9.34375,118.914 V 1319.93 c 0,64.31 52.12105,116.55 116.50025,116.55 H 1326.86 c 64.31,0 116.55,-52.24 116.55,-116.55 V 118.914 C 1443.41,54.5352 1391.17,2.41406 1326.86,2.41406 H 125.844 C 61.4648,2.41406 9.34375,54.5352 9.34375,118.914 Z"
         style="fill:none;stroke:#231f20;stroke-width:2.16;stroke-linecap:butt;stroke-linejoin:miter;stroke-miterlimit:2.6131;stroke-dasharray:none;stroke-opacity:1"
         id="path14" />
      <path
         d="m 29.4023,120.414 c 0,-53.332 43.1719,-96.4999 96.4997,-96.4999 H 1326.86 c 53.26,0 96.43,43.1679 96.43,96.4999 V 1321.37 c 0,53.26 -43.17,96.43 -96.43,96.43 H 125.902 c -53.3278,0 -96.4997,-43.17 -96.4997,-96.43 V 120.414"
         style="fill:#231f20;fill-opacity:1;fill-rule:evenodd;stroke:none"
         id="path16" />
      <path
         d="M 64.8945,120.414 V 1321.37 c 0,33.62 27.3203,60.94 61.0075,60.94 H 1326.86 c 33.62,0 60.94,-27.32 60.94,-60.94 V 120.414 c 0,-33.6874 -27.32,-61.0077 -60.94,-61.0077 H 125.902 c -33.6872,0 -61.0075,27.3203 -61.0075,61.0077"
         style="fill:#ffffff;fill-opacity:1;fill-rule:evenodd;stroke:none"
         id="path18" />
      <path
         d="m 1170.25,1163.32 c -244.68,244.61 -641.336,244.61 -886.016,0 -244.6129,-244.679 -244.6129,-641.336 0,-886.015 244.68,-244.6097 641.336,-244.6097 886.016,0 244.61,244.679 244.61,641.336 0,886.015"
         style="fill:#ef2c30;fill-opacity:1;fill-rule:evenodd;stroke:none"
         id="path20" />
      <path
         d="m 1078.28,1071.35 c 183.99,-183.987 193.42,-476.534 28.1,-671.635 L 406.645,1099.45 c 195.039,165.26 487.585,155.89 671.635,-28.1"
         style="fill:#ffffff;fill-opacity:1;fill-rule:evenodd;stroke:none"
         id="path22" />
      <path
         d="M 1047.44,341.074 C 852.34,175.766 559.73,185.074 375.742,369.125 191.691,553.102 182.332,845.781 347.703,1040.81 L 1047.44,341.074"
         style="fill:#ffffff;fill-opacity:1;fill-rule:evenodd;stroke:none"
         id="path24" />
      <path
         d="m 890.621,615.504 c 16.109,20.293 40.942,33.293 68.879,33.242 48.03,-0.051 86.88,-38.75 87.44,-86.781 l 61.9,-0.051 -0.05,387.547 -529.235,0.051 V 926.523 L 890.621,615.504"
         style="fill:#231f20;fill-opacity:1;fill-rule:evenodd;stroke:none"
         id="path26" />
      <path
         d="M 553.934,750.242 H 452.875 c -3.672,0 -7.133,1.688 -9.379,4.59 -2.242,2.859 -3.062,6.531 -2.242,10.051 l 18.711,80.707 c 0.558,1.941 1.738,3.621 3.32,4.89 1.578,1.282 3.559,2.043 5.598,2.153 l 67.199,0.301 -23.25,23.25 -45.066,-0.36 c -7.293,-0.203 -14.274,-2.902 -19.832,-7.64 -5,-4.293 -8.571,-10.051 -10.153,-16.422 l -20.187,-86.93 c -0.922,-4.18 -3.211,-7.961 -6.582,-10.609 -3.559,-2.852 -8.047,-4.231 -12.59,-3.981 l -56.34,-0.398 c -3.008,0.097 -5.957,-1.074 -8.109,-3.223 -2.141,-2.141 -3.309,-5.09 -3.157,-8.148 l -0.05,-143.168 -16.825,-0.063 -0.046,-35.379 h 31.097 c -0.558,48.543 38.594,88.211 87.133,88.364 48.539,0.148 87.961,-37.993 87.648,-86.786 l 307.747,0.051 -273.536,273.539 -0.05,-84.789"
         style="fill:#231f20;fill-opacity:1;fill-rule:evenodd;stroke:none"
         id="path28" />
      <path
         d="m 432.043,632.605 c -39.02,0 -70.691,-31.73 -70.691,-70.691 0,-39.019 31.671,-70.758 70.691,-70.758 39.02,0 70.762,31.739 70.762,70.758 0,38.961 -31.742,70.691 -70.762,70.691"
         style="fill:#231f20;fill-opacity:1;fill-rule:evenodd;stroke:none"
         id="path30" />
      <path
         d="m 959.078,632.605 c -23.316,0 -44.058,-11.332 -56.976,-28.82 l 98.848,-98.851 c 17.49,12.921 28.82,33.664 28.82,56.98 0,38.961 -31.727,70.691 -70.692,70.691"
         style="fill:#231f20;fill-opacity:1;fill-rule:evenodd;stroke:none"
         id="path32" />
    </g>
  </g>
</svg>
