<?xml version="1.0" encoding="UTF-8" standalone="no"?>
<!-- Created with Inkscape (http://www.inkscape.org/) -->

<svg
   version="1.1"
   id="svg2"
   width="192"
   height="192"
   viewBox="0 0 192 192"
   sodipodi:docname="P-130-27(37).eps"
   xmlns:inkscape="http://www.inkscape.org/namespaces/inkscape"
   xmlns:sodipodi="http://sodipodi.sourceforge.net/DTD/sodipodi-0.dtd"
   xmlns="http://www.w3.org/2000/svg"
   xmlns:svg="http://www.w3.org/2000/svg">
  <defs
     id="defs6" />
  <sodipodi:namedview
     id="namedview4"
     pagecolor="#ffffff"
     bordercolor="#000000"
     borderopacity="0.25"
     inkscape:showpageshadow="2"
     inkscape:pageopacity="0.0"
     inkscape:pagecheckerboard="0"
     inkscape:deskcolor="#d1d1d1" />
  <g
     id="g8"
     inkscape:groupmode="layer"
     inkscape:label="ink_ext_XXXXXX"
     transform="matrix(1.3333333,0,0,-1.3333333,0,192)">
    <g
       id="g10"
       transform="scale(0.1)">
      <path
         d="M 1.28125,81.2617 V 1357.59 c 0,42.52 34.39065,76.99 76.91015,76.99 H 1354.52 c 42.44,0 76.99,-34.55 76.99,-76.99 V 81.2617 c 0,-42.5195 -34.47,-76.91014 -76.99,-76.91014 H 78.1914 C 35.6719,4.35156 1.28125,38.7422 1.28125,81.2617"
         style="fill:#ffffff;fill-opacity:1;fill-rule:evenodd;stroke:none"
         id="path12" />
      <path
         d="M 1.28125,81.2617 V 1357.59 c 0,42.52 34.39065,76.99 76.91015,76.99 H 1354.52 c 42.44,0 76.99,-34.55 76.99,-76.99 V 81.2617 c 0,-42.5195 -34.47,-76.91014 -76.99,-76.91014 H 78.1914 C 35.6719,4.35156 1.28125,38.7422 1.28125,81.2617 Z"
         style="fill:none;stroke:#231f20;stroke-width:2.16;stroke-linecap:butt;stroke-linejoin:miter;stroke-miterlimit:2.6131;stroke-dasharray:none;stroke-opacity:1"
         id="path14" />
      <path
         d="m 17.2422,81.2109 c 0,-33.6796 27.2187,-60.8984 60.8984,-60.8984 H 1354.57 c 33.61,0 60.96,27.2188 60.96,60.8984 V 1357.64 c 0,33.61 -27.35,60.96 -60.96,60.96 H 78.1406 c -33.6797,0 -60.8984,-27.35 -60.8984,-60.96 V 81.2109"
         style="fill:#231f20;fill-opacity:1;fill-rule:evenodd;stroke:none"
         id="path16" />
      <path
         d="M 45.4922,81.2227 V 1357.65 c 0,17.98 14.6094,32.66 32.6601,32.66 H 1354.58 c 17.98,0 32.66,-14.68 32.66,-32.66 V 81.2227 c 0,-18.0508 -14.68,-32.6602 -32.66,-32.6602 H 78.1523 c -18.0507,0 -32.6601,14.6094 -32.6601,32.6602"
         style="fill:#ffffff;fill-opacity:1;fill-rule:evenodd;stroke:none"
         id="path18" />
      <path
         d="m 1063.99,1166.42 c -191.662,191.61 -502.377,191.61 -694.041,0 -191.605,-191.658 -191.605,-502.377 0,-694.037 191.664,-191.61 502.379,-191.61 694.041,0 191.61,191.66 191.61,502.379 0,694.037"
         style="fill:#ef2c30;fill-opacity:1;fill-rule:evenodd;stroke:none"
         id="path20" />
      <path
         d="M 991.949,1094.38 C 1136.07,950.262 1143.45,721.09 1013.96,568.273 L 465.84,1116.39 c 152.781,129.45 381.937,122.11 526.109,-22.01"
         style="fill:#ffffff;fill-opacity:1;fill-rule:evenodd;stroke:none"
         id="path22" />
      <path
         d="M 968.566,523.16 C 815.75,393.664 586.543,400.949 442.422,545.121 298.25,689.242 290.91,918.5 420.453,1071.28 L 968.566,523.16"
         style="fill:#ffffff;fill-opacity:1;fill-rule:evenodd;stroke:none"
         id="path24" />
      <path
         d="m 845.547,737.539 c 12.625,15.891 32.07,26.078 53.961,26.039 37.621,-0.039 68.051,-30.359 68.492,-67.976 l 48.49,-0.039 -0.04,303.578 -414.567,0.039 V 981.16 L 845.547,737.539"
         style="fill:#231f20;fill-opacity:1;fill-rule:evenodd;stroke:none"
         id="path26" />
      <path
         d="m 581.211,842.199 h -79.16 c -2.867,0 -5.59,1.321 -7.352,3.59 -1.746,2.238 -2.386,5.121 -1.746,7.871 l 14.649,63.231 c 0.437,1.507 1.359,2.828 2.597,3.828 1.242,1.004 2.801,1.601 4.391,1.679 l 52.64,0.243 -18.21,18.207 -35.309,-0.278 c -5.711,-0.16 -11.18,-2.281 -15.531,-5.992 -3.918,-3.359 -6.707,-7.867 -7.95,-12.855 l -15.816,-68.106 c -0.711,-3.265 -2.512,-6.226 -5.152,-8.297 -2.793,-2.242 -6.309,-3.32 -9.86,-3.121 l -44.14,-0.32 c -2.348,0.082 -4.672,-0.84 -6.348,-2.52 -1.676,-1.668 -2.594,-3.992 -2.473,-6.386 l -0.039,-112.145 -13.179,-0.039 -0.043,-27.715 h 24.363 c -0.441,38.016 30.23,69.086 68.258,69.207 38.019,0.117 68.89,-29.75 68.652,-67.968 l 241.067,0.039 -214.27,214.265 -0.039,-66.418"
         style="fill:#231f20;fill-opacity:1;fill-rule:evenodd;stroke:none"
         id="path28" />
      <path
         d="m 486.57,750.938 c -30.57,0 -55.379,-24.86 -55.379,-55.375 0,-30.571 24.809,-55.43 55.379,-55.43 30.571,0 55.434,24.859 55.434,55.43 0,30.515 -24.863,55.375 -55.434,55.375"
         style="fill:#231f20;fill-opacity:1;fill-rule:evenodd;stroke:none"
         id="path30" />
      <path
         d="m 898.406,750.938 c -18.269,0 -34.508,-8.879 -44.629,-22.579 l 77.43,-77.425 c 13.699,10.117 22.582,26.359 22.582,44.629 0,30.515 -24.859,55.375 -55.383,55.375"
         style="fill:#231f20;fill-opacity:1;fill-rule:evenodd;stroke:none"
         id="path32" />
      <path
         d="m 109.473,132.523 h 24.41 l 22.578,52.727 22.18,-52.809 h 24.332 l -34.461,81.61 33.742,77.941 h -25.133 l -20.738,-49.058 -20.5,49.14 h -24.25 l 32.707,-78.023 -34.867,-81.528"
         style="fill:#231f20;fill-opacity:1;fill-rule:evenodd;stroke:none"
         id="path34" />
      <path
         d="m 717.398,131.082 h 15.872 l 12.089,37.379 11.84,-37.379 h 15.84 l -19.75,62.5 18.508,57.16 H 755.93 l -10.41,-32.312 -10.102,32.312 h -15.91 l 17.953,-57.199 -20.063,-62.461"
         style="fill:#231f20;fill-opacity:1;fill-rule:evenodd;stroke:none"
         id="path36" />
      <path
         d="m 1273.27,160.641 c -0.08,-1.481 -0.12,-2.907 -0.12,-4.387 v -2.434 c 0,-14.636 11.09,-25.609 25.41,-25.609 5.71,0 11.61,2.07 15.64,5.262 1.83,1.48 10.05,8.539 10.05,21.379 0,15.199 -6.58,33.031 -19.58,47.23 l -8.5,8.82 c -0.28,0.309 -6.94,7.891 -6.94,17.071 0,7.3 3.79,10.57 8.46,10.57 3.86,0 7.14,-2.473 8.29,-6.059 0.68,-2.082 0.68,-4.312 0.96,-6.511 h 14.92 c 1.04,16.32 -10.69,27.929 -24.25,27.929 -13.01,0 -24.02,-10.808 -24.02,-24.777 0,-4.621 1.88,-14.242 5.67,-21.422 3.91,-7.41 10.73,-12.281 16.15,-18.422 8.38,-9.539 13.28,-23.136 13.28,-33.59 0,-8.339 -4.38,-12.05 -10.37,-12.05 -5.38,0 -9.97,3.472 -10.17,12.254 -0.04,1.558 0,3.148 0.12,4.746 h -15"
         style="fill:#231f20;fill-opacity:1;fill-rule:evenodd;stroke:none"
         id="path38" />
      <path
         d="m 346.039,160.641 c -0.039,-1.481 -0.078,-2.907 -0.117,-4.387 v -2.434 c 0,-14.636 11.133,-25.609 25.449,-25.609 5.66,0 11.602,2.07 15.59,5.262 1.879,1.48 10.09,8.539 10.09,21.379 0,15.199 -6.582,33.031 -19.578,47.23 l -8.5,8.82 c -0.321,0.309 -6.981,7.891 -6.981,17.071 0,7.3 3.828,10.57 8.5,10.57 3.867,0 7.102,-2.473 8.301,-6.059 0.668,-2.082 0.668,-4.312 0.949,-6.511 h 14.879 c 1.039,16.32 -10.652,27.929 -24.207,27.929 -13.043,0 -24.016,-10.808 -24.016,-24.777 0,-4.621 1.832,-14.242 5.622,-21.422 3.91,-7.41 10.769,-12.281 16.16,-18.422 8.371,-9.539 13.281,-23.136 13.281,-33.59 0,-8.339 -4.391,-12.05 -10.367,-12.05 -5.395,0 -9.934,3.472 -10.133,12.254 -0.039,1.558 0,3.148 0.121,4.746 h -15.043"
         style="fill:#231f20;fill-opacity:1;fill-rule:evenodd;stroke:none"
         id="path40" />
      <path
         d="m 1190.43,250.66 0.04,-99.797 c 0.48,-11 11.52,-22.41 25.41,-22.41 6.38,0 12,2.07 16.79,6.34 4.86,4.312 7.82,10.008 8.41,17.469 v 98.48 h -15.07 V 152.98 c 0,-5.187 -4.15,-9.765 -10.37,-9.765 -5.35,0 -9.82,4.258 -10.1,10.367 v 97.078 h -15.11"
         style="fill:#231f20;fill-opacity:1;fill-rule:evenodd;stroke:none"
         id="path42" />
      <path
         d="m 640.133,250.66 0.078,-99.797 c 0.441,-11 11.531,-22.41 25.371,-22.41 6.379,0 12.008,2.07 16.789,6.34 4.91,4.312 7.82,10.008 8.461,17.469 v 98.48 H 675.75 V 152.98 c 0,-5.187 -4.187,-9.765 -10.367,-9.765 -5.34,0 -9.852,4.258 -10.09,10.367 v 97.078 h -15.16"
         style="fill:#231f20;fill-opacity:1;fill-rule:evenodd;stroke:none"
         id="path44" />
      <path
         d="m 427.73,160.641 c -0.039,-1.481 -0.078,-2.907 -0.117,-4.387 v -2.434 c 0,-14.636 11.129,-25.609 25.45,-25.609 5.656,0 11.597,2.07 15.589,5.262 1.879,1.48 10.102,8.539 10.102,21.379 0,15.199 -6.594,33.031 -19.59,47.23 l -8.504,8.82 c -0.308,0.309 -6.976,7.891 -6.976,17.071 0,7.3 3.828,10.57 8.496,10.57 3.871,0 7.101,-2.473 8.3,-6.059 0.672,-2.082 0.672,-4.312 0.95,-6.511 h 14.883 c 1.039,16.32 -10.653,27.929 -24.211,27.929 -13.039,0 -24.008,-10.808 -24.008,-24.777 0,-4.621 1.828,-14.242 5.617,-21.422 3.91,-7.41 10.769,-12.281 16.16,-18.422 8.371,-9.539 13.281,-23.136 13.281,-33.59 0,-8.339 -4.39,-12.05 -10.371,-12.05 -5.39,0 -9.929,3.472 -10.129,12.254 -0.043,1.558 0,3.148 0.121,4.746 H 427.73"
         style="fill:#231f20;fill-opacity:1;fill-rule:evenodd;stroke:none"
         id="path46" />
      <path
         d="m 1059.04,131.082 h 15.07 v 52.41 c 12.65,-0.402 17.16,1.078 19.55,2.16 9.01,3.95 16.39,12.918 16.39,32.672 0,20.938 -12.04,31.629 -23.61,32.418 h -27.4 v -119.66"
         style="fill:#231f20;fill-opacity:1;fill-rule:evenodd;stroke:none"
         id="path48" />
      <path
         d="m 943.277,131.082 h 15.082 v 105.582 h 14.758 v 14.078 h -44.918 v -14.121 h 15.078 V 131.082"
         style="fill:#231f20;fill-opacity:1;fill-rule:evenodd;stroke:none"
         id="path50" />
      <path
         d="m 864.66,131.082 h 44.879 v 15 h -30 v 43.16 h 18.867 v 14.949 h -18.91 v 31.879 h 28.883 v 14.672 H 864.66 v -119.66"
         style="fill:#231f20;fill-opacity:1;fill-rule:evenodd;stroke:none"
         id="path52" />
      <path
         d="m 1129.84,131.082 h 44.79 v 14 h -29.95 v 105.66 h -14.84 v -119.66"
         style="fill:#231f20;fill-opacity:1;fill-rule:evenodd;stroke:none"
         id="path54" />
      <path
         d="m 562.949,131.082 h 44.875 v 15 h -29.953 v 43.16 h 18.82 v 14.949 h -18.898 v 31.879 h 28.918 v 14.672 h -43.762 v -119.66"
         style="fill:#231f20;fill-opacity:1;fill-rule:evenodd;stroke:none"
         id="path56" />
      <path
         d="m 270.93,131.082 h 44.871 v 15 h -29.949 v 43.16 h 18.82 v 14.949 h -18.899 v 31.879 h 28.918 v 14.672 H 270.93 v -119.66"
         style="fill:#231f20;fill-opacity:1;fill-rule:evenodd;stroke:none"
         id="path58" />
      <path
         d="m 1074.11,198.57 v 37.262 h 9.62 c 4.74,0 11.09,-3.91 11.09,-18.312 0,-15.278 -5.35,-18.707 -12.05,-18.95 h -8.66"
         style="fill:#ffffff;fill-opacity:1;fill-rule:evenodd;stroke:none"
         id="path60" />
      <path
         d="m 512.09,131.082 h 14.961 v 119.66 H 512.09 v -119.66"
         style="fill:#231f20;fill-opacity:1;fill-rule:evenodd;stroke:none"
         id="path62" />
    </g>
  </g>
</svg>
