<?xml version="1.0" encoding="UTF-8" standalone="no"?>
<!-- Created with Inkscape (http://www.inkscape.org/) -->

<svg
   version="1.1"
   id="svg2"
   width="160"
   height="192"
   viewBox="0 0 160 192"
   sodipodi:docname="P-130-19-750x900(19).eps"
   xmlns:inkscape="http://www.inkscape.org/namespaces/inkscape"
   xmlns:sodipodi="http://sodipodi.sourceforge.net/DTD/sodipodi-0.dtd"
   xmlns="http://www.w3.org/2000/svg"
   xmlns:svg="http://www.w3.org/2000/svg">
  <defs
     id="defs6" />
  <sodipodi:namedview
     id="namedview4"
     pagecolor="#ffffff"
     bordercolor="#000000"
     borderopacity="0.25"
     inkscape:showpageshadow="2"
     inkscape:pageopacity="0.0"
     inkscape:pagecheckerboard="0"
     inkscape:deskcolor="#d1d1d1" />
  <g
     id="g8"
     inkscape:groupmode="layer"
     inkscape:label="ink_ext_XXXXXX"
     transform="matrix(1.3333333,0,0,-1.3333333,0,192)">
    <g
       id="g10"
       transform="scale(0.1)">
      <path
         d="m 9.4375,90.0977 c 0,-43.4805 35.2813,-78.7579 78.7617,-78.7579 v 0 H 1111.8 v 0 c 43.48,0 78.76,35.2774 78.76,78.7579 v 0 1259.8423 0 c 0,43.48 -35.28,78.72 -78.76,78.72 v 0 H 88.1992 v 0 c -43.4804,0 -78.7617,-35.24 -78.7617,-78.72 v 0 V 90.0977"
         style="fill:#ffffff;fill-opacity:1;fill-rule:evenodd;stroke:none"
         id="path12" />
      <path
         d="m 9.4375,90.0977 c 0,-43.4805 35.2813,-78.7579 78.7617,-78.7579 v 0 H 1111.8 v 0 c 43.48,0 78.76,35.2774 78.76,78.7579 v 0 1259.8423 0 c 0,43.48 -35.28,78.72 -78.76,78.72 v 0 H 88.1992 v 0 c -43.4804,0 -78.7617,-35.24 -78.7617,-78.72 v 0 z"
         style="fill:none;stroke:#231f20;stroke-width:5.6693;stroke-linecap:butt;stroke-linejoin:miter;stroke-miterlimit:22.9256;stroke-dasharray:none;stroke-opacity:1"
         id="path14" />
      <path
         d="m 25.1992,90.0313 c 0,-17.3946 6.1524,-32.2422 18.461,-44.5508 12.3086,-12.3086 27.1601,-18.461 44.5507,-18.461 v 0 H 1111.81 v 0 c 17.39,0 32.24,6.1524 44.55,18.461 12.31,12.3086 18.47,27.1562 18.47,44.5508 v 0 1259.8387 0 c 0,17.39 -6.16,32.23 -18.47,44.53 -12.3,12.3 -27.15,18.44 -44.55,18.44 v 0 H 88.2109 v 0 c -17.3984,0 -32.2461,-6.14 -44.5507,-18.44 -12.3086,-12.3 -18.461,-27.14 -18.461,-44.53 v 0 V 90.0313"
         style="fill:#231f20;fill-opacity:1;fill-rule:evenodd;stroke:none"
         id="path16" />
      <path
         d="m 48.8789,90.0898 c 0,-10.871 3.8516,-20.1523 11.543,-27.8476 7.6953,-7.6992 16.9804,-11.543 27.8437,-11.543 v 0 H 1111.87 v 0 c 10.87,0 20.15,3.8438 27.84,11.543 7.7,7.6953 11.55,16.9766 11.55,27.8476 v 0 1259.8402 0 c 0,10.86 -3.85,20.13 -11.53,27.82 -7.7,7.69 -16.98,11.53 -27.86,11.53 v 0 H 88.2656 v 0 c -10.8711,0 -20.1601,-3.84 -27.8554,-11.53 -7.6875,-7.69 -11.5313,-16.96 -11.5313,-27.82 v 0 V 90.0898"
         style="fill:#ffffff;fill-opacity:1;fill-rule:evenodd;stroke:none"
         id="path18" />
      <path
         d="m 806.801,399.98 -8.434,-12.136 h 17.735 l 11.054,12.136 h -20.355"
         style="fill:#231f20;fill-opacity:1;fill-rule:evenodd;stroke:none"
         id="path20" />
      <path
         d="m 83.7109,446.859 h 20.1601 l 18.613,43.547 18.313,-43.613 h 20.098 l -28.461,67.395 27.863,64.367 h -20.75 L 122.418,538.039 105.52,578.621 H 85.4922 L 112.504,514.188 83.7109,446.859"
         style="fill:#231f20;fill-opacity:1;fill-rule:evenodd;stroke:none"
         id="path22" />
      <path
         d="m 856.398,1240.3 c -141.656,141.61 -371.3,141.61 -512.953,0 -141.621,-141.66 -141.621,-371.304 0,-512.956 141.653,-141.617 371.297,-141.617 512.953,0 141.614,141.652 141.614,371.296 0,512.956 z M 785.57,764.406 C 672.625,668.703 503.215,674.09 396.695,780.645 290.145,887.164 284.723,1056.6 380.461,1169.52 v 0 z m 17.582,422.644 c 106.516,-106.52 111.977,-275.886 16.27,-388.835 v 0 L 414.313,1203.32 v 0 c 112.917,95.67 282.285,90.25 388.839,-16.27"
         style="fill:#ed2e30;fill-opacity:1;fill-rule:evenodd;stroke:none"
         id="path24" />
      <path
         d="m 211.922,446.539 h 49.246 v 13.902 h -35.309 v 32.344 h 20.848 v 13.77 h -20.816 v 24.707 h 33.894 v 13.996 h -47.863 z m 675.539,56.918 v 27.703 h 16.57 v 0 c 4.348,0 9.321,-3.754 9.321,-13.305 0,-10.476 -3.821,-13.707 -10.176,-14.46 v 0 z m -13.836,-56.918 h 13.77 v 43.117 h 17.164 v 0 c 11.461,0 22.761,9.723 22.761,27.836 0,13.504 -7.906,26.946 -21.543,27.438 v 0 h -32.152 z m 63.742,0 h 49.473 v 12.453 h -35.309 v 86.367 h -14.164 z m 54.578,98.82 0.102,-75.168 v 0 c 1.086,-15.382 12.743,-25.925 26.883,-25.925 6.95,0 12.87,2.437 18.02,6.984 5.43,4.809 8.53,11 8.79,20.227 v 0 73.918 h -13.84 v -74.711 0 c 0,-7.313 -5.66,-12.879 -13.01,-12.879 -5,0 -9.62,2.703 -11.99,7.347 -1.02,2.008 -1.18,4.313 -1.32,6.555 v 0 73.586 z M 1061.71,475 c 0,-0.824 0.04,-1.582 0.11,-2.375 v 0 l 0.25,-2.172 v 0 c 1.72,-15.512 13.68,-25.695 27.48,-25.695 14.69,0 26.84,12.027 26.84,27.703 0,10.742 -5.59,22.633 -14.85,29.945 -2.9,2.27 -6.03,4.285 -9.29,6.028 -5.93,3.23 -13.67,5.304 -13.67,13.871 0,5.562 4.97,10.468 10.77,10.468 5.57,0 10.77,-4.937 10.84,-10.437 v 0 h 13.8 v 0 c 0,13.34 -11.27,24.437 -24.24,24.437 -13.77,0 -25.04,-11.164 -25.04,-25.031 0,-7.113 3.27,-14 7.97,-18.285 5.64,-5.168 13.74,-6.816 19.7,-11.625 4.02,-3.191 7.15,-7.574 8.67,-12.484 0.68,-2.207 1.22,-4.512 1.22,-6.817 0,-8.105 -5.9,-13.574 -12.98,-13.574 -3.56,0 -6.62,1.25 -9.2,3.723 -2.3,2.207 -4.01,5.304 -3.88,12.32 v 0 h -14.5"
         style="fill:#231f20;fill-opacity:1;fill-rule:evenodd;stroke:none"
         id="path26" />
      <path
         d="m 345.762,475 c 0,-0.824 0.031,-1.582 0.093,-2.375 v 0 l 0.266,-2.172 v 0 c 1.715,-15.512 13.668,-25.695 27.473,-25.695 14.691,0 26.879,12.027 26.879,27.703 0,10.742 -5.598,22.633 -14.887,29.945 -2.898,2.27 -6.063,4.285 -9.289,6.028 -5.961,3.23 -13.672,5.304 -13.672,13.871 0,5.562 5.004,10.468 10.805,10.468 5.566,0 10.738,-4.937 10.804,-10.437 v 0 h 13.801 v 0 c 0,13.34 -11.265,24.437 -24.277,24.437 -13.77,0 -25,-11.164 -25,-25.031 0,-7.113 3.258,-14 7.969,-18.285 5.601,-5.168 13.703,-6.816 19.734,-11.625 3.953,-3.191 7.113,-7.574 8.629,-12.484 0.723,-2.207 1.219,-4.512 1.219,-6.817 0,-8.105 -5.895,-13.574 -12.946,-13.574 -3.59,0 -6.656,1.25 -9.222,3.723 -2.305,2.207 -4.02,5.304 -3.922,12.32 v 0 z m 72.039,-28.461 h 14.129 v 98.82 h -14.129 z m 34.156,0 h 49.246 v 13.902 h -35.308 v 32.344 h 20.851 v 13.77 h -20.82 v 24.707 h 33.926 v 13.996 h -47.895 z m 67.102,98.82 0.101,-75.168 v 0 c 1.117,-15.382 12.742,-25.925 26.875,-25.925 6.953,0 12.879,2.437 18.02,6.984 5.433,4.809 8.531,11 8.828,20.227 v 0 73.918 h -13.836 v -74.711 0 c 0,-7.313 -5.699,-12.879 -13.078,-12.879 -4.977,0 -9.582,2.703 -11.922,7.347 -1.024,2.008 -1.219,4.313 -1.352,6.555 v 0 73.586 z m 66.836,-98.82 h 15.121 l 13.996,32.645 13.703,-32.676 h 15.055 l -21.313,50.496 20.883,48.289 h -15.547 l -12.844,-30.406 -12.683,30.472 h -15.024 l 20.227,-48.355 z m 120.066,0 h 49.246 v 13.902 h -35.312 v 32.344 h 20.851 v 13.77 H 719.93 v 24.707 h 33.925 v 13.996 h -47.894 z m 76.781,0 h 14.004 v 86.305 h 17.656 v 12.515 h -49.347 v -12.515 h 17.687 z M 276.781,475 c 0,-0.824 0.035,-1.582 0.102,-2.375 v 0 l 0.23,-2.172 v 0 c 1.778,-15.512 13.703,-25.695 27.473,-25.695 14.691,0 26.879,12.027 26.879,27.703 0,10.742 -5.602,22.633 -14.86,29.945 -2.894,2.27 -6.027,4.285 -9.289,6.028 -5.925,3.23 -13.668,5.304 -13.668,13.871 0,5.562 4.977,10.468 10.805,10.468 5.535,0 10.738,-4.937 10.84,-10.437 v 0 h 13.766 v 0 c 0,13.34 -11.266,24.437 -24.246,24.437 -13.766,0 -25.036,-11.164 -25.036,-25.031 0,-7.113 3.266,-14 7.973,-18.285 5.637,-5.168 13.738,-6.816 19.73,-11.625 3.958,-3.191 7.118,-7.574 8.633,-12.484 0.692,-2.207 1.219,-4.512 1.219,-6.817 0,-8.105 -5.894,-13.574 -12.98,-13.574 -3.559,0 -6.618,1.25 -9.188,3.723 -2.305,2.207 -4.019,5.304 -3.887,12.32 v 0 z M 433.418,281.871 h 15.117 l 14,32.68 13.735,-32.715 h 15.085 l -21.375,50.566 20.918,48.254 h -15.55 l -12.844,-30.402 -12.715,30.437 h -15.023 l 20.261,-48.289 z m 113.641,26.188 c 0,-0.825 0,-1.68 0,-2.571 v 0 l -0.063,-1.316 v 0 c -0.23,-5.863 -4.906,-10.508 -11.398,-10.508 -4.348,0 -8.465,2.535 -10.477,7.18 -1.187,2.703 -4.543,15.91 -4.543,30.371 0,10.969 1.875,22.074 3.457,27.211 2.242,7.441 6.524,10.144 11.461,10.144 7.02,0 11.699,-5.269 11.399,-11.066 v 0 h 13.64 v 0 c 0.36,12.875 -11.004,24.801 -25.168,24.801 -7.875,0 -15.019,-3.59 -19.566,-9.352 -3.031,-3.887 -4.613,-8.699 -5.602,-13.508 -2.008,-9.222 -3.031,-18.644 -3.031,-28.031 0,-22.598 4.582,-35.281 6.227,-38.211 4.48,-8.008 13.738,-13.242 22.238,-13.242 5.93,0 11.164,1.945 15.777,5.699 6.817,5.567 10.113,13.34 9.188,22.399 v 0 z m 36.566,-26.188 h 49.211 v 13.965 h -35.309 v 32.281 h 20.817 v 13.805 H 597.59 v 24.707 h 33.863 v 13.965 H 583.625 Z M 154.379,117.234 h 14.164 v 98.825 h -14.164 z m 53.43,0 h 10.773 l 24.375,98.825 H 228.66 l -15.547,-63.114 -15.976,63.047 h -14.293 l 24.965,-98.758"
         style="fill:#231f20;fill-opacity:1;fill-rule:evenodd;stroke:none"
         id="path28" />
      <path
         d="m 671.313,338.793 v 27.734 h 16.566 v 0 c 4.348,0 9.324,-3.754 9.324,-13.308 0,-10.477 -3.824,-13.703 -10.148,-14.457 v 0 z m -13.805,-56.922 h 13.769 v 43.149 h 17.129 v 0 c 11.465,0 22.797,9.753 22.797,27.835 0,13.504 -7.91,26.95 -21.547,27.473 v 0 h -32.148 z m 81.398,0 h 13.996 v 86.336 h 17.692 v 12.484 H 721.25 v -12.484 h 17.656 z m 45.985,0 h 49.242 v 13.965 H 798.82 v 32.281 h 20.821 v 13.805 h -20.786 v 24.707 h 33.895 v 13.965 h -47.859 z m -417.618,0 h 49.278 v 13.965 h -35.344 v 32.281 h 20.883 v 13.805 h -20.817 v 24.707 h 33.895 v 13.965 h -47.895 v -98.723"
         style="fill:#231f20;fill-opacity:1;fill-rule:evenodd;stroke:none"
         id="path30" />
      <path
         d="m 271.223,177.418 v 24.672 h 16.765 v 0 c 5.203,0 9.356,-3.227 9.356,-12.453 0,-7.543 -3.231,-11.067 -8.403,-12.219 v 0 z M 257.25,117.234 h 14.199 v 46.317 h 12.317 l 13.277,-46.317 h 14.527 l -14.031,48.754 v 0 c 8.598,4.149 13.375,10.805 13.375,24.278 0,19.3 -13.57,24.933 -19.601,25.461 v 0 H 257.25 Z m 91.738,41.77 6.36,26.418 6.457,-26.418 z m -24.406,-41.77 h 14.266 l 6.816,27.735 h 19.664 l 6.949,-27.735 h 14.266 l -24.277,98.825 h -13.899 z m 74.906,0 h 14.164 v 98.825 h -14.164 z m 36.399,28.465 c 0,-0.824 0.031,-1.617 0.101,-2.375 v 0 l 0.262,-2.172 v 0 c 1.746,-15.519 13.703,-25.726 27.473,-25.726 14.691,0 26.879,12.054 26.879,27.73 0,10.739 -5.602,22.602 -14.891,29.946 -2.863,2.304 -6.027,4.281 -9.289,6.027 -5.93,3.23 -13.668,5.336 -13.668,13.867 0,5.57 5.008,10.477 10.836,10.477 5.535,0 10.738,-4.942 10.805,-10.477 v 0 h 13.769 v 0 c 0,13.379 -11.266,24.508 -24.242,24.508 -13.77,0 -25.004,-11.199 -25.004,-25.035 0,-7.145 3.262,-14.031 7.973,-18.313 5.597,-5.172 13.703,-6.82 19.695,-11.629 3.988,-3.195 7.117,-7.574 8.664,-12.484 0.691,-2.203 1.219,-4.512 1.219,-6.816 0,-8.106 -5.895,-13.575 -12.946,-13.575 -3.621,0 -6.652,1.286 -9.253,3.723 -2.309,2.207 -3.989,5.305 -3.887,12.324 v 0 z m 93.285,-11.531 -0.692,1.285 v 0 c -0.492,0.953 -4.347,12.418 -4.347,28.953 0,14.594 2.703,27.371 4.086,31.227 2.273,6.289 6.258,8.664 10.508,8.664 2.836,0 5.699,-1.152 7.742,-3.129 2.008,-1.977 4.777,-5.469 6.293,-19.004 0.527,-4.449 0.82,-8.93 0.82,-13.41 0,-13.734 -2.473,-26.055 -4.016,-30.438 -2.371,-6.816 -6.425,-9.355 -11.234,-9.355 -4.117,0 -7.246,1.945 -9.16,5.207 z m -8.793,-11.727 0.891,-0.859 v 0 c 3.621,-3.656 10.144,-6.555 17.359,-6.555 8.859,0 17.062,4.875 21.078,11.762 6.559,11.199 7.645,38.668 7.645,41.504 0,23.949 -5.735,35.48 -6.422,36.73 -4.481,8.297 -12.586,13.207 -22.137,13.207 -10.672,0 -19.93,-6.718 -23.355,-16.437 C 513.43,196.094 510.5,182 510.5,163.352 c 0,-13.438 2.73,-27.34 3.754,-30.274 1.316,-3.918 3.293,-7.64 6.125,-10.637 z m 70.262,-5.207 h 13.703 v 64.567 l 29.383,-64.567 h 10.804 v 98.758 h -13.836 v -58.14 l -26.183,58.207 h -13.871 z m 134,0 h 49.476 v 12.45 h -35.312 v 86.375 h -14.164 z m 76.226,16.934 -0.691,1.285 v 0 c -0.496,0.953 -4.383,12.418 -4.383,28.953 0,14.594 2.734,27.371 4.148,31.227 2.274,6.289 6.227,8.664 10.442,8.664 2.867,0 5.734,-1.152 7.773,-3.129 2.043,-1.977 4.746,-5.469 6.262,-19.004 0.59,-4.449 0.855,-8.93 0.855,-13.41 0,-13.734 -2.468,-26.055 -3.988,-30.438 -2.367,-6.816 -6.453,-9.355 -11.23,-9.355 -4.184,0 -7.278,1.945 -9.188,5.207 z m -8.797,-11.727 0.887,-0.859 v 0 c 3.625,-3.656 10.184,-6.555 17.359,-6.555 8.864,0 17.067,4.875 21.086,11.762 6.52,11.199 7.606,38.668 7.606,41.504 0,23.949 -5.695,35.48 -6.356,36.73 -4.515,8.297 -12.617,13.207 -22.168,13.207 -10.64,0 -19.929,-6.718 -23.355,-16.437 -1.977,-5.699 -4.973,-19.793 -4.973,-38.441 0,-13.438 2.77,-27.34 3.785,-30.274 1.352,-3.918 3.293,-7.64 6.129,-10.637 z m 107.551,20.985 c 0.031,-0.895 0.031,-1.746 0,-2.571 v 0 l -0.031,-1.351 v 0 c -0.235,-5.899 -4.945,-10.543 -11.434,-10.543 -4.316,0 -8.398,2.574 -10.476,7.246 -1.184,2.703 -4.543,15.879 -4.543,30.309 0,11.031 1.91,22.136 3.457,27.238 2.273,7.476 6.554,10.148 11.496,10.148 7.015,0 11.695,-5.273 11.394,-11.105 v 0 h 13.641 v 0 c 0.363,12.918 -11.004,24.84 -25.203,24.84 -7.836,0 -14.981,-3.559 -19.527,-9.356 -3.032,-3.886 -4.579,-8.726 -5.633,-13.539 -2.012,-9.187 -3.032,-18.578 -3.032,-28 0,-22.558 4.61,-35.308 6.254,-38.207 4.516,-8.004 13.774,-13.277 22.239,-13.277 5.961,0 11.168,2.012 15.746,5.699 6.851,5.566 10.144,13.375 9.187,22.469 v 0 z m 47.598,15.578 6.39,26.418 6.489,-26.418 z m -24.375,-41.77 h 14.261 l 6.821,27.735 h 19.664 l 6.984,-27.735 h 14.196 l -24.247,98.825 h -13.867 z m 74.937,0 h 49.479 v 12.45 h -35.31 v 86.375 h -14.169 z m 62.449,0 h 49.29 v 13.903 h -35.32 v 32.316 h 20.82 v 13.801 h -20.79 v 24.703 h 33.87 v 14 h -47.87 z m -968.3355,0 h 49.5395 v 12.45 H 106.09 v 86.375 H 91.8945 v -98.825"
         style="fill:#231f20;fill-opacity:1;fill-rule:evenodd;stroke:none"
         id="path32" />
      <path
         d="m 694.383,923.164 c 9.324,11.746 23.703,19.274 39.879,19.246 27.804,-0.027 50.301,-22.433 50.621,-50.242 v 0 l 35.836,-0.027 -0.028,224.369 -306.398,0.03 v -13.32 l 180.09,-180.056"
         style="fill:#231f20;fill-opacity:1;fill-rule:evenodd;stroke:none"
         id="path34" />
      <path
         d="m 499.785,1001.08 h -58.504 v 0 c -2.129,0 -4.133,0.97 -5.433,2.66 -1.301,1.65 -1.77,3.78 -1.301,5.81 v 0 l 10.836,46.73 v 0 c 0.324,1.12 1.004,2.1 1.918,2.84 0.914,0.74 2.066,1.18 3.25,1.24 v 0 l 38.902,0.17 -13.461,13.46 -26.094,-0.2 v 0 c -4.222,-0.12 -8.265,-1.69 -11.48,-4.43 -2.891,-2.48 -4.961,-5.82 -5.875,-9.5 v 0 l -11.691,-50.33 v 0 c -0.528,-2.42 -1.86,-4.61 -3.809,-6.14 -2.066,-1.66 -4.66,-2.45 -7.289,-2.31 v 0 l -32.621,-0.23 v 0 c -1.738,0.06 -3.449,-0.62 -4.688,-1.862 -1.242,-1.242 -1.922,-2.953 -1.832,-4.726 v 0 l -0.031,-82.887 -9.742,-0.027 -0.027,-20.485 h 18.007 v 0 c -0.328,28.102 22.344,51.063 50.446,51.153 28.101,0.089 50.918,-21.993 50.742,-50.239 v 0 l 178.172,0.028 -158.367,158.365 -0.028,-49.09"
         style="fill:#231f20;fill-opacity:1;fill-rule:evenodd;stroke:none"
         id="path36" />
      <path
         d="m 429.52,933.066 c -22.594,0 -40.926,-18.371 -40.926,-40.925 0,-22.594 18.332,-40.969 40.926,-40.969 22.593,0 40.964,18.375 40.964,40.969 0,22.554 -18.371,40.925 -40.964,40.925"
         style="fill:#231f20;fill-opacity:1;fill-rule:evenodd;stroke:none"
         id="path38" />
      <path
         d="m 734.16,933.066 c -13.504,0 -25.504,-6.558 -32.984,-16.683 v 0 l 57.226,-57.231 v 0 c 10.125,7.477 16.684,19.485 16.684,32.989 0,22.554 -18.371,40.925 -40.926,40.925"
         style="fill:#231f20;fill-opacity:1;fill-rule:evenodd;stroke:none"
         id="path40" />
    </g>
  </g>
</svg>
