<?xml version="1.0" encoding="UTF-8" standalone="no"?>
<!-- Created with Inkscape (http://www.inkscape.org/) -->

<svg
   version="1.1"
   id="svg2"
   width="152"
   height="190.66667"
   viewBox="0 0 152 190.66667"
   sodipodi:docname="P-130-20-600x750(27).eps"
   xmlns:inkscape="http://www.inkscape.org/namespaces/inkscape"
   xmlns:sodipodi="http://sodipodi.sourceforge.net/DTD/sodipodi-0.dtd"
   xmlns="http://www.w3.org/2000/svg"
   xmlns:svg="http://www.w3.org/2000/svg">
  <defs
     id="defs6" />
  <sodipodi:namedview
     id="namedview4"
     pagecolor="#ffffff"
     bordercolor="#000000"
     borderopacity="0.25"
     inkscape:showpageshadow="2"
     inkscape:pageopacity="0.0"
     inkscape:pagecheckerboard="0"
     inkscape:deskcolor="#d1d1d1" />
  <g
     id="g8"
     inkscape:groupmode="layer"
     inkscape:label="ink_ext_XXXXXX"
     transform="matrix(1.3333333,0,0,-1.3333333,0,190.66667)">
    <g
       id="g10"
       transform="scale(0.1)">
      <path
         d="M 1.91406,105.156 C 1.91406,52.9844 44.25,10.6484 96.4258,10.6484 v 0 H 1041.29 v 0 c 52.18,0 94.46,42.336 94.46,94.5076 v 0 1228.304 0 c 0,52.17 -42.28,94.51 -94.46,94.51 v 0 H 96.4258 v 0 c -52.1758,0 -94.51174,-42.34 -94.51174,-94.51 v 0 -1228.304"
         style="fill:#ffffff;fill-opacity:1;fill-rule:evenodd;stroke:none"
         id="path12" />
      <path
         d="M 1.91406,105.156 C 1.91406,52.9844 44.25,10.6484 96.4258,10.6484 v 0 H 1041.29 v 0 c 52.18,0 94.46,42.336 94.46,94.5076 v 0 1228.304 0 c 0,52.17 -42.28,94.51 -94.46,94.51 v 0 H 96.4258 v 0 c -52.1758,0 -94.51174,-42.34 -94.51174,-94.51 v 0 z"
         style="fill:none;stroke:#231f20;stroke-width:2.16;stroke-linecap:butt;stroke-linejoin:miter;stroke-miterlimit:22.9256;stroke-dasharray:none;stroke-opacity:1"
         id="path14" />
      <path
         d="m 20.8242,105.266 c 0,-20.8715 7.3867,-38.6879 22.1563,-53.4574 C 57.75,37.0391 75.5703,29.6523 96.4375,29.6523 v 0 H 1041.3 v 0 c 20.87,0 38.68,7.3868 53.44,22.1524 14.75,14.7656 22.13,32.5859 22.13,53.4613 v 0 1228.304 0 c 0,20.88 -7.38,38.7 -22.13,53.46 -14.76,14.77 -32.57,22.15 -53.44,22.15 v 0 H 96.4375 v 0 c -20.8672,0 -38.6875,-7.38 -53.457,-22.15 -14.7696,-14.77 -22.1563,-32.59 -22.1563,-53.46 v 0 -1228.304"
         style="fill:#231f20;fill-opacity:1;fill-rule:evenodd;stroke:none"
         id="path16" />
      <path
         d="m 49.0508,105.145 c 0,-13.0395 4.6172,-24.1802 13.8515,-33.4145 9.2344,-9.2344 20.375,-13.8516 33.4141,-13.8516 v 0 H 1041.18 v 0 c 13.03,0 24.16,4.6133 33.38,13.8399 9.23,9.2343 13.84,20.375 13.84,33.4262 v 0 1228.305 0 c 0,13.05 -4.61,24.19 -13.84,33.43 -9.22,9.22 -20.35,13.83 -33.38,13.83 v 0 H 96.3164 v 0 c -13.0391,0 -24.1797,-4.61 -33.4141,-13.85 -9.2343,-9.23 -13.8515,-20.37 -13.8515,-33.41 v 0 -1228.305"
         style="fill:#ffffff;fill-opacity:1;fill-rule:evenodd;stroke:none"
         id="path18" />
      <path
         d="M 763.883,1190.69 C 866.129,1088.44 871.359,925.855 779.492,817.434 v 0 L 390.625,1206.3 v 0 c 108.383,91.83 270.973,86.63 373.258,-15.61 z M 747.094,784.836 C 638.672,692.953 476.066,698.125 373.82,800.414 271.531,902.664 266.32,1065.32 358.223,1173.71 v 0 z m 67.89,456.954 c -135.984,135.95 -356.414,135.95 -492.398,0 -135.949,-135.98 -135.949,-356.415 0,-492.395 135.984,-135.95 356.414,-135.95 492.398,0 135.95,135.98 135.95,356.415 0,492.395"
         style="fill:#ed2e30;fill-opacity:1;fill-rule:evenodd;stroke:none"
         id="path20" />
      <path
         d="m 659.473,937.434 c 8.949,11.285 22.75,18.515 38.289,18.48 26.691,-0.019 48.269,-21.543 48.59,-48.219 v 0 l 34.398,-0.039 -0.035,215.374 -294.117,0.04 v -12.79 L 659.473,937.434"
         style="fill:#231f20;fill-opacity:1;fill-rule:evenodd;stroke:none"
         id="path22" />
      <path
         d="m 472.695,1012.13 h -56.164 v 0 c -2.039,0 -3.965,0.94 -5.211,2.55 -1.246,1.58 -1.699,3.62 -1.246,5.58 v 0 l 10.403,44.86 v 0 c 0.304,1.08 0.961,2 1.832,2.72 0.886,0.7 1.98,1.13 3.113,1.18 v 0 l 37.363,0.18 -12.933,12.91 -25.051,-0.19 v 0 c -4.039,-0.12 -7.93,-1.62 -11.008,-4.25 -2.777,-2.39 -4.777,-5.59 -5.645,-9.13 v 0 l -11.214,-48.32 v 0 c -0.508,-2.31 -1.793,-4.41 -3.661,-5.88 -1.984,-1.59 -4.472,-2.36 -7.003,-2.21 v 0 l -31.301,-0.23 v 0 c -1.68,0.06 -3.324,-0.6 -4.512,-1.79 -1.191,-1.19 -1.832,-2.84 -1.758,-4.53 v 0 l -0.019,-79.56 -9.364,-0.036 -0.019,-19.652 h 17.277 v 0 c -0.304,26.977 21.461,49.008 48.422,49.102 26.977,0.074 48.875,-21.11 48.707,-48.235 v 0 l 171.047,0.035 -152.035,152.016 -0.02,-47.12"
         style="fill:#231f20;fill-opacity:1;fill-rule:evenodd;stroke:none"
         id="path24" />
      <path
         d="m 405.395,946.754 c -21.692,0 -39.286,-17.637 -39.286,-39.285 0,-21.696 17.594,-39.328 39.286,-39.328 21.691,0 39.328,17.632 39.328,39.328 0,21.648 -17.637,39.285 -39.328,39.285"
         style="fill:#231f20;fill-opacity:1;fill-rule:evenodd;stroke:none"
         id="path26" />
      <path
         d="m 697.617,946.945 c -12.972,0 -24.484,-6.308 -31.66,-16.011 v 0 l 54.934,-54.938 v 0 c 9.707,7.18 16.015,18.692 16.015,31.66 0,21.657 -17.636,39.289 -39.289,39.289"
         style="fill:#231f20;fill-opacity:1;fill-rule:evenodd;stroke:none"
         id="path28" />
      <path
         d="m 408.887,358.391 -0.063,29.308 33.903,0.121 v 0 c 7.648,0 14.25,-6.363 14.25,-14.699 0,-8.043 -6.27,-14.672 -14.133,-14.703 v 0 z m -22.828,-64.743 h 22.859 v 40.864 l 27.359,0.117 18.481,-40.981 h 25.347 l -20.25,45.27 v 0 c 12.27,6.539 20.282,19.652 20.282,34.293 0,21.328 -16.891,38.547 -37.653,38.547 v 0 H 386 Z m 158.066,49.649 13.199,31.23 12.965,-31.257 z m -46.227,-49.649 h 25.137 l 11.098,25.981 46.055,-0.117 10.828,-25.864 h 24.961 l -49.137,118.11 h -18.844 z m 135.805,0 h 23.942 l -0.149,118.11 h -23.793 z m 50.762,25.172 c 12.332,-17.187 31.98,-27.031 51.09,-27.031 22.98,0 43.015,15.75 43.015,37.738 0,15.813 -10.644,31.711 -33.418,37.864 v 0 l -16.617,4.347 v 0 c -5.883,1.617 -7.711,2.879 -9,4.051 -1.98,1.801 -2.609,3.449 -2.609,5.191 0,3.36 2.91,8.215 14.246,8.215 5.941,0 11.012,-1.316 15.512,-3.656 4.472,-2.344 8.64,-5.488 11.941,-8.941 v 0 l 18.539,15.543 v 0 c -6.539,6.839 -14.91,12.777 -22.68,16.347 -7.859,3.571 -14.941,4.981 -21.539,4.981 -18.601,0 -39.238,-12.871 -39.238,-33.36 0,-18.543 16.707,-28.14 28.379,-31.168 v 0 l 18.48,-4.863 v 0 c 7.168,-1.887 10.168,-4.406 11.848,-6.629 1.832,-2.371 2.672,-4.828 2.672,-7.347 0,-6.004 -6.09,-13.95 -19.742,-13.95 -8.457,0 -18.93,3.387 -31.739,15.84 v 0 z m 165.898,-3.269 c -18.929,0.301 -25.679,21.929 -25.679,35.578 0,12.598 4.679,23.641 9.359,29.012 4.949,5.668 10.441,7.976 15.898,7.976 15.45,0 25.59,-17.187 25.59,-35.457 0,-9.508 -2.218,-17.879 -5.699,-23.941 -5.43,-9.535 -12.359,-13.11 -19.469,-13.168 z m 0,-23.672 c 5.672,0 12.961,1.68 19.407,5.074 2.253,1.168 29.613,15.719 29.613,55.586 0,13.02 -3.418,25.438 -8.039,33.75 -9.899,17.91 -26.043,26.609 -41.102,26.609 -10.98,0 -22.469,-4.648 -32.187,-14.761 -9.961,-10.438 -17.25,-27.66 -17.25,-46.379 0,-31.801 20.246,-59.879 49.558,-59.879 z m 77.969,1.769 h 22.828 l 0.094,73.922 48.176,-73.922 h 23.1 l -0.03,118.11 h -23.043 l 0.035,-75.445 -48.898,75.445 h -22.231 z m -708.773,0 H 243.5 l -0.148,118.11 h -23.793 z m 82.5,0 h 24.718 l 41.493,118.11 h -24.243 l -29.457,-83.606 -28.859,83.606 h -24.449 z m -187.051,0 h 86.824 v 23.672 l -63.512,-0.031 0.032,94.469 h -23.25 l -0.094,-118.11"
         style="fill:#231f20;fill-opacity:1;fill-rule:evenodd;stroke:none"
         id="path30" />
      <path
         d="m 395.566,114.668 c 5.704,0 12.961,1.676 19.442,5.07 2.219,1.168 29.609,15.719 29.609,55.586 0,13.024 -3.449,25.442 -8.07,33.75 -9.902,17.91 -26.039,26.614 -41.102,26.614 -10.949,0 -22.468,-4.653 -32.156,-14.762 -9.992,-10.438 -17.281,-27.66 -17.281,-46.379 0,-31.801 20.25,-59.879 49.558,-59.879 z m 145.047,37.078 c -3.566,-5.941 -9.207,-10.648 -13.769,-12.601 -3.028,-1.317 -6.328,-1.946 -9.629,-1.946 -15.961,0 -22.438,13.797 -22.77,14.367 -3.386,5.973 -5.281,12.211 -5.281,23.254 0,14.035 4.051,23.879 8.34,29.243 5.461,6.839 12.902,10.144 19.832,10.144 5.402,0 10.828,-1.773 15.898,-5.762 2.789,-2.25 5.161,-4.949 7.02,-8.039 v 0 l 20.465,10.438 v 0 c -10.321,16.14 -27.637,25.324 -44.641,25.324 -13.23,0 -26.223,-5.762 -34.742,-14.91 -7.648,-8.25 -14.879,-24.305 -14.879,-45.211 0,-20.012 6.449,-35.789 13.41,-44.34 8.938,-10.98 21.418,-16.922 36.176,-16.922 12.094,0 22.742,3.992 32.039,11.641 5.074,4.14 9.332,9.242 12.606,14.969 v 0 z m 74.582,14.344 13.231,31.223 12.961,-31.254 z m -46.226,-49.652 h 25.168 l 11.07,25.98 46.082,-0.121 10.856,-25.859 h 24.929 l -49.14,118.105 h -18.84 z m 135.836,0 h 86.816 v 23.667 l -63.476,-0.027 v 94.465 h -23.219 z m 104.547,0 h 86.73 v 23.519 l -63.898,0.063 0.058,27.535 34.738,0.093 -0.117,23.426 -34.621,-0.058 v 19.859 l 62.129,0.059 -0.121,23.609 h -84.898 z m -413.75,21.898 c -18.961,0.301 -25.684,21.93 -25.684,35.578 0,12.602 4.648,23.641 9.328,29.012 4.981,5.672 10.473,7.976 15.93,7.976 15.453,0 25.59,-17.187 25.59,-35.457 0,-9.507 -2.246,-17.879 -5.7,-23.937 -5.461,-9.539 -12.355,-13.113 -19.464,-13.172 z M 241.461,116.438 h 86.82 v 23.667 l -63.48,-0.027 v 94.465 h -23.223 l -0.117,-118.105"
         style="fill:#231f20;fill-opacity:1;fill-rule:evenodd;stroke:none"
         id="path32" />
      <path
         d="m 537.645,470.863 h 86.699 v 23.52 l -63.899,0.062 0.059,27.535 34.711,0.09 -0.117,23.434 -34.563,-0.063 v 19.86 l 62.102,0.062 -0.121,23.61 h -84.871 z m 136.738,64.742 -0.028,29.305 33.868,0.121 v 0 c 7.652,0.032 14.281,-6.359 14.281,-14.703 0,-8.039 -6.297,-14.664 -14.16,-14.664 v 0 z m -22.856,-64.742 h 22.856 v 40.864 l 34.023,0.144 v 0 c 20.129,0.094 37.231,16.863 37.231,38.551 0,21.301 -16.891,38.551 -37.653,38.551 v 0 h -56.488 z m 140.364,0 h 22.922 l -0.028,94.532 31.887,-0.125 -0.027,23.703 h -86.793 l -0.028,-23.672 32.039,-0.09 z m 72.543,0 h 86.726 v 23.52 l -63.93,0.062 0.063,27.535 34.738,0.09 -0.121,23.434 -34.586,-0.063 v 19.86 l 62.129,0.062 -0.121,23.61 h -84.898 z m -573.563,0 h 27.418 l 24.391,40.231 24.328,-40.231 h 27.207 l -37.891,62.668 33.574,55.442 H 362.266 L 342.559,556.27 322.938,588.973 H 295.43 l 33.508,-55.352 z m 196.344,35.309 c -3.57,-5.938 -9.211,-10.649 -13.77,-12.602 -3.058,-1.32 -6.328,-1.945 -9.656,-1.945 -15.934,0 -22.414,13.797 -22.746,14.367 -3.387,5.973 -5.309,12.211 -5.309,23.25 0,14.039 4.082,23.879 8.371,29.25 5.461,6.84 12.872,10.141 19.829,10.141 5.402,0 10.832,-1.77 15.871,-5.758 2.82,-2.254 5.191,-4.949 7.05,-8.043 v 0 l 20.43,10.438 v 0 c -10.289,16.14 -27.601,25.324 -44.609,25.324 -13.262,0 -26.25,-5.762 -34.738,-14.91 -7.684,-8.254 -14.883,-24.301 -14.883,-45.211 0,-20.008 6.425,-35.785 13.414,-44.344 8.906,-10.977 21.418,-16.914 36.176,-16.914 12.093,0 22.71,3.988 32.039,11.637 5.074,4.14 9.332,9.242 12.574,14.972 v 0 z M 186.41,470.863 h 86.731 v 23.52 l -63.93,0.062 0.059,27.535 34.738,0.09 -0.117,23.434 -34.59,-0.063 v 19.86 l 62.129,0.062 -0.121,23.61 H 186.41 v -118.11"
         style="fill:#231f20;fill-opacity:1;fill-rule:evenodd;stroke:none"
         id="path34" />
      <path
         d="M 902.199,622.602 887.367,601.25 h 31.203 l 19.45,21.352 h -35.821"
         style="fill:#231f20;fill-opacity:1;fill-rule:evenodd;stroke:none"
         id="path36" />
    </g>
  </g>
</svg>
