<?xml version="1.0" encoding="UTF-8" standalone="no"?>
<!-- Created with Inkscape (http://www.inkscape.org/) -->

<svg
   version="1.1"
   id="svg2"
   width="190.66667"
   height="192"
   viewBox="0 0 190.66667 192"
   sodipodi:docname="P-200-2(6).eps"
   xmlns:inkscape="http://www.inkscape.org/namespaces/inkscape"
   xmlns:sodipodi="http://sodipodi.sourceforge.net/DTD/sodipodi-0.dtd"
   xmlns="http://www.w3.org/2000/svg"
   xmlns:svg="http://www.w3.org/2000/svg">
  <defs
     id="defs6" />
  <sodipodi:namedview
     id="namedview4"
     pagecolor="#ffffff"
     bordercolor="#000000"
     borderopacity="0.25"
     inkscape:showpageshadow="2"
     inkscape:pageopacity="0.0"
     inkscape:pagecheckerboard="0"
     inkscape:deskcolor="#d1d1d1" />
  <g
     id="g8"
     inkscape:groupmode="layer"
     inkscape:label="ink_ext_XXXXXX"
     transform="matrix(1.3333333,0,0,-1.3333333,0,192)">
    <g
       id="g10"
       transform="scale(0.1)">
      <path
         d="M 4.16016,60.5117 V 1378.11 c 0,28.8 24.48044,53.28 54.71874,53.28 H 1375.04 c 28.8,0 53.28,-24.48 53.28,-53.28 V 61.9492 c 0,-30.2383 -24.48,-54.71873 -53.28,-54.71873 H 58.8789 C 28.6406,7.23047 4.16016,31.7109 4.16016,60.5117"
         style="fill:#ffffff;fill-opacity:1;fill-rule:evenodd;stroke:none"
         id="path12" />
      <path
         d="M 4.16016,60.5117 V 1378.11 c 0,28.8 24.48044,53.28 54.71874,53.28 H 1375.04 c 28.8,0 53.28,-24.48 53.28,-53.28 V 61.9492 c 0,-30.2383 -24.48,-54.71873 -53.28,-54.71873 H 58.8789 C 28.6406,7.23047 4.16016,31.7109 4.16016,60.5117 Z"
         style="fill:none;stroke:#231f20;stroke-width:2.16;stroke-linecap:butt;stroke-linejoin:miter;stroke-miterlimit:2.6131;stroke-dasharray:none;stroke-opacity:1"
         id="path14" />
      <path
         d="m 17.2422,60.332 c 0,-22.1718 17.8476,-40.0195 40.0195,-40.0195 H 1375.48 c 22.1,0 40.01,17.8477 40.01,40.0195 V 1378.55 c 0,22.1 -17.91,40.01 -40.01,40.01 H 57.2617 c -22.1719,0 -40.0195,-17.91 -40.0195,-40.01 V 60.332"
         style="fill:#231f20;fill-opacity:1;fill-rule:evenodd;stroke:none"
         id="path16" />
      <path
         d="M 45.4922,60.3203 V 1378.53 c 0,6.45 5.25,11.76 11.7578,11.76 h 1318.21 c 6.45,0 11.76,-5.31 11.76,-11.76 V 60.3203 c 0,-6.5078 -5.31,-11.7578 -11.76,-11.7578 H 57.25 c -6.5078,0 -11.7578,5.25 -11.7578,11.7578"
         style="fill:#ffffff;fill-opacity:1;fill-rule:evenodd;stroke:none"
         id="path18" />
      <path
         d="m 847.707,220.898 18.379,0.012 V 368.039 H 612.742 V 220.91 l 17.836,-0.012 v -6.015 H 595.52 l -0.051,153.18 H 285.91 V 220.91 h 46.528 v -6.019 l -57.829,-0.008 c -4.699,0 -8.5,3.75 -8.5,8.437 v 93.891 l -80.8,0.019 c -6.137,0.032 -9.289,-3.429 -10.629,-8.21 l -9.223,-33.079 c -0.328,-2.699 -2.859,-5.121 -5.516,-5.211 h -18.3 c -8.762,0 -11.321,-3.921 -11.321,-8.648 l 0.133,-70.652 h -5.332 l -0.031,-13.969 h 15.699 c 0.039,2 0.242,4.059 0.691,6.09 3.243,15.238 16.817,25.73 31.891,25.73 2.27,0 4.539,-0.179 6.801,-0.718 15.047,-3.153 25.398,-16.36 25.769,-31.102 l 100.317,0.211 v 0 c 0,2.246 0.191,4.57 0.672,6.859 1.488,7.071 5.238,13.16 10.39,17.629 l 0.012,0.02 c 5.746,4.992 13.246,8.242 21.391,8.242 0.289,0 0.578,-0.02 0.855,-0.02 8.031,-0.199 15.582,-3.562 21.152,-8.55 6.7,-6.102 10.739,-15.032 10.739,-24.391 h 33.492 v 10.102 l -27.262,27.328 H 345.25 l -0.008,6.007 166.297,0.063 v -0.063 -18.507 h 20.801 c 5.738,5 13.258,8.25 21.402,8.25 0.289,0 0.578,-0.012 0.856,-0.012 8.031,-0.207 15.414,-3.219 20.984,-8.207 h 40.457 c 5.75,5.008 13.301,8.219 21.441,8.219 0.29,0 0.579,-0.012 0.86,-0.012 8.031,-0.207 15.121,-3.219 20.691,-8.207 h 20.059 v 12.461 h -35.578 v 6.015 h 120.347 v -18.289 h 20.789 c 5.747,5.012 13.27,8.262 21.399,8.262 0.293,0 0.59,-0.019 0.859,-0.019 8.043,-0.211 15.332,-3.34 20.903,-8.332 l 19.968,0.07 -0.07,18.308"
         style="fill:#231f20;fill-opacity:1;fill-rule:evenodd;stroke:none"
         id="path20" />
      <path
         d="m 332.832,544.18 -58.102,0.09 c -4.703,0 -8.5,3.75 -8.5,8.441 v 93.891 l -80.8,0.019 c -6.141,0.027 -9.289,-3.422 -10.629,-8.219 l -9.219,-33.07 c -0.332,-2.703 -2.859,-5.121 -5.523,-5.211 h -18.297 c -8.762,0 -11.321,-3.918 -11.321,-8.652 l 0.129,-70.656 h -5.328 l -0.031,-13.922 h 15.699 c 0.051,1.961 0.238,4.039 0.692,6.05 3.238,15.25 16.82,25.739 31.886,25.739 2.274,0 4.543,-0.188 6.801,-0.719 15.051,-3.148 25.402,-16.359 25.77,-31.098 l 100.441,0.028 -0.121,0.168 c 0,2.254 0.191,4.582 0.672,6.863 1.488,7.066 5.238,13.16 10.39,17.637 l 0.008,0.011 c 5.754,4.989 13.25,8.243 21.391,8.243 0.289,0 0.582,-0.012 0.859,-0.012 0.34,-0.02 0.699,-0.02 1.051,-0.059 7.629,-0.441 14.77,-3.73 20.102,-8.492 6.699,-6.109 10.738,-15.02 10.738,-24.359 h 33.492 v 10.289 l -27.269,27.109 -32.454,-0.109 -0.019,6.23 283.84,0.031 v -18.8 l 20.769,-0.008 c 5.742,5 13.258,8.246 21.391,8.246 0.301,0 0.59,-0.008 0.859,-0.008 8.039,-0.211 15.371,-3.238 20.942,-8.23 h 19.941 v 18.8 l 29.754,-0.05 V 697 H 286.098 V 550.391 h 46.734 v -6.211"
         style="fill:#231f20;fill-opacity:1;fill-rule:evenodd;stroke:none"
         id="path22" />
      <path
         d="m 462.078,838.105 -0.019,164.215 -224.239,0.02 0.02,-31.051 -47.141,-0.363 c -3.09,-0.09 -6.051,-1.238 -8.398,-3.238 -2.121,-1.821 -3.629,-4.262 -4.301,-6.961 l -8.562,-36.829 c -0.379,-1.781 -1.356,-3.371 -2.778,-4.5 -1.512,-1.21 -3.422,-1.789 -5.34,-1.679 l -23.871,-0.184 c -1.269,0.051 -2.527,-0.445 -3.429,-1.355 -0.911,-0.903 -1.411,-2.16 -1.34,-3.45 l -0.028,-60.664 -7.121,-0.031 -0.031,-14.988 h 13.18 c -0.242,20.57 16.359,37.371 36.922,37.441 20.566,0.063 37.269,-16.09 37.14,-36.769 l 148.856,0.019 c 0,20.551 16.66,37.18 37.203,37.16 20.351,-0.019 36.82,-16.421 37.051,-36.769 l 26.226,-0.024"
         style="fill:#231f20;fill-opacity:1;fill-rule:evenodd;stroke:none"
         id="path24" />
      <path
         d="m 303.559,1146.27 h 29.722 l 17.871,51.93 h 55.637 l 17.75,-51.93 h 29.559 l -61.508,179.5 h -27.719 l -61.312,-179.5"
         style="fill:#231f20;fill-opacity:1;fill-rule:evenodd;stroke:none"
         id="path26" />
      <path
         d="m 127.102,1146.27 h 28.199 v 103.75 l 41.64,-103.75 41.36,103.27 v -103.27 h 28.09 v 179.5 h -28.172 l -41.278,-103.59 -41.562,103.47 h -28.277 v -179.38"
         style="fill:#231f20;fill-opacity:1;fill-rule:evenodd;stroke:none"
         id="path28" />
      <path
         d="m 1167.53,1146.27 h 28.17 v 103.75 l 41.64,-103.75 41.36,103.27 v -103.27 h 28.12 v 179.5 h -28.2 l -41.28,-103.59 -41.56,103.47 h -28.25 v -179.38"
         style="fill:#231f20;fill-opacity:1;fill-rule:evenodd;stroke:none"
         id="path30" />
      <path
         d="m 766.859,1146.27 h 28.157 v 103.75 l 41.64,-103.75 41.371,103.27 v -103.27 h 28.118 v 179.5 h -28.2 l -41.289,-103.59 -41.558,103.47 h -28.239 v -179.38"
         style="fill:#231f20;fill-opacity:1;fill-rule:evenodd;stroke:none"
         id="path32" />
      <path
         d="m 978.707,1325.77 0.231,-130.16 c 2.039,-28.52 28.132,-53.41 59.162,-53.41 33.03,0 59.54,24.93 60.87,59.35 v 124.1 h -27.57 v -123.66 c 0,-16.95 -15.03,-31.95 -32.34,-31.95 -10.57,0 -21.22,5.35 -27.17,14.16 -3.47,5.15 -5.3,10.45 -5.54,18.59 v 122.98 h -27.643"
         style="fill:#231f20;fill-opacity:1;fill-rule:evenodd;stroke:none"
         id="path34" />
      <path
         d="m 491.07,1146.27 h 31.16 l 29.27,60.55 29.238,-60.55 h 31.16 l -44.796,92.86 41.918,86.52 h -31.231 l -26.41,-54.09 -26,54.21 h -31.07 l 41.562,-86.64 -44.801,-92.86"
         style="fill:#231f20;fill-opacity:1;fill-rule:evenodd;stroke:none"
         id="path36" />
      <path
         d="m 1096.37,154.574 h 31.71 l 24.17,74.789 23.7,-74.789 h 31.71 l -39.49,125.047 36.98,114.32 h -31.71 l -20.82,-64.621 -20.23,64.621 h -31.83 l 35.9,-114.441 -40.09,-124.926"
         style="fill:#231f20;fill-opacity:1;fill-rule:evenodd;stroke:none"
         id="path38" />
      <path
         d="m 967.855,810.746 h 31.711 l 24.214,74.793 23.7,-74.793 h 31.71 l -39.49,125.051 36.97,114.283 h -31.71 l -20.82,-64.623 -20.26,64.623 h -31.833 l 35.943,-114.4 -40.135,-124.934"
         style="fill:#231f20;fill-opacity:1;fill-rule:evenodd;stroke:none"
         id="path40" />
      <path
         d="m 966.418,154.574 h 31.711 l 24.211,74.789 23.7,-74.789 h 31.71 l -39.49,125.047 36.97,114.32 h -31.71 l -20.82,-64.621 -20.26,64.621 H 970.605 L 1006.55,279.5 966.418,154.574"
         style="fill:#231f20;fill-opacity:1;fill-rule:evenodd;stroke:none"
         id="path42" />
      <path
         d="m 1097.81,810.746 h 31.71 l 24.18,74.793 23.69,-74.793 h 31.71 l -39.49,125.051 36.98,114.283 h -31.71 l -20.83,-64.623 -20.22,64.623 H 1102 l 35.9,-114.4 -40.09,-124.934"
         style="fill:#231f20;fill-opacity:1;fill-rule:evenodd;stroke:none"
         id="path44" />
      <path
         d="m 1097.81,482.66 h 31.71 l 24.18,74.793 23.69,-74.793 h 31.71 l -39.49,125.09 36.98,114.277 h -31.71 l -20.83,-64.617 -20.22,64.617 H 1102 l 35.9,-114.394 -40.09,-124.973"
         style="fill:#231f20;fill-opacity:1;fill-rule:evenodd;stroke:none"
         id="path46" />
      <path
         d="m 967.855,482.66 h 31.711 l 24.214,74.793 23.7,-74.793 h 31.71 l -39.49,125.09 36.97,114.277 h -31.71 l -20.82,-64.617 -20.26,64.617 H 972.047 L 1007.99,607.633 967.855,482.66"
         style="fill:#231f20;fill-opacity:1;fill-rule:evenodd;stroke:none"
         id="path48" />
      <path
         d="m 175.52,868.059 c -16.528,0 -29.95,-13.442 -29.95,-29.954 0,-16.527 13.422,-29.976 29.95,-29.976 16.531,0 29.98,13.449 29.98,29.976 0,16.512 -13.449,29.954 -29.98,29.954"
         style="fill:#231f20;fill-opacity:1;fill-rule:evenodd;stroke:none"
         id="path50" />
      <path
         d="m 398.719,868.059 c -16.528,0 -29.981,-13.442 -29.981,-29.954 0,-16.527 13.453,-29.976 29.981,-29.976 16.511,0 29.953,13.449 29.953,29.976 0,16.512 -13.442,29.954 -29.953,29.954"
         style="fill:#231f20;fill-opacity:1;fill-rule:evenodd;stroke:none"
         id="path52" />
      <path
         d="m 1297.73,157.93 2.35,21.781 -1.63,-1.871 c -3.99,-4.711 -6.7,-5.469 -8.9,-5.469 -3.95,0 -8.25,3.109 -8.61,10.059 v 85.59 h 19.02 v 17.793 h -19.46 v 44.679 l -20.42,-13.519 V 285.73 h -14.56 v -17.71 h 14.71 v -85.79 c 0,-23.578 12.69,-32.75 23.14,-32.75 5.78,0 11.17,3.633 14.36,8.45"
         style="fill:#231f20;fill-opacity:1;fill-rule:evenodd;stroke:none"
         id="path54" />
      <path
         d="m 1297.73,816.207 2.35,21.82 -1.63,-1.918 c -3.99,-4.66 -6.7,-5.461 -8.9,-5.461 -3.95,0 -8.25,3.11 -8.61,10.051 v 85.641 h 19.02 v 17.75 h -19.46 v 44.719 l -20.42,-13.571 v -31.23 h -14.56 V 926.34 h 14.71 v -85.801 c 0,-23.57 12.69,-32.75 23.14,-32.75 5.78,0 11.17,3.59 14.36,8.418"
         style="fill:#231f20;fill-opacity:1;fill-rule:evenodd;stroke:none"
         id="path56" />
      <path
         d="m 1297.73,487.09 2.35,21.781 -1.63,-1.871 c -3.99,-4.711 -6.7,-5.469 -8.9,-5.469 -3.95,0 -8.25,3.11 -8.61,10.051 v 85.602 h 19.02 v 17.785 h -19.46 v 44.683 l -20.42,-13.519 v -31.242 h -14.56 v -17.707 h 14.71 v -85.805 c 0,-23.57 12.69,-32.738 23.14,-32.738 5.78,0 11.17,3.629 14.36,8.449"
         style="fill:#231f20;fill-opacity:1;fill-rule:evenodd;stroke:none"
         id="path58" />
      <path
         d="m 671.551,533.242 c -14.492,0.367 -26.602,-11.14 -27,-25.66 -0.371,-14.492 11.14,-26.602 25.66,-27 14.488,-0.371 26.598,11.141 27,25.66 0.367,14.488 -11.141,26.598 -25.66,27"
         style="fill:#231f20;fill-opacity:1;fill-rule:evenodd;stroke:none"
         id="path60" />
      <path
         d="m 343.762,532.711 c -14.293,2.941 -28.242,-6.133 -31.321,-20.277 -2.941,-14.293 6.129,-28.243 20.278,-31.321 14.289,-2.945 28.238,6.129 31.32,20.278 2.941,14.289 -6.129,28.238 -20.277,31.32"
         style="fill:#231f20;fill-opacity:1;fill-rule:evenodd;stroke:none"
         id="path62" />
      <path
         d="m 178.16,532.711 c -14.293,2.941 -28.242,-6.133 -31.32,-20.277 -2.942,-14.293 6.129,-28.243 20.281,-31.321 14.289,-2.945 28.238,6.129 31.32,20.278 2.938,14.289 -6.132,28.238 -20.281,31.32"
         style="fill:#231f20;fill-opacity:1;fill-rule:evenodd;stroke:none"
         id="path64" />
      <path
         d="m 806.906,203.48 c -14.488,0.372 -26.597,-11.14 -26.996,-25.66 -0.375,-14.488 11.137,-26.597 25.656,-27 14.493,-0.371 26.602,11.141 27,25.66 0.372,14.493 -11.14,26.602 -25.66,27"
         style="fill:#231f20;fill-opacity:1;fill-rule:evenodd;stroke:none"
         id="path66" />
      <path
         d="m 178.16,202.953 c -14.293,2.938 -28.242,-6.133 -31.32,-20.281 -2.942,-14.293 6.129,-28.242 20.281,-31.32 14.289,-2.942 28.238,6.128 31.32,20.281 2.938,14.289 -6.132,28.238 -20.281,31.32"
         style="fill:#231f20;fill-opacity:1;fill-rule:evenodd;stroke:none"
         id="path68" />
      <path
         d="m 343.762,202.953 c -14.293,2.938 -28.242,-6.133 -31.321,-20.281 -2.941,-14.293 6.129,-28.242 20.278,-31.32 14.289,-2.942 28.238,6.128 31.32,20.281 2.941,14.289 -6.129,28.238 -20.277,31.32"
         style="fill:#231f20;fill-opacity:1;fill-rule:evenodd;stroke:none"
         id="path70" />
      <path
         d="m 553.473,204.922 c -14.493,0.367 -26.602,-11.141 -27,-25.66 -0.371,-14.492 11.136,-26.602 25.656,-27 14.492,-0.371 26.601,11.14 27,25.66 0.371,14.488 -11.141,26.598 -25.656,27"
         style="fill:#231f20;fill-opacity:1;fill-rule:evenodd;stroke:none"
         id="path72" />
      <path
         d="m 636.992,203.48 c -14.492,0.372 -26.601,-11.14 -27,-25.66 -0.371,-14.488 11.141,-26.597 25.656,-27 14.493,-0.371 26.602,11.141 27,25.66 0.372,14.493 -11.136,26.602 -25.656,27"
         style="fill:#231f20;fill-opacity:1;fill-rule:evenodd;stroke:none"
         id="path74" />
      <path
         d="m 227.141,917.176 h -42.813 c -1.558,0 -3.027,0.711 -3.98,1.941 -0.95,1.211 -1.289,2.77 -0.95,4.262 l 7.934,34.199 c 0.238,0.82 0.727,1.527 1.398,2.07 0.672,0.54 1.52,0.872 2.379,0.911 l 36.059,0.148 -0.027,-43.531"
         style="fill:#ffffff;fill-opacity:1;fill-rule:evenodd;stroke:none"
         id="path76" />
      <path
         d="M 219.543,271.281 H 181.59 c -2.84,-0.07 -4.86,2.871 -4.211,5.477 l 5.812,24.113 c 1.309,4.629 3.59,5.25 7.368,5.379 h 28.984 v -34.969"
         style="fill:#ffffff;fill-opacity:1;fill-rule:evenodd;stroke:none"
         id="path78" />
      <path
         d="M 219.543,601.039 H 181.59 c -2.84,-0.066 -4.86,2.871 -4.211,5.481 l 5.812,24.113 c 1.309,4.629 3.59,5.25 7.368,5.379 h 28.984 v -34.973"
         style="fill:#ffffff;fill-opacity:1;fill-rule:evenodd;stroke:none"
         id="path80" />
      <path
         d="m 360.559,1226.05 18.39,53.84 18.231,-53.84 z"
         style="fill:#ffffff;fill-opacity:1;fill-rule:evenodd;stroke:none"
         id="path82" />
      <path
         d="m 664.91,1146.27 h 27.922 v 179.5 H 664.91 v -179.5"
         style="fill:#231f20;fill-opacity:1;fill-rule:evenodd;stroke:none"
         id="path84" />
      <path
         d="m 511.602,180.871 c 0,-0.07 0,-0.129 0,-0.219"
         style="fill:none;stroke:#5b1808;stroke-width:2.16;stroke-linecap:butt;stroke-linejoin:miter;stroke-miterlimit:2.6131;stroke-dasharray:none;stroke-opacity:1"
         id="path86" />
    </g>
  </g>
</svg>
