<?xml version="1.0" encoding="UTF-8" standalone="no"?>
<!-- Created with Inkscape (http://www.inkscape.org/) -->

<svg
   version="1.1"
   id="svg2"
   width="121.33333"
   height="152"
   viewBox="0 0 121.33333 152"
   sodipodi:docname="P-120-12-D(6).eps"
   xmlns:inkscape="http://www.inkscape.org/namespaces/inkscape"
   xmlns:sodipodi="http://sodipodi.sourceforge.net/DTD/sodipodi-0.dtd"
   xmlns="http://www.w3.org/2000/svg"
   xmlns:svg="http://www.w3.org/2000/svg">
  <defs
     id="defs6" />
  <sodipodi:namedview
     id="namedview4"
     pagecolor="#ffffff"
     bordercolor="#000000"
     borderopacity="0.25"
     inkscape:showpageshadow="2"
     inkscape:pageopacity="0.0"
     inkscape:pagecheckerboard="0"
     inkscape:deskcolor="#d1d1d1" />
  <g
     id="g8"
     inkscape:groupmode="layer"
     inkscape:label="ink_ext_XXXXXX"
     transform="matrix(1.3333333,0,0,-1.3333333,0,152)">
    <g
       id="g10"
       transform="scale(0.1)">
      <path
         d="M 6.87891,76.2656 V 1058.16 c 0,40.45 32.78129,73.31 73.26949,73.31 H 835.469 c 40.445,0 73.297,-32.86 73.297,-73.31 V 76.2656 C 908.766,35.7734 875.914,3 835.469,3 H 80.1484 C 39.6602,3 6.87891,35.7734 6.87891,76.2656"
         style="fill:#ffffff;fill-opacity:1;fill-rule:evenodd;stroke:none"
         id="path12" />
      <path
         d="M 6.87891,76.2656 V 1058.16 c 0,40.45 32.78129,73.31 73.26949,73.31 H 835.469 c 40.445,0 73.297,-32.86 73.297,-73.31 V 76.2656 C 908.766,35.7734 875.914,3 835.469,3 H 80.1484 C 39.6602,3 6.87891,35.7734 6.87891,76.2656 Z"
         style="fill:none;stroke:#231f20;stroke-width:2.16;stroke-linecap:butt;stroke-linejoin:miter;stroke-miterlimit:22.9256;stroke-dasharray:none;stroke-opacity:1"
         id="path14" />
      <path
         d="m 20.4023,76.3008 c 0,-33.5391 27.1485,-60.6875 60.6875,-60.6875 H 836.371 c 33.5,0 60.645,27.1484 60.645,60.6875 V 1058.16 c 0,33.5 -27.145,60.65 -60.645,60.65 H 81.0898 c -33.539,0 -60.6875,-27.15 -60.6875,-60.65 V 76.3008"
         style="fill:#231f20;fill-opacity:1;fill-rule:evenodd;stroke:none"
         id="path16" />
      <path
         d="M 42.7227,76.3008 V 1058.16 c 0,21.15 17.1796,38.33 38.3671,38.33 H 836.371 c 21.145,0 38.328,-17.18 38.328,-38.33 V 76.3008 c 0,-21.1836 -17.183,-38.3672 -38.328,-38.3672 H 81.0898 c -21.1875,0 -38.3671,17.1836 -38.3671,38.3672"
         style="fill:#ffffff;fill-opacity:1;fill-rule:evenodd;stroke:none"
         id="path18" />
      <path
         d="m 655.199,984.598 c -108.707,108.692 -284.953,108.692 -393.664,0 -108.687,-108.723 -108.687,-284.977 0,-393.703 108.711,-108.688 284.957,-108.688 393.664,0 108.688,108.726 108.688,284.98 0,393.703"
         style="fill:#009270;fill-opacity:1;fill-rule:evenodd;stroke:none"
         id="path20" />
      <path
         d="m 458.367,1008.35 c 121.817,0 220.586,-98.78 220.586,-220.604 0,-121.82 -98.769,-220.598 -220.586,-220.598 -121.82,0 -220.586,98.778 -220.586,220.598 0,121.824 98.766,220.604 220.586,220.604"
         style="fill:#ffffff;fill-opacity:1;fill-rule:evenodd;stroke:none"
         id="path22" />
      <path
         d="m 627.719,717.109 -0.028,172.207 -235.144,0.024 0.019,-32.559 -49.433,-0.383 c -3.238,-0.093 -6.336,-1.293 -8.809,-3.402 -2.219,-1.898 -3.804,-4.457 -4.511,-7.293 l -8.969,-38.629 c -0.406,-1.855 -1.426,-3.531 -2.922,-4.707 -1.586,-1.273 -3.578,-1.883 -5.598,-1.769 l -25.031,-0.184 c -1.34,0.043 -2.652,-0.469 -3.602,-1.426 -0.949,-0.953 -1.472,-2.265 -1.402,-3.625 l -0.027,-63.617 -7.477,-0.019 -0.019,-15.731 h 13.816 c -0.25,21.57 17.152,39.199 38.719,39.27 21.57,0.062 39.078,-16.879 38.941,-38.563 l 156.11,0.024 c 0,21.546 17.464,38.992 39.011,38.964 21.336,-0.023 38.602,-17.214 38.852,-38.554 l 27.504,-0.028"
         style="fill:#231f20;fill-opacity:1;fill-rule:evenodd;stroke:none"
         id="path24" />
      <path
         d="m 511.551,193.668 -8.789,32.602 c -1.93,4.23 -0.918,9.218 2.476,12.363 3.821,3.543 9.625,3.844 13.789,0.719 L 620.766,165.73 518.934,92.6055 c -3.825,-2.8711 -9.106,-2.8516 -12.875,0.0859 -3.633,2.8281 -5.036,7.6836 -3.465,11.9926 l 8.73,32.566 -214.687,-0.094 0.078,56.453 214.836,0.079 v -0.02"
         style="fill:#231f20;fill-opacity:1;fill-rule:evenodd;stroke:none"
         id="path26" />
      <path
         d="m 304.438,293.285 h 25 l 15.031,43.735 h 46.828 l 14.957,-43.735 h 24.844 L 379.367,444.34 h -23.34 L 304.438,293.285"
         style="fill:#231f20;fill-opacity:1;fill-rule:evenodd;stroke:none"
         id="path28" />
      <path
         d="m 579.02,331.125 c 0.191,-0.453 0.343,-0.902 0.527,-1.355 l 1.285,-2.954 c 10.43,-23.902 31.082,-36.738 54.191,-36.738 7.329,0 12.165,1.094 15.598,2.527 18.172,7.176 29.762,24.774 29.762,42.973 0,11.41 -3.512,21.301 -10.949,30.512 -7.141,8.84 -15.598,14.918 -36.711,18.887 -8.762,1.664 -14.125,2.152 -17.598,4.91 -3.137,2.418 -5.324,6.758 -5.324,11.816 0,11.934 9.59,21.641 22.129,21.641 11.476,0 17.863,-6.719 21.793,-16.621 l 22.129,7.629 c -6.383,20.132 -23.832,32.898 -44.262,32.898 -24.582,0 -45.809,-21.719 -45.809,-45.316 0,-9.704 4.008,-20.059 10.914,-27.383 5.172,-5.508 12.801,-10.192 27.039,-12.457 5.102,-0.867 10.309,-1.059 15.184,-2.723 10.988,-3.738 17.934,-13.516 17.934,-23.832 0,-11.703 -10.532,-22.121 -22.317,-22.121 -13.707,0 -26.586,7.965 -33.156,24.809 l -22.359,-7.102"
         style="fill:#231f20;fill-opacity:1;fill-rule:evenodd;stroke:none"
         id="path30" />
      <path
         d="m 448.176,293.285 h 23.148 v 103.172 l 58.078,-103.172 h 20.012 V 444.34 h -23.258 v -96.52 l -54.23,96.52 h -23.75 V 293.285"
         style="fill:#231f20;fill-opacity:1;fill-rule:evenodd;stroke:none"
         id="path32" />
      <path
         d="M 186.387,293.285 H 209.5 v 66.235 h 28.625 l 24.168,-66.235 h 25.152 l -25.906,70.695 c 15.75,8.684 22.926,21.075 22.926,37.309 0,23.039 -16.578,41.691 -43.547,43.051 H 186.387 V 293.285"
         style="fill:#231f20;fill-opacity:1;fill-rule:evenodd;stroke:none"
         id="path34" />
      <path
         d="m 787.785,293.285 h 23.867 v 129.832 h 33.911 v 21.223 h -91.922 v -21.379 h 34.144 V 293.285"
         style="fill:#231f20;fill-opacity:1;fill-rule:evenodd;stroke:none"
         id="path36" />
      <path
         d="m 107.121,293.285 h 23.867 v 129.832 h 33.918 V 444.34 H 72.9844 V 422.961 H 107.121 V 293.285"
         style="fill:#231f20;fill-opacity:1;fill-rule:evenodd;stroke:none"
         id="path38" />
      <path
         d="m 327.051,748.523 c -17.336,0 -31.403,-14.097 -31.403,-31.414 0,-17.339 14.067,-31.437 31.403,-31.437 17.34,0 31.441,14.098 31.441,31.437 0,17.317 -14.101,31.414 -31.441,31.414"
         style="fill:#231f20;fill-opacity:1;fill-rule:evenodd;stroke:none"
         id="path40" />
      <path
         d="m 561.609,748.523 c -17.339,0 -31.441,-14.097 -31.441,-31.414 0,-17.339 14.102,-31.437 31.441,-31.437 17.309,0 31.407,14.098 31.407,31.437 0,17.317 -14.098,31.414 -31.407,31.414"
         style="fill:#231f20;fill-opacity:1;fill-rule:evenodd;stroke:none"
         id="path42" />
      <path
         d="m 381.164,800.289 h -44.906 c -1.625,0 -3.168,0.746 -4.16,2.043 -1,1.266 -1.368,2.902 -1,4.457 l 8.312,35.867 c 0.25,0.864 0.774,1.61 1.473,2.18 0.707,0.562 1.586,0.902 2.496,0.949 l 37.809,0.156 -0.024,-45.652"
         style="fill:#ffffff;fill-opacity:1;fill-rule:evenodd;stroke:none"
         id="path44" />
      <path
         d="m 209.875,383.012 v 37.84 h 35.203 c 6.758,0 15.895,-8.461 15.895,-18.579 0,-10.804 -8.004,-18.734 -16.5,-19.261 h -34.598"
         style="fill:#ffffff;fill-opacity:1;fill-rule:evenodd;stroke:none"
         id="path46" />
      <path
         d="m 352.398,360.434 15.485,45.308 15.328,-45.308 z"
         style="fill:#ffffff;fill-opacity:1;fill-rule:evenodd;stroke:none"
         id="path48" />
      <path
         d="m 708.668,293.285 h 23.488 V 444.34 H 708.668 V 293.285"
         style="fill:#231f20;fill-opacity:1;fill-rule:evenodd;stroke:none"
         id="path50" />
    </g>
  </g>
</svg>
