<?xml version="1.0" encoding="UTF-8" standalone="no"?>
<!-- Created with Inkscape (http://www.inkscape.org/) -->

<svg
   width="900"
   height="900"
   viewBox="0 0 238.125 238.125"
   version="1.1"
   id="svg5"
   inkscape:version="1.1.2 (b8e25be833, 2022-02-05)"
   sodipodi:docname="abreuvoir.svg"
   xmlns:inkscape="http://www.inkscape.org/namespaces/inkscape"
   xmlns:sodipodi="http://sodipodi.sourceforge.net/DTD/sodipodi-0.dtd"
   xmlns="http://www.w3.org/2000/svg"
   xmlns:svg="http://www.w3.org/2000/svg">
  <sodipodi:namedview
     id="namedview7"
     pagecolor="#ffffff"
     bordercolor="#999999"
     borderopacity="1"
     inkscape:pageshadow="0"
     inkscape:pageopacity="0"
     inkscape:pagecheckerboard="0"
     inkscape:document-units="px"
     showgrid="false"
     units="px"
     inkscape:zoom="0.61580177"
     inkscape:cx="488.79366"
     inkscape:cy="327.21569"
     inkscape:window-width="1920"
     inkscape:window-height="1001"
     inkscape:window-x="-9"
     inkscape:window-y="-9"
     inkscape:window-maximized="1"
     inkscape:current-layer="layer1" />
  <defs
     id="defs2">
    <mask
       id="custom">
      <rect
         id="bg"
         x="0"
         y="0"
         width="100%"
         height="100%"
         fill="#ffffff" />
      <g
         transform="matrix(1.3333333,0,0,-1.3333333,0,682.66667)"
         id="g8">
        <path
           transform="translate(467.3467,58)"
           d="M 0,0 -118.347,340.069 -156.46,327.931 -41.979,0 Z"
           style="fill:#ffffff;fill-opacity:1;fill-rule:nonzero;stroke:none"
           id="path2030" />
        <path
           transform="translate(86.6328,58)"
           d="M 0,0 114.48,327.931 76.367,340.069 -41.979,0 Z"
           style="fill:#ffffff;fill-opacity:1;fill-rule:nonzero;stroke:none"
           id="path2034" />
      </g>
    </mask>
    <clipPath
       clipPathUnits="userSpaceOnUse"
       id="clipPath2018">
      <path
         d="M 0,512 H 512 V 0 H 0 Z"
         id="path2016" />
    </clipPath>
  </defs>
  <g
     inkscape:label="Calque 1"
     inkscape:groupmode="layer"
     id="layer1">
    <circle
       style="opacity:1;fill:#9ac7f1;fill-opacity:1;stroke:#ffffff;stroke-width:5.41472;stroke-miterlimit:4;stroke-dasharray:none;stroke-opacity:1"
       id="path850"
       cx="119.0625"
       cy="119.0625"
       r="116.35514" />
    <g
       id="g878"
       transform="matrix(0.29901479,0,0,0.29901479,42.514714,42.514714)">
      <g
         id="g6">
        <g
           id="g4">
          <path
             d="m 362.731,148.036 v -25.201 c 0,-8.284 -6.716,-15 -15,-15 -8.284,0 -15,6.716 -15,15 v 13.598 c -3.018,-0.404 -6.09,-0.632 -9.216,-0.632 h -57.1 V 108.056 H 113.477 v 274.135 h 152.937 v -159.47 h 59.205 v 13.563 c 0,8.284 6.716,15 15,15 8.284,0 15,-6.716 15,-15 v -13.563 h 22.063 c 8.284,0 15,-6.716 15,-15 v -2.752 c 0,-23.586 -11.875,-44.442 -29.951,-56.933 z"
             id="path2" />
        </g>
      </g>
      <path
         d="m 205.317,0 h -30.743 c -33.689,0 -61.097,27.408 -61.097,61.097 v 12.855 4.104 H 266.414 V 73.953 61.097 C 266.414,27.408 239.006,0 205.317,0 Z"
         id="path8" />
      <g
         id="g18">
        <g
           id="g16">
          <path
             d="M 405.718,412.192 H 106.282 v 0 c -7.241,1.064 -12.806,7.285 -12.806,14.822 V 497 c 0,8.284 6.716,15 15,15 h 20.001 122.937 109.899 c 31.546,0 57.211,-25.665 57.211,-57.211 v -27.775 c 0,-7.537 -5.565,-13.758 -12.806,-14.822 z"
             id="path14" />
        </g>
      </g>
    </g>
  </g>
</svg>
