<?xml version="1.0" encoding="UTF-8" standalone="no"?>
<!-- Created with Inkscape (http://www.inkscape.org/) -->

<svg
   width="900"
   height="900"
   viewBox="0 0 238.125 238.125"
   version="1.1"
   id="svg5"
   inkscape:version="1.1.2 (b8e25be833, 2022-02-05)"
   sodipodi:docname="table_picnic.svg"
   xmlns:inkscape="http://www.inkscape.org/namespaces/inkscape"
   xmlns:sodipodi="http://sodipodi.sourceforge.net/DTD/sodipodi-0.dtd"
   xmlns="http://www.w3.org/2000/svg"
   xmlns:svg="http://www.w3.org/2000/svg">
  <sodipodi:namedview
     id="namedview7"
     pagecolor="#ffffff"
     bordercolor="#999999"
     borderopacity="1"
     inkscape:pageshadow="0"
     inkscape:pageopacity="0"
     inkscape:pagecheckerboard="0"
     inkscape:document-units="px"
     showgrid="false"
     units="px"
     inkscape:zoom="0.61580177"
     inkscape:cx="488.79366"
     inkscape:cy="327.21569"
     inkscape:window-width="1920"
     inkscape:window-height="1001"
     inkscape:window-x="-9"
     inkscape:window-y="-9"
     inkscape:window-maximized="1"
     inkscape:current-layer="layer1" />
  <defs
     id="defs2">
    <mask
       id="custom">
      <rect
         id="bg"
         x="0"
         y="0"
         width="100%"
         height="100%"
         fill="#ffffff" />
      <g
         transform="matrix(1.3333333,0,0,-1.3333333,0,682.66667)"
         id="g8">
        <path
           transform="translate(467.3467,58)"
           d="M 0,0 -118.347,340.069 -156.46,327.931 -41.979,0 Z"
           style="fill:#ffffff;fill-opacity:1;fill-rule:nonzero;stroke:none"
           id="path2030" />
        <path
           transform="translate(86.6328,58)"
           d="M 0,0 114.48,327.931 76.367,340.069 -41.979,0 Z"
           style="fill:#ffffff;fill-opacity:1;fill-rule:nonzero;stroke:none"
           id="path2034" />
      </g>
    </mask>
    <clipPath
       clipPathUnits="userSpaceOnUse"
       id="clipPath2018">
      <path
         d="M 0,512 H 512 V 0 H 0 Z"
         id="path2016" />
    </clipPath>
  </defs>
  <g
     inkscape:label="Calque 1"
     inkscape:groupmode="layer"
     id="layer1">
    <circle
       style="opacity:1;fill:#c3c84a;fill-opacity:1;stroke:#ffffff;stroke-width:5.41472;stroke-miterlimit:4;stroke-dasharray:none;stroke-opacity:1"
       id="path850"
       cx="119.0625"
       cy="119.0625"
       r="116.35514" />
    <g
       id="g4"
       transform="matrix(0.30294847,0,0,0.30294847,41.507692,41.507843)">
      <path
         d="m 497,266.002 h -60 v -50 h 45 c 8.28,0 15,-6.71 15,-15 v -110 c 0,-8.28 -6.72,-15 -15,-15 H 30 c -8.28,0 -15,6.72 -15,15 v 110 c 0,8.29 6.72,15 15,15 h 45 v 50 H 15 c -8.28,0 -15,6.72 -15,15 v 60 c 0,8.28 6.72,15 15,15 h 15 v 64.995 c 0,8.284 6.716,15 15,15 8.284,0 15,-6.716 15,-15 v -64.995 h 392 v 64.995 c 0,8.284 6.716,15 15,15 8.284,0 15,-6.716 15,-15 v -64.995 h 15 c 8.28,0 15,-6.72 15,-15 v -60 c 0,-8.28 -6.72,-15 -15,-15 z m -75,-135 c 8.28,0 15,6.72 15,15 0,8.29 -6.72,15 -15,15 -8.28,0 -15,-6.71 -15,-15 0,-8.28 6.72,-15 15,-15 z m -332,0 c 8.28,0 15,6.72 15,15 0,8.29 -6.72,15 -15,15 -8.28,0 -15,-6.71 -15,-15 0,-8.28 6.72,-15 15,-15 z m 15,85 h 302 v 50 H 105 Z"
         id="path2" />
    </g>
  </g>
</svg>
