<?xml version="1.0" encoding="UTF-8" standalone="no"?>
<!-- Created with Inkscape (http://www.inkscape.org/) -->

<svg
   width="900"
   height="900"
   viewBox="0 0 238.125 238.125"
   version="1.1"
   id="svg5"
   inkscape:version="1.1.2 (b8e25be833, 2022-02-05)"
   sodipodi:docname="decoratif_accroche_noir.svg"
   xmlns:inkscape="http://www.inkscape.org/namespaces/inkscape"
   xmlns:sodipodi="http://sodipodi.sourceforge.net/DTD/sodipodi-0.dtd"
   xmlns="http://www.w3.org/2000/svg"
   xmlns:svg="http://www.w3.org/2000/svg">
  <sodipodi:namedview
     id="namedview7"
     pagecolor="#ffffff"
     bordercolor="#999999"
     borderopacity="1"
     inkscape:pageshadow="0"
     inkscape:pageopacity="0"
     inkscape:pagecheckerboard="0"
     inkscape:document-units="px"
     showgrid="false"
     units="px"
     inkscape:zoom="0.61580177"
     inkscape:cx="488.79366"
     inkscape:cy="327.21569"
     inkscape:window-width="1920"
     inkscape:window-height="1001"
     inkscape:window-x="-9"
     inkscape:window-y="-9"
     inkscape:window-maximized="1"
     inkscape:current-layer="layer1" />
  <defs
     id="defs2">
    <mask
       id="custom">
      <rect
         id="bg"
         x="0"
         y="0"
         width="100%"
         height="100%"
         fill="#ffffff" />
      <g
         transform="matrix(1.3333333,0,0,-1.3333333,0,682.66667)"
         id="g8">
        <path
           transform="translate(467.3467,58)"
           d="M 0,0 -118.347,340.069 -156.46,327.931 -41.979,0 Z"
           style="fill:#ffffff;fill-opacity:1;fill-rule:nonzero;stroke:none"
           id="path2030" />
        <path
           transform="translate(86.6328,58)"
           d="M 0,0 114.48,327.931 76.367,340.069 -41.979,0 Z"
           style="fill:#ffffff;fill-opacity:1;fill-rule:nonzero;stroke:none"
           id="path2034" />
      </g>
    </mask>
    <clipPath
       clipPathUnits="userSpaceOnUse"
       id="clipPath2018">
      <path
         d="M 0,512 H 512 V 0 H 0 Z"
         id="path2016" />
    </clipPath>
  </defs>
  <g
     inkscape:label="Calque 1"
     inkscape:groupmode="layer"
     id="layer1">
    <circle
       style="opacity:1;fill:#4ac871;fill-opacity:1;stroke:#ffffff;stroke-width:5.41472;stroke-miterlimit:4;stroke-dasharray:none;stroke-opacity:1"
       id="path850"
       cx="119.0625"
       cy="119.0625"
       r="116.35514" />
    <g
       id="g14"
       transform="matrix(0.29362552,0,0,0.29362552,43.894367,43.894514)">
      <path
         d="m 64.267,207.8 c 0,-30.419 24.748,-55.167 55.167,-55.167 H 174.6 v -57.3 c 0,-8.284 -6.716,-15 -15,-15 H 15 c -8.284,0 -15,6.716 -15,15 v 321.333 c 0,8.284 6.716,15 15,15 h 144.6 c 8.284,0 15,-6.716 15,-15 v -153.7 H 119.434 C 89.015,262.967 64.267,238.219 64.267,207.8 Z"
         id="path2" />
      <path
         d="m 94.267,207.8 c 0,13.877 11.29,25.167 25.167,25.167 13.877,0 25.166,-11.29 25.166,-25.167 0,-13.877 -11.289,-25.167 -25.166,-25.167 -13.877,0 -25.167,11.29 -25.167,25.167 z"
         id="path4" />
      <path
         d="m 382.713,182.634 -50.333,50.333 h 53.973 l 50.333,-50.333 z"
         id="path6" />
      <path
         d="m 286.312,182.634 -50.333,50.333 h 53.975 l 50.333,-50.333 z"
         id="path8" />
      <path
         d="m 168.5,182.634 c 3.889,7.552 6.1,16.103 6.1,25.166 0,9.063 -2.211,17.615 -6.1,25.167 h 25.054 l 50.333,-50.333 z"
         id="path10" />
      <path
         d="m 503.991,182.634 h -24.879 l -50.333,50.333 h 75.212 c 4.423,0 8.009,-3.586 8.009,-8.009 v -34.315 c 0,-4.424 -3.586,-8.009 -8.009,-8.009 z"
         id="path12" />
    </g>
  </g>
</svg>
