<?xml version="1.0" encoding="iso-8859-1"?>
<!-- Generator: Adobe Illustrator 19.0.0, SVG Export Plug-In . SVG Version: 6.00 Build 0)  -->
<svg version="1.1" id="Capa_1" xmlns="http://www.w3.org/2000/svg" xmlns:xlink="http://www.w3.org/1999/xlink" x="0px" y="0px"
	 viewBox="0 0 436.907 436.907" style="enable-background:new 0 0 436.907 436.907;" xml:space="preserve">
<circle style="fill:#EFC84A;" cx="218.454" cy="218.45" r="218.45"/>
<path style="opacity:0.1;enable-background:new    ;" d="M218.457,436.907c114.023,0,207.592-87.372,217.53-198.81L307.023,109.132
	h-3.004v28.638h-6.758v6.383h-5.052v5.598h-65.877v36.454h-5.018v8.738h-12.527v8.26l17.544,17.544v5.155H112.906
	c-6.724,0-12.186,5.461-12.186,12.185v80.691H90.446v9.011l108.178,108.179C205.161,436.558,211.767,436.907,218.457,436.907z"/>
<rect x="226.304" y="203.2" style="fill:#3A556A;" width="103.55" height="115.58"/>
<rect x="226.584" y="307.78" style="fill:#2F4859;" width="113.12" height="11.01"/>
<rect x="221.324" y="186.23" style="fill:#E56353;" width="113.83" height="8.728"/>
<rect x="226.304" y="149.76" style="fill:#3A556A;" width="103.85" height="36.461"/>
<rect x="90.454" y="318.77" style="fill:#DC8744;" width="256" height="8.994"/>
<path style="fill:#1C75A1;" d="M100.711,318.786h125.605v-92.877H112.901c-6.732,0-12.19,5.458-12.19,12.19V318.786z"/>
<rect x="242.484" y="279.93" style="fill:#27A2DB;" width="25.283" height="27.863"/>
<rect x="254.194" y="278.02" style="fill:#3A556A;" width="1.891" height="29.754"/>
<rect x="260.104" y="154.79" style="fill:#D5D6DB;" width="13.626" height="11.814"/>
<polygon style="fill:#EBF0F3;" points="260.099,166.614 260.099,154.801 273.727,154.801 "/>
<rect x="260.104" y="171.76" style="fill:#D5D6DB;" width="13.626" height="11.814"/>
<polygon style="fill:#EBF0F3;" points="260.099,183.584 260.099,171.772 273.727,171.772 "/>
<rect x="235.314" y="154.79" style="fill:#D5D6DB;" width="13.626" height="11.814"/>
<polygon style="fill:#EBF0F3;" points="235.319,166.614 235.319,154.801 248.946,154.801 "/>
<rect x="235.314" y="171.76" style="fill:#D5D6DB;" width="13.626" height="11.814"/>
<polygon style="fill:#EBF0F3;" points="235.319,183.584 235.319,171.772 248.946,171.772 "/>
<rect x="260.104" y="207.72" style="fill:#D5D6DB;" width="13.626" height="11.814"/>
<polygon style="fill:#EBF0F3;" points="260.099,219.532 260.099,207.72 273.727,207.72 "/>
<rect x="260.104" y="224.7" style="fill:#D5D6DB;" width="13.626" height="11.814"/>
<polygon style="fill:#EBF0F3;" points="260.099,236.502 260.099,224.69 273.727,224.69 "/>
<rect x="235.314" y="207.72" style="fill:#D5D6DB;" width="13.626" height="11.814"/>
<polygon style="fill:#EBF0F3;" points="235.319,219.532 235.319,207.72 248.946,207.72 "/>
<rect x="235.314" y="224.7" style="fill:#D5D6DB;" width="13.626" height="11.814"/>
<polygon style="fill:#EBF0F3;" points="235.319,236.502 235.319,224.69 248.946,224.69 "/>
<rect x="260.104" y="240.5" style="fill:#D5D6DB;" width="13.626" height="11.814"/>
<polygon style="fill:#EBF0F3;" points="260.099,252.326 260.099,240.513 273.727,240.513 "/>
<rect x="260.104" y="257.47" style="fill:#D5D6DB;" width="13.626" height="11.814"/>
<polygon style="fill:#EBF0F3;" points="260.099,269.296 260.099,257.483 273.727,257.483 "/>
<rect x="235.314" y="240.5" style="fill:#D5D6DB;" width="13.626" height="11.814"/>
<polygon style="fill:#EBF0F3;" points="235.319,252.326 235.319,240.513 248.946,240.513 "/>
<rect x="235.314" y="257.47" style="fill:#D5D6DB;" width="13.626" height="11.814"/>
<polygon style="fill:#EBF0F3;" points="235.319,269.296 235.319,257.483 248.946,257.483 "/>
<rect x="109.704" y="242" style="fill:#D5D6DB;" width="116.6" height="10.308"/>
<polygon style="fill:#EBF0F3;" points="109.703,252.326 109.703,242.006 226.316,242.006 "/>
<rect x="109.704" y="255.84" style="fill:#D5D6DB;" width="116.6" height="10.308"/>
<polygon style="fill:#EBF0F3;" points="109.703,266.156 109.703,255.836 226.316,255.836 "/>
<rect x="109.704" y="269.65" style="fill:#D5D6DB;" width="116.6" height="10.308"/>
<polygon style="fill:#EBF0F3;" points="109.703,279.986 109.703,269.666 226.316,269.666 "/>
<rect x="109.704" y="283.51" style="fill:#D5D6DB;" width="116.6" height="10.308"/>
<polygon style="fill:#EBF0F3;" points="109.703,293.816 109.703,283.496 226.316,283.496 "/>
<rect x="109.704" y="297.33" style="fill:#D5D6DB;" width="116.6" height="10.308"/>
<polygon style="fill:#EBF0F3;" points="109.703,307.646 109.703,297.327 226.316,297.327 "/>
<rect x="312.014" y="156.68" style="fill:#D5D6DB;" width="13.626" height="11.04"/>
<polygon style="fill:#EBF0F3;" points="312.033,167.719 312.033,156.676 325.66,156.676 "/>
<rect x="312.014" y="172.54" style="fill:#D5D6DB;" width="13.626" height="11.04"/>
<polygon style="fill:#EBF0F3;" points="312.033,183.584 312.033,172.541 325.66,172.541 "/>
<rect x="287.234" y="156.68" style="fill:#D5D6DB;" width="13.626" height="11.04"/>
<polygon style="fill:#EBF0F3;" points="287.253,167.719 287.253,156.676 300.88,156.676 "/>
<rect x="287.234" y="172.54" style="fill:#D5D6DB;" width="13.626" height="11.04"/>
<polygon style="fill:#EBF0F3;" points="287.253,183.584 287.253,172.541 300.88,172.541 "/>
<rect x="312.014" y="207.72" style="fill:#D5D6DB;" width="13.626" height="11.04"/>
<polygon style="fill:#EBF0F3;" points="312.033,218.763 312.033,207.72 325.66,207.72 "/>
<rect x="312.014" y="223.57" style="fill:#D5D6DB;" width="13.626" height="11.04"/>
<polygon style="fill:#EBF0F3;" points="312.033,234.628 312.033,223.585 325.66,223.585 "/>
<rect x="287.234" y="207.72" style="fill:#D5D6DB;" width="13.626" height="11.04"/>
<polygon style="fill:#EBF0F3;" points="287.253,218.763 287.253,207.72 300.88,207.72 "/>
<rect x="287.234" y="223.57" style="fill:#D5D6DB;" width="13.626" height="11.04"/>
<polygon style="fill:#EBF0F3;" points="287.253,234.628 287.253,223.585 300.88,223.585 "/>
<rect x="312.014" y="238.39" style="fill:#D5D6DB;" width="13.626" height="11.04"/>
<polygon style="fill:#EBF0F3;" points="312.033,249.421 312.033,238.378 325.66,238.378 "/>
<rect x="312.014" y="254.26" style="fill:#D5D6DB;" width="13.626" height="11.04"/>
<polygon style="fill:#EBF0F3;" points="312.033,265.286 312.033,254.243 325.66,254.243 "/>
<rect x="287.234" y="238.39" style="fill:#D5D6DB;" width="13.626" height="11.04"/>
<polygon style="fill:#EBF0F3;" points="287.253,249.421 287.253,238.378 300.88,238.378 "/>
<rect x="287.234" y="254.26" style="fill:#D5D6DB;" width="13.626" height="11.04"/>
<polygon style="fill:#EBF0F3;" points="287.253,265.286 287.253,254.243 300.88,254.243 "/>
<rect x="312.014" y="270.03" style="fill:#D5D6DB;" width="13.626" height="11.04"/>
<polygon style="fill:#EBF0F3;" points="312.033,281.086 312.033,270.042 325.66,270.042 "/>
<rect x="312.014" y="285.9" style="fill:#D5D6DB;" width="13.626" height="11.04"/>
<polygon style="fill:#EBF0F3;" points="312.033,296.951 312.033,285.907 325.66,285.907 "/>
<rect x="287.234" y="270.03" style="fill:#D5D6DB;" width="13.626" height="11.04"/>
<polygon style="fill:#EBF0F3;" points="287.253,281.086 287.253,270.042 300.88,270.042 "/>
<rect x="287.234" y="285.9" style="fill:#D5D6DB;" width="13.626" height="11.04"/>
<polygon style="fill:#EBF0F3;" points="287.253,296.951 287.253,285.907 300.88,285.907 "/>
<rect x="208.764" y="194.94" style="fill:#2F4859;" width="136.13" height="8.257"/>
<rect x="292.214" y="144.15" style="fill:#E56353;" width="26.631" height="5.615"/>
<rect x="297.273" y="137.76" style="fill:#64798A;" width="16.48" height="6.366"/>
<rect x="303.993" y="109.12" style="fill:#DC8744;" width="2.997" height="28.652"/>
<g>
</g>
<g>
</g>
<g>
</g>
<g>
</g>
<g>
</g>
<g>
</g>
<g>
</g>
<g>
</g>
<g>
</g>
<g>
</g>
<g>
</g>
<g>
</g>
<g>
</g>
<g>
</g>
<g>
</g>
</svg>
