<?xml version="1.0" encoding="iso-8859-1"?>
<!-- Generator: Adobe Illustrator 19.0.0, SVG Export Plug-In . SVG Version: 6.00 Build 0)  -->
<svg version="1.1" id="Capa_1" xmlns="http://www.w3.org/2000/svg" xmlns:xlink="http://www.w3.org/1999/xlink" x="0px" y="0px"
	 viewBox="0 0 436.907 436.907" style="enable-background:new 0 0 436.907 436.907;" xml:space="preserve">
<circle style="fill:#E05B49;" cx="218.453" cy="218.45" r="218.45"/>
<path style="opacity:0.1;enable-background:new    ;" d="M115.656,335.266v11.195l90.047,90.047
	c4.223,0.243,8.469,0.399,12.753,0.399c103.914,0,190.819-72.579,212.945-169.793L261.44,97.152
	c-8.806-3.55-15.974-1.058-20.719,1.194c-2.287,1.092-4.232,1.809-5.973,2.253v-0.068c-0.399,0.12-0.737,0.17-1.108,0.257
	l-10.327-10.327h-5.734v47.002h-6.827v11.777h-6.246v5.358c-34.031,8.772-59.529,44.408-59.529,71.817v22.903h-29.321v6.895
	l17.271,17.272v61.782h-17.271V335.266z"/>
<g>
	<rect x="115.673" y="249.34" style="fill:#3A556A;" width="205.59" height="6.895"/>
	<rect x="115.673" y="335.26" style="fill:#3A556A;" width="205.59" height="11.206"/>
</g>
<rect x="145.003" y="226.41" style="fill:#64798A;" width="150.39" height="22.917"/>
<g>
	<rect x="280.683" y="229.31" style="fill:#D5D6DB;" width="7.216" height="17.1"/>
	<rect x="269.003" y="229.31" style="fill:#D5D6DB;" width="7.216" height="17.1"/>
	<rect x="257.373" y="229.31" style="fill:#D5D6DB;" width="7.216" height="17.1"/>
	<rect x="245.703" y="229.31" style="fill:#D5D6DB;" width="7.216" height="17.1"/>
	<rect x="234.053" y="229.31" style="fill:#D5D6DB;" width="7.216" height="17.1"/>
	<rect x="222.413" y="229.31" style="fill:#D5D6DB;" width="7.216" height="17.1"/>
	<rect x="210.743" y="229.31" style="fill:#D5D6DB;" width="7.216" height="17.1"/>
	<rect x="199.104" y="229.31" style="fill:#D5D6DB;" width="7.216" height="17.1"/>
	<rect x="187.443" y="229.31" style="fill:#D5D6DB;" width="7.216" height="17.1"/>
	<rect x="175.793" y="229.31" style="fill:#D5D6DB;" width="7.216" height="17.1"/>
	<rect x="164.153" y="229.31" style="fill:#D5D6DB;" width="7.216" height="17.1"/>
	<rect x="152.483" y="229.31" style="fill:#D5D6DB;" width="7.216" height="17.1"/>
	<path style="fill:#D5D6DB;" d="M144.987,226.41c0-31.462,33.643-73.845,75.193-73.845s75.193,42.383,75.193,73.845"/>
	<rect x="204.503" y="149.25" style="fill:#D5D6DB;" width="31.351" height="7.728"/>
</g>
<path style="fill:#44C4A1;" d="M261.451,128.625c0,0-9.534-16.446-26.694-6.435c-4.959,2.893-3.575-4.208-11.44,1.948V95.734
	c0,0,0.699,10.51,17.399,2.622c4.756-2.247,11.917-4.767,20.736-1.192C261.451,97.164,269.316,108.604,261.451,128.625z"/>
<rect x="217.604" y="90.45" style="fill:#DC8744;" width="5.721" height="52.91"/>
<path style="fill:#E1E6E9;" d="M234.757,122.19c-4.959,2.893-3.575-4.208-11.44,1.948V95.734c0,0,0.21,8.002,11.44,4.801V122.19z"/>
<g>
	<rect x="210.743" y="137.49" style="fill:#64798A;" width="19.753" height="11.776"/>
	<rect x="132.933" y="256.24" style="fill:#64798A;" width="170.38" height="79.02"/>
</g>
<g>
	<rect x="294.234" y="266.82" style="fill:#D5D6DB;" width="9.08" height="25.24"/>
	<rect x="279.594" y="266.82" style="fill:#D5D6DB;" width="9.08" height="25.24"/>
	<rect x="264.914" y="266.82" style="fill:#D5D6DB;" width="9.08" height="25.24"/>
	<rect x="250.233" y="266.82" style="fill:#D5D6DB;" width="9.08" height="25.24"/>
	<rect x="235.593" y="266.82" style="fill:#D5D6DB;" width="9.08" height="25.24"/>
	<rect x="220.913" y="266.82" style="fill:#D5D6DB;" width="9.08" height="25.24"/>
	<rect x="206.233" y="266.82" style="fill:#D5D6DB;" width="9.08" height="25.24"/>
	<rect x="191.593" y="266.82" style="fill:#D5D6DB;" width="9.08" height="25.24"/>
	<rect x="176.923" y="266.82" style="fill:#D5D6DB;" width="9.08" height="25.24"/>
	<rect x="162.273" y="266.82" style="fill:#D5D6DB;" width="9.08" height="25.24"/>
	<rect x="147.593" y="266.82" style="fill:#D5D6DB;" width="9.08" height="25.24"/>
	<rect x="132.933" y="266.82" style="fill:#D5D6DB;" width="9.08" height="25.24"/>
</g>
<path style="fill:#27A2DB;" d="M232.605,335.249h-28.963v-21.47c0-7.998,6.484-14.482,14.482-14.482l0,0
	c7.998,0,14.482,6.484,14.482,14.482L232.605,335.249L232.605,335.249z"/>
<g>
</g>
<g>
</g>
<g>
</g>
<g>
</g>
<g>
</g>
<g>
</g>
<g>
</g>
<g>
</g>
<g>
</g>
<g>
</g>
<g>
</g>
<g>
</g>
<g>
</g>
<g>
</g>
<g>
</g>
</svg>
