<?xml version="1.0" encoding="iso-8859-1"?>
<!-- Generator: Adobe Illustrator 19.0.0, SVG Export Plug-In . SVG Version: 6.00 Build 0)  -->
<svg version="1.1" id="Capa_1" xmlns="http://www.w3.org/2000/svg" xmlns:xlink="http://www.w3.org/1999/xlink" x="0px" y="0px"
	 viewBox="0 0 436.907 436.907" style="enable-background:new 0 0 436.907 436.907;" xml:space="preserve">
<circle style="fill:#EFC84A;" cx="218.453" cy="218.45" r="218.45"/>
<path style="opacity:0.1;enable-background:new    ;" d="M115.946,230.408c-6.724,0-12.185,5.461-12.185,12.186v93.628H92.087v10.24
	l86.804,86.804c12.839,2.35,26.048,3.641,39.565,3.641c112.565,0,205.211-85.147,217.125-194.542L283.678,90.461h-9.387v53.18
	h-22.733c-2.594,0-4.71,2.116-4.71,4.71v36.83h-1.57c-2.253,0-4.096,1.843-4.096,4.096v5.837H226.88v9.421l19.968,19.968v5.905
	H115.946z"/>
<rect x="274.303" y="90.45" style="fill:#E56353;" width="9.404" height="73.96"/>
<rect x="246.854" y="204.53" style="fill:#3A556A;" width="64.27" height="131.67"/>
<g>
	<rect x="246.854" y="323.65" style="fill:#2F4859;" width="76.81" height="12.541"/>
	<rect x="226.883" y="195.14" style="fill:#2F4859;" width="101.89" height="9.404"/>
</g>
<path style="fill:#E56353;" d="M316.81,195.127h-75.633v-5.846c0-2.263,1.835-4.098,4.098-4.098h67.438
	c2.263,0,4.098,1.835,4.098,4.098L316.81,195.127L316.81,195.127z"/>
<path style="fill:#3A556A;" d="M306.424,143.644H251.56c-2.597,0-4.702,2.105-4.702,4.702v36.837h64.269v-36.837
	C311.128,145.749,309.021,143.644,306.424,143.644z"/>
<rect x="92.083" y="336.21" style="fill:#DC8744;" width="252.76" height="10.24"/>
<path style="fill:#1C75A1;" d="M103.765,336.205h143.093V230.397H115.955c-6.732,0-12.19,5.458-12.19,12.19V336.205z"/>
<rect x="265.284" y="291.91" style="fill:#27A2DB;" width="28.802" height="31.744"/>
<rect x="278.604" y="289.76" style="fill:#3A556A;" width="2.154" height="33.898"/>
<rect x="285.363" y="149.39" style="fill:#D5D6DB;" width="15.524" height="13.459"/>
<polygon style="fill:#EBF0F3;" points="285.346,162.846 285.346,149.389 300.87,149.389 "/>
<rect x="285.363" y="168.72" style="fill:#D5D6DB;" width="15.524" height="13.459"/>
<polygon style="fill:#EBF0F3;" points="285.346,182.179 285.346,168.722 300.87,168.722 "/>
<rect x="257.133" y="149.39" style="fill:#D5D6DB;" width="15.524" height="13.459"/>
<polygon style="fill:#EBF0F3;" points="257.115,162.846 257.115,149.389 272.639,149.389 "/>
<rect x="257.133" y="168.72" style="fill:#D5D6DB;" width="15.524" height="13.459"/>
<polygon style="fill:#EBF0F3;" points="257.115,182.179 257.115,168.722 272.639,168.722 "/>
<rect x="285.363" y="209.68" style="fill:#D5D6DB;" width="15.524" height="13.459"/>
<polygon style="fill:#EBF0F3;" points="285.346,223.132 285.346,209.675 300.87,209.675 "/>
<rect x="285.363" y="229" style="fill:#D5D6DB;" width="15.524" height="13.459"/>
<polygon style="fill:#EBF0F3;" points="285.346,242.465 285.346,229.008 300.87,229.008 "/>
<rect x="257.133" y="209.68" style="fill:#D5D6DB;" width="15.524" height="13.459"/>
<polygon style="fill:#EBF0F3;" points="257.115,223.132 257.115,209.675 272.639,209.675 "/>
<rect x="257.133" y="229" style="fill:#D5D6DB;" width="15.524" height="13.459"/>
<polygon style="fill:#EBF0F3;" points="257.115,242.465 257.115,229.008 272.639,229.008 "/>
<rect x="285.363" y="247.02" style="fill:#D5D6DB;" width="15.524" height="13.459"/>
<polygon style="fill:#EBF0F3;" points="285.346,260.491 285.346,247.034 300.87,247.034 "/>
<rect x="285.363" y="266.38" style="fill:#D5D6DB;" width="15.524" height="13.459"/>
<polygon style="fill:#EBF0F3;" points="285.346,279.824 285.346,266.367 300.87,266.367 "/>
<rect x="257.133" y="247.02" style="fill:#D5D6DB;" width="15.524" height="13.459"/>
<polygon style="fill:#EBF0F3;" points="257.115,260.491 257.115,247.034 272.639,247.034 "/>
<rect x="257.133" y="266.38" style="fill:#D5D6DB;" width="15.524" height="13.459"/>
<polygon style="fill:#EBF0F3;" points="257.115,279.824 257.115,266.367 272.639,266.367 "/>
<rect x="114.003" y="248.73" style="fill:#D5D6DB;" width="132.85" height="11.756"/>
<polygon style="fill:#EBF0F3;" points="114.01,260.491 114.01,248.735 246.858,248.735 "/>
<rect x="114.003" y="264.5" style="fill:#D5D6DB;" width="132.85" height="11.756"/>
<polygon style="fill:#EBF0F3;" points="114.01,276.247 114.01,264.491 246.858,264.491 "/>
<rect x="114.003" y="280.24" style="fill:#D5D6DB;" width="132.85" height="11.756"/>
<polygon style="fill:#EBF0F3;" points="114.01,292.003 114.01,280.246 246.858,280.246 "/>
<rect x="114.003" y="296" style="fill:#D5D6DB;" width="132.85" height="11.756"/>
<polygon style="fill:#EBF0F3;" points="114.01,307.759 114.01,296.002 246.858,296.002 "/>
<rect x="114.003" y="311.77" style="fill:#D5D6DB;" width="132.85" height="11.756"/>
<polygon style="fill:#EBF0F3;" points="114.01,323.514 114.01,311.758 246.858,311.758 "/>
<g>
</g>
<g>
</g>
<g>
</g>
<g>
</g>
<g>
</g>
<g>
</g>
<g>
</g>
<g>
</g>
<g>
</g>
<g>
</g>
<g>
</g>
<g>
</g>
<g>
</g>
<g>
</g>
<g>
</g>
</svg>
