<svg height="512" viewBox="0 0 128 128" width="512" xmlns="http://www.w3.org/2000/svg"><g id="Circle_Grid" data-name="Circle Grid"><circle cx="64" cy="64" fill="#029bc5" r="64"/></g><g id="icon"><path d="m34.161 46.389h61.049v47.558h-61.049z" fill="#709584"/><path d="m30.579 49.184h7.163v40.803h-7.163z" fill="#e1e6e9"/><path d="m29.177 47.471v2.615a.812.812 0 0 0 .812.812h8.344a.812.812 0 0 0 .811-.812v-2.615z" fill="#d5d6db"/><path d="m39.144 91.7v-2.614a.812.812 0 0 0 -.811-.812h-8.344a.812.812 0 0 0 -.812.812v2.614z" fill="#d5d6db"/><path d="m50.472 49.184h7.163v40.803h-7.163z" fill="#e1e6e9"/><path d="m49.07 47.471v2.615a.812.812 0 0 0 .812.812h8.344a.812.812 0 0 0 .811-.812v-2.615z" fill="#d5d6db"/><path d="m59.037 91.7v-2.614a.812.812 0 0 0 -.811-.812h-8.344a.812.812 0 0 0 -.812.812v2.614z" fill="#d5d6db"/><path d="m70.365 49.184h7.163v40.803h-7.163z" fill="#e1e6e9"/><path d="m68.963 47.471v2.615a.812.812 0 0 0 .812.812h8.344a.812.812 0 0 0 .811-.812v-2.615z" fill="#d5d6db"/><path d="m78.93 91.7v-2.614a.812.812 0 0 0 -.811-.812h-8.344a.812.812 0 0 0 -.812.812v2.614z" fill="#d5d6db"/><path d="m90.258 49.184h7.163v40.803h-7.163z" fill="#e1e6e9"/><path d="m88.856 47.471v2.615a.812.812 0 0 0 .811.812h8.345a.812.812 0 0 0 .811-.812v-2.615z" fill="#d5d6db"/><path d="m98.823 91.7v-2.614a.812.812 0 0 0 -.811-.812h-8.345a.812.812 0 0 0 -.811.812v2.614z" fill="#d5d6db"/><path d="m104.454 48.17h-80.908v-5.744l40.454-16.621 40.454 16.621z" fill="#e1e6e9"/><path d="m29.825 44.17 34.175-14.041 34.175 14.041z" fill="#d5d6db"/><path d="m23.546 91.701h80.908v4.495h-80.908z" fill="#e1e6e9"/></g></svg>