<?xml version="1.0" encoding="iso-8859-1"?>
<!-- Generator: Adobe Illustrator 19.0.0, SVG Export Plug-In . SVG Version: 6.00 Build 0)  -->
<svg version="1.1" id="Capa_1" xmlns="http://www.w3.org/2000/svg" xmlns:xlink="http://www.w3.org/1999/xlink" x="0px" y="0px"
	 viewBox="0 0 436.907 436.907" style="enable-background:new 0 0 436.907 436.907;" xml:space="preserve">
<circle style="fill:#E05B49;" cx="218.454" cy="218.45" r="218.45"/>
<path style="opacity:0.1;enable-background:new    ;" d="M218.457,436.907c118.137,0,214.308-93.791,218.264-210.965
	L316.293,105.514H120.675v40.926h-0.376v166.434H90.467v18.5l104.222,104.223C202.499,436.442,210.423,436.907,218.457,436.907z"/>
<g>
	<path style="fill:#64798A;" d="M316.293,154.837H120.664v-49.318h195.628L316.293,154.837L316.293,154.837z M129.078,146.422h178.8
		v-32.49h-178.8L129.078,146.422L129.078,146.422z"/>
	<rect x="145.874" y="109.74" style="fill:#64798A;" width="8.414" height="40.905"/>
	<rect x="282.354" y="109.74" style="fill:#64798A;" width="8.414" height="40.905"/>
	<rect x="124.874" y="125.97" style="fill:#64798A;" width="187.22" height="8.414"/>
	<path style="fill:#64798A;" d="M256.857,160.022h-76.8v-37.923c0-6.598,5.349-11.947,11.947-11.947h52.907
		c6.598,0,11.947,5.349,11.947,11.947v37.923H256.857z"/>
</g>
<rect x="120.324" y="146.44" style="fill:#3EA69B;" width="196.3" height="166.49"/>
<rect x="135.464" y="166.97" style="fill:#D5D6DB;" width="29.25" height="25.351"/>
<polygon style="fill:#EBF0F3;" points="135.459,192.319 135.459,166.967 164.706,166.967 "/>
<rect x="178.074" y="166.97" style="fill:#D5D6DB;" width="29.25" height="25.351"/>
<polygon style="fill:#EBF0F3;" points="178.086,192.319 178.086,166.967 207.334,166.967 "/>
<rect x="135.194" y="204.33" style="fill:#D5D6DB;" width="29.25" height="25.351"/>
<polygon style="fill:#EBF0F3;" points="135.19,229.678 135.19,204.326 164.438,204.326 "/>
<rect x="177.804" y="204.33" style="fill:#D5D6DB;" width="29.25" height="25.351"/>
<polygon style="fill:#EBF0F3;" points="177.818,229.678 177.818,204.326 207.065,204.326 "/>
<rect x="134.934" y="241.7" style="fill:#D5D6DB;" width="29.25" height="25.351"/>
<polygon style="fill:#EBF0F3;" points="134.922,267.037 134.922,241.685 164.169,241.685 "/>
<rect x="177.564" y="241.7" style="fill:#D5D6DB;" width="29.25" height="25.351"/>
<polygon style="fill:#EBF0F3;" points="177.55,267.037 177.55,241.685 206.797,241.685 "/>
<rect x="219.964" y="166.97" style="fill:#D5D6DB;" width="29.25" height="25.351"/>
<polygon style="fill:#EBF0F3;" points="219.955,192.319 219.955,166.967 249.202,166.967 "/>
<rect x="262.594" y="166.97" style="fill:#D5D6DB;" width="29.25" height="25.351"/>
<polygon style="fill:#EBF0F3;" points="262.583,192.319 262.583,166.967 291.829,166.967 "/>
<rect x="90.454" y="312.87" style="fill:#31978C;" width="256" height="18.514"/>
<rect x="90.454" y="321.16" style="fill:#44C4A1;" width="256" height="10.226"/>
<g>
	<rect x="235.334" y="241.7" style="fill:#D5D6DB;" width="48.35" height="71.24"/>
	<rect x="219.964" y="204.33" style="fill:#D5D6DB;" width="29.25" height="25.351"/>
</g>
<polygon style="fill:#EBF0F3;" points="219.955,229.678 219.955,204.326 249.202,204.326 "/>
<rect x="262.594" y="204.33" style="fill:#D5D6DB;" width="29.25" height="25.351"/>
<polygon style="fill:#EBF0F3;" points="262.583,229.678 262.583,204.326 291.829,204.326 "/>
<g>
</g>
<g>
</g>
<g>
</g>
<g>
</g>
<g>
</g>
<g>
</g>
<g>
</g>
<g>
</g>
<g>
</g>
<g>
</g>
<g>
</g>
<g>
</g>
<g>
</g>
<g>
</g>
<g>
</g>
</svg>
