<?xml version="1.0" encoding="UTF-8" standalone="no"?>
<!-- Created with Inkscape (http://www.inkscape.org/) -->

<svg
   width="900"
   height="900"
   viewBox="0 0 238.125 238.125"
   version="1.1"
   id="svg5"
   inkscape:version="1.1.2 (b8e25be833, 2022-02-05)"
   sodipodi:docname="boite_cable.svg"
   xmlns:inkscape="http://www.inkscape.org/namespaces/inkscape"
   xmlns:sodipodi="http://sodipodi.sourceforge.net/DTD/sodipodi-0.dtd"
   xmlns="http://www.w3.org/2000/svg"
   xmlns:svg="http://www.w3.org/2000/svg">
  <sodipodi:namedview
     id="namedview7"
     pagecolor="#ffffff"
     bordercolor="#999999"
     borderopacity="1"
     inkscape:pageshadow="0"
     inkscape:pageopacity="0"
     inkscape:pagecheckerboard="0"
     inkscape:document-units="px"
     showgrid="false"
     units="px"
     inkscape:zoom="0.61580177"
     inkscape:cx="488.79366"
     inkscape:cy="327.21569"
     inkscape:window-width="1920"
     inkscape:window-height="1001"
     inkscape:window-x="-9"
     inkscape:window-y="-9"
     inkscape:window-maximized="1"
     inkscape:current-layer="layer1" />
  <defs
     id="defs2">
    <mask
       id="custom">
      <rect
         id="bg"
         x="0"
         y="0"
         width="100%"
         height="100%"
         fill="#ffffff" />
      <g
         transform="matrix(1.3333333,0,0,-1.3333333,0,682.66667)"
         id="g8">
        <path
           transform="translate(467.3467,58)"
           d="M 0,0 -118.347,340.069 -156.46,327.931 -41.979,0 Z"
           style="fill:#ffffff;fill-opacity:1;fill-rule:nonzero;stroke:none"
           id="path2030" />
        <path
           transform="translate(86.6328,58)"
           d="M 0,0 114.48,327.931 76.367,340.069 -41.979,0 Z"
           style="fill:#ffffff;fill-opacity:1;fill-rule:nonzero;stroke:none"
           id="path2034" />
      </g>
    </mask>
    <clipPath
       clipPathUnits="userSpaceOnUse"
       id="clipPath2018">
      <path
         d="M 0,512 H 512 V 0 H 0 Z"
         id="path2016" />
    </clipPath>
  </defs>
  <g
     inkscape:label="Calque 1"
     inkscape:groupmode="layer"
     id="layer1">
    <circle
       style="opacity:1;fill:#4ac8bd;fill-opacity:1;stroke:#ffffff;stroke-width:5.41472;stroke-miterlimit:4;stroke-dasharray:none;stroke-opacity:1"
       id="path850"
       cx="119.0625"
       cy="119.0625"
       r="116.35514" />
    <g
       id="g873"
       transform="matrix(0.26241325,0,0,0.26241325,51.884708,53.992727)">
      <g
         id="g863">
        <path
           d="M 25.609375,105.9375 37.28125,94.265625 h 26.988281 v -30 H 31.070312 c -3.980468,0 -7.800781,1.582031 -10.609374,4.390625 L 4.390625,84.726562 c -5.851563,5.859376 -5.851563,15.359378 0,21.210938 5.859375,5.85938 15.359375,5.85938 21.21875,0 z m 0,0"
           id="path2" />
        <path
           d="m 20.460938,41.675781 c 2.808593,2.8125 6.628906,4.390625 10.609374,4.390625 h 33.199219 v -30 H 37.28125 L 25.609375,4.398438 C 19.75,-1.464844 10.25,-1.464844 4.390625,4.398438 c -5.851563,5.847656 -5.851563,15.347656 0,21.207031 z m 0,0"
           id="path4" />
        <path
           d="M 94.269531,16.066406 H 128.53125 V 94.265625 H 94.269531 Z m 0,0"
           id="path6" />
        <path
           d="m 486.39062,389.99609 -11.67187,11.67188 h -26.98828 v 30 h 33.19922 c 3.98047,0 7.80078,-1.58203 10.60937,-4.39063 l 16.07031,-16.07031 c 5.85157,-5.85937 5.85157,-15.35937 0,-21.21094 -5.85937,-5.85937 -15.35937,-5.85937 -21.21875,0 z m 0,0"
           id="path8" />
        <path
           d="m 491.53906,454.25781 c -2.80859,-2.8125 -6.6289,-4.39062 -10.60937,-4.39062 h -33.19922 v 30 h 26.98828 l 11.67187,11.66797 c 5.85938,5.86328 15.35938,5.86328 21.21875,0 5.85157,-5.84766 5.85157,-15.34766 0,-21.20704 z m 0,0"
           id="path10" />
        <path
           d="m 383.46875,401.66797 h 34.26172 v 78.19922 h -34.26172 z m 0,0"
           id="path12" />
        <path
           d="M 151.56641,303.13281 H 360.43359 C 444.00781,303.13281 512,235.14062 512,151.56641 512,67.992188 444.00781,0 360.43359,0 H 173.53516 c -8.28516,0 -15,6.714844 -15,15 v 80.332031 c 0,8.285159 6.71484,14.999999 15,14.999999 h 186.89843 c 22.80469,0 41.23438,18.44922 41.23438,41.23438 0,22.73437 -18.4961,41.23437 -41.23438,41.23437 H 151.56641 C 67.992188,192.80078 0,260.79297 0,344.36719 c 0,83.57422 67.992188,151.5664 151.56641,151.5664 h 186.90234 c 8.28125,0 15,-6.71484 15,-15 v -80.33203 c 0,-8.28515 -6.71875,-15 -15,-15 H 151.56641 c -22.80469,0 -41.23047,-18.44922 -41.23047,-41.23437 -0.004,-22.73438 18.49609,-41.23438 41.23047,-41.23438 z m 0,0"
           id="path14" />
      </g>
    </g>
  </g>
</svg>
