<?xml version="1.0" encoding="UTF-8" standalone="no"?>
<!-- Created with Inkscape (http://www.inkscape.org/) -->

<svg
   width="900"
   height="900"
   viewBox="0 0 238.125 238.125"
   version="1.1"
   id="svg5"
   inkscape:version="1.1.2 (b8e25be833, 2022-02-05)"
   sodipodi:docname="cobra_surpied.svg"
   xmlns:inkscape="http://www.inkscape.org/namespaces/inkscape"
   xmlns:sodipodi="http://sodipodi.sourceforge.net/DTD/sodipodi-0.dtd"
   xmlns="http://www.w3.org/2000/svg"
   xmlns:svg="http://www.w3.org/2000/svg">
  <sodipodi:namedview
     id="namedview7"
     pagecolor="#ffffff"
     bordercolor="#999999"
     borderopacity="1"
     inkscape:pageshadow="0"
     inkscape:pageopacity="0"
     inkscape:pagecheckerboard="0"
     inkscape:document-units="px"
     showgrid="false"
     units="px"
     inkscape:zoom="0.61580177"
     inkscape:cx="519.64774"
     inkscape:cy="463.62322"
     inkscape:window-width="1920"
     inkscape:window-height="1001"
     inkscape:window-x="-1929"
     inkscape:window-y="-9"
     inkscape:window-maximized="1"
     inkscape:current-layer="layer1" />
  <defs
     id="defs2" />
  <g
     inkscape:label="Calque 1"
     inkscape:groupmode="layer"
     id="layer1">
    <circle
       style="opacity:1;fill:#439d92;fill-opacity:1;stroke:#ffffff;stroke-width:5.41472;stroke-miterlimit:4;stroke-dasharray:none;stroke-opacity:1"
       id="path850"
       cx="119.0625"
       cy="119.0625"
       r="116.35514" />
    <path
       d="m 154.56993,44.67553 h -29.37795 c -1.88726,0 -3.57523,0.844167 -4.71535,2.171683 h -7.37473 c -0.25986,0 -0.51877,0.0029 -0.77246,0.0085 -6.30208,0.198525 -12.19461,2.802562 -16.5937,7.333404 -1.14965,1.184137 -2.16157,2.46867 -3.03392,3.830014 -2.86283,6.62074 -2.59505,6.096703 -3.80311,13.028293 V 183.85115 H 77.33734 v 9.59832 h 30.72869 v -9.59828 H 96.50445 V 71.049879 c 0,-9.018718 7.05612,-16.305699 16.06805,-16.588986 0.17561,-0.004 0.35257,-0.0058 0.5294,-0.0058 h 5.8723 v 4.318257 h 11.78158 c 0,5.538541 6.1648,9.87734 14.03416,9.87734 7.86971,0 14.03389,-4.338435 14.03389,-9.87734 h 1.96383 v -7.877704 c 0,-3.434135 -2.78333,-6.217711 -6.21773,-6.217711 z m -9.77962,20.55018 c -5.75235,0 -10.61156,-2.95578 -10.61156,-6.454984 h 21.22335 c -3.9e-4,3.499204 -4.85976,6.454984 -10.61179,6.454984 z"
       id="path2"
       style="fill:#a7a7a7;fill-opacity:1;stroke:#ffffff;stroke-width:1.99739;stroke-miterlimit:4;stroke-dasharray:none;stroke-opacity:1"
       sodipodi:nodetypes="cscsccccccccccscscccsccsccsccs" />
  </g>
</svg>
