<?xml version="1.0" encoding="UTF-8" standalone="no"?>
<!-- Created with Inkscape (http://www.inkscape.org/) -->

<svg
   width="900"
   height="900"
   viewBox="0 0 238.125 238.125"
   version="1.1"
   id="svg5"
   inkscape:version="1.1.2 (b8e25be833, 2022-02-05)"
   sodipodi:docname="decoratif_surpied_noir.svg"
   xmlns:inkscape="http://www.inkscape.org/namespaces/inkscape"
   xmlns:sodipodi="http://sodipodi.sourceforge.net/DTD/sodipodi-0.dtd"
   xmlns="http://www.w3.org/2000/svg"
   xmlns:svg="http://www.w3.org/2000/svg">
  <sodipodi:namedview
     id="namedview7"
     pagecolor="#ffffff"
     bordercolor="#999999"
     borderopacity="1"
     inkscape:pageshadow="0"
     inkscape:pageopacity="0"
     inkscape:pagecheckerboard="0"
     inkscape:document-units="px"
     showgrid="false"
     units="px"
     inkscape:zoom="0.7198092"
     inkscape:cx="505.68956"
     inkscape:cy="450.81391"
     inkscape:window-width="1920"
     inkscape:window-height="1001"
     inkscape:window-x="-9"
     inkscape:window-y="-9"
     inkscape:window-maximized="1"
     inkscape:current-layer="layer1" />
  <defs
     id="defs2" />
  <g
     inkscape:label="Calque 1"
     inkscape:groupmode="layer"
     id="layer1">
    <circle
       style="opacity:1;fill:#cda934;fill-opacity:1;stroke:#ffffff;stroke-width:5.4147;stroke-miterlimit:4;stroke-dasharray:none;stroke-opacity:1"
       id="path850"
       cx="119.06258"
       cy="119.06258"
       r="116.35515" />
    <path
       d="m 175.78309,67.873839 c 0,-3.514378 -7.27032,-6.463668 -17.08073,-7.275947 v -0.921955 h 8.06615 c 0.3427,1.023754 0.89374,1.690655 1.51719,1.690655 0.45648,0 0.8746,-0.356187 1.20011,-0.948286 0.65613,0.482768 1.46362,0.771316 2.34003,0.771316 2.18478,0 3.95595,-1.771097 3.95595,-3.955824 0,-2.184346 -1.77117,-3.955822 -3.95595,-3.955822 -0.87679,0 -1.6839,0.288919 -2.34003,0.771325 -0.32551,-0.592102 -0.74363,-0.948269 -1.20011,-0.948269 -0.62345,0 -1.1741,0.667246 -1.51719,1.690671 h -64.06627 v -5.536411 c 1.02333,-0.343021 1.6904,-0.893806 1.6904,-1.517106 0,-0.45612 -0.35584,-0.874676 -0.94814,-1.200773 0.48284,-0.655988 0.77175,-1.463366 0.77175,-2.339886 0,-2.184767 -1.77132,-3.955834 -3.95645,-3.955834 -2.184576,0 -3.955236,1.771067 -3.955236,3.955834 0,0.87652 0.288519,1.684277 0.771412,2.339886 -0.592174,0.326097 -0.948227,0.74429 -0.948227,1.200773 0,0.6233 0.667154,1.174085 1.690449,1.517106 v 5.536786 H 84.249291 c -0.342652,-1.023409 -0.893806,-1.690668 -1.517106,-1.690668 -0.456482,0 -0.874676,0.356169 -1.200773,0.948266 -0.655609,-0.482781 -1.463366,-0.771284 -2.339886,-0.771284 -2.184767,0 -3.955834,1.77106 -3.955834,3.955781 0,2.184352 1.771067,3.955834 3.955834,3.955834 0.87652,0 1.683899,-0.288933 2.339886,-0.771333 0.326097,0.592104 0.744291,0.948307 1.200773,0.948307 0.6233,0 1.174454,-0.66729 1.517106,-1.690719 h 13.568907 v 76.720978 l -0.65595,10e-4 c -0.267717,2.63665 -0.534387,5.27373 -0.801292,7.91047 h -1.008842 v 44.95873 H 93.65023 v 3.95317 h -2.520294 v 5.19451 h 18.261004 v -5.19451 h -2.52042 v -3.95317 h -1.70181 v -44.95875 h -1.0089 c -0.26719,-2.63675 -0.53469,-5.27332 -0.8012,-7.91047 l -0.65603,-0.001 V 83.69819 c 0.80637,-3.435851 3.43794,-6.327749 7.08361,-7.280475 1.9836,-0.518822 4.04995,-0.233607 5.81881,0.80256 1.76932,1.035774 3.0288,2.69864 3.54637,4.682384 0.40194,1.537754 0.18098,3.140291 -0.62198,4.512129 -0.8036,1.371867 -2.09254,2.349084 -3.63026,2.751025 -2.44147,0.639151 -4.94466,-0.828656 -5.58264,-3.267858 -0.48334,-1.852253 0.62967,-3.752517 2.48148,-4.236168 1.3814,-0.360199 2.79822,0.469344 3.15921,1.849299 0.26193,1.005355 -0.34131,2.036752 -1.34599,2.299315 -0.50162,0.131085 -0.80214,0.64432 -0.67114,1.146343 0.13105,0.50186 0.6459,0.801338 1.1467,0.671404 2.00552,-0.524612 3.21164,-2.583664 2.68813,-4.591897 -0.62323,-2.3831 -3.06856,-3.816079 -5.45215,-3.192048 -2.8533,0.74541 -4.56857,3.673611 -3.8237,6.528704 0.75806,2.897016 3.38085,4.821063 6.24474,4.820717 0.53829,0 1.08594,-0.06778 1.63054,-0.210489 2.02311,-0.528899 3.71896,-1.81435 4.77656,-3.61902 1.0571,-1.805239 1.34749,-3.913611 0.81846,-5.936301 -0.64481,-2.469082 -2.21288,-4.539297 -4.41485,-5.828784 -0.50141,-0.293365 -1.02239,-0.536067 -1.55654,-0.731851 4.95397,-2.373319 7.70518,-8.00743 6.266,-13.517919 -0.0414,-0.158932 -0.23609,-0.8566 -0.60111,-1.673032 h 27.11677 v 0.921999 c -9.80982,0.812677 -17.081,3.7612 -17.081,7.27594 h 3.75457 c -0.61981,1.933366 -0.94202,3.95958 -0.94202,6.017734 0,10.879109 8.85105,19.729974 19.73015,19.729974 10.87896,0 19.72987,-8.850865 19.72987,-19.729974 0,-2.058154 -0.3218,-4.084713 -0.94175,-6.017734 h 3.75375 z m -73.08085,-8.197577 h 2.94879 c -1.15553,0.508734 -2.16155,1.283814 -2.94879,2.274141 z m 0,19.519967 v -7.251993 c 0.77186,1.083525 1.76956,2.00257 2.95175,2.695349 0.50171,0.29377 1.02425,0.534975 1.55846,0.730776 -1.84173,0.882463 -3.37894,2.215079 -4.51021,3.825868 z m 9.72033,-5.37494 c -1.98357,0.518509 -4.04987,0.233677 -5.81909,-0.802523 -1.76912,-1.035831 -3.02857,-2.698691 -3.54646,-4.682434 -0.40174,-1.537785 -0.18099,-3.140157 0.62183,-4.512236 0.80374,-1.371714 2.09295,-2.348941 3.63063,-2.750933 2.44243,-0.638702 4.94457,0.829185 5.58274,3.267902 0.48303,1.85226 -0.62981,3.752523 -2.48133,4.236099 -1.38106,0.36028 -2.79797,-0.46926 -3.15938,-1.849225 -0.2617,-1.005421 0.34149,-2.036718 1.34625,-2.299343 0.50139,-0.131496 0.80206,-0.644346 0.67105,-1.146247 -0.13116,-0.502352 -0.64617,-0.801428 -1.14672,-0.671431 -2.0055,0.524491 -3.21153,2.58374 -2.68809,4.591899 0.62307,2.382737 3.06897,3.815316 5.45206,3.192018 2.85355,-0.745413 4.56867,-3.673659 3.82402,-6.528673 -0.50034,-1.912346 -1.81397,-3.398648 -3.4723,-4.189522 h 7.32321 c 0.40775,0.704477 0.72632,1.552818 0.88569,2.150924 1.36937,5.242628 -1.78096,10.623139 -7.02411,11.993725 z m 40.81827,16.043073 c -8.80732,0 -15.97289,-7.165493 -15.97289,-15.972847 0,-2.078011 0.40513,-4.116986 1.1805,-6.017676 h 12.3764 c -0.81935,1.307075 -1.3411,3.26373 -1.3411,5.453379 0,3.935157 3.75709,7.124872 3.75709,7.124872 0,0 3.75726,-3.190094 3.75726,-7.124872 0,-2.189649 -0.52209,-4.146304 -1.34154,-5.453379 h 12.37752 c 0.77487,1.900301 1.17972,3.938903 1.17972,6.017676 0,8.807354 -7.16576,15.972847 -15.97296,15.972847 z"
       id="path2"
       style="stroke-width:0.375715" />
  </g>
</svg>
