<?xml version="1.0" encoding="UTF-8" standalone="no"?>
<!-- Created with Inkscape (http://www.inkscape.org/) -->

<svg
   width="900"
   height="900"
   viewBox="0 0 238.125 238.125"
   version="1.1"
   id="svg5"
   inkscape:version="1.1.2 (b8e25be833, 2022-02-05)"
   sodipodi:docname="cobra_surpoteau.svg"
   xmlns:inkscape="http://www.inkscape.org/namespaces/inkscape"
   xmlns:sodipodi="http://sodipodi.sourceforge.net/DTD/sodipodi-0.dtd"
   xmlns="http://www.w3.org/2000/svg"
   xmlns:svg="http://www.w3.org/2000/svg">
  <sodipodi:namedview
     id="namedview7"
     pagecolor="#ffffff"
     bordercolor="#999999"
     borderopacity="1"
     inkscape:pageshadow="0"
     inkscape:pageopacity="0"
     inkscape:pagecheckerboard="0"
     inkscape:document-units="px"
     showgrid="false"
     units="px"
     inkscape:zoom="0.61580177"
     inkscape:cx="488.79365"
     inkscape:cy="327.21569"
     inkscape:window-width="1920"
     inkscape:window-height="1001"
     inkscape:window-x="-9"
     inkscape:window-y="-9"
     inkscape:window-maximized="1"
     inkscape:current-layer="layer1" />
  <defs
     id="defs2" />
  <g
     inkscape:label="Calque 1"
     inkscape:groupmode="layer"
     id="layer1">
    <circle
       style="opacity:1;fill:#9d9243;fill-opacity:1;stroke:#ffffff;stroke-width:5.41472;stroke-miterlimit:4;stroke-dasharray:none;stroke-opacity:1"
       id="path850"
       cx="119.0625"
       cy="119.0625"
       r="116.35514" />
    <path
       d="M 130.41326,134.70084 H 123.73 V 63.749754 c 0,-2.39525 1.94868,-4.34395 4.34399,-4.34395 h 24.95176 v 9.103615 l 2.87524,0.0421 -0.002,4.41056 13.33073,-0.0345 -0.0645,-4.72072 2.73868,0.0522 -0.0545,-23.333225 h -18.82347 v 5.791908 h -24.95181 c -3.33545,0 -6.38075,1.260912 -8.68802,3.328918 -2.30752,-2.068006 -5.35285,-3.328918 -8.6877,-3.328918 H 85.212946 V 45.103765 H 66.389211 l -0.168109,22.711943 2.931004,0.11428 0.05928,4.78946 13.719306,-0.22222 0.04472,-4.779317 2.770754,-0.03152 v -8.280635 h 24.952014 c 2.39505,0 4.34385,1.948701 4.34385,4.343951 v 70.951133 h -6.68329 v 49.81045 h -9.534224 v 8.68788 h 41.122714 v -8.68788 h -9.53409 z"
       id="path2"
       style="stroke-width:0.289609"
       sodipodi:nodetypes="ccssccccccccccscsccccccccccssccccccccc" />
  </g>
</svg>
