<?xml version="1.0" encoding="UTF-8"?>
<!-- Created with Inkscape (http://www.inkscape.org/) -->
<svg width="900" height="900" version="1.1" viewBox="0 0 238.12 238.12" xmlns="http://www.w3.org/2000/svg">
 <g>
  <circle cx="119.06" cy="119.06" r="116.36" fill="#97b2b7" stroke="#fff" stroke-width="5.4147"/>
  <g fill="#37a91a" stroke-width=".32486">
   <path d="m178.84 69.683h5.1978v-7.7967l-15.593-7.7967h-31.187l-15.593 7.7967v7.7967z"/>
   <path d="m147.65 43.694h10.396v10.396h-10.396z"/>
   <path d="m178.84 69.683-0.57232 2.5989-9.8233 44.182h-15.593v-46.78z"/>
   <path d="m152.85 69.683v46.78h-15.593l-9.8233-44.182-0.57232-2.5989z"/>
   <path d="m168.44 126.86v-10.396h-31.187v10.396z"/>
   <path d="m160.65 137.25v-10.396h-15.593v10.396z"/>
   <path d="m147.65 178.84h5.1978c2.8705 0 5.1978-2.3274 5.1978-5.1978v-36.385h-10.396v31.187h-77.967v10.396z"/>
   <path d="m69.683 178.84v-25.989h-15.593v41.583h15.593z"/>
   <path d="m147.65 51.491h10.396v2.5989h-10.396z"/>
   <path d="m152.85 69.683v2.5989h-25.417l-0.57232-2.5989z"/>
   <path d="m178.84 69.683-0.57232 2.5989h-25.417v-2.5989z"/>
   <path d="m145.05 126.86h15.593v2.5989h-15.593z"/>
   <path d="m147.65 137.25h10.396v2.5989h-10.396z"/>
  </g>
 </g>
</svg>
