<?xml version="1.0" encoding="UTF-8" standalone="no"?>
<!-- Created with Inkscape (http://www.inkscape.org/) -->

<svg
   width="900"
   height="900"
   viewBox="0 0 238.125 238.125"
   version="1.1"
   id="svg5"
   inkscape:version="1.1.2 (b8e25be833, 2022-02-05)"
   sodipodi:docname="decoratif_surpied_vert.svg"
   xmlns:inkscape="http://www.inkscape.org/namespaces/inkscape"
   xmlns:sodipodi="http://sodipodi.sourceforge.net/DTD/sodipodi-0.dtd"
   xmlns="http://www.w3.org/2000/svg"
   xmlns:svg="http://www.w3.org/2000/svg">
  <sodipodi:namedview
     id="namedview7"
     pagecolor="#ffffff"
     bordercolor="#999999"
     borderopacity="1"
     inkscape:pageshadow="0"
     inkscape:pageopacity="0"
     inkscape:pagecheckerboard="0"
     inkscape:document-units="px"
     showgrid="false"
     units="px"
     inkscape:zoom="0.7198092"
     inkscape:cx="505.68956"
     inkscape:cy="450.81391"
     inkscape:window-width="1920"
     inkscape:window-height="1001"
     inkscape:window-x="-1929"
     inkscape:window-y="-9"
     inkscape:window-maximized="1"
     inkscape:current-layer="layer1" />
  <defs
     id="defs2" />
  <g
     inkscape:label="Calque 1"
     inkscape:groupmode="layer"
     id="layer1">
    <circle
       style="opacity:1;fill:#ddcc2a;fill-opacity:1;stroke:#ffffff;stroke-width:5.41472;stroke-miterlimit:4;stroke-dasharray:none;stroke-opacity:1"
       id="path850"
       cx="119.0625"
       cy="119.0625"
       r="116.35514" />
    <path
       d="m 133.86542,72.07272 c 0.22564,-0.965234 0.34896,-1.968975 0.34896,-3.00229 V 48.109166 c 5.82532,-1.761243 11.51534,-6.513321 8.13206,-6.942735 -3.01726,-0.382611 -5.03286,-1.052237 -6.53121,-1.813785 -0.38365,-1.711556 -2.58294,-3.229339 -5.87467,-4.27953 -1.73701,-3.710497 -5.95088,-6.330613 -10.87768,-6.330613 -4.92714,0 -9.14088,2.620116 -10.87802,6.330613 -3.29181,1.050588 -5.49062,2.567558 -5.87484,4.27953 -1.49803,0.761548 -3.51369,1.431563 -6.531434,1.814181 -3.383586,0.429451 2.306555,5.18152 8.132324,6.942758 V 69.07043 c 0,1.032934 0.1232,2.037056 0.34897,3.00229 -5.944224,1.67176 -11.931979,6.60441 -8.480899,7.040886 8.128529,1.030418 9.006229,4.142892 12.004429,5.527503 0.77746,2.357465 2.52061,4.362607 4.83952,5.678295 v 1.66099 h -0.23273 c -0.64987,0 -1.17542,0.527237 -1.17542,1.17543 0,0.649025 0.52503,1.175438 1.17542,1.175438 h 0.23273 v 1.09907 h -0.23273 c -0.64987,0 -1.17542,0.52683 -1.17542,1.17545 0,0.64802 0.52503,1.17538 1.17542,1.17538 h 0.23273 v 42.498398 h -0.23273 c -0.64987,0 -1.17542,0.52548 -1.17542,1.17373 0,0.65004 0.52503,1.17543 1.17542,1.17543 h 0.23273 v 1.10004 h -0.23273 c -0.64987,0 -1.17542,0.52598 -1.17542,1.1743 0,0.64995 0.52503,1.17537 1.17542,1.17537 h 0.23273 v 12.62734 c -1.40972,0 -2.81998,0 -4.22969,0 9.10212,13.07212 -4.96485,24.65301 0.0575,37.56688 h -3.79043 v 13.10985 h 28.8053 V 196.273 h -3.79043 c 5.02264,-12.91369 -9.04431,-24.49436 0.0567,-37.56687 -1.40998,0 -2.82007,0 -4.22975,0 v -12.62728 h 0.23335 c 0.64929,0 1.17511,-0.52544 1.17511,-1.17541 0,-0.64829 -0.52582,-1.17391 -1.17511,-1.17391 h -0.23335 v -1.10043 h 0.23335 c 0.64929,0 1.17511,-0.52542 1.17511,-1.17534 0,-0.64872 -0.52582,-1.17373 -1.17511,-1.17373 h -0.2334 V 97.781992 h 0.23335 c 0.64923,0 1.175,-0.52721 1.175,-1.17533 0,-0.6492 -0.52577,-1.17543 -1.175,-1.17543 h -0.2333 v -1.09941 h 0.23335 c 0.64923,0 1.175,-0.526055 1.175,-1.175388 0,-0.648468 -0.52577,-1.175324 -1.175,-1.175324 h -0.23335 v -1.660828 c 2.31861,-1.315729 4.06177,-3.320951 4.83929,-5.678371 2.99813,-1.384729 3.87578,-4.497422 12.00479,-5.527992 3.45163,-0.436789 -2.53728,-5.36995 -8.481,-7.041199 z m -3.52477,-3.00229 c 0,0.848979 -0.11707,1.671281 -0.3305,2.453787 -2.23325,0.03145 -4.31578,0.444662 -6.0911,1.140546 -0.91637,-0.360075 -1.89514,-0.621588 -2.91939,-0.768561 V 48.827213 c 1.23622,-0.177349 2.40573,-0.520971 3.4794,-1.00336 1.72268,0.596933 3.70133,0.937255 5.80693,0.937255 0.0169,0 0.036,-0.0011 0.0542,-0.0011 V 69.070475 Z M 107.83974,48.76071 c 2.10544,0 4.0839,-0.340331 5.80644,-0.937266 1.07329,0.482798 2.24332,0.82642 3.47948,1.003769 v 23.06934 c -1.02415,0.146643 -2.00299,0.408549 -2.91911,0.768608 -1.77533,-0.696282 -3.85823,-1.108937 -6.09132,-1.140523 -0.21407,-0.782108 -0.33047,-1.604431 -0.33047,-2.453813 V 48.759057 c 0.017,0 0.0364,0.0011 0.0548,0.0011 z"
       id="path2"
       style="stroke-width:0.410561;fill:#37a91a;fill-opacity:1" />
  </g>
</svg>
