<?xml version="1.0" encoding="iso-8859-1"?>
<!-- Generator: Adobe Illustrator 19.0.0, SVG Export Plug-In . SVG Version: 6.00 Build 0)  -->
<svg version="1.1" id="Capa_1" xmlns="http://www.w3.org/2000/svg" xmlns:xlink="http://www.w3.org/1999/xlink" x="0px" y="0px"
	 viewBox="0 0 436.907 436.907" style="enable-background:new 0 0 436.907 436.907;" xml:space="preserve">
<circle style="fill:#E05B49;" cx="218.454" cy="218.45" r="218.45"/>
<path style="opacity:0.1;enable-background:new    ;" d="M218.457,436.907c103.499,0,190.124-72,212.677-168.629L261.475,98.619
	c-9.489-3.823-17.203-1.126-22.323,1.297c-5.296,2.495-9.087,3.273-11.812,3.138l-5.971-5.971h-6.178v42.94h-77.858l-35.396,43.759
	v146.33h-11.47v10.104l94.056,94.056C195.583,435.996,206.913,436.907,218.457,436.907z"/>
<rect x="101.944" y="183.78" style="fill:#F6C358;" width="233.44" height="146.32"/>
<rect x="311.743" y="207.59" style="fill:#2D93BA;" width="13.926" height="24.13"/>
<polygon style="fill:#27A2DB;" points="311.743,231.729 311.743,207.584 325.672,207.584 "/>
<rect x="311.743" y="245.38" style="fill:#2D93BA;" width="13.926" height="24.13"/>
<polygon style="fill:#27A2DB;" points="311.743,269.524 311.743,245.379 325.672,245.379 "/>
<rect x="311.743" y="283.17" style="fill:#2D93BA;" width="13.926" height="24.13"/>
<polygon style="fill:#27A2DB;" points="311.743,307.319 311.743,283.173 325.672,283.173 "/>
<rect x="288.803" y="207.59" style="fill:#2D93BA;" width="13.926" height="24.13"/>
<polygon style="fill:#27A2DB;" points="288.815,231.729 288.815,207.584 302.742,207.584 "/>
<rect x="288.803" y="245.38" style="fill:#2D93BA;" width="13.926" height="24.13"/>
<polygon style="fill:#27A2DB;" points="288.815,269.524 288.815,245.379 302.742,245.379 "/>
<rect x="288.803" y="283.17" style="fill:#2D93BA;" width="13.926" height="24.13"/>
<polygon style="fill:#27A2DB;" points="288.815,307.319 288.815,283.173 302.742,283.173 "/>
<rect x="265.874" y="207.59" style="fill:#2D93BA;" width="13.926" height="24.13"/>
<polygon style="fill:#27A2DB;" points="265.885,231.729 265.885,207.584 279.813,207.584 "/>
<rect x="265.874" y="245.38" style="fill:#2D93BA;" width="13.926" height="24.13"/>
<polygon style="fill:#27A2DB;" points="265.885,269.524 265.885,245.379 279.813,245.379 "/>
<rect x="265.874" y="283.17" style="fill:#2D93BA;" width="13.926" height="24.13"/>
<polygon style="fill:#27A2DB;" points="265.885,307.319 265.885,283.173 279.813,283.173 "/>
<polygon style="fill:#64798A;" points="299.997,140.023 137.337,140.023 101.942,183.783 335.392,183.783 "/>
<path style="fill:#44C4A1;" d="M261.48,132.525c0,0-10.271-17.717-28.759-6.933c-5.342,3.116-3.852-4.533-12.325,2.099v-30.6
	c0,0,0.753,11.323,18.745,2.825c5.124-2.421,12.839-5.135,22.339-1.284C261.48,98.631,269.953,110.956,261.48,132.525z"/>
<rect x="215.184" y="97.09" style="fill:#DC8744;" width="6.161" height="57"/>
<polygon style="fill:#FCD462;" points="254.734,170.528 254.734,330.103 181.81,330.103 181.81,170.528 181.81,165.906 
	218.272,143.157 254.734,165.906 "/>
<circle style="fill:#FFFFFF;" cx="217.934" cy="184.8" r="24.887"/>
<path style="fill:#3A556A;" d="M217.935,211.335c-14.64,0-26.55-11.91-26.55-26.549c0-14.639,11.91-26.549,26.55-26.549
	c14.639,0,26.549,11.91,26.549,26.549C244.484,199.426,232.574,211.335,217.935,211.335z M217.935,161.563
	c-12.806,0-23.224,10.418-23.224,23.223c0,12.806,10.418,23.224,23.224,23.224c12.805,0,23.223-10.418,23.223-23.224
	C241.158,171.981,230.74,161.563,217.935,161.563z"/>
<g>
	<path style="fill:#2F4859;" d="M214.737,163.88h1.738v4.784h-0.766v-4.065h-0.971v-0.719H214.737z"/>
	<path style="fill:#2F4859;" d="M219.685,165.748c0.137-0.187,0.206-0.377,0.206-0.568c0-0.192-0.074-0.355-0.22-0.489
		c-0.145-0.135-0.33-0.202-0.553-0.202c-0.393,0-0.719,0.201-0.979,0.602l-0.651-0.377c0.209-0.314,0.441-0.552,0.695-0.711
		c0.253-0.16,0.579-0.24,0.979-0.24c0.399,0,0.75,0.127,1.05,0.38c0.301,0.253,0.452,0.599,0.452,1.037
		c0,0.246-0.064,0.481-0.191,0.705c-0.128,0.223-0.363,0.511-0.705,0.862l-1.122,1.143h2.169v0.773h-3.271v-0.684l1.451-1.458
		C219.317,166.193,219.548,165.935,219.685,165.748z"/>
	<path style="fill:#2F4859;" d="M198.621,186.518c0.424,0,0.736-0.144,0.937-0.431c0.201-0.288,0.304-0.676,0.308-1.163
		c-0.114,0.128-0.278,0.247-0.493,0.359c-0.214,0.112-0.452,0.168-0.712,0.168c-0.429,0-0.788-0.143-1.078-0.428
		c-0.289-0.285-0.435-0.664-0.435-1.136s0.157-0.852,0.469-1.139c0.313-0.288,0.706-0.431,1.181-0.431
		c0.767,0,1.295,0.342,1.588,1.026c0.164,0.393,0.246,0.835,0.246,1.328s-0.053,0.903-0.157,1.232
		c-0.105,0.329-0.249,0.588-0.431,0.78c-0.356,0.374-0.793,0.561-1.31,0.561c-0.519,0-0.987-0.162-1.407-0.486l0.404-0.595
		c0.105,0.091,0.245,0.173,0.421,0.247C198.328,186.481,198.484,186.518,198.621,186.518z M198.768,184.739
		c0.276,0,0.506-0.076,0.691-0.23c0.185-0.153,0.277-0.351,0.277-0.595s-0.089-0.454-0.267-0.629
		c-0.178-0.176-0.401-0.264-0.667-0.264c-0.267,0-0.486,0.079-0.66,0.236c-0.173,0.157-0.26,0.359-0.26,0.605
		c0,0.247,0.078,0.454,0.236,0.623C198.275,184.654,198.492,184.739,198.768,184.739z"/>
	<path style="fill:#2F4859;" d="M218.255,201.887c-0.424,0-0.737,0.144-0.938,0.431c-0.201,0.288-0.304,0.675-0.307,1.163
		c0.113-0.128,0.278-0.247,0.492-0.359c0.215-0.112,0.452-0.168,0.712-0.168c0.429,0,0.788,0.143,1.078,0.428
		c0.29,0.285,0.435,0.664,0.435,1.136s-0.157,0.852-0.469,1.14c-0.313,0.287-0.706,0.431-1.18,0.431
		c-0.767,0-1.296-0.342-1.588-1.026c-0.164-0.393-0.246-0.835-0.246-1.328s0.052-0.903,0.157-1.232
		c0.106-0.329,0.249-0.589,0.432-0.78c0.355-0.374,0.793-0.561,1.31-0.561c0.518,0,0.986,0.162,1.407,0.486l-0.404,0.595
		c-0.105-0.091-0.245-0.173-0.42-0.246C218.547,201.923,218.391,201.887,218.255,201.887z M218.108,203.666
		c-0.276,0-0.507,0.076-0.692,0.229s-0.277,0.352-0.277,0.595c0,0.244,0.09,0.454,0.268,0.63c0.177,0.176,0.401,0.264,0.67,0.264
		s0.493-0.079,0.67-0.236c0.178-0.157,0.267-0.358,0.267-0.602s-0.082-0.452-0.246-0.623
		C218.604,203.752,218.383,203.666,218.108,203.666z"/>
	<path style="fill:#2F4859;" d="M235.575,184.232v-0.719h2.799v0.63l-1.157,1.294c0.438,0.014,0.781,0.152,1.027,0.414
		c0.246,0.263,0.37,0.576,0.37,0.941c0,0.488-0.166,0.872-0.496,1.15c-0.331,0.279-0.757,0.418-1.277,0.418
		c-0.52,0-1.03-0.167-1.526-0.5l0.342-0.65c0.392,0.273,0.803,0.411,1.232,0.411c0.278,0,0.507-0.065,0.687-0.195
		s0.271-0.317,0.271-0.561s-0.101-0.439-0.302-0.585c-0.201-0.146-0.479-0.219-0.834-0.219c-0.178,0-0.349,0.025-0.514,0.075v-0.616
		l1.109-1.286h-1.731V184.232z"/>
	<rect x="218.104" y="172.92" style="fill:#2F4859;" width="1.021" height="12.933"/>
	<rect x="208.194" y="185.31" style="fill:#2F4859;" width="9.411" height="1.109"/>
</g>
<rect x="221.68" y="178.331" transform="matrix(0.751 -0.6603 0.6603 0.751 -69.777 193.7465)" style="fill:#E56353;" width="0.645" height="22.12"/>
<circle style="fill:#27A2DB;" cx="218.594" cy="185.86" r="1.662"/>
<rect x="90.454" y="330.1" style="fill:#3A556A;" width="256" height="10.1"/>
<rect x="203.034" y="283.27" style="fill:#FFFFFF;" width="30.464" height="46.841"/>
<rect x="158.584" y="207.59" style="fill:#2D93BA;" width="13.926" height="24.13"/>
<polygon style="fill:#27A2DB;" points="158.595,231.729 158.595,207.584 172.522,207.584 "/>
<rect x="158.584" y="245.38" style="fill:#2D93BA;" width="13.926" height="24.13"/>
<polygon style="fill:#27A2DB;" points="158.595,269.524 158.595,245.379 172.522,245.379 "/>
<rect x="158.584" y="283.17" style="fill:#2D93BA;" width="13.926" height="24.13"/>
<polygon style="fill:#27A2DB;" points="158.595,307.319 158.595,283.173 172.522,283.173 "/>
<rect x="135.664" y="207.59" style="fill:#2D93BA;" width="13.926" height="24.13"/>
<polygon style="fill:#27A2DB;" points="135.665,231.729 135.665,207.584 149.593,207.584 "/>
<rect x="135.664" y="245.38" style="fill:#2D93BA;" width="13.926" height="24.13"/>
<polygon style="fill:#27A2DB;" points="135.665,269.524 135.665,245.379 149.593,245.379 "/>
<rect x="135.664" y="283.17" style="fill:#2D93BA;" width="13.926" height="24.13"/>
<polygon style="fill:#27A2DB;" points="135.665,307.319 135.665,283.173 149.593,283.173 "/>
<rect x="112.744" y="207.59" style="fill:#2D93BA;" width="13.926" height="24.13"/>
<polygon style="fill:#27A2DB;" points="112.736,231.729 112.736,207.584 126.663,207.584 "/>
<rect x="112.744" y="245.38" style="fill:#2D93BA;" width="13.926" height="24.13"/>
<polygon style="fill:#27A2DB;" points="112.736,269.524 112.736,245.379 126.663,245.379 "/>
<rect x="112.744" y="283.17" style="fill:#2D93BA;" width="13.926" height="24.13"/>
<polygon style="fill:#27A2DB;" points="112.736,307.319 112.736,283.173 126.663,283.173 "/>
<rect x="191.394" y="227.53" style="fill:#2D93BA;" width="20.879" height="18.18"/>
<polygon style="fill:#27A2DB;" points="191.385,245.721 191.385,227.539 212.263,227.539 "/>
<rect x="223.064" y="227.53" style="fill:#2D93BA;" width="20.879" height="18.18"/>
<polygon style="fill:#27A2DB;" points="223.065,245.721 223.065,227.539 243.943,227.539 "/>
<rect x="191.834" y="253.06" style="fill:#2D93BA;" width="20.879" height="18.18"/>
<polygon style="fill:#27A2DB;" points="191.829,271.241 191.829,253.059 212.707,253.059 "/>
<rect x="223.504" y="253.06" style="fill:#2D93BA;" width="20.879" height="18.18"/>
<polygon style="fill:#27A2DB;" points="223.509,271.241 223.509,253.059 244.387,253.059 "/>
<g>
</g>
<g>
</g>
<g>
</g>
<g>
</g>
<g>
</g>
<g>
</g>
<g>
</g>
<g>
</g>
<g>
</g>
<g>
</g>
<g>
</g>
<g>
</g>
<g>
</g>
<g>
</g>
<g>
</g>
</svg>
