<?xml version="1.0" encoding="UTF-8" standalone="no"?>
<!-- Created with Inkscape (http://www.inkscape.org/) -->

<svg
   width="900"
   height="900"
   viewBox="0 0 238.125 238.125"
   version="1.1"
   id="svg5"
   inkscape:version="1.1.2 (b8e25be833, 2022-02-05)"
   sodipodi:docname="barriere_velo.svg"
   xmlns:inkscape="http://www.inkscape.org/namespaces/inkscape"
   xmlns:sodipodi="http://sodipodi.sourceforge.net/DTD/sodipodi-0.dtd"
   xmlns="http://www.w3.org/2000/svg"
   xmlns:svg="http://www.w3.org/2000/svg">
  <sodipodi:namedview
     id="namedview7"
     pagecolor="#ffffff"
     bordercolor="#999999"
     borderopacity="1"
     inkscape:pageshadow="0"
     inkscape:pageopacity="0"
     inkscape:pagecheckerboard="0"
     inkscape:document-units="px"
     showgrid="false"
     units="px"
     inkscape:zoom="0.61580177"
     inkscape:cx="488.79366"
     inkscape:cy="327.21569"
     inkscape:window-width="1920"
     inkscape:window-height="1001"
     inkscape:window-x="-9"
     inkscape:window-y="-9"
     inkscape:window-maximized="1"
     inkscape:current-layer="layer1" />
  <defs
     id="defs2">
    <mask
       id="custom">
      <rect
         id="bg"
         x="0"
         y="0"
         width="100%"
         height="100%"
         fill="#ffffff" />
      <g
         transform="matrix(1.3333333,0,0,-1.3333333,0,682.66667)"
         id="g8">
        <path
           transform="translate(467.3467,58)"
           d="M 0,0 -118.347,340.069 -156.46,327.931 -41.979,0 Z"
           style="fill:#ffffff;fill-opacity:1;fill-rule:nonzero;stroke:none"
           id="path2030" />
        <path
           transform="translate(86.6328,58)"
           d="M 0,0 114.48,327.931 76.367,340.069 -41.979,0 Z"
           style="fill:#ffffff;fill-opacity:1;fill-rule:nonzero;stroke:none"
           id="path2034" />
      </g>
    </mask>
    <clipPath
       clipPathUnits="userSpaceOnUse"
       id="clipPath2018">
      <path
         d="M 0,512 H 512 V 0 H 0 Z"
         id="path2016" />
    </clipPath>
  </defs>
  <g
     inkscape:label="Calque 1"
     inkscape:groupmode="layer"
     id="layer1">
    <circle
       style="opacity:1;fill:#4aa8c8;fill-opacity:1;stroke:#ffffff;stroke-width:5.41472;stroke-miterlimit:4;stroke-dasharray:none;stroke-opacity:1"
       id="path850"
       cx="119.0625"
       cy="119.0625"
       r="116.35514" />
    <g
       id="g6"
       transform="matrix(0.3106944,0,0,0.3106944,39.524734,39.524734)">
      <path
         d="m 256,196.49 c -52.532,39.291 -60.709,100.495 -15,145.83 v -60.17 h 30 v 60.17 c 45.711,-45.341 37.531,-106.535 -15,-145.83 z"
         id="path2" />
      <path
         d="M 380.83,100 H 363.217 V 0 h -30 V 100 H 286 V 55 h -60 v 45 H 178.783 V 0 h -30 V 100 H 131.17 c -17.89,0 -32.39,14.5 -32.39,32.38 V 414.9 c 0,17.89 14.5,32.39 32.39,32.39 h 70.75 C 166.936,447.189 139.7,477.325 142,512 h 228 c 2.3,-34.676 -24.937,-64.812 -59.92,-64.71 h 70.75 c 17.89,0 32.39,-14.5 32.39,-32.39 V 132.38 C 413.22,114.5 398.72,100 380.83,100 Z M 264.41,386.42 256,392.11 c -99.911,-61.236 -99.876,-171.01 0,-232.22 94.537,57.111 101.942,164.03 8.41,226.53 z"
         id="path4" />
    </g>
  </g>
</svg>
