<?xml version="1.0" encoding="UTF-8" standalone="no"?>
<!-- Created with Inkscape (http://www.inkscape.org/) -->

<svg
   width="900"
   height="900"
   viewBox="0 0 238.125 238.125"
   version="1.1"
   id="svg5"
   inkscape:version="1.1.2 (b8e25be833, 2022-02-05)"
   sodipodi:docname="rack_velo.svg"
   xmlns:inkscape="http://www.inkscape.org/namespaces/inkscape"
   xmlns:sodipodi="http://sodipodi.sourceforge.net/DTD/sodipodi-0.dtd"
   xmlns="http://www.w3.org/2000/svg"
   xmlns:svg="http://www.w3.org/2000/svg">
  <sodipodi:namedview
     id="namedview7"
     pagecolor="#ffffff"
     bordercolor="#999999"
     borderopacity="1"
     inkscape:pageshadow="0"
     inkscape:pageopacity="0"
     inkscape:pagecheckerboard="0"
     inkscape:document-units="px"
     showgrid="false"
     units="px"
     inkscape:zoom="0.61580177"
     inkscape:cx="488.79366"
     inkscape:cy="327.21569"
     inkscape:window-width="1920"
     inkscape:window-height="1001"
     inkscape:window-x="-9"
     inkscape:window-y="-9"
     inkscape:window-maximized="1"
     inkscape:current-layer="layer1" />
  <defs
     id="defs2">
    <mask
       id="custom">
      <rect
         id="bg"
         x="0"
         y="0"
         width="100%"
         height="100%"
         fill="#ffffff" />
      <g
         transform="matrix(1.3333333,0,0,-1.3333333,0,682.66667)"
         id="g8">
        <path
           transform="translate(467.3467,58)"
           d="M 0,0 -118.347,340.069 -156.46,327.931 -41.979,0 Z"
           style="fill:#ffffff;fill-opacity:1;fill-rule:nonzero;stroke:none"
           id="path2030" />
        <path
           transform="translate(86.6328,58)"
           d="M 0,0 114.48,327.931 76.367,340.069 -41.979,0 Z"
           style="fill:#ffffff;fill-opacity:1;fill-rule:nonzero;stroke:none"
           id="path2034" />
      </g>
    </mask>
    <clipPath
       clipPathUnits="userSpaceOnUse"
       id="clipPath2018">
      <path
         d="M 0,512 H 512 V 0 H 0 Z"
         id="path2016" />
    </clipPath>
  </defs>
  <g
     inkscape:label="Calque 1"
     inkscape:groupmode="layer"
     id="layer1">
    <circle
       style="opacity:1;fill:#4aa6c8;fill-opacity:1;stroke:#ffffff;stroke-width:5.41472;stroke-miterlimit:4;stroke-dasharray:none;stroke-opacity:1"
       id="path850"
       cx="119.0625"
       cy="119.0625"
       r="116.35514" />
    <g
       id="Playground"
       transform="matrix(0.28945418,0,0,0.28945418,44.962232,44.96222)">
      <path
         d="m 220.42235,253.03485 a 35.29533,35.29533 0 1 1 -35.29335,-35.29337 35.335,35.335 0 0 1 35.29335,35.29337 z m 265.29932,163.16683 c -45.40742,0 -54.68266,-26.7767 -68.63539,-67.34468 C 404.96,313.92217 387.47011,254.45377 296.34916,242.79871 v 16.292 c 61.22871,8.05434 85.60952,37.36961 105.41293,95.08917 13.95273,40.16481 27.0189,78.15233 83.95957,78.15233 5.49592,0 5.63751,8.30745 0,8.30745 -62.82865,0 -78.23307,-44.52036 -91.86337,-84.121 -12.67187,-36.64024 -27.74,-81.20212 -97.50914,-88.9595 0,224.94374 0.88557,212.01306 -1.371,217.8426 h 13.06567 a 8.08909,8.08909 0 0 0 8.06525,-8.06525 v -61.69946 c 0,-30.00645 45.56888,-30.08355 45.56888,0 v 61.69939 a 8.08877,8.08877 0 0 0 8.06525,8.06525 h 115.9784 a 8.08909,8.08909 0 0 0 8.06525,-8.06525 v -22.26018 c 19.94567,-8.51665 14.1932,-38.87458 -8.06518,-38.87458 z m -411.8926,-57.586 H 61.65045 a 8.03739,8.03739 0 0 0 -8.06525,8.06525 v 28.793 H 37.85785 a 8.08909,8.08909 0 0 0 -8.06525,8.06525 v 28.793 H 14.06525 A 8.08909,8.08909 0 0 0 6,440.39744 v 36.939 a 8.08909,8.08909 0 0 0 8.06525,8.06525 h 61.2155 C 72.90509,479.26317 73.82907,482.198 73.82907,358.61564 Z m 206.45259,118.6868 a 8.06565,8.06565 0 0 1 -8.06525,8.06525 h -48.07254 a 8.06565,8.06565 0 0 1 -8.06525,-8.06525 v -55.1769 c 0,-40.90714 -61.89925,-40.89631 -61.89925,0 v 55.17689 a 8.06565,8.06565 0 0 1 -8.06525,8.06525 H 98.03763 a 8.06565,8.06565 0 0 1 -8.06525,-8.06525 c 0,-195.49194 0.02757,-87.59495 0.02757,-346.95953 H 54.02528 A 8.07408,8.07408 0 0 1 49.205,115.81132 l 106.7386,-79.605 a 49.13081,49.13081 0 0 1 58.3707,0 l 106.7386,79.605 a 8.07408,8.07408 0 0 1 -4.82025,14.53164 h -35.951 z M 264.15115,130.343 h -19.50153 v 40.32627 h 19.50153 z m -122.38472,0 v 40.32627 h 86.75268 V 130.343 Z m -35.636,0 v 40.32627 H 125.6359 V 130.343 Z m 130.42243,122.69185 a 51.42584,51.42584 0 1 0 -51.42386,51.42781 51.48315,51.48315 0 0 0 51.42386,-51.42781 z"
         id="path2" />
    </g>
  </g>
</svg>
