<?xml version="1.0" encoding="UTF-8" standalone="no"?>
<!-- Created with Inkscape (http://www.inkscape.org/) -->

<svg
   width="900"
   height="900"
   viewBox="0 0 238.125 238.125"
   version="1.1"
   id="svg5"
   inkscape:version="1.1.2 (b8e25be833, 2022-02-05)"
   sodipodi:docname="camera_solaire.svg"
   xmlns:inkscape="http://www.inkscape.org/namespaces/inkscape"
   xmlns:sodipodi="http://sodipodi.sourceforge.net/DTD/sodipodi-0.dtd"
   xmlns="http://www.w3.org/2000/svg"
   xmlns:svg="http://www.w3.org/2000/svg">
  <sodipodi:namedview
     id="namedview7"
     pagecolor="#ffffff"
     bordercolor="#999999"
     borderopacity="1"
     inkscape:pageshadow="0"
     inkscape:pageopacity="0"
     inkscape:pagecheckerboard="0"
     inkscape:document-units="px"
     showgrid="false"
     units="px"
     inkscape:zoom="0.61580177"
     inkscape:cx="488.79366"
     inkscape:cy="327.21569"
     inkscape:window-width="1920"
     inkscape:window-height="1001"
     inkscape:window-x="-9"
     inkscape:window-y="-9"
     inkscape:window-maximized="1"
     inkscape:current-layer="layer1" />
  <defs
     id="defs2">
    <mask
       id="custom">
      <rect
         id="bg"
         x="0"
         y="0"
         width="100%"
         height="100%"
         fill="#ffffff" />
      <g
         transform="matrix(1.3333333,0,0,-1.3333333,0,682.66667)"
         id="g8">
        <path
           transform="translate(467.3467,58)"
           d="M 0,0 -118.347,340.069 -156.46,327.931 -41.979,0 Z"
           style="fill:#ffffff;fill-opacity:1;fill-rule:nonzero;stroke:none"
           id="path2030" />
        <path
           transform="translate(86.6328,58)"
           d="M 0,0 114.48,327.931 76.367,340.069 -41.979,0 Z"
           style="fill:#ffffff;fill-opacity:1;fill-rule:nonzero;stroke:none"
           id="path2034" />
      </g>
    </mask>
    <clipPath
       clipPathUnits="userSpaceOnUse"
       id="clipPath2018">
      <path
         d="M 0,512 H 512 V 0 H 0 Z"
         id="path2016" />
    </clipPath>
  </defs>
  <g
     inkscape:label="Calque 1"
     inkscape:groupmode="layer"
     id="layer1">
    <circle
       style="opacity:1;fill:#cd4c50;fill-opacity:1;stroke:#ffffff;stroke-width:5.41472;stroke-miterlimit:4;stroke-dasharray:none;stroke-opacity:1"
       id="path850"
       cx="119.0625"
       cy="119.0625"
       r="116.35514" />
    <g
       id="g18"
       transform="matrix(0.29956832,0,0,0.29956832,42.37301,42.37301)">
      <polygon
         points="4.805,307.519 12.568,336.493 71.532,320.951 63.769,291.977 "
         id="polygon2" />
      <polygon
         points="448.231,220.023 507.195,204.481 499.432,175.507 440.468,191.049 "
         id="polygon4" />
      <polygon
         points="71.532,191.049 12.568,175.507 4.805,204.481 63.769,220.023 "
         id="polygon6" />
      <polygon
         points="440.468,320.951 499.432,336.493 507.195,307.519 448.231,291.977 "
         id="polygon8" />
      <rect
         y="241"
         width="61"
         height="30"
         id="rect10"
         x="0" />
      <rect
         x="451"
         y="241"
         width="61"
         height="30"
         id="rect12" />
      <path
         d="M 171.42,166.908 91,146.781 v 218.438 l 80.42,-20.112 C 212.392,334.882 241,298.231 241,256 c 0,-42.231 -28.608,-78.882 -69.58,-89.092 z"
         id="path14" />
      <path
         d="M 421,365.219 V 146.781 l -80.42,20.112 C 299.608,177.118 271,213.769 271,256 c 0,42.231 28.608,78.882 69.58,89.092 z"
         id="path16" />
    </g>
  </g>
</svg>
