<svg id="Layer_1" height="512" viewBox="0 0 151 151" width="512" xmlns="http://www.w3.org/2000/svg"><g><g><path d="m150.6 75.5c0-41.5-33.6-75.1-75.1-75.1s-75.1 33.6-75.1 75.1c0 15.6 4.7 30.1 12.9 42.1h124.4c8.1-12 12.9-26.5 12.9-42.1z" fill="#6eb1e1"/></g><g fill="#f1f3f7"><path d="m109.7 32.2c0 18.9-15.3 34.2-34.2 34.2s-34.2-15.3-34.2-34.2h-2c0 8.3 2.8 16 7.6 22.2v21.2h2v-18.9c2 2.2 4.3 4.1 6.8 5.8v13h2v-11.8c1.9 1.1 3.9 2 6 2.7v9.1h2v-8.5c1.8.5 3.6.9 5.5 1.1v7.4h2v-7.2c.7 0 1.5.1 2.2.1.8 0 1.5 0 2.2-.1v7.2h2v-7.4c1.9-.2 3.7-.6 5.5-1.1v8.5h2v-9.1c2.1-.7 4.1-1.6 6-2.7v11.8h2v-13c2.5-1.6 4.8-3.6 6.8-5.8v18.8h2v-21.1c4.8-6.1 7.6-13.8 7.6-22.2z"/><path d="m34.6 32.2c0 18.9-15.3 34.2-34.2 34.2v2c.8 0 1.5 0 2.2-.1v7.2h2v-7.4c1.9-.2 3.7-.6 5.5-1.1v8.5h2v-9.1c2.1-.7 4.1-1.6 6-2.7v11.8h2v-13c2.5-1.6 4.8-3.6 6.8-5.8v18.8h2v-21.1c4.8-6.1 7.6-13.8 7.6-22.2z"/><path d="m150.6 66.4c-18.9 0-34.2-15.3-34.2-34.2h-2c0 8.3 2.8 16 7.6 22.2v21.2h2v-18.9c2 2.2 4.3 4.1 6.8 5.8v13h2v-11.8c1.9 1.1 3.9 2 6 2.7v9.1h2v-8.5c1.8.5 3.6.9 5.5 1.1v7.4h2v-7.2c.7 0 1.5.1 2.2.1v-2z"/></g><g><g><path d="m115.4 75.6h35.2v5.8h-35.2z" fill="#d54232"/></g><g><g><path d="m40.3 75.6h70.4v5.8h-70.4z" fill="#d54232"/></g><g><path d="m.4 75.6h35.2v5.8h-35.2z" fill="#d54232"/></g></g></g><g><path d="m13.3 117.6c13.5 19.9 36.3 33 62.2 33s48.7-13.1 62.2-33z" fill="#4485c5"/></g><g fill="#f0582f"><path d="m34.6 26.4h6.6v83.4h-6.6z"/><path d="m109.7 26.4h6.6v83.4h-6.6z"/></g><g><path d="m31.9 108.8h12v8.8h-12z" fill="#f6ceb0"/></g><g><path d="m107 108.8h12v8.8h-12z" fill="#f6ceb0"/></g></g></svg>