<?xml version="1.0" encoding="UTF-8" standalone="no"?>
<!-- Created with Inkscape (http://www.inkscape.org/) -->

<svg
   width="900"
   height="900"
   viewBox="0 0 238.125 238.125"
   version="1.1"
   id="svg5"
   inkscape:version="1.1.2 (b8e25be833, 2022-02-05)"
   sodipodi:docname="poubelle.svg"
   xmlns:inkscape="http://www.inkscape.org/namespaces/inkscape"
   xmlns:sodipodi="http://sodipodi.sourceforge.net/DTD/sodipodi-0.dtd"
   xmlns="http://www.w3.org/2000/svg"
   xmlns:svg="http://www.w3.org/2000/svg">
  <sodipodi:namedview
     id="namedview7"
     pagecolor="#ffffff"
     bordercolor="#999999"
     borderopacity="1"
     inkscape:pageshadow="0"
     inkscape:pageopacity="0"
     inkscape:pagecheckerboard="0"
     inkscape:document-units="px"
     showgrid="false"
     units="px"
     inkscape:zoom="0.61580177"
     inkscape:cx="488.79366"
     inkscape:cy="327.21569"
     inkscape:window-width="1920"
     inkscape:window-height="1001"
     inkscape:window-x="-9"
     inkscape:window-y="-9"
     inkscape:window-maximized="1"
     inkscape:current-layer="layer1" />
  <defs
     id="defs2">
    <mask
       id="custom">
      <rect
         id="bg"
         x="0"
         y="0"
         width="100%"
         height="100%"
         fill="#ffffff" />
      <g
         transform="matrix(1.3333333,0,0,-1.3333333,0,682.66667)"
         id="g8">
        <path
           transform="translate(467.3467,58)"
           d="M 0,0 -118.347,340.069 -156.46,327.931 -41.979,0 Z"
           style="fill:#ffffff;fill-opacity:1;fill-rule:nonzero;stroke:none"
           id="path2030" />
        <path
           transform="translate(86.6328,58)"
           d="M 0,0 114.48,327.931 76.367,340.069 -41.979,0 Z"
           style="fill:#ffffff;fill-opacity:1;fill-rule:nonzero;stroke:none"
           id="path2034" />
      </g>
    </mask>
    <clipPath
       clipPathUnits="userSpaceOnUse"
       id="clipPath2018">
      <path
         d="M 0,512 H 512 V 0 H 0 Z"
         id="path2016" />
    </clipPath>
  </defs>
  <g
     inkscape:label="Calque 1"
     inkscape:groupmode="layer"
     id="layer1">
    <circle
       style="opacity:1;fill:#c8614a;fill-opacity:1;stroke:#ffffff;stroke-width:5.41472;stroke-miterlimit:4;stroke-dasharray:none;stroke-opacity:1"
       id="path850"
       cx="119.0625"
       cy="119.0625"
       r="116.35514" />
    <g
       id="g12"
       transform="matrix(0.26458333,0,0,0.26458333,51.329168,51.329168)">
      <g
         id="g10">
        <path
           d="M 471.658,155.617 306.496,23.488 C 287.566,8.342 263.767,0 239.484,0 214.599,0 191.665,8.512 173.439,22.778 154.658,8.092 131.246,0 107.355,0 48.159,0 0,48.159 0,107.355 c 0,32.788 14.704,63.357 40.348,83.871 l 70.035,55.934 c 13.82,11.057 21.746,27.522 21.746,45.176 v 145.342 c 0,4.562 3.697,8.258 8.258,8.258 4.561,0 8.258,-3.696 8.258,-8.258 V 292.336 c 0,-22.699 -10.185,-43.866 -27.951,-58.077 L 50.659,178.325 c -21.699,-17.36 -34.143,-43.226 -34.143,-70.97 0,-50.088 40.75,-90.839 90.839,-90.839 19.588,0 38.081,6.071 53.724,17.591 -3.765,4.027 -7.225,8.341 -10.341,12.909 -12.672,-9.155 -27.589,-13.984 -43.382,-13.984 -40.982,0 -74.323,33.341 -74.323,74.323 0,22.699 10.185,43.866 27.95,58.077 l 70.036,55.933 c 21.699,17.36 34.143,43.226 34.143,70.97 V 462.451 H 8.258 C 3.697,462.451 0,466.147 0,470.709 v 33.032 C 0,508.304 3.697,512 8.258,512 h 495.484 c 4.562,0 8.258,-3.696 8.258,-8.258 V 239.484 c 0,-32.789 -14.704,-63.357 -40.342,-83.867 z M 141.33,208.464 71.295,152.53 c -13.82,-11.056 -21.746,-27.523 -21.746,-45.176 0,-31.874 25.931,-57.806 57.806,-57.806 12.858,0 24.964,4.116 35.101,11.895 -6.617,13.927 -10.327,29.493 -10.327,45.912 0,32.788 14.704,63.357 40.348,83.871 l 70.035,55.934 c 13.82,11.057 21.746,27.522 21.746,45.176 V 462.452 H 181.677 V 292.336 c 0,-32.788 -14.703,-63.357 -40.347,-83.872 z m 354.154,287.02 H 16.516 V 478.968 H 495.484 Z M 273.459,208.464 203.424,152.53 c -13.82,-11.056 -21.746,-27.523 -21.746,-45.176 0,-31.874 25.931,-57.806 57.806,-57.806 13.264,0 25.732,4.367 36.058,12.629 l 165.162,132.13 c 13.821,11.057 21.747,27.522 21.747,45.176 V 462.451 H 379.87 V 239.484 c 0,-32.789 -14.704,-63.357 -40.342,-83.867 L 232.664,70.125 c -3.562,-2.85 -8.758,-2.272 -11.608,1.289 -2.85,3.561 -2.271,8.758 1.289,11.607 l 106.864,85.492 c 21.7,17.358 34.145,43.226 34.145,70.97 V 462.451 H 313.806 V 292.336 c 0,-32.789 -14.703,-63.357 -40.347,-83.872 z M 495.484,462.452 H 478.968 V 239.484 c 0,-22.699 -10.186,-43.866 -27.945,-58.073 L 285.86,49.281 c -13.286,-10.63 -29.323,-16.249 -46.376,-16.249 -40.982,0 -74.323,33.341 -74.323,74.323 0,22.699 10.185,43.866 27.95,58.077 l 70.035,55.933 c 21.699,17.358 34.144,43.226 34.144,70.97 V 462.451 H 280.774 V 292.336 c 0,-22.699 -10.186,-43.866 -27.951,-58.077 l -70.035,-55.934 c -21.699,-17.36 -34.143,-43.227 -34.143,-70.97 0,-50.088 40.75,-90.839 90.839,-90.839 20.844,0 40.448,6.871 56.694,19.869 L 461.34,168.514 c 21.699,17.358 34.144,43.226 34.144,70.97 z"
           id="path8" />
      </g>
    </g>
  </g>
</svg>
