<?xml version="1.0" encoding="UTF-8" standalone="no"?>
<!-- Created with Inkscape (http://www.inkscape.org/) -->

<svg
   width="900"
   height="900"
   viewBox="0 0 238.125 238.125"
   version="1.1"
   id="svg5"
   inkscape:version="1.1.2 (b8e25be833, 2022-02-05)"
   sodipodi:docname="toilette_seche.svg"
   xmlns:inkscape="http://www.inkscape.org/namespaces/inkscape"
   xmlns:sodipodi="http://sodipodi.sourceforge.net/DTD/sodipodi-0.dtd"
   xmlns="http://www.w3.org/2000/svg"
   xmlns:svg="http://www.w3.org/2000/svg">
  <sodipodi:namedview
     id="namedview7"
     pagecolor="#ffffff"
     bordercolor="#999999"
     borderopacity="1"
     inkscape:pageshadow="0"
     inkscape:pageopacity="0"
     inkscape:pagecheckerboard="0"
     inkscape:document-units="px"
     showgrid="false"
     units="px"
     inkscape:zoom="0.61580177"
     inkscape:cx="488.79366"
     inkscape:cy="327.21569"
     inkscape:window-width="1920"
     inkscape:window-height="1001"
     inkscape:window-x="-9"
     inkscape:window-y="-9"
     inkscape:window-maximized="1"
     inkscape:current-layer="layer1" />
  <defs
     id="defs2">
    <mask
       id="custom">
      <rect
         id="bg"
         x="0"
         y="0"
         width="100%"
         height="100%"
         fill="#ffffff" />
      <g
         transform="matrix(1.3333333,0,0,-1.3333333,0,682.66667)"
         id="g8">
        <path
           transform="translate(467.3467,58)"
           d="M 0,0 -118.347,340.069 -156.46,327.931 -41.979,0 Z"
           style="fill:#ffffff;fill-opacity:1;fill-rule:nonzero;stroke:none"
           id="path2030" />
        <path
           transform="translate(86.6328,58)"
           d="M 0,0 114.48,327.931 76.367,340.069 -41.979,0 Z"
           style="fill:#ffffff;fill-opacity:1;fill-rule:nonzero;stroke:none"
           id="path2034" />
      </g>
    </mask>
    <clipPath
       clipPathUnits="userSpaceOnUse"
       id="clipPath2018">
      <path
         d="M 0,512 H 512 V 0 H 0 Z"
         id="path2016" />
    </clipPath>
  </defs>
  <g
     inkscape:label="Calque 1"
     inkscape:groupmode="layer"
     id="layer1">
    <circle
       style="opacity:1;fill:#abb18e;fill-opacity:1;stroke:#ffffff;stroke-width:5.41472;stroke-miterlimit:4;stroke-dasharray:none;stroke-opacity:1"
       id="path850"
       cx="119.0625"
       cy="119.0625"
       r="116.35514" />
    <g
       id="g18"
       transform="matrix(2.5334148,0,0,2.5334148,41.48046,41.479205)">
      <g
         id="g16">
        <path
           d="m 59.424,44.475 c -0.475,-2.273 -1.23,-4.312 -2.427,-4.644 -2.89,-0.803 -11.16,-4.638 -11.16,-4.638 v 0.01 C 41.895,26.24 33.958,24.82 24.806,24.82 13.06,24.82 3.316,27.162 1.452,44.792 0.556,45.702 0,46.947 0,48.325 c 0,2.652 2.058,4.801 4.66,4.994 0.003,-0.663 0.086,-1.307 0.229,-1.928 0.891,-3.85 4.335,-6.723 8.456,-6.723 4.121,0 7.565,2.873 8.456,6.723 0.146,0.633 0.231,1.289 0.231,1.965 h 16.625 c 0,-0.678 0.085,-1.332 0.231,-1.965 0.779,-3.369 3.514,-5.98 6.946,-6.584 0.491,-0.086 0.993,-0.14 1.509,-0.14 0.274,0 0.545,0.017 0.812,0.041 3.756,0.349 6.812,3.088 7.644,6.683 0.146,0.631 0.231,1.287 0.231,1.963 h 0.185 c 1.618,0 3.042,-0.776 3.964,-1.963 h 0.026 c 0,0 0,-0.012 -10e-4,-0.032 0.645,-0.847 1.043,-1.89 1.043,-3.036 0.003,-1.553 -0.716,-2.924 -1.823,-3.848 z"
           id="path2" />
        <path
           d="m 20.034,53.356 v 0 c 0,-0.683 -0.104,-1.342 -0.295,-1.963 -0.841,-2.732 -3.388,-4.724 -6.392,-4.724 -3.004,0 -5.551,1.991 -6.392,4.724 -0.191,0.621 -0.295,1.28 -0.295,1.963 v 0 c 0,3.688 3,6.688 6.688,6.688 3.686,-10e-4 6.686,-3.001 6.686,-6.688 z m -10.342,0 c 0,-0.725 0.217,-1.396 0.581,-1.963 0.649,-1.015 1.779,-1.69 3.073,-1.69 1.294,0 2.423,0.676 3.073,1.69 0.364,0.567 0.581,1.24 0.581,1.963 0,2.019 -1.636,3.654 -3.654,3.654 -2.018,0 -3.654,-1.635 -3.654,-3.654 z"
           id="path4" />
        <path
           d="m 54.034,53.356 v 0 c 0,-0.683 -0.104,-1.342 -0.296,-1.963 -0.746,-2.426 -2.842,-4.262 -5.405,-4.643 -0.323,-0.048 -0.649,-0.081 -0.985,-0.081 -0.52,0 -1.023,0.065 -1.51,0.179 -2.322,0.539 -4.188,2.285 -4.883,4.545 -0.191,0.621 -0.295,1.28 -0.295,1.963 v 0 c 0,3.688 3,6.688 6.688,6.688 3.688,0 6.686,-3.001 6.686,-6.688 z m -10.343,0 c 0,-0.725 0.218,-1.396 0.582,-1.963 0.377,-0.592 0.92,-1.062 1.563,-1.356 0.461,-0.21 0.97,-0.334 1.509,-0.334 0.396,0 0.768,0.079 1.125,0.194 0.809,0.265 1.496,0.791 1.947,1.496 0.364,0.567 0.581,1.24 0.581,1.963 0,2.019 -1.636,3.654 -3.653,3.654 -2.017,0 -3.654,-1.635 -3.654,-3.654 z"
           id="path6" />
        <path
           d="m 45.625,29.536 c 0,0.552 0.6,0.668 1.104,0.668 h 2.342 c 0.736,0 1.555,-0.274 1.555,-0.668 V 24.63 c -0.811,0.152 -1.643,0.241 -2.5,0.241 -0.857,0 -1.689,-0.089 -2.5,-0.241 v 4.906 z"
           id="path8" />
        <path
           d="m 55.625,2.415 c 0,-0.669 -0.542,-1.211 -1.211,-1.211 h -1.578 c -0.669,0 -1.211,0.542 -1.211,1.211 v 7.789 h 4 z"
           id="path10" />
        <path
           d="m 44.625,2.415 c 0,-0.669 -0.542,-1.211 -1.211,-1.211 h -1.578 c -0.669,0 -1.211,0.542 -1.211,1.211 v 7.789 h 4 z"
           id="path12" />
        <path
           d="m 36.334,12.204 c 0.412,4.833 3.785,8.834 8.291,10.18 0.327,0.098 0.661,0.179 1,0.248 0.755,0.154 1.534,0.239 2.333,0.239 0.919,0 1.808,-0.119 2.667,-0.32 0.339,-0.08 0.673,-0.173 1,-0.282 4.336,-1.441 7.557,-5.353 7.958,-10.065 h -3.958 -4 -7 -4 z"
           id="path14" />
      </g>
    </g>
  </g>
</svg>
