<?xml version="1.0" encoding="UTF-8" standalone="no"?>
<!-- Created with Inkscape (http://www.inkscape.org/) -->

<svg
   width="900"
   height="900"
   viewBox="0 0 238.125 238.125"
   version="1.1"
   id="svg5"
   inkscape:version="1.1.2 (b8e25be833, 2022-02-05)"
   sodipodi:docname="sac_excrement.svg"
   xmlns:inkscape="http://www.inkscape.org/namespaces/inkscape"
   xmlns:sodipodi="http://sodipodi.sourceforge.net/DTD/sodipodi-0.dtd"
   xmlns="http://www.w3.org/2000/svg"
   xmlns:svg="http://www.w3.org/2000/svg">
  <sodipodi:namedview
     id="namedview7"
     pagecolor="#ffffff"
     bordercolor="#999999"
     borderopacity="1"
     inkscape:pageshadow="0"
     inkscape:pageopacity="0"
     inkscape:pagecheckerboard="0"
     inkscape:document-units="px"
     showgrid="false"
     units="px"
     inkscape:zoom="0.61580177"
     inkscape:cx="488.79366"
     inkscape:cy="327.21569"
     inkscape:window-width="1920"
     inkscape:window-height="1001"
     inkscape:window-x="-9"
     inkscape:window-y="-9"
     inkscape:window-maximized="1"
     inkscape:current-layer="layer1" />
  <defs
     id="defs2">
    <mask
       id="custom">
      <rect
         id="bg"
         x="0"
         y="0"
         width="100%"
         height="100%"
         fill="#ffffff" />
      <g
         transform="matrix(1.3333333,0,0,-1.3333333,0,682.66667)"
         id="g8">
        <path
           transform="translate(467.3467,58)"
           d="M 0,0 -118.347,340.069 -156.46,327.931 -41.979,0 Z"
           style="fill:#ffffff;fill-opacity:1;fill-rule:nonzero;stroke:none"
           id="path2030" />
        <path
           transform="translate(86.6328,58)"
           d="M 0,0 114.48,327.931 76.367,340.069 -41.979,0 Z"
           style="fill:#ffffff;fill-opacity:1;fill-rule:nonzero;stroke:none"
           id="path2034" />
      </g>
    </mask>
    <clipPath
       clipPathUnits="userSpaceOnUse"
       id="clipPath2018">
      <path
         d="M 0,512 H 512 V 0 H 0 Z"
         id="path2016" />
    </clipPath>
  </defs>
  <g
     inkscape:label="Calque 1"
     inkscape:groupmode="layer"
     id="layer1">
    <circle
       style="opacity:1;fill:#bca573;fill-opacity:1;stroke:#ffffff;stroke-width:5.41472;stroke-miterlimit:4;stroke-dasharray:none;stroke-opacity:1"
       id="path850"
       cx="119.0625"
       cy="119.0625"
       r="116.35514" />
    <g
       id="g14"
       transform="matrix(0.29801785,0,0,0.29801785,42.769829,42.769963)">
      <g
         id="g10">
        <path
           d="m 297.831,274.84 -53.7,-7.43 c 0.77,-2.99 1.88,-6.29 3.48,-9.55 6.31,-12.87 17.35,-19.12 33.77,-19.12 12.51,0 22.36,-2.06 30.06,-5.04 0.01,13.61 -2.69,30.07 -13.61,41.14 z"
           id="path2" />
        <path
           d="m 182.631,318.64 c 0,-15.417 13.31,-26.918 27.92,-25.59 0.469,0.065 101.509,14.053 101.98,14.1 9.565,0.952 16.84,8.962 16.84,18.55 0,2.83 -0.64,5.59 -1.85,8.09 l -122.22,10.36 c -12.638,-1.485 -22.67,-12.224 -22.67,-25.51 z"
           id="path4" />
        <path
           d="m 361.441,388.96 c 0,14.188 -11.494,25.69 -25.69,25.69 h -166.56 c -10.27,0 -18.63,-8.36 -18.63,-18.63 0,-9.596 7.28,-17.57 16.75,-18.54 177.319,-15.032 167.002,-14.2 168.51,-14.2 13.98,0 25.62,11.376 25.62,25.68 z"
           id="path6" />
        <path
           d="m 469.851,400.46 -23.96,-132.7 c -16.59,-91.95 -96.45,-158.69 -189.89,-158.69 -93.44,0 -173.3,66.74 -189.89,158.69 l -23.96,132.7 C 31.677,458.603 76.371,512 135.361,512 h 241.28 c 59.077,0 103.669,-53.484 93.21,-111.54 z m -134.1,44.19 h -166.56 c -26.81,0 -48.63,-21.82 -48.63,-48.63 0,-23.745 17.121,-43.959 40.49,-47.93 -5.47,-8.75 -8.42,-18.87 -8.42,-29.45 0,-32.828 28.364,-58.606 61.08,-55.42 0.19,0.01 0.38,0.04 0.56,0.06 1.2,-5.55 3.17,-12.06 6.4,-18.64 11.36,-23.15 32.92,-35.9 60.71,-35.9 20.59,0 27.07,-7.5 28.27,-9.19 2.07,-6.17 7.66,-9.59 14.24,-9.45 6.7,0.13 12.22,5.47 13.92,11.95 0.59,2.24 11.57,45.51 -7.46,79.15 6.17,2.72 11.77,6.72 16.39,11.81 10.909,12.006 15.215,28.733 11.08,44.82 19.378,8.362 33.62,27.746 33.62,51.13 0,30.714 -24.856,55.69 -55.69,55.69 z"
           id="path8" />
      </g>
      <path
         d="m 356.141,24.3 c -0.26,0.34 -20.81,26.83 -34.36,64.64 -20.87,-6.43 -42.97,-9.87 -65.78,-9.87 -22.8,0 -44.9,3.44 -65.76,9.86 -13.54,-37.92 -34.1,-64.29 -34.38,-64.63 -4.03,-5.1 -4.31,-12.2 -0.72,-17.61 3.6,-5.4 10.26,-7.88 16.52,-6.14 l 82.37,22.95 86.48,-23 c 6.25,-1.65 12.85,0.87 16.4,6.26 3.54,5.4 3.24,12.47 -0.77,17.54 z"
         id="path12" />
    </g>
  </g>
</svg>
