<?xml version="1.0" encoding="UTF-8" standalone="no"?>
<svg
   version="1.1"
   width="512"
   height="512"
   x="0"
   y="0"
   viewBox="0 0 464.001 464.001"
   style="enable-background:new 0 0 512 512"
   xml:space="preserve"
   class=""
   id="svg10"
   sodipodi:docname="gps3.svg"
   inkscape:version="1.1.2 (b8e25be833, 2022-02-05)"
   xmlns:inkscape="http://www.inkscape.org/namespaces/inkscape"
   xmlns:sodipodi="http://sodipodi.sourceforge.net/DTD/sodipodi-0.dtd"
   xmlns="http://www.w3.org/2000/svg"
   xmlns:svg="http://www.w3.org/2000/svg"><defs
     id="defs14" /><sodipodi:namedview
     id="namedview12"
     pagecolor="#ffffff"
     bordercolor="#999999"
     borderopacity="1"
     inkscape:pageshadow="0"
     inkscape:pageopacity="0"
     inkscape:pagecheckerboard="0"
     showgrid="false"
     inkscape:zoom="1.578125"
     inkscape:cx="256"
     inkscape:cy="205.62376"
     inkscape:window-width="1920"
     inkscape:window-height="1001"
     inkscape:window-x="-1929"
     inkscape:window-y="-9"
     inkscape:window-maximized="1"
     inkscape:current-layer="svg10" /><g
     id="g890"><path
       d="m 272.001,305.273 c 104.624,6.728 184,39.424 184,78.728 0,44.184 -100.288,80 -224,80 -123.712,0 -224,-35.816 -224,-80 0,-39.304 79.376,-72 184,-78.728"
       fill="#29e22c"
       data-original="#29abe2"
       class=""
       id="path2"
       style="fill:#e28e29;fill-opacity:1" /><path
       d="m 131.585,208.361 100.416,143.64 100.416,-143.64 a 151.454,151.454 0 0 0 27.584,-86.864 C 359.368,71.827 328.061,27.734 281.377,10.761 L 275.521,8.529 A 130.78,130.78 0 0 0 187.753,6.697 c -49.271,15.535 -83.031,60.911 -83.752,112.568 v 2.232 a 151.454,151.454 0 0 0 27.584,86.864 z"
       fill="#7b1ced"
       data-original="#ed1c24"
       class=""
       id="path4" /></g><circle
     cx="232.00101"
     cy="119.201"
     r="68.199997"
     fill="#f2f2f2"
     data-original="#f2f2f2"
     class=""
     id="circle6" /></svg>
