<svg xmlns="http://www.w3.org/2000/svg" version="1.1" xmlns:xlink="http://www.w3.org/1999/xlink" xmlns:svgjs="http://svgjs.com/svgjs" width="512" height="512" x="0" y="0" viewBox="0 0 464.001 464.001" style="enable-background:new 0 0 512 512" xml:space="preserve" class=""><g><path d="M272.001 305.273c104.624 6.728 184 39.424 184 78.728 0 44.184-100.288 80-224 80s-224-35.816-224-80c0-39.304 79.376-72 184-78.728" style="" fill="#29e22c" data-original="#29abe2" class=""></path><path d="m131.585 208.361 100.416 143.64 100.416-143.64a151.454 151.454 0 0 0 27.584-86.864c-.633-49.67-31.94-93.763-78.624-110.736l-5.856-2.232a130.78 130.78 0 0 0-87.768-1.832c-49.271 15.535-83.031 60.911-83.752 112.568v2.232a151.454 151.454 0 0 0 27.584 86.864z" style="" fill="#ed1c9b" data-original="#ed1c24" class=""></path><circle cx="232.001" cy="119.201" r="68.2" style="" fill="#f2f2f2" data-original="#f2f2f2" class=""></circle></g></svg>