<?xml version="1.0" encoding="UTF-8" standalone="no"?>
<!-- Created with Inkscape (http://www.inkscape.org/) -->

<svg
   version="1.1"
   id="svg1"
   width="58.666668"
   height="189.33333"
   viewBox="0 0 58.666668 189.33333"
   sodipodi:docname="P-270-2-B-360x1200.eps"
   xmlns:inkscape="http://www.inkscape.org/namespaces/inkscape"
   xmlns:sodipodi="http://sodipodi.sourceforge.net/DTD/sodipodi-0.dtd"
   xmlns="http://www.w3.org/2000/svg"
   xmlns:svg="http://www.w3.org/2000/svg">
  <defs
     id="defs1" />
  <sodipodi:namedview
     id="namedview1"
     pagecolor="#ffffff"
     bordercolor="#000000"
     borderopacity="0.25"
     inkscape:showpageshadow="2"
     inkscape:pageopacity="0.0"
     inkscape:pagecheckerboard="0"
     inkscape:deskcolor="#d1d1d1">
    <inkscape:page
       x="0"
       y="0"
       inkscape:label="1"
       id="page1"
       width="58.666668"
       height="189.33333"
       margin="0"
       bleed="0" />
  </sodipodi:namedview>
  <g
     id="g1"
     inkscape:groupmode="layer"
     inkscape:label="1">
    <path
       id="path1"
       d="M 7.40234,1.33984 V 1418.66 H 432.598 V 1.33984 H 7.40234"
       style="fill:#231f20;fill-opacity:1;fill-rule:evenodd;stroke:none"
       transform="matrix(0.13333333,0,0,-0.13333333,0,189.33333)" />
    <path
       id="path2"
       d="M 19.1445,192.617 V 1373.72 H 420.719 V 192.617 H 19.1445"
       style="fill:#f7d719;fill-opacity:1;fill-rule:evenodd;stroke:none"
       transform="matrix(0.13333333,0,0,-0.13333333,0,189.33333)" />
    <path
       id="path3"
       d="m 345.617,1305.24 -60.562,-104.89 c -1.489,-2.58 -4.239,-4.17 -7.215,-4.17 -2.977,0 -5.727,1.59 -7.215,4.17 l -60.566,104.89 c -1.493,2.58 -1.493,5.76 0,8.34 1.484,2.57 4.238,4.16 7.214,4.16 h 121.129 c 2.977,0 5.731,-1.59 7.215,-4.16 1.492,-2.58 1.492,-5.76 0,-8.34"
       style="fill:#ffffff;fill-opacity:1;fill-rule:evenodd;stroke:none"
       transform="matrix(0.13333333,0,0,-0.13333333,0,189.33333)" />
    <path
       id="path4"
       d="m 54.5742,959.426 c 0,-15.235 12.3203,-27.551 27.5547,-27.551 H 357.734 c 15.231,0 27.551,12.316 27.551,27.551 v 358.284 c 0,15.24 -12.32,27.56 -27.551,27.56 H 82.1289 c -15.2344,0 -27.5547,-12.32 -27.5547,-27.56 V 959.426"
       style="fill:#ffffff;fill-opacity:1;fill-rule:evenodd;stroke:none"
       transform="matrix(0.13333333,0,0,-0.13333333,0,189.33333)" />
    <path
       id="path5"
       d="m 61.2656,959.473 c 0,-5.789 2.043,-10.723 6.125,-14.809 4.0821,-4.086 9.0196,-6.129 14.8086,-6.129 H 357.805 c 5.789,0 10.726,2.043 14.812,6.129 4.086,4.086 6.125,9.02 6.125,14.809 v 358.287 c 0,5.79 -2.039,10.72 -6.125,14.81 -4.086,4.09 -9.023,6.13 -14.812,6.13 H 82.1992 c -5.789,0 -10.7265,-2.04 -14.8086,-6.13 -4.082,-4.09 -6.125,-9.02 -6.125,-14.81 V 959.473"
       style="fill:#231f20;fill-opacity:1;fill-rule:evenodd;stroke:none"
       transform="matrix(0.13333333,0,0,-0.13333333,0,189.33333)" />
    <path
       id="path6"
       d="m 71.2227,959.512 c 0,-3.051 1.0742,-5.649 3.2226,-7.797 2.1445,-2.145 4.7422,-3.219 7.793,-3.219 H 357.844 c 3.051,0 5.652,1.074 7.797,3.219 2.148,2.148 3.222,4.746 3.222,7.797 V 1317.8 c 0,3.05 -1.074,5.65 -3.222,7.8 -2.145,2.14 -4.746,3.22 -7.797,3.22 H 82.2383 c -3.0508,0 -5.6485,-1.08 -7.793,-3.22 -2.1484,-2.15 -3.2226,-4.75 -3.2226,-7.8 V 959.512"
       style="fill:#ffffff;fill-opacity:1;fill-rule:evenodd;stroke:none"
       transform="matrix(0.13333333,0,0,-0.13333333,0,189.33333)" />
    <path
       id="path7"
       d="m 166.387,1279.88 c -8.106,0 -14.817,-6.69 -14.817,-14.82 0,-8.15 6.711,-14.79 14.817,-14.79 8.125,0 14.793,6.64 14.793,14.79 0,8.13 -6.668,14.82 -14.793,14.82"
       style="fill:#231f20;fill-opacity:1;fill-rule:evenodd;stroke:none"
       transform="matrix(0.13333333,0,0,-0.13333333,0,189.33333)" />
    <path
       id="path8"
       d="m 166.266,1139.78 -17.672,32.8 v -29.81 l -28.707,-39.63 c -2.489,-3.36 -1.961,-8.09 1.199,-10.82 3.496,-3.04 8.828,-2.47 11.625,1.22 l 33.555,46.24"
       style="fill:#231f20;fill-opacity:1;fill-rule:evenodd;stroke:none"
       transform="matrix(0.13333333,0,0,-0.13333333,0,189.33333)" />
    <path
       id="path9"
       d="m 208.867,1102.46 -29.941,56.75 -0.18,56.44 11.32,-16.4 18.375,-15.34 c 2.586,-2 6.317,-1.59 8.422,0.95 2.133,2.55 1.832,6.32 -0.636,8.52 l -17.602,14.64 -19.891,31.61 c -0.429,0.83 -1.031,1.55 -1.765,2.1 -0.985,0.75 -2.16,1.17 -3.387,1.24 l -20.566,0.87 c -1.176,-0.04 -2.336,-0.37 -3.352,-0.97 -0.801,-0.48 -1.492,-1.11 -2.051,-1.87 L 121,1203.62 l 10.438,-23.93 c 1.292,-3.17 4.953,-4.67 8.082,-3.26 3.043,1.36 4.414,4.95 3.054,7.98 l -7.011,16.11 12.917,20.95 0.122,-42.14 46.324,-84.14 c 1.992,-3.71 6.625,-5.18 10.418,-3.3 3.894,1.91 5.484,6.66 3.523,10.57"
       style="fill:#231f20;fill-opacity:1;fill-rule:evenodd;stroke:none"
       transform="matrix(0.13333333,0,0,-0.13333333,0,189.33333)" />
    <path
       id="path10"
       d="m 199.266,1056.66 h 41.339 v 17.36 h -41.339 v -17.36"
       style="fill:#231f20;fill-opacity:1;fill-rule:evenodd;stroke:none"
       transform="matrix(0.13333333,0,0,-0.13333333,0,189.33333)" />
    <path
       id="path11"
       d="m 254.352,1056.66 h 41.332 v 17.36 h -41.332 v -17.36"
       style="fill:#231f20;fill-opacity:1;fill-rule:evenodd;stroke:none"
       transform="matrix(0.13333333,0,0,-0.13333333,0,189.33333)" />
    <path
       id="path12"
       d="m 309.551,1056.66 h 41.336 v 17.36 h -41.336 v -17.36"
       style="fill:#231f20;fill-opacity:1;fill-rule:evenodd;stroke:none"
       transform="matrix(0.13333333,0,0,-0.13333333,0,189.33333)" />
    <path
       id="path13"
       d="m 144.184,1056.66 h 41.339 v 17.36 h -41.339 v -17.36"
       style="fill:#231f20;fill-opacity:1;fill-rule:evenodd;stroke:none"
       transform="matrix(0.13333333,0,0,-0.13333333,0,189.33333)" />
    <path
       id="path14"
       d="m 88.9844,1056.66 h 41.3396 v 17.36 H 88.9844 v -17.36"
       style="fill:#231f20;fill-opacity:1;fill-rule:evenodd;stroke:none"
       transform="matrix(0.13333333,0,0,-0.13333333,0,189.33333)" />
    <path
       id="path15"
       d="m 343.035,1306.74 -60.566,-104.9 c -1.024,-1.77 -2.563,-2.66 -4.617,-2.66 -2.051,0 -3.59,0.89 -4.622,2.66 l -60.562,104.9 c -0.477,0.83 -0.711,1.72 -0.711,2.67 0,0.95 0.234,1.84 0.711,2.67 1.023,1.77 2.562,2.66 4.621,2.66 h 121.129 c 2.051,0 3.59,-0.89 4.617,-2.66 0.477,-0.83 0.715,-1.72 0.715,-2.67 0,-0.95 -0.238,-1.84 -0.715,-2.67"
       style="fill:#ed2e30;fill-opacity:1;fill-rule:evenodd;stroke:none"
       transform="matrix(0.13333333,0,0,-0.13333333,0,189.33333)" />
    <path
       id="path16"
       d="m 307.363,1287.32 -25.925,-44.9 c -0.743,-1.29 -2.122,-2.08 -3.61,-2.08 -1.488,0 -2.859,0.79 -3.605,2.08 l -25.926,44.9 c -0.742,1.29 -0.742,2.88 0,4.17 0.746,1.29 2.117,2.08 3.605,2.08 h 51.852 c 1.488,0 2.863,-0.79 3.609,-2.08 0.746,-1.29 0.742,-2.88 0,-4.17"
       style="fill:#ffffff;fill-opacity:1;fill-rule:evenodd;stroke:none"
       transform="matrix(0.13333333,0,0,-0.13333333,0,189.33333)" />
  </g>
</svg>
