<?xml version="1.0" encoding="UTF-8" standalone="no"?>
<!-- Created with Inkscape (http://www.inkscape.org/) -->

<svg
   version="1.1"
   id="svg1"
   width="96"
   height="189.33333"
   viewBox="0 0 96 189.33333"
   sodipodi:docname="P-345-450x900.eps"
   xmlns:inkscape="http://www.inkscape.org/namespaces/inkscape"
   xmlns:sodipodi="http://sodipodi.sourceforge.net/DTD/sodipodi-0.dtd"
   xmlns="http://www.w3.org/2000/svg"
   xmlns:svg="http://www.w3.org/2000/svg">
  <defs
     id="defs1" />
  <sodipodi:namedview
     id="namedview1"
     pagecolor="#ffffff"
     bordercolor="#000000"
     borderopacity="0.25"
     inkscape:showpageshadow="2"
     inkscape:pageopacity="0.0"
     inkscape:pagecheckerboard="0"
     inkscape:deskcolor="#d1d1d1">
    <inkscape:page
       x="0"
       y="0"
       inkscape:label="1"
       id="page1"
       width="96"
       height="189.33333"
       margin="0"
       bleed="0" />
  </sodipodi:namedview>
  <g
     id="g1"
     inkscape:groupmode="layer"
     inkscape:label="1">
    <path
       id="path1"
       d="M 5.65625,80.0977 C 5.65625,36.6172 40.9375,1.33984 84.418,1.33984 v 0 h 551.164 v 0 c 43.481,0 78.762,35.27736 78.762,78.75786 v 0 1259.8523 0 c 0,43.47 -35.281,78.71 -78.762,78.71 v 0 H 84.418 v 0 c -43.4805,0 -78.76175,-35.24 -78.76175,-78.71 v 0 V 80.0977"
       style="fill:#ffffff;fill-opacity:1;fill-rule:evenodd;stroke:none"
       transform="matrix(0.13333333,0,0,-0.13333333,0,189.33333)" />
    <path
       id="path2"
       d="M 5.65625,80.0977 C 5.65625,36.6172 40.9375,1.33984 84.418,1.33984 v 0 h 551.164 v 0 c 43.481,0 78.762,35.27736 78.762,78.75786 v 0 1259.8523 0 c 0,43.47 -35.281,78.71 -78.762,78.71 v 0 H 84.418 v 0 c -43.4805,0 -78.76175,-35.24 -78.76175,-78.71 v 0 z"
       style="fill:none;stroke:#231f20;stroke-width:2.16;stroke-linecap:butt;stroke-linejoin:miter;stroke-miterlimit:22.9256;stroke-dasharray:none;stroke-opacity:1"
       transform="matrix(0.13333333,0,0,-0.13333333,0,189.33333)" />
    <path
       id="path3"
       d="m 15.1797,80.2109 c 0,-19.1328 6.7695,-35.4648 20.3047,-49.0078 C 49.0273,17.668 65.3594,10.8984 84.4883,10.8984 v 0 H 635.652 v 0 c 19.133,0 35.465,6.7696 49.004,20.3047 13.539,13.543 20.305,29.875 20.305,49.0078 v 0 1259.8391 0 c 0,19.13 -6.766,35.46 -20.305,48.99 -13.535,13.52 -29.867,20.28 -49.004,20.28 v 0 H 84.4883 v 0 c -19.1328,0 -35.4649,-6.76 -49.0039,-20.28 -13.5352,-13.53 -20.3047,-29.86 -20.3047,-48.99 v 0 V 80.2109"
       style="fill:#231f20;fill-opacity:1;fill-rule:evenodd;stroke:none"
       transform="matrix(0.13333333,0,0,-0.13333333,0,189.33333)" />
    <path
       id="path4"
       d="m 29.2578,80.1172 c 0,-15.2188 5.3828,-28.2109 16.1563,-38.9844 C 56.1875,30.3633 69.1797,24.9766 84.3945,24.9766 v 0 H 635.559 v 0 c 15.214,0 28.211,5.3867 38.98,16.1562 10.774,10.7735 16.156,23.7656 16.156,38.9844 v 0 1259.8428 0 c 0,15.21 -5.379,28.19 -16.144,38.95 -10.774,10.77 -23.77,16.15 -38.992,16.15 v 0 H 84.3945 v 0 c -15.2187,0 -28.2187,-5.38 -38.9843,-16.15 -10.7696,-10.76 -16.1524,-23.74 -16.1524,-38.95 v 0 V 80.1172"
       style="fill:#ffffff;fill-opacity:1;fill-rule:evenodd;stroke:none"
       transform="matrix(0.13333333,0,0,-0.13333333,0,189.33333)" />
    <path
       id="path5"
       d="m 415.5,817.781 71.867,136.246 0.488,135.523 -27.238,-39.37 -44.105,-36.82 v 0 c -6.153,-4.86 -15.106,-3.87 -20.192,2.25 -5.082,6.15 -4.418,15.16 1.532,20.45 v 0 l 42.23,35.15 47.773,75.91 v 0 c 1.012,1.99 2.512,3.72 4.274,5.02 2.371,1.82 5.144,2.83 8.117,2.95 v 0 l 49.391,2.14 v 0 c 2.777,-0.09 5.605,-0.93 8.058,-2.37 1.879,-1.1 3.524,-2.63 4.856,-4.45 v 0 l 63.949,-89.77 -25.074,-57.43 v 0 c -3.09,-7.616 -11.899,-11.198 -19.438,-7.819 -7.304,3.265 -10.57,11.869 -7.304,19.179 v 0 l 16.808,38.64 -31.023,50.27 -0.262,-101.13 L 448.98,800.391 v 0 c -4.796,-8.95 -15.917,-12.504 -24.988,-8.028 -9.387,4.653 -13.172,16.032 -8.492,25.418"
       style="fill:#231f20;fill-opacity:1;fill-rule:evenodd;stroke:none"
       transform="matrix(0.13333333,0,0,-0.13333333,0,189.33333)" />
    <path
       id="path6"
       d="m 517.902,907.383 42.43,78.738 v -71.519 l 68.891,-95.2 v 0 c 6.004,-8.062 4.793,-19.355 -2.805,-26 -8.402,-7.277 -21.199,-5.89 -27.957,2.946 v 0 l -80.559,111.035"
       style="fill:#231f20;fill-opacity:1;fill-rule:evenodd;stroke:none"
       transform="matrix(0.13333333,0,0,-0.13333333,0,189.33333)" />
    <path
       id="path7"
       d="m 517.422,1243.74 c 19.469,0 35.555,-16 35.555,-35.56 0,-19.52 -16.086,-35.44 -35.555,-35.44 -19.527,0 -35.496,15.92 -35.496,35.44 0,19.56 15.969,35.56 35.496,35.56"
       style="fill:#231f20;fill-opacity:1;fill-rule:evenodd;stroke:none"
       transform="matrix(0.13333333,0,0,-0.13333333,0,189.33333)" />
    <path
       id="path8"
       d="M 89.8867,1268.43 245.691,998.578 v 0 c 3.829,-6.629 10.907,-10.719 18.563,-10.719 7.66,0 14.734,4.09 18.566,10.719 v 0 l 155.805,269.852 v 0 c 3.828,6.63 3.828,14.81 0,21.44 -3.828,6.63 -10.906,10.72 -18.562,10.72 v 0 H 108.449 v 0 c -7.656,0 -14.7342,-4.09 -18.5623,-10.72 -3.8281,-6.63 -3.8281,-14.81 0,-21.44"
       style="fill:#ffffff;fill-opacity:1;fill-rule:evenodd;stroke:none"
       transform="matrix(0.13333333,0,0,-0.13333333,0,189.33333)" />
    <path
       id="path9"
       d="M 96.5352,1272.41 252.336,1002.56 v 0 c 2.644,-4.572 6.605,-6.857 11.883,-6.857 5.281,0 9.242,2.285 11.883,6.857 v 0 l 155.804,269.85 v 0 c 1.227,2.13 1.84,4.41 1.84,6.86 0,2.45 -0.613,4.74 -1.84,6.86 -2.64,4.58 -6.597,6.86 -11.879,6.86 v 0 H 108.418 v 0 c -5.281,0 -9.2422,-2.28 -11.8828,-6.86 -1.2227,-2.12 -1.836,-4.41 -1.836,-6.86 0,-2.45 0.6133,-4.73 1.836,-6.86"
       style="fill:#ed2e30;fill-opacity:1;fill-rule:evenodd;stroke:none"
       transform="matrix(0.13333333,0,0,-0.13333333,0,189.33333)" />
    <path
       id="path10"
       d="m 188.293,1222.33 66.691,-115.51 v 0 c 1.918,-3.32 5.454,-5.36 9.286,-5.36 3.828,0 7.367,2.04 9.281,5.36 v 0 l 66.691,115.51 v 0 c 1.914,3.32 1.914,7.4 0,10.72 -1.914,3.32 -5.449,5.36 -9.281,5.36 v 0 H 197.578 v 0 c -3.832,0 -7.371,-2.04 -9.285,-5.36 -1.914,-3.32 -1.914,-7.4 0,-10.72"
       style="fill:#ffffff;fill-opacity:1;fill-rule:evenodd;stroke:none"
       transform="matrix(0.13333333,0,0,-0.13333333,0,189.33333)" />
    <path
       id="path11"
       d="m 114.859,146.043 c 0,-16.457 5.825,-30.512 17.465,-42.16 11.649,-11.6447 25.703,-17.465 42.164,-17.465 v 0 h 371.2 v 0 c 16.464,0 30.515,5.8242 42.16,17.473 11.632,11.64 17.453,25.695 17.453,42.152 v 0 482.559 0 c 0,16.457 -5.821,30.507 -17.453,42.152 -11.645,11.652 -25.696,17.473 -42.16,17.473 v 0 h -371.2 v 0 c -16.461,0 -30.515,-5.821 -42.164,-17.465 -11.64,-11.645 -17.465,-25.699 -17.465,-42.16 v 0 -482.559"
       style="fill:#231f20;fill-opacity:1;fill-rule:evenodd;stroke:none"
       transform="matrix(0.13333333,0,0,-0.13333333,0,189.33333)" />
    <path
       id="path12"
       d="m 133.738,146.188 c 0,-11.243 3.977,-20.84 11.934,-28.797 7.953,-7.957 17.555,-11.934 28.797,-11.934 v 0 h 371.203 v 0 c 11.242,0 20.84,3.977 28.789,11.934 7.949,7.957 11.922,17.554 11.922,28.797 v 0 482.558 0 c 0,11.242 -3.973,20.84 -11.922,28.793 -7.949,7.957 -17.547,11.934 -28.789,11.934 v 0 H 174.469 v 0 c -11.242,0 -20.844,-3.977 -28.797,-11.934 -7.957,-7.957 -11.934,-17.551 -11.934,-28.793 v 0 -482.558"
       style="fill:#ffffff;fill-opacity:1;fill-rule:evenodd;stroke:none"
       transform="matrix(0.13333333,0,0,-0.13333333,0,189.33333)" />
    <path
       id="path13"
       d="m 144.781,146.043 c 0,-8.199 2.903,-15.199 8.699,-21 5.805,-5.801 12.805,-8.707 21.008,-8.707 v 0 h 371.2 v 0 c 8.195,0 15.195,2.902 20.992,8.703 5.797,5.805 8.695,12.805 8.695,21.004 v 0 482.555 0 c 0,8.199 -2.898,15.203 -8.695,21.004 -5.797,5.8 -12.797,8.703 -20.992,8.703 v 0 h -371.2 v 0 c -8.203,0 -15.203,-2.903 -21.008,-8.703 -5.796,-5.801 -8.699,-12.805 -8.699,-21.004 v 0 -482.555"
       style="fill:#231f20;fill-opacity:1;fill-rule:evenodd;stroke:none"
       transform="matrix(0.13333333,0,0,-0.13333333,0,189.33333)" />
    <path
       id="path14"
       d="m 155.816,146.105 c 0,-5.121 1.817,-9.496 5.446,-13.125 3.629,-3.628 8.004,-5.445 13.125,-5.445 v 0 h 371.207 v 0 c 5.121,0 9.492,1.817 13.113,5.442 3.625,3.625 5.438,8.003 5.438,13.128 v 0 482.559 0 c 0,5.125 -1.813,9.504 -5.438,13.133 -3.621,3.621 -7.992,5.437 -13.113,5.437 v 0 H 174.387 v 0 c -5.121,0 -9.496,-1.816 -13.125,-5.445 -3.629,-3.629 -5.446,-8.004 -5.446,-13.125 v 0 -482.559"
       style="fill:#ffffff;fill-opacity:1;fill-rule:evenodd;stroke:none"
       transform="matrix(0.13333333,0,0,-0.13333333,0,189.33333)" />
    <path
       id="path15"
       d="m 429.383,248.418 -1.801,3.359 v 0 c -1.32,2.481 -11.48,32.602 -11.48,76.161 0,38.402 7.121,71.96 10.8,82.082 6,16.558 16.438,22.796 27.559,22.796 7.48,0 15.039,-3 20.398,-8.238 5.321,-5.199 12.52,-14.398 16.481,-50.039 1.48,-11.68 2.238,-23.398 2.238,-35.16 0,-36.16 -6.519,-68.52 -10.515,-80.082 -6.243,-17.879 -16.961,-24.52 -29.563,-24.52 -10.918,0 -19.078,5 -24.117,13.641 z m -23.121,-30.797 2.32,-2.363 v 0 c 9.559,-9.52 26.719,-17.117 45.758,-17.117 23,0 44.961,13.078 55.32,30.918 17.203,29.437 20.082,101.679 20.082,109.039 0,63 -15.043,93.32 -16.801,96.601 -11.839,21.84 -33.16,34.758 -58.281,34.758 -12.359,0 -24.68,-3.836 -35.156,-10.316 -25.723,-15.965 -31.961,-42.282 -36.484,-86.282 -1.957,-18.562 -2.801,-35.882 -2.801,-47.722 0,-35.36 7.242,-71.836 9.922,-79.598 3.519,-10.238 8.679,-20.082 16.121,-27.918 z M 190.82,203.855 h 141.879 l 0.121,36.364 H 232.379 v 0 c 1.68,11.16 10.719,35.84 26.758,58.597 20.16,28.364 29.199,28.364 46.523,42.723 19.317,16 27.84,35.117 27.84,55.399 0,39.761 -32.961,72.839 -72.762,72.839 -38.879,0 -71.082,-32.879 -70.199,-71.437 v 0 h 37.441 v 0 c 0.118,19.359 14.958,33.637 32.797,33.637 20.442,0 34.844,-15.399 34.844,-33.559 0,-11.316 -3.801,-20.398 -16.723,-30.48 -8.48,-6.758 -83.199,-47.598 -88.078,-164.083"
       style="fill:#231f20;fill-opacity:1;fill-rule:evenodd;stroke:none"
       transform="matrix(0.13333333,0,0,-0.13333333,0,189.33333)" />
    <path
       id="path16"
       d="m 256.453,567.082 6.242,18.25 6.184,-18.25 z M 237.125,540.02 h 10.07 l 6.071,17.613 h 18.859 l 6.031,-17.613 h 10.016 l -20.856,60.871 h -9.39 z m 58.816,0 H 306.5 l 9.922,20.535 9.937,-20.535 h 10.559 l -15.199,31.492 14.219,29.34 H 325.34 l -8.938,-18.348 -8.828,18.387 h -10.539 l 14.106,-29.379 z m 52.082,0 h 9.469 v 60.871 h -9.469 z m 24.969,0 h 9.559 v 35.168 l 14.125,-35.168 14.031,35.015 V 540.02 h 9.523 v 60.871 h -9.562 l -13.992,-35.133 -14.086,35.094 h -9.598 z m 62.453,60.871 0.094,-44.145 v 0 c 0.684,-9.656 9.527,-18.101 20.066,-18.101 11.204,0 20.196,8.445 20.629,20.117 v 0 42.09 h -9.332 v -41.938 0 c 0,-5.754 -5.113,-10.844 -10.976,-10.844 -3.602,0 -7.203,1.832 -9.219,4.809 -1.172,1.734 -1.793,3.547 -1.887,6.297 v 0 41.715 z m 55.16,-60.871 h 9.559 v 35.168 l 14.125,-35.168 14.031,35.015 V 540.02 h 9.52 v 60.871 h -9.559 l -13.992,-35.133 -14.086,35.094 h -9.598 z m -308.503,0 h 9.558 v 35.168 l 14.125,-35.168 14.031,35.015 V 540.02 h 9.52 v 60.871 h -9.559 l -13.992,-35.133 -14.09,35.094 h -9.593 V 540.02"
       style="fill:#231f20;fill-opacity:1;fill-rule:evenodd;stroke:none"
       transform="matrix(0.13333333,0,0,-0.13333333,0,189.33333)" />
  </g>
</svg>
