<?xml version="1.0" encoding="UTF-8" standalone="no"?>
<!-- Created with Inkscape (http://www.inkscape.org/) -->

<svg
   version="1.1"
   id="svg1"
   width="58.666668"
   height="189.33333"
   viewBox="0 0 58.666668 189.33333"
   sodipodi:docname="P-270-1-B-360x1200.eps"
   xmlns:inkscape="http://www.inkscape.org/namespaces/inkscape"
   xmlns:sodipodi="http://sodipodi.sourceforge.net/DTD/sodipodi-0.dtd"
   xmlns="http://www.w3.org/2000/svg"
   xmlns:svg="http://www.w3.org/2000/svg">
  <defs
     id="defs1" />
  <sodipodi:namedview
     id="namedview1"
     pagecolor="#ffffff"
     bordercolor="#000000"
     borderopacity="0.25"
     inkscape:showpageshadow="2"
     inkscape:pageopacity="0.0"
     inkscape:pagecheckerboard="0"
     inkscape:deskcolor="#d1d1d1">
    <inkscape:page
       x="0"
       y="0"
       inkscape:label="1"
       id="page1"
       width="58.666668"
       height="189.33333"
       margin="0"
       bleed="0" />
  </sodipodi:namedview>
  <g
     id="g1"
     inkscape:groupmode="layer"
     inkscape:label="1">
    <path
       id="path1"
       d="M 7.40234,1.33984 V 1418.66 H 432.598 V 1.33984 H 7.40234"
       style="fill:#231f20;fill-opacity:1;fill-rule:evenodd;stroke:none"
       transform="matrix(0.13333333,0,0,-0.13333333,0,189.33333)" />
    <path
       id="path2"
       d="M 19.2617,192.617 V 1373.72 H 420.836 V 192.617 H 19.2617"
       style="fill:#d4e714;fill-opacity:1;fill-rule:evenodd;stroke:none"
       transform="matrix(0.13333333,0,0,-0.13333333,0,189.33333)" />
    <path
       id="path3"
       d="m 54.6289,959.426 c 0,-15.235 12.3164,-27.551 27.5547,-27.551 H 357.785 c 15.231,0 27.551,12.316 27.551,27.551 v 358.284 c 0,15.24 -12.32,27.56 -27.551,27.56 H 82.1836 c -15.2383,0 -27.5547,-12.32 -27.5547,-27.56 V 959.426"
       style="fill:#ffffff;fill-opacity:1;fill-rule:evenodd;stroke:none"
       transform="matrix(0.13333333,0,0,-0.13333333,0,189.33333)" />
    <path
       id="path4"
       d="m 61.3164,959.473 c 0,-5.789 2.043,-10.723 6.125,-14.809 4.0859,-4.086 9.0195,-6.129 14.8125,-6.129 H 357.859 c 5.789,0 10.723,2.043 14.805,6.129 4.09,4.086 6.129,9.02 6.129,14.809 v 358.287 c 0,5.79 -2.039,10.72 -6.129,14.81 -4.082,4.09 -9.016,6.13 -14.805,6.13 H 82.2539 c -5.793,0 -10.7266,-2.04 -14.8125,-6.13 -4.082,-4.09 -6.125,-9.02 -6.125,-14.81 V 959.473"
       style="fill:#231f20;fill-opacity:1;fill-rule:evenodd;stroke:none"
       transform="matrix(0.13333333,0,0,-0.13333333,0,189.33333)" />
    <path
       id="path5"
       d="m 71.2734,959.512 c 0,-3.051 1.0743,-5.649 3.2227,-7.797 2.1484,-2.145 4.7461,-3.219 7.793,-3.219 H 357.898 c 3.047,0 5.649,1.074 7.793,3.219 2.149,2.148 3.223,4.746 3.223,7.797 V 1317.8 c 0,3.05 -1.074,5.65 -3.223,7.8 -2.144,2.14 -4.746,3.22 -7.793,3.22 H 82.2891 c -3.0469,0 -5.6446,-1.08 -7.793,-3.22 -2.1484,-2.15 -3.2227,-4.75 -3.2227,-7.8 V 959.512"
       style="fill:#ffffff;fill-opacity:1;fill-rule:evenodd;stroke:none"
       transform="matrix(0.13333333,0,0,-0.13333333,0,189.33333)" />
    <path
       id="path6"
       d="m 89.0352,1056.66 h 41.3398 v 17.36 H 89.0352 v -17.36"
       style="fill:#231f20;fill-opacity:1;fill-rule:evenodd;stroke:none"
       transform="matrix(0.13333333,0,0,-0.13333333,0,189.33333)" />
    <path
       id="path7"
       d="m 144.238,1056.66 h 41.336 v 17.36 h -41.336 v -17.36"
       style="fill:#231f20;fill-opacity:1;fill-rule:evenodd;stroke:none"
       transform="matrix(0.13333333,0,0,-0.13333333,0,189.33333)" />
    <path
       id="path8"
       d="m 309.602,1056.66 h 41.336 v 17.36 h -41.336 v -17.36"
       style="fill:#231f20;fill-opacity:1;fill-rule:evenodd;stroke:none"
       transform="matrix(0.13333333,0,0,-0.13333333,0,189.33333)" />
    <path
       id="path9"
       d="m 254.398,1056.66 h 41.336 v 17.36 h -41.336 v -17.36"
       style="fill:#231f20;fill-opacity:1;fill-rule:evenodd;stroke:none"
       transform="matrix(0.13333333,0,0,-0.13333333,0,189.33333)" />
    <path
       id="path10"
       d="m 199.32,1056.66 h 41.34 v 17.36 h -41.34 v -17.36"
       style="fill:#231f20;fill-opacity:1;fill-rule:evenodd;stroke:none"
       transform="matrix(0.13333333,0,0,-0.13333333,0,189.33333)" />
    <path
       id="path11"
       d="m 345.672,1305.24 -60.563,-104.89 c -1.492,-2.58 -4.242,-4.17 -7.218,-4.17 -2.977,0 -5.727,1.59 -7.215,4.17 l -60.567,104.89 c -1.488,2.58 -1.488,5.76 0,8.34 1.489,2.57 4.239,4.16 7.215,4.16 h 121.129 c 2.977,0 5.731,-1.59 7.219,-4.16 1.488,-2.58 1.488,-5.76 0,-8.34"
       style="fill:#ffffff;fill-opacity:1;fill-rule:evenodd;stroke:none"
       transform="matrix(0.13333333,0,0,-0.13333333,0,189.33333)" />
    <path
       id="path12"
       d="m 343.086,1306.74 -60.566,-104.9 c -1.024,-1.77 -2.563,-2.66 -4.618,-2.66 -2.05,0 -3.589,0.89 -4.621,2.66 l -60.558,104.9 c -0.477,0.83 -0.719,1.72 -0.719,2.67 0,0.95 0.242,1.84 0.719,2.67 1.019,1.77 2.562,2.66 4.617,2.66 h 121.129 c 2.051,0 3.59,-0.89 4.617,-2.66 0.477,-0.83 0.719,-1.72 0.719,-2.67 0,-0.95 -0.242,-1.84 -0.719,-2.67"
       style="fill:#ed2e30;fill-opacity:1;fill-rule:evenodd;stroke:none"
       transform="matrix(0.13333333,0,0,-0.13333333,0,189.33333)" />
    <path
       id="path13"
       d="m 307.414,1287.32 -25.926,-44.9 c -0.742,-1.29 -2.121,-2.08 -3.609,-2.08 -1.484,0 -2.859,0.79 -3.606,2.08 l -25.925,44.9 c -0.743,1.29 -0.743,2.88 0,4.17 0.746,1.29 2.121,2.08 3.609,2.08 h 51.848 c 1.492,0 2.863,-0.79 3.609,-2.08 0.746,-1.29 0.746,-2.88 0,-4.17"
       style="fill:#ffffff;fill-opacity:1;fill-rule:evenodd;stroke:none"
       transform="matrix(0.13333333,0,0,-0.13333333,0,189.33333)" />
    <path
       id="path14"
       d="m 171.48,1100.18 -24.425,46.53 v 45.91 l 9.07,-13.26 15.059,-12.57 c 2.05,-1.57 4.98,-1.3 6.718,0.62 1.934,2.11 1.707,5.41 -0.507,7.24 l -14.145,12.21 -16.047,25.31 c -0.543,0.8 -1.265,1.47 -2.09,1.99 -0.91,0.55 -1.933,0.9 -2.988,1.02 l -16.832,0.66 c -2.418,0.07 -3.84,-2.11 -5.105,-3.93 L 99.8711,1182.83 H 93.293 v -19.33 h 14.621 c 0.598,-2.01 2.449,-3.38 4.555,-3.38 2.066,0 3.894,1.32 4.535,3.27 h 4.601 l 38.192,-69.17 c 1.578,-3.04 5.215,-4.37 8.359,-3.04 3.508,1.5 5.028,5.61 3.324,9"
       style="fill:#231f20;fill-opacity:1;fill-rule:evenodd;stroke:none"
       transform="matrix(0.13333333,0,0,-0.13333333,0,189.33333)" />
    <path
       id="path15"
       d="m 256.559,1100.42 -14.555,30.75 h 6.715 l -20.379,47.09 v 13.88 l 6.937,-10.47 13.071,-10.33 c 2.043,-1.61 5.023,-1.19 6.531,0.95 1.43,2.03 0.973,4.81 -1.012,6.28 l -11.504,9.58 -15.742,26.05 c -0.465,0.8 -1.148,1.46 -1.93,1.94 -0.757,0.47 -1.628,0.76 -2.535,0.82 l -15.031,0.37 c -1.031,-0.11 -2.004,-0.43 -2.871,-0.95 -0.813,-0.48 -1.488,-1.12 -2.051,-1.89 l -12.687,-23.5 h -6.938 v -18.25 h 10.719 c 0.762,-1.53 2.305,-2.52 4.023,-2.54 1.739,-0.03 3.352,0.91 4.164,2.46 l 3.383,0.05 -11.48,-41.64 h 7.414 l -13.86,-31 c -1.437,-3.3 0.075,-7.14 3.387,-8.58 3.328,-1.44 7.203,0.1 8.61,3.44 l 15.996,36.16 h 12.273 l 17.344,-36.35 c 1.664,-3.32 5.715,-4.65 9.012,-2.93 3.117,1.62 4.433,5.41 2.996,8.61"
       style="fill:#231f20;fill-opacity:1;fill-rule:evenodd;stroke:none"
       transform="matrix(0.13333333,0,0,-0.13333333,0,189.33333)" />
    <path
       id="path16"
       d="m 108.957,1092.98 27.574,37.59 -14.976,27.11 v -24.77 l -23.2191,-32.67 c -1.8281,-2.86 -1.0976,-6.67 1.6524,-8.65 2.8637,-2.09 6.8867,-1.48 8.9687,1.39"
       style="fill:#231f20;fill-opacity:1;fill-rule:evenodd;stroke:none"
       transform="matrix(0.13333333,0,0,-0.13333333,0,189.33333)" />
    <path
       id="path17"
       d="m 215.637,1245.35 c -6.606,0 -11.969,-5.37 -11.969,-11.97 0,-6.58 5.363,-11.97 11.969,-11.97 6.582,0 11.965,5.39 11.965,11.97 0,6.6 -5.383,11.97 -11.965,11.97"
       style="fill:#231f20;fill-opacity:1;fill-rule:evenodd;stroke:none"
       transform="matrix(0.13333333,0,0,-0.13333333,0,189.33333)" />
    <path
       id="path18"
       d="m 135.836,1245.35 c -6.578,0 -11.969,-5.37 -11.969,-11.97 0,-6.58 5.391,-11.97 11.969,-11.97 6.578,0 11.965,5.39 11.965,11.97 0,6.6 -5.387,11.97 -11.965,11.97"
       style="fill:#231f20;fill-opacity:1;fill-rule:evenodd;stroke:none"
       transform="matrix(0.13333333,0,0,-0.13333333,0,189.33333)" />
    <path
       id="path19"
       d="m 122.156,1182.74 -9.41,0.04 9.41,14.65 z"
       style="fill:#231f20;fill-opacity:1;fill-rule:evenodd;stroke:none"
       transform="matrix(0.13333333,0,0,-0.13333333,0,189.33333)" />
    <path
       id="path20"
       d="m 205.676,1190.9 -4.395,0.01 4.395,7.48 z"
       style="fill:#231f20;fill-opacity:1;fill-rule:evenodd;stroke:none"
       transform="matrix(0.13333333,0,0,-0.13333333,0,189.33333)" />
  </g>
</svg>
