<?xml version="1.0" encoding="UTF-8" standalone="no"?>
<!-- Created with Inkscape (http://www.inkscape.org/) -->

<svg
   version="1.1"
   id="svg1"
   width="58.666668"
   height="189.33333"
   viewBox="0 0 58.666668 189.33333"
   sodipodi:docname="P-270-3-B-360x1200.eps"
   xmlns:inkscape="http://www.inkscape.org/namespaces/inkscape"
   xmlns:sodipodi="http://sodipodi.sourceforge.net/DTD/sodipodi-0.dtd"
   xmlns="http://www.w3.org/2000/svg"
   xmlns:svg="http://www.w3.org/2000/svg">
  <defs
     id="defs1" />
  <sodipodi:namedview
     id="namedview1"
     pagecolor="#ffffff"
     bordercolor="#000000"
     borderopacity="0.25"
     inkscape:showpageshadow="2"
     inkscape:pageopacity="0.0"
     inkscape:pagecheckerboard="0"
     inkscape:deskcolor="#d1d1d1">
    <inkscape:page
       x="0"
       y="0"
       inkscape:label="1"
       id="page1"
       width="58.666668"
       height="189.33333"
       margin="0"
       bleed="0" />
  </sodipodi:namedview>
  <g
     id="g1"
     inkscape:groupmode="layer"
     inkscape:label="1">
    <path
       id="path1"
       d="M 7.40234,1.33984 V 1418.66 H 432.598 V 1.33984 H 7.40234"
       style="fill:#231f20;fill-opacity:1;fill-rule:evenodd;stroke:none"
       transform="matrix(0.13333333,0,0,-0.13333333,0,189.33333)" />
    <path
       id="path2"
       d="M 19.2344,192.648 V 1373.75 H 420.809 V 192.648 H 19.2344"
       style="fill:#f7d719;fill-opacity:1;fill-rule:evenodd;stroke:none"
       transform="matrix(0.13333333,0,0,-0.13333333,0,189.33333)" />
    <path
       id="path3"
       d="m 54.6016,959.484 c 0,-15.23 12.3203,-27.546 27.5507,-27.546 H 357.758 c 15.23,0 27.551,12.316 27.551,27.546 v 358.286 c 0,15.24 -12.321,27.56 -27.551,27.56 H 82.1523 c -15.2304,0 -27.5507,-12.32 -27.5507,-27.56 V 959.484"
       style="fill:#ffffff;fill-opacity:1;fill-rule:evenodd;stroke:none"
       transform="matrix(0.13333333,0,0,-0.13333333,0,189.33333)" />
    <path
       id="path4"
       d="m 61.2891,959.535 c 0,-5.793 2.0429,-10.726 6.125,-14.812 4.0859,-4.086 9.0195,-6.125 14.8125,-6.125 H 357.828 c 5.793,0 10.727,2.039 14.813,6.125 4.086,4.086 6.125,9.019 6.125,14.812 v 358.285 c 0,5.79 -2.039,10.73 -6.125,14.81 -4.086,4.09 -9.02,6.13 -14.813,6.13 H 82.2266 c -5.793,0 -10.7266,-2.04 -14.8125,-6.13 -4.0821,-4.08 -6.125,-9.02 -6.125,-14.81 V 959.535"
       style="fill:#231f20;fill-opacity:1;fill-rule:evenodd;stroke:none"
       transform="matrix(0.13333333,0,0,-0.13333333,0,189.33333)" />
    <path
       id="path5"
       d="m 71.2461,959.574 c 0,-3.051 1.0742,-5.648 3.2227,-7.797 2.1445,-2.144 4.746,-3.222 7.7968,-3.222 H 357.867 c 3.051,0 5.653,1.078 7.797,3.222 2.149,2.149 3.219,4.746 3.219,7.797 v 358.286 c 0,3.05 -1.07,5.65 -3.219,7.8 -2.144,2.14 -4.746,3.22 -7.797,3.22 H 82.2656 c -3.0508,0 -5.6523,-1.08 -7.7968,-3.22 -2.1485,-2.15 -3.2227,-4.75 -3.2227,-7.8 V 959.574"
       style="fill:#ffffff;fill-opacity:1;fill-rule:evenodd;stroke:none"
       transform="matrix(0.13333333,0,0,-0.13333333,0,189.33333)" />
    <path
       id="path6"
       d="m 89.1289,1056.72 h 41.3361 v 17.36 H 89.1289 v -17.36"
       style="fill:#231f20;fill-opacity:1;fill-rule:evenodd;stroke:none"
       transform="matrix(0.13333333,0,0,-0.13333333,0,189.33333)" />
    <path
       id="path7"
       d="m 144.211,1056.72 h 41.336 v 17.36 h -41.336 v -17.36"
       style="fill:#231f20;fill-opacity:1;fill-rule:evenodd;stroke:none"
       transform="matrix(0.13333333,0,0,-0.13333333,0,189.33333)" />
    <path
       id="path8"
       d="m 309.574,1056.72 h 41.336 v 17.36 h -41.336 v -17.36"
       style="fill:#231f20;fill-opacity:1;fill-rule:evenodd;stroke:none"
       transform="matrix(0.13333333,0,0,-0.13333333,0,189.33333)" />
    <path
       id="path9"
       d="m 254.371,1056.72 h 41.34 v 17.36 h -41.34 v -17.36"
       style="fill:#231f20;fill-opacity:1;fill-rule:evenodd;stroke:none"
       transform="matrix(0.13333333,0,0,-0.13333333,0,189.33333)" />
    <path
       id="path10"
       d="m 199.289,1056.72 h 41.34 v 17.36 h -41.34 v -17.36"
       style="fill:#231f20;fill-opacity:1;fill-rule:evenodd;stroke:none"
       transform="matrix(0.13333333,0,0,-0.13333333,0,189.33333)" />
    <path
       id="path11"
       d="m 345.645,1305.3 -60.563,-104.89 c -1.492,-2.58 -4.238,-4.17 -7.219,-4.17 -2.976,0 -5.726,1.59 -7.215,4.17 l -60.566,104.89 c -1.488,2.58 -1.488,5.76 0,8.34 1.488,2.57 4.242,4.16 7.215,4.16 H 338.43 c 2.976,0 5.726,-1.59 7.215,-4.16 1.488,-2.58 1.488,-5.76 0,-8.34"
       style="fill:#ffffff;fill-opacity:1;fill-rule:evenodd;stroke:none"
       transform="matrix(0.13333333,0,0,-0.13333333,0,189.33333)" />
    <path
       id="path12"
       d="m 343.059,1306.8 -60.567,-104.89 c -1.027,-1.78 -2.566,-2.67 -4.617,-2.67 -2.051,0 -3.59,0.89 -4.621,2.67 l -60.563,104.89 c -0.476,0.83 -0.714,1.72 -0.714,2.67 0,0.95 0.238,1.84 0.714,2.67 1.028,1.77 2.567,2.66 4.618,2.66 h 121.132 c 2.051,0 3.59,-0.89 4.618,-2.66 0.476,-0.83 0.714,-1.72 0.714,-2.67 0,-0.95 -0.238,-1.84 -0.714,-2.67"
       style="fill:#ed2e30;fill-opacity:1;fill-rule:evenodd;stroke:none"
       transform="matrix(0.13333333,0,0,-0.13333333,0,189.33333)" />
    <path
       id="path13"
       d="m 307.387,1287.38 -25.922,-44.9 c -0.746,-1.29 -2.121,-2.08 -3.613,-2.08 -1.485,0 -2.864,0.79 -3.606,2.08 l -25.926,44.9 c -0.742,1.29 -0.742,2.88 0,4.17 0.746,1.29 2.121,2.08 3.61,2.08 h 51.847 c 1.489,0 2.864,-0.79 3.61,-2.08 0.75,-1.29 0.746,-2.88 0,-4.17"
       style="fill:#ffffff;fill-opacity:1;fill-rule:evenodd;stroke:none"
       transform="matrix(0.13333333,0,0,-0.13333333,0,189.33333)" />
    <path
       id="path14"
       d="m 166.41,1143.92 36.434,-19.33 23.801,-31 c 2.761,-3.49 7.855,-4.05 11.312,-1.25 3.34,2.71 3.949,7.56 1.383,11 l -25.832,33.41 c -1.137,1.3 -2.469,2.45 -3.961,3.32 l -28.59,14.88 12.043,15.18 2.246,-8.41 c 1.078,-3.12 3.867,-5.47 7.082,-6.01 l 32.172,-3.77 c 4.141,-0.6 7.891,2.54 8.043,6.72 0.133,3.83 -2.809,7.09 -6.617,7.3 l -28.11,3.15 -4.531,20.13 c -0.484,2.37 -1.926,4.52 -3.883,5.86 l -11.047,7.55 c -2.48,1.28 -5.351,1.83 -8.14,1.55 l -32.766,-8.95 c -2.418,-0.66 -4.48,-2.46 -5.449,-4.76 l -15.168,-27.45 c -1.832,-3.24 -0.602,-7.33 2.699,-9.07 3.399,-1.77 7.602,-0.27 9.102,3.27 l 13.566,24.72 15.055,4.56 -36.051,-64.95 -31.9921,-8.17 c -4.5078,-0.86 -7.4492,-5.27 -6.4882,-9.77 0.9961,-4.67 5.7656,-7.49 10.3363,-6.15 l 34.515,9.43 c 2.156,0.65 4.055,1.93 5.449,3.68 l 23.387,33.33"
       style="fill:#231f20;fill-opacity:1;fill-rule:evenodd;stroke:none"
       transform="matrix(0.13333333,0,0,-0.13333333,0,189.33333)" />
    <path
       id="path15"
       d="m 282.09,1145.21 c -9.645,0 -17.531,-7.84 -17.531,-17.49 0,-9.67 7.886,-17.54 17.531,-17.54 9.625,0 17.512,7.87 17.512,17.54 0,9.65 -7.887,17.49 -17.512,17.49"
       style="fill:#231f20;fill-opacity:1;fill-rule:evenodd;stroke:none"
       transform="matrix(0.13333333,0,0,-0.13333333,0,189.33333)" />
    <path
       id="path16"
       d="m 206.129,1228.35 c -7.223,0 -13.121,-5.89 -13.121,-13.15 0,-7.2 5.898,-13.09 13.121,-13.09 7.226,0 13.121,5.89 13.121,13.09 0,7.26 -5.895,13.15 -13.121,13.15"
       style="fill:#231f20;fill-opacity:1;fill-rule:evenodd;stroke:none"
       transform="matrix(0.13333333,0,0,-0.13333333,0,189.33333)" />
  </g>
</svg>
