<svg id="Layer_1" enable-background="new 0 0 65 65" viewBox="0 0 65 65" xmlns="http://www.w3.org/2000/svg"><g><g><circle cx="32.5" cy="32.5" fill="#eaebf0" r="32"/></g><g><path d="m49.1 45.1h-33.2c-2 0-3.6 1.6-3.6 3.6 0 2 1.6 3.6 3.6 3.6h33.1c2 0 3.6-1.6 3.6-3.6 0-2-1.6-3.6-3.5-3.6z" fill="#ff6877"/><path d="m49.1 53h-33.2c-2.4 0-4.3-1.9-4.3-4.3s1.9-4.3 4.3-4.3h33.1c2.4 0 4.3 1.9 4.3 4.3s-1.9 4.3-4.2 4.3zm-33.2-7.1c-1.5 0-2.8 1.3-2.8 2.8s1.3 2.8 2.8 2.8h33.1c1.5 0 2.8-1.3 2.8-2.8s-1.3-2.8-2.8-2.8z" fill="#47769d"/></g><g><path d="m35 10.4c-.9-2.9-4.1-2.9-5 0l-2.5 8.4h10z" fill="#ff6877"/><path d="m38.5 19.6h-12l2.8-9.4c.5-1.6 1.7-2.7 3.2-2.7s2.7 1.1 3.2 2.7zm-10-1.5h8l-2.2-7.4c-.3-1-1-1.6-1.8-1.6s-1.5.6-1.8 1.6z" fill="#47769d"/></g><g><path d="m37.5 18.8h-10l-2.3 7.9h14.6z" fill="#f5fdff"/><path d="m40.8 27.5h-16.6l2.8-9.4h11zm-14.6-1.5h12.7l-1.9-6.4h-8.8z" fill="#47769d"/></g><g><path d="m22.3 36.3-2.6 8.8h25.6l-2.6-8.8z" fill="#f5fdff"/><path d="m46.3 45.9h-27.6l3.1-10.4h21.5zm-25.6-1.5h23.6l-2.2-7.4h-19.2z" fill="#47769d"/></g><g><path d="m39.8 26.7h-14.6l-2.9 9.6h20.4z" fill="#ff6877"/><path d="m43.7 37h-22.4l3.3-11h15.8zm-20.4-1.5h18.4l-2.4-8.1h-13.6z" fill="#47769d"/></g></g></svg>