<svg id="Layer_1" enable-background="new 0 0 65 65" viewBox="0 0 65 65" xmlns="http://www.w3.org/2000/svg"><g><g><circle cx="32.5" cy="32.5" fill="#efefef" r="32"/></g><g><path d="m44.2 45.8-9.4-31.8c-.8-2.6-3.7-2.6-4.5 0l-9.5 31.8z" fill="#e95c60"/><path d="m45.6 46.8h-26.2l9.9-33.1c.5-1.6 1.8-2.7 3.2-2.7s2.7 1.1 3.2 2.7zm-23.5-2h20.8l-9.1-30.5c-.2-.8-.7-1.3-1.3-1.3s-1.1.5-1.3 1.3z"/></g><g><path d="m49.4 45.8h-33.8c-2 0-3.6 1.6-3.6 3.6 0 2 1.6 3.6 3.6 3.6h33.8c2 0 3.6-1.6 3.6-3.6 0-2-1.6-3.6-3.6-3.6z" fill="#e95c60"/><path d="m49.4 54h-33.8c-2.5 0-4.6-2.1-4.6-4.6s2.1-4.6 4.6-4.6h33.8c2.5 0 4.6 2.1 4.6 4.6s-2.1 4.6-4.6 4.6zm-33.8-7.2c-1.4 0-2.6 1.2-2.6 2.6s1.2 2.6 2.6 2.6h33.8c1.4 0 2.6-1.2 2.6-2.6s-1.2-2.6-2.6-2.6z"/></g><g><path d="m27.9 20.7h9.1v2h-9.1z"/></g><g><path d="m25.8 27.9h13.4v2h-13.4z"/></g><g><path d="m23.2 36.6h18.6v2h-18.6z"/></g></g></svg>