<svg clip-rule="evenodd" fill-rule="evenodd" height="850" image-rendering="optimizeQuality" shape-rendering="geometricPrecision" text-rendering="geometricPrecision" viewBox="0 0 850 850" width="850" xmlns="http://www.w3.org/2000/svg" xmlns:xlink="http://www.w3.org/1999/xlink"><linearGradient id="id0" gradientUnits="userSpaceOnUse" x1="236.524" x2="613.476" y1="575.462" y2="264.536"><stop offset="0" stop-color="#fff7b9"/><stop offset="1" stop-color="#f5ca30"/></linearGradient><rect fill="#ac5329" height="850.002" rx="425.001" width="850.002" x="-.001" y="-.002"/><g id="Layer_x0020_1"><path d="m373.934 245.216v-40.1304c0-4.42087 3.57874-8.00079 7.99961-8.00079h79.3241c4.42087 0 8.00079 3.57992 8.00079 8.00079v40.1304zm-6.2504 158.397v-20.1921h95.3245v20.1921zm-82.3371 6.22796c-1.7504 0-3.48898-.575197-4.9252-1.69134l-108.343-84.5268c-1.94173-1.51654-3.07914-3.84095-3.07914-6.30827 0-2.46733 1.13386-4.79174 3.07914-6.30827l108.341-84.5245c2.41299-1.87559 5.68347-2.2252 8.42954-.883465 2.74961 1.34173 4.49174 4.13386 4.49174 7.19174v28.4256h204.946c4.42087 0 8.00079 3.57874 8.00079 7.99961v96.2044c0 4.42087-3.57992 8.00079-8.00079 8.00079h-204.946v28.4244c0 3.05906-1.74213 5.84646-4.49174 7.19292-1.10788.53504-2.3126.80315-3.50315.80315zm175.911 233.074h-79.3241-183.572c-4.42087 0-7.99961-3.57992-7.99961-8.00079 0-4.41969 3.57874-7.99961 7.99961-7.99961h175.572v-83.1048l95.3245.0011811v83.1036h182.374c4.42087 0 8.00079 3.57992 8.00079 7.99961 0 4.42087-3.57992 8.00079-7.99607 8.00079h-190.38zm103.406-78.6828c-1.19528 0-2.39528-.262205-3.5126-.807875-2.74607-1.34173-4.48819-4.13386-4.48819-7.19174v-28.4209l-204.946-.0011811c-4.42087 0-7.99961-3.57992-7.99961-7.99961v-96.2009c0-4.41969 3.57874-7.99961 7.99961-7.99961h204.946v-28.4256c0-3.05788 1.74213-5.84528 4.48819-7.19174 2.74252-1.34173 6.01772-1.00039 8.43072.883465l108.341 84.5209c1.94646 1.51181 3.07796 3.84095 3.07796 6.30945 0 2.46733-1.13386 4.79174-3.07796 6.30827l-108.341 84.5245c-1.43504 1.11614-3.17362 1.69252-4.91811 1.69252zm-136.147-84.5257h-13.8414c-4.41969 0-7.99961-3.57992-7.99961-7.99961 0-4.42087 3.57992-8.00079 7.99961-8.00079h13.8414c4.42087 0 7.99961 3.57992 7.99961 8.00079 0 4.41969-3.58229 7.99961-7.99961 7.99961zm0-154.388h-13.8414c-4.41969 0-7.99961-3.57874-7.99961-7.99961s3.57992-7.99961 7.99961-7.99961h13.8414c4.42087 0 7.99961 3.57874 7.99961 7.99961s-3.58229 7.99961-7.99961 7.99961z" fill="url(#id0)"/></g></svg>