<svg clip-rule="evenodd" fill-rule="evenodd" height="2.833in" image-rendering="optimizeQuality" shape-rendering="geometricPrecision" text-rendering="geometricPrecision" viewBox="0 0 2.83333 2.83333" width="2.833in" xmlns="http://www.w3.org/2000/svg"><g id="Layer_x0020_1"><circle cx="1.417" cy="1.417" fill="#8f9fb3" r="1.417"/><path d="m1.4282 1.60981h-.0453858c-.0220945 0-.0399921-.0178976-.0399921-.0399961 0-.0220945.0178976-.0399921.0399921-.0399921h.0453858c.0220984 0 .0399961.0178976.0399961.0399921 0 .0220984-.0178976.0399961-.0399961.0399961zm-.192732.455189v-.297457h-.0591063c-.0220984 0-.0399961-.0178976-.0399961-.0399961v-.315441c0-.0220984.0178976-.0399961.0399961-.0399961h.0591063v-.110819h-.236752v.0794488c0 .0152874-.00870866.0292283-.0224528.035937-.00557087.00270866-.0115669.00404331-.0175433.00404331-.00874803 0-.0174409-.00287795-.0246024-.00845669l-.35526-.277177c-.00972047-.00756693-.0153898-.0192047-.0153898-.0315354 0-.0123346.0056811-.0239567.0153898-.0315394l.111594-.0870709c.0174173-.0135945.0425512-.0104961.0561299.00692913.0135945.0174134.0104882.0425512-.00692913.056126l-.0711693.0555394.25026.195236v-.0375079c0-.0220945.0178976-.0399921.0399921-.0399921h.658276v-.235437h-.0814331-.260118-.31674c-.0220945 0-.0399921-.0178976-.0399921-.0399961v-.0375236l-.0470079.0366772c-.0173976.0135945-.0425354.0104882-.0561299-.0069252-.0135906-.0174173-.0104843-.0425512.00692913-.0561299l.111614-.0870709c.0120669-.00939764.0284094-.0110945.0421457-.00440157.0137362.00670472.0224528.0206457.0224528.035937v.0794567h.236736v-.137524c0-.0220787.0178976-.0399921.0399921-.0399921h.260118c.0106063 0 .0207717.00420866.0282756.0117008.0075.00749606.0117205.0176772.0117205.0282913v.137524h.0814291c.0220984 0 .0399961.0178976.0399961.0399961v.315441c0 .0220984-.0178976.0399961-.0399961.0399961h-.0814291v.110819h.259059v-.0794488c0-.0152874.00870866-.0292283.0224449-.035937.0137205-.00669291.0300945-.00501181.0421457.00440551l.35526.277157c.00970472.00758661.0153858.0192047.0153858.0315394 0 .0123189-.00567717.0239567-.0153858.0315394l-.0814055.0635197c-.0174173.0135945-.0425354.0105118-.0561299-.00692913-.0135945-.0174134-.0104882-.0425354.00692913-.0561299l.0409961-.0319961-.250252-.195236v.0375197c0 .0220827-.0178976.0399961-.0399921.0399961h-.339051-.260118-.0591024v.235453h.0577638l.00133858-.00002362h.260118l.00133858.00002362h.337713c.0220945 0 .0399921.0178976.0399921.0399961v.0375079l.0787008-.0613937c.0174291-.0135945.0425512-.0104724.056126.0069252.0135945.0174173.0104882.0425354-.0069252.0561299l-.143287.111791c-.00716535.00559055-.0158583.00846063-.0245984.00846063-.00598031 0-.0119685-.00133465-.0175512-.00405512-.0137323-.00669291-.0224409-.0206496-.0224409-.0359409v-.0794449h-.259071v.297461h.584264c.0220984 0 .0399961.0178976.0399961.0399921 0 .0220984-.0179016.0399961-.0399843.0399961h-.624272-.260118-.601961c-.0220787 0-.0399921-.0178976-.0399921-.0399961 0-.0220945.0179134-.0399921.0399921-.0399921h.561969zm.260098 0v-.297457h-.180126v.297457zm0-.69289v-.110819h-.180126v.110819zm-.180126-.506268h.180126v-.0975276h-.180126zm.11276.237717h-.0453858c-.0220945 0-.0399921-.0178976-.0399921-.0399921 0-.0220984.0178976-.0399961.0399921-.0399961h.0453858c.0220984 0 .0399961.0178976.0399961.0399961 0 .0220945-.0178976.0399921-.0399961.0399921z" fill="#000002"/><path d="m.958732 1.18127h.658276v-.235437h-.0814331-.260118-.31674c-.0220945 0-.0399921-.0178976-.0399921-.0399961v-.0375236l-.0470079.0366772c-.0173976.0135945-.0425354.0104882-.0561299-.0069252l-.0690079.0538031c.0135945.0174134.0104882.0425512-.00692913.056126l-.0711693.0555394.25026.195236v-.0375079c0-.0220945.0178976-.0399921.0399921-.0399921zm.424079-.0777126c-.0220945 0-.0399921-.0178976-.0399921-.0399921 0-.0220984.0178976-.0399961.0399921-.0399961h.0453858c.0220984 0 .0399961.0178976.0399961.0399961 0 .0220945-.0178976.0399921-.0399961.0399921z" fill="#f4de7f"/><path d="m1.53557 1.45211h-.260118-.0591024v.235453h.0577638l.00133858-.00002362h.260118l.00133858.00002362h.337713c.0220945 0 .0399921.0178976.0399921.0399961v.0375079l.0787008-.0613937c.0174291-.0135945.0425512-.0104724.056126.0069252l.0675-.0526417c-.0135945-.0174134-.0104882-.0425354.00692913-.0561299l.0409961-.0319961-.250252-.195236v.0375197c0 .0220827-.0178976.0399961-.0399921.0399961h-.339051zm-.0673819.117705c0 .0220984-.0178976.0399961-.0399961.0399961h-.0453858c-.0220945 0-.0399921-.0178976-.0399921-.0399961 0-.0220945.0178976-.0399921.0399921-.0399921h.0453858c.0220984 0 .0399961.0178976.0399961.0399921z" fill="#f4de7f"/><g fill="#cd8051"><path d="m1.49556 1.76754h-.18012v.29746h.18012z"/><path d="m1.31544 1.37211h.18012v-.11082h-.18012z"/><path d="m1.31544.865843h.18012v-.097528h-.18012z"/></g></g></svg>