<svg id="Icons" viewBox="0 0 60 60" xmlns="http://www.w3.org/2000/svg"><path d="m24.166 56.5c-.167 0-.329-.083-.423-.233-.143-.227-.082-.526.139-.679l1.448-.996-1.05.605c-.229.135-.521.064-.667-.157s-.095-.517.117-.675l5.333-4.006-4.783 2.761c-.231.137-.527.062-.672-.164-.144-.226-.084-.524.135-.678l2.574-1.803-2.037 1.176c-.231.136-.527.062-.672-.164-.144-.227-.084-.525.136-.679l2.414-1.686-1.878 1.084c-.229.136-.521.064-.667-.157s-.094-.518.118-.676l5.226-3.911-4.676 2.699c-.231.136-.528.061-.672-.165-.144-.227-.083-.525.137-.679l2.037-1.412-1.502.866c-.23.135-.523.062-.668-.158-.146-.222-.093-.519.121-.677l4.876-3.609-4.329 2.499c-.229.133-.518.063-.665-.152-.147-.218-.101-.512.106-.674l5.129-4.016-4.571 2.639c-.224.13-.505.067-.656-.141-.15-.208-.118-.496.074-.666l3.269-2.895-2.687 1.551c-.205.121-.466.077-.624-.101-.157-.178-.168-.441-.026-.632l1.547-2.068-.896.518c-.177.102-.397.087-.559-.039-.161-.126-.229-.337-.171-.533l.249-.856c-.082-.042-.152-.107-.202-.193-.138-.239-.056-.545.183-.683l.502-.29c.176-.103.397-.087.559.039.161.126.229.337.171.533l-.155.535 1.928-1.113c.206-.12.467-.077.624.101s.168.441.026.632l-1.547 2.068 4.868-2.811c.221-.13.506-.068.655.141.15.208.118.496-.074.666l-3.269 2.896 6.43-3.712c.227-.133.518-.064.664.152.147.218.101.512-.105.674l-5.128 4.014 5.793-3.344c.229-.133.522-.062.668.158.146.222.093.519-.12.677l-4.88 3.611 4.335-2.502c.232-.136.529-.062.672.165.144.227.083.525-.137.679l-2.038 1.413 1.505-.868c.226-.135.521-.064.667.157s.095.518-.117.676l-5.225 3.91 4.678-2.7c.232-.135.528-.062.672.164s.084.525-.136.679l-2.415 1.687 1.881-1.086c.233-.136.526-.062.672.164.144.226.084.524-.135.678l-2.568 1.799 2.033-1.174c.227-.134.521-.065.667.157.146.221.095.517-.117.675l-5.333 4.007 4.788-2.764c.234-.136.53-.061.673.166.144.227.082.526-.14.679l-1.446.996.915-.528c.224-.132.511-.066.66.146.148.214.109.505-.091.671l-3.686 3.063 3.119-1.801c.225-.134.515-.065.663.151.147.216.104.509-.102.672l-.716.571.156-.09c.201-.118.458-.078.617.094.159.171.177.43.045.622l-1.099 1.595.439-.253c.238-.14.546-.057.683.183.139.239.057.545-.183.683l-2.357 1.36c-.201.119-.459.078-.617-.094-.159-.172-.177-.43-.045-.622l1.098-1.594-4.017 2.319c-.228.132-.517.064-.663-.151-.147-.216-.103-.509.101-.672l.722-.576-2.433 1.404c-.225.133-.512.066-.66-.146-.148-.214-.109-.505.091-.671l3.684-3.062-6.736 3.889c-.079.046-.165.067-.25.067z" fill="#2f5370"/><path d="m6.518 37.47c-.171 0-.338-.088-.431-.246-.14-.236-.062-.541.173-.683l4.543-2.732-6.225 3.594c-.237.137-.539.058-.679-.176s-.066-.538.166-.682l26.984-16.719-29.625 17.104c-.237.137-.541.058-.68-.178-.14-.236-.063-.54.171-.683l15.698-9.522-15.333 8.852c-.238.137-.54.059-.68-.177-.14-.235-.065-.539.168-.683l19.402-11.886-18.89 10.908c-.238.138-.542.057-.68-.178-.14-.236-.063-.54.171-.683l9.42-5.709-8.911 5.145c-.237.138-.541.058-.681-.179-.139-.235-.062-.54.172-.682l4.297-2.597-3.789 2.188c-.237.139-.541.059-.681-.179-.139-.236-.062-.54.172-.682l1.003-.605-.495.285c-.238.138-.54.059-.68-.177-.14-.235-.065-.539.168-.683l9.608-5.881-9.094 5.253c-.238.138-.542.058-.68-.178-.14-.236-.063-.54.171-.683l.803-.486-.293.169c-.236.138-.538.058-.679-.175-.14-.233-.068-.537.164-.682l13.896-8.698-13.382 7.725c-.236.137-.538.06-.678-.174-.141-.233-.069-.536.162-.682l12.627-7.957-12.111 6.992c-.237.138-.54.059-.679-.177-.14-.234-.066-.538.167-.682l3.346-2.064-2.833 1.635c-.235.136-.535.059-.676-.171-.142-.23-.074-.532.152-.681l13.206-8.618-12.683 7.322c-.234.138-.535.06-.677-.173-.141-.231-.071-.534.157-.681l7.77-4.986-7.25 4.185c-.232.137-.532.061-.675-.169s-.077-.53.148-.68l9.189-6.117-8.662 5.001c-.234.139-.537.06-.677-.173-.141-.232-.071-.535.158-.682l1.022-.651-.503.29c-.231.136-.527.062-.671-.162-.144-.225-.086-.523.131-.678l7.725-5.49-7.185 4.148c-.229.134-.522.062-.668-.158-.146-.222-.093-.519.12-.676l5.744-4.261-5.196 2.999c-.228.133-.517.065-.664-.152s-.101-.511.105-.673l3.864-3.04-3.305 1.907c-.228.132-.516.064-.664-.151-.147-.217-.103-.51.103-.673l1.503-1.194-.942.544c-.215.126-.488.07-.642-.122-.154-.194-.142-.473.028-.653l1.366-1.453-.751.434c-.196.114-.442.08-.603-.078-.16-.159-.193-.406-.081-.603l.409-.715c-.144-.023-.276-.108-.354-.244-.138-.239-.056-.545.183-.683l1.163-.671c.195-.115.441-.082.603.078.16.159.193.406.081.603l-.298.522 2.084-1.203c.214-.127.488-.071.642.122.154.194.142.473-.028.653l-1.365 1.452 3.86-2.228c.227-.134.516-.065.664.151.147.217.103.51-.103.673l-1.503 1.193 3.496-2.018c.228-.133.518-.065.664.152.147.217.101.511-.105.673l-3.862 3.039 6.693-3.864c.229-.134.522-.062.668.158.146.222.093.519-.12.676l-5.744 4.262 8.827-5.096c.232-.135.527-.062.671.162.144.225.086.523-.131.678l-7.726 5.49 10.966-6.33c.236-.136.537-.059.677.173.141.232.071.535-.158.682l-1.014.646 2.6-1.501c.235-.137.533-.061.675.169.143.229.077.53-.148.68l-9.189 6.117 12.066-6.966c.236-.136.536-.059.677.173.141.231.071.534-.157.681l-7.767 4.985 10.114-5.839c.234-.138.534-.061.676.171.142.23.074.532-.152.681l-13.208 8.619 16.402-9.469c.236-.138.538-.06.68.177.14.234.065.538-.167.682l-3.351 2.067 5.069-2.926c.237-.136.537-.059.678.174s.069.536-.161.682l-12.625 7.956 15.263-8.812c.236-.136.538-.059.679.175s.067.537-.163.682l-13.89 8.694 16.543-9.551c.238-.14.54-.058.681.178.14.236.062.54-.172.683l-.823.499 2.355-1.359c.237-.138.539-.06.68.177.14.235.064.539-.169.683l-9.611 5.883 11.679-6.742c.237-.14.54-.059.681.179.14.236.062.54-.173.682l-1 .604 2.537-1.465c.238-.14.54-.059.681.179.14.235.062.54-.172.682l-4.303 2.6 5.993-3.46c.237-.14.54-.058.681.178.14.236.062.54-.172.683l-9.417 5.707 11.376-6.567c.237-.138.539-.06.68.177.14.235.064.539-.169.683l-19.396 11.882 22.069-12.746c.237-.14.54-.058.681.178.14.236.062.54-.171.683l-15.67 9.504 17.479-10.092c.236-.139.539-.06.679.176.141.234.066.538-.165.682l-26.988 16.721 26.778-15.46c.237-.139.542-.059.681.179.14.236.062.541-.173.683l-4.564 2.745 4.057-2.342c.236-.138.54-.059.68.178.14.235.064.539-.169.682l-14.639 8.935 14.128-8.156c.237-.14.54-.059.681.179.14.236.062.54-.173.682l-2.893 1.746 2.385-1.377c.236-.139.538-.06.68.177.14.234.065.538-.168.682l-14.414 8.875 13.902-8.026c.237-.136.537-.06.678.174s.069.536-.161.682l-19.155 12.083 18.639-10.761c.237-.137.536-.059.678.173.141.232.07.535-.159.682l-17.788 11.345 17.27-9.971c.236-.139.538-.06.679.176.141.233.067.537-.164.682l-8.962 5.584 8.447-4.877c.237-.137.536-.059.677.173.142.231.071.534-.157.681l-12.661 8.116 12.142-7.01c.236-.139.538-.06.679.176.141.233.067.537-.164.682l-3.022 1.881 2.508-1.447c.233-.136.533-.061.675.169.143.23.076.531-.148.681l-11.383 7.545 10.856-6.268c.234-.135.53-.062.673.166.144.228.081.527-.141.68l-10.145 6.934 9.612-5.55c.23-.135.528-.062.672.164s.084.524-.135.678l-7.925 5.546 7.388-4.265c.233-.138.531-.062.675.169.143.229.077.529-.147.68l-2.233 1.491 1.706-.984c.234-.136.528-.061.673.165.144.227.082.526-.139.679l-2.396 1.656 1.861-1.074c.225-.132.513-.065.661.148s.107.506-.095.671l-4.079 3.342 3.513-2.027c.225-.132.514-.065.662.148.147.215.105.507-.097.672l-1.416 1.153.851-.49c.221-.128.505-.068.655.141.15.208.118.496-.073.666l-.447.396c.158-.038.335.005.46.125.161.152.201.394.1.591l-.492.953c.171.002.336.092.427.25.139.239.057.545-.183.683l-1.161.67c-.191.112-.435.084-.595-.071-.161-.153-.201-.394-.1-.591l.433-.837-2.598 1.499c-.219.13-.505.068-.655-.141-.15-.208-.118-.496.073-.666l.369-.327-1.964 1.134c-.225.132-.514.066-.662-.148-.147-.215-.105-.507.097-.672l1.418-1.155-3.423 1.976c-.225.132-.513.066-.661-.148s-.107-.506.095-.671l4.077-3.341-7.205 4.16c-.229.137-.528.062-.673-.165-.144-.227-.082-.526.139-.679l2.404-1.662-4.342 2.506c-.236.135-.532.061-.675-.169-.143-.229-.077-.529.147-.68l2.228-1.487-4.047 2.336c-.233.135-.528.062-.672-.164s-.084-.524.135-.678l7.924-5.545-11.063 6.387c-.232.137-.529.062-.673-.166s-.081-.527.141-.68l10.146-6.935-13.477 7.78c-.235.135-.533.061-.675-.169-.143-.23-.076-.531.148-.681l11.383-7.545-14.541 8.395c-.236.138-.539.059-.679-.176-.141-.233-.067-.537.165-.682l3.024-1.883-4.747 2.74c-.234.138-.536.06-.677-.173-.141-.231-.071-.534.157-.681l12.66-8.115-15.535 8.969c-.236.138-.539.059-.679-.176-.141-.233-.067-.537.164-.682l8.959-5.582-11.154 6.439c-.235.137-.537.059-.677-.173-.141-.232-.071-.535.158-.682l17.791-11.346-21.132 12.2c-.236.137-.538.059-.678-.174-.141-.233-.069-.536.162-.682l19.155-12.082-22.411 12.938c-.237.137-.54.059-.679-.177-.14-.234-.066-.538.167-.682l14.413-8.874-16.857 9.732c-.238.139-.541.058-.681-.179-.139-.236-.062-.54.172-.682l2.899-1.749-4.521 2.609c-.238.138-.54.058-.68-.178-.14-.235-.064-.539.17-.682l14.636-8.934-16.962 9.793c-.079.046-.165.067-.25.067z" fill="#d7e0e2"/><g fill="#ef9d0c"><path d="m11.028 5.471c-.157 0-.311-.074-.408-.211-.149-.21-.114-.499.082-.668l.127-.109-1.596.921c-.215.127-.49.072-.644-.124s-.14-.475.033-.654l1.346-1.403-1.481.854c-.193.114-.438.082-.6-.075-.16-.156-.197-.401-.089-.598l.771-1.408c-.09-.042-.168-.11-.222-.203-.138-.239-.056-.545.183-.684l.887-.512c.194-.11.44-.08.6.076s.197.401.089.598l-.573 1.047 2.98-1.721c.216-.125.49-.071.644.124.153.196.14.475-.033.654l-1.347 1.404 3.151-1.819c.225-.13.509-.067.658.144.149.21.114.499-.081.668l-.193.166c.169-.047.355 0 .485.128.16.159.194.405.082.602l-.54.949.242-.139c.238-.141.544-.057.683.183.138.239.056.545-.183.683l-1.835 1.06c-.196.113-.443.081-.603-.078s-.194-.405-.082-.602l.539-.949-2.824 1.63c-.079.046-.165.067-.25.067z"/><path d="m26.594 5.471c-.152 0-.302-.069-.399-.198-.152-.201-.13-.484.05-.66l1.176-1.144-.913.526c-.195.114-.44.082-.601-.076-.16-.158-.195-.403-.086-.6l.74-1.328c-.086-.043-.161-.11-.213-.199-.138-.239-.056-.545.183-.684l.887-.512c.195-.112.44-.081.601.077.16.158.195.403.086.6l-.53.951 2.82-1.628c.221-.128.498-.07.648.131.152.201.131.484-.05.66l-1.175 1.143 3.021-1.744c.215-.128.495-.071.648.13.152.201.132.483-.049.66l-1.007.986.793-.457c.194-.113.438-.083.599.074.16.155.197.398.092.596l-.475.882.162-.094c.239-.141.545-.057.683.183.139.239.057.545-.183.683l-1.688.974c-.194.113-.438.083-.599-.074-.16-.155-.197-.398-.092-.596l.475-.881-2.688 1.551c-.219.127-.496.069-.648-.13-.152-.201-.131-.483.048-.66l1.004-.983-3.074 1.774c-.078.046-.165.067-.25.067z"/><path d="m45.022 5.471c-.138 0-.273-.057-.37-.164-.158-.175-.174-.437-.036-.627l1.477-2.059-1.445.834c-.199.117-.452.08-.611-.087s-.185-.421-.061-.614l.515-.806c-.057-.04-.105-.093-.143-.156-.138-.239-.056-.545.184-.684l.888-.512c.199-.114.452-.079.611.088s.185.421.061.614l-.171.268 1.68-.969c.203-.119.462-.078.621.097.157.175.173.437.035.627l-1.476 2.057 4.154-2.398c.216-.128.494-.071.647.13.152.2.133.482-.047.659l-.827.815.559-.322c.194-.115.441-.083.604.079.16.159.192.407.08.603l-.382.663.041-.023c.238-.14.545-.057.683.183.139.239.057.545-.183.683l-1.652.954c-.196.113-.443.082-.604-.079-.16-.159-.192-.407-.08-.603l.382-.663-2.331 1.345c-.216.127-.494.07-.647-.13-.152-.2-.133-.482.047-.659l.824-.812-2.775 1.603c-.078.046-.164.067-.25.067z"/></g><path d="m33.772 59.47c-.157 0-.312-.074-.408-.212-.149-.211-.112-.501.084-.669l.365-.311-1.947 1.124c-.205.119-.467.076-.624-.102-.158-.178-.168-.442-.025-.632l1.49-1.979-4.699 2.712c-.207.121-.47.076-.627-.104-.157-.181-.165-.446-.018-.636l1.495-1.918-4.605 2.658c-.221.13-.5.069-.652-.136-.151-.205-.125-.49.062-.663l.996-.925-2.823 1.63c-.213.123-.481.072-.636-.114-.155-.188-.152-.462.008-.646l1.385-1.596-1.312.757c-.194.113-.438.082-.599-.074-.16-.156-.198-.399-.091-.597l.455-.839c-.159-.013-.309-.101-.395-.249-.138-.239-.056-.545.183-.684l1.162-.67c.193-.111.438-.081.599.075.16.156.198.399.091.597l-.375.691 2.361-1.362c.212-.125.48-.074.636.114.155.188.152.462-.008.646l-1.384 1.596 4.082-2.356c.222-.128.501-.068.652.136.151.205.125.49-.062.663l-.997.925 2.987-1.724c.207-.122.47-.076.627.104s.164.446.018.636l-1.495 1.918 4.606-2.658c.204-.121.466-.076.624.102s.168.442.025.632l-1.489 1.978 4.587-2.647c.224-.131.51-.067.658.145.149.211.112.501-.084.669l-.364.31.427-.246c.2-.117.454-.079.612.089.159.167.183.422.057.616l-.812 1.252.146-.084c.238-.14.545-.058.683.183.139.239.057.545-.183.683l-1.95 1.126c-.199.118-.453.08-.612-.089-.159-.167-.183-.422-.057-.616l.812-1.252-3.391 1.957c-.078.046-.165.067-.25.067z" fill="#25475e"/><path d="m36.734 37.298c3.709-.795 23.434 2.037 22.991-1.944-.003-10.355.01-20.709 0-31.063-.077-3.162-5.338-1.041-7.4-1.59-.198-1.706-.893-2.483-2.678-2.141-2.012.284-5.66-1.086-5.845 1.921h-9.534c-.152-1.763-1.104-2.315-2.803-2.035-2.14.209-5.621-1.009-5.718 2.179h-9.442c-.177-1.694-.932-2.367-2.654-2.047-2.118.249-5.771-1.065-5.898 2.101-3.02.015-8.483-1.156-7.477 3.548v29.087c-.464 1.948 1.489 2.196 2.952 1.982h20.046v17.28c-1.516-.168-3.21.426-2.998 2.188 0 .781-.209 1.833.519 2.353 5.661.671 11.782.211 17.525.194 1.226-.307 1.404-1.162 1.404-2.246.339-2.237-1.075-2.673-2.99-2.458v-17.311zm13.399-35.859c.879.368.675 2.231 1.124 3.121-2.128-.008-4.272.012-6.39 0-.311-.896.497-2.132.643-3.121h4.624zm-17.661.114c.253.949.505 1.932.755 2.893-2.159.001-4.317-.002-6.476 0 .167-.999.459-1.889.746-2.887 1.597-.019 4.913-.007 4.975-.007zm-18.364-.133c.793.034.769 2.428 1.151 3.158-2.126-.009-4.273.013-6.389 0-.313-.899.494-2.165.637-3.158zm-11.01 35.282c-1.059.216-1.519-.622-1.373-1.526-.011-10.611.018-21.259-.004-31.854 1.931-.087 3.92.011 5.872-.024-.999 2.18.657 2.265 2.382 2.122 1.905-.432 7.559 1.396 6.528-2.047h9.05c-1.046 2.104.988 2.371 2.608 2.179 1.89-.42 7.326 1.373 6.375-2.035h8.996c-.967 1.959.997 2.077 2.448 1.921 1.941-.423 7.664 1.407 6.502-2.141 1.738.357 6.19-1.326 5.793 1.687.177 10.51-.345 21.35.188 31.717-7.175.074-14.56-.051-21.796 0-.215-.339-.888-.286-1.215 0h-10.813c-7.024-.052-14.402.037-21.541 0zm35.183 21.908c-4.392.025-8.918-.017-13.357 0-1.436.086-3.697.495-3.199-1.716 0-.303-.111-1.382.081-1.503 4.471-.006 9.096.006 13.626 0 3.275.005 2.887-.113 2.848 3.219zm-8.352-4h-5.203v-17.311h10.539v17.311h-5.337z" fill="#262626"/><path d="m19.707 21.538h7.561c.322 1.226-1.049 9.146 1.463 6.398-.145-4.299.304-8.675-.197-12.93-1.235-4.128-6.95-4.582-9.335-1.258-2.075 4.299-.455 9.655-.932 14.316 2.501 2.293 1.139-5.28 1.44-6.526zm3.055-8.991c4.57-.529 4.784 4.635 4.506 7.916h-7.556c.042-2.838-.662-7.185 3.05-7.916z" fill="#262626"/><path d="m31.73 28.454c5.759.772 11.173-1.513 9.998-8.217.523-3.724-.518-8.385-5.015-8.672-1.658.152-4.209-.655-5.441.512.429 5.249-.837 11.691.458 16.377zm3.593-16c5.842-.138 5.009 6.443 4.949 10.493.112 4.314-4.117 4.999-7.544 4.599v-15.092z" fill="#262626"/></svg>