<svg clip-rule="evenodd" fill-rule="evenodd" height="512" image-rendering="optimizeQuality" shape-rendering="geometricPrecision" text-rendering="geometricPrecision" viewBox="0 0 1707 1707" width="512" xmlns="http://www.w3.org/2000/svg"><g id="Layer_x0020_1"><g id="_621542504"><path d="m740 276c-15 0-27-12-27-27v-222c0-15 12-27 27-27h228c15 0 27 12 27 27v224c0 15-12 25-27 25-11 0-20-6-25-16-59 10-193 16-203 16zm228 1289h-67c-9 0-16-3-21-9-62 6-133 9-140 9-15 0-27-12-27-27v-561c0-16 12-28 27-28 11 0 142 7 205 17 4-10 13-17 25-17 15 0 27 12 27 28v561c-2 15-14 27-29 27zm0-814c-11 0-21-7-25-17-57 11-192 17-203 17-15 0-27-12-27-27v-221c0-15 12-27 27-27 12 0 146 8 203 18 3-10 13-18 25-18 15 0 27 12 27 27v223c0 15-12 25-27 25z" fill="#0a617d"/><g fill="#084e66"><path d="m713 1483h284v55c-2 15-14 27-29 27h-67c-9 0-16-3-21-9-62 6-133 9-140 9-15 0-27-12-27-27z"/><path d="m995 558h-282v-55c0-15 12-27 27-27 12 0 146 8 203 18 3-10 13-18 25-18 15 0 27 12 27 27z"/><path d="m716 1032h-3v-55c0-16 12-28 27-28 11 0 142 7 205 17 4-10 13-17 25-17 15 0 27 12 27 28v55zm-3-362h282v56c0 15-12 25-27 25-11 0-21-7-25-17-57 11-192 17-203 17-15 0-27-12-27-27z"/></g><path d="m1242 529h-929c-15 0-27-12-27-27v-251c0-15 12-27 27-27h929c6 0 12 1 16 6l152 122c6 4 10 12 10 19 0 8-3 15-9 21l-151 131c-5 4-11 6-18 6z" fill="#ff4141"/><path d="m1206 1707h-703c-15 0-28-12-28-27v-142c0-15 13-27 28-27h703c15 0 27 12 27 27v142c-2 15-12 27-27 27z" fill="#f3a766"/><path d="m465 1004h928c15 0 27-12 27-27v-251c0-15-12-27-27-27h-928c-6 0-12 1-17 6l-151 121c-6 5-11 12-11 20 0 7 3 15 9 21l152 131c4 4 10 6 18 6z" fill="#ff4141"/></g></g></svg>