<svg id="Icons" viewBox="0 0 60 60" xmlns="http://www.w3.org/2000/svg"><path d="m58.55 35.3-2.55 1.7 2.32.77c.4.14.68.52.68.95v5.28c0 .55-.45 1-1 1v2h-56v-2c-.55 0-1-.45-1-1v-2c0-.55.45-1 1-1h2l-2.71-2.71c-.18-.18-.28-.43-.29-.68v-5.61c0-.55.45-1 1-1v-2h56v2c.55 0 1 .45 1 1v2.46c0 .34-.17.65-.45.84z" fill="#aa6148"/><path d="m58 59h-56c-.552 0-1-.448-1-1v-2.465c0-.334.167-.647.445-.832l2.555-1.703-2.316-.772c-.408-.136-.684-.518-.684-.949v-5.279c0-.552.448-1 1-1h56c.552 0 1 .448 1 1v2c0 .552-.448 1-1 1h-2s2.707 2.707 2.707 2.707c.188.188.293.442.293.707v5.586c0 .552-.448 1-1 1z" fill="#b77050"/><path d="m59 20v-2c0-.55-.45-1-1-1h-56c-.55 0-1 .45-1 1v5.28c0 .43.28.81.68.95l2.32.77-2.55 1.7c-.28.19-.45.5-.45.84v2.46c0 .55.45 1 1 1h56c.55 0 1-.45 1-1v-5.59c0-.26-.11-.52-.29-.7l-2.71-2.71h2c.55 0 1-.45 1-1zm-48 5c-1.1 0-2-.9-2-2s.9-2 2-2 2 .9 2 2-.9 2-2 2zm38 0c-1.1 0-2-.9-2-2s.9-2 2-2 2 .9 2 2-.9 2-2 2z" fill="#b77050"/><path d="m58 16h-8v-15c0-.553-.447-1-1-1s-1 .447-1 1v15h-36v-15c0-.553-.447-1-1-1s-1 .447-1 1v15h-2c-.553 0-1 .447-1 1s.447 1 1 1h2v2.184c-.349.124-.665.311-.941.547-1.074-.225-2.111-.524-3.109-.83-1.347-.412-2.636-.793-3.95-.955v-.946h2c.553 0 1-.447 1-1s-.447-1-1-1h-2c-1.103 0-2 .897-2 2v5.279c0 .862.55 1.625 1.367 1.896l.377.126-.854.569c-.558.372-.891.994-.891 1.664v2.465c0 .366.106.705.278 1-.172.295-.278.634-.278 1v5.586c0 .526.214 1.042.586 1.414l1.036 1.036c-.923.177-1.622.99-1.622 1.964v2c0 .366.106.705.278 1-.172.295-.278.634-.278 1v5.279c0 .862.55 1.625 1.367 1.896l.377.126-.854.569c-.558.372-.891.994-.891 1.664v2.465c0 1.103.897 2 2 2h56c1.103 0 2-.897 2-2v-5.586c0-.526-.214-1.042-.586-1.414l-1.036-1.036c.923-.177 1.622-.99 1.622-1.964v-2c0-.366-.106-.705-.278-1 .172-.295.278-.634.278-1v-5.279c0-.862-.55-1.625-1.367-1.896l-.377-.126.854-.569c.558-.372.891-.994.891-1.664v-2.465c0-.366-.106-.705-.278-1 .172-.295.278-.634.278-1v-5.586c0-.526-.214-1.042-.586-1.414l-1.036-1.036c.923-.177 1.622-.99 1.622-1.964v-2c0-1.103-.897-2-2-2zm0 2v2h-2c-.404 0-.77.243-.924.617-.155.374-.069.804.217 1.09l2.376 2.376c-1.914 0-3.829-.189-5.721-.568.029-.168.052-.339.052-.515 0-1.302-.839-2.402-2-2.816v-2.184zm-9 4c.552 0 1 .448 1 1s-.448 1-1 1-1-.448-1-1 .448-1 1-1zm-1-1.816c-.776.277-1.407.856-1.739 1.604-1.618-.68-3.158-1.488-4.584-2.425-.524-.343-1.039-.703-1.554-1.064-.142-.099-.286-.199-.429-.299h8.306zm-27.172-2.184c-.149.085-.305.168-.453.253-.637.362-1.271.724-1.906 1.065-1.804.964-3.527 1.503-5.25 1.681-.33-.366-.746-.646-1.219-.815v-2.184zm-9.828 4c.552 0 1 .448 1 1s-.448 1-1 1-1-.448-1-1 .448-1 1-1zm-5.635-.186c.857.262 1.753.513 2.68.735-.023.148-.046.296-.046.451 0 1.654 1.346 3 3 3s3-1.346 3-3c0-.028-.008-.054-.008-.082 1.792-.259 3.577-.851 5.422-1.837.652-.352 1.3-.72 1.95-1.09 1.224-.697 2.487-1.413 3.759-1.991h10.821c1.035.545 2.007 1.219 3.031 1.937.532.374 1.065.747 1.604 1.1 1.72 1.13 3.597 2.087 5.573 2.865.385 1.212 1.508 2.099 2.846 2.099.706 0 1.347-.255 1.86-.665 2.238.502 4.511.766 6.785.766.118 0 .236-.007.354-.008v3.907h-12c-2.349 0-4.604-.738-6.892-2.258-.978-.649-1.886-1.438-2.847-2.273-1.105-.96-2.249-1.953-3.52-2.726-4.299-2.613-9.691-2.272-13.737.866-.824.64-1.579 1.376-2.309 2.088-.687.669-1.334 1.302-2.029 1.854-2.19 1.739-4.122 2.449-6.667 2.449h-5.995v-2.465l2.555-1.703c.317-.212.487-.586.437-.965-.051-.378-.312-.695-.675-.815l-2.316-.772v-2.324c1.078.161 2.197.502 3.365.859zm52.635 12.65-2.555 1.703c-.317.212-.487.586-.437.965.051.378.312.695.675.815l2.316.772v5.279h-13.443c-.045-.164-.078-.33-.092-.497-.082-.852.21-1.732.782-2.357.61-.667 1.521-1.092 2.484-1.542 1.321-.616 2.687-1.254 3.544-2.609.763-1.207.937-2.782.49-4.435-.049-.18-.125-.372-.19-.56h6.425v2.465zm0 13.535h-2c-.404 0-.77.243-.924.617-.155.374-.069.804.217 1.09l2.431 2.431c-3.139.158-8.551.126-16.046-4.775-.519-.339-1.027-.695-1.536-1.053-.147-.103-.297-.207-.446-.311h18.305v2zm-56-2h18.828c-.149.085-.305.168-.453.253-.637.362-1.271.724-1.906 1.065l-.28.15c-2.215 1.188-4.505 2.421-8.563 1.392-.932-.235-1.826-.504-2.693-.765-1.692-.507-3.306-.972-4.932-1.149v-.946zm0-4h2c.404 0 .77-.243.924-.617.155-.374.069-.804-.217-1.09l-.137-.137c1.297.115 2.599.194 3.908.194 1.88 0 3.768-.119 5.648-.357.548-.069.936-.57.866-1.118-.07-.547-.567-.928-1.118-.866-3.567.452-7.161.455-10.686.009-.3-.035-.596-.085-.893-.135l-.295-.295-.002-5.586h1.615c5.619 5.327 13.619 5.371 19.394 4.438.288-.047.575-.097.862-.147.908-.161 1.766-.312 2.621-.325 1.104-.036 2.143.259 2.78.776.624.51.896 1.353.618 1.919-.354.719-1.458 1.078-2.321 1.252-1.569.315-3.17.367-4.864.423-1.317.043-2.679.087-4.027.267l-.339.045c-2.86.377-6.37.842-7.933 3.353h-8.404v-2zm11.255 2c1.383-.833 3.444-1.119 5.344-1.37l.341-.045c1.25-.166 2.561-.209 3.829-.25 1.701-.056 3.461-.113 5.194-.461 1.897-.383 3.149-1.168 3.721-2.332.693-1.411.21-3.24-1.149-4.35-1.284-1.045-2.923-1.254-4.075-1.227-1.015.016-1.992.188-2.938.355-.277.049-.556.098-.833.143-4.722.763-11.035.848-15.912-2.464h24.801c.511.248 1.031.471 1.536.683.6.251 1.166.488 1.711.768.919.47 2.505 1.482 2.792 2.999.169.876-.109 1.842-.403 2.864-.101.351-.201.7-.286 1.05-.29 1.192-.397 2.411-.325 3.637zm36.169-12c.175.386.322.751.411 1.081.295 1.09.203 2.127-.25 2.845-.544.859-1.591 1.349-2.699 1.866-1.099.513-2.234 1.043-3.113 2.003-.949 1.036-1.435 2.495-1.299 3.888.009.105.042.211.058.317h-3.92c-.074-1.068.008-2.129.26-3.164.078-.323.172-.646.265-.97.331-1.147.705-2.449.445-3.792-.368-1.948-1.861-3.257-3.246-4.074zm-16.917-2c-.22-.223-.437-.45-.653-.678-.81-.858-1.646-1.745-2.735-2.384-1.8-1.063-4.125-1.229-6.069-.434-1.595.655-2.907 1.933-3.62 3.495h-4.747c.407-.268.815-.555 1.228-.883.774-.615 1.49-1.313 2.182-1.988.722-.704 1.403-1.369 2.139-1.939 3.383-2.627 7.888-2.916 11.472-.737 1.126.685 2.156 1.579 3.247 2.526.967.84 1.967 1.709 3.053 2.43.317.211.635.407.952.592h-6.448zm-2.777 0h-7.965c.523-.716 1.219-1.306 2.043-1.645 1.375-.562 3.021-.445 4.296.307.59.346 1.111.818 1.625 1.338zm-7.965 28c.523-.716 1.219-1.306 2.043-1.645 1.375-.563 3.021-.445 4.296.307.59.346 1.111.818 1.625 1.338h-7.965zm10.742 0c-.22-.223-.437-.45-.653-.678-.81-.858-1.646-1.745-2.735-2.384-1.8-1.062-4.125-1.229-6.069-.434-1.595.655-2.907 1.933-3.62 3.495h-4.747c.407-.268.815-.555 1.228-.883.774-.615 1.49-1.313 2.182-1.988.722-.704 1.403-1.369 2.139-1.939 3.383-2.627 7.888-2.915 11.472-.737 1.126.685 2.156 1.579 3.247 2.526.967.84 1.967 1.709 3.053 2.43.317.211.635.407.952.592h-6.448zm13.493 0c-2.349 0-4.604-.738-6.892-2.258-.978-.649-1.886-1.438-2.847-2.273-1.105-.96-2.249-1.953-3.52-2.726-4.299-2.613-9.691-2.272-13.737.866-.824.64-1.579 1.376-2.309 2.088-.687.669-1.334 1.302-2.029 1.854-2.19 1.739-4.122 2.449-6.667 2.449h-5.999v-2.465l2.555-1.703c.317-.212.487-.586.437-.965-.051-.378-.312-.695-.675-.815l-2.316-.772v-2.325c1.388.178 2.837.601 4.356 1.057.895.268 1.816.544 2.778.788 1.237.312 2.346.443 3.351.443 2.902 0 4.933-1.09 6.65-2.013l.278-.149c.652-.352 1.3-.72 1.95-1.09 1.224-.697 2.487-1.413 3.759-1.991h10.821c1.041.548 2.019 1.227 3.048 1.948.526.369 1.054.738 1.59 1.089 6.84 4.473 12.23 5.141 15.661 5.141.669 0 1.24-.026 1.756-.054v3.876s-12.001 0-12.001 0z" fill="#161616"/></svg>