<?xml version="1.0" encoding="UTF-8" standalone="no"?>
<!-- Created with Inkscape (http://www.inkscape.org/) -->

<svg
   version="1.1"
   id="svg2"
   xml:space="preserve"
   width="144"
   height="189.33333"
   viewBox="0 0 144 189.33333"
   sodipodi:docname="P-270-2-G-900x1200(12).eps"
   xmlns:inkscape="http://www.inkscape.org/namespaces/inkscape"
   xmlns:sodipodi="http://sodipodi.sourceforge.net/DTD/sodipodi-0.dtd"
   xmlns="http://www.w3.org/2000/svg"
   xmlns:svg="http://www.w3.org/2000/svg"><defs
     id="defs6" /><sodipodi:namedview
     id="namedview4"
     pagecolor="#ffffff"
     bordercolor="#666666"
     borderopacity="1.0"
     inkscape:pageshadow="2"
     inkscape:pageopacity="0.0"
     inkscape:pagecheckerboard="0" /><g
     id="g8"
     inkscape:groupmode="layer"
     inkscape:label="ink_ext_XXXXXX"
     transform="matrix(1.3333333,0,0,-1.3333333,0,189.33333)"><g
       id="g10"
       transform="scale(0.1)"><path
         d="M 8.50391,60.4063 C 8.50391,27.8008 34.9648,1.33984 67.5742,1.33984 v 0 H 1012.46 v 0 c 32.61,0 59.04,26.46096 59.04,59.06646 v 0 1299.2237 0 c 0,32.6 -26.43,59.03 -59.04,59.03 v 0 H 67.5742 v 0 c -32.6094,0 -59.07029,-26.43 -59.07029,-59.03 v 0 V 60.4063"
         style="fill:#ffffff;fill-opacity:1;fill-rule:evenodd;stroke:none"
         id="path12" /><path
         d="M 8.50391,60.4063 C 8.50391,27.8008 34.9648,1.33984 67.5742,1.33984 v 0 H 1012.46 v 0 c 32.61,0 59.04,26.46096 59.04,59.06646 v 0 1299.2237 0 c 0,32.6 -26.43,59.03 -59.04,59.03 v 0 H 67.5742 v 0 c -32.6094,0 -59.07029,-26.43 -59.07029,-59.03 v 0 z"
         style="fill:none;stroke:#231f20;stroke-width:2.16;stroke-linecap:butt;stroke-linejoin:miter;stroke-miterlimit:22.9256;stroke-dasharray:none;stroke-opacity:1"
         id="path14" /><path
         d="m 22.6328,60.3945 c 0,-12.3906 4.3867,-22.9687 13.1563,-31.7382 8.7734,-8.7735 19.3476,-13.1602 31.7422,-13.1602 v 0 H 1012.41 v 0 c 12.39,0 22.97,4.3867 31.73,13.1562 8.76,8.7618 13.14,19.3477 13.14,31.7422 v 0 1299.2155 0 c 0,12.39 -4.38,22.97 -13.14,31.73 -8.76,8.76 -19.34,13.14 -31.73,13.14 v 0 H 67.5313 v 0 c -12.3985,0 -22.9805,-4.39 -31.7461,-13.15 -8.7657,-8.76 -13.1524,-19.33 -13.1524,-31.72 v 0 V 60.3945"
         style="fill:#231f20;fill-opacity:1;fill-rule:evenodd;stroke:none"
         id="path16" /><path
         d="m 43.875,60.375 c 0,-6.5234 2.3086,-12.0898 6.9297,-16.7109 4.6172,-4.6172 10.1875,-6.9258 16.707,-6.9258 v 0 H 1012.39 v 0 c 6.52,0 12.08,2.3086 16.69,6.9219 4.62,4.6171 6.92,10.1875 6.92,16.7148 v 0 1299.215 0 c 0,6.52 -2.3,12.09 -6.91,16.69 -4.61,4.61 -10.18,6.92 -16.7,6.92 v 0 H 67.5117 v 0 c -6.5273,0 -12.1015,-2.31 -16.7187,-6.93 -4.6094,-4.61 -6.918,-10.17 -6.918,-16.68 v 0 V 60.375"
         style="fill:#ffffff;fill-opacity:1;fill-rule:evenodd;stroke:none"
         id="path18" /><path
         d="M 611.852,301.203 754.266,185.961 710.391,153.98 v 0 c -6.438,-3.867 -9.567,-11.253 -7.887,-18.542 1.715,-7.528 8.359,-12.848 16.035,-13.168 v 0 l 201.766,-11.7 -52.828,195.508 v 0 c -1.981,8.117 -9.567,13.61 -17.954,13.082 -7.41,-0.504 -13.73,-5.73 -15.679,-12.996 v 0 l -22.059,-49.754 0.031,0.031 -142.648,115.457 -57.316,-70.695"
         style="fill:#231f20;fill-opacity:1;fill-rule:evenodd;stroke:none"
         id="path20" /><path
         d="M 261.195,473.777 H 119.461 v -59.054 h 141.734 v 59.054"
         style="fill:#231f20;fill-opacity:1;fill-rule:evenodd;stroke:none"
         id="path22" /><path
         d="M 436.035,473.777 H 294.301 v -59.054 h 141.734 v 59.054"
         style="fill:#231f20;fill-opacity:1;fill-rule:evenodd;stroke:none"
         id="path24" /><path
         d="M 610.754,473.777 H 469.023 v -59.054 h 141.731 v 59.054"
         style="fill:#231f20;fill-opacity:1;fill-rule:evenodd;stroke:none"
         id="path26" /><path
         d="M 785.598,473.777 H 643.863 v -59.054 h 141.735 v 59.054"
         style="fill:#231f20;fill-opacity:1;fill-rule:evenodd;stroke:none"
         id="path28" /><path
         d="M 960.438,473.777 H 818.703 v -59.054 h 141.735 v 59.054"
         style="fill:#231f20;fill-opacity:1;fill-rule:evenodd;stroke:none"
         id="path30" /><path
         d="M 973.215,1281.27 765.563,921.625 v 0 c -5.102,-8.84 -14.532,-14.281 -24.739,-14.281 -10.207,0 -19.64,5.441 -24.746,14.281 v 0 L 508.43,1281.27 v 0 c -5.102,8.84 -5.102,19.73 0,28.57 5.105,8.84 14.535,14.29 24.742,14.29 v 0 h 415.301 v 0 c 10.203,0 19.636,-5.45 24.742,-14.29 5.105,-8.84 5.105,-19.73 0,-28.57"
         style="fill:#ffffff;fill-opacity:1;fill-rule:evenodd;stroke:none"
         id="path32" /><path
         d="M 964.227,1286.45 756.574,926.805 v 0 c -3.515,-6.094 -8.793,-9.145 -15.828,-9.145 -7.039,0 -12.32,3.051 -15.84,9.145 v 0 L 517.258,1286.45 v 0 c -1.633,2.83 -2.449,5.88 -2.449,9.14 0,3.27 0.816,6.32 2.449,9.15 3.519,6.1 8.801,9.14 15.836,9.14 v 0 h 415.297 v 0 c 7.043,0 12.32,-3.04 15.836,-9.14 1.632,-2.83 2.449,-5.88 2.449,-9.15 0,-3.26 -0.817,-6.31 -2.449,-9.14"
         style="fill:#ed2e30;fill-opacity:1;fill-rule:evenodd;stroke:none"
         id="path34" /><path
         d="m 842.086,1219.88 -88.887,-153.95 v 0 c -2.551,-4.43 -7.269,-7.15 -12.371,-7.15 -5.101,0 -9.816,2.72 -12.371,7.15 v 0 l -88.887,153.95 v 0 c -2.55,4.42 -2.55,9.86 0,14.28 2.555,4.42 7.27,7.14 12.371,7.14 v 0 h 177.77 v 0 c 5.105,0 9.824,-2.72 12.375,-7.14 2.551,-4.42 2.551,-9.86 0,-14.28"
         style="fill:#ffffff;fill-opacity:1;fill-rule:evenodd;stroke:none"
         id="path36" /><path
         d="m 502.156,585.855 -102.648,194.579 -0.613,193.5 38.804,-56.204 62.992,-52.617 v 0 c 8.872,-6.843 21.657,-5.433 28.887,3.254 7.301,8.766 6.277,21.656 -2.18,29.215 v 0 l -60.355,50.207 -68.195,108.361 v 0 c -1.465,2.87 -3.539,5.33 -6.051,7.23 -3.383,2.53 -7.41,4 -11.613,4.23 v 0 l -70.504,2.97 v 0 c -4.047,-0.13 -8.02,-1.26 -11.504,-3.33 -2.742,-1.62 -5.106,-3.79 -7.028,-6.39 v 0 L 200.914,932.699 236.691,850.66 v 0 c 4.434,-10.894 16.989,-15.996 27.704,-11.176 10.429,4.664 15.148,16.942 10.484,27.368 v 0 l -24.043,55.207 44.289,71.839 0.41,-144.472 158.82,-288.481 v 0 c 6.84,-12.711 22.735,-17.757 35.727,-11.324 13.352,6.559 18.813,22.832 12.074,36.234"
         style="fill:#231f20;fill-opacity:1;fill-rule:evenodd;stroke:none"
         id="path38" /><path
         d="M 355.875,714.02 295.289,826.477 V 724.273 L 196.871,588.387 v 0 c -8.531,-11.508 -6.738,-27.703 4.102,-37.086 11.996,-10.434 30.265,-8.457 39.851,4.207 v 0 L 355.875,714.02"
         style="fill:#231f20;fill-opacity:1;fill-rule:evenodd;stroke:none"
         id="path40" /><path
         d="m 356.355,1194.18 c -27.781,0 -50.796,-22.94 -50.796,-50.8 0,-27.93 23.015,-50.72 50.796,-50.72 27.856,0 50.719,22.79 50.719,50.72 0,27.86 -22.863,50.8 -50.719,50.8"
         style="fill:#231f20;fill-opacity:1;fill-rule:evenodd;stroke:none"
         id="path42" /></g></g></svg>
