<svg width="500" height="500" version="1.1" viewBox="0 0 132.29 132.29" xmlns="http://www.w3.org/2000/svg">
 <circle cx="66.146" cy="66.146" r="66.146" fill="#54a3d0" stroke-miterlimit="10" stroke-width="0"/>
 <g transform="matrix(.12664 0 0 .12664 2.8225 2.826)">
  <path d="m882.73 787.74h-763.43a20 20 0 1 1 0-40h763.43a20 20 0 0 1 0 40z"/>
  <path d="m190 727.74c18.64-40.94 23.35-120.69 24.44-168.08a80 80 0 0 0 9.69-8.73h54.56a78.38 78.38 0 0 0 9.69 8.73c1.09 47.39 5.81 127.15 24.45 168.09z"/>
  <path d="m288 530.92a60.27 60.27 0 1 0 76.2-88.8 60.27 60.27 0 0 0-19-117.45c-1.54 0-3.05 0.07-4.55 0.19a60.27 60.27 0 1 0-89.28-80.78 60.27 60.27 0 1 0-89.26 80.78c-1.51-0.12-3-0.19-4.56-0.19a60.27 60.27 0 0 0-19 117.45 60.27 60.27 0 1 0 76.19 88.82z"/>
  <rect x="431.01" y="595.65" width="357.51" height="59.25" rx="29.62"/>
  <path d="m479.93 524.19a17.5 17.5 0 1 1 0-35h259.66a17.5 17.5 0 0 1 0 35z"/>
  <path d="m749.59 613.17a17.52 17.52 0 0 1-17.5-17.5v-132.37a17.5 17.5 0 0 1 35 0v132.37a17.52 17.52 0 0 1-17.5 17.5z"/>
  <path d="m469.93 613.17a17.5 17.5 0 0 1-17.5-17.5v-132.37a17.5 17.5 0 1 1 35 0v132.37a17.52 17.52 0 0 1-17.5 17.5z"/>
  <path d="m485.63 654.9v72.84h-30v-72.84a15 15 0 0 1 30 0z"/>
  <path d="m763.89 654.9v72.84h-30v-72.84a15 15 0 0 1 30 0z"/>
  <path d="m825.56 341.9h40v385.84h-40z"/>
  <path d="m866.16 321.9h-41.16a21.63 21.63 0 0 1-21.17-17.19l-9.48-45.18a21.65 21.65 0 0 1 8.65-22.13l30.07-21.19a21.65 21.65 0 0 1 24.92 0l30.11 21.19a21.65 21.65 0 0 1 8.71 22.13l-9.48 45.18a21.63 21.63 0 0 1-21.17 17.19z"/>
 </g>
</svg>
