<svg width="500" height="500" version="1.1" viewBox="0 0 132.29 132.29" xmlns="http://www.w3.org/2000/svg">
 <circle cx="66.146" cy="66.146" r="66.146" fill="#b962b9" stroke-miterlimit="10" stroke-width="0"/>
 <g transform="matrix(.022316 0 0 .022316 17.784 17.776)" clip-rule="evenodd" fill-rule="evenodd" image-rendering="optimizeQuality" shape-rendering="geometricPrecision">
  <path d="m1397 2435c-222 0-448-110-677-325-370-342-762-1692-522-2023 43-60 145-141 342-36 381 215 1326 215 1710 0 155-84 250-49 303-3 182 153 115 651-1 1072-533 178-919 682-921 1274-77 27-155 41-234 41zm-4-522c-243 0-416-180-416-423 0-35 29-64 64-64s63 29 63 64c0 176 120 299 293 299s296-123 296-299c0-35 28-64 64-64 35 0 63 29 63 64-7 243-183 423-427 423zm-215-867c-35 0-63-29-63-64 0-176-124-300-296-300-173 0-293 124-293 300 0 35-28 64-63 64-36 0-64-29-64-64 0-247 176-423 416-423 243 0 420 180 420 423 7 35-21 64-57 64zm1146 0c-35 0-63-29-63-64 0-176-124-300-296-300-173 0-293 124-293 300 0 35-28 64-64 64-35 0-56-29-56-60 0-247 176-423 416-423 243 0 420 179 420 423 0 31-29 60-64 60z"/>
  <path d="m2980 3630c-252 0-487-76-683-207 314-252 495-622 495-1024s-182-773-493-1024c195-130 429-206 681-206 250 0 483 75 677 204-313 245-496 625-496 1026s183 780 494 1028c-194 128-426 203-675 203zm786-2177c271 226 444 566 444 946 0 382-174 723-447 949l-1-1c-301-230-474-572-474-948 0-368 181-722 474-943 1-1 2-2 4-3zm-1577 1888c-268-226-440-563-440-942 0-376 171-715 440-941l2 1c300 226 469 568 469 940 0 373-172 715-469 940z"/>
  <path d="m1228 4335c-85 0-180-18-286-56-300-117-835-787-775-1044 10-42 49-134 208-116 257 28 772-187 934-392 98-127 194-88 229-67 226 134 324 991 197 1287-120 261-285 388-507 388zm-43-303c-109 0-208-64-253-173-15-32 0-67 31-81 32-14 67 0 81 32 39 88 120 123 208 88 67-32 120-106 81-208-14-32 4-67 36-81 31-14 67 3 81 35 60 148 0 303-148 367-43 14-81 21-117 21zm-638-289c-24 0-46-14-56-36-32-70-35-148-7-215s81-120 155-151c67-32 144-32 211-4s124 85 152 159c14 32-3 67-35 81s-67-4-81-35c-18-43-46-74-85-92-35-14-77-14-116 4-43 17-74 45-88 84-14 35-14 78 7 120 14 32 0 67-32 81-7 4-14 4-25 4zm642-265c-25 0-46-14-57-39-63-151 0-306 152-366 148-60 300 3 363 151 14 32 0 67-32 81-31 15-66 0-81-31-42-102-134-117-204-88-85 35-120 119-85 208 14 31-3 67-35 81-7 0-14 3-21 3z"/>
 </g>
</svg>
