<svg clip-rule="evenodd" fill-rule="evenodd" height="512" image-rendering="optimizeQuality" shape-rendering="geometricPrecision" text-rendering="geometricPrecision" viewBox="0 0 850 850" width="512" xmlns="http://www.w3.org/2000/svg" xmlns:xodm="http://www.corel.com/coreldraw/odm/2003"><g id="Layer_x0020_1"><circle cx="425" cy="425" fill="#ce394f" r="425" stroke="#fff" stroke-miterlimit="2.613" stroke-width="2.08"/><g id="_1403849071536" fill="#fefefe"><path d="m584.76 309.33c-29.8 0-54.04-24.25-54.04-54.05s24.24-54.04 54.04-54.04 54.04 24.24 54.04 54.04-24.24 54.05-54.04 54.05z"/><path d="m408.4 667.32h-53.86v-110.36c0-11.75-9.56-21.31-21.31-21.31h-41.42-41.42c-11.76 0-21.32 9.56-21.32 21.31v110.36h-53.85c-3.43 0-6.22-2.78-6.22-6.22v-449.73c0-2.05 1.01-3.98 2.71-5.14l33.18-22.66c1.03-.71 2.26-1.08 3.51-1.08h166.82c1.26 0 2.48.37 3.51 1.08l33.18 22.66c1.69 1.16 2.71 3.09 2.71 5.14v449.73c0 3.43-2.79 6.22-6.22 6.22zm-66.3 0h-44.07v-119.23h35.2c4.9 0 8.87 3.98 8.87 8.87zm-56.51-119.23v119.23h-44.07v-110.36c0-4.89 3.98-8.87 8.87-8.87zm86.02-49.4h-49.05c-3.44 0-6.22-2.78-6.22-6.22v-49.05c0-3.43 2.78-6.22 6.22-6.22h49.05c3.43 0 6.22 2.79 6.22 6.22v49.05c0 3.44-2.79 6.22-6.22 6.22zm-42.83-12.44h36.61v-36.61h-36.61zm-67.72 12.44h-49.05c-3.44 0-6.22-2.78-6.22-6.22v-49.05c0-3.43 2.78-6.22 6.22-6.22h49.05c3.44 0 6.22 2.79 6.22 6.22v49.05c0 3.44-2.78 6.22-6.22 6.22zm-42.83-12.44h36.61v-36.61h-36.61zm153.38-92.45h-49.05c-3.44 0-6.22-2.79-6.22-6.22v-49.05c0-3.44 2.78-6.23 6.22-6.23h49.05c3.43 0 6.22 2.79 6.22 6.23v49.05c0 3.43-2.79 6.22-6.22 6.22zm-42.83-12.44h36.61v-36.61h-36.61zm-67.72 12.44h-49.05c-3.44 0-6.22-2.79-6.22-6.22v-49.05c0-3.44 2.78-6.23 6.22-6.23h49.05c3.44 0 6.22 2.79 6.22 6.23v49.05c0 3.43-2.78 6.22-6.22 6.22zm-42.83-12.44h36.61v-36.61h-36.61zm153.38-92.46h-49.05c-3.44 0-6.22-2.78-6.22-6.21v-49.06c0-3.43 2.78-6.22 6.22-6.22h49.05c3.43 0 6.22 2.79 6.22 6.22v49.06c0 3.43-2.79 6.21-6.22 6.21zm-42.83-12.44h36.61v-36.61h-36.61zm-67.72 12.44h-49.05c-3.44 0-6.22-2.78-6.22-6.21v-49.06c0-3.43 2.78-6.22 6.22-6.22h49.05c3.44 0 6.22 2.79 6.22 6.22v49.06c0 3.43-2.78 6.21-6.22 6.21zm-42.83-12.44h36.61v-36.61h-36.61z"/><path d="m488.52 380.04v161.06h28.61v-87.51c0-3.71 3.01-6.72 6.72-6.72 3.72 0 6.73 3.01 6.73 6.72v94.24 119.68h47.45v-119.68c0-3.72 3.02-6.73 6.73-6.73 3.72 0 6.73 3.01 6.73 6.73v119.68h47.45v-119.55c0-.04 0-.09 0-.13v-94.24c0-3.71 3.01-6.72 6.73-6.72 3.71 0 6.72 3.01 6.72 6.72v87.51h28.61v-161.06c0-26.7-21.73-48.43-48.43-48.43h-95.62c-26.71 0-48.43 21.73-48.43 48.43z"/></g></g></svg>