<svg width="500" height="500" version="1.1" viewBox="0 0 132.29 132.29" xmlns="http://www.w3.org/2000/svg">
 <circle cx="66.146" cy="66.146" r="66.146" fill="#62b9b8" stroke-miterlimit="10" stroke-width="0"/>
 <g transform="matrix(1.4307 0 0 1.4307 20.362 20.362)">
  <path d="m8.094 43.764a13.857 13.857 0 0 1 10.457 4.359 16.58 16.58 0 0 1 2.158 2.838 7.838 7.838 0 0 0 2.161 2.359 10.874 10.874 0 0 0 6.47 1.764c8.4 0 18.564-5.761 18.666-5.819a24.982 24.982 0 0 1 3.7-1.647 22.054 22.054 0 0 1 7.442-1.423q0.485 0 0.973 0.029a13.345 13.345 0 0 1 2.859 0.469c-0.213-3.722-4.218-6.693-7.98-6.693a7 7 0 0 0-7 7v0.408a6.992 6.992 0 0 0-12.835 2.092h-1.844a6.974 6.974 0 0 0-8.642 0h-1.844a6.99 6.99 0 0 0-6.835-8.5v-3a7 7 0 0 0-7-7c-3.866 0-8 3.134-8 7v7.037a25.846 25.846 0 0 1 2.561-0.737 20.559 20.559 0 0 1 4.533-0.536z"/>
  <path d="m16 32.355v-13.355l-10-9v19.5a9.873 9.873 0 0 1 3-0.5 8.983 8.983 0 0 1 7 3.355zm-6-10.355a1 1 0 0 1 2 0v4a1 1 0 0 1-2 0z"/>
  <path d="m29 46a8.89 8.89 0 0 1 4.769 1.371 9.066 9.066 0 0 1 7.231-5.296v-31.075l-8-5.333v-4.667a1 1 0 0 0-2 0v4.667l-8 5.333-0.043 31.332a8.937 8.937 0 0 1 1.985 4.636 8.89 8.89 0 0 1 4.058-0.968zm2-31a1 1 0 0 1 2 0v4a1 1 0 0 1-2 0zm0 8a1 1 0 0 1 2 0v4a1 1 0 0 1-2 0zm0 8a1 1 0 0 1 2 0v4a1 1 0 0 1-2 0zm0 8a1 1 0 0 1 2 0v4a1 1 0 0 1-2 0z"/>
  <path d="m60 48.22a19.608 19.608 0 0 0-7.62 1.28 23.024 23.024 0 0 0-3.38 1.5 55.226 55.226 0 0 1-5 2.441v1.559a1 1 0 0 1-2 0v-0.736c-6.122 2.388-14.859 4.593-20.29 0.686a9.787 9.787 0 0 1-2.71-2.95 14.493 14.493 0 0 0-1.9-2.5c-3.9-4.11-9.01-4.18-13.1-3.25a25.171 25.171 0 0 0-4 1.28v16.47h9a1 1 0 0 1-1-1v-3.244a1 1 0 0 1 2 0v3.244a1 1 0 0 1-1 1h20a1 1 0 0 1-1-1v-4a1 1 0 0 1 2 0v4a1 1 0 0 1-1 1h14a1 1 0 0 1-1-1v-4a1 1 0 0 1 2 0v4a1 1 0 0 1-1 1h12a1 1 0 0 1-1-1v-4a1 1 0 0 1 2 0v4a1 1 0 0 1-1 1h9v-14.83a10.935 10.935 0 0 0-4-0.95zm-50 5.78a1 1 0 0 1-2 0v-3a1 1 0 0 1 2 0zm46-1a1 1 0 0 1-2 0v-3a1 1 0 0 1 2 0z"/>
  <path d="m55 38a9.873 9.873 0 0 1 3 0.5v-28.42l-10 6v25.289a8.976 8.976 0 0 1 7-3.369zm-3-17a1 1 0 0 1 2 0v4a1 1 0 0 1-2 0zm0 8.979a1 1 0 1 1 2 0v4a1 1 0 0 1-2 0z"/>
 </g>
</svg>
