<svg width="500" height="500" version="1.1" viewBox="0 0 132.29 132.29" xmlns="http://www.w3.org/2000/svg">
 <circle cx="66.146" cy="66.146" r="66.146" fill="#b96962" stroke-miterlimit="10" stroke-width="0"/>
 <path d="m59.422 65.585a6.6703 6.6703 0 1 1-6.6699-6.6699 6.6778 6.6778 0 0 1 6.6699 6.6699zm50.137 30.836c-8.5814 0-10.334-5.0604-12.971-12.727-2.2917-6.6021-5.597-17.841-22.817-20.043v3.0789c11.571 1.5221 16.179 7.0623 19.921 17.97 2.6368 7.5905 5.1061 14.77 15.867 14.77 1.0386 0 1.0653 1.57 0 1.57-11.874 0-14.785-8.4136-17.361-15.897-2.3948-6.9244-5.2424-15.346-18.428-16.812 0 42.511 0.16736 40.067-0.2591 41.169h2.4692a1.5287 1.5287 0 0 0 1.5242-1.5244v-11.66c0-5.6707 8.6118-5.6853 8.6118 0v11.66a1.5286 1.5286 0 0 0 1.5242 1.5244h21.918a1.5287 1.5287 0 0 0 1.5241-1.5244v-4.2068c3.7693-1.6093 2.6822-7.3466-1.5241-7.3466zm-77.841-10.883h-2.3015a1.5189 1.5189 0 0 0-1.5242 1.5242v5.4414h-2.9722a1.5287 1.5287 0 0 0-1.5242 1.5243v5.4414h-2.9722a1.5287 1.5287 0 0 0-1.5242 1.5242v6.9808a1.5287 1.5287 0 0 0 1.5242 1.5244h11.569c-0.44897-1.1601-0.27437-0.60553-0.27437-23.961zm39.016 22.43a1.5243 1.5243 0 0 1-1.5242 1.5242h-9.085a1.5243 1.5243 0 0 1-1.5242-1.5242v-10.428c0-7.7308-11.698-7.7287-11.698 0v10.428a1.5243 1.5243 0 0 1-1.5242 1.5242h-9.0857a1.5243 1.5243 0 0 1-1.5242-1.5242c0-36.945 0.0061-16.554 0.0061-65.57h-6.7992a1.5259 1.5259 0 0 1-0.91101-2.7462l20.172-15.044a9.2849 9.2849 0 0 1 11.031 0l20.172 15.044a1.5259 1.5259 0 0 1-0.91096 2.7463h-6.7942zm-3.0484-65.57h-3.6855v7.621h3.6855zm-23.129 0v7.621h16.395v-7.621zm-6.7346 0v7.621h3.6862v-7.621zm24.648 23.187a9.7187 9.7187 0 1 0-9.7183 9.719 9.7295 9.7295 0 0 0 9.7183-9.719z" stroke-width=".18898"/>
</svg>
