<?xml version="1.0" encoding="UTF-8" standalone="no"?>
<!-- Created with Inkscape (http://www.inkscape.org/) -->

<svg
   width="500"
   height="500"
   viewBox="0 0 132.29166 132.29167"
   version="1.1"
   id="svg5"
   inkscape:version="1.1.2 (b8e25be833, 2022-02-05)"
   sodipodi:docname="base_icon.svg"
   xmlns:inkscape="http://www.inkscape.org/namespaces/inkscape"
   xmlns:sodipodi="http://sodipodi.sourceforge.net/DTD/sodipodi-0.dtd"
   xmlns="http://www.w3.org/2000/svg"
   xmlns:svg="http://www.w3.org/2000/svg">
  <sodipodi:namedview
     id="namedview7"
     pagecolor="#ffffff"
     bordercolor="#999999"
     borderopacity="1"
     inkscape:pageshadow="0"
     inkscape:pageopacity="0"
     inkscape:pagecheckerboard="0"
     inkscape:document-units="mm"
     showgrid="false"
     inkscape:zoom="0.96102398"
     inkscape:cx="171.69187"
     inkscape:cy="299.16007"
     inkscape:window-width="1920"
     inkscape:window-height="1001"
     inkscape:window-x="-9"
     inkscape:window-y="-9"
     inkscape:window-maximized="1"
     inkscape:current-layer="layer1"
     units="px" />
  <defs
     id="defs2" />
  <g
     inkscape:label="Calque 1"
     inkscape:groupmode="layer"
     id="layer1">
    <g
       id="g1837">
      <circle
         style="fill:#65b962;fill-opacity:1;stroke:#682138;stroke-width:0;stroke-miterlimit:10;stroke-dasharray:none;stroke-dashoffset:0"
         id="path854"
         cx="66.145836"
         cy="66.145836"
         r="66.145836" />
      <g
         id="g1697"
         transform="matrix(3.3453093,0,0,3.3453093,14.67658,14.675465)">
        <g
           id="g1640">
	<g
   id="g1638">
		<path
   d="M 9.743,22.4 C 9.266,22.199 8.068,18.65 7.936,18.242 8.317,18.471 9.223,18.833 9.665,18.644 9.138,18.363 7.403,14.649 7.24,14.123 c 0.324,0.322 1.073,0.081 1.073,0.081 0,0 -1.618,-1.778 -2.436,-5.428 -0.599,3.185 -2.284,5.606 -2.284,5.606 0,0 0.882,0.179 1.148,-0.286 -0.056,0.513 -1.955,4.372 -2.414,4.668 0.413,0.16 1.534,-0.362 1.777,-0.43 -0.066,0.42 -2.092,4.063 -2.092,4.063 l 3.435,-0.885 -0.43,9.255 h 1.718 l -0.43,-9.235 z"
   id="path1632" />

		<path
   d="m 28.759,20.259 c -1.074,-0.453 -3.77,-6.365 -4.066,-7.281 0.857,0.515 2.896,1.331 3.893,0.907 -1.189,-0.634 -5.09,-4.828 -5.459,-6.012 0.73,0.726 2.416,0.184 2.416,0.184 0,0 -3.644,0.159 -5.483,-8.057 -1.35,7.169 -5.14,8.458 -5.14,8.458 0,0 1.984,0.403 2.583,-0.646 -0.125,1.152 -4.4,5.679 -5.435,6.343 0.931,0.363 3.454,-0.815 4,-0.966 -0.147,0.943 -4.709,7.068 -4.71,7.068 L 19.09,18.264 18.125,30.77 h 3.867 L 21.025,18.305 Z"
   id="path1634" />

		<path
   d="m 15.963,23.527 c -0.068,-0.193 0.068,-0.377 -0.023,-0.548 -0.091,-0.172 -0.387,-0.694 -0.794,-0.694 -0.071,-0.342 -0.413,-0.695 -0.652,-1.061 -0.125,0.16 -0.193,0.57 -0.193,0.57 0,0 -0.638,-0.649 -0.889,-0.719 -0.285,1.162 0.854,1.617 0.854,1.617 0,0 -0.062,0.758 -0.455,1.071 -0.393,0.313 -0.939,0.198 -1.834,-0.034 -0.894,-0.234 -1.025,-0.595 -1.891,-0.492 -0.866,0.102 -1.478,0.47 -1.356,1.518 0.123,1.048 0.22,0.875 0.501,1.368 0.282,0.491 -0.099,1.559 -0.11,1.735 -0.012,0.178 0.854,1.469 0.888,1.795 0.034,0.323 -0.042,0.742 0.137,0.811 0.18,0.068 0.577,0.113 0.658,0.052 0.116,-0.088 -0.939,-1.485 -0.837,-2.537 0.179,0.138 0.686,1.201 0.82,1.538 0.135,0.336 0.06,0.77 0.06,0.77 0,0 0.701,0.15 0.736,0.049 0.036,-0.104 -0.855,-1.535 -0.847,-1.928 0.009,-0.395 0.299,-1.563 0.457,-1.569 0.157,-0.005 0.62,0.313 1.284,0.017 0.032,0.207 0.015,0.996 0.071,1.244 0.222,1.001 0.149,2.264 0.153,2.333 0.004,0.069 0.129,0.009 0.163,0.077 0.034,0.068 0,0.188 0.068,0.239 0.068,0.051 0.615,0 0.7,0 0.086,0 -0.274,-0.382 -0.393,-0.513 -0.118,-0.129 -0.137,-1.658 -0.082,-2.094 0.029,-0.229 0.026,-1.044 0.119,-1.107 0.117,0.459 0.066,0.699 0.091,0.895 0.026,0.198 0.12,0.415 0.137,0.624 0.067,0.837 0,1.632 0.042,1.657 0.043,0.025 0.111,0 0.146,0.076 0.034,0.076 0.026,0.238 0.026,0.238 0,0 0.717,0.12 0.666,-0.009 -0.051,-0.128 -0.258,-0.401 -0.351,-0.546 -0.091,-0.145 -0.233,-1.979 -0.075,-2.583 0.158,-0.603 0.56,-0.935 0.594,-1.743 0.307,-0.363 0.358,-1.391 0.581,-1.424 0.223,-0.033 0.555,0.225 0.74,0.318 0.186,0.096 0.647,-0.129 0.548,-0.307 -0.102,-0.177 -0.389,-0.51 -0.458,-0.704 z"
   id="path1636" />

	</g>

</g>
        <g
           id="g1642">
</g>
        <g
           id="g1644">
</g>
        <g
           id="g1646">
</g>
        <g
           id="g1648">
</g>
        <g
           id="g1650">
</g>
        <g
           id="g1652">
</g>
        <g
           id="g1654">
</g>
        <g
           id="g1656">
</g>
        <g
           id="g1658">
</g>
        <g
           id="g1660">
</g>
        <g
           id="g1662">
</g>
        <g
           id="g1664">
</g>
        <g
           id="g1666">
</g>
        <g
           id="g1668">
</g>
        <g
           id="g1670">
</g>
      </g>
    </g>
  </g>
</svg>
