<svg width="500" height="500" version="1.1" viewBox="0 0 132.29 132.29" xmlns="http://www.w3.org/2000/svg">
 <circle cx="66.146" cy="66.146" r="66.146" fill="#b99f62" stroke-miterlimit="10" stroke-width="0"/>
 <path d="m63.579 20.435-5.4989 35.376c-1.0169-0.54029-2.1613-0.82644-3.3374-0.82644-1.3031 0-2.4791 0.31777-3.6233 0.60391-1.1762 0.28616-2.2568 0.57211-3.4328 0.57211-1.5574 0-3.0832-0.47686-4.7677-1.5256-3.5917-2.1613-4.1956-4.4181-4.7995-6.8019-0.57209-2.1614-1.3349-5.1491-4.7677-6.5476-0.12708-0.0317-0.25435-0.09541-0.38139-0.09541l1.3031-20.755zm12.555 49.807-8.1369-3.4644c1.3667 5.0855 4.1954 9.7261 8.2321 13.286l0.731-8.4548v-0.12707c0-0.2225-0.09528-0.47683-0.19071-0.69934-0.1589-0.22236-0.34959-0.41306-0.63555-0.54031zm2.0341-23.68c0.1907-0.22231 0.28616-0.47666 0.31795-0.79464l0.76279-8.8679c-4.2592 2.8289-7.7873 6.8972-9.9804 11.951l8.1687-1.8754c0.28613-0.06343 0.54027-0.22254 0.73098-0.41321zm5.8167 16.782 0.66752-7.6284c0.03176-0.41319 0.1589-0.7946 0.28596-1.176l-5.6576-4.9266c-0.34956 0.1907-0.73118 0.38141-1.1126 0.47687l-10.139 2.3202c-0.98532 3.5281-1.2078 7.1515-0.76279 10.616l10.108 4.2908c0.38141 0.15888 0.69939 0.38141 1.0171 0.63573l5.6578-3.401c-0.06357-0.3814-0.12732-0.79462-0.06357-1.2078zm12.428 14.303-1.4621-6.4206c-0.41323-0.06343-0.79463-0.1589-1.176-0.3178l-7.0563-2.9877c-0.38139-0.1589-0.69916-0.41324-1.0171-0.63574l-5.6576 3.401c0.06352 0.38139 0.12706 0.79463 0.06352 1.2078l-0.92186 10.457c1.3985 0.9535 2.8925 1.78 4.5136 2.4475 1.6209 0.69916 3.2419 1.2078 4.8948 1.5574l6.8973-7.9462c0.28619-0.31778 0.60395-0.54027 0.92188-0.76281zm-8.2641-25.936 7.4695-1.7481c0.38142-0.06338 0.79458-0.09518 1.176-0.06338l3.1467-7.4059c-0.28621-0.25432-0.54046-0.57208-0.76278-0.95349l-5.4989-9.1859c-3.8458 0.0952-7.6282 0.98533-11.061 2.6382l-0.95351 11.061c-0.03166 0.41319-0.15887 0.79459-0.31795 1.176l5.6896 4.9266c0.34961-0.19072 0.69917-0.3496 1.1124-0.44507zm8.4864 1.3351c-0.09512 0-0.19066 0-0.3177 0.03173l-7.4694 1.7163c-0.28616 0.0636-0.5405 0.22251-0.69938 0.41322v0.03171c-0.19068 0.19068-0.31776 0.44485-0.34956 0.7628l-0.66757 7.6282v0.12725c0 0.22251 0.09546 0.47666 0.19072 0.69917 0.15888 0.22253 0.34976 0.41322 0.63574 0.54049l7.0563 2.9878c0.54033 0.22232 1.176 0.09519 1.5574-0.34979l5.0219-5.7848c0.38159-0.44485 0.44504-1.0806 0.12736-1.5892l-3.9414-6.5792c-0.25428-0.4132-0.66756-0.63572-1.1444-0.63572zm2.2568 26.985c-0.09513 0-0.19079 0-0.28618 0.03169-0.28587 0.0634-0.50839 0.22254-0.69911 0.44502l-5.5941 6.3886c5.3399 0.44504 10.648-0.76278 15.225-3.2737l-8.1053-3.4646c-0.15886-0.09519-0.34956-0.12706-0.54026-0.12706zm3.6555-39.572c0.25401 0.12707 0.54026 0.15888 0.82604 0.06366l8.4231-1.9388c-1.9705-1.6529-4.2274-3.0514-6.7065-4.1004-2.5112-1.0489-5.054-1.7163-7.6285-2.0024l4.4499 7.4377c0.15882 0.25434 0.38137 0.44506 0.63589 0.54028zm9.567 23.108-7.5012-0.63575c-0.15883 0.34959-0.34964 0.69918-0.63566 1.0171l-5.0219 5.7848c-0.28619 0.31776-0.60391 0.54029-0.92184 0.76282l1.4938 6.4206c0.38154 0.0634 0.76295 0.12708 1.1442 0.31776l10.108 4.2909c2.8291-2.0977 5.2763-4.7677 7.1199-7.9462l-5.3399-8.8997c-0.22254-0.34955-0.34972-0.73096-0.44505-1.1124zm-9.0586-19.802c-0.0637 0-0.12723-0.03157-0.15908-0.03157l-3.1466 7.4057c0.28596 0.25434 0.54044 0.57209 0.76296 0.92188l3.9412 6.5795c0.22256 0.34958 0.34968 0.73101 0.44509 1.1124l7.4691 0.66754c0.19091-0.38142 0.38141-0.73118 0.63597-1.0489l7.3102-8.3594c-1.2077-3.6235-3.1466-6.9609-5.7529-9.7897l-10.489 2.4157c-0.34961 0.06356-0.66757 0.12705-1.017 0.12705zm18.212 10.998-5.8479 6.7065c-0.19086 0.22253-0.31825 0.47684-0.31825 0.76299-0.0314 0.28594 0.0324 0.57208 0.15934 0.79462l4.3225 7.215c2.1294-5.0855 2.6382-10.425 1.6843-15.479zm-54.193 52.127c1.0489 0.31771 2.0661 0.54024 2.9878 0.73111-0.92168-0.19087-1.9388-0.44511-2.9878-0.7628zm10.267-1.1443c-5.3082 0-12.047-2.1932-18.944-6.3569l-47.836-28.988c0.22251 2.5746 1.7163 4.9584 4.0049 6.357l-0.79462 2.5111c-0.31796 0.98533 0.09525 2.0659 0.98533 2.6064 0.85805 0.50848 2.0023 0.38139 2.7334-0.34977l1.8752-1.8752 2.9559 1.8118-0.79461 2.5109c-0.28597 0.98532 0.09541 2.0661 0.98549 2.6063 0.8899 0.54026 2.0341 0.38144 2.7653-0.34957l1.8434-1.8436 19.166 11.57-0.79462 2.5109c-0.31797 0.9852 0.09519 2.0662 0.98532 2.6064 0.88988 0.54034 2.0343 0.38154 2.7652-0.34963l1.8435-1.8434 2.9559 1.7797-0.79462 2.5111c-0.28613 0.98529 0.09524 2.0659 0.98534 2.6062 0.88986 0.54033 2.0343 0.38157 2.7652-0.34936l1.9706-1.9707c1.0171 0.5401 1.9706 1.017 2.8923 1.4301l-0.34961 2.384c-0.15887 1.017 0.41322 2.0342 1.3667 2.4156 0.95368 0.41316 2.0661 0.0949 2.67-0.73114l1.5256-2.0976c1.0808 0.31769 2.0979 0.57194 3.0514 0.7628l0.41319 2.3838c0.19071 1.0171 1.0488 1.7799 2.0977 1.8435 1.0171 0.0944 1.9707-0.57226 2.2886-1.5575l0.7628-2.4793c2.5427-0.31769 4.3227-1.3349 5.5623-2.5426-1.176 0.31772-2.5111 0.4767-3.9094 0.4767zm-42.496-29.178c-0.47667 0.06353-0.9217 0.15908-1.3667 0.15908-1.621 0-3.2419-0.44506-4.6723-1.3033-4.1003-2.5109-5.4987-7.7554-3.2421-11.983-1.621-1.3985-3.3055-2.7334-5.1173-3.8458l-3.8142-2.3204c-1.5892 2.225-3.1148 4.4818-4.4181 6.6749-0.60392 0.98531-1.0488 2.0024-1.3349 2.9878l26.477 15.988-2.3838-6.039c-0.03169-0.09541-0.09539-0.22252-0.12724-0.31796zm4.3547-10.298c-0.38159-1.4938-1.3351-2.7971-2.67-3.5917-0.92167-0.57211-1.9706-0.85806-3.0196-0.85806-0.47664 0-0.95353 0.06345-1.3985 0.15888-1.5256 0.38141-2.8289 1.3349-3.6235 2.6698-1.6845 2.7652-0.79462 6.3888 1.9708 8.0416 1.3349 0.82643 2.9242 1.0489 4.4498 0.69916 1.494-0.3814 2.7971-1.3349 3.5917-2.6698 0.82641-1.3349 1.0489-2.9241 0.69935-4.4499zm31.276 18.912-6.5794 1.3349c-0.09519 0.03171-0.22253 0.03171-0.31775 0.03171-0.73119 0-1.3985-0.50847-1.5574-1.2713-0.15907-0.85824 0.3814-1.7165 1.2395-1.8754l4.7677-0.98531c-0.44484-0.54025-0.88985-1.1442-1.3031-1.7481l-6.2933 1.2713c-0.12725 0.03167-0.22251 0.03167-0.31795 0.03167-0.76278 0-1.3985-0.50846-1.5574-1.2713-0.19069-0.85825 0.38141-1.6847 1.2397-1.8754l5.0537-1.0171c-0.4132-0.66756-0.79463-1.3667-1.176-2.1295l-6.039 1.2397c-0.0954 0-0.19071 0.03154-0.31795 0.03154-0.73102 0-1.3985-0.54029-1.5574-1.2713-0.15888-0.89006 0.3814-1.7165 1.2397-1.8754l5.308-1.0805c-0.98532-2.3203-1.8752-4.9901-2.6064-7.9778-0.66735-2.67-0.88986-4.7677-2.9877-6.0392-3.6233-2.1932-7.6282 3.401-15.447-1.3349-8.264-4.9902-4.6088-11.315-9.0904-13.127-3.0196-1.2078-8.5501 3.9731-13.604 10.489l3.5282 2.1297c1.9388 1.176 3.7188 2.5746 5.4033 4.1001 1.0807-0.9853 2.3839-1.7163 3.846-2.0661 2.3202-0.57209 4.7677-0.19072 6.8338 1.0489 2.0659 1.2396 3.5281 3.2421 4.1001 5.5623 0.57212 2.352 0.19073 4.7995-1.0489 6.8654-0.82646 1.3669-2.0025 2.4157-3.3692 3.1785 0.03172 0.06353 0.03172 0.09539 0.06366 0.15908l3.8776 9.9168 16.496 9.9804 20.819-3.0513c-2.4157-2.0343-5.5307-4.1957-8.6456-7.3742zm11.538 10.171-19.325 2.8288c9.599 5.1173 16.433 5.0856 19.516 3.3373 0.89007-0.50848 1.3667-0.85822 1.4304-0.88993h0.03167v-0.12711c0.12708-2.066-0.50868-3.6552-1.6529-5.1491z" stroke-width="1.737"/>
</svg>
