<?xml version="1.0" encoding="UTF-8" standalone="no"?>
<!-- Created with Inkscape (http://www.inkscape.org/) -->

<svg
   version="1.1"
   id="svg2"
   xml:space="preserve"
   width="189.33333"
   height="189.33333"
   viewBox="0 0 189.33333 189.33333"
   sodipodi:docname="P-10-arrêt-750x750(4).eps"
   xmlns:inkscape="http://www.inkscape.org/namespaces/inkscape"
   xmlns:sodipodi="http://sodipodi.sourceforge.net/DTD/sodipodi-0.dtd"
   xmlns="http://www.w3.org/2000/svg"
   xmlns:svg="http://www.w3.org/2000/svg"><defs
     id="defs6" /><sodipodi:namedview
     id="namedview4"
     pagecolor="#ffffff"
     bordercolor="#666666"
     borderopacity="1.0"
     inkscape:pageshadow="2"
     inkscape:pageopacity="0.0"
     inkscape:pagecheckerboard="0" /><g
     id="g8"
     inkscape:groupmode="layer"
     inkscape:label="ink_ext_XXXXXX"
     transform="matrix(1.3333333,0,0,-1.3333333,0,189.33333)"><g
       id="g10"
       transform="scale(0.1)"><path
         d="M 416.363,1.33984 H 1003.64 L 1418.66,416.363 v 587.277 l -415.02,415.02 H 416.363 L 1.33984,1003.64 V 416.363 L 416.363,1.33984"
         style="fill:#ffffff;fill-opacity:1;fill-rule:evenodd;stroke:none"
         id="path12" /><path
         d="M 416.363,1.33984 H 1003.64 L 1418.66,416.363 v 587.277 l -415.02,415.02 H 416.363 L 1.33984,1003.64 V 416.363 Z"
         style="fill:none;stroke:#231f20;stroke-width:2.16;stroke-linecap:butt;stroke-linejoin:miter;stroke-miterlimit:22.9256;stroke-dasharray:none;stroke-opacity:1"
         id="path14" /><path
         d="M 430.418,35.4258 H 989.516 L 1384.61,430.52 V 989.621 L 989.516,1384.71 H 430.418 L 35.3203,989.621 V 430.52 L 430.418,35.4258"
         style="fill:#ed2e30;fill-opacity:1;fill-rule:evenodd;stroke:none"
         id="path16" /><path
         d="M 973.512,963.402 940.75,915.223 h 49.773 l 17.007,23.668 16.65,-22.95 h 47.22 l -30.6,47.461 h -67.288"
         style="fill:#ffffff;fill-opacity:1;fill-rule:evenodd;stroke:none"
         id="path18" /><path
         d="M 99.3594,532.895 H 150.57 l 24.446,99.543 h 70.504 l 24.988,-99.543 h 51.031 L 234.535,887.227 H 184.738 Z M 417.988,748.66 v 88.586 h 60.239 v 0 c 18.543,0 33.484,-11.758 33.484,-44.699 0,-27.063 -11.551,-39.692 -30.121,-43.887 v 0 z M 368.039,532.895 h 50.852 v 165.992 h 44.097 L 510.66,532.895 h 52.082 L 512.43,707.734 v 0 c 30.898,14.942 47.883,38.766 47.883,87 0,69.274 -48.665,89.403 -70.204,91.414 v 0 H 368.039 Z M 694.168,748.66 v 88.586 h 60.211 v 0 c 18.539,0 33.48,-11.758 33.48,-44.699 0,-27.063 -11.546,-39.692 -30.121,-43.887 v 0 z M 644.215,532.895 h 50.851 v 165.992 h 44.075 l 47.668,-165.992 h 52.082 l -50.309,174.839 v 0 c 30.898,14.942 47.879,38.766 47.879,87 0,69.274 -48.66,89.403 -70.203,91.414 v 0 H 644.215 Z m 276.156,0 h 176.639 v 49.953 H 970.32 v 115.859 h 74.76 v 49.441 H 970.5 v 88.559 h 121.53 v 50.16 H 920.371 Z m 286.739,0 h 50.13 v 309.484 h 63.45 v 44.848 h -177 v -44.848 h 63.42 z m -1020.239,149.703 22.859,94.769 23.219,-94.769 z"
         style="fill:#ffffff;fill-opacity:1;fill-rule:evenodd;stroke:none"
         id="path20" /></g></g></svg>
