<?xml version="1.0" encoding="UTF-8" standalone="no"?>
<!-- Created with Inkscape (http://www.inkscape.org/) -->

<svg
   version="1.1"
   id="svg2"
   xml:space="preserve"
   width="189.33333"
   height="189.33333"
   viewBox="0 0 189.33333 189.33333"
   sodipodi:docname="P-10-P-1-arrêt-750x750(10).eps"
   xmlns:inkscape="http://www.inkscape.org/namespaces/inkscape"
   xmlns:sodipodi="http://sodipodi.sourceforge.net/DTD/sodipodi-0.dtd"
   xmlns="http://www.w3.org/2000/svg"
   xmlns:svg="http://www.w3.org/2000/svg"><defs
     id="defs6" /><sodipodi:namedview
     id="namedview4"
     pagecolor="#ffffff"
     bordercolor="#666666"
     borderopacity="1.0"
     inkscape:pageshadow="2"
     inkscape:pageopacity="0.0"
     inkscape:pagecheckerboard="0" /><g
     id="g8"
     inkscape:groupmode="layer"
     inkscape:label="ink_ext_XXXXXX"
     transform="matrix(1.3333333,0,0,-1.3333333,0,189.33333)"><g
       id="g10"
       transform="scale(0.1)"><path
         d="M 1.33984,95.8477 C 1.33984,43.6758 43.6758,1.33984 95.8516,1.33984 v 0 H 1324.15 v 0 c 52.17,0 94.51,42.33596 94.51,94.50786 v 0 1228.3023 0 c 0,52.18 -42.34,94.51 -94.51,94.51 v 0 H 95.8516 v 0 c -52.1758,0 -94.51176,-42.33 -94.51176,-94.51 v 0 V 95.8477"
         style="fill:#ffffff;fill-opacity:1;fill-rule:evenodd;stroke:none"
         id="path12" /><path
         d="M 1.33984,95.8477 C 1.33984,43.6758 43.6758,1.33984 95.8516,1.33984 v 0 H 1324.15 v 0 c 52.17,0 94.51,42.33596 94.51,94.50786 v 0 1228.3023 0 c 0,52.18 -42.34,94.51 -94.51,94.51 v 0 H 95.8516 v 0 c -52.1758,0 -94.51176,-42.33 -94.51176,-94.51 v 0 z"
         style="fill:none;stroke:#231f20;stroke-width:2.16;stroke-linecap:butt;stroke-linejoin:miter;stroke-miterlimit:22.9256;stroke-dasharray:none;stroke-opacity:1"
         id="path14" /><path
         d="m 20.2031,95.8633 c 0,-20.8711 7.3828,-38.6875 22.1563,-53.457 C 57.1289,27.6328 74.9453,20.25 95.8164,20.25 v 0 H 1324.12 v 0 c 20.86,0 38.69,7.3828 53.46,22.1563 14.76,14.7695 22.15,32.5859 22.15,53.457 v 0 1228.2967 0 c 0,20.87 -7.39,38.69 -22.15,53.47 -14.77,14.76 -32.6,22.15 -53.46,22.15 v 0 H 95.8164 v 0 c -20.8711,0 -38.6875,-7.39 -53.457,-22.15 -14.7735,-14.78 -22.1563,-32.6 -22.1563,-53.47 v 0 V 95.8633"
         style="fill:#ed2e30;fill-opacity:1;fill-rule:evenodd;stroke:none"
         id="path16" /><path
         d="M 1371.24,930.555 H 930.316 V 1371.48 H 489.398 V 930.555 H 48.4297 V 489.637 H 489.398 V 48.6641 H 930.316 V 489.637 h 440.924 v 440.918"
         style="fill:#ffffff;fill-opacity:1;fill-rule:evenodd;stroke:none"
         id="path18" /><path
         d="m 1290.46,635.414 v 149.164 l -105.42,105.41 H 1035.88 L 930.469,784.578 V 635.414 l 105.411,-105.41 h 149.16 l 105.42,105.41"
         style="fill:#ffffff;fill-opacity:1;fill-rule:evenodd;stroke:none"
         id="path20" /><path
         d="m 1280.86,639.391 v 141.211 l -99.79,99.785 H 1039.86 L 940.07,780.602 V 639.391 l 99.79,-99.789 h 141.21 l 99.79,99.789"
         style="fill:#ed2e30;fill-opacity:1;fill-rule:evenodd;stroke:none"
         id="path22" /><path
         d="m 1038.59,775.406 13.6,-9.25 v 14.051 l -6.69,4.801 6.48,4.695 v 13.332 l -13.39,-8.64 v -18.989"
         style="fill:#ffffff;fill-opacity:1;fill-rule:evenodd;stroke:none"
         id="path24" /><path
         d="m 1160.47,553.426 v 14.469 l -28.08,6.882 v 19.895 l 28.08,7.055 v 14.402 l -99.99,-24.543 v -14.063 z m -61.05,84.285 h -24.99 v 17.012 c 0,5.218 3.31,9.445 12.61,9.445 7.65,0 11.2,-3.273 12.38,-8.492 v 0 z m 61.05,-14.207 v 14.367 h -46.83 v 12.438 l 46.83,13.449 v 14.711 l -49.33,-14.207 v 0 c -4.23,8.722 -10.93,13.515 -24.55,13.515 -19.54,0 -25.23,-13.734 -25.8,-19.812 v 0 -34.461 z m -61.05,82.176 h -24.99 v 16.984 c 0,5.223 3.31,9.449 12.61,9.449 7.65,0 11.2,-3.269 12.38,-8.496 v 0 z m 61.05,-14.016 v 14.363 h -46.83 v 12.418 l 46.83,13.45 v 14.71 l -49.33,-14.203 v 0 c -4.23,8.715 -10.93,13.512 -24.55,13.512 -19.54,0 -25.23,-13.734 -25.8,-19.809 v 0 -34.441 z m 0,68.156 v 49.864 h -14.08 v -35.762 h -32.71 v 21.113 h -13.94 v -21.051 h -24.99 v 34.297 h -14.17 V 759.82 Z m 0,74.735 v 14.16 h -87.33 v 17.902 h -12.66 v -49.965 h 12.66 v 17.903 z m -42.24,-256.551 -26.74,6.437 26.74,6.567 z"
         style="fill:#ffffff;fill-opacity:1;fill-rule:evenodd;stroke:none"
         id="path26" /><path
         d="m 129.449,784.582 v -149.16 l 105.414,-105.41 h 149.16 l 105.415,105.41 v 149.16 L 384.023,889.996 H 234.863 L 129.449,784.582"
         style="fill:#ffffff;fill-opacity:1;fill-rule:evenodd;stroke:none"
         id="path28" /><path
         d="M 139.047,780.609 V 639.398 l 99.789,-99.789 h 141.215 l 99.789,99.789 v 141.211 l -99.789,99.786 H 238.836 l -99.789,-99.786"
         style="fill:#ed2e30;fill-opacity:1;fill-rule:evenodd;stroke:none"
         id="path30" /><path
         d="m 381.129,644.594 -13.602,9.246 v -14.047 l 6.68,-4.805 -6.477,-4.695 v -13.328 l 13.399,8.637 v 18.992"
         style="fill:#ffffff;fill-opacity:1;fill-rule:evenodd;stroke:none"
         id="path32" /><path
         d="m 259.434,866.57 v -14.465 l 28.082,-6.886 v -19.895 l -28.082,-7.051 v -14.406 l 99.988,24.543 v 14.063 z m 60.863,-84.285 h 24.988 v -17.008 c 0,-5.218 -3.308,-9.449 -12.617,-9.449 -7.637,0 -11.191,3.274 -12.371,8.496 v 0 z m -60.863,14.207 v -14.363 h 46.836 v -12.438 l -46.836,-13.449 v -14.715 l 49.332,14.207 v 0 c 4.226,-8.718 10.933,-13.515 24.547,-13.515 19.546,0 25.234,13.738 25.804,19.812 v 0 34.461 z m 60.863,-82.176 h 24.988 v -16.984 c 0,-5.223 -3.308,-9.449 -12.617,-9.449 -7.637,0 -11.191,3.273 -12.371,8.496 v 0 z m -60.863,14.02 v -14.367 h 46.836 v -12.414 l -46.836,-13.45 v -14.714 l 49.332,14.203 v 0 c 4.226,-8.715 10.933,-13.512 24.547,-13.512 19.546,0 25.234,13.738 25.804,19.813 v 0 34.441 z m 0,-67.969 v -49.863 h 14.082 v 35.766 h 32.711 v -21.114 h 13.941 v 21.051 h 24.992 v -34.301 h 14.164 v 48.461 z m 0,-74.926 v -14.16 h 87.328 v -17.902 h 12.66 v 49.965 h -12.66 v -17.903 z m 42.238,256.555 26.738,-6.441 -26.738,-6.567 z"
         style="fill:#ffffff;fill-opacity:1;fill-rule:evenodd;stroke:none"
         id="path34" /><path
         d="M 784.598,1290.4 H 635.438 L 530.027,1184.99 V 1035.82 L 635.438,930.41 h 149.16 l 105.414,105.41 v 149.17 L 784.598,1290.4"
         style="fill:#ffffff;fill-opacity:1;fill-rule:evenodd;stroke:none"
         id="path36" /><path
         d="M 780.563,1280.9 H 639.352 l -99.789,-99.78 V 1039.9 l 99.789,-99.787 h 141.211 l 99.785,99.787 v 141.22 l -99.785,99.78"
         style="fill:#ed2e30;fill-opacity:1;fill-rule:evenodd;stroke:none"
         id="path38" /><path
         d="m 644.547,1038.78 9.246,13.6 h -14.051 l -4.801,-6.68 -4.699,6.48 h -13.324 l 8.637,-13.4 h 18.992"
         style="fill:#ffffff;fill-opacity:1;fill-rule:evenodd;stroke:none"
         id="path40" /><path
         d="m 635.309,129.602 h 149.16 l 105.414,105.41 V 384.176 L 784.469,489.586 H 635.309 L 529.895,384.176 V 235.012 l 105.414,-105.41"
         style="fill:#ffffff;fill-opacity:1;fill-rule:evenodd;stroke:none"
         id="path42" /><path
         d="m 639.344,139.094 h 141.211 l 99.789,99.789 v 141.211 l -99.789,99.789 H 639.344 L 539.555,380.094 V 238.883 l 99.789,-99.789"
         style="fill:#ed2e30;fill-opacity:1;fill-rule:evenodd;stroke:none"
         id="path44" /><path
         d="m 775.363,381.219 -9.25,-13.598 h 14.047 l 4.805,6.68 4.695,-6.477 h 13.332 l -8.64,13.395 h -18.989"
         style="fill:#ffffff;fill-opacity:1;fill-rule:evenodd;stroke:none"
         id="path46" /><path
         d="m 866.5,1160.52 h -14.469 l -6.89,-28.08 H 825.25 l -7.051,28.08 h -14.41 l 24.551,-99.99 h 14.058 z m -84.305,-60.9 v -24.99 h -17.011 v 0 c -5.223,0 -9.446,3.31 -9.446,12.62 0,7.64 3.27,11.19 8.496,12.37 v 0 z m 14.102,60.9 h -14.371 v -46.84 h -12.434 l -13.449,46.84 h -14.711 l 14.199,-49.34 v 0 c -8.715,-4.22 -13.511,-10.93 -13.511,-24.54 0,-19.55 13.738,-25.23 19.812,-25.81 v 0 h 34.465 z m -82.192,-60.9 v -24.99 h -16.988 v 0 c -5.222,0 -9.449,3.31 -9.449,12.62 0,7.64 3.273,11.19 8.492,12.37 v 0 z m 14.098,60.9 H 713.84 v -46.84 h -12.414 l -13.453,46.84 h -14.711 l 14.207,-49.34 v 0 c -8.723,-4.22 -13.516,-10.93 -13.516,-24.54 0,-19.55 13.738,-25.23 19.809,-25.81 v 0 h 34.441 z m -68.066,0 h -49.864 v -14.08 h 35.762 v -32.71 h -21.109 v -13.94 h 21.047 v -25 h -34.297 v -14.16 h 48.461 z m -74.856,0 h -14.16 v -87.33 h -17.906 v -12.66 h 49.969 v 12.66 h -17.903 z m 256.508,-42.25 -6.441,-26.73 -6.563,26.73 z"
         style="fill:#ffffff;fill-opacity:1;fill-rule:evenodd;stroke:none"
         id="path48" /><path
         d="m 553.215,259.672 h 14.469 l 6.89,28.078 h 19.891 l 7.051,-28.078 h 14.41 l -24.551,99.988 h -14.059 z m 84.305,60.894 v 24.993 h 17.007 v 0 c 5.227,0 9.45,-3.313 9.45,-12.618 0,-7.64 -3.27,-11.195 -8.493,-12.375 v 0 z m -14.102,-60.894 h 14.371 v 46.832 h 12.43 l 13.453,-46.832 h 14.711 l -14.203,49.332 v 0 c 8.718,4.226 13.515,10.934 13.515,24.547 0,19.547 -13.738,25.234 -19.812,25.808 v 0 h -34.465 z m 82.191,60.894 v 24.993 h 16.989 v 0 c 5.222,0 9.449,-3.313 9.449,-12.618 0,-7.64 -3.274,-11.195 -8.496,-12.375 v 0 z m -14.097,-60.894 h 14.363 v 46.832 h 12.414 l 13.453,-46.832 h 14.707 l -14.199,49.332 v 0 c 8.715,4.226 13.508,10.934 13.508,24.547 0,19.547 -13.735,25.234 -19.809,25.808 v 0 h -34.437 z m 68.066,0 h 49.863 v 14.082 H 773.68 v 32.707 h 21.109 v 13.941 h -21.051 v 24.996 h 34.301 v 14.161 h -48.461 z m 74.856,0 h 14.164 V 347 H 866.5 v 12.66 H 816.531 V 347 h 17.903 z m -256.508,42.246 6.441,26.734 6.563,-26.734 z"
         style="fill:#ffffff;fill-opacity:1;fill-rule:evenodd;stroke:none"
         id="path50" /></g></g></svg>
