<?xml version="1.0" encoding="UTF-8" standalone="no"?>
<!-- Created with Inkscape (http://www.inkscape.org/) -->

<svg
   version="1.1"
   id="svg2"
   xml:space="preserve"
   width="189.33333"
   height="189.33333"
   viewBox="0 0 189.33333 189.33333"
   sodipodi:docname="P-10-P-2-arrêt-750x750(15).eps"
   xmlns:inkscape="http://www.inkscape.org/namespaces/inkscape"
   xmlns:sodipodi="http://sodipodi.sourceforge.net/DTD/sodipodi-0.dtd"
   xmlns="http://www.w3.org/2000/svg"
   xmlns:svg="http://www.w3.org/2000/svg"><defs
     id="defs6" /><sodipodi:namedview
     id="namedview4"
     pagecolor="#ffffff"
     bordercolor="#666666"
     borderopacity="1.0"
     inkscape:pageshadow="2"
     inkscape:pageopacity="0.0"
     inkscape:pagecheckerboard="0" /><g
     id="g8"
     inkscape:groupmode="layer"
     inkscape:label="ink_ext_XXXXXX"
     transform="matrix(1.3333333,0,0,-1.3333333,0,189.33333)"><g
       id="g10"
       transform="scale(0.1)"><path
         d="M 1.33984,95.8477 C 1.33984,43.6758 43.6758,1.33984 95.8477,1.33984 v 0 H 1324.15 v 0 c 52.17,0 94.51,42.33596 94.51,94.50786 v 0 1228.3023 0 c 0,52.18 -42.34,94.51 -94.51,94.51 v 0 H 95.8477 v 0 c -52.1719,0 -94.50786,-42.33 -94.50786,-94.51 v 0 V 95.8477"
         style="fill:#ffffff;fill-opacity:1;fill-rule:evenodd;stroke:none"
         id="path12" /><path
         d="M 1.33984,95.8477 C 1.33984,43.6758 43.6758,1.33984 95.8477,1.33984 v 0 H 1324.15 v 0 c 52.17,0 94.51,42.33596 94.51,94.50786 v 0 1228.3023 0 c 0,52.18 -42.34,94.51 -94.51,94.51 v 0 H 95.8477 v 0 c -52.1719,0 -94.50786,-42.33 -94.50786,-94.51 v 0 z"
         style="fill:none;stroke:#231f20;stroke-width:2.16;stroke-linecap:butt;stroke-linejoin:miter;stroke-miterlimit:22.9256;stroke-dasharray:none;stroke-opacity:1"
         id="path14" /><path
         d="m 20.2031,95.8594 c 0,-20.8672 7.3828,-38.6875 22.1524,-53.4531 C 57.1289,27.6328 74.9453,20.25 95.8164,20.25 v 0 H 1324.12 v 0 c 20.86,0 38.69,7.3828 53.46,22.1563 14.76,14.7656 22.15,32.5859 22.15,53.4531 v 0 1228.3006 0 c 0,20.87 -7.39,38.69 -22.15,53.47 -14.77,14.76 -32.6,22.15 -53.46,22.15 v 0 H 95.8164 v 0 c -20.8711,0 -38.6875,-7.39 -53.4609,-22.15 -14.7696,-14.78 -22.1524,-32.6 -22.1524,-53.47 v 0 V 95.8594"
         style="fill:#ed2e30;fill-opacity:1;fill-rule:evenodd;stroke:none"
         id="path16" /><path
         d="M 930.512,48.4727 V 709.902 H 1371.43 V 1150.82 H 48.6172 V 709.902 H 489.59 V 48.4727 h 440.922"
         style="fill:#ffffff;fill-opacity:1;fill-rule:evenodd;stroke:none"
         id="path18" /><path
         d="M 1290.46,855.824 V 1004.99 L 1185.04,1110.4 H 1035.88 L 930.469,1004.99 V 855.824 l 105.411,-105.41 h 149.16 l 105.42,105.41"
         style="fill:#ffffff;fill-opacity:1;fill-rule:evenodd;stroke:none"
         id="path20" /><path
         d="m 1280.86,859.805 v 141.205 l -99.79,99.79 h -141.21 l -99.79,-99.79 V 859.805 l 99.79,-99.789 h 141.21 l 99.79,99.789"
         style="fill:#ed2e30;fill-opacity:1;fill-rule:evenodd;stroke:none"
         id="path22" /><path
         d="m 1038.78,995.816 13.6,-9.246 v 14.05 l -6.68,4.8 6.48,4.7 v 13.33 l -13.4,-8.64 v -18.994"
         style="fill:#ffffff;fill-opacity:1;fill-rule:evenodd;stroke:none"
         id="path24" /><path
         d="m 1160.47,773.836 v 14.469 l -28.08,6.886 v 19.895 l 28.08,7.051 v 14.406 l -99.99,-24.547 v -14.058 z m -60.86,84.289 h -24.99 v 17.008 c 0,5.222 3.31,9.449 12.62,9.449 7.64,0 11.19,-3.277 12.37,-8.492 v 0 z m 60.86,-14.207 v 14.363 h -46.83 v 12.438 l 46.83,13.449 v 14.715 l -49.33,-14.207 v 0 c -4.23,8.719 -10.93,13.515 -24.55,13.515 -19.54,0 -25.23,-13.734 -25.8,-19.812 v 0 -34.461 z m -60.86,82.172 h -24.99 v 16.988 c 0,5.219 3.31,9.449 12.62,9.449 7.64,0 11.19,-3.273 12.37,-8.496 v 0 z m 60.86,-14.012 v 14.363 h -46.83 v 12.414 l 46.83,13.454 v 14.707 l -49.33,-14.2 v 0 c -4.23,8.715 -10.93,13.512 -24.55,13.512 -19.54,0 -25.23,-13.734 -25.8,-19.808 v 0 -34.442 z m 0,68.156 v 49.866 h -14.08 v -35.764 h -32.71 v 21.114 h -13.94 v -21.052 h -24.99 v 34.302 h -14.17 v -48.466 z m 0,74.736 v 14.16 h -87.33 v 17.9 h -12.66 v -49.96 h 12.66 v 17.9 z m -42.24,-256.556 -26.74,6.438 26.74,6.566 z"
         style="fill:#ffffff;fill-opacity:1;fill-rule:evenodd;stroke:none"
         id="path26" /><path
         d="M 129.641,1005 V 855.836 l 105.41,-105.414 h 149.168 l 105.41,105.414 V 1005 l -105.41,105.41 H 235.051 L 129.641,1005"
         style="fill:#ffffff;fill-opacity:1;fill-rule:evenodd;stroke:none"
         id="path28" /><path
         d="M 139.242,1001.02 V 859.809 l 99.789,-99.786 h 141.207 l 99.789,99.786 v 141.211 l -99.789,99.79 H 239.031 l -99.789,-99.79"
         style="fill:#ed2e30;fill-opacity:1;fill-rule:evenodd;stroke:none"
         id="path30" /><path
         d="m 381.316,865.004 -13.601,9.246 v -14.043 l 6.683,-4.805 -6.476,-4.699 v -13.328 l 13.394,8.637 v 18.992"
         style="fill:#ffffff;fill-opacity:1;fill-rule:evenodd;stroke:none"
         id="path32" /><path
         d="M 635.496,350.012 H 784.66 l 105.41,105.41 V 604.59 L 784.66,710 H 635.496 L 530.086,604.59 V 455.422 l 105.41,-105.41"
         style="fill:#ffffff;fill-opacity:1;fill-rule:evenodd;stroke:none"
         id="path34" /><path
         d="m 639.344,359.508 h 141.211 l 99.789,99.789 v 141.211 l -99.789,99.785 H 639.344 L 539.555,600.508 V 459.297 l 99.789,-99.789"
         style="fill:#ed2e30;fill-opacity:1;fill-rule:evenodd;stroke:none"
         id="path36" /><path
         d="m 775.555,601.633 -9.25,-13.598 h 14.047 l 4.804,6.676 4.699,-6.477 h 13.329 l -8.637,13.399 h -18.992"
         style="fill:#ffffff;fill-opacity:1;fill-rule:evenodd;stroke:none"
         id="path38" /><path
         d="m 259.625,1086.98 v -14.46 l 28.082,-6.89 v -19.89 l -28.082,-7.05 v -14.41 l 99.992,24.54 v 14.07 z m 60.859,-84.28 h 24.996 v -17.012 c 0,-5.219 -3.316,-9.446 -12.621,-9.446 -7.64,0 -11.195,3.274 -12.375,8.496 v 0 z m -60.859,14.21 v -14.37 h 46.836 v -12.438 l -46.836,-13.45 v -14.711 l 49.336,14.207 v 0 c 4.223,-8.718 10.926,-13.515 24.543,-13.515 19.547,0 25.234,13.734 25.805,19.812 v 0 34.465 z m 60.859,-82.18 h 24.996 v -16.984 c 0,-5.223 -3.316,-9.449 -12.621,-9.449 -7.64,0 -11.195,3.269 -12.375,8.492 v 0 z m -60.859,14.02 v -14.367 h 46.836 v -12.418 l -46.836,-13.449 v -14.711 l 49.336,14.203 v 0 c 4.223,-8.719 10.926,-13.516 24.543,-13.516 19.547,0 25.234,13.738 25.805,19.813 v 0 34.445 z m 0,-67.973 v -49.859 h 14.082 v 35.762 h 32.711 v -21.114 h 13.941 v 21.051 h 24.989 V 832.32 h 14.164 v 48.457 z m 0,-74.922 v -14.164 h 87.332 v -17.898 h 12.66 v 49.965 h -12.66 v -17.903 z m 42.238,256.555 26.742,-6.44 -26.742,-6.57 z"
         style="fill:#ffffff;fill-opacity:1;fill-rule:evenodd;stroke:none"
         id="path40" /><path
         d="m 553.41,480.082 h 14.465 l 6.887,28.082 h 19.894 l 7.051,-28.082 h 14.406 l -24.543,99.992 h -14.062 z m 84.301,60.898 v 24.993 h 17.008 v 0 c 5.222,0 9.449,-3.313 9.449,-12.618 0,-7.64 -3.27,-11.199 -8.492,-12.375 v 0 z m -14.098,-60.898 h 14.364 v 46.836 h 12.437 l 13.449,-46.836 h 14.711 l -14.199,49.336 v 0 c 8.715,4.227 13.508,10.93 13.508,24.547 0,19.547 -13.735,25.234 -19.809,25.805 v 0 h -34.461 z m 82.188,60.898 v 24.993 h 16.988 v 0 c 5.223,0 9.449,-3.313 9.449,-12.618 0,-7.64 -3.273,-11.199 -8.496,-12.375 v 0 z m -14.102,-60.898 h 14.371 v 46.836 h 12.41 l 13.454,-46.836 h 14.707 l -14.203,49.336 v 0 c 8.718,4.227 13.515,10.93 13.515,24.547 0,19.547 -13.738,25.234 -19.812,25.805 v 0 h -34.442 z m 68.071,0 h 49.863 v 14.082 h -35.762 v 32.711 h 21.113 v 13.941 h -21.05 v 24.993 h 34.296 v 14.164 h -48.46 z m 74.855,0 h 14.164 v 87.332 h 17.899 v 12.66 h -49.961 v -12.66 h 17.898 z m -256.508,42.246 6.442,26.738 6.562,-26.738 z"
         style="fill:#ffffff;fill-opacity:1;fill-rule:evenodd;stroke:none"
         id="path42" /></g></g></svg>
