<?xml version="1.0" encoding="UTF-8" standalone="no"?>
<!-- Created with Inkscape (http://www.inkscape.org/) -->

<svg
   version="1.1"
   id="svg2"
   xml:space="preserve"
   width="189.33333"
   height="189.33333"
   viewBox="0 0 189.33333 189.33333"
   sodipodi:docname="P-10-P-3-arrêt-750x750(20).eps"
   xmlns:inkscape="http://www.inkscape.org/namespaces/inkscape"
   xmlns:sodipodi="http://sodipodi.sourceforge.net/DTD/sodipodi-0.dtd"
   xmlns="http://www.w3.org/2000/svg"
   xmlns:svg="http://www.w3.org/2000/svg"><defs
     id="defs6" /><sodipodi:namedview
     id="namedview4"
     pagecolor="#ffffff"
     bordercolor="#666666"
     borderopacity="1.0"
     inkscape:pageshadow="2"
     inkscape:pageopacity="0.0"
     inkscape:pagecheckerboard="0" /><g
     id="g8"
     inkscape:groupmode="layer"
     inkscape:label="ink_ext_XXXXXX"
     transform="matrix(1.3333333,0,0,-1.3333333,0,189.33333)"><g
       id="g10"
       transform="scale(0.1)"><path
         d="M 1.33594,95.8477 C 1.33594,43.6758 43.6719,1.33984 95.8477,1.33984 v 0 H 1324.15 v 0 c 52.17,0 94.51,42.33596 94.51,94.50786 v 0 1228.3023 0 c 0,52.18 -42.34,94.51 -94.51,94.51 v 0 H 95.8477 v 0 c -52.1758,0 -94.51176,-42.33 -94.51176,-94.51 v 0 V 95.8477"
         style="fill:#ffffff;fill-opacity:1;fill-rule:evenodd;stroke:none"
         id="path12" /><path
         d="M 1.33594,95.8477 C 1.33594,43.6758 43.6719,1.33984 95.8477,1.33984 v 0 H 1324.15 v 0 c 52.17,0 94.51,42.33596 94.51,94.50786 v 0 1228.3023 0 c 0,52.18 -42.34,94.51 -94.51,94.51 v 0 H 95.8477 v 0 c -52.1758,0 -94.51176,-42.33 -94.51176,-94.51 v 0 z"
         style="fill:none;stroke:#231f20;stroke-width:2.16;stroke-linecap:butt;stroke-linejoin:miter;stroke-miterlimit:22.9256;stroke-dasharray:none;stroke-opacity:1"
         id="path14" /><path
         d="m 20.207,95.8477 c 0,-20.8672 7.3907,-38.6875 22.1563,-53.4532 C 57.1328,27.6211 74.9531,20.2383 95.8242,20.2383 v 0 H 1324.13 v 0 c 20.87,0 38.68,7.3828 53.46,22.1562 14.77,14.7657 22.15,32.586 22.15,53.4532 v 0 1228.3023 0 c 0,20.87 -7.38,38.69 -22.15,53.46 -14.78,14.77 -32.59,22.15 -53.46,22.15 v 0 H 95.8242 v 0 c -20.8711,0 -38.6914,-7.38 -53.4609,-22.15 -14.7656,-14.77 -22.1563,-32.59 -22.1563,-53.46 v 0 V 95.8477"
         style="fill:#ed2e30;fill-opacity:1;fill-rule:evenodd;stroke:none"
         id="path16" /><path
         d="M 1059.53,1371.38 709.855,1021.75 360.227,1371.38 H 95.7539 v 0 c -13.0586,0 -24.1953,-4.61 -33.4101,-13.82 -9.2657,-9.22 -13.875,-20.4 -13.875,-33.41 v 0 -264.57 L 489.441,618.609 V 48.5703 H 930.367 V 618.656 l 440.923,440.974 v 264.52 0 c 0,13.01 -4.61,24.19 -13.83,33.41 -9.21,9.21 -20.4,13.82 -33.41,13.82 v 0 h -264.52"
         style="fill:#ffffff;fill-opacity:1;fill-rule:evenodd;stroke:none"
         id="path18" /><path
         d="M 352.32,1173.21 246.852,1067.73 V 918.66 L 352.32,813.188 H 501.395 L 606.871,918.66 v 149.07 L 501.395,1173.21 H 352.32"
         style="fill:#ffffff;fill-opacity:1;fill-rule:evenodd;stroke:none"
         id="path20" /><path
         d="m 356.164,1163.61 -99.851,-99.85 V 922.637 l 99.851,-99.852 h 141.121 l 99.848,99.852 v 141.123 l -99.848,99.85 H 356.164"
         style="fill:#ed2e30;fill-opacity:1;fill-rule:evenodd;stroke:none"
         id="path22" /><path
         d="m 431.285,896.176 -3.078,16.156 -9.93,-9.934 1.325,-8.121 -7.903,1.258 -9.422,-9.426 15.575,-3.367 13.433,13.434"
         style="fill:#ffffff;fill-opacity:1;fill-rule:evenodd;stroke:none"
         id="path24" /><path
         d="m 635.309,258.715 h 149.164 l 105.41,105.41 v 149.164 l -105.41,105.41 H 635.309 L 529.898,513.289 V 364.125 l 105.411,-105.41"
         style="fill:#ffffff;fill-opacity:1;fill-rule:evenodd;stroke:none"
         id="path26" /><path
         d="m 639.34,268.316 h 141.211 l 99.789,99.789 v 141.208 l -99.789,99.785 H 639.34 L 539.551,509.313 V 368.105 l 99.789,-99.789"
         style="fill:#ed2e30;fill-opacity:1;fill-rule:evenodd;stroke:none"
         id="path28" /><path
         d="m 775.473,510.418 -9.25,-13.602 h 14.047 l 4.804,6.684 4.699,-6.477 h 13.325 l -8.637,13.395 h -18.988"
         style="fill:#ffffff;fill-opacity:1;fill-rule:evenodd;stroke:none"
         id="path30" /><path
         d="m 502.148,1139.29 -10.23,-10.23 14.988,-24.72 -14.066,-14.07 -24.844,14.87 -10.187,-10.19 88.062,-53.34 9.945,9.94 z m -16.605,-102.62 17.668,-17.67 -12.023,-12.03 v 0 c -3.692,-3.69 -9.024,-4.34 -15.606,2.24 -5.402,5.41 -5.602,10.24 -2.742,14.76 v 0 z m -33.023,52.99 -10.161,-10.16 33.118,-33.11 -8.793,-8.8 -42.633,23.61 -10.399,-10.4 44.926,-24.85 v 0 c -3.176,-9.15 -1.824,-17.28 7.805,-26.911 13.816,-13.816 27.555,-8.129 32.254,-4.234 v 0 l 24.367,24.365 z m -14.993,-101.004 17.672,-17.672 -12.011,-12.011 v 0 c -3.692,-3.692 -9.02,-4.34 -15.602,2.242 -5.406,5.402 -5.606,10.23 -2.746,14.754 v 0 z m -33.218,52.804 -10.157,-10.16 33.118,-33.124 -8.778,-8.778 -42.629,23.612 -10.402,-10.4 44.926,-24.848 v 0 c -3.172,-9.153 -1.824,-17.285 7.804,-26.914 13.821,-13.817 27.555,-8.129 32.254,-4.235 v 0 l 24.352,24.352 z m -47.942,-47.948 -35.258,-35.258 9.957,-9.961 25.286,25.289 23.132,-23.133 -14.929,-14.926 9.859,-9.859 14.887,14.887 17.672,-17.672 -24.254,-24.254 10.011,-10.012 34.27,34.266 z m -52.906,-52.907 -10.012,-10.011 61.754,-61.754 -12.66,-12.66 8.949,-8.95 35.332,35.333 -8.949,8.949 -12.66,-12.657 z m 211.16,151.445 14.352,-23.46 -23.547,14.27 z"
         style="fill:#ffffff;fill-opacity:1;fill-rule:evenodd;stroke:none"
         id="path32" /><path
         d="m 553.355,388.664 h 14.469 l 6.887,28.082 h 19.891 l 7.05,-28.082 h 14.407 l -24.543,99.992 h -14.063 z m 84.372,60.973 v 24.992 h 17.007 v 0 c 5.223,0 9.45,-3.313 9.45,-12.621 0,-7.641 -3.274,-11.195 -8.493,-12.371 v 0 z m -14.11,-60.965 h 14.367 v 46.836 h 12.438 l 13.449,-46.836 h 14.711 l -14.203,49.34 v 0 c 8.719,4.222 13.512,10.929 13.512,24.539 0,19.551 -13.735,25.238 -19.809,25.804 v 0 h -34.465 z m 82.078,60.965 v 24.992 h 16.989 v 0 c 5.222,0 9.449,-3.313 9.449,-12.621 0,-7.641 -3.274,-11.195 -8.496,-12.371 v 0 z m -14.109,-60.965 h 14.367 v 46.836 h 12.414 l 13.453,-46.836 h 14.711 l -14.203,49.34 v 0 c 8.719,4.222 13.512,10.929 13.512,24.539 0,19.551 -13.738,25.238 -19.809,25.804 v 0 h -34.445 z m 68.07,0.09 h 49.867 v 14.082 h -35.761 v 32.715 h 21.109 v 13.937 H 773.82 v 24.992 h 34.297 v 14.164 h -48.461 z m 74.856,0.023 h 14.164 v 87.336 h 17.898 v 12.656 h -49.965 v -12.656 h 17.903 z m -256.539,42.078 6.445,26.739 6.562,-26.739 z"
         style="fill:#ffffff;fill-opacity:1;fill-rule:evenodd;stroke:none"
         id="path34" /><path
         d="M 1173.07,1067.73 1067.6,1173.21 H 918.523 L 813.047,1067.73 V 918.66 L 918.523,813.188 H 1067.6 l 105.47,105.472 v 149.07"
         style="fill:#ffffff;fill-opacity:1;fill-rule:evenodd;stroke:none"
         id="path36" /><path
         d="m 1163.53,1063.76 -99.85,99.85 H 922.555 l -99.848,-99.85 V 922.637 l 99.848,-99.852 h 141.125 l 99.85,99.852 v 141.123"
         style="fill:#ed2e30;fill-opacity:1;fill-rule:evenodd;stroke:none"
         id="path38" /><path
         d="m 896.094,988.824 16.156,3.078 -9.934,9.938 -8.117,-1.33 1.258,7.9 -9.43,9.43 -3.363,-15.58 13.43,-13.436"
         style="fill:#ffffff;fill-opacity:1;fill-rule:evenodd;stroke:none"
         id="path40" /><path
         d="m 1139.25,917.801 -10.23,10.23 -24.73,-14.984 -14.07,14.066 14.88,24.84 -10.19,10.188 -53.35,-88.059 9.94,-9.941 z m -102.67,16.57 -17.67,-17.672 -12.03,12.024 v 0 c -3.69,3.691 -4.34,9.023 2.25,15.601 5.4,5.406 10.22,5.606 14.75,2.75 v 0 z m 53.01,33.039 -10.16,10.16 -33.12,-33.117 -8.79,8.789 23.61,42.637 -10.4,10.401 -24.85,-44.932 v 0 c -9.15,3.179 -17.28,1.828 -26.907,-7.797 -13.821,-13.824 -8.137,-27.563 -4.239,-32.258 v 0 l 24.366,-24.371 z m -101.02,15.164 -17.675,-17.672 -12.012,12.016 v 0 c -3.688,3.687 -4.336,9.02 2.246,15.602 5.402,5.402 10.226,5.601 14.754,2.742 v 0 z m 52.81,33.046 -10.15,10.16 -33.121,-33.124 -8.781,8.784 23.612,42.63 -10.41,10.4 -24.839,-44.93 v 0 c -9.152,3.17 -17.285,1.83 -26.91,-7.8 -13.824,-13.822 -8.136,-27.56 -4.238,-32.26 v 0 l 24.352,-24.347 z m -47.985,48.08 -35.262,35.26 -9.953,-9.95 25.285,-25.29 -23.133,-23.13 -14.926,14.93 -9.859,-9.86 14.883,-14.89 -17.668,-17.67 -24.254,24.26 -10.016,-10.02 34.27,-34.266 z m -52.836,52.98 -10.016,10.02 -61.75,-61.76 -12.66,12.66 -8.949,-8.95 35.328,-35.33 8.949,8.95 -12.656,12.66 z m 151.301,-211.309 -23.47,-14.351 14.27,23.55 z"
         style="fill:#ffffff;fill-opacity:1;fill-rule:evenodd;stroke:none"
         id="path42" /></g></g></svg>
