<?xml version="1.0" encoding="iso-8859-1"?>
<!-- Generator: Adobe Illustrator 19.0.0, SVG Export Plug-In . SVG Version: 6.00 Build 0)  -->
<svg version="1.1" id="Capa_1" xmlns="http://www.w3.org/2000/svg" xmlns:xlink="http://www.w3.org/1999/xlink" x="0px" y="0px"
	 viewBox="0 0 512 512" style="enable-background:new 0 0 512 512;" xml:space="preserve">
<path style="fill:#58595B;" d="M358.4,42.667c0-18.85-15.283-34.133-34.133-34.133H187.733c-18.85,0-34.133,15.283-34.133,34.133
	v426.667c0,18.85,15.283,34.133,34.133,34.133h136.533c18.85,0,34.133-15.283,34.133-34.133V42.667z M256,469.333
	c-32.99,0-59.733-26.743-59.733-59.733S223.01,349.867,256,349.867s59.733,26.743,59.733,59.733S288.99,469.333,256,469.333z
	 M256,315.733c-32.99,0-59.733-26.743-59.733-59.733S223.01,196.267,256,196.267S315.733,223.01,315.733,256
	S288.99,315.733,256,315.733z M256,162.133c-32.99,0-59.733-26.743-59.733-59.733S223.01,42.667,256,42.667
	s59.733,26.743,59.733,59.733S288.99,162.133,256,162.133z"/>
<circle style="fill:#FFAF46;" cx="256" cy="256" r="59.733"/>
<circle style="fill:#ED1C24;" cx="256" cy="102.4" r="59.733"/>
<circle style="fill:#006838;" cx="256" cy="409.6" r="59.733"/>
<g>
	<path style="fill:#939598;" d="M477.867,42.667H358.4v119.467C424.38,162.133,477.867,108.646,477.867,42.667z"/>
	<path style="fill:#939598;" d="M477.867,196.267H358.4v119.467C424.38,315.733,477.867,262.246,477.867,196.267z"/>
	<path style="fill:#939598;" d="M477.867,349.867H358.4v119.467C424.38,469.333,477.867,415.846,477.867,349.867L477.867,349.867z"
		/>
	<path style="fill:#939598;" d="M34.133,42.667c0,65.98,53.487,119.467,119.467,119.467V42.667H34.133z"/>
	<path style="fill:#939598;" d="M34.133,196.267c0,65.98,53.487,119.467,119.467,119.467V196.267H34.133z"/>
	<path style="fill:#939598;" d="M34.133,349.867c0,65.98,53.487,119.467,119.467,119.467V349.867H34.133z"/>
</g>
<g>
	<path style="fill:#231F20;" d="M256,187.733c-37.7,0-68.267,30.566-68.267,68.267S218.3,324.267,256,324.267
		S324.267,293.7,324.267,256C324.224,218.317,293.683,187.776,256,187.733z M256,307.2c-28.279,0-51.2-22.921-51.2-51.2
		c0-28.279,22.921-51.2,51.2-51.2s51.2,22.921,51.2,51.2C307.174,284.262,284.262,307.174,256,307.2z"/>
	<path style="fill:#231F20;" d="M256,34.133c-37.7,0-68.267,30.566-68.267,68.267S218.3,170.667,256,170.667
		s68.267-30.566,68.267-68.267C324.224,64.717,293.683,34.176,256,34.133z M256,153.6c-28.279,0-51.2-22.921-51.2-51.2
		s22.921-51.2,51.2-51.2s51.2,22.921,51.2,51.2C307.174,130.662,284.262,153.574,256,153.6z"/>
	<path style="fill:#231F20;" d="M256,341.333c-37.7,0-68.267,30.566-68.267,68.267S218.3,477.867,256,477.867
		s68.267-30.566,68.267-68.267C324.224,371.917,293.683,341.376,256,341.333z M256,460.8c-28.279,0-51.2-22.921-51.2-51.2
		c0-28.279,22.921-51.2,51.2-51.2s51.2,22.921,51.2,51.2C307.174,437.862,284.262,460.774,256,460.8z"/>
	<path style="fill:#231F20;" d="M486.4,196.267c0-4.71-3.823-8.533-8.533-8.533H366.933v-17.502
		c67.157-4.514,119.356-60.254,119.467-127.565c0-4.71-3.823-8.533-8.533-8.533H366.08C362.001,14.285,344.533,0.026,324.267,0
		H187.733c-20.267,0.026-37.734,14.285-41.813,34.133H34.133c-4.71,0-8.533,3.823-8.533,8.533
		c0.111,67.311,52.309,123.051,119.467,127.565v17.502H34.133c-4.71,0-8.533,3.823-8.533,8.533
		c0.111,67.311,52.309,123.051,119.467,127.565v17.502H34.133c-4.71,0-8.533,3.823-8.533,8.533
		c0.111,67.635,52.804,123.52,120.32,127.607c3.908,20.011,21.419,34.475,41.813,34.526h136.533
		c20.395-0.051,37.905-14.515,41.813-34.526c67.516-4.087,120.209-59.972,120.32-127.607c0-4.71-3.823-8.533-8.533-8.533H366.933
		v-17.502C434.091,319.317,486.289,263.578,486.4,196.267z M469.009,204.8c-4.275,54.502-47.573,97.801-102.076,102.076V204.8
		H469.009z M366.933,153.276V51.2h102.076C464.734,105.702,421.436,149.001,366.933,153.276z M42.991,51.2h102.076v102.076
		C90.564,149.001,47.266,105.702,42.991,51.2z M42.991,204.8h102.076v102.076C90.564,302.601,47.266,259.302,42.991,204.8z
		 M42.991,358.4h102.076v102.076C90.564,456.201,47.266,412.902,42.991,358.4z M324.267,494.933H187.733
		c-14.14,0-25.6-11.46-25.6-25.6V42.667c0-14.14,11.46-25.6,25.6-25.6h136.533c14.14,0,25.6,11.46,25.6,25.6v426.667
		C349.867,483.473,338.406,494.933,324.267,494.933z M469.009,358.4c-4.275,54.502-47.573,97.801-102.076,102.076V358.4H469.009z"/>
</g>
<g>
</g>
<g>
</g>
<g>
</g>
<g>
</g>
<g>
</g>
<g>
</g>
<g>
</g>
<g>
</g>
<g>
</g>
<g>
</g>
<g>
</g>
<g>
</g>
<g>
</g>
<g>
</g>
<g>
</g>
</svg>
