<?xml version="1.0" encoding="UTF-8" standalone="no"?>
<!-- Generator: Adobe Illustrator 16.0.0, SVG Export Plug-In . SVG Version: 6.00 Build 0)  -->

<svg
   xmlns:dc="http://purl.org/dc/elements/1.1/"
   xmlns:cc="http://creativecommons.org/ns#"
   xmlns:rdf="http://www.w3.org/1999/02/22-rdf-syntax-ns#"
   xmlns:svg="http://www.w3.org/2000/svg"
   xmlns="http://www.w3.org/2000/svg"
   xmlns:sodipodi="http://sodipodi.sourceforge.net/DTD/sodipodi-0.dtd"
   xmlns:inkscape="http://www.inkscape.org/namespaces/inkscape"
   version="1.1"
   id="Layer_1"
   x="0px"
   y="0px"
   width="217px"
   height="289.02px"
   viewBox="0 0 217 289.02"
   enable-background="new 0 0 217 289.02"
   xml:space="preserve"
   sodipodi:docname="Qc_Autoroute_50.svg"
   inkscape:version="0.92.3 (2405546, 2018-03-11)"><metadata
   id="metadata46"><rdf:RDF><cc:Work
       rdf:about=""><dc:format>image/svg+xml</dc:format><dc:type
         rdf:resource="http://purl.org/dc/dcmitype/StillImage" /><dc:title></dc:title></cc:Work></rdf:RDF></metadata><defs
   id="defs44" /><sodipodi:namedview
   pagecolor="#ffffff"
   bordercolor="#666666"
   borderopacity="1"
   objecttolerance="10"
   gridtolerance="10"
   guidetolerance="10"
   inkscape:pageopacity="0"
   inkscape:pageshadow="2"
   inkscape:window-width="1536"
   inkscape:window-height="841"
   id="namedview42"
   showgrid="false"
   inkscape:zoom="0.81655252"
   inkscape:cx="108.5"
   inkscape:cy="144.50999"
   inkscape:window-x="1528"
   inkscape:window-y="-8"
   inkscape:window-maximized="1"
   inkscape:current-layer="Layer_1" />
<g
   id="g5">
	<path
   id="path7"
   fill="#FFFFFF"
   d="M216.5,0.5v168c0,90-108,120-108,120s-108-30-108-120V0.5H216.5z" />
	<path
   id="path9"
   fill="none"
   stroke="#000000"
   stroke-miterlimit="3.8637"
   d="M216.5,0.5v168c0,90-108,120-108,120s-108-30-108-120   V0.5H216.5z" />
</g>
<path
   id="path11"
   d="M210.5,168.5c0,78.969-88.867,109.639-102,113.736c-13.133-4.098-102-34.768-102-113.736v-84  h204V168.5z"
   fill="#003F87" />
<g
   id="g13">
	<polygon
   id="polygon15"
   fill="#AF1E2D"
   points="6.5,6.5 210.5,6.5 210.5,78.5 6.5,78.5  " />
	<path
   id="path17"
   fill="#AF1E2D"
   d="M0,0" />
</g>
<path
   id="path19"
   fill="#FFFFFF"
   d="M108.501,217.46c1.565,1.573,2.928,3.04,4.021,4.667c3.043,4.537,4.068,9.465,2.365,13.451  c-3.383,8.434-4.684,10.575-4.684,17.291h2.406c0.151-7.388,3.244-12.333,7.844-13.817c2.023-0.702,4.65-0.354,7.057,1.875  c2.979,2.759,3.846,10.36-4.898,11.821c0.926-1.238,0.848-3.951-1.004-4.908c-1.416-0.637-3.016-0.389-3.762,0.16  c-1.203,0.654-2.361,2.748-2.361,4.869l4.153-0.006v4.174l-8.62-0.004c0.111,2.146,1.414,3.867,3.834,4.824  c-0.312,0.904-1.772,2.748-3.777,2.623c-0.395,1.951-0.771,3.047-2.573,4.82c-1.802-1.773-2.179-2.869-2.575-4.82  c-2.005,0.125-3.465-1.719-3.776-2.623c2.42-0.957,3.722-2.678,3.834-4.824l-8.618,0.004l-0.001-4.174l4.153,0.006  c0-2.121-1.158-4.215-2.362-4.869c-0.747-0.549-2.346-0.797-3.761-0.16c-1.852,0.957-1.93,3.67-1.005,4.908  c-8.745-1.461-7.877-9.062-4.898-11.821c2.408-2.229,5.033-2.577,7.057-1.875c4.599,1.484,7.693,6.43,7.844,13.817h2.405  c0-6.716-1.298-8.857-4.682-17.291c-1.704-3.986-0.68-8.914,2.366-13.451C105.572,220.5,106.935,219.033,108.501,217.46  L108.501,217.46z" />

<g
   id="Viaduc">
	<path
   fill="#FFFFFF"
   d="M20.307,24.595c0,0,123.082-8.782,175.22-5.516l0.036-2.119c0,0-134.044-0.939-175.22,5.518L20.307,24.595z   "
   id="path12" />
	<g
   id="g18">
		<polygon
   fill="#FFFFFF"
   points="129.812,40.194 18,67.521 44.326,67.521   "
   id="polygon14" />
		<polygon
   fill="#FFFFFF"
   points="52.102,67.521 74.16,67.521 136.147,38.646 131.869,39.691   "
   id="polygon16" />
	</g>
	<g
   id="g24">
		<polygon
   fill="#FFFFFF"
   points="138.463,38.93 104.888,67.521 137.715,67.521   "
   id="polygon20" />
		<polygon
   fill="#FFFFFF"
   points="141.014,67.521 174.028,67.521 138.796,38.646 138.608,38.806   "
   id="polygon22" />
	</g>
	<rect
   x="37"
   y="22.26"
   fill="#FFFFFF"
   width="1.25"
   height="6.5"
   id="rect26" />
	<rect
   x="66.875"
   y="20.824"
   fill="#FFFFFF"
   width="1.25"
   height="6.5"
   id="rect28" />
	<rect
   x="96.25"
   y="19.01"
   fill="#FFFFFF"
   width="1.25"
   height="6.5"
   id="rect30" />
	<rect
   x="126.75"
   y="18.574"
   fill="#FFFFFF"
   width="1.25"
   height="6.5"
   id="rect32" />
	<rect
   x="155.068"
   y="18.095"
   fill="#FFFFFF"
   width="1.25"
   height="6.5"
   id="rect34" />
	<rect
   x="185.285"
   y="18.095"
   fill="#FFFFFF"
   width="1.25"
   height="6.5"
   id="rect36" />
	<path
   fill="#FFFFFF"
   d="M20.384,29.639v2.914v27.285h10.861L57.471,55.6l6.357-23.046l23.577-1.325l7.417,30.729h9.536l8.213-5.563   l7.682-27.285h39.735l8.213,27.814l10.595,6.358h13.511l3.179-39.206C195.485,24.076,50.318,23.812,20.384,29.639z M97.5,55.01   L92,30.76h3.25L101,50.51L97.5,55.01z M104.888,43.678l-4.555-13.334h10.333L104.888,43.678z"
   id="path38" />
</g>
<text
   xml:space="preserve"
   style="font-style:normal;font-variant:normal;font-weight:normal;font-stretch:normal;font-size:146.66666667px;line-height:1.25;font-family:'Liberation Sans';-inkscape-font-specification:'Liberation Sans, Normal';font-variant-ligatures:normal;font-variant-caps:normal;font-variant-numeric:normal;font-feature-settings:normal;text-align:start;letter-spacing:0px;word-spacing:0px;writing-mode:lr;text-anchor:start;fill:#ffffff;fill-opacity:1;stroke:none;"
   x="26.942541"
   y="204.51837"
   id="text50"><tspan
     sodipodi:role="line"
     id="tspan48"
     x="26.942541"
     y="204.51837">50</tspan></text>
</svg>