<svg width="900" height="900" version="1.1" viewBox="0 0 238.12 238.12" xmlns="http://www.w3.org/2000/svg">
 <g transform="matrix(.4625 0 0 .4625 .66146 .66146)">
  <g id="XMLID_1797_">
   <g id="XMLID_1798_">
    <g id="XMLID_1799_">
     <g id="XMLID_1800_">
      <g id="XMLID_1801_">
       <g id="XMLID_1802_">
        <g id="XMLID_1803_">
         <g id="XMLID_1804_">
          <g id="XMLID_1805_">
           <g id="XMLID_1806_">
            <g id="XMLID_1807_">
             <g id="XMLID_1808_">
              <g id="XMLID_1809_">
               <g id="XMLID_1810_">
                <g id="XMLID_1811_">
                 <circle cx="256" cy="256" r="256" fill="#00cb75"/>
                </g>
               </g>
              </g>
             </g>
            </g>
           </g>
          </g>
         </g>
        </g>
       </g>
      </g>
     </g>
    </g>
   </g>
  </g>
  <path d="m284.58 161.73-87.176 183.58-96.433 89.171s27.775 27.305 60.209 59.385c29.326 11.701 61.323 18.136 94.823 18.136 141.38 0 256-114.62 256-256 0-11.953-0.819-23.714-2.405-35.23l-152.42-152.36z" fill="#00a78e"/>
  <path d="m234.75 434.48h-133.79c3.037-20.187 12.162-37.662 24.989-50.101 12.827-12.424 29.356-19.798 47.189-19.798h36.65z" fill="#bceaf9"/>
  <path d="m376.83 406.31c0 7.78-3.15 14.82-8.25 19.92s-12.14 8.25-19.91 8.25h-148.07c-30.036 0-44.244-27.428-50.519-45.144-5.984-16.894 1.059-55.636 0.989-55.406 0.01-0.04 0.02-0.07 0.03-0.1 0.03-0.09 0.04-0.13 0.04-0.13l72.37-7.51 67.33 7.51 73.5 49.21c7.81 5.23 12.49 14 12.49 23.4z" fill="#d8f1fb"/>
  <path d="m376.83 406.31c0 7.78-3.15 14.82-8.25 19.92s-12.14 8.25-19.91 8.25h-110.53v-106.66l52.61 5.87 0.09 0.01 73.5 49.21c7.81 5.23 12.49 14 12.49 23.4z" fill="#bceaf9"/>
  <path d="m290.84 333.69h-139.7v-96.839c0-54.139 43.888-98.027 98.027-98.027h41.673v194.87z" fill="#fff"/>
  <path d="m290.84 138.83v194.86h-52.7v-194.24c3.62-0.41 7.3-0.62 11.03-0.62z" fill="#e7f9fb"/>
  <circle transform="matrix(.261 -.965 .965 .261 111.82 373.22)" cx="299.62" cy="113.59" r="61.469" fill="#f4af71"/>
  <path d="m319.8 210.54-27.569 27.569-34.889-34.889c-10.229-10.229-26.814-10.229-37.044 0-10.229 10.229-10.229 26.814 0 37.044l48.448 48.449c12.97 12.97 33.999 12.97 46.969 0l41.129-41.129c10.229-10.229 10.229-26.814 0-37.044s-26.814-10.23-37.044 0z" fill="#d8f1fb"/>
  <path d="m356.84 247.58-41.13 41.13c-6.84 6.84-15.91 10.07-24.87 9.7-8.04-0.33-15.97-3.56-22.1-9.7l-30.6-30.6v-62.54c6.93-0.19 13.91 2.36 19.2 7.65l34.89 34.89 27.57-27.57c5.12-5.12 11.82-7.67 18.52-7.67s13.4 2.55 18.52 7.67c10.23 10.23 10.23 26.81 0 37.04z" fill="#bceaf9"/>
  <path d="m259.25 67.245 96.626 71.154 11.389-19.039c10.204-17.058 5.847-39.071-10.086-50.955l-30.359-22.645c-15.711-11.719-37.698-9.861-51.221 4.327z" fill="#e7f9fb"/>
 </g>
</svg>
