<svg width="900" height="900" version="1.1" viewBox="0 0 238.12 238.12" xmlns="http://www.w3.org/2000/svg">
 <g transform="matrix(.46285 0 0 .46285 .57322 .57322)">
  <path d="m0 256c0-141.39 114.61-256 256-256 16.504 0 32.645 1.5625 48.277 4.5469 31.09 5.9336 39.227 34.547 65.23 50.629 23.469 14.512 65.375 15.656 82.996 36.734 37.141 44.43 59.496 101.65 59.496 164.09 0 51.922-15.457 100.23-42.02 140.58-45.77 69.531-124.52 37.281-213.98 37.281s-168.21 32.25-213.98-37.277c-26.562-40.352-42.02-88.66-42.02-140.58z" fill="#e7001f"/>
  <path d="m184.67 217.4c-4.3711-4.3672-6.7812-10.219-6.9961-16.297l-11.07-14.711c-7.1992-7.1992-9.0586-18.43-4.6211-27.941l0.11719-0.24609 104.45-104.45-5.7344-5.7344 43.453-43.453c31.812 6.0703 38.777 33.941 65.234 50.605 22.844 14.391 66.012 16.379 83.23 37.031 37 44.387 59.262 101.49 59.262 163.8 0 51.922-15.457 100.23-42.02 140.58-45.77 69.531-75.516 37.281-164.98 37.281-16.844 0-176.07-27.684-176.07-27.684l-9.2773-113.96h-5.7266v-99.785h30l145.27 173.47-2.1875-26.895-79.801-95.078c-1.0508-1.0469-1.9883-2.1875-2.8125-3.3984z" fill="#901"/>
  <path d="m119.13 285.76 9.8047 120.42 9.8008-120.42z" fill="#fff"/>
  <path d="m138.73 285.75-1 12.289-8.7969 108.14v-120.43z" fill="#fff5cb"/>
  <path d="m113.93 192.43h30v99.785h-30z" fill="#c8c6cc"/>
  <path d="m128.93 192.43h15v99.789h-15z" fill="#8b8992"/>
  <path d="m207.21 243.93c4.3438 4.3438 10.059 6.8008 16.238 7.0117-0.48828 7.0898 2 13.883 6.9688 18.852 9.5938 9.5938 25.477 9.3203 35.402-0.60938l34.328-34.324c0.61719 5.8672-1.1016 20.941 0.92188 29.039 5.3984 21.582 13.578 26.27 24.477 29.211 8.8633 2.3945 19.953-7.168 18.887-24.008-2.5156-39.66 11.582-86.055 12.555-91.082l23.422-23.422-107.35-107.36-110.96 110.96-0.11719 0.2461c-4.4375 9.5156-2.5781 20.746 4.6211 27.945 3.3438 3.3438 7.5039 5.5742 12.125 6.5234-2.625 8.7226-0.38672 18.156 5.9414 24.484 4.1875 4.1875 9.6836 6.6289 15.629 6.9844-0.6875 7.2617 1.832 14.461 6.9141 19.543z" fill="#ffdba9"/>
  <path d="m325.55 293.11c-10.895-2.9336-19.078-7.6211-24.477-29.215-2.0234-8.0898-0.30469-23.168-0.92578-29.031l-34.32 34.324c-9.9297 9.9258-25.812 10.199-35.398 0.60938-4.9727-4.9688-7.4688-11.766-6.9766-18.855-6.1797-0.20703-11.898-2.6641-16.242-7.0078-5.0781-5.0781-7.5938-12.277-6.9141-19.543l124.95-124.95 55.164 55.164-23.426 23.422c-0.96875 5.0312-15.062 51.422-12.555 91.074 1.0703 16.844-10.023 26.406-18.883 24.012z" fill="#ffc473"/>
  <path d="m452.74 92.199-73.867 73.871-118.05-118.05 43.469-43.469c30.121 5.75 58.371 16.777 83.75 32.09 24.562 14.809 46.43 33.641 64.699 55.559z" fill="#00efd1"/>
  <path d="m452.74 92.199-73.867 73.871-60.133-60.129 69.301-69.301c24.562 14.809 46.43 33.641 64.699 55.559z" fill="#00ceb4"/>
  <path d="m282.68 285.76 9.8047 120.42 9.8008-120.42z" fill="#fff"/>
  <path d="m302.28 285.75-0.99609 12.289-8.8008 108.14v-120.43z" fill="#fff5cb"/>
  <path d="m277.48 192.43h30v99.785h-30z" fill="#c8c6cc"/>
  <path d="m292.48 192.43h15v99.789h-15z" fill="#8b8992"/>
  <path d="m256 512c89.465 0 168.2-45.902 213.96-115.43h-427.93c45.77 69.527 124.5 115.43 213.96 115.43z" fill="#ffdba9"/>
  <path d="m469.97 396.57c-45.77 69.531-124.51 115.43-213.97 115.43v-115.43z" fill="#ffc473"/>
  <g fill="#ffb84d">
   <path d="m124.01 420.39c0 3.6602-2.9648 6.625-6.625 6.625-3.6562 0-6.625-2.9648-6.625-6.625 0-3.6602 2.9688-6.625 6.625-6.625 3.6602 0 6.625 2.9648 6.625 6.625z"/>
   <path d="m178.01 420.39c0 3.6602-2.9648 6.625-6.625 6.625-3.6562 0-6.625-2.9648-6.625-6.625 0-3.6602 2.9688-6.625 6.625-6.625 3.6602 0 6.625 2.9648 6.625 6.625z"/>
   <path d="m232.01 420.39c0 3.6602-2.9648 6.625-6.625 6.625-3.6562 0-6.625-2.9648-6.625-6.625 0-3.6602 2.9688-6.625 6.625-6.625 3.6602 0 6.625 2.9648 6.625 6.625z"/>
   <path d="m151.01 453.06c0 3.6602-2.9648 6.625-6.625 6.625-3.6562 0-6.625-2.9648-6.625-6.625 0-3.6602 2.9688-6.625 6.625-6.625 3.6602 0 6.625 2.9648 6.625 6.625z"/>
   <path d="m205.01 453.06c0 3.6602-2.9648 6.625-6.625 6.625-3.6562 0-6.625-2.9648-6.625-6.625 0-3.6602 2.9688-6.625 6.625-6.625 3.6602 0 6.625 2.9648 6.625 6.625z"/>
  </g>
  <g fill="#ff8900">
   <path d="m293.24 420.39c0 3.6602-2.9648 6.625-6.625 6.625-3.6562 0-6.625-2.9648-6.625-6.625 0-3.6602 2.9688-6.625 6.625-6.625 3.6602 0 6.625 2.9648 6.625 6.625z"/>
   <path d="m347.24 420.39c0 3.6602-2.9648 6.625-6.625 6.625-3.6562 0-6.625-2.9648-6.625-6.625 0-3.6602 2.9688-6.625 6.625-6.625 3.6602 0 6.625 2.9648 6.625 6.625z"/>
   <path d="m401.24 420.39c0 3.6602-2.9648 6.625-6.625 6.625-3.6562 0-6.625-2.9648-6.625-6.625 0-3.6602 2.9688-6.625 6.625-6.625 3.6602 0 6.625 2.9648 6.625 6.625z"/>
   <path d="m320.24 453.06c0 3.6602-2.9648 6.625-6.625 6.625-3.6562 0-6.625-2.9648-6.625-6.625 0-3.6602 2.9688-6.625 6.625-6.625 3.6602 0 6.625 2.9648 6.625 6.625z"/>
   <path d="m374.24 453.06c0 3.6602-2.9648 6.625-6.625 6.625-3.6562 0-6.625-2.9648-6.625-6.625 0-3.6602 2.9688-6.625 6.625-6.625 3.6602 0 6.625 2.9648 6.625 6.625z"/>
  </g>
 </g>
</svg>
