<?xml version="1.0" encoding="UTF-8" standalone="no"?>
<svg
   width="900"
   height="900"
   version="1.1"
   viewBox="0 0 238.12 238.12"
   id="svg866"
   sodipodi:docname="administration_regionale.svg"
   inkscape:version="1.1.2 (b8e25be833, 2022-02-05)"
   xmlns:inkscape="http://www.inkscape.org/namespaces/inkscape"
   xmlns:sodipodi="http://sodipodi.sourceforge.net/DTD/sodipodi-0.dtd"
   xmlns="http://www.w3.org/2000/svg"
   xmlns:svg="http://www.w3.org/2000/svg">
  <defs
     id="defs870" />
  <sodipodi:namedview
     id="namedview868"
     pagecolor="#ffffff"
     bordercolor="#999999"
     borderopacity="1"
     inkscape:pageshadow="0"
     inkscape:pageopacity="0"
     inkscape:pagecheckerboard="0"
     showgrid="false"
     inkscape:zoom="0.58781078"
     inkscape:cx="645.61592"
     inkscape:cy="487.40174"
     inkscape:window-width="1920"
     inkscape:window-height="1001"
     inkscape:window-x="-1929"
     inkscape:window-y="-9"
     inkscape:window-maximized="1"
     inkscape:current-layer="svg866" />
  <path
     d="m 196.32442,173.86176 c -13.96285,0 -25.32063,-11.346 -25.32063,-25.31138 0,-13.95577 11.35778,-25.31145 25.32063,-25.31145 13.94889,0 25.30428,11.35568 25.30428,25.31145 0,13.96538 -11.35539,25.31138 -25.30428,25.31138 z m -16.6624,42.16077 c -6.7625,4.24332 -13.97537,7.80856 -21.56894,10.56464 v -53.67678 c 4.84134,-3.29729 8.65338,-8.00396 10.84974,-13.51743 2.17374,5.45896 5.93685,10.14063 10.7192,13.44775 z m -63.40378,-67.47215 c 0,-13.95577 11.3585,-25.31145 25.30631,-25.31145 13.95859,0 25.30841,11.35568 25.30841,25.31145 0,13.96538 -11.34983,25.31138 -25.30841,25.31138 -13.94781,0 -25.30631,-11.346 -25.30631,-25.31138 z m -11.31693,-1.96742 c -16.491735,0 -29.902535,-13.40769 -29.902535,-29.8786 0,-16.49073 13.4108,-29.903545 29.902535,-29.903545 16.48161,0 29.88756,13.412825 29.88756,29.903545 0,1.09579 -0.0651,2.17164 -0.18433,3.24242 -11.99116,2.91858 -21.15763,13.14377 -22.38781,25.695 -2.33992,0.59275 -4.78336,0.94118 -7.31535,0.94118 z m -19.455205,81.84508 c -8.89338,-2.7482 -17.33561,-6.53857 -25.16912,-11.24523 v -72.46753 c 5.73582,-3.95974 10.21326,-9.63743 12.66465,-16.27654 2.43072,6.58424 6.84434,12.21735 12.50447,16.17685 z M 11.136655,116.70436 c 0,-16.49073 13.4019,-29.903545 29.89262,-29.903545 16.48667,0 29.88756,13.412825 29.88756,29.903545 0,16.47091 -13.40089,29.8786 -29.88756,29.8786 -16.49072,0 -29.89262,-13.40769 -29.89262,-29.8786 z m 61.84498,-72.460595 c 19.46439,0 35.305615,15.83616 35.305615,35.31022 0,1.10086 -0.0506,2.18162 -0.15759,3.24243 -1.05119,-0.0896 -2.11482,-0.15397 -3.18864,-0.15397 -14.653915,0 -27.167345,9.31358 -31.959665,22.313065 -4.79616,-12.999485 -17.30756,-22.313065 -31.95237,-22.313065 -1.07382,0 -2.15169,0.0651 -3.19753,0.16409 -0.0947,-1.07078 -0.15759,-2.15154 -0.15759,-3.2524 0,-19.47407 15.8405,-35.31023 35.30749,-35.31023 z M 198.68834,116.70436 c 0,0.83187 -0.0506,1.6785 -0.12723,2.50517 -0.7395,-0.0578 -1.48665,-0.11927 -2.2364,-0.11927 -12.42668,0 -23.05741,7.74502 -27.3816,18.63741 -4.32513,-10.8924 -14.96069,-18.63741 -27.37827,-18.63741 -0.84763,0 -1.69729,0.065 -2.5322,0.13444 -0.073,-0.83188 -0.13446,-1.66852 -0.13446,-2.52028 0,-16.49072 13.40979,-29.903535 29.90058,-29.903535 16.47872,0 29.8898,13.412815 29.8898,29.903535 z M 136.84083,14.207575 c 30.38684,0 55.11023,24.71985 55.11023,55.10641 0,6.87831 -1.27195,13.46255 -3.58897,19.54397 -5.54129,-3.90494 -12.28796,-6.2158 -19.56356,-6.2158 -14.62312,0 -27.1205,9.26869 -31.94058,22.233265 -3.9825,-10.738075 -13.23846,-18.936335 -24.60535,-21.431535 0.11566,-1.27991 0.18867,-2.57991 0.18867,-3.8899 0,-16.32142 -9.95317,-30.36154 -24.121095,-36.36113 9.32356,-17.24481 27.574675,-28.98528 48.520865,-28.98528 z m -17.7895,-13.67088 c -65.456075,0 -118.518355,53.06553 -118.518355,118.528545 0,65.4599 53.06228,118.51806 118.518355,118.51806 65.463,0 118.53569,-53.05816 118.53569,-118.51807 0,-65.463005 -53.07269,-118.528535 -118.5357,-118.528535"
     style="fill:#367ec2;fill-opacity:1;fill-rule:nonzero;stroke:none;stroke-width:0.255006"
     id="path14"
     inkscape:connector-curvature="0" />
</svg>
