<svg height="512pt" viewBox="0 0 512 512" width="512pt" xmlns="http://www.w3.org/2000/svg"><path d="m512 256c0 141.386719-114.613281 256-256 256s-256-114.613281-256-256 114.613281-256 256-256 256 114.613281 256 256zm0 0" fill="#0053bf"/><path d="m511.878906 263.648438-76.878906-76.878907-5.808594 8.421875-134.191406-134.191406-27 9.46875-191 323.292969 108.363281 108.363281c22.4375 6.425781 46.132813 9.875 70.636719 9.875 138.824219 0 251.832031-110.507812 255.878906-248.351562zm0 0" fill="#0741a8"/><path d="m271 131h-30v-70h54v30h-24zm0 0" fill="#ff7045"/><path d="m255.90625 61v70h15.09375v-40h24v-30zm0 0" fill="#de4726"/><path d="m77 186.769531h358v206.992188h-358zm0 0" fill="#fff"/><path d="m255.90625 186.769531h179.09375v206.992188h-179.09375zm0 0" fill="#e9edf5"/><path d="m335.496094 186.769531h-158.992188c0-42.246093 34.25-76.496093 76.496094-76.496093h6c42.246094 0 76.496094 34.25 76.496094 76.496093zm0 0" fill="#dce1eb"/><path d="m335.496094 186.769531c0-42.246093-34.25-76.496093-76.496094-76.496093h-3.09375v76.496093zm0 0" fill="#cdd2e1"/><path d="m287.835938 186.769531h-63.671876v-44.660156c0-17.582031 14.253907-31.835937 31.835938-31.835937s31.835938 14.253906 31.835938 31.835937zm0 0" fill="#cdd2e1"/><path d="m287.835938 142.109375c0-17.582031-14.253907-31.835937-31.835938-31.835937-.03125 0-.0625.003906-.09375.003906v76.492187h31.929688zm0 0" fill="#bec3d2"/><path d="m146.027344 275.261719h-42.054688v-29.496094c0-11.613281 9.414063-21.027344 21.027344-21.027344s21.027344 9.414063 21.027344 21.027344zm0 0" fill="#cdd2e1"/><path d="m233.363281 275.261719h-42.058593v-29.496094c0-11.613281 9.417968-21.027344 21.03125-21.027344 11.613281 0 21.027343 9.414063 21.027343 21.027344zm0 0" fill="#cdd2e1"/><path d="m320.695312 275.261719h-42.054687v-29.496094c0-11.613281 9.414063-21.027344 21.027344-21.027344s21.027343 9.414063 21.027343 21.027344zm0 0" fill="#bec3d2"/><path d="m408.027344 275.261719h-42.054688v-29.496094c0-11.613281 9.414063-21.027344 21.027344-21.027344s21.027344 9.414063 21.027344 21.027344zm0 0" fill="#bec3d2"/><path d="m146.027344 363.757812h-42.054688v-29.5c0-11.613281 9.414063-21.027343 21.027344-21.027343s21.027344 9.414062 21.027344 21.027343zm0 0" fill="#cdd2e1"/><path d="m233.363281 363.757812h-42.058593v-29.5c0-11.613281 9.417968-21.027343 21.03125-21.027343 11.613281 0 21.027343 9.414062 21.027343 21.027343zm0 0" fill="#cdd2e1"/><g fill="#bec3d2"><path d="m320.695312 363.757812h-42.054687v-29.5c0-11.613281 9.414063-21.027343 21.027344-21.027343s21.027343 9.414062 21.027343 21.027343zm0 0"/><path d="m408.027344 363.757812h-42.054688v-29.5c0-11.613281 9.414063-21.027343 21.027344-21.027343s21.027344 9.414062 21.027344 21.027343zm0 0"/></g></svg>