<svg width="900" height="900" version="1.1" viewBox="0 0 238.12 238.12" xmlns="http://www.w3.org/2000/svg">
 <defs>
  <linearGradient id="linearGradient50" x2="1" gradientTransform="matrix(167.1 0 0 163.57 39.844 42.842)" gradientUnits="userSpaceOnUse">
   <stop stop-color="#f7973e" offset="0"/>
   <stop stop-color="#f14169" offset="1"/>
  </linearGradient>
 </defs>
 <circle class="" cx="119.06" cy="119.06" r="118.4" fill="#682138" stroke-width=".4625" data-original="#19cffc"/>
 <path d="m194.17 203.73v-0.0767h-0.077v-0.0767h-0.0767v-0.0767h-0.0786v-0.0789h-0.078v-0.0769h-0.0769v-0.0772h-0.0772v-0.0784h-0.0785v-0.0772h-0.0774v-0.0786h-0.0769v-0.0769h-0.0784v-0.0789h-0.0769v-0.0769h-0.0774v-0.0774h-0.0782v-0.0769h-0.0787v-0.0782h-0.0756v-0.0787h-0.0767v-0.0767h-0.0772v-0.0791h-0.0793v-0.0771h-0.0769v-0.0769h-0.0756v-0.0767h-0.0765v-0.0786h-0.0786v-0.0774h-0.0786v-0.0769h-0.077v-0.0769h-0.0786v-0.0784h-0.0765v-0.15899h-0.0773v-0.078h-0.0784v-0.0776h-0.0787v-0.0767h-0.0772v-0.0767h-0.0776v-0.0769h-0.0784v-0.0785h-0.0784v-0.0782h-0.0769v-0.0767h-0.0787v-0.0782h-0.0786v-0.0769h-0.0769v-0.0763h-0.0765v-0.0786h-0.0769v-0.0782h-0.0789v-0.0765h-0.0788v-0.0773h-0.0774v-0.0784h-0.0767v-0.0784h-0.0786v-0.0772h-0.0769v-0.0765h-0.0774v-0.0782h-0.0778v-0.0786h-0.0789v-0.0767h-0.0763v-0.0787h-0.0772v-0.0784h-0.0786v-0.0786h-0.0784v-0.0769h-0.0772v-0.0765h-0.0767v-0.0784h-0.0785v-0.0782h-0.0767v-0.0769h-0.0774v-0.0823h-0.0773v-0.0782h-0.0785v-0.0769h-0.0763v-0.0774h-0.0772v-0.0785h-0.0786v-0.0784h-0.0786v-0.0765h-0.0771v-0.0778h-0.0767v-0.0784h-0.0787v-0.077h-0.0769v-0.0754h-0.0771v-0.0767h-0.0829v-0.0787h-0.0784v-0.0782h-0.0769v-0.0774h-0.0767v-0.0765h-0.0772v-0.0789h-0.0787v-0.0801h-0.0823v-0.0774h-0.0769v-0.0784h-0.0786v-0.0789h-0.0784v-0.078h-0.0769v-0.0767h-0.0769v-0.0784h-0.0772v-0.0789h-0.0776v-0.0786h-0.0776v-0.0769h-0.0769v-0.0786h-0.0786v-0.0786h-0.0769v-0.0771h-0.0772v-0.0787h-0.078v-0.0786h-0.0772v-0.0769h-0.0769v-0.0771h-0.0787v-0.0786h-0.0784v-0.0786h-0.0772v-0.0782h-0.0771v-0.0772h-0.0786v-0.0784h-0.0789v-0.0772h-0.078v-0.077h-0.0769v-0.0776h-0.0776v-0.0782h-0.0789v-0.0786h-0.0769v-0.0765h-0.0767v-0.0786h-0.0786v-0.0748h-0.0776v-0.0786h-0.0771v-0.0821h-0.0767v-0.0808h-0.0784v-0.0787h-0.0784v-0.078h-0.077v-0.0769h-0.0763v-0.0859h-0.0853v-0.0765h-0.0767v-0.0782h-0.0767v-0.0787h-0.0787v-0.0876h-0.078v-0.0769h-0.0881v-0.0787h-0.0776v-0.0784h-0.0731v-0.0778h-0.0769v-0.0786h-0.0806v-0.0767h-0.0778v-0.0787h-0.0778v-0.0769h-0.0769v-0.0771h-0.0767v-0.0784h-0.0812v-0.0771h-0.0786v-0.0769h-0.0771v-0.0786h-0.0767v-0.0784h-0.0782v-0.0771h-0.0758v-0.0782h-0.0769v-0.0681h-0.0771v-0.0784h-0.0825v-0.0772h-0.0784v-0.0778h-0.0771v-0.0772h-0.0765v-0.0791h-0.0782v-0.0763h-0.0771v-0.0769h-0.0771v-0.0765h-0.0806v-0.0784h-0.078v-0.0772h-0.0772v-0.0787h-0.0772v-0.0769h-0.0778v-0.0784h-0.078v-0.0765h-0.0784v-0.0823h-0.0772v-0.0787h-0.0778v-0.0784h-0.077v-0.0771h-0.0774v-0.0767h-0.0771v-0.0786h-0.0786v-0.0786h-0.0769v-0.0784h-0.0769v-0.0771h-0.0785v-0.0769h-0.0791v-0.0771h-0.0765v-0.0767h-0.0784v-0.0782h-0.0784v-0.0786h-0.0782v-0.0769h-0.0769v-0.0716h-0.0771v-0.0767h-0.0872v-0.0784h-0.0791v-0.15955h-0.0767v-0.084h-0.0771v-0.0911h-0.0885v-0.0774h-0.0784v-0.0771h-0.0793v-0.0786h-0.0769v-0.0767h-0.0786v-0.0767h-0.0778v-0.0769h-0.077v-0.0776h-0.0769v-0.0755h-0.0786v-0.0771h-0.0769v-0.0778h-0.0782v-0.078h-0.0771v-0.0769h-0.0799v-0.0853h-0.0772v-0.0769h-0.0772v-0.0788h-0.0786v-0.077h-0.0769v-0.0767h-0.0769v-0.0782h-0.0771v-0.0892h-0.0787v-0.0771h-0.0767v-0.077h-0.0784v-0.078h-0.0834v-0.0846h-0.0791v-0.078h-0.0786v-0.0787h-0.0767v-0.0765h-0.0789v-0.0786h-0.0778v-0.0789h-0.0786v-0.0784h-0.0772v-0.069h-0.0767v-0.0769h-0.0784v-0.0776h-0.0907v-0.0771h-0.0784v-0.078h-0.0769v-0.0784h-0.0772v-0.0774h-0.0778v-0.0765h-0.0784v-0.0787h-0.0767v-0.0767h-0.0786v-0.0786h-0.0767v-0.0765h-0.0772v-0.0774h-0.0787v-0.0784h-0.0755v-0.0755h-0.0782v-0.0767h-0.0784v-0.0769h-0.0784v-0.0784h-0.0769v-0.0782h-0.0769v-0.0789h-0.0769v-0.0778h-0.0788v-0.0771h-0.0767v-0.0782h-0.0771v-0.0772h-0.0774v-0.0767h-0.0784v-0.0784h-0.0769v-0.0782h-0.0765v-0.0772h-0.0786v-0.0769h-0.077v-0.0782h-0.0789v-0.0782h-0.0767v-0.0771h-0.0784v-0.0769h-0.0784v-0.078h-0.077v-0.0767h-0.0772v-0.0771h-0.0769v-0.0793h-0.0769v-0.0782h-0.078v-0.0787h-0.0782v-0.0767h-0.0786v-0.0784h-0.0772v-0.0772h-0.0767v-0.0784h-0.0984v-0.0782h-0.0786v-0.0861h-0.0765v-0.0784h-0.0771v-0.0767h-0.0786v-0.0851h-0.078v-0.077h-0.0785v-0.0782h-0.0773v-0.0754h-0.0596v-0.0772h-0.0782v-0.0772h-0.077v-0.0787h-0.0787v-0.0765h-0.0769v-0.0771h-0.0778v-0.0767h-0.0771v-0.0786h-0.0789v-0.0787h-0.0767v-0.0767h-0.078v-0.0771h-0.0872v-0.0872h-0.0782v-0.0778h-0.0786v-0.0771h-0.0767v-0.0785h-0.0919v-0.0786h-0.0785v-0.0787h-0.0786v-0.078h-0.0598v-0.0577h-0.0769v-0.0769h-0.10162v-0.0784h-0.0787v-0.0771h-0.0771v-0.0786h-0.0782v-0.0784h-0.0771v-0.0769h-0.039v-0.0765h-0.0769v-0.0613h-0.0784v-0.0782h-0.0778v-0.0786h-0.0872v-0.0771h-0.0787v-0.0782h-0.0767v-0.0786h-0.0782v-0.0772h-0.0785v-0.0784h-0.0784v-0.0769h-0.0771v-0.0784h-0.0784v-0.0754h-0.0769v-0.0765h-0.0786v-0.0789h-0.0767v-0.0786h-0.0787v-0.0782h-0.0784v-0.0782h-0.0776v-0.0784h-0.0782v-0.0788h-0.0769v-0.0769h-0.0784v-0.0857h-0.0776v-0.0771h-0.0772v-0.0784h-0.0763v-0.077h-0.078v-0.0773h-0.0849v-0.0769h-0.0787v-0.0786h-0.0767v-0.0769h-0.0776v-0.0784h-0.0787v-0.0778h-0.0782v-0.0771h-0.0786v-0.15824h-0.078v-0.0767h-0.0769v-0.0784h-0.0784v-0.0774h-0.0782v-0.0868h-0.0767v-0.0771h-0.0829v-0.078h-0.0778v-0.0772h-0.0791v-0.0816h-0.0776v-0.0769h-0.0771v-0.0784h-0.0765v-0.0767h-0.0789v-0.0787h-0.0769v-0.0784h-0.0769v-0.0784h-0.075v-0.0754h-0.0782v-0.0778h-0.0769v-0.0774h-0.0789v-0.0778h-0.078v-0.10649h-0.0767v-0.0782h-0.0774v-0.0769h-0.0844v-0.0784h-0.0786v-0.10162h-0.0769v-0.10836h-0.077v-0.0776h-0.0778v-0.0786h-0.0791v-0.078h-0.0771v-0.0956h-0.0782v-0.0771h-0.0771v-0.0866h-0.0789v-0.0791h-0.0521v-0.0784h-0.0784v-0.078h-0.0784v-0.0767h-0.0769v-0.0784h-0.078v-0.0718h-0.0776v-0.0784h-0.0782v-0.0769h-0.0787v-0.0964h-0.0763v-0.0786h-0.0789v-0.0769h-0.0787v-0.0771h-0.077v-0.0787h-0.0771v-0.0771h-0.0772v-0.0782h-0.0786v-0.0786h-0.0821v-0.0771h-0.0765v-0.0782h-0.0769v-0.0771h-0.0776v-0.0772h-0.0767v-0.0756h-0.0769v-0.0765h-0.0784v-0.0772h-0.0787v-0.0812h-0.078v-0.0784h-0.0778v-0.0767h-0.0785v-0.0784h-0.0788v-0.0791h-0.0767v-0.0769h-0.077v-0.0784h-0.0786v-0.0772h-0.0787v-0.0787h-0.0784v-0.0763h-0.0771v-0.078h-0.0547v-0.062h-0.0767v-0.0784h-0.0784v-0.0786h-0.0789v-0.0921h-0.0782v-0.0787h-0.0769v-0.0538h-0.0769v-0.078h-0.078v-0.0784h-0.0788v-59.149h-0.0765v-2.0835h-0.0786v-1.0746h-0.0772v-1.0418h-0.078v-0.82001h-0.0782v-0.64563h-0.0776v-0.56104h-0.0784v-0.65505h-0.0771v-0.56106h-0.0765v-0.48074h-0.10987v-0.40063h-0.0787v-0.48076h-0.0735v-0.48082h-0.0767v-0.38942h-0.0771v-0.40053h-0.0786v-0.40086h-0.0887v-0.35367h-0.10106v-0.32046h-0.0769v-0.40089h-0.0784v-0.35194h-0.0782v-0.3207h-0.0786v-0.42099h-0.1033v-0.24463h-0.0771v-0.32076h-0.0784v-0.23552h-0.0771v-0.32061h-0.0786v-0.24041h-0.0782v-0.34982h-0.0782v-0.23938h-0.0771v-0.3206h-0.0771v-0.27003h-0.0787v-0.24033h-0.0763v-0.26251h-0.0769v-0.21394h-0.0774v-0.24041h-0.0778v-0.21386h-0.0776v-0.24041h-0.0782v-0.24046h-0.0778v-0.21443h-0.0926v-0.2612h-0.0776v-0.24039h-0.0786v-0.24052h-0.0784v-0.15936h-0.078v-0.24037h-0.0913v-0.15955h-0.0785v-0.24033h-0.0486v-0.1588h-0.0907v-0.24037h-0.0776v-0.24039h-0.078v-0.15917h-0.0787v-0.24305h-0.0772v-0.15861h-0.077v-0.23945h-0.0789v-0.15805h-0.0784v-0.15936h-0.0769v-0.1588h-0.0778v-0.24041h-0.0772v-0.15898h-0.0776v-0.15974h-0.0765v-0.15955h-0.0787v-0.24039h-0.0767v-0.15917h-0.0786v-0.15898h-0.0765v-0.15955h-0.0787v-0.24035h-0.0774v-0.15786h-0.0782v-0.15936h-0.0769v-0.15936h-0.0782v-0.17717h-0.0772v-0.15768h-0.0778v-0.15804h-0.0784v-0.15899h-0.0767v-0.15973h-0.0784v-0.15899h-0.0771v-0.15917h-0.0784v-0.15786h-0.0767v-0.0757h-0.0784v-0.1588h-0.0769v-0.15974h-0.0787v-0.15936h-0.0767v-0.15973h-0.0788v-0.15955h-0.0885v-0.15898h-0.0772v-0.15955h-0.078v-0.0982h-0.0772v-0.15917h-0.0784v-0.15955h-0.0769v-0.1588h-0.0772v-0.0774h-0.0939v-0.15898h-0.0771v-0.15899h-0.0787v-0.16273h-0.0776v-0.0774h-0.0774v-0.15918h-0.0782v-0.15917h-0.0771v-0.15823h-0.0907v-0.09h-0.0771v-0.1588h-0.0784v-0.18074h-0.0765v-0.0784h-0.0774v-0.15805h-0.0767v-0.0778h-0.0786v-0.15936h-0.0767v-0.078h-0.0774v-0.15936h-0.077v-0.15955h-0.0707v-0.0804h-0.0774v-0.15936h-0.0769v-0.0778h-0.0774v-0.15899h-0.0664v-0.0778h-0.0771v-0.1588h-0.0772v-0.15898h-0.0787v-0.0791h-0.0778v-0.16049h-0.0771v-0.0782h-0.12018v-0.0789h-0.0787v-0.15973h-0.0772v-0.0778h-0.0771v-0.17248h-0.077v-0.078h-0.0788v-0.15899h-0.0767v-0.0774h-0.077v-0.078h-0.0786v-0.15805h-0.0782v-0.0778h-0.0774v-0.15936h-0.0767v-0.0772h-0.0784v-0.0782h-0.0769v-0.15898h-0.0786v-0.0786h-0.0769v-0.15973h-0.0784v-0.0787h-0.0767v-0.0523h-0.0772v-0.15936h-0.0383v-0.0771h-0.0778v-0.0778h-0.0778v-0.15936h-0.0771v-0.0778h-0.0784v-0.0769h-0.078v-0.0778h-0.0771v-0.15692h-0.0782v-0.078h-0.078v-0.0763h-0.0773v-0.078h-0.077v-0.15917h-0.0776v-0.078h-0.0786v-0.0769h-0.0767v-0.15918h-0.0769v-0.0806h-0.0789v-0.0786h-0.0786v-0.0767h-0.0771v-0.19172h-0.0767v-0.0778h-0.0784v-0.0786h-0.0786v-0.0786h-0.0769v-0.0771h-0.0943v-0.15992h-0.0787v-0.0772h-0.0784v-0.0791h-0.0767v-0.12787h-0.0786v-0.11323h-0.11081v-0.0791h-0.0785v-0.15974h-0.0763v-0.0999h-0.0791v-0.0782h-0.0786v-0.0787h-0.096v-0.10311h-0.0771v-0.0791h-0.0998v-0.078h-0.0769v-0.15974h-0.0825v-0.078h-0.0772v-0.0531h-0.0771v-0.0791h-0.0769v-0.10592h-0.0936v-0.0797h-0.0774v-0.0795h-0.0769v-0.0804h-0.0788v-0.0787h-0.0765v-0.1138h-0.0769v-0.16048h-0.0772v-0.102h-0.0784v-0.10367h-0.0787v-0.0797h-0.077v-0.0797h-0.0771v-0.15149h-0.0952v-0.08h-0.0525v-0.0928h-0.0769v-0.0797h-0.0778v-0.08h-0.0787v-0.0799h-0.0787v-0.0799h-0.0771v-0.0799h-0.0786v-0.0793h-0.0776v-0.0808h-0.0772v-0.0795h-0.0784v-0.0576h-0.0782v-0.0793h-0.0844v-0.0793h-0.0786v-0.0793h-0.0776v-0.0967h-0.0786v-0.0793h-0.0771v-0.0791h-0.0771v-0.0979h-0.0787v-0.10349h-0.0769v-0.0793h-0.0776v-0.0793h-0.0771v-0.0814h-0.0786v-0.0791h-0.0782v-0.0795h-0.0771v-0.11305h-0.0765v-0.0793h-0.0791v-0.0799h-0.0786v-0.0793h-0.0765v-0.0795h-0.0778v-0.0823h-0.0784v-0.0793h-0.15971v-0.11286h-0.0793v-0.0795h-0.0784v-0.0803h-0.077v-0.0855h-0.0339v-0.08h-0.0778v-0.0801h-0.0771v-0.08h-0.077v-0.075h-0.15936v-0.0804h-0.0772v-0.11136h-0.0786v-0.0877h-0.1318v-0.0872h-0.0784v-0.0804h-0.078v-0.0801h-0.15861v-0.1122h-0.0754v-0.0728h-0.0769v-0.0801h-0.078v-0.0801h-0.0767v-0.08h-0.0789v-0.08h-0.0771v-0.0821h-0.16348v-0.0713h-0.0988v-0.0727h-0.0784v-0.08h-0.0846v-0.0801h-0.12786v-0.0808h-0.15823v-0.0797h-0.0774v-0.082h-0.0786v-0.0801h-0.15936v-0.0801h-0.0774v-0.0774h-0.10836v-0.0801h-0.0782v-0.0855h-0.15993v-0.0805h-0.0782v-0.0801h-0.0769v-0.0801h-0.0782v-0.0796h-0.15955v-0.0799h-0.078v-0.0801h-0.0767v-0.0713h-0.0776v-0.0777h-0.15936v-0.0801h-0.0787v-0.0801h-0.0771v-0.0714h-0.15955v-0.0801h-0.0769v-0.0797h-0.15936v-0.0714h-0.0769v-0.0862h-0.0771v-0.0801h-0.15955v-0.0987h-0.0769v-0.0996h-0.15698v-0.0801h-0.0782v-0.0795h-0.0769v-0.0801h-0.15973v-0.0797h-0.0787v-0.0799h-0.12824v-0.0812h-0.15955v-0.0924h-0.0782v-0.0801h-0.15936v-0.0981h-0.0769v-0.0807h-0.15973v-0.0801h-0.0774v-0.0801h-0.15974v-0.08h-0.0767v-0.0801h-0.15992v-0.0801h-0.077v-0.0801h-0.15936v-0.0836h-0.0784v-0.0801h-0.15974v-0.0801h-0.0769v-0.063h-0.19022v-0.0802h-0.15974v-0.0802h-0.077v-0.10178h-0.15974v-0.0802h-0.0767v-0.0801h-0.15955v-0.081h-0.0771v-0.0801h-0.15899v-0.08h-0.15936v-0.0801h-0.078v-0.0978h-0.15955v-0.0801h-0.15954v-0.0808h-0.0784v-0.0748h-0.15955v-0.0801h-0.15955v-0.0951h-0.15936v-0.0801h-0.0784v-0.0999h-0.21308v-0.0971h-0.15973v-0.0802h-0.15974v-0.10529h-0.13348v-0.0817h-0.15936v-0.0797h-0.18242v-0.0801h-0.0767v-0.0801h-0.16011v-0.0802h-0.15954v-0.0786h-0.15843v-0.08h-0.19254v-0.0801h-0.16011v-0.0724h-0.15917v-0.0802h-0.15974v-0.0796h-0.15954v-0.0803h-0.15955v-0.0909h-0.15936v-0.0801h-0.15917v-0.0796h-0.15955v-0.0801h-0.15824v-0.0801h-0.15936v-0.0801h-0.11605v-0.0801h-0.24046v-0.0803h-0.15918v-0.0796h-0.15861v-0.0801h-0.15823v-0.081h-0.15992v-0.0802h-0.24401v-0.0801h-0.15974v-0.0864h-0.15804v-0.0801h-0.15955v-0.0878h-0.15936v-0.0801h-0.20949v-0.0734h-0.15936v-0.0799h-0.15918v-0.0801h-0.15861v-0.08h-0.2336v-0.0801h-0.15955v-0.0805h-0.26071v-0.0801h-0.15955v-0.0801h-0.24039v-0.0857h-0.15954v-0.0801h-0.26223v-0.0801h-0.28151v-0.0808h-0.15955v-0.0799h-0.2381v-0.0801h-0.15917v-0.0792h-0.2585v-0.0801h-0.24373v-0.0825h-0.19013v-0.0802h-0.23909v-0.0801h-0.22603v-0.0809h-0.17717v-0.08h-0.25081v-0.0809h-0.24043v-0.0643h-0.26242v-0.10019h-0.22179v-0.0801h-0.23561v-0.0801h-0.32031v-0.0801h-0.27373v-0.0801h-0.32039v-0.0801h-0.26887v-0.08h-0.35124v-0.0801h-0.30978v-0.12597h-0.322v-0.0801h-0.24039v-0.0801h-0.34727v-0.0801h-0.32069v-0.0795h-0.32043v-0.0801h-0.42913v-0.0982h-0.37494v-0.10106h-0.32575v-0.0801h-0.32067v-0.10047h-0.40063v-0.0803h-0.42351v-0.0801h-0.40055v-0.0797h-0.48078v-0.0801h-0.38254v-0.0799h-0.48093v-0.0801h-0.42111v-0.0805h-0.64105v-0.0801h-0.56082v-0.0801h-0.6183v-0.0788h-0.64938v-0.0801h-0.80143v-0.0801h-0.99765v-0.08h-1.0173v-0.0796h-2.1712v-0.0811h-13.786v-16.574h14.905v0.08007h2.0035v0.08007h1.0418v0.08009h1.0418v0.08007h1.0417v0.08007h0.64102v0.08007h0.64104v0.08007h0.64121v0.08007h0.64108v0.08002h0.56087v0.08007h0.56082v0.08007h0.48104v0.08015h0.48074v0.08007h0.40082v0.08007h0.48078v0.08017h0.4004v0.08007h0.48099v0.08007h0.40061v0.08019h0.40073v0.08007h0.32039v0.08007h0.37033v0.08007h0.32059v0.08007h0.32041v0.08007h0.40067v0.08022h0.32071v0.08007h0.32059v0.08007h0.3203v0.08007h0.40083v0.0799h0.24051v0.08007h0.32055v0.08007h0.24037v0.07989h0.32043v0.08028h0.24048v0.08007h0.3205v0.08007h0.24036v0.08007h0.3207v0.08007h0.27178v0.08007h0.32046v0.08007h0.25205v0.08007h0.32056v0.08007h0.24048v0.08007h0.24041v0.08007h0.24047v0.08007h0.15917v0.08007h0.24043v0.08007h0.24033v0.08007h0.24035v0.08007h0.24043v0.08007h0.24039v0.08007h0.24037v0.08007h0.21373v0.08007h0.24045v0.08007h0.24046v0.08041h0.24045v0.08007h0.15898v0.08007h0.2406v0.08007h0.15861v0.08007h0.24039v0.08007h0.15992v0.07989h0.24037v0.08007h0.15936v0.08007h0.24039v0.08007h0.15805v0.08007h0.24037v0.08007h0.16011v0.08007h0.24039v0.08007h0.15955v0.08007h0.24039v0.08007h0.15786v0.08007h0.20656v0.08007h0.16049v0.07964h0.15936v0.08007h0.15786v0.08007h0.1603v0.08007h0.24048v0.08007h0.15936v0.08049h0.15824v0.08007h0.15936v0.08007h0.1601v0.08007h0.24043v0.08007h0.15936v0.08007h0.15955v0.08007h0.15992v0.08007h0.15955v0.08007h0.24048v0.08007h0.15974v0.08007h0.15898v0.08007h0.15936v0.08007h0.15824v0.08007h0.15936v0.08007h0.16067v0.08007h0.15749v0.08007h0.15936v0.08007h0.15992v0.08007h0.0769v0.08007h0.16011v0.08007h0.15936v0.08007h0.15917v0.07942h0.16011v0.08007h0.15861v0.08007h0.15917v0.08007h0.15936v0.08007h0.15917v0.08007h0.15917v0.07944h0.15993v0.08007h0.15879v0.08007h0.1588v0.08002h0.0767v0.08007h0.15899v0.08007h0.15973v0.08007h0.0787v0.08007h0.15955v0.08007h0.15899v0.08007h0.15879v0.0809h0.0784v0.08007h0.15767v0.08007h0.15993v0.08007h0.15954v0.08007h0.0773v0.08007h0.15954v0.0809h0.15805v0.08007h0.0786v0.08007h0.15805v0.08007h0.15786v0.08007h0.16029v0.08007h0.0778v0.08007h0.15955v0.08007h0.15973v0.08007h0.0769v0.08007h0.15992v0.08007h0.0782v0.08007h0.15974v0.08007h0.0765v0.07923h0.15973v0.08007h0.15805v0.08007h0.0767v0.08007h0.15917v0.08097h0.0769v0.08007h0.16011v0.08007h0.0774v0.08007h0.1603v0.08007h0.0774v0.08007h0.16011v0.08007h0.0767v0.08009h0.15973v0.08007h0.16011v0.08109h0.0769v0.08007h0.15899v0.08007h0.078v0.08007h0.15805v0.08007h0.0767v0.08007h0.15786v0.08007h0.0769v0.08007h0.0769v0.08007h0.16049v0.08007h0.0769v0.07914h0.15974v0.08007h0.0772v0.08007h0.0771v0.08007h0.15823v0.08007h0.0772v0.08007h0.0784v0.08007h0.16011v0.08007h0.0789v0.08007h0.15974v0.08007h0.0786v0.08007h0.0786v0.08007h0.15842v0.08007h0.0782v0.08007h0.15936v0.08007h0.0784v0.08007h0.0767v0.08007h0.15973v0.08007h0.0786v0.08007h0.16011v0.08007h0.078v0.08007h0.0774v0.08007h0.0769v0.08007h0.1603v0.08007h0.0769v0.08007h0.0649v0.08007h0.0771v0.08007h0.15936v0.08007h0.0615v0.08007h0.0771v0.08007h0.0769v0.08007h0.15843v0.08054h0.0786v0.08135h0.0782v0.08007h0.15936v0.08007h0.0787v0.08007h0.0771v0.08007h0.0771v0.08007h0.15954v0.08007h0.0778v0.08007h0.0782v0.08007h0.0784v0.08007h0.15917v0.08007h0.0784v0.08013h0.0767v0.0801h0.0786v0.0801h0.1588v0.0801h0.0769v0.0801h0.077v0.0801h0.0787v0.0801h0.0767v0.0801h0.0773v0.0801h0.077v0.0801h0.15917v0.0801h0.0769v0.0801h0.0784v0.0801h0.078v0.0801h0.0769v0.0801h0.0784v0.0801h0.0784v0.0801h0.16029v0.0801h0.078v0.0801h0.077v0.0801h0.0778v0.0801h0.0787v0.0801h0.077v0.0801h0.0767v0.0801h0.16011v0.0801h0.0765v0.0801h0.077v0.0801h0.0782v0.0801h0.0772v0.0801h0.0784v0.0801h0.0774v0.0801h0.0782v0.0801h0.0773v0.0801h0.15898v0.0801h0.0769v0.0816h0.0769v0.0801h0.0791v0.0801h0.0784v0.0804h0.0786v0.0801h0.077v0.0801h0.0771v0.0801h0.0782v0.0801h0.0784v0.0801h0.0771v0.0801h0.0787v0.0801h0.0772v0.0801h0.0767v0.0801h0.0767v0.0801h0.0786v0.0801h0.0769v0.0801h0.0767v0.0801h0.0776v0.0801h0.0787v0.0801h0.0772v0.0801h0.0767v0.0801h0.0769v0.0801h0.0787v0.0801h0.0786v0.0801h0.16029v0.0802h0.0772v0.1602h0.0769v0.0801h0.0782v0.0801h0.0786v0.0801h0.078v0.0801h0.0767v0.0801h0.0786v0.0801h0.0784v0.0801h0.0771v0.0801h0.0782v0.0801h0.0787v0.0801h0.0771v0.0801h0.0767v0.0801h0.0772v0.0801h0.0787v0.0801h0.0767v0.0801h0.0769v0.0801h0.0786v0.16225h0.0787v0.0801h0.077v0.0801h0.0767v0.0801h0.0784v0.0801h0.0776v0.0801h0.0772v0.0801h0.0767v0.0801h0.0782v0.0801h0.0782v0.0801h0.0769v0.0801h0.0782v0.0801h0.0784v0.0801h0.0785v0.16039h0.0767v0.0801h0.0786v0.0801h0.0782v0.0801h0.0771v0.0801h0.0767v0.0801h0.0784v0.16337h0.0774v0.0801h0.0778v0.0801h0.0767v0.0822h0.0782v0.0801h0.0786v0.0801h0.0782v0.0801h0.0791v0.16041h0.0784v0.0823h0.078v0.0801h0.0771v0.0801h0.0787v0.0823h0.0771v0.0801h0.0782v0.1602h0.0769v0.0801h0.0786v0.0801h0.077v0.0805h0.0771v0.0801h0.0771v0.0801h0.0786v0.16039h0.0784v0.0801h0.0771v0.0822h0.0787v0.1604h0.0767v0.0801h0.0778v0.0801h0.0771v0.0801h0.0786v0.16039h0.0786v0.0801h0.0772v0.0801h0.0771v0.0801h0.0786v0.1602h0.0771v0.0801h0.0771v0.0801h0.0778v0.16039h0.0774v0.0801h0.0771v0.0801h0.078v0.0801h0.0787v0.16021h0.0769v0.0801h0.0767v0.0801h0.0767v0.16045h0.0787v0.0801h0.0786v0.0801h0.0767v0.0802h0.0767v0.16021h0.0782v0.0801h0.0771v0.1602h0.0772v0.0801h0.0787v0.0801h0.0776v0.16039h0.077v0.0801h0.0772v0.16039h0.0787v0.0801h0.078v0.0801h0.0782v0.15819h0.0769v0.0801h0.0789v0.16262h0.078v0.0801h0.0778v0.16242h0.077v0.08h0.0771v0.0801h0.0776v0.1603h0.0784v0.08h0.0787v0.16049h0.078v0.0797h0.0786v0.0801h0.0769v0.15842h0.0784v0.0776h0.0772v0.16067h0.0771v0.0795h0.0778v0.16086h0.0772v0.0795h0.0771v0.16048h0.0782v0.0793h0.0772v0.16048h0.0769v0.1603h0.0782v0.0793h0.0784v0.16011h0.0784v0.0793h0.0788v0.16011h0.0767v0.077h0.0789v0.15824h0.0786v0.16048h0.0765v0.0797h0.0787v0.16068h0.0786v0.0797h0.0769v0.16067h0.0784v0.0799h0.0782v0.16254h0.0772v0.1603h0.0769v0.0793h0.0769v0.16048h0.0782v0.0797h0.0786v0.15955h0.0782v0.15973h0.0772v0.1603h0.0773v0.0795h0.078v0.15824h0.0786v0.15973h0.0782v0.15992h0.0769v0.0788h0.0786v0.15992h0.0767v0.1603h0.0782v0.15973h0.0791v0.0782h0.0767v0.15861h0.0767v0.15936h0.0785v0.15824h0.0784v0.0776h0.0784v0.15824h0.0786v0.15973h0.0787v0.15918h0.0771v0.0787h0.0767v0.15992h0.0782v0.15805h0.0772v0.1588h0.0771v0.15954h0.0782v0.1588h0.0778v0.15861h0.0791v0.15974h0.0782v0.15917h0.0772v0.15936h0.0784v0.15898h0.0778v0.15993h0.0784v0.15898h0.0786v0.15805h0.0774v0.15973h0.078v0.15955h0.0767v0.15824h0.0786v0.15992h0.0786v0.15973h0.0787v0.15824h0.0778v0.15898h0.0786v0.1603h0.0782v0.15824h0.0771v0.24041h0.0782v0.15898h0.0786v0.15974h0.0769v0.15879h0.0771v0.15824h0.0784v0.24041h0.0787v0.15973h0.0778v0.15899h0.0784v0.15936h0.0786v0.24039h0.0769v0.15992h0.0769v0.15898h0.0786v0.15899h0.0786v0.15955h0.0784v0.24037h0.0765v0.15898h0.0769v0.24037h0.0786v0.15861h0.0782v0.24204h0.0769v0.23833h0.0784v0.15973h0.0786v0.24038h0.0772v0.15804h0.0784v0.24154h0.0774v0.15917h0.0786v0.24043h0.0778v0.15879h0.0769v0.24043h0.0788v0.24041h0.078v0.15805h0.0782v0.24041h0.0769v0.24039h0.0786v0.24039h0.078v0.2405h0.0772v0.24041h0.0767v0.24042h0.0786v0.24041h0.0771v0.24037h0.0767v0.24041h0.0784v0.24035h0.0787v0.24045h0.0767v0.24041h0.0769v0.24044h0.0784v0.24043h0.0774v0.24043h0.0782v0.32052h0.0769v0.24054h0.0782v0.32048h0.0772v0.24528h0.0769v0.32067h0.0769v0.24041h0.0782v0.32022h0.0787v0.24045h0.0767v0.32057h0.0771v0.32073h0.078v0.24039h0.0772v0.4005h0.0772v0.32071h0.0786v0.3205h0.0767v0.40068h0.0769v0.32052h0.0776v0.40069h0.0786v0.32536h0.0771v0.32061h0.0767v0.40074h0.0784v0.39884h0.0782v0.40263h0.0789v0.48086h0.0769v0.4807h0.0784v0.40078h0.0782v0.48083h0.0772v0.48087h0.0778v0.40058h0.0771v0.64115h0.0787v0.63793h0.0765v0.64102h0.0774v0.64111h0.078v0.64106h0.0771v0.80136h0.0776v1.0416h0.0785v1.122h0.0769v1.2022h0.0769v2.404h0.0772v52.326h0.0787v0.0784h0.0782v0.0772h0.0784v0.077h0.0786v0.0786h0.0769v0.078h0.0787v0.0771h0.0771v0.0776h0.0784v0.0769h0.0771v0.0782h0.0786v0.0782h0.0716v0.0786h0.0769v0.0774h0.0769v0.0784h0.078v0.0771h0.0782v0.0782h0.0778v0.0776h0.0771v0.0772h0.0776v0.0765h0.0789v0.0787h0.0776v0.0778h0.0782v0.0784h0.0769v0.0769h0.0786v0.084h0.0772v0.0769h0.0771v0.0771h0.0769v0.078h0.0787v0.0787h0.078v0.0782h0.0784v0.0767h0.0782v0.0784h0.0771v0.0774h0.077v0.0784h0.0778v0.0771h0.0786v0.0784h0.0771v0.0782h0.0776v0.0782h0.0769v0.0771h0.0784v0.0787h0.078v0.0769h0.0786v0.0774h0.0769v0.0771h0.0789v0.0769h0.0769v0.0789h0.0784v0.0771h0.0786v0.0787h0.0769v0.0767h0.0771v0.0769h0.0769v0.0782h0.078v0.0791h0.0787v0.0769h0.0778v0.078h0.0772v0.0776h0.0786v0.0782h0.0767v0.0784h0.0789v0.0767h0.0767v0.0787h0.0784v0.0767h0.0771v0.0786h0.0774v0.0786h0.0769v0.0786h0.0786v0.0787h0.0767v0.0763h0.0778v0.15936h0.0789v0.0769h0.0769v0.077h0.0786v0.0782h0.0767v0.0772h0.078v0.0788h0.0787v0.0786h0.0788v0.0735h0.0767v0.0788h0.0786v0.0765h0.0771v0.0782h0.0767v0.0784h0.0782v0.0769h0.0784v0.0786h0.0767v0.0782h0.0769v0.0774h0.078v0.0767h0.0784v0.0767h0.078v0.0789h0.0767v0.0782h0.0771v0.0776h0.0771v0.0765h0.078v0.0787h0.0786v0.0772h0.0782v0.0786h0.0784v0.0772h0.0784v0.0771h0.0767v0.0782h0.0787v0.0771h0.0769v0.0787h0.0958v0.0881h0.0767v0.0769h0.0791v0.0784h0.0771v0.0782h0.0784v0.0774h0.0789v0.0784h0.0767v0.0786h0.0767v0.0772h0.0771v0.0767h0.0789v0.0772h0.0776v0.08h0.0785v0.0769h0.0765v0.0771h0.0772v0.0769h0.078v0.0778h0.0786v0.0787h0.0772v0.0771h0.0778v0.078h0.0771v0.0787h0.0787v0.0782h0.0786v0.0772h0.0767v0.0767h0.077v0.0789h0.0771v0.0771h0.0785v0.0786h0.078v0.0787h0.0786v0.0786h0.0778v0.0769h0.0782v0.0772h0.0786v0.0784h0.0765v0.0767h0.0786v0.0857h0.0784v0.0782h0.077v0.0789h0.0782v0.0771h0.0782v0.0767h0.0874v0.0823h0.0789v0.0769h0.0782v0.077h0.0765v0.0784h0.0789v0.0771h0.0772v0.0769h0.0769v0.0784h0.0787v0.0787h0.0771v0.0795h0.0784v0.0769h0.0769v0.0784h0.0784v0.0782h0.0789v0.0789h0.0767v0.0771h0.0778v0.0784h0.0786v0.0784h0.078v0.0776h0.0771v0.078h0.0769v0.0772h0.0787v0.0784h0.0769v0.0771h0.0767v0.0787h0.0786v0.0767h0.078v0.0786h0.0787v0.0771h0.0767v0.0789h0.0786v0.078h0.0784v0.0776h0.0773v0.0763h0.077v0.0787h0.0787v0.0784h0.0771v0.0769h0.0771v0.0765h0.0784v0.0787h0.0765v0.0787h0.0772v0.0771h0.0774v0.0787h0.0778v0.0765h0.0786v0.0786h0.0786v0.0767h0.0787v0.0789h0.0789v0.0787h0.0769v0.078h0.0765v0.0769h0.0771v0.078h0.0786v0.0789h0.0791v0.078h0.0767v0.0774h0.0784v0.0786h0.0771v0.0782h0.0782v0.0771h0.0774v0.0789h0.0782v0.0769h0.077v0.078h0.0784v0.0776h0.0772v0.0787h0.0772v0.0771h0.0776v0.0784h0.0786v0.0765h0.078v0.0772h0.0774v0.078h0.0782v0.078h0.0776v0.0784h0.0787v0.0784h0.0767v0.0782h0.0772v0.0772h0.0765v0.0784h0.0787v0.0767h0.0769v0.0789h0.0782v0.0771h0.0769v0.078h0.0784v0.0767h0.0767v0.0789h0.0784v0.15954h0.0789v0.0787h0.0769v0.0776h0.0782v0.0782h0.0771v0.0769h0.078v0.0782h0.0774v0.0772h0.0784v0.0771h0.0769v0.0769h0.0784v0.0769h0.0767v0.0784h0.0784v0.0786h0.0776v0.0787h0.0778v0.0771h0.0769v0.0782h0.0771v0.0771h0.0787v0.078h0.0771v0.0767h0.0772v0.0786h0.0778v0.0975h0.078v0.0782h0.0772v0.0772h0.078v0.0778h0.0769v0.0785h0.0793v0.0771h0.0767v0.077h0.077v0.078h0.0769v0.0772h0.0784v0.0772h0.0769v0.0771h0.0787v0.0782h0.077v0.0774h0.0782v0.0771h0.0771v0.0767h0.0782v0.0782h0.0787v0.078h0.0769v0.0782h0.0767v0.0786h0.0786v0.078h0.0784v0.0771h0.0784v0.0787h0.078v0.0786h0.0778v0.077h0.0784v0.0769h0.0765v0.0785h0.0772v0.0769h0.0787v0.0789h0.0782v0.0763h0.0767v0.0787h0.0787v0.078h0.0782v0.0776h0.0774v0.078h0.0776v0.0787h0.0782v0.0784h0.078v0.0769h0.0774v0.0771h0.0787v0.0771h0.0782v0.0786h0.0782v0.0769h0.0771v0.0782h0.0789v0.0765h0.0787v0.0774h0.0784v0.0784h0.0772v0.0767h0.0785v0.0784h0.0786v0.0782h0.0786v0.0772h0.0769v0.0773h0.0782v0.0784h0.0786v0.0769h0.0767v0.0786h0.0776v0.078h0.0784v0.0771h0.0786v0.0769h0.0765v0.078h0.0769v0.0791h0.0784v0.0782h0.0787v0.0769h0.0767v0.0769h0.0786v0.078h0.0784v0.0786h0.0767v0.0769h0.0774v0.0782h0.0784v0.0786h0.0785v0.0769h0.0769v0.0769h0.0784v0.0786h0.0782v0.0782h0.0787v0.0782h0.0771v0.0771h0.0784v0.0769h0.0778v0.0782h0.078v0.0784h0.078v0.0784h0.0784v0.0786h0.0784v0.0767h0.0767v0.0773h0.0772v0.0785h0.0784v0.078h0.0787v0.0776h0.0767v0.0771h0.0784v0.0774h0.0771v0.0776h0.0787v0.0772h0.0767v0.0765h0.078v0.0769h0.078v0.0787h0.0774v0.0763h0.0784v0.0787h0.0767v0.0774h0.0788v0.078h0.0769v0.0769h0.0767v0.0789h0.0786v0.0769h0.0784v0.0782h0.0771v0.0772h0.0772v0.0769h0.078v0.0784h0.0771v0.0769h0.0767v0.0782h0.0774v0.24041h-0.0774v0.0769h-0.0767v0.0772h-0.0771v0.0765h-0.078v0.0787h-0.0772v0.0784h-0.0771v0.0782h-0.0722v0.0769h-0.0784v0.0782h-0.0771v0.0769h-0.0769v0.0789h-0.0788v0.0767h-0.077v0.0782h-0.10593v0.0772h-0.0692v0.0784h-0.0776v0.0784h-0.0772v0.077h-0.0767v0.0782h-0.0782v0.0771h-0.0772v0.0782h-0.0788v0.0771h-0.0767v0.0787h-0.0787v0.0771h-0.0786v0.0786h-0.0765v0.0769h-0.0786v0.0767h-0.0784v0.0782h-0.0784v0.0782h-0.0767v0.0785h-0.0784v0.0767h-0.0771v0.0786h-0.0787v0.0772h-0.0771v0.0784h-0.0784v0.0769h-0.0782v0.0786h-0.0444v0.0772h-0.077v0.0782h-0.0782v0.0774h-0.0778v0.15918h-0.0774v0.077h-0.0778v0.0787h-0.0789v0.0771h-0.0767v0.0772h-0.0769v0.0784h-0.0784v0.0784h-0.0789v0.078h-0.0769v0.0778h-0.0771v0.0771h-0.0771v0.0782h-0.0784v0.0765h-0.0774v0.0786h-0.0769v0.0782h-0.0786v0.0769h-0.0786v0.0769h-0.0769v0.0784h-0.0429v0.0786h-0.0771v0.0771h-0.0786v0.0769h-0.0767v0.0776h-0.0786v0.0785h-0.0861v0.0769h-0.0782v0.0491h-0.0782v0.0784h-0.0784v0.0787h-0.0788v0.0767h-0.0769v0.078h-0.0769v0.0786h-0.0782v0.0784h-0.0786v0.0771h-0.0771v0.0776h-0.0786v0.0782h-0.0784v0.078h-0.0782v0.0771h-0.0774v0.0787h-0.0782v0.0782h-0.0769v0.0787h-0.0679v0.0782h-0.0767v0.0776h-0.0769v0.0786h-0.0786v0.0767h-0.0787v0.0769h-0.11774v0.0945h-0.077v0.0771h-0.0782v0.077h-0.0786v0.0784h-0.0782v0.0787h-0.0769v0.0763h-0.0786v0.0772h-0.077v0.0771h-0.0788v0.0789h-0.0784v0.0769h-0.0771v0.0769h-0.0778v0.0786h-0.0771v0.0782h-0.0789v0.0769h-0.0767v0.0774h-0.0769v0.078h-0.0769v0.0778h-0.0787v0.0769h-0.0782v0.078h-0.0555v0.0789h-0.0754v0.0776h-0.0787v0.0765h-0.0521v0.0782h-0.0782v0.0593h-0.0789v0.0767h-0.0767v0.0772h-0.0784v0.0784h-0.0769v0.0789h-0.0784v0.0772h-0.0772v0.0771h-0.078v0.0778h-0.0771v0.0782h-0.0789v0.0772h-0.0767v0.0769h-0.0771v0.0784h-0.0767v0.078h-0.0789v0.0773h-0.0771v0.077h-0.0821v0.0787h-0.0767v0.0767h-0.0786v0.0771h-0.0463v0.0769h-0.078v0.0782h-0.0788v0.0772h-0.0778v0.0785h-0.0784v0.0782h-0.077v0.0784h-0.0784v0.0767h-0.0771v0.0782h-0.0772v0.0788h-0.0767v0.0769h-0.0787v0.0767h-0.0769v0.0776h-0.0782v0.0786h-0.0774v0.078h-0.0786v0.0673h-0.0771v0.0786zm-86.466-30.371v-0.0767h-1.7625v-0.0793h-1.0421v-0.0767h-1.0418v-0.0767h-0.96136v-0.0782h-0.64113v-0.0776h-0.64094v-0.0769h-0.64069v-0.0767h-0.56138v-0.0787h-0.64089v-0.0769h-0.5609v-0.0774h-0.40094v-0.0769h-0.48078v-0.0782h-0.48079v-0.0763h-0.40103v-0.0791h-0.48068v-0.078h-0.40065v-0.078h-0.48121v-0.0769h-0.32039v-0.0767h-0.40063v-0.0791h-0.32064v-0.078h-0.32008v-0.0767h-0.32079v-0.0752h-0.40052v-0.0787h-0.32061v-0.0767h-0.32065v-0.0769h-0.4008v-0.0771h-0.32056v-0.0786h-0.24044v-0.0782h-0.32028v-0.0767h-0.24033v-0.0782h-0.32054v-0.0769h-0.24047v-0.0774h-0.32061v-0.078h-0.24033v-0.0782h-0.32041v-0.0786h-0.24046v-0.0767h-0.32064v-0.078h-0.24037v-0.0784h-0.32016v-0.0772h-0.24035v-0.0767h-0.24034v-0.0767h-0.15842v-0.0786h-0.24037v-0.0769h-0.24032v-0.0769h-0.24063v-0.0773h-0.24043v-0.0785h-0.24037v-0.0767h-0.24039v-0.0771h-0.24067v-0.0765h-0.24037v-0.0784h-0.24041v-0.0782h-0.24054v-0.0802h-0.15936v-0.0785h-0.24042v-0.0774h-0.24049v-0.0774h-0.1588v-0.078h-0.24033v-0.0786h-0.15992v-0.0767h-0.24088v-0.0771h-0.15917v-0.0787h-0.24013v-0.0772h-0.1588v-0.0771h-0.2408v-0.0771h-0.15973v-0.0786h-0.23977v-0.0767h-0.15974v-0.0774h-0.2409v-0.0784h-0.15898v-0.0786h-0.15898v-0.0767h-0.24045v-0.0772h-0.15936v-0.078h-0.15861v-0.0785h-0.15824v-0.078h-0.15992v-0.0771h-0.24041v-0.0784h-0.15898v-0.0787h-0.15824v-0.0771h-0.15954v-0.077h-0.15899v-0.0782h-0.24037v-0.0772h-0.15955v-0.0771h-0.15917v-0.0789h-0.1588v-0.0776h-0.15917v-0.0771h-0.24189v-0.0754h-0.15955v-0.0769h-0.15786v-0.0782h-0.15898v-0.0769h-0.078v-0.0769h-0.15843v-0.0789h-0.15973v-0.0803h-0.15917v-0.0772h-0.15786v-0.0744h-0.15899v-0.0784h-0.15955v-0.0784h-0.15879v-0.0786h-0.15843v-0.0872h-0.15992v-0.0785h-0.15805v-0.0782h-0.15823v-0.0773h-0.1603v-0.0767h-0.15955v-0.0784h-0.15804v-0.0788h-0.16049v-0.0784h-0.0772v-0.0782h-0.15936v-0.0784h-0.15899v-0.0784h-0.15804v-0.078h-0.0769v-0.0767h-0.15805v-0.0786h-0.15824v-0.0771h-0.15879v-0.0771h-0.0782v-0.0786h-0.15899v-0.0769h-0.15917v-0.0771h-0.0771v-0.077h-0.15898v-0.0784h-0.15805v-0.0699h-0.15898v-0.0791h-0.0784v-0.0782h-0.15899v-0.0752h-0.15823v-0.0767h-0.15917v-0.0769h-0.078v-0.084h-0.15879v-0.0787h-0.15955v-0.0776h-0.0778v-0.0767h-0.15917v-0.0769h-0.078v-0.0778h-0.15992v-0.0812h-0.15993v-0.0909h-0.0774v-0.0767h-0.15992v-0.0772h-0.0765v-0.0786h-0.15992v-0.077h-0.0778v-0.0778h-0.1603v-0.0786h-0.0791v-0.0787h-0.16068v-0.0769h-0.0804v-0.0769h-0.16067v-0.0772h-0.15973v-0.078h-0.0812v-0.077h-0.15974v-0.0784h-0.077v-0.0784h-0.15936v-0.0782h-0.0778v-0.0776h-0.15992v-0.0782h-0.0795v-0.0789h-0.1603v-0.0763h-0.0799v-0.0787h-0.16048v-0.0787h-0.0806v-0.078h-0.10293v-0.0771h-0.16236v-0.0776h-0.0838v-0.0868h-0.17305v-0.0761h-0.0832v-0.0784h-0.0799v-0.0784h-0.16029v-0.0772h-0.0731v-0.0786h-0.16011v-0.0769h-0.0791v-0.0862h-0.0782v-0.0786h-0.1603v-0.0782h-0.0819v-0.0769h-0.0789v-0.0816h-0.16554v-0.0784h-0.0793v-0.0838h-0.16048v-0.0789h-0.0759v-0.0769h-0.0793v-0.0784h-0.16067v-0.0776h-0.0801v-0.0767h-0.0795v-0.0825h-0.16123v-0.0786h-0.0833v-0.0782h-0.0832v-0.074h-0.08v-0.0769h-0.1603v-0.0786h-0.0866v-0.0776h-0.0846v-0.0767h-0.16208v-0.0769h-0.0801v-0.0784h-0.0801v-0.0789h-0.0801v-0.0767h-0.15494v-0.0786h-0.08v-0.078h-0.0845v-0.077h-0.0798v-0.0772h-0.16421v-0.0784h-0.0801v-0.0782h-0.0799v-0.0752h-0.0812v-0.0767h-0.16705v-0.0789h-0.0801v-0.0782h-0.0801v-0.0767h-0.0776v-0.0962h-0.1633v-0.0771h-0.08v-0.0782h-0.0802v-0.0767h-0.0803v-0.0767h-0.0801v-0.0782h-0.16034v-0.077h-0.0801v-0.0771h-0.0801v-0.0769h-0.0801v-0.0771h-0.0981v-0.0786h-0.0801v-0.0767h-0.0849v-0.063h-0.16039v-0.0823h-0.0801v-0.0786h-0.0799v-0.0769h-0.0841v-0.0772h-0.0801v-0.0776h-0.0801v-0.0776h-0.0801v-0.0834h-0.16056v-0.0863h-0.0801v-0.0782h-0.0801v-0.0759h-0.08v-0.078h-0.0844v-0.0784h-0.0801v-0.0785h-0.0776v-0.0771h-0.16322v-0.0782h-0.0801v-0.0596h-0.0801v-0.077h-0.0848v-0.0782h-0.0801v-0.0769h-0.0801v-0.0786h-0.0801v-0.0763h-0.0778v-0.0784h-0.0801v-0.0786h-0.0801v-0.0784h-0.0801v-0.0771h-0.0801v-0.0765h-0.0801v-0.0787h-0.0744v-0.10105h-0.08v-0.0786h-0.0801v-0.0782h-0.0801v-0.0776h-0.0805v-0.0784h-0.16193v-0.0752h-0.0801v-0.0772h-0.0801v-0.0767h-0.0769v-0.0999h-0.0801v-0.0851h-0.0801v-0.0771h-0.0801v-0.0774h-0.0801v-0.0765h-0.0805v-0.0787h-0.0797v-0.0769h-0.0801v-0.0771h-0.0801v-0.0786h-0.0801v-0.0772h-0.0795v-0.0786h-0.0804v-0.0767h-0.08v-0.0787h-0.08v-0.0784h-0.0804v-0.0774h-0.0801v-0.0767h-0.0847v-0.0787h-0.0797v-0.0778h-0.0798v-0.10293h-0.0801v-0.0754h-0.0801v-0.15936h-0.073v-0.0776h-0.0823v-0.0767h-0.0801v-0.0765h-0.0801v-0.0788h-0.0801v-0.078h-0.0803v-0.0769h-0.0801v-0.0769h-0.0801v-0.0786h-0.0837v-0.0786h-0.0801v-0.0769h-0.0796v-0.0787h-0.0796v-0.0771h-0.0788v-0.0784h-0.0787v-0.0744h-0.0804v-0.078h-0.0793v-0.0727h-0.08v-0.0771h-0.0801v-0.15842h-0.0801v-0.0782h-0.084v-0.0767h-0.0801v-0.0789h-0.0806v-0.0771h-0.0804v-0.0784h-0.0804v-0.0786h-0.0801v-0.15917h-0.0781v-0.0557h-0.0799v-0.0784h-0.0774v-0.0773h-0.08v-0.0784h-0.0808v-0.0769h-0.0801v-0.15786h-0.0801v-0.0786h-0.0819v-0.0787h-0.0772v-0.0767h-0.0805v-0.077h-0.0801v-0.0737h-0.0874v-0.15936h-0.0801v-0.0784h-0.0801v-0.0782h-0.08v-0.0771h-0.0801v-0.0654h-0.076v-0.078h-0.0798v-0.15974h-0.0815v-0.0754h-0.08v-0.0786h-0.0806v-0.0771h-0.0802v-0.0782h-0.0801v-0.15918h-0.0848v-0.0778h-0.0808v-0.0767h-0.0784v-0.078h-0.0846v-0.15805h-0.0768v-0.0782h-0.0801v-0.0771h-0.0807v-0.15936h-0.0801v-0.0767h-0.0797v-0.0769h-0.0865v-0.0823h-0.0795v-0.15917h-0.08v-0.0767h-0.0801v-0.10462h-0.0803v-0.15786h-0.0802v-0.0786h-0.0801v-0.0784h-0.07978v-0.0771h-0.08015v-0.15954h-0.08052v-0.0778h-0.08296v-0.0771h-0.08283v-0.15824h-0.07861v-0.0769h-0.08007v-0.0787h-0.07979v-0.078h-0.08026v-0.15955h-0.08007v-0.0787h-0.07981v-0.15955h-0.08013v-0.0782h-0.08007v-0.15973h-0.08007v-0.0771h-0.08118v-0.0769h-0.08036v-0.15954h-0.08007v-0.0782h-0.07994v-0.15955h-0.0803v-0.0772h-0.08007v-0.0784h-0.07964v-0.15918h-0.08007v-0.0769h-0.08007v-0.15824h-0.07077v-0.0774h-0.08007v-0.1588h-0.08007v-0.0784h-0.08005v-0.0786h-0.08116v-0.15805h-0.08007v-0.0785h-0.08054v-0.15974h-0.08009v-0.0772h-0.08007v-0.0787h-0.08007v-0.15974h-0.08011v-0.15804h-0.08036v-0.0769h-0.08007v-0.1588h-0.08007v-0.0767h-0.08009v-0.15917h-0.08103v-0.0782h-0.08564v-0.15842h-0.08007v-0.15955h-0.07867v-0.0787h-0.08007v-0.15824h-0.08007v-0.0782h-0.08088v-0.15823h-0.0793v-0.078h-0.08007v-0.15842h-0.08039v-0.15973h-0.08084v-0.0784h-0.08007v-0.15955h-0.08007v-0.0984h-0.07987v-0.17436h-0.08007v-0.0769h-0.07854v-0.15936h-0.08007v-0.15918h-0.08425v-0.0786h-0.08007v-0.15936h-0.08011v-0.15824h-0.08075v-0.15936h-0.08476v-0.0786h-0.08667v-0.15936h-0.07966v-0.1588h-0.08007v-0.15936h-0.08007v-0.0782h-0.08268v-0.15936h-0.08007v-0.15955h-0.07959v-0.15936h-0.0788v-0.0774h-0.08007v-0.15936h-0.08007v-0.17529h-0.07981v-0.16649h-0.08007v-0.0786h-0.08004v-0.15861h-0.07846v-0.15899h-0.07942v-0.17867h-0.08107v-0.15936h-0.08006v-0.15917h-0.07874v-0.0782h-0.08009v-0.15842h-0.07921v-0.15936h-0.08007v-0.15992h-0.08007v-0.15805h-0.08007v-0.15974h-0.07908v-0.15898h-0.08015v-0.15527h-0.08007v-0.15786h-0.08v-0.15974h-0.08007v-0.15955h-0.08007v-0.15954h-0.07962v-0.15918h-0.08195v-0.15879h-0.08007v-0.15974h-0.08079v-0.15898h-0.08009v-0.15899h-0.08007v-0.15973h-0.0806v-0.15899h-0.08538v-0.15936h-0.0842v-0.26639h-0.07996v-0.15974h-0.08007v-0.15936h-0.08073v-0.15861h-0.08144v-0.26118h-0.08007v-0.15936h-0.07856v-0.17773h-0.08045v-0.15917h-0.08007v-0.15861h-0.08v-0.24051h-0.08079v-0.17642h-0.08007v-0.15936h-0.08075v-0.15861h-0.08007v-0.26843h-0.07951v-0.15993h-0.08007v-0.15936h-0.08007v-0.24041h-0.08006v-0.15861h-0.08082v-0.27462h-0.08073v-0.26793h-0.08007v-0.15917h-0.08069v-0.24935h-0.08007v-0.15955h-0.08007v-0.35539h-0.0812v-0.15918h-0.07977v-0.24513h-0.08007v-0.15861h-0.08007v-0.24041h-0.08007v-0.24341h-0.08007v-0.15954h-0.07976v-0.25286h-0.08007v-0.24043h-0.08007v-0.22063h-0.0787v-0.24039h-0.08007v-0.24037h-0.08007v-0.2648h-0.08007v-0.24054h-0.08007v-0.21911h-0.08007v-0.24037h-0.07984v-0.24041h-0.08007v-0.22104h-0.08007v-0.2384h-0.07976v-0.1603h-0.08007v-0.22965h-0.08007v-0.31484h-0.08017v-0.23742h-0.07968v-0.32032h-0.08011v-0.21843h-0.08748v-0.32048h-0.0806v-0.31235h-0.08007v-0.25803h-0.08007v-0.29682h-0.08007v-0.28162h-0.07814v-0.32065h-0.08082v-0.24633h-0.07976v-0.36048h-0.07591v-0.32046h-0.08007v-0.39714h-0.08141v-0.32049h-0.08007v-0.31978h-0.07711v-0.41355h-0.08009v-0.29821h-0.07959v-0.33687h-0.08007v-0.39804h-0.07966v-0.3206h-0.08125v-0.40024h-0.08137v-0.40044h-0.08004v-0.48095h-0.08007v-0.49281h-0.07691v-0.40077h-0.07884v-0.50271h-0.08007v-0.48095h-0.08007v-0.42573h-0.08007v-0.58208h-0.07835v-0.64065h-0.0803v-0.64117h-0.08007v-0.64602h-0.08007v-0.62117h-0.0779v-0.73718h-0.08007v-1.0415h-0.07944v-1.0407h-0.08007v-1.0427h-0.08007v-2.2308h-0.10044v-60.214h16.428v59.941h0.0801v1.5229h0.0801v1.1217h0.0801v1.0417h0.0801v0.64089h0.0801v0.561h0.0801v0.64123h0.0801v0.64085h0.0801v0.48089h0.0801v0.48084h0.0801v0.4807h0.0801v0.40077h0.0801v0.48077h0.0801v0.48092h0.0801v0.32022h0.0801v0.32061h0.0801v0.40052h0.0801v0.3214h0.0801v0.32029h0.0801v0.40073h0.0801v0.32037h0.0801v0.32057h0.0801v0.32075h0.0801v0.24046h0.0801v0.32015h0.0801v0.24035h0.0801v0.32052h0.0801v0.24071h0.0801v0.32069h0.0801v0.24033h0.0801v0.32046h0.0801v0.15899h0.0801v0.24033h0.0801v0.24034h0.0801v0.24042h0.0801v0.24037h0.0801v0.24034h0.0801v0.24046h0.0801v0.24034h0.0798v0.24042h0.0801v0.24037h0.0801v0.24045h0.0801v0.15955h0.0801v0.24042h0.0801v0.15993h0.0801v0.24033h0.0801v0.24035h0.0801v0.1588h0.0798v0.24037h0.0801v0.15899h0.0801v0.24022h0.0801v0.15973h0.0801v0.24039h0.0801v0.15711h0.0801v0.15824h0.0801v0.16048h0.0801v0.24035h0.0801v0.15861h0.0794v0.1588h0.0797v0.16049h0.0801v0.24039h0.0801v0.15842h0.0801v0.15861h0.0801v0.15917h0.0805v0.15992h0.0801v0.24036h0.0801v0.15898h0.0801v0.15974h0.0801v0.15973h0.0801v0.15824h0.0801v0.15804h0.0801v0.16011h0.0801v0.078h0.0801v0.15823h0.0801v0.15917h0.0805v0.15861h0.0801v0.1588h0.0796v0.15955h0.0801v0.15936h0.0806v0.15898h0.0801v0.15805h0.0801v0.15992h0.0801v0.15843h0.0801v0.0771h0.0801v0.1573h0.0801v0.15936h0.0801v0.1603h0.0801v0.0774h0.0809v0.15936h0.0801v0.15898h0.0801v0.1588h0.0795v0.0774h0.0801v0.15898h0.0801v0.15936h0.0801v0.15899h0.0801v0.0778h0.0801v0.15824h0.0801v0.15898h0.0801v0.0774h0.0801v0.15918h0.0801v0.0774h0.0801v0.15804h0.0801v0.16049h0.0801v0.0769h0.0801v0.16067h0.081v0.0778h0.0799v0.15993h0.0801v0.0772h0.0801v0.16011h0.0801v0.1588h0.0801v0.0776h0.0801v0.16011h0.0801v0.078h0.0801v0.15973h0.0801v0.0774h0.0801v0.15992h0.0801v0.078h0.0801v0.15992h0.0801v0.0776h0.0801v0.078h0.0801v0.15973h0.0801v0.0786h0.0801v0.15898h0.0801v0.0786h0.0799v0.0772h0.0801v0.1588h0.0801v0.0772h0.0801v0.15805h0.0801v0.0776h0.0801v0.15898h0.0793v0.0776h0.0801v0.0778h0.0801v0.15861h0.0801v0.0769h0.0801v0.0763h0.0801v0.15842h0.0801v0.0776h0.08v0.0776h0.0799v0.0782h0.08v0.15954h0.0801v0.078h0.0797v0.0772h0.0799v0.15936h0.0799v0.0787h0.0797v0.0765h0.0795v0.0773h0.0812v0.15898h0.0797v0.0763h0.0795v0.0784h0.0797v0.16011h0.0795v0.0772h0.0797v0.0769h0.0797v0.0782h0.0791v0.0782h0.0793v0.15898h0.0791v0.0772h0.0795v0.0784h0.0791v0.0771h0.0793v0.0774h0.0793v0.078h0.0789v0.15917h0.0793v0.0776h0.0791v0.0786h0.0795v0.0769h0.0791v0.0767h0.0793v0.0787h0.0791v0.15955h0.0797v0.0776h0.0806v0.0782h0.0793v0.0772h0.0797v0.0774h0.0797v0.078h0.0799v0.15823h0.0799v0.0778h0.0795v0.0776h0.08v0.0773h0.0797v0.077h0.0802v0.0782h0.0797v0.0771h0.0795v0.0786h0.0789v0.0776h0.0795v0.0782h0.0789v0.0769h0.0786v0.0784h0.0791v0.0786h0.0793v0.0787h0.0791v0.0767h0.0791v0.0769h0.0799v0.0789h0.0789v0.15899h0.0784v0.0784h0.0787v0.0771h0.0791v0.0784h0.0778v0.0774h0.0778v0.0782h0.0784v0.0771h0.0787v0.0771h0.0782v0.0767h0.0787v0.0785h0.0797v0.0776h0.0793v0.077h0.0784v0.0788h0.0795v0.0778h0.0772v0.0778h0.15917v0.0776h0.078v0.0786h0.078v0.0769h0.0774v0.0784h0.0789v0.077h0.078v0.0787h0.0763v0.0772h0.0784v0.0767h0.0772v0.0778h0.0784v0.0787h0.0771v0.0782h0.0778v0.0774h0.0771v0.0782h0.0778v0.0786h0.0778v0.0767h0.0778v0.0769h0.0772v0.0842h0.15936v0.0769h0.0771v0.0769h0.0784v0.0699h0.0782v0.0769h0.0774v0.0771h0.0778v0.078h0.1588v0.0769h0.0778v0.0787h0.0774v0.0778h0.0774v0.0784h0.0785v0.0772h0.0782v0.0767h0.0767v0.0791h0.15955v0.0769h0.0769v0.0825h0.0778v0.0769h0.078v0.0793h0.0773v0.0769h0.0769v0.0769h0.15955v0.078h0.0771v0.0786h0.078v0.077h0.0785v0.0773h0.15955v0.0784h0.0787v0.0786h0.0769v0.0765h0.0771v0.0769h0.15898v0.0787h0.078v0.0782h0.0782v0.0769h0.15954v0.0767h0.0778v0.0782h0.0778v0.0769h0.0765v0.0787h0.15879v0.0782h0.0772v0.0765h0.0782v0.0774h0.0776v0.0769h0.15974v0.0784h0.0778v0.0791h0.15936v0.077h0.0778v0.0769h0.0784v0.078h0.15842v0.0784h0.0778v0.0776h0.1588v0.0782h0.0786v0.0784h0.0782v0.0776h0.15936v0.0767h0.0789v0.0782h0.0763v0.0784h0.15936v0.0772h0.0787v0.0769h0.15936v0.0786h0.0763v0.0782h0.0789v0.0772h0.15898v0.0772h0.0771v0.0767h0.1588v0.0784h0.15879v0.0772h0.0784v0.0769h0.15824v0.0786h0.0778v0.0784h0.15899v0.0769h0.078v0.0782h0.15955v0.0771h0.0782v0.078h0.1588v0.0785h0.078v0.0786h0.15898v0.0784h0.15918v0.077h0.0776v0.0769h0.1588v0.0786h0.0771v0.0789h0.15954v0.0784h0.15899v0.0767h0.0782v0.0782h0.15936v0.078h0.15955v0.0771h0.15823v0.0784h0.0782v0.0767h0.15936v0.0772h0.15842v0.0789h0.0776v0.0778h0.15899v0.0784h0.15917v0.0771h0.15992v0.0769h0.0776v0.0769h0.15898v0.0788h0.15936v0.0771h0.15936v0.0784h0.15918v0.0771h0.15917v0.0786h0.077v0.0765h0.15899v0.0793h0.15917v0.0771h0.15955v0.0769h0.15973v0.0784h0.15936v0.0767h0.15918v0.0786h0.15898v0.0771h0.1588v0.0767h0.1588v0.0767h0.15879v0.0787h0.15918v0.0769h0.15936v0.0786h0.15879v0.0772h0.15899v0.078h0.15973v0.0786h0.24045v0.0765h0.15898v0.0786h0.15899v0.0782h0.1588v0.0772h0.15898v0.063h0.24047v0.0782h0.15898v0.0769h0.15861v0.077h0.15917v0.0774h0.24037v0.0784h0.15955v0.0767h0.24052v0.0789h0.15843v0.0771h0.24037v0.0786h0.15973v0.0769h0.24039v0.0784h0.15861v0.0772h0.24041v0.0782h0.1588v0.0765h0.24048v0.0774h0.15899v0.0784h0.24037v0.0782h0.24033v0.0767h0.24039v0.0786h0.24037v0.0784h0.24045v0.0786h0.24241v0.0772h0.15974v0.078h0.24037v0.0782h0.24037v0.0786h0.24425v0.0771h0.23132v0.0769h0.32046v0.0767h0.24043v0.0767h0.32065v0.0786h0.24046v0.0787h0.32049v0.0786h0.24038v0.0782h0.32034v0.0767h0.2405v0.0784h0.32071v0.0774h0.3204v0.0769h0.32045v0.0767h0.32069v0.0787h0.40061v0.0767h0.32054v0.0782h0.32048v0.0771h0.32058v0.0789h0.40059v0.0772h0.48383v0.0767h0.40064v0.0782h0.48085v0.0784h0.40056v0.0776h0.48188v0.0767h0.56108v0.0769h0.56093v0.078h0.64108v0.0785h0.64087v0.0769h0.72133v0.0782h1.0419v0.0771h1.0416v0.0782h1.851v0.0786h43.033v16.508zm2.4042-28.848v-0.0782h-1.9234v-0.0769h-1.0412v-0.0776h-0.88185v-0.0774h-0.64115v-0.0782h-0.64083v-0.0776h-0.56099v-0.0767h-0.48079v-0.0786h-0.48069v-0.0782h-0.40067v-0.0771h-0.4808v-0.0769h-0.40053v-0.0774h-0.32071v-0.0789h-0.32061v-0.0765h-0.40054v-0.0776h-0.32084v-0.0782h-0.31999v-0.0786h-0.32075v-0.0763h-0.32086v-0.078h-0.24044v-0.0786h-0.32017v-0.0769h-0.24057v-0.0756h-0.32028v-0.0782h-0.24039v-0.0791h-0.24033v-0.0784h-0.24081v-0.0786h-0.24035v-0.0765h-0.24052v-0.0791h-0.24033v-0.0771h-0.24035v-0.0769h-0.24045v-0.0784h-0.24048v-0.0765h-0.24088v-0.0786h-0.15861v-0.0769h-0.24035v-0.0789h-0.16049v-0.0784h-0.24041v-0.0771h-0.15748v-0.0787h-0.24058v-0.0782h-0.15748v-0.0772h-0.24028v-0.0784h-0.16049v-0.0767h-0.15786v-0.0787h-0.24027v-0.078h-0.15824v-0.0774h-0.15973v-0.078h-0.15843v-0.0774h-0.15804v-0.0757h-0.2406v-0.0767h-0.15973v-0.078h-0.15824v-0.0771h-0.1588v-0.0789h-0.15898v-0.077h-0.15824v-0.0788h-0.15992v-0.0769h-0.15861v-0.0769h-0.15805v-0.0765h-0.15898v-0.0787h-0.15955v-0.0778h-0.15955v-0.0774h-0.15861v-0.0782h-0.15992v-0.0786h-0.15936v-0.0786h-0.15786v-0.0769h-0.0778v-0.0784h-0.15805v-0.0767h-0.1588v-0.0787h-0.0763v-0.0776h-0.15899v-0.0748h-0.15861v-0.0771h-0.15898v-0.0771h-0.0767v-0.0838h-0.15992v-0.0849h-0.15955v-0.0778h-0.15973v-0.0767h-0.0776v-0.0778h-0.15748v-0.0772h-0.15993v-0.0782h-0.078v-0.0784h-0.15936v-0.0776h-0.0776v-0.0767h-0.15823v-0.0776h-0.0771v-0.0769h-0.15898v-0.0784h-0.0776v-0.0771h-0.15861v-0.0752h-0.0769v-0.078h-0.1582v-0.0793h-0.15992v-0.0772h-0.078v-0.0771h-0.15954v-0.0776h-0.0784v-0.0791h-0.0771v-0.0765h-0.15879v-0.0774h-0.0789v-0.0778h-0.1588v-0.0786h-0.0774v-0.0778h-0.078v-0.0769h-0.15974v-0.0772h-0.0789v-0.0776h-0.15898v-0.0778h-0.078v-0.0771h-0.0778v-0.0776h-0.15992v-0.0699h-0.078v-0.0778h-0.0784v-0.078h-0.15861v-0.078h-0.078v-0.0767h-0.0763v-0.0767h-0.0769v-0.0789h-0.15974v-0.0791h-0.0786v-0.0793h-0.0774v-0.0769h-0.0782v-0.078h-0.15899v-0.078h-0.0784v-0.0776h-0.0778v-0.0765h-0.15842v-0.0774h-0.0786v-0.0771h-0.0763v-0.0789h-0.0752v-0.0776h-0.0782v-0.0748h-0.15917v-0.077h-0.0778v-0.0771h-0.0765v-0.078h-0.0778v-0.0784h-0.0772v-0.0771h-0.0772v-0.0767h-0.0763v-0.0789h-0.1588v-0.0784h-0.0772v-0.0808h-0.0769v-0.0855h-0.0772v-0.0778h-0.0782v-0.0763h-0.0771v-0.0763h-0.0776v-0.0808h-0.1588v-0.0774h-0.0776v-0.0782h-0.077v-0.0782h-0.0836v-0.0771h-0.077v-0.0772h-0.0772v-0.0787h-0.077v-0.078h-0.0789v-0.0771h-0.0778v-0.077h-0.077v-0.0784h-0.0776v-0.0774h-0.0782v-0.0776h-0.0776v-0.0774h-0.0765v-0.0785h-0.0786v-0.0774h-0.0772v-0.0763h-0.077v-0.0782h-0.0833v-0.0789h-0.0772v-0.0771h-0.0782v-0.078h-0.0782v-0.0851h-0.0769v-0.0765h-0.0782v-0.0769h-0.0782v-0.077h-0.0782v-0.0771h-0.077v-0.0793h-0.0769v-0.0763h-0.0785v-0.0776h-0.0782v-0.0782h-0.0763v-0.0887h-0.0787v-0.078h-0.0791v-0.077h-0.0772v-0.15974h-0.0774v-0.078h-0.0767v-0.0825h-0.0752v-0.078h-0.0853v-0.0771h-0.0769v-0.078h-0.0786v-0.0769h-0.078v-0.0786h-0.0774v-0.15843h-0.0778v-0.0763h-0.077v-0.0784h-0.0778v-0.0789h-0.0785v-0.0771h-0.0763v-0.0846h-0.0776v-0.15898h-0.0785v-0.0767h-0.0776v-0.0765h-0.0786v-0.078h-0.0778v-0.0772h-0.0772v-0.0763h-0.0771v-0.15973h-0.0821v-0.0756h-0.0834v-0.0782h-0.0859v-0.15955h-0.0763v-0.077h-0.0782v-0.0778h-0.0782v-0.0791h-0.0776v-0.15974h-0.077v-0.0778h-0.0844v-0.0776h-0.0784v-0.15561h-0.077v-0.0771h-0.0771v-0.0772h-0.0765v-0.078h-0.078v-0.15899h-0.0782v-0.0787h-0.0782v-0.0776h-0.0846v-0.15898h-0.0785v-0.0782h-0.0763v-0.1588h-0.0776v-0.0654h-0.078v-0.15974h-0.078v-0.078h-0.077v-0.0832h-0.0771v-0.15936h-0.078v-0.0771h-0.078v-0.15879h-0.0784v-0.0778h-0.0763v-0.0765h-0.0791v-0.15899h-0.0774v-0.15861h-0.0763v-0.0744h-0.078v-0.15917h-0.0778v-0.0778h-0.0784v-0.15918h-0.0767v-0.0778h-0.078v-0.15899h-0.0778v-0.15917h-0.0778v-0.0772h-0.0776v-0.15974h-0.0785v-0.0769h-0.0776v-0.17043h-0.078v-0.0776h-0.0778v-0.15861h-0.0782v-0.15918h-0.077v-0.15954h-0.0786v-0.078h-0.078v-0.16704h-0.0763v-0.1588h-0.0855v-0.15899h-0.077v-0.0755h-0.078v-0.1588h-0.0891v-0.15936h-0.077v-0.15861h-0.0743v-0.0647h-0.077v-0.15917h-0.0786v-0.15955h-0.0763v-0.1588h-0.078v-0.15579h-0.077v-0.15974h-0.0787v-0.15955h-0.0786v-0.15973h-0.0765v-0.15955h-0.0784v-0.15955h-0.0786v-0.15898h-0.0763v-0.15786h-0.0782v-0.16949h-0.0789v-0.15823h-0.0778v-0.16855h-0.078v-0.15936h-0.0787v-0.24031h-0.0776v-0.15936h-0.0782v-0.15899h-0.0791v-0.15898h-0.0859v-0.24935h-0.0787v-0.15955h-0.0784v-0.15899h-0.0793v-0.15898h-0.0679v-0.24039h-0.0778v-0.23529h-0.078v-0.16667h-0.0793v-0.25226h-0.0778v-0.15936h-0.0784v-0.25119h-0.0793v-0.15861h-0.0787v-0.21446h-0.0791v-0.15861h-0.0881v-0.24045h-0.0793v-0.24042h-0.0797v-0.24126h-0.0797v-0.25803h-0.0795v-0.24954h-0.0799v-0.2404h-0.0791v-0.24039h-0.0789v-0.25691h-0.0921v-0.32041h-0.0791v-0.2264h-0.0874v-0.32062h-0.0797v-0.24275h-0.0889v-0.32039h-0.0804v-0.24037h-0.0816v-0.33943h-0.0889v-0.3356h-0.0885v-0.40312h-0.0703v-0.34191h-0.063v-0.38768h-0.0799v-0.32337h-0.0879v-0.40078h-0.0696v-0.41164h-0.0947v-0.49041h-0.0877v-0.40056h-0.0793v-0.48567h-0.0579v-0.561h-0.0877v-0.64106h-0.0883v-0.65484h-0.0793v-0.80152h-0.0879v-1.0418h-0.0789v-1.52h-0.1905v-59.242h16.42v58.579h0.078v1.202h0.0763v0.64104h0.0782v0.56123h0.0771v0.56052h0.078v0.48081h0.0772v0.56118h0.0763v0.32061h0.0782v0.24035h0.0791v0.32041h0.0767v0.32056h0.0774v0.32038h0.0782v0.32041h0.0771v0.32075h0.0772v0.3202h0.0769v0.15823h0.0778v0.24045h0.0776v0.24033h0.0771v0.24056h0.078v0.16049h0.0782v0.24038h0.078v0.24028h0.0772v0.24047h0.0774v0.15842h0.0778v0.24035h0.0763v0.1573h0.0776v0.24037h0.0786v0.16049h0.0763v0.15898h0.0763v0.15674h0.0767v0.15973h0.078v0.15842h0.0776v0.15824h0.077v0.15992h0.0776v0.15899h0.078v0.15692h0.0771v0.15955h0.0782v0.15898h0.0778v0.15917h0.0784v0.15936h0.078v0.15955h0.0765v0.0778h0.0787v0.15861h0.0784v0.15786h0.0769v0.0776h0.078v0.1588h0.0776v0.15992h0.0782v0.0765h0.078v0.15992h0.078v0.15973h0.0776v0.0795h0.0772v0.15898h0.077v0.15824h0.0778v0.0769h0.0786v0.15936h0.0771v0.0769h0.078v0.0771h0.0782v0.15973h0.0769v0.0763h0.078v0.0782h0.0784v0.15973h0.0772v0.078h0.0771v0.15918h0.078v0.078h0.0789v0.0767h0.0778v0.15973h0.0774v0.0763h0.077v0.0776h0.0789v0.15917h0.0769v0.077h0.078v0.0772h0.078v0.16048h0.0772v0.0778h0.0782v0.0784h0.0769v0.0763h0.0772v0.0776h0.0774v0.0769h0.0782v0.0786h0.0765v0.15899h0.0778v0.0784h0.0763v0.0773h0.0772v0.0778h0.0778v0.0772h0.0782v0.078h0.0767v0.0778h0.0765v0.0787h0.0782v0.0771h0.0767v0.15898h0.0769v0.0778h0.0778v0.0771h0.078v0.078h0.078v0.0778h0.0782v0.0788h0.0769v0.0767h0.078v0.0774h0.0776v0.077h0.0772v0.078h0.0767v0.0778h0.0778v0.0769h0.15898v0.0789h0.078v0.0774h0.0778v0.077h0.0771v0.0772h0.0778v0.0782h0.0782v0.0778h0.0778v0.0767h0.077v0.0765h0.078v0.0784h0.0763v0.078h0.078v0.0778h0.15974v0.0772h0.0772v0.0776h0.0771v0.0772h0.0789v0.0776h0.0765v0.0782h0.0761v0.0767h0.15954v0.0782h0.0774v0.0776h0.0767v0.0778h0.1588v0.0771h0.0767v0.0763h0.0782v0.078h0.15899v0.0784h0.0784v0.0774h0.0774v0.0763h0.1588v0.0778h0.0782v0.078h0.078v0.0778h0.15861v0.0772h0.078v0.0787h0.0778v0.0771h0.15974v0.0774h0.0786v0.0767h0.15936v0.0793h0.0771v0.0774h0.15973v0.0771h0.15899v0.0763h0.078v0.078h0.1588v0.0782h0.15804v0.0778h0.0769v0.078h0.15824v0.0772h0.15917v0.0774h0.078v0.0772h0.16199v0.078h0.078v0.0769h0.15861v0.0772h0.15955v0.0776h0.15861v0.0784h0.15879v0.0767h0.15936v0.0763h0.15936v0.078h0.15824v0.0784h0.15842v0.0778h0.15899v0.0763h0.15898v0.077h0.1588v0.078h0.15898v0.078h0.15899v0.0774h0.15823v0.0776h0.15899v0.078h0.24043v0.0784h0.15898v0.0776h0.24041v0.0778h0.24039v0.0772h0.15824v0.0772h0.24151v0.078h0.24039v0.0771h0.24043v0.0771h0.16011v0.0782h0.24041v0.0782h0.24039v0.077h0.24035v0.0774h0.3208v0.0771h0.32026v0.0782h0.32063v0.0776h0.3207v0.0767h0.24039v0.0782h0.32024v0.0782h0.32992v0.0769h0.48089v0.077h0.56089v0.0782h0.48082v0.0784h0.56079v0.0772h0.48101v0.0767h1.202v0.078h13.543v16.588zm25.323-0.0782v-29.409h-0.0786v-1.2027h-0.0776v-0.8012h-0.0769v-0.56059h-0.0767v-0.48089h-0.0784v-0.56119h-0.0769v-0.56119h-0.0786v-0.32034h-0.0786v-0.32054h-0.0769v-0.32102h-0.0776v-0.32022h-0.0767v-0.3206h-0.0784v-0.32057h-0.0771v-0.32032h-0.0784v-0.32067h-0.0784v-0.16048h-0.078v-0.24052h-0.0786v-0.24035h-0.0767v-0.24037h-0.0793v-0.15843h-0.0769v-0.24027h-0.0767v-0.24038h-0.0784v-0.24033h-0.0782v-0.15917h-0.0774v-0.24039h-0.0787v-0.24041h-0.0765v-0.16048h-0.0789v-0.15824h-0.0784v-0.15823h-0.0776v-0.16049h-0.0782v-0.15692h-0.0784v-0.1588h-0.0767v-0.15992h-0.0752v-0.15917h-0.0787v-0.15824h-0.0774v-0.16105h-0.0784v-0.23999h-0.0765v-0.15899h-0.0788v-0.15823h-0.0769v-0.0778h-0.0791v-0.15898h-0.0782v-0.15936h-0.0786v-0.0767h-0.0786v-0.15899h-0.0786v-0.15899h-0.0804v-0.0771h-0.0778v-0.15898h-0.0776v-0.15936h-0.0784v-0.0765h-0.0769v-0.15861h-0.0765v-0.16029h-0.0789v-0.0786h-0.0774v-0.15992h-0.0774v-0.15899h-0.0776v-0.078h-0.0787v-0.15917h-0.0765v-0.0789h-0.078v-0.0771h-0.0767v-0.15823h-0.0791v-0.0776h-0.0769v-0.078h-0.077v-0.15899h-0.0773v-0.0784h-0.0799v-0.0778h-0.0724v-0.15898h-0.0773v-0.0769h-0.0778v-0.0763h-0.0778v-0.15992h-0.0772v-0.0769h-0.0767v-0.0786h-0.0786v-0.1588h-0.0769v-0.078h-0.0752v-0.0771h-0.0782v-0.0767h-0.0778v-0.15992h-0.0769v-0.0772h-0.0788v-0.0816h-0.0787v-0.077h-0.0786v-0.0769h-0.0769v-0.0789h-0.0772v-0.0782h-0.0786v-0.0746h-0.0765v-0.077h-0.078v-0.15955h-0.0806v-0.0778h-0.0784v-0.0767h-0.078v-0.0786h-0.0771v-0.0769h-0.0776v-0.078h-0.0786v-0.0796h-0.0763v-0.0782h-0.0862v-0.077h-0.0784v-0.15805h-0.0763v-0.078h-0.1588v-0.0763h-0.0862v-0.0763h-0.0784v-0.0778h-0.0772v-0.0778h-0.0774v-0.0772h-0.0778v-0.0776h-0.078v-0.0774h-0.0763v-0.0767h-0.0771v-0.0782h-0.0778v-0.0827h-0.1588v-0.0771h-0.078v-0.0771h-0.0789v-0.0771h-0.0778v-0.078h-0.0705v-0.078h-0.0774v-0.0765h-0.0778v-0.0778h-0.0782v-0.0782h-0.077v-0.0771h-0.078v-0.0789h-0.15973v-0.0787h-0.0782v-0.078h-0.0885v-0.0776h-0.16011v-0.0782h-0.078v-0.0789h-0.0778v-0.0774h-0.15955v-0.078h-0.078v-0.0771h-0.0778v-0.0772h-0.15898v-0.078h-0.0819v-0.0778h-0.0767v-0.0778h-0.16855v-0.0773h-0.077v-0.0782h-0.0767v-0.0778h-0.16368v-0.0782h-0.0774v-0.0763h-0.0763v-0.0772h-0.15955v-0.0778h-0.0771v-0.078h-0.15955v-0.0769h-0.15899v-0.0737h-0.0778v-0.0784h-0.15899v-0.0786h-0.15861v-0.0763h-0.0782v-0.0761h-0.15917v-0.0787h-0.15917v-0.0816h-0.0784v-0.0772h-0.15842v-0.0763h-0.0771v-0.0787h-0.15936v-0.0769h-0.15842v-0.0769h-0.0881v-0.0763h-0.15879v-0.078h-0.15899v-0.0846h-0.15898v-0.0718h-0.24534v-0.0772h-0.15093v-0.0771h-0.15898v-0.078h-0.15899v-0.0778h-0.15861v-0.0774h-0.15992v-0.0817h-0.15973v-0.0829h-0.15936v-0.0776h-0.15824v-0.078h-0.15973v-0.0776h-0.15955v-0.0774h-0.24039v-0.078h-0.23816v-0.0793h-0.24095v-0.0771h-0.15936v-0.077h-0.23733v-0.0763h-0.24041v-0.0853h-0.15955v-0.0823h-0.24039v-0.0711h-0.24037v-0.0776h-0.15899v-0.0791h-0.32068v-0.078h-0.32013v-0.0848h-0.32393v-0.0776h-0.32056v-0.0778h-0.32033v-0.0782h-0.23593v-0.0767h-0.31259v-0.0776h-0.32594v-0.0847h-0.56089v-0.078h-0.48091v-0.0771h-0.56096v-0.0782h-0.47919v-0.0767h-0.6408v-0.0696h-1.2021v-0.0778h-13.455v-16.508h14.665v0.0801h1.0416v0.0801h0.96182v0.0801h0.64095v0.0801h0.64094v0.0801h0.64112v0.0801h0.48087v0.0801h0.40074v0.0801h0.48088v0.0705h0.40051v0.0801h0.48084v0.0784h0.3206v0.08h0.3205v0.0797h0.31364v0.0799h0.40063v0.08h0.32065v0.0797h0.32059v0.0744h0.32037v0.0795h0.24034v0.074h0.32063v0.0799h0.24039v0.0703h0.31523v0.0795h0.23407v0.0797h0.24035v0.0795h0.24039v0.0742h0.24041v0.0797h0.24034v0.0797h0.24035v0.0793h0.24044v0.0793h0.24038v0.0793h0.24048v0.0793h0.24037v0.0793h0.15842v0.0793h0.24047v0.0791h0.15898v0.0795h0.24049v0.0793h0.15954v0.0793h0.24039v0.0791h0.15899v0.0793h0.24037v0.0791h0.15861v0.0791h0.24037v0.0793h0.15955v0.0793h0.15954v0.0795h0.15843v0.0795h0.15936v0.0799h0.24035v0.0864h0.15861v0.0799h0.15898v0.0797h0.15918v0.0801h0.15954v0.08h0.24039v0.0797h0.078v0.0806h0.15917v0.0799h0.15917v0.08h0.15917v0.0799h0.15843v0.0795h0.15898v0.0791h0.15955v0.0787h0.15823v0.0797h0.15993v0.0787h0.15954v0.0789h0.15824v0.0791h0.15955v0.0799h0.0782v0.0793h0.15954v0.0739h0.15936v0.0795h0.15955v0.0801h0.0778v0.0868h0.15936v0.0797h0.15954v0.078h0.078v0.0787h0.15898v0.0782h0.15936v0.0789h0.15899v0.0782h0.0765v0.0778h0.15936v0.0782h0.0767v0.0787h0.16742v0.0787h0.15917v0.0789h0.0769v0.0787h0.15917v0.0789h0.0769v0.0782h0.15974v0.0778h0.0784v0.0787h0.15899v0.0789h0.0767v0.0787h0.15936v0.078h0.0765v0.0782h0.1588v0.078h0.077v0.078h0.1588v0.0782h0.078v0.077h0.15805v0.078h0.0769v0.0774h0.0784v0.0785h0.15898v0.0774h0.0787v0.0771h0.15918v0.0782h0.0765v0.0778h0.0789v0.0776h0.15824v0.078h0.078v0.0782h0.0786v0.0769h0.15824v0.0771h0.0787v0.0782h0.0771v0.0789h0.15861v0.0774h0.0774v0.077h0.0763v0.078h0.0778v0.0782h0.15917v0.0786h0.0765v0.078h0.0786v0.0782h0.0772v0.0769h0.15936v0.078h0.0784v0.0784h0.077v0.0782h0.0767v0.0769h0.15861v0.078h0.0769v0.0784h0.0787v0.0778h0.0771v0.0778h0.0772v0.0776h0.0786v0.078h0.15936v0.077h0.0789v0.0773h0.0782v0.0789h0.0782v0.078h0.0774v0.0771h0.0769v0.0772h0.0782v0.0763h0.15899v0.0786h0.0782v0.0772h0.0769v0.0771h0.0772v0.0776h0.0778v0.078h0.0789v0.0774h0.0769v0.0776h0.0767v0.0786h0.0784v0.0769h0.0787v0.077h0.0769v0.0772h0.0771v0.078h0.0784v0.0769h0.0771v0.0782h0.15955v0.077h0.0784v0.078h0.0769v0.0756h0.0767v0.0774h0.0786v0.0782h0.0784v0.078h0.0771v0.0778h0.0772v0.0774h0.078v0.0778h0.0782v0.0771h0.0771v0.0774h0.0789v0.1588h0.0786v0.077h0.0767v0.0778h0.0767v0.0782h0.0786v0.0778h0.0769v0.0782h0.0769v0.0776h0.0787v0.0776h0.0782v0.0778h0.0784v0.0778h0.0771v0.078h0.078v0.078h0.0786v0.0771h0.0769v0.077h0.0765v0.15861h0.0787v0.0774h0.0782v0.0776h0.0776v0.0784h0.0784v0.0778h0.0767v0.078h0.0784v0.0782h0.0771v0.15954h0.0771v0.078h0.0784v0.0772h0.0782v0.0772h0.0771v0.0782h0.077v0.0776h0.0782v0.1588h0.0774v0.0782h0.0786v0.077h0.0769v0.0774h0.0787v0.15992h0.0769v0.0782h0.078v0.0776h0.078v0.0782h0.0786v0.15955h0.0771v0.0778h0.0765v0.078h0.0786v0.15936h0.0789v0.078h0.0769v0.0778h0.0782v0.0778h0.078v0.15992h0.0786v0.0769h0.0776v0.0776h0.0767v0.15898h0.0787v0.0782h0.078v0.15861h0.0771v0.0782h0.0765v0.078h0.0769v0.15861h0.0784v0.0782h0.0782v0.15861h0.0786v0.0784h0.0784v0.0774h0.0782v0.15861h0.0769v0.0782h0.0784v0.15955h0.0771v0.0771h0.0778v0.15936h0.0771v0.0786h0.0771v0.15936h0.0784v0.0771h0.0769v0.15936h0.0767v0.0786h0.0787v0.15861h0.0786v0.15974h0.0769v0.0776h0.0769v0.15974h0.0778v0.078h0.0787v0.15861h0.0765v0.0769h0.0787v0.15898h0.0778v0.15993h0.0782v0.15898h0.0765v0.0784h0.0782v0.15898h0.0787v0.15843h0.0788v0.15973h0.0765v0.0772h0.0772v0.15955h0.0782v0.15861h0.0771v0.15936h0.0771v0.0778h0.0771v0.15261h0.0782v0.15823h0.0767v0.15974h0.0787v0.15823h0.078v0.15936h0.0776v0.16067h0.0772v0.15768h0.0769v0.15936h0.0784v0.15898h0.0771v0.15936h0.0767v0.15861h0.0776v0.15917h0.0786v0.1588h0.0769v0.15899h0.0782v0.15842h0.0776v0.15973h0.0787v0.24038h0.0769v0.15898h0.078v0.1573h0.0782v0.15973h0.0786v0.1588h0.0767v0.24039h0.0774v0.15917h0.0782v0.15993h0.0787v0.24042h0.078v0.24037h0.0769v0.15899h0.0787v0.24039h0.0782v0.15786h0.0774v0.24039h0.078v0.15936h0.0782v0.24046h0.0772v0.24043h0.0772v0.2414h0.0767v0.24039h0.0787v0.24043h0.0782v0.15861h0.0782v0.24046h0.0776v0.24041h0.0769v0.2404h0.0769v0.32063h0.0782v0.24038h0.0786v0.32038h0.0767v0.24036h0.0772v0.32072h0.0769v0.24052h0.0786v0.32045h0.0782v0.32035h0.0769v0.31983h0.0787v0.32044h0.0784v0.40069h0.0778v0.32052h0.078v0.32059h0.0769v0.40067h0.0784v0.48082h0.078v0.4807h0.0769v0.40065h0.0767v0.48311h0.0784v0.64128h0.0772v0.64093h0.0787v0.64402h0.0784v0.8815h0.0776v1.0401h0.0769v2.0034h0.0782v29.169" fill="url(#linearGradient50)"/>
</svg>
