<svg width="900" height="900" version="1.1" viewBox="0 0 238.12 238.12" xmlns="http://www.w3.org/2000/svg">
 <circle class="" cx="119.06" cy="119.06" r="118.4" fill="#cdcdcd" stroke-width=".4625" data-original="#19cffc"/>
 <g id="_91.Quebec" transform="matrix(.31766 0 0 .31766 39.648 39.648)" data-name="91.Quebec">
  <g data-name="Shape 01">
   <rect width="499.99" height="499.99" rx="35.39" fill="#002495"/>
  </g>
  <g fill="#fff">
   <path d="m500 187.51v124.98h-187.51v187.51h-124.98v-187.51h-187.51v-124.98h187.51v-187.51h124.98v187.51z" data-name="Shape 02"/>
   <g id="Symbols">
    <path d="m128.14 119.21a48.91 48.91 0 0 0 0.63-6.12c-0.08-3.21-1.29-6-4.52-7.16s-6.54-0.8-9.09 1.84c-3 3.08-4.1 7-4.3 11.48h9.62v11.43h-20c0.07 6.31 3.66 9.79 8.76 12.5-1.24 3.29-3.3 5.87-6.66 6.65-2 0.48-2.57 1.39-2.93 3.17a18.51 18.51 0 0 1-5.48 9.78 17.62 17.62 0 0 1-5.75-10.29 2.72 2.72 0 0 0-2.52-2.56c-3.44-0.79-5.52-3.29-7-6.72 5-2.58 8.61-6.11 8.85-12.51h-20.26c0-3.56-0.1-6.74 0.09-9.89 0-0.55 1.21-1.42 1.91-1.46 2.52-0.18 5.07-0.07 7.82-0.07-0.21-4.64-1.35-8.58-4.48-11.69a8.34 8.34 0 0 0-9.89-1.24c-2.84 1.62-4.33 6-3.4 10 0.18 0.79 0.45 1.55 0.69 2.35-6 0.26-13-4.81-15.28-11a19.7 19.7 0 0 1 9.1-23.94c5.6-3 11-2.14 16 1.25 7.55 5.06 11 12.72 12.82 21.21 0.9 4.17 1.27 8.45 1.9 12.88h5a55.83 55.83 0 0 0-2-18.57 219.87 219.87 0 0 0-7.71-22.76c-6-14.26-3.17-27.33 4.49-39.85 2.6-4.24 6-8 9.41-12.61 3.32 4.35 6.58 8 9.17 12.13 5.93 9.4 9.71 19.57 7.51 30.86-1 5.4-3.28 10.59-5.18 15.81-3.83 10.48-7.41 21-7.27 32.35v2.64l5.06 0.18s1.08-8.78 1.93-13c1.35-6.72 3.89-13 8.84-17.89 5.14-5.12 11-8.21 18.49-5.27 7.17 2.82 11.67 9.79 11.71 17.88 0 7.78-3.83 13.65-11.06 16.62-1.49 0.61-3.16 1.01-5.02 1.59z" data-name="Symbol 01"/>
    <path d="m128.14 432.37a48.91 48.91 0 0 0 0.63-6.12c-0.08-3.21-1.29-5.95-4.52-7.16a8 8 0 0 0-9.09 1.84c-3 3.09-4.1 7-4.3 11.48h9.62v11.43h-20c0.07 6.31 3.66 9.79 8.76 12.51-1.24 3.29-3.3 5.86-6.66 6.65-2 0.47-2.57 1.38-2.93 3.16a18.51 18.51 0 0 1-5.48 9.78 17.62 17.62 0 0 1-5.75-10.28 2.73 2.73 0 0 0-2.52-2.57c-3.44-0.78-5.52-3.29-7-6.71 5-2.58 8.61-6.12 8.85-12.52h-20.26c0-3.56-0.1-6.73 0.09-9.89 0-0.55 1.21-1.41 1.91-1.46 2.52-0.18 5.07-0.07 7.82-0.07-0.21-4.64-1.35-8.58-4.48-11.69a8.37 8.37 0 0 0-9.89-1.24c-2.84 1.63-4.33 6-3.4 10 0.18 0.79 0.45 1.56 0.69 2.36-6 0.25-13-4.82-15.28-11a19.69 19.69 0 0 1 9.1-23.94c5.6-2.95 11-2.15 16 1.24 7.55 5.06 11 12.72 12.82 21.22 0.9 4.16 1.27 8.45 1.9 12.87h5a55.86 55.86 0 0 0-2-18.57 219.7 219.7 0 0 0-7.71-22.75c-6-14.27-3.17-27.34 4.49-39.85 2.6-4.25 6-8 9.41-12.62 3.32 4.36 6.58 8 9.17 12.13 5.93 9.4 9.71 19.58 7.51 30.86-1 5.4-3.28 10.6-5.18 15.81-3.83 10.48-7.41 21-7.27 32.36v2.63l5.06 0.19s1.08-8.79 1.93-13c1.35-6.71 3.89-13 8.84-17.89 5.14-5.12 11-8.2 18.49-5.27 7.17 2.82 11.67 9.79 11.71 17.88 0 7.79-3.83 13.66-11.06 16.63-1.49 0.6-3.16 0.99-5.02 1.57z" data-name="Symbol 02"/>
    <path d="m441.3 119.21a48.91 48.91 0 0 0 0.63-6.12c-0.07-3.21-1.29-6-4.52-7.16s-6.54-0.8-9.09 1.84c-3 3.08-4.09 7-4.3 11.48h9.62v11.43h-20c0.07 6.31 3.66 9.79 8.77 12.5-1.25 3.29-3.31 5.87-6.67 6.65-2.05 0.48-2.57 1.39-2.92 3.17a18.65 18.65 0 0 1-5.48 9.78 17.58 17.58 0 0 1-5.76-10.29 2.72 2.72 0 0 0-2.52-2.56c-3.43-0.79-5.52-3.29-6.95-6.72 4.95-2.58 8.61-6.11 8.84-12.51h-20.3c0-3.56-0.09-6.74 0.09-9.89 0-0.55 1.22-1.42 1.91-1.46 2.53-0.18 5.07-0.07 7.82-0.07-0.2-4.64-1.35-8.58-4.47-11.69a8.36 8.36 0 0 0-9.9-1.24c-2.84 1.62-4.33 6-3.4 10 0.18 0.79 0.45 1.55 0.69 2.35-6 0.26-13-4.81-15.28-11a19.7 19.7 0 0 1 9.11-23.94c5.59-3 10.94-2.14 16 1.25 7.56 5.06 11 12.72 12.82 21.21 0.9 4.17 1.27 8.45 1.9 12.88h5a55.56 55.56 0 0 0-2-18.57 219.93 219.93 0 0 0-7.72-22.76c-6-14.26-3.17-27.33 4.49-39.85 2.6-4.24 6-8 9.42-12.61 3.32 4.35 6.57 8 9.16 12.13 5.93 9.4 9.71 19.57 7.51 30.86-1.05 5.4-3.28 10.59-5.18 15.81-3.82 10.48-7.4 21-7.27 32.35v2.64l5.05 0.18s1.08-8.78 1.94-13c1.34-6.72 3.88-13 8.83-17.89 5.14-5.12 11-8.21 18.49-5.27 7.17 2.82 11.67 9.79 11.71 17.88 0 7.78-3.83 13.65-11.06 16.62-1.48 0.61-3.16 1.01-5.01 1.59z" data-name="Symbol 03"/>
    <path d="m441.3 432.37a48.91 48.91 0 0 0 0.63-6.12c-0.07-3.21-1.29-5.95-4.52-7.16a8 8 0 0 0-9.09 1.84c-3 3.09-4.09 7-4.3 11.48h9.62v11.43h-20c0.07 6.31 3.66 9.79 8.77 12.51-1.25 3.29-3.31 5.86-6.67 6.65-2.05 0.47-2.57 1.38-2.92 3.16a18.65 18.65 0 0 1-5.48 9.78 17.58 17.58 0 0 1-5.76-10.28 2.73 2.73 0 0 0-2.52-2.57c-3.43-0.78-5.52-3.29-6.95-6.71 4.95-2.58 8.61-6.12 8.84-12.52h-20.3c0-3.56-0.09-6.73 0.09-9.89 0-0.55 1.22-1.41 1.91-1.46 2.53-0.18 5.07-0.07 7.82-0.07-0.2-4.64-1.35-8.58-4.47-11.69a8.39 8.39 0 0 0-9.9-1.24c-2.84 1.63-4.33 6-3.4 10 0.18 0.79 0.45 1.56 0.69 2.36-6 0.25-13-4.82-15.28-11a19.7 19.7 0 0 1 9.11-23.94c5.59-2.95 10.94-2.15 16 1.24 7.56 5.06 11 12.72 12.82 21.22 0.9 4.16 1.27 8.45 1.9 12.87h5a55.59 55.59 0 0 0-2-18.57 219.75 219.75 0 0 0-7.72-22.75c-6-14.27-3.17-27.34 4.49-39.85 2.6-4.25 6-8 9.42-12.62 3.32 4.36 6.57 8 9.16 12.13 5.93 9.4 9.71 19.58 7.51 30.86-1.05 5.4-3.28 10.6-5.18 15.81-3.82 10.48-7.4 21-7.27 32.36v2.63l5.05 0.19s1.08-8.79 1.94-13c1.34-6.71 3.88-13 8.83-17.89 5.14-5.12 11-8.2 18.49-5.27 7.17 2.82 11.67 9.79 11.71 17.88 0 7.79-3.83 13.66-11.06 16.63-1.48 0.6-3.16 0.99-5.01 1.57z" data-name="Symbol 04"/>
   </g>
  </g>
 </g>
</svg>
