<svg width="900" height="900" version="1.1" viewBox="0 0 238.12 238.12" xmlns="http://www.w3.org/2000/svg">
 <g>
  <circle cx="119.06" cy="119.06" r="118.4" fill="#f7f7f7" stroke-width=".4625"/>
  <path d="m183.82 164.99c-11.703 0-21.223-9.5098-21.223-21.215 0-11.697 9.5196-21.215 21.223-21.215 11.691 0 21.209 9.5179 21.209 21.215 0 11.705-9.5176 21.215-21.209 21.215zm-13.966 35.337c-5.668 3.5566-11.714 6.5448-18.078 8.8548v-44.99c4.0578-2.7637 7.2529-6.7086 9.0938-11.33 1.8219 4.5755 4.976 8.4994 8.9844 11.271zm-53.142-56.552c0-11.697 9.5202-21.215 21.211-21.215 11.7 0 21.212 9.5179 21.212 21.215 0 11.705-9.513 21.215-21.212 21.215-11.69 0-21.211-9.5098-21.211-21.215zm-9.4854-1.649c-13.823 0-25.063-11.238-25.063-25.043 0-13.822 11.24-25.064 25.063-25.064 13.814 0 25.051 11.242 25.051 25.064 0 0.91845-0.0545 1.8202-0.15449 2.7177-10.051 2.4462-17.733 11.017-18.765 21.536-1.9612 0.49682-4.0092 0.78887-6.1314 0.78887zm-16.307 68.599c-7.4541-2.3034-14.53-5.4804-21.096-9.4253v-60.739c4.8075-3.3189 8.5603-8.0777 10.615-13.642 2.0373 5.5186 5.7366 10.24 10.481 13.559zm-62.317-93.642c0-13.822 11.233-25.064 25.055-25.064 13.818 0 25.051 11.242 25.051 25.064 0 13.805-11.232 25.043-25.051 25.043-13.822 0-25.055-11.238-25.055-25.043zm51.836-60.734c16.314 0 29.592 13.273 29.592 29.596 0 0.9227-0.0424 1.8285-0.13208 2.7177-0.88108-0.0751-1.7726-0.12905-2.6726-0.12905-12.282 0-22.771 7.8063-26.787 18.702-4.02-10.896-14.506-18.702-26.781-18.702-0.90003 0-1.8035 0.05456-2.68 0.13753-0.07939-0.89748-0.13208-1.8033-0.13208-2.726 0-16.322 13.277-29.596 29.593-29.596zm105.36 60.734c0 0.69724-0.0423 1.4068-0.10659 2.0997-0.61982-0.0484-1.246-0.1-1.8745-0.1-10.416 0-19.326 6.4916-22.95 15.621-3.6252-9.1296-12.539-15.621-22.947-15.621-0.71045 0-1.4226 0.0544-2.1224 0.11267-0.0612-0.69724-0.1127-1.3985-0.1127-2.1124 0-13.822 11.24-25.064 25.061-25.064 13.812 0 25.052 11.242 25.052 25.064zm-51.838-85.909c25.469 0 46.191 20.719 46.191 46.188 0 5.7651-1.0661 11.284-3.0081 16.381-4.6445-3.273-10.299-5.2098-16.397-5.2098-12.257 0-22.731 7.7686-26.771 18.635-3.338-9.0002-11.096-15.872-20.623-17.963 0.0969-1.0728 0.15813-2.1624 0.15813-3.2604 0-13.68-8.3423-25.448-20.217-30.476 7.8146-14.454 23.112-24.294 40.668-24.294zm-14.91-11.458c-54.863 0-99.337 44.477-99.337 99.346 0 54.866 44.475 99.337 99.337 99.337 54.868 0 99.352-44.471 99.352-99.337 0-54.868-44.483-99.346-99.352-99.346" fill="#367ec2"/>
 </g>
</svg>
