<svg width="900" height="900" version="1.1" viewBox="0 0 238.12 238.12" xmlns="http://www.w3.org/2000/svg">
 <g transform="matrix(.4625 0 0 .4625 .66146 .66146)">
  <circle cx="256" cy="256" r="256" fill="#c4e25a"/>
  <path d="m402.25 127.39-7.528-7.528-15.615 15.615-14.973-14.973-273.13 273.14 113.09 113.09c16.764 3.452 34.126 5.27 51.913 5.27 141.38 0 256-114.62 256-256 0-22.309-2.86-43.949-8.222-64.58l-82.777-82.777z" fill="#97bb55"/>
  <path d="m91 158.64v235h165l20.268-123.75-20.268-123.75z" fill="#fff"/>
  <path d="m421 158.64-165-12.5v247.5h165z" fill="#e9edf5"/>
  <path d="m91 108.64v50h165l20.268-25-20.268-25z" fill="#db3c2c"/>
  <g fill="#c92820">
   <path d="m256 108.64h165v50h-165z"/>
   <circle cx="136.27" cy="133.64" r="7.5"/>
   <circle cx="216.27" cy="133.64" r="7.5"/>
  </g>
  <circle cx="296.27" cy="133.64" r="7.5" fill="#aa1511"/>
  <circle cx="376.27" cy="133.64" r="7.5" fill="#aa1511"/>
  <path d="m244.34 204.73v40.745l-57.169 41.647v19.153l57.169-21.113 1.367 56.149-15.95 11.198v18.975l26.248-11.158 8.535-89.092-8.535-90.424c-7.289 5.339-11.665 14.313-11.665 23.92z" fill="#555a65"/>
  <path d="m282.25 352.5-15.95-11.198 1.367-56.149 57.169 21.113v-19.153l-57.169-41.647v-40.745c0-9.607-4.376-18.581-11.665-23.92v179.52l26.249 11.158v-18.974z" fill="#333940"/>
 </g>
</svg>
