<svg width="900" height="900" version="1.1" viewBox="0 0 238.12 238.12" xmlns="http://www.w3.org/2000/svg">
 <g transform="matrix(.4625 0 0 .4625 .66146 .66146)">
  <path d="m3.665 299.41c-2.41-14.108-3.665-28.61-3.665-43.406 0-141.38 114.62-256 256-256s256 114.62 256 256-114.62 256-256 256c-77.426 0-146.82-34.372-193.77-88.69z" fill="#ff6c52"/>
  <path d="m512 256c0-4.627-0.123-9.225-0.365-13.792l-99.965-99.965-1.728 2.503-56.103-56.103-105.11 18.815-86.207 220.59-66.049-66.049-34.242 161.31 26.457 26.457c44.87 38.777 103.35 62.232 167.31 62.232 141.38 0 256-114.62 256-256z" fill="#f92814"/>
  <path d="m353.84 180.83h-121.13v-92.185h121.13zm-91.129-30h61.129v-32.185h-61.129z" fill="#555a66"/>
  <path d="m353.84 88.643h-60.369v30h30.369v32.185h-30.369v30h60.369z" fill="#333940"/>
  <path d="m174.88 209.63h236.79v110.92h-236.79z" fill="#555a66"/>
  <path d="m293.47 209.63h118.2v110.92h-118.2z" fill="#333940"/>
  <path d="m174.88 142.24h236.79v116.69h-236.79z" fill="#414952"/>
  <path d="m293.47 142.24h118.2v116.69h-118.2z" fill="#23272b"/>
  <path d="m207.9 245.32h36.792v35.849h-36.792z" fill="#7e8596"/>
  <path d="m341.86 245.32h36.792v35.849h-36.792z" fill="#636978"/>
  <path d="m440.69 304.08c-8.001-12.855-25.011-16.611-37.681-8.32l-94.092 58.812-66.361-36.787 73.631-19.773c9.606-4.789 14.477-15.711 11.621-26.061-2.993-10.845-13.551-17.797-24.692-16.26l-94.272 2.693c-12.641 0.361-25.199 2.172-37.427 5.397l-110.07 29.008 39.557 86.116c25.388-11.064 45.676-19.895 45.676-19.895l122.24 46.155c21.569 8.067 45.722 5.047 64.64-8.083l114.18-81.46z" fill="#ffdecf"/>
  <g fill="#ffbeaa">
   <path d="m316.19 298.02c9.606-4.789 14.477-15.711 11.621-26.061-2.993-10.845-13.551-17.797-24.692-16.26l-9.646 0.275v48.146z"/>
   <path d="m440.69 304.08c-8.001-12.855-25.011-16.611-37.681-8.32l-94.092 58.812-15.448-8.563v63.602c14.107-9e-3 28.091-4.264 40-12.529l114.18-81.46z"/>
  </g>
  <path d="m3.665 299.4c8.007 46.882 28.761 89.415 58.57 123.91 14.919-6.508 30.071-13.114 44.084-19.221l-53.979-117.51z" fill="#e9edf5"/>
  <path d="m96.476 262 53.926 129.98-70.846 29.973-57.827-133.19z" fill="#fff"/>
  <circle transform="matrix(.23 -.973 .973 .23 -287.31 388.82)" cx="101.99" cy="375.92" r="15.926" fill="#dce1eb"/>
 </g>
</svg>
