<svg width="900" height="900" version="1.1" viewBox="0 0 238.12 238.12" xmlns="http://www.w3.org/2000/svg">
 <g transform="matrix(.4625 0 0 .4625 .66146 .66146)">
  <path d="m11.718 332.8c-7.614-24.243-11.718-50.04-11.718-76.795 0-141.38 114.62-256 256-256s256 114.62 256 256-114.62 256-256 256c-77.448 0-146.86-34.392-193.81-88.737z" fill="#fe8205"/>
  <path d="m62.192 423.26 26.546 26.546c44.864 38.754 103.32 62.193 167.26 62.193 128.89 0 235.54-95.257 253.38-219.21l-146.18-146.18-123.65-47.368-72.904 70.098 60.973 60.973-52.749 31.692 49.232 49.232z" fill="#f24500"/>
  <path d="m376.68 326.81-92.656 57.914-65.348-36.225 72.507-19.471c9.459-4.715 14.256-15.472 11.443-25.663-2.947-10.68-13.344-17.526-24.316-16.011l-92.833 2.652c-12.448 0.356-24.814 2.139-36.856 5.314l-136.9 37.482c10.581 33.686 27.936 64.371 50.471 90.458 32.713-17.887 61.981-34.167 61.981-34.167l120.38 45.451c21.24 7.944 45.024 4.97 63.654-7.96l112.44-80.217-6.853-11.365c-7.88-12.658-24.631-16.356-37.107-8.192z" fill="#ffdecf"/>
  <g fill="#ffcdbe">
   <path d="m291.19 329.03c9.459-4.715 14.256-15.472 11.443-25.663-2.947-10.68-13.344-17.526-24.316-16.011l-22.329 0.638v50.489z"/>
   <path d="m413.79 335c-7.879-12.659-24.629-16.357-37.106-8.193l-92.656 57.914-28.042-15.545v68.548c18.035 3.395 36.875-0.493 52.219-11.142l112.44-80.217z"/>
  </g>
  <path d="m337.14 262h-52.064l-28.413-7.631-29.733 7.631h-52.065v-121.73l81.138-59.401 81.137 59.401z" fill="#fff"/>
  <path d="m256 80.868v173.67l0.66-0.173 28.413 7.631h52.065v-121.73z" fill="#e9edf5"/>
  <path d="m345.36 169.34-89.362-70.107-89.362 70.107-17.832-22.73 107.19-84.097 107.19 84.097z" fill="#636978"/>
  <path d="m256 99.228 89.362 70.107 17.832-22.73-107.19-84.097z" fill="#414952"/>
  <path d="m226.93 188.79h58.146v73.206h-58.146z" fill="#636978"/>
  <path d="m256 188.79h29.073v73.206h-29.073z" fill="#414952"/>
 </g>
</svg>
