<svg width="900" height="900" version="1.1" viewBox="0 0 238.12 238.12" xmlns="http://www.w3.org/2000/svg">
 <g transform="matrix(.4625 0 0 .4625 .66146 .66146)">
  <circle cx="256" cy="256" r="256" fill="#7883ee"/>
  <path d="m273.5 63.105-28.323 28.322 29.647 29.647-16.329 16.329-73.398-73.397-35.665 35.665 31.986 31.986-40.941 40.941 42.858 42.858-35.025 35.025 65.08 65.08-104.07 104.07 84.823 84.823c19.811 4.916 40.527 7.542 61.858 7.542 127.03 0 232.44-92.533 252.53-213.87z" fill="#4652ca"/>
  <path d="m163.76 64.006h-21.336l-5.534 14.395 5.534 14.395 6.716 28.79-14.212 42.259-0.24 2.257c-1.164 10.969-6.627 21.031-15.193 27.981-9.758 7.919-15.425 19.815-15.425 32.382v24.675l16.393 52.668-16.393 52.668v50.483c0 9.905 8.029 17.934 17.934 17.934h41.756l28.79-194.25z" fill="#f2e15d"/>
  <path d="m163.76 64.006h21.336l5.534 14.395-5.534 14.394-6.716 28.79 14.212 42.259 0.24 2.257c1.164 10.969 6.627 21.031 15.193 27.981 9.758 7.919 15.425 19.815 15.425 32.382v24.675l-16.393 52.668 16.393 52.668v50.483c0 9.905-8.029 17.934-17.934 17.934h-41.756z" fill="#fcc74c"/>
  <path d="m104.07 251.14v105.34h59.691l17.946-52.668-17.946-52.668z" fill="#f47e23"/>
  <path d="m163.76 251.14h59.691v105.34h-59.691z" fill="#ce631b"/>
  <path d="m142.47 92.795-7.54 71.049 28.833 13.966 10.79-51.348-10.79-33.667z" fill="#f47e23"/>
  <path d="m185.06 92.795 7.54 71.049-28.833 13.966v-85.015z" fill="#ce631b"/>
  <path d="m253.45 70.402-20.05 7.297-0.277 15.419 10.124 11.634 16.157 24.757 1.098 44.571 0.547 2.203c2.658 10.706 0.966 22.029-4.706 31.49-6.461 10.779-7.718 23.896-3.42 35.705l8.439 23.187 33.418 43.885 2.609 55.099 17.266 47.439c3.388 9.307 13.679 14.106 22.987 10.719l39.238-14.281-39.383-192.38z" fill="#f2e15d"/>
  <path d="m253.45 70.402 20.05-7.297 10.124 11.634-0.277 15.42 3.536 29.35 27.809 34.849 0.997 2.039c4.846 9.91 13.42 17.496 23.847 21.098 11.878 4.104 21.272 13.345 25.571 25.154l8.439 23.187 2.609 55.099 33.418 43.885 17.266 47.439c3.388 9.307-1.411 19.599-10.719 22.987l-39.238 14.281z" fill="#fcc74c"/>
  <path d="m261.37 266.67 36.028 98.984 56.09-20.415-1.149-55.631-34.878-43.354z" fill="#f47e23"/>
  <path transform="matrix(.94 -.342 .342 .94 -75.736 141.55)" d="m333.67 232.87h59.691v105.34h-59.691z" fill="#ce631b"/>
  <path d="m243.29 104.74 17.215 69.343 31.871 3.262-7.422-51.942-21.655-27.945z" fill="#f47e23"/>
  <path d="m283.31 90.173 31.385 64.185-22.317 22.985-29.077-79.887z" fill="#ce631b"/>
 </g>
</svg>
