<svg width="900" height="900" version="1.1" viewBox="0 0 238.12 238.12" xmlns="http://www.w3.org/2000/svg">
 <g transform="matrix(.4625 0 0 .4625 .66146 .66146)">
  <path d="m113.28 468.56c-68.327-45.97-113.28-124.01-113.28-212.56 0-141.38 114.62-256 256-256s256 114.62 256 256c0 88.543-44.951 166.59-113.28 212.56z" fill="#4a7aff"/>
  <path d="m223.44 468.56h175.28c68.327-45.969 113.28-124.01 113.28-212.56 0-18.198-1.899-35.953-5.509-53.076l-103.98-103.98z" fill="#0053bf"/>
  <path d="m324.37 502.77c26.807-7.411 51.848-19.072 74.354-34.214l-45.741-169.25h-193.96l-45.741 169.25c22.506 15.141 47.547 26.803 74.354 34.214z" fill="#e9edf5"/>
  <path d="m398.72 468.56-45.741-169.25h-97.337v203.47h68.724c26.807-7.411 51.849-19.072 74.354-34.214z" fill="#cdd2e1"/>
  <path d="m210.25 127.47-100.77-28.523 25.51 96.939z" fill="#e9edf5"/>
  <path d="m185.7 139.96-47.586-13.47 12.047 45.778z" fill="#bec3d2"/>
  <path d="m301.75 127.47 100.77-28.523-25.51 96.939z" fill="#cdd2e1"/>
  <path d="m326.3 139.96 47.586-13.47-12.047 45.778z" fill="#9196aa"/>
  <path d="m387.29 237.26c0 72.512-58.782 100.67-131.29 100.67s-131.29-28.158-131.29-100.67 58.782-131.29 131.29-131.29 131.29 58.782 131.29 131.29z" fill="#fff"/>
  <path d="m256 105.97c-0.119 0-0.237 4e-3 -0.356 5e-3v231.96c0.119 0 0.237 2e-3 0.356 2e-3 72.512 0 131.29-28.158 131.29-100.67s-58.782-131.29-131.29-131.29z" fill="#e9edf5"/>
  <circle cx="189.56" cy="214.02" r="14.764" fill="#636978"/>
  <circle cx="322.44" cy="214.02" r="14.764" fill="#414952"/>
  <path d="m277.02 236.85c0-9.988-9.409-12.464-21.017-12.464s-21.017 2.476-21.017 12.464c0 5.155 5.599 9.806 11.017 13.1v39.764h20v-39.764c5.418-3.294 11.017-7.945 11.017-13.1z" fill="#636978"/>
  <path d="m277.02 236.85c0-9.988-9.409-12.464-21.017-12.464-0.12 0-0.236 5e-3 -0.356 5e-3v65.322h10.356v-39.764c5.418-3.293 11.017-7.944 11.017-13.099z" fill="#414952"/>
  <path d="m256 356.18c-37.759 0-68.368 30.61-68.368 68.368v78.222c21.763 6.017 44.69 9.232 68.368 9.232s46.605-3.215 68.368-9.231v-78.222c0-37.759-30.609-68.369-68.368-68.369z" fill="#fff"/>
  <path d="m256 356.18c-0.12 0-0.237 8e-3 -0.356 9e-3v155.81c0.119 0 0.237 3e-3 0.356 3e-3 23.678 0 46.605-3.215 68.368-9.231v-78.222c0-37.759-30.609-68.369-68.368-68.369z" fill="#e9edf5"/>
 </g>
</svg>
