<svg width="900" height="900" version="1.1" viewBox="0 0 238.12 238.12" xmlns="http://www.w3.org/2000/svg">
 <g transform="matrix(.4625 0 0 .4625 .66146 .66146)">
  <circle id="XMLID_99_" cx="256" cy="256" r="256" fill="#d4efff"/>
  <path d="m66.004 363.35 144.6 144.64c14.732 2.636 29.901 4.013 45.392 4.013 141.38 0 256-114.62 256-256 0-26.049-3.902-51.184-11.134-74.865l-122.1-122.1-101.63 108.13-106.27-106.2 67.485 190.16-41.723 91.482z" fill="#a4d6ff"/>
  <path d="m221.15 137.14-51.456-42.075 0.18 66.97 86.13 140.72 43.155 16.139-43.155-128.1z" fill="#a0674a"/>
  <path d="m456.89 330.32-0.172-0.856c-3.677-18.341-21.527-30.237-39.878-26.558l-77.864 15.622-82.977-127.73v111.96l37.848 61.836c11.192 18.302 32.61 27.669 53.641 23.453 0 0 39.461-7.912 82.066-16.454 18.905-3.791 31.161-22.194 27.336-41.271z" fill="#774b38"/>
  <path d="m128.06 93.221 41.811 68.813 51.275-24.895-47.531-72.654c-3.018-4.602-7.273-8.055-12.135-10.098-4.85-2.034-10.306-2.648-15.705-1.566-18.321 3.674-27.423 24.431-17.715 40.4z" fill="#484e66"/>
  <path d="m173.02 318.53-77.864-15.622c-18.351-3.679-36.201 8.217-39.878 26.558l-0.172 0.856c-3.825 19.077 8.431 37.48 27.337 41.271 42.605 8.542 82.066 16.454 82.066 16.454 21.031 4.216 42.449-5.151 53.641-23.453l37.847-61.836 29.686-87.202-29.686-24.759z" fill="#e8b174"/>
  <path d="m342.31 95.064-51.456 42.075-34.854 53.654v111.96l86.13-140.72z" fill="#cc935a"/>
  <path d="m383.94 93.221-41.811 68.813-51.275-24.895 47.531-72.654c3.018-4.602 7.273-8.055 12.135-10.098 4.85-2.034 10.306-2.648 15.705-1.566 18.321 3.674 27.423 24.431 17.715 40.4z" fill="#323742"/>
  <path d="m196.63 425.02v21.229c0 9.922 8.043 17.965 17.965 17.965h41.408l39.103-28.579-39.103-28.58h-41.408c-9.922 0-17.965 8.043-17.965 17.965z" fill="#484e66"/>
  <path d="m297.41 464.21c9.922 0 17.965-8.043 17.965-17.965v-21.229c0-9.922-8.043-17.965-17.965-17.965h-41.408v57.158h41.408z" fill="#323742"/>
 </g>
</svg>
