<svg width="900" height="900" version="1.1" viewBox="0 0 238.12 238.12" xmlns="http://www.w3.org/2000/svg">
 <g transform="matrix(.4625 0 0 .4625 .66146 .66146)">
  <circle cx="256" cy="256" r="256" fill="#a6d4fd"/>
  <path d="m397.75 119.86-6.441-6.441-6.43 6.43-51.552-51.552-94.409 94.409-53.749-53.749-11.823 11.823-11.824-11.823h-24.112l-11.294 11.294-11.294-11.294-13.465 13.465 109.35 109.34-7.463 7.463 9.882 9.882-25.5 25.5-39.915 117.91 12.588 12.588-32.583 32.583 66.865 66.865c19.681 4.85 40.25 7.439 61.427 7.439 141.38 0 256-114.62 256-256 0-18.26-1.927-36.068-5.561-53.245l-95.792-95.792z" fill="#6cb1f8"/>
  <path d="m220.48 168.56-92.771 269.14h21.81l90.454-262.42z" fill="#e9edf5"/>
  <path d="m291.81 168.56 92.77 269.14h-21.81l-90.454-262.42z" fill="#cdd2e1"/>
  <path d="m256 210.58h-10.31v216.51h10.31l4.051-108.25z" fill="#e9edf5"/>
  <path d="m266.31 210.58h-10.31v216.51h10.31z" fill="#cdd2e1"/>
  <path d="m256 184.8h-20.62v30.929h20.62l4.815-15.464z" fill="#fff"/>
  <path d="m276.62 184.8h-20.62v30.929h20.62z" fill="#e9edf5"/>
  <path d="m256 159.03h-51.549v25.775h51.549l8.343-12.887z" fill="#555a65"/>
  <path d="m307.55 159.03h-51.549v25.775h51.549z" fill="#333940"/>
  <path d="m256 68.301h-77.324v92.789h77.324l8.343-46.395z" fill="#fff"/>
  <path d="m333.32 68.301h-77.324v92.789h77.324z" fill="#e9edf5"/>
  <path d="m230.22 114.7c0 14.235 11.54 25.775 25.775 25.775l8.231-25.775-8.231-25.774c-14.235 0-25.775 11.54-25.775 25.774z" fill="#555a65"/>
  <path d="m281.78 114.7c0-14.235-11.54-25.775-25.775-25.775v51.549c14.235 1e-3 25.775-11.539 25.775-25.774z" fill="#333940"/>
  <path d="m101.35 106.96v15.465h154.65l6.853-7.733-6.853-7.732z" fill="#fa8226"/>
  <path d="m256 106.96h154.65v15.465h-154.65z" fill="#f65c23"/>
 </g>
</svg>
