<svg width="900" height="900" version="1.1" viewBox="0 0 238.12 238.12" xmlns="http://www.w3.org/2000/svg">
 <g transform="matrix(.4625 0 0 .4625 .66146 .66146)">
  <circle cx="256" cy="256" r="256" fill="#2fa69a"/>
  <path d="m506.04 311.1-119.21-119.21-8.018 26.92-37.143-37.143-19.602 27.892-263.45 16.326 93.509 93.509-79.786 20.94 171.37 171.37c4.076 0.193 8.176 0.3 12.3 0.3 122.47 0 224.83-86.002 250.04-200.9z" fill="#12887a"/>
  <rect x="94.33" y="238.33" width="55.901" height="77.19" fill="#fcd748"/>
  <polygon points="454.75 265.15 424.85 252.11 386.83 191.89 328.79 191.89 328.79 331.44 454.75 331.44" fill="#fff"/>
  <polygon points="378.56 207.77 405.42 252.19 330.35 252.19 328.79 207.77" fill="#68b6f3"/>
  <polygon points="253.96 133.93 108.36 103.6 58.61 225.88 184.04 305.8 278.96 315.52 328.71 193.23" fill="#feec65"/>
  <g fill="#fcd748">
   <polygon points="58.61 225.88 184.04 305.8 278.96 315.52 303.16 256.02 87.713 154.35"/>
   <polygon points="278.96 315.52 328.71 193.23 253.96 133.93 184.04 305.8"/>
  </g>
  <polygon points="278.96 315.52 303.16 256.02 220.21 216.88 184.04 305.8" fill="#fabf40"/>
  <polygon points="268.33 317.8 325 181.67 341.67 181.67 341.67 317.8" fill="#1d67bc"/>
  <rect x="72.33" y="306.33" width="392" height="34" fill="#e0e0e0"/>
  <rect x="278.96" y="306.33" width="185.37" height="34" fill="#d1d1cf"/>
  <circle cx="396.1" cy="334.53" r="36.752" fill="#303030"/>
  <circle cx="396.1" cy="334.53" r="16.722" fill="#878786"/>
  <circle cx="118.77" cy="334.53" r="36.752" fill="#595959"/>
  <circle cx="118.77" cy="334.53" r="16.722" fill="#969696"/>
  <circle cx="209" cy="334.53" r="36.752" fill="#595959"/>
  <circle cx="209" cy="334.53" r="16.722" fill="#969696"/>
 </g>
</svg>
