<svg width="900" height="900" version="1.1" viewBox="0 0 238.12 238.12" xmlns="http://www.w3.org/2000/svg">
 <g transform="matrix(.4625 0 0 .4625 .66146 .66146)">
  <g id="XMLID_2819_">
   <g id="XMLID_2841_">
    <g id="XMLID_2842_">
     <g id="XMLID_2843_">
      <g id="XMLID_2844_">
       <g id="XMLID_2845_">
        <g id="XMLID_2846_">
         <g id="XMLID_2847_">
          <g id="XMLID_2848_">
           <g id="XMLID_2849_">
            <g id="XMLID_2850_">
             <g id="XMLID_2867_">
              <g id="XMLID_2868_">
               <g id="XMLID_2869_">
                <g id="XMLID_2870_">
                 <circle cx="256" cy="256" r="256" fill="#8afff1"/>
                </g>
               </g>
              </g>
             </g>
            </g>
           </g>
          </g>
         </g>
        </g>
       </g>
      </g>
     </g>
    </g>
   </g>
  </g>
  <g id="XMLID_2827_">
   <g id="XMLID_2828_">
    <g id="XMLID_2829_">
     <g id="XMLID_2830_">
      <g id="XMLID_2831_">
       <g id="XMLID_2832_">
        <g id="XMLID_2833_">
         <g id="XMLID_2834_">
          <g id="XMLID_2835_">
           <g id="XMLID_2836_">
            <g id="XMLID_2837_">
             <g id="XMLID_2838_">
              <g id="XMLID_2839_">
               <g id="XMLID_2840_">
                <path d="m512 256c0 127.21-92.79 232.75-214.38 252.63 0 0-27.45-20.146-41.62-20.146-15.99 0-46.82 19.236-46.82 19.236-119.02-21.99-209.18-126.33-209.18-251.72 0-53.14 16.2-102.5 43.92-143.41 0 0 25.086-12.144 35.37-22.787 10.284-10.644 26.08-40.822 26.08-40.822 42.27-30.801 94.33-48.981 150.63-48.981s108.36 18.18 150.63 48.98c0 0 14.367 24.405 26.165 37.434 8.074 8.916 35.285 26.175 35.285 26.175 27.72 40.911 43.92 90.271 43.92 143.41z" fill="#845e44"/>
               </g>
              </g>
             </g>
            </g>
           </g>
          </g>
         </g>
        </g>
       </g>
      </g>
     </g>
    </g>
   </g>
  </g>
  <path d="m468.08 112.59s-17.747-11.258-28.829-20.286l-158.44 83.901 17.175 17.204-12.985 15.243-53.306-53.306-128.69 2.221-0.918 66.53 98.259 98.259 11.662 78.372-15.491-15.491-5.066 65.483 21.247 21.247 19.004 23.702c8.479-3.874 17.662-7.185 24.295-7.185 14.17 0 41.62 20.146 41.62 20.146 121.59-19.88 214.38-125.42 214.38-252.63 0-53.14-16.2-102.5-43.92-143.41z" fill="#473226"/>
  <path d="m201.78 395.42c-3.005-12.375-15.083-20.307-27.634-18.153l-0.26 0.045c-1.645 0.282-2.734 1.851-2.419 3.49 1.761 9.172 5.563 30.08 9.046 49.372 4.007 22.195 25.106 37.049 47.352 33.34 7.775-1.306 13.006-8.684 11.665-16.453l-0.675-3.91c-3.358-19.458-13.806-30.429-33.5-31.868z" fill="#ffc1a6"/>
  <path d="m284.26 385.43-4.643-12.014 3.379-37.04c0.717-7.38 6.921-13.01 14.337-13.01 7.955 0 14.404 6.449 14.404 14.404v41.426z" fill="#f9a991"/>
  <path d="m223.72 383.73 5.586-70.697v-12.333c0-8.591 6.151-14.742 13.738-14.742s13.738 6.151 13.738 13.738v16.433l3.431 52.834-3.431 14.767z" fill="#f9a991"/>
  <path d="m311.73 379.2v56.26c0 10.68-5.64 20.05-14.11 25.29v47.88c-13.3 2.18-26.93 3.33-40.83 3.37h-0.79c-15.99 0-31.64-1.47-46.82-4.28v-49.95l-5.52-14.69c-1.21-3.23-1.83-6.65-1.83-10.1v-119.95c0-7.64 6.24-13.81 13.88-13.73 7.52 0.08 13.58 6.21 13.58 13.73v66.17z" fill="#ffdcc0"/>
  <path d="m311.73 379.2v56.26c0 10.68-5.64 20.05-14.11 25.29v47.88c-13.3 2.18-26.93 3.33-40.83 3.37v-195.87c0-7.59 6.15-13.74 13.74-13.74 3.79 0 7.22 1.54 9.7 4.03 2.5 2.48 4.03 5.91 4.03 9.71v63.07z" fill="#ffc1a6"/>
  <path d="m398.81 192.33c-6.625 10.875-3.694 25.025 6.704 32.376l0.216 0.152c1.363 0.963 3.242 0.624 4.178-0.757 5.24-7.73 17.336-25.203 28.515-41.308 12.861-18.528 8.445-43.95-9.908-57.058-6.421-4.574-15.337-3.056-19.883 3.386l-2.288 3.242c-11.385 16.133-11.754 31.279 1.154 46.222z" fill="#e29074"/>
  <path d="m333.43 141.07-5.212 11.779-28.581 23.803c-5.726 4.712-14.094 4.306-19.337-0.938-5.625-5.625-5.625-14.745 0-20.371l29.293-29.293z" fill="#bc7464"/>
  <path d="m375.04 185.08-53.94 46.04-8.721 8.721c-6.075 6.075-14.773 6.075-20.138 0.71s-5.365-14.063 0-19.428l11.62-11.62 34.933-39.785 12.868-8.015z" fill="#bc7464"/>
  <path d="m468.08 112.59-30.41 30.41-6.49 14.3c-1.42 3.14-3.41 5.99-5.84 8.43l-84.82 84.82c-5.41 5.4-14.18 5.36-19.53-0.1-5.25-5.38-5.21-14 0.11-19.32l46.79-46.79-19.44-19.44-44.6 44.6c-5.37 5.36-14.06 5.36-19.43 0-2.68-2.69-4.02-6.2-4.01-9.71-0.01-3.52 1.33-7.03 4.01-9.72l44.6-44.6-19.42-19.42 39.78-39.78c7.55-7.55 18.16-10.19 27.86-7.9l29.39-29.39c23.98 17.48 44.8 39.02 61.45 63.61z" fill="#e29074"/>
  <path d="m113.19 192.33c6.625 10.875 3.694 25.025-6.704 32.376l-0.216 0.152c-1.363 0.963-3.242 0.624-4.178-0.757-5.24-7.73-17.336-25.203-28.515-41.308-12.861-18.528-8.445-43.95 9.908-57.058 6.421-4.574 15.337-3.056 19.882 3.386l2.288 3.242c11.385 16.133 11.754 31.279-1.154 46.222z" fill="#ffc1a6"/>
  <path d="m178.57 141.07 5.212 11.779 28.581 23.803c5.726 4.712 14.094 4.306 19.337-0.938 5.625-5.625 5.625-14.745 0-20.371l-29.293-29.293z" fill="#ffc1a6"/>
  <path d="m136.96 185.08 53.94 46.04 8.721 8.721c6.075 6.075 14.773 6.075 20.138 0.71s5.365-14.063 0-19.428l-11.62-11.62-34.933-39.785-12.868-8.015z" fill="#ffc1a6"/>
  <path d="m231.59 199.79c0.01 3.51-1.33 7.02-4.01 9.71-5.37 5.36-14.06 5.36-19.43 0l-44.6-44.6-19.44 19.44 46.79 46.79c5.32 5.32 5.36 13.94 0.11 19.32-5.35 5.46-14.12 5.5-19.53 0.1l-84.82-84.82c-2.43-2.44-4.42-5.29-5.84-8.43l-6.49-14.3-30.41-30.41c16.65-24.59 37.47-46.13 61.45-63.61l29.39 29.39c9.7-2.29 20.31 0.35 27.86 7.9l39.78 39.78-19.42 19.42 44.6 44.6c2.68 2.69 4.02 6.2 4.01 9.72z" fill="#ffdcc0"/>
 </g>
</svg>
