<svg width="900" height="900" version="1.1" viewBox="0 0 238.12 238.12" xmlns="http://www.w3.org/2000/svg">
 <g transform="matrix(.4625 0 0 .4625 .66146 .66146)">
  <circle cx="256" cy="256" r="256" fill="#a3d4ff"/>
  <path d="m512 256c0-4.697-0.126-9.364-0.376-13.999l-153.04-153.04-11.516 17.741-76.07-76.07-138.84 113.69-23.836 48.512 98.352 98.352-47.881 50.152 66.393 66.393-57.447 34.409 69.156 69.156c6.309 0.465 12.681 0.702 19.108 0.702 141.38 0 256-114.62 256-256z" fill="#65b1fc"/>
  <path d="m241 30.634h30v271.71h-30z" fill="#fff"/>
  <path d="m256 30.634h15v271.71h-15z" fill="#e9edf5"/>
  <path d="m344.26 442.14h-56.637l-31.626-7.142-31.626 7.142h-56.637v-132.42l88.263-64.617 88.263 64.617z" fill="#fff"/>
  <path d="m256 245.14v189.88l31.626 7.132h56.637v-132.42z" fill="#e9edf5"/>
  <path d="m353.21 341.34-97.209-76.264-97.209 76.264-19.398-24.726 116.61-91.482 116.61 91.482z" fill="#636978"/>
  <path d="m372.61 316.61-116.61-91.482v39.944l97.209 76.264z" fill="#414952"/>
  <path d="m224.37 362.51h63.252v79.634h-63.252z" fill="#636978"/>
  <path d="m256 362.51h31.626v79.634h-31.626z" fill="#414952"/>
  <path d="m158.86 165.16c19.978 0 37.674 9.77 48.572 24.791 10.898-15.021 28.594-33.022 48.572-33.022s37.674 18.001 48.572 33.022c10.898-15.021 28.594-24.791 48.572-24.791 21.228 0 39.88 11.03 50.537 27.672-1.269-80.478-66.901-145.33-147.68-145.33s-146.41 64.848-147.68 145.33c10.657-16.642 29.309-27.672 50.537-27.672z" fill="#fe8205"/>
  <path d="m256.04 47.511-0.042 109.42c19.961 0.025 37.682 18.01 48.572 33.021 10.898-15.021 28.594-24.791 48.572-24.791 21.228 0 39.88 11.03 50.537 27.672-1.269-80.463-66.879-145.3-147.64-145.32z" fill="#fa5d0f"/>
  <path d="m256 165.16c19.941 0 37.669 9.817 48.572 24.791-0.924-79.099-22.35-142.44-48.572-142.44s-47.648 63.346-48.572 142.44c10.903-14.974 28.631-24.791 48.572-24.791z" fill="#fe6a16"/>
  <path d="m304.57 189.96c-0.923-79.056-22.37-142.38-48.572-142.44v117.65c19.923 0.014 37.677 9.827 48.572 24.79z" fill="#f24500"/>
 </g>
</svg>
