<svg width="900" height="900" version="1.1" viewBox="0 0 238.12 238.12" xmlns="http://www.w3.org/2000/svg">
 <g transform="matrix(.4625 0 0 .4625 .66146 .66146)">
  <g id="XMLID_2218_">
   <g id="XMLID_2219_">
    <g id="XMLID_2220_">
     <g id="XMLID_2221_">
      <g id="XMLID_2222_">
       <g id="XMLID_2223_">
        <g id="XMLID_2224_">
         <g id="XMLID_2225_">
          <g id="XMLID_2226_">
           <g id="XMLID_2227_">
            <g id="XMLID_2228_">
             <g id="XMLID_2229_">
              <g id="XMLID_2230_">
               <g id="XMLID_2231_">
                <path d="m512 256c0 131.99-99.9 240.66-228.21 254.5 0 0-18.4-5.683-27.79-5.683s-27.79 5.683-27.79 5.683c-128.31-13.84-228.21-122.51-228.21-254.5 0-141.38 114.62-256 256-256s256 114.62 256 256z" fill="#a2e864"/>
               </g>
              </g>
             </g>
            </g>
           </g>
          </g>
         </g>
        </g>
       </g>
      </g>
     </g>
    </g>
   </g>
  </g>
  <path d="m283.79 510.5c126.38-13.632 225.19-119.26 228.14-248.55l-169.29-169.29h-4.658l-59.471-59.471-149.96 384 92.422 92.422c2.401 0.328 4.812 0.624 7.234 0.885 0 0 18.4-5.683 27.79-5.683s27.79 5.683 27.79 5.683z" fill="#5bce74"/>
  <path d="m256 393.19 18.355 93.017-18.355 25.793c-9.39 0-18.66-0.51-27.79-1.5v-117.31z" fill="#fff"/>
  <path d="m283.79 510.5v-117.31h-27.79v118.81c9.39 0 18.66-0.51 27.79-1.5z" fill="#e5e5ea"/>
  <path d="m320.24 316.4-64.243-106.28-58.72 11.59s-57.91 89.626-68.726 195.48h127.45z" fill="#57576b"/>
  <path d="m383.45 417.19c-10.817-105.85-68.726-195.48-68.726-195.48l-58.72-11.589v207.07z" fill="#353544"/>
  <path d="m278.39 100.94-22.392-67.746h-22.516l-14.912 45.215-49.218 14.256 9.593 50.317 117.3 17.448 19.622-55.742z" fill="#fff"/>
  <path d="m333.05 142.98 9.593-50.316-49.218-14.256-14.912-45.215h-22.516v109.79z" fill="#e5e5ea"/>
  <path d="m256 137.98c-43.684-38.861-77.052 5.001-77.052 5.001l18.333 78.735h58.719l40.243-32.824z" fill="#f45162"/>
  <path d="m314.72 221.72 18.333-78.735s-33.368-43.862-77.053-5.001v83.737h58.72z" fill="#c42052"/>
 </g>
</svg>
