<svg width="900" height="900" version="1.1" viewBox="0 0 238.12 238.12" xmlns="http://www.w3.org/2000/svg">
 <g transform="matrix(.4625 0 0 .4625 .66146 .66146)">
  <circle cx="256" cy="256" r="256" fill="#00c8c8"/>
  <path d="m512 256c0-5.185-0.154-10.334-0.458-15.443l-137.08-137.26-263.06 286.05 121.64 121.64c7.562 0.672 15.22 1.015 22.958 1.015 141.38 0 256-114.62 256-256z" fill="#1cadb5"/>
  <path d="m295.39 69.168c-60.029 0-108.69 48.663-108.69 108.69 0 71.47 28.251 140.04 78.596 190.77l28.484 28.702c0.89 0.896 1.81 1.755 2.745 2.593l10-165.38-10-165.37c-0.377-2e-3 -0.754-0.013-1.133-0.013z" fill="#ffcdbe"/>
  <path d="m295.39 69.168c-0.297 0-0.591 9e-3 -0.886 0.011v328.85c12.042 11.762 28.206 18.374 45.065 18.374 35.629 0 64.512-28.883 64.512-64.512v-174.03c0-60.028-48.662-108.69-108.69-108.69z" fill="#ffbeaa"/>
  <path d="m229.32 192.76c0 46.602 18.421 91.314 51.248 124.39l15.948 16.07 5.436-16.288-5.436-13.976c-9.955-17.349-13.639-35.847-13.639-60.65 0-17.397 4.452-32.049 13.639-41.821l12.788-47.328-12.788-31.177c-37.433 1.914-67.196 32.87-67.196 70.778z" fill="#ffbeaa"/>
  <g fill="#faa68e">
   <path d="m299.15 335.86c7.3 7.356 17.036 11.736 27.322 12.357l-7.997-17.423c-10.65-10.731-18.438-20.86-23.971-31.551v31.936z"/>
   <path d="m300.2 121.88c-1.919 0-3.815 0.098-5.696 0.248v80.652c7.777-9.646 19.535-15.308 35.514-15.308l4.809-0.962c14.77 0 26-2.731 36.244 6.354v-0.114c0-39.14-31.73-70.87-70.871-70.87z"/>
  </g>
  <path d="m274.53 236.31c0 27.32 7.734 53.845 21.988 76.651l10-61.281-10-60.837c-13.391 10.631-21.988 27.04-21.988 45.467z" fill="#faa68e"/>
  <path d="m371.07 203.9v-11.026c-10.244-9.085-23.725-14.602-38.495-14.602-14.572 0-27.879 5.383-38.072 14.252v117.1c6.066 10.314 13.431 19.921 22.001 28.558l9.966 10.042c0.842 0.051 1.687 0.077 2.535 0.077 23.232 0 42.064-18.833 42.064-42.064v-13.976c-12.627-5.757-21.816-23.358-21.816-44.18 2e-3 -20.822 9.191-38.424 21.817-44.181z" fill="#e09380"/>
  <path d="m178.39 235.57c-50.524 0-91.482 40.958-91.482 91.482s40.958 91.482 91.482 91.482c0.12 0 0.24-4e-3 0.36-4e-3l10-96.017-10-86.938c-0.121-1e-3 -0.24-5e-3 -0.36-5e-3z" fill="#ff6c52"/>
  <path d="m269.87 327.05c0 50.524-40.958 91.482-91.482 91.482v-182.96c50.524 0 91.482 40.958 91.482 91.482z" fill="#ff432e"/>
  <path d="m154.35 265.64v37.365h-37.365v48.075h37.365v37.366h24.398l10-64.718-10-58.088z" fill="#fff"/>
  <path d="m239.79 303.01h-37.365v-37.366h-24.037v122.81h24.037v-37.366h37.365z" fill="#e9edf5"/>
 </g>
</svg>
