<svg width="209mm" height="136mm" version="1.1" viewBox="0 0 209 136" xmlns="http://www.w3.org/2000/svg">
 <g transform="translate(-.85068 -81.134)">
  <g transform="matrix(.26458 0 0 .26458 -20.316 81.134)">
   <path class="" d="m416 96.062-160 10.302-148.66 2.832 22.624-79.903c4.345-13.044 33.227-29.293 46.976-29.293h184.04a31.936 31.936 0 0 1 30.299 21.843z" fill="#61a8d7" data-original="#ff5c50"/>
   <path class="" d="m181.93 0h-30.906a31.936 31.936 0 0 0-30.299 21.843l-24.723 74.219 14.906 10.302 16-10.302 24.724-74.219a31.933 31.933 0 0 1 30.298-21.843z" fill="#4f8fc2" data-original="#e53e3e"/>
   <path class="" d="m143.89 54.327 5.713-17.15a7.211 7.211 0 0 1 6.842-4.932h199.11a7.212 7.212 0 0 1 6.842 4.932l5.713 17.15c1.555 4.669-1.92 9.49-6.842 9.49h-210.54c-4.922 0-8.397-4.821-6.842-9.49z" fill="#2d7ad6" data-original="#d62d2d"/>
   <path class="" d="m400 128-14.721 353.4c-0.711 17.101-14.794 30.607-31.915 30.607h-121.63l-6.55-8.914-8.903 8.914h-57.37l-23.453-117.48 1.624-57.783-7.117-214.79 125.83-14.549z" fill="#61a8d7" data-original="#ff5c50"/>
   <path class="" d="m112 128 9.014 216.33 4.215 8.714-3.576 6.677 6.347 152.28h30.905l-16-384-14.906-20.603z" fill="#4f8fc2" data-original="#e53e3e"/>
   <circle class="" cx="128" cy="464" r="47.999" fill="#465679" data-original="#465679"/>
   <path class="" d="m128 479.75c-8.687 0-15.754-7.067-15.754-15.754s7.067-15.755 15.754-15.755 15.754 7.067 15.754 15.755c0 8.687-7.068 15.754-15.754 15.754z" fill="#39395f" data-original="#39395f"/>
   <path class="" d="m231.73 454.16v57.845h-15.453v-57.845c0-52.076-42.361-94.427-94.427-94.427-0.062 0-0.134 0-0.196-0.01l-0.639-15.391c0.278-0.041 0.556-0.051 0.834-0.051 60.587 0 109.88 49.284 109.88 109.88z" fill="#2d7ad6" data-original="#d62d2d"/>
   <g fill="#edf6ff">
    <path class="" d="m233.28 311.78h-47.805c-1.597 0-2.424-0.988-2.775-1.576-0.351-0.589-0.827-1.786-0.068-3.19l21.913-40.552 3.532 9.764a7.729 7.729 0 0 0 7.266 5.1 7.726 7.726 0 0 0 7.265-10.357l-9.398-25.978c-1.329-3.821-5.449-5.789-9.171-4.859l-28.092 7.147a7.727 7.727 0 0 0 3.81 14.976l11.011-2.801-21.731 40.214c-3.159 5.846-3.013 12.743 0.39 18.451 3.403 5.707 9.402 9.115 16.047 9.115h47.805a7.726 7.726 0 0 0 7.726-7.726 7.725 7.725 0 0 0-7.725-7.728zm109.43-13.554-25.279-43.785a7.7261 7.7261 0 0 0-13.382 7.726l25.279 43.785c0.798 1.383 0.357 2.594 0.023 3.192-0.328 0.588-1.107 1.574-2.65 1.65h-46.404l6.938-8.236a7.726 7.726 0 1 0-11.818-9.955l-17.767 21.091c-2.581 3.018-2.416 7.632 0.393 10.456l20.188 20.706a7.704 7.704 0 0 0 5.533 2.333 7.727 7.727 0 0 0 5.531-13.12l-7.626-7.822h45.169c0.072 0 0.145-1e-3 0.217-3e-3 6.642-0.187 12.543-3.762 15.784-9.562 3.242-5.801 3.194-12.701-0.129-18.456zm-62.583-77.176-10.222-1.823a7.728 7.728 0 0 0-2.713 15.214l27.197 4.85c3.929 0.695 7.737-1.719 8.808-5.564l7.842-27.85a7.727 7.727 0 0 0-5.343-9.532 7.724 7.724 0 0 0-9.531 5.343l-3.079 10.936-23.961-38.927c-3.483-5.659-9.567-9.01-16.175-8.887-6.644 0.094-12.595 3.586-15.917 9.34l-24.258 42.016a7.727 7.727 0 0 0 13.382 7.726l24.259-42.016c0.798-1.383 2.066-1.606 2.752-1.616 0.67 5e-3 1.96 0.178 2.797 1.537z" fill="#edf6ff" data-original="#edf6ff"/>
   </g>
   <path class="" d="m424.79 128.06h-313.88l-14.197-7.866-1.256-16.489 15.453-7.645h313.88a7.211 7.211 0 0 1 7.211 7.211v17.577a7.211 7.211 0 0 1-7.211 7.212z" fill="#4f8fc2" data-original="#e53e3e"/>
   <path class="" d="m80.001 103.27v17.577a7.211 7.211 0 0 0 7.211 7.211h23.694v-32h-23.694a7.213 7.213 0 0 0-7.211 7.212z" fill="#2d7ad6" data-original="#d62d2d"/>
  </g>
  <g transform="matrix(.26458 0 0 .26458 95.102 81.134)">
   <path class="" d="m416 96.062-160 10.302-148.66 2.832 22.624-79.903c4.345-13.044 33.227-29.293 46.976-29.293h184.04a31.936 31.936 0 0 1 30.299 21.843z" fill="#b79124" data-original="#ff5c50"/>
   <path class="" d="m181.93 0h-30.906a31.936 31.936 0 0 0-30.299 21.843l-24.723 74.219 14.906 10.302 16-10.302 24.724-74.219a31.933 31.933 0 0 1 30.298-21.843z" fill="#a08623" data-original="#e53e3e"/>
   <path class="" d="m143.89 54.327 5.713-17.15a7.211 7.211 0 0 1 6.842-4.932h199.11a7.212 7.212 0 0 1 6.842 4.932l5.713 17.15c1.555 4.669-1.92 9.49-6.842 9.49h-210.54c-4.922 0-8.397-4.821-6.842-9.49z" fill="#7e691a" data-original="#d62d2d"/>
   <path class="" d="m400 128-14.721 353.4c-0.711 17.101-14.794 30.607-31.915 30.607h-121.63l-6.55-8.914-8.903 8.914h-57.37l-23.453-117.48 1.624-57.783-7.117-214.79 125.83-14.549z" fill="#b79124" data-original="#ff5c50"/>
   <path class="" d="m112 128 9.014 216.33 4.215 8.714-3.576 6.677 6.347 152.28h30.905l-16-384-14.906-20.603z" fill="#a08623" data-original="#e53e3e"/>
   <circle cx="128" cy="464" r="47.999" fill="#465679" data-original="#465679"/>
   <path d="m128 479.75c-8.687 0-15.754-7.067-15.754-15.754s7.067-15.755 15.754-15.755 15.754 7.067 15.754 15.755c0 8.687-7.068 15.754-15.754 15.754z" fill="#39395f" data-original="#39395f"/>
   <path class="" d="m231.73 454.16v57.845h-15.453v-57.845c0-52.076-42.361-94.427-94.427-94.427-0.062 0-0.134 0-0.196-0.01l-0.639-15.391c0.278-0.041 0.556-0.051 0.834-0.051 60.587 0 109.88 49.284 109.88 109.88z" fill="#7e691a" data-original="#d62d2d"/>
   <g fill="#edf6ff">
    <path d="m233.28 311.78h-47.805c-1.597 0-2.424-0.988-2.775-1.576-0.351-0.589-0.827-1.786-0.068-3.19l21.913-40.552 3.532 9.764a7.729 7.729 0 0 0 7.266 5.1 7.726 7.726 0 0 0 7.265-10.357l-9.398-25.978c-1.329-3.821-5.449-5.789-9.171-4.859l-28.092 7.147a7.727 7.727 0 0 0 3.81 14.976l11.011-2.801-21.731 40.214c-3.159 5.846-3.013 12.743 0.39 18.451 3.403 5.707 9.402 9.115 16.047 9.115h47.805a7.726 7.726 0 0 0 7.726-7.726 7.725 7.725 0 0 0-7.725-7.728zm109.43-13.554-25.279-43.785a7.7261 7.7261 0 0 0-13.382 7.726l25.279 43.785c0.798 1.383 0.357 2.594 0.023 3.192-0.328 0.588-1.107 1.574-2.65 1.65h-46.404l6.938-8.236a7.726 7.726 0 1 0-11.818-9.955l-17.767 21.091c-2.581 3.018-2.416 7.632 0.393 10.456l20.188 20.706a7.704 7.704 0 0 0 5.533 2.333 7.727 7.727 0 0 0 5.531-13.12l-7.626-7.822h45.169c0.072 0 0.145-1e-3 0.217-3e-3 6.642-0.187 12.543-3.762 15.784-9.562 3.242-5.801 3.194-12.701-0.129-18.456zm-62.583-77.176-10.222-1.823a7.728 7.728 0 0 0-2.713 15.214l27.197 4.85c3.929 0.695 7.737-1.719 8.808-5.564l7.842-27.85a7.727 7.727 0 0 0-5.343-9.532 7.724 7.724 0 0 0-9.531 5.343l-3.079 10.936-23.961-38.927c-3.483-5.659-9.567-9.01-16.175-8.887-6.644 0.094-12.595 3.586-15.917 9.34l-24.258 42.016a7.727 7.727 0 0 0 13.382 7.726l24.259-42.016c0.798-1.383 2.066-1.606 2.752-1.616 0.67 5e-3 1.96 0.178 2.797 1.537z" fill="#edf6ff" data-original="#edf6ff"/>
   </g>
   <path class="" d="m424.79 128.06h-313.88l-14.197-7.866-1.256-16.489 15.453-7.645h313.88a7.211 7.211 0 0 1 7.211 7.211v17.577a7.211 7.211 0 0 1-7.211 7.212z" fill="#a08623" data-original="#e53e3e"/>
   <path class="" d="m80.001 103.27v17.577a7.211 7.211 0 0 0 7.211 7.211h23.694v-32h-23.694a7.213 7.213 0 0 0-7.211 7.212z" fill="#7e691a" data-original="#d62d2d"/>
  </g>
 </g>
</svg>
