<?xml version="1.0" encoding="UTF-8" standalone="no"?>
<svg
   width="209mm"
   height="136mm"
   version="1.1"
   viewBox="0 0 209 136"
   id="svg56"
   xmlns="http://www.w3.org/2000/svg"
   xmlns:svg="http://www.w3.org/2000/svg">
  <defs
     id="defs60" />
  <g
     transform="matrix(0.26458,0,0,0.26458,-21.16668,0)"
     id="g26">
    <path
       class=""
       d="m 416,96.062 -160,10.302 -148.66,2.832 22.624,-79.903 C 134.309,16.249 163.191,0 176.94,0 h 184.04 a 31.936,31.936 0 0 1 30.299,21.843 z"
       fill="#61a8d7"
       data-original="#ff5c50"
       id="path2" />
    <path
       class=""
       d="m 181.93,0 h -30.906 a 31.936,31.936 0 0 0 -30.299,21.843 l -24.723,74.219 14.906,10.302 16,-10.302 24.724,-74.219 A 31.933,31.933 0 0 1 181.93,0 Z"
       fill="#4f8fc2"
       data-original="#e53e3e"
       id="path4" />
    <path
       class=""
       d="m 143.89,54.327 5.713,-17.15 a 7.211,7.211 0 0 1 6.842,-4.932 h 199.11 a 7.212,7.212 0 0 1 6.842,4.932 l 5.713,17.15 c 1.555,4.669 -1.92,9.49 -6.842,9.49 h -210.54 c -4.922,0 -8.397,-4.821 -6.842,-9.49 z"
       fill="#2d7ad6"
       data-original="#d62d2d"
       id="path6" />
    <path
       class=""
       d="m 400,128 -14.721,353.4 c -0.711,17.101 -14.794,30.607 -31.915,30.607 h -121.63 l -6.55,-8.914 -8.903,8.914 h -57.37 l -23.453,-117.48 1.624,-57.783 -7.117,-214.79 125.83,-14.549 z"
       fill="#61a8d7"
       data-original="#ff5c50"
       id="path8" />
    <path
       class=""
       d="m 112,128 9.014,216.33 4.215,8.714 -3.576,6.677 6.347,152.28 h 30.905 l -16,-384 -14.906,-20.603 z"
       fill="#4f8fc2"
       data-original="#e53e3e"
       id="path10" />
    <circle
       class=""
       cx="128"
       cy="464"
       r="47.999001"
       fill="#465679"
       data-original="#465679"
       id="circle12" />
    <path
       class=""
       d="m 128,479.75 c -8.687,0 -15.754,-7.067 -15.754,-15.754 0,-8.687 7.067,-15.755 15.754,-15.755 8.687,0 15.754,7.067 15.754,15.755 0,8.687 -7.068,15.754 -15.754,15.754 z"
       fill="#39395f"
       data-original="#39395f"
       id="path14" />
    <path
       class=""
       d="m 231.73,454.16 v 57.845 H 216.277 V 454.16 c 0,-52.076 -42.361,-94.427 -94.427,-94.427 -0.062,0 -0.134,0 -0.196,-0.01 l -0.639,-15.391 c 0.278,-0.041 0.556,-0.051 0.834,-0.051 60.587,0 109.88,49.284 109.88,109.88 z"
       fill="#2d7ad6"
       data-original="#d62d2d"
       id="path16" />
    <g
       fill="#edf6ff"
       id="g20">
      <path
         class=""
         d="m 233.28,311.78 h -47.805 c -1.597,0 -2.424,-0.988 -2.775,-1.576 -0.351,-0.589 -0.827,-1.786 -0.068,-3.19 l 21.913,-40.552 3.532,9.764 a 7.729,7.729 0 0 0 7.266,5.1 7.726,7.726 0 0 0 7.265,-10.357 l -9.398,-25.978 c -1.329,-3.821 -5.449,-5.789 -9.171,-4.859 l -28.092,7.147 a 7.727,7.727 0 0 0 3.81,14.976 l 11.011,-2.801 -21.731,40.214 c -3.159,5.846 -3.013,12.743 0.39,18.451 3.403,5.707 9.402,9.115 16.047,9.115 h 47.805 a 7.726,7.726 0 0 0 7.726,-7.726 7.725,7.725 0 0 0 -7.725,-7.728 z m 109.43,-13.554 -25.279,-43.785 a 7.7261,7.7261 0 0 0 -13.382,7.726 l 25.279,43.785 c 0.798,1.383 0.357,2.594 0.023,3.192 -0.328,0.588 -1.107,1.574 -2.65,1.65 h -46.404 l 6.938,-8.236 a 7.726046,7.726046 0 1 0 -11.818,-9.955 l -17.767,21.091 c -2.581,3.018 -2.416,7.632 0.393,10.456 l 20.188,20.706 a 7.704,7.704 0 0 0 5.533,2.333 7.727,7.727 0 0 0 5.531,-13.12 l -7.626,-7.822 h 45.169 c 0.072,0 0.145,-0.001 0.217,-0.003 6.642,-0.187 12.543,-3.762 15.784,-9.562 3.242,-5.801 3.194,-12.701 -0.129,-18.456 z m -62.583,-77.176 -10.222,-1.823 a 7.728,7.728 0 0 0 -2.713,15.214 l 27.197,4.85 c 3.929,0.695 7.737,-1.719 8.808,-5.564 l 7.842,-27.85 a 7.727,7.727 0 0 0 -5.343,-9.532 7.724,7.724 0 0 0 -9.531,5.343 l -3.079,10.936 -23.961,-38.927 c -3.483,-5.659 -9.567,-9.01 -16.175,-8.887 -6.644,0.094 -12.595,3.586 -15.917,9.34 l -24.258,42.016 a 7.727,7.727 0 0 0 13.382,7.726 l 24.259,-42.016 c 0.798,-1.383 2.066,-1.606 2.752,-1.616 0.67,0.005 1.96,0.178 2.797,1.537 z"
         fill="#edf6ff"
         data-original="#edf6ff"
         id="path18" />
    </g>
    <path
       class=""
       d="M 424.79,128.06 H 110.91 L 96.713,120.194 95.457,103.705 110.91,96.06 h 313.88 a 7.211,7.211 0 0 1 7.211,7.211 v 17.577 a 7.211,7.211 0 0 1 -7.211,7.212 z"
       fill="#4f8fc2"
       data-original="#e53e3e"
       id="path22" />
    <path
       class=""
       d="m 80.001,103.27 v 17.577 a 7.211,7.211 0 0 0 7.211,7.211 h 23.694 v -32 H 87.212 a 7.213,7.213 0 0 0 -7.211,7.212 z"
       fill="#2d7ad6"
       data-original="#d62d2d"
       id="path24" />
  </g>
  <g
     transform="matrix(0.26458,0,0,0.26458,94.25132,0)"
     id="g52">
    <path
       class=""
       d="m 416,96.062 -160,10.302 -148.66,2.832 22.624,-79.903 C 134.309,16.249 163.191,0 176.94,0 h 184.04 a 31.936,31.936 0 0 1 30.299,21.843 z"
       fill="#b79124"
       data-original="#ff5c50"
       id="path28" />
    <path
       class=""
       d="m 181.93,0 h -30.906 a 31.936,31.936 0 0 0 -30.299,21.843 l -24.723,74.219 14.906,10.302 16,-10.302 24.724,-74.219 A 31.933,31.933 0 0 1 181.93,0 Z"
       fill="#a08623"
       data-original="#e53e3e"
       id="path30" />
    <path
       class=""
       d="m 143.89,54.327 5.713,-17.15 a 7.211,7.211 0 0 1 6.842,-4.932 h 199.11 a 7.212,7.212 0 0 1 6.842,4.932 l 5.713,17.15 c 1.555,4.669 -1.92,9.49 -6.842,9.49 h -210.54 c -4.922,0 -8.397,-4.821 -6.842,-9.49 z"
       fill="#7e691a"
       data-original="#d62d2d"
       id="path32" />
    <path
       class=""
       d="m 400,128 -14.721,353.4 c -0.711,17.101 -14.794,30.607 -31.915,30.607 h -121.63 l -6.55,-8.914 -8.903,8.914 h -57.37 l -23.453,-117.48 1.624,-57.783 -7.117,-214.79 125.83,-14.549 z"
       fill="#b79124"
       data-original="#ff5c50"
       id="path34" />
    <path
       class=""
       d="m 112,128 9.014,216.33 4.215,8.714 -3.576,6.677 6.347,152.28 h 30.905 l -16,-384 -14.906,-20.603 z"
       fill="#a08623"
       data-original="#e53e3e"
       id="path36" />
    <circle
       cx="128"
       cy="464"
       r="47.999001"
       fill="#465679"
       data-original="#465679"
       id="circle38" />
    <path
       d="m 128,479.75 c -8.687,0 -15.754,-7.067 -15.754,-15.754 0,-8.687 7.067,-15.755 15.754,-15.755 8.687,0 15.754,7.067 15.754,15.755 0,8.687 -7.068,15.754 -15.754,15.754 z"
       fill="#39395f"
       data-original="#39395f"
       id="path40" />
    <path
       class=""
       d="m 231.73,454.16 v 57.845 H 216.277 V 454.16 c 0,-52.076 -42.361,-94.427 -94.427,-94.427 -0.062,0 -0.134,0 -0.196,-0.01 l -0.639,-15.391 c 0.278,-0.041 0.556,-0.051 0.834,-0.051 60.587,0 109.88,49.284 109.88,109.88 z"
       fill="#7e691a"
       data-original="#d62d2d"
       id="path42" />
    <g
       fill="#edf6ff"
       id="g46">
      <path
         d="m 233.28,311.78 h -47.805 c -1.597,0 -2.424,-0.988 -2.775,-1.576 -0.351,-0.589 -0.827,-1.786 -0.068,-3.19 l 21.913,-40.552 3.532,9.764 a 7.729,7.729 0 0 0 7.266,5.1 7.726,7.726 0 0 0 7.265,-10.357 l -9.398,-25.978 c -1.329,-3.821 -5.449,-5.789 -9.171,-4.859 l -28.092,7.147 a 7.727,7.727 0 0 0 3.81,14.976 l 11.011,-2.801 -21.731,40.214 c -3.159,5.846 -3.013,12.743 0.39,18.451 3.403,5.707 9.402,9.115 16.047,9.115 h 47.805 a 7.726,7.726 0 0 0 7.726,-7.726 7.725,7.725 0 0 0 -7.725,-7.728 z m 109.43,-13.554 -25.279,-43.785 a 7.7261,7.7261 0 0 0 -13.382,7.726 l 25.279,43.785 c 0.798,1.383 0.357,2.594 0.023,3.192 -0.328,0.588 -1.107,1.574 -2.65,1.65 h -46.404 l 6.938,-8.236 a 7.726046,7.726046 0 1 0 -11.818,-9.955 l -17.767,21.091 c -2.581,3.018 -2.416,7.632 0.393,10.456 l 20.188,20.706 a 7.704,7.704 0 0 0 5.533,2.333 7.727,7.727 0 0 0 5.531,-13.12 l -7.626,-7.822 h 45.169 c 0.072,0 0.145,-0.001 0.217,-0.003 6.642,-0.187 12.543,-3.762 15.784,-9.562 3.242,-5.801 3.194,-12.701 -0.129,-18.456 z m -62.583,-77.176 -10.222,-1.823 a 7.728,7.728 0 0 0 -2.713,15.214 l 27.197,4.85 c 3.929,0.695 7.737,-1.719 8.808,-5.564 l 7.842,-27.85 a 7.727,7.727 0 0 0 -5.343,-9.532 7.724,7.724 0 0 0 -9.531,5.343 l -3.079,10.936 -23.961,-38.927 c -3.483,-5.659 -9.567,-9.01 -16.175,-8.887 -6.644,0.094 -12.595,3.586 -15.917,9.34 l -24.258,42.016 a 7.727,7.727 0 0 0 13.382,7.726 l 24.259,-42.016 c 0.798,-1.383 2.066,-1.606 2.752,-1.616 0.67,0.005 1.96,0.178 2.797,1.537 z"
         fill="#edf6ff"
         data-original="#edf6ff"
         id="path44" />
    </g>
    <path
       class=""
       d="M 424.79,128.06 H 110.91 L 96.713,120.194 95.457,103.705 110.91,96.06 h 313.88 a 7.211,7.211 0 0 1 7.211,7.211 v 17.577 a 7.211,7.211 0 0 1 -7.211,7.212 z"
       fill="#a08623"
       data-original="#e53e3e"
       id="path48" />
    <path
       class=""
       d="m 80.001,103.27 v 17.577 a 7.211,7.211 0 0 0 7.211,7.211 h 23.694 v -32 H 87.212 a 7.213,7.213 0 0 0 -7.211,7.212 z"
       fill="#7e691a"
       data-original="#d62d2d"
       id="path50" />
  </g>
</svg>
