<?xml version="1.0" encoding="UTF-8" standalone="no"?>
<!-- Created with Inkscape (http://www.inkscape.org/) -->

<svg
   width="209mm"
   height="136mm"
   viewBox="0 0 209 136"
   version="1.1"
   id="svg5"
   inkscape:version="1.1.2 (b8e25be833, 2022-02-05)"
   sodipodi:docname="bac_bleu_brun.svg"
   xmlns:inkscape="http://www.inkscape.org/namespaces/inkscape"
   xmlns:sodipodi="http://sodipodi.sourceforge.net/DTD/sodipodi-0.dtd"
   xmlns="http://www.w3.org/2000/svg"
   xmlns:svg="http://www.w3.org/2000/svg">
  <sodipodi:namedview
     id="namedview7"
     pagecolor="#ffffff"
     bordercolor="#999999"
     borderopacity="1"
     inkscape:pageshadow="0"
     inkscape:pageopacity="0"
     inkscape:pagecheckerboard="0"
     inkscape:document-units="mm"
     showgrid="false"
     inkscape:zoom="0.7198092"
     inkscape:cx="397.32751"
     inkscape:cy="348.00889"
     inkscape:window-width="1920"
     inkscape:window-height="1001"
     inkscape:window-x="-1929"
     inkscape:window-y="-9"
     inkscape:window-maximized="1"
     inkscape:current-layer="layer1" />
  <defs
     id="defs2" />
  <g
     inkscape:label="Calque 1"
     inkscape:groupmode="layer"
     id="layer1">
    <g
       id="g1132"
       transform="translate(-0.85067798,-81.134243)">
      <g
         id="g1008"
         transform="matrix(0.26458333,0,0,0.26458333,-20.316253,81.134243)">
        <path
           fill="#61a8d7"
           d="M 415.999,96.062 256,106.364 107.337,109.196 129.961,29.293 C 134.306,16.249 163.188,0 176.937,0 h 184.04 a 31.936,31.936 0 0 1 30.299,21.843 z"
           opacity="1"
           data-original="#ff5c50"
           class=""
           id="path984" />
        <path
           fill="#4f8fc2"
           d="m 181.929,0 h -30.906 a 31.936,31.936 0 0 0 -30.299,21.843 l -24.723,74.219 14.906,10.302 16,-10.302 24.724,-74.219 A 31.933,31.933 0 0 1 181.929,0 Z"
           opacity="1"
           data-original="#e53e3e"
           class=""
           id="path986" />
        <path
           fill="#2d7ad6"
           d="m 143.89,54.327 5.713,-17.15 a 7.211,7.211 0 0 1 6.842,-4.932 h 199.11 a 7.212,7.212 0 0 1 6.842,4.932 l 5.713,17.15 c 1.555,4.669 -1.92,9.49 -6.842,9.49 H 150.732 c -4.922,0 -8.397,-4.821 -6.842,-9.49 z"
           opacity="1"
           data-original="#d62d2d"
           class=""
           id="path988" />
        <path
           fill="#61a8d7"
           d="M 399.999,127.998 385.278,481.393 C 384.567,498.494 370.484,512 353.363,512 H 231.729 l -6.55,-8.914 -8.903,8.914 h -57.37 l -23.453,-117.48 1.624,-57.783 -7.117,-214.793 125.833,-14.549 z"
           opacity="1"
           data-original="#ff5c50"
           class=""
           id="path990" />
        <path
           fill="#4f8fc2"
           d="m 112.001,127.999 9.014,216.328 4.215,8.714 -3.576,6.677 6.347,152.28 h 30.905 l -16,-383.999 L 128,107.396 Z"
           opacity="1"
           data-original="#e53e3e"
           class=""
           id="path992" />
        <circle
           cx="128.00101"
           cy="463.99701"
           r="47.999001"
           fill="#465679"
           opacity="1"
           data-original="#465679"
           class=""
           id="circle994" />
        <path
           fill="#39395f"
           d="m 128.001,479.751 c -8.687,0 -15.754,-7.067 -15.754,-15.754 0,-8.687 7.067,-15.755 15.754,-15.755 8.687,0 15.754,7.067 15.754,15.755 0,8.687 -7.068,15.754 -15.754,15.754 z"
           opacity="1"
           data-original="#39395f"
           class=""
           id="path996" />
        <path
           fill="#2d7ad6"
           d="M 231.729,454.155 V 512 h -15.453 v -57.845 c 0,-52.076 -42.361,-94.427 -94.427,-94.427 -0.062,0 -0.134,0 -0.196,-0.01 l -0.639,-15.391 c 0.278,-0.041 0.556,-0.051 0.834,-0.051 60.587,0 109.881,49.284 109.881,109.879 z"
           opacity="1"
           data-original="#d62d2d"
           class=""
           id="path998" />
        <g
           fill="#edf6ff"
           id="g1002">
          <path
             d="m 233.28,311.781 h -47.805 c -1.597,0 -2.424,-0.988 -2.775,-1.576 -0.351,-0.589 -0.827,-1.786 -0.068,-3.19 l 21.913,-40.552 3.532,9.764 a 7.729,7.729 0 0 0 7.266,5.1 7.726,7.726 0 0 0 7.265,-10.357 l -9.398,-25.978 c -1.329,-3.821 -5.449,-5.789 -9.171,-4.859 l -28.092,7.147 a 7.727,7.727 0 0 0 3.81,14.976 l 11.011,-2.801 -21.731,40.214 c -3.159,5.846 -3.013,12.743 0.39,18.451 3.403,5.707 9.402,9.115 16.047,9.115 h 47.805 a 7.726,7.726 0 0 0 7.726,-7.726 7.725,7.725 0 0 0 -7.725,-7.728 z m 109.426,-13.554 -25.279,-43.785 a 7.726076,7.726076 0 0 0 -13.382,7.726 l 25.279,43.785 c 0.798,1.383 0.357,2.594 0.023,3.192 -0.328,0.588 -1.107,1.574 -2.65,1.65 h -46.404 l 6.938,-8.236 a 7.726046,7.726046 0 1 0 -11.818,-9.955 l -17.767,21.091 c -2.581,3.018 -2.416,7.632 0.393,10.456 l 20.188,20.706 a 7.704,7.704 0 0 0 5.533,2.333 7.727,7.727 0 0 0 5.531,-13.12 l -7.626,-7.822 h 45.169 c 0.072,0 0.145,-10e-4 0.217,-0.003 6.642,-0.187 12.543,-3.762 15.784,-9.562 3.242,-5.801 3.194,-12.701 -0.129,-18.456 z m -62.583,-77.176 -10.222,-1.823 a 7.728,7.728 0 0 0 -2.713,15.214 l 27.197,4.85 c 3.929,0.695 7.737,-1.719 8.808,-5.564 l 7.842,-27.85 a 7.727,7.727 0 0 0 -5.343,-9.532 7.724,7.724 0 0 0 -9.531,5.343 l -3.079,10.936 -23.961,-38.927 c -3.483,-5.659 -9.567,-9.01 -16.175,-8.887 -6.644,0.094 -12.595,3.586 -15.917,9.34 l -24.258,42.016 a 7.727,7.727 0 0 0 13.382,7.726 l 24.259,-42.016 c 0.798,-1.383 2.066,-1.606 2.752,-1.616 0.67,0.005 1.96,0.178 2.797,1.537 z"
             fill="#edf6ff"
             opacity="1"
             data-original="#edf6ff"
             class=""
             id="path1000" />
        </g>
        <path
           fill="#4f8fc2"
           d="M 424.788,128.062 H 110.906 l -14.197,-7.866 -1.256,-16.489 15.453,-7.645 h 313.882 a 7.211,7.211 0 0 1 7.211,7.211 v 17.577 a 7.211,7.211 0 0 1 -7.211,7.212 z"
           opacity="1"
           data-original="#e53e3e"
           class=""
           id="path1004" />
        <path
           fill="#2d7ad6"
           d="m 80.001,103.273 v 17.577 a 7.211,7.211 0 0 0 7.211,7.211 h 23.694 v -32 H 87.212 a 7.213,7.213 0 0 0 -7.211,7.212 z"
           opacity="1"
           data-original="#d62d2d"
           class=""
           id="path1006" />
      </g>
      <g
         id="g1085"
         transform="matrix(0.26458333,0,0,0.26458333,95.102065,81.134243)">
        <path
           fill="#b79124"
           d="M 415.999,96.062 256,106.364 107.337,109.196 129.961,29.293 C 134.306,16.249 163.188,0 176.937,0 h 184.04 a 31.936,31.936 0 0 1 30.299,21.843 z"
           opacity="1"
           data-original="#ff5c50"
           class=""
           id="path1061" />
        <path
           fill="#a08623"
           d="m 181.929,0 h -30.906 a 31.936,31.936 0 0 0 -30.299,21.843 l -24.723,74.219 14.906,10.302 16,-10.302 24.724,-74.219 A 31.933,31.933 0 0 1 181.929,0 Z"
           opacity="1"
           data-original="#e53e3e"
           class=""
           id="path1063" />
        <path
           fill="#7e691a"
           d="m 143.89,54.327 5.713,-17.15 a 7.211,7.211 0 0 1 6.842,-4.932 h 199.11 a 7.212,7.212 0 0 1 6.842,4.932 l 5.713,17.15 c 1.555,4.669 -1.92,9.49 -6.842,9.49 H 150.732 c -4.922,0 -8.397,-4.821 -6.842,-9.49 z"
           opacity="1"
           data-original="#d62d2d"
           class=""
           id="path1065" />
        <path
           fill="#b79124"
           d="M 399.999,127.998 385.278,481.393 C 384.567,498.494 370.484,512 353.363,512 H 231.729 l -6.55,-8.914 -8.903,8.914 h -57.37 l -23.453,-117.48 1.624,-57.783 -7.117,-214.793 125.833,-14.549 z"
           opacity="1"
           data-original="#ff5c50"
           class=""
           id="path1067" />
        <path
           fill="#a08623"
           d="m 112.001,127.999 9.014,216.328 4.215,8.714 -3.576,6.677 6.347,152.28 h 30.905 l -16,-383.999 L 128,107.396 Z"
           opacity="1"
           data-original="#e53e3e"
           class=""
           id="path1069" />
        <circle
           cx="128.00101"
           cy="463.99701"
           r="47.999001"
           fill="#465679"
           opacity="1"
           data-original="#465679"
           id="circle1071" />
        <path
           fill="#39395f"
           d="m 128.001,479.751 c -8.687,0 -15.754,-7.067 -15.754,-15.754 0,-8.687 7.067,-15.755 15.754,-15.755 8.687,0 15.754,7.067 15.754,15.755 0,8.687 -7.068,15.754 -15.754,15.754 z"
           opacity="1"
           data-original="#39395f"
           id="path1073" />
        <path
           fill="#7e691a"
           d="M 231.729,454.155 V 512 h -15.453 v -57.845 c 0,-52.076 -42.361,-94.427 -94.427,-94.427 -0.062,0 -0.134,0 -0.196,-0.01 l -0.639,-15.391 c 0.278,-0.041 0.556,-0.051 0.834,-0.051 60.587,0 109.881,49.284 109.881,109.879 z"
           opacity="1"
           data-original="#d62d2d"
           class=""
           id="path1075" />
        <g
           fill="#edf6ff"
           id="g1079">
          <path
             d="m 233.28,311.781 h -47.805 c -1.597,0 -2.424,-0.988 -2.775,-1.576 -0.351,-0.589 -0.827,-1.786 -0.068,-3.19 l 21.913,-40.552 3.532,9.764 a 7.729,7.729 0 0 0 7.266,5.1 7.726,7.726 0 0 0 7.265,-10.357 l -9.398,-25.978 c -1.329,-3.821 -5.449,-5.789 -9.171,-4.859 l -28.092,7.147 a 7.727,7.727 0 0 0 3.81,14.976 l 11.011,-2.801 -21.731,40.214 c -3.159,5.846 -3.013,12.743 0.39,18.451 3.403,5.707 9.402,9.115 16.047,9.115 h 47.805 a 7.726,7.726 0 0 0 7.726,-7.726 7.725,7.725 0 0 0 -7.725,-7.728 z m 109.426,-13.554 -25.279,-43.785 a 7.726076,7.726076 0 0 0 -13.382,7.726 l 25.279,43.785 c 0.798,1.383 0.357,2.594 0.023,3.192 -0.328,0.588 -1.107,1.574 -2.65,1.65 h -46.404 l 6.938,-8.236 a 7.726046,7.726046 0 1 0 -11.818,-9.955 l -17.767,21.091 c -2.581,3.018 -2.416,7.632 0.393,10.456 l 20.188,20.706 a 7.704,7.704 0 0 0 5.533,2.333 7.727,7.727 0 0 0 5.531,-13.12 l -7.626,-7.822 h 45.169 c 0.072,0 0.145,-10e-4 0.217,-0.003 6.642,-0.187 12.543,-3.762 15.784,-9.562 3.242,-5.801 3.194,-12.701 -0.129,-18.456 z m -62.583,-77.176 -10.222,-1.823 a 7.728,7.728 0 0 0 -2.713,15.214 l 27.197,4.85 c 3.929,0.695 7.737,-1.719 8.808,-5.564 l 7.842,-27.85 a 7.727,7.727 0 0 0 -5.343,-9.532 7.724,7.724 0 0 0 -9.531,5.343 l -3.079,10.936 -23.961,-38.927 c -3.483,-5.659 -9.567,-9.01 -16.175,-8.887 -6.644,0.094 -12.595,3.586 -15.917,9.34 l -24.258,42.016 a 7.727,7.727 0 0 0 13.382,7.726 l 24.259,-42.016 c 0.798,-1.383 2.066,-1.606 2.752,-1.616 0.67,0.005 1.96,0.178 2.797,1.537 z"
             fill="#edf6ff"
             opacity="1"
             data-original="#edf6ff"
             id="path1077" />
        </g>
        <path
           fill="#a08623"
           d="M 424.788,128.062 H 110.906 l -14.197,-7.866 -1.256,-16.489 15.453,-7.645 h 313.882 a 7.211,7.211 0 0 1 7.211,7.211 v 17.577 a 7.211,7.211 0 0 1 -7.211,7.212 z"
           opacity="1"
           data-original="#e53e3e"
           class=""
           id="path1081" />
        <path
           fill="#7e691a"
           d="m 80.001,103.273 v 17.577 a 7.211,7.211 0 0 0 7.211,7.211 h 23.694 v -32 H 87.212 a 7.213,7.213 0 0 0 -7.211,7.212 z"
           opacity="1"
           data-original="#d62d2d"
           class=""
           id="path1083" />
      </g>
    </g>
  </g>
</svg>
