<svg width="900" height="900" version="1.1" viewBox="0 0 238.12 238.12" xmlns="http://www.w3.org/2000/svg">
 <g transform="matrix(.4625 0 0 .4625 .66146 .66146)">
  <circle cx="256" cy="256" r="256" fill="#00c8c8"/>
  <path d="m510.55 228.61-133.1-133.1-0.855 24.75-57.064-57.064-119.52 97.312 110.64 110.64-9.885 8.721-133.62-133.62 4.849 50.238h-55.087l130.48 130.48-100.34 88.512 96.211 96.211c4.219 0.207 8.465 0.312 12.736 0.312 141.38 0 256-114.62 256-256 0-9.253-0.491-18.391-1.448-27.391z" fill="#00a0aa"/>
  <path d="m192.46 63.198 26.439 90.236c-57.389 31.854-99.457 130.61-99.457 193.17 0 1.088 0.013 2.173 0.038 3.255 1.256 53.652 45.907 96.14 99.573 96.14h36.585l12.962-213.9-12.961-168.9z" fill="#fff"/>
  <path d="m293.1 153.43 26.439-90.235h-63.89v382.8h37.297c53.667 0 98.318-42.488 99.573-96.14 0.025-1.082 0.038-2.167 0.038-3.255 0-62.558-42.067-161.31-99.457-193.17z" fill="#e9edf5"/>
  <path d="m200.02 125.13v35.376h57.197l5.37-17.688-5.37-17.688z" fill="#636978"/>
  <path d="m255.64 125.13h56.339v35.376h-56.339z" fill="#414952"/>
  <path d="m248.57 222.63v17.286c-25.093 2.602-39.962 18.587-39.962 37.359 0 25.278 20.817 32.527 39.962 37.173v28.81c-12.453-2.23-22.676-8.736-29.554-15.985l-14.497 20.632c10.223 10.223 24.534 17.657 44.051 19.33v16.728h8.646l6.406-79.862-6.406-81.47h-8.646zm0 63.195c-7.621-2.416-12.825-5.204-12.825-10.595 0-6.319 4.646-10.78 12.825-11.896z" fill="#414952"/>
  <path d="m266.04 290.1v-25.65c8.364 2.045 16.543 5.948 23.233 12.082l14.684-19.702c-10.036-9.293-22.861-14.869-37.917-16.542v-17.658h-10.394v161.33h10.394v-16.728c27.323-2.788 40.892-18.772 40.892-39.404 0-25.464-21.561-32.898-40.892-37.731zm0 53.53v-24.906c8.179 2.603 13.94 5.576 13.94 11.71 1e-3 5.947-4.46 11.338-13.94 13.196z" fill="#23272b"/>
  <path d="m167.15 246.73c-16.452-44.416-5.822-33.787-50.238-50.238 44.416-16.452 33.786-5.822 50.238-50.238 16.452 44.416 5.822 33.786 50.238 50.238-44.416 16.451-33.786 5.821-50.238 50.238z" fill="#ffce00"/>
  <path d="m377.45 173.75c-12.811-34.587-4.534-26.31-39.121-39.121 34.587-12.811 26.31-4.533 39.121-39.121 12.811 34.587 4.534 26.31 39.121 39.121-34.588 12.812-26.31 4.534-39.121 39.121z" fill="#fdba12"/>
  <path d="m375.56 423.35c-18.241-49.247-6.455-37.461-55.701-55.702 49.246-18.241 37.461-6.455 55.701-55.701 18.241 49.246 6.455 37.461 55.702 55.701-49.247 18.241-37.46 6.455-55.702 55.702z" fill="#fdba12"/>
 </g>
</svg>
