<svg id="Capa_1" enable-background="new 0 0 512 512" height="512" viewBox="0 0 512 512" width="512" xmlns="http://www.w3.org/2000/svg"><g><circle cx="256" cy="256" fill="#66d58a" r="256"/><path d="m399.922 135.369-24.353 24.353-48.156-48.156-33.721 33.721-47.782-47.782-82.607 82.607-45.453-45.453-29.554 9.355 19.45 19.451-2.102 2.102 70.249 70.249-23.635 23.635 32.371 32.371-102.115 102.118 110.16 110.16c20.253 5.154 41.468 7.9 63.326 7.9 141.385 0 256-114.615 256-256 0-8.4-.417-16.702-1.208-24.895l-87.09-87.09z" fill="#50af71"/><g><path d="m255.949 192.671h-8.036v10.853c-11.168 4.463-20.331 16.076-17.831 29.076 1.759 9.143 8.693 16.428 17.831 19.456v21.326c-2.485-1.306-4.091-2.915-4.111-2.935l-5.531-5.829-11.658 11.063 5.532 5.829c.868.914 6.816 6.87 15.769 8.911v9.558h8.036l5.134-53.654zm-7.469 43.229c-2.869-1.543-4.655-4.553-4.628-7.801.026-3.197 1.805-6.138 4.628-7.657z" fill="#fd3"/><path d="m263.984 239.11v-19.878c2.529 1.308 4.192 2.948 4.263 3.02l5.572 5.777 11.568-11.157-5.578-5.784c-.877-.909-6.88-6.847-15.824-8.873v-9.544h-8.036v107.309h8.036v-10.83c10.712-4.288 19.898-15.413 17.995-28.724-1.399-9.786-8.544-17.919-17.996-21.316zm-.147 32.528v-15.458c2.823 1.519 4.602 4.46 4.628 7.657.028 3.247-1.759 6.258-4.628 7.801z" fill="#f3bd44"/></g><g><g><path d="m182.4 185.091h-37.892l-7.057 127.25h52.046z" fill="#fff"/><g fill="#eaedf4"><path d="m134.56 163.253h57.829v23.136h-57.829z"/><path d="m125.886 311.043h75.177v28.92h-75.177z"/></g></g><g><path d="m367.451 185.091h-37.891l-7.057 127.25h52.046z" fill="#eaedf4"/><g fill="#dde1ea"><path d="m319.611 163.253h57.829v23.136h-57.829z"/><path d="m310.937 311.043h75.177v28.92h-75.177z"/></g></g><path d="m105.646 338.019v28.92h150.354l11.054-14.46-11.054-14.46z" fill="#fff"/><path d="m256 338.019h150.354v28.92h-150.354z" fill="#eaedf4"/><path d="m105.646 142.43v23.137h150.354l11.054-11.568-11.054-11.569z" fill="#fff"/><path d="m256 142.43h150.354v23.136h-150.354z" fill="#eaedf4"/><path d="m82.514 365.019v28.921h173.486l16.352-14.46-16.352-14.461z" fill="#eaedf4"/><path d="m256 365.019h173.486v28.92h-173.486z" fill="#dde1ea"/><path d="m88.297 144.015h167.703l12.33-49.165-12.33-49.165z" fill="#eaedf4"/><path d="m256 45.685v98.33h167.703z" fill="#dde1ea"/><path d="m152.081 127.632h103.919l7.64-30.127-7.64-30.126z" fill="#fff"/><path d="m256 67.379v60.253h103.919z" fill="#eaedf4"/></g></g></svg>