<svg width="900" height="900" version="1.1" viewBox="0 0 238.12 238.12" xmlns="http://www.w3.org/2000/svg">
 <g transform="matrix(.46285 0 0 .46285 .57322 .57322)">
  <path d="m512 256c0 141.39-114.61 256-256 256s-256-114.61-256-256 114.61-256 256-256 256 114.61 256 256z" fill="#fc1f80"/>
  <path d="m279.88 510.88c130.18-12.047 232.12-121.55 232.12-254.88 0-4.4766-0.11719-8.9258-0.34375-13.344l-118.66-118.66-143 113.45 10.707 168.36-79.375 6.5156z" fill="#af1154"/>
  <path d="m270.33 246.67 122.67-122.67h-274l122.67 122.67v145.66h-60.336v20h149.34v-20h-60.336z" fill="#fff"/>
  <path d="m270.33 246.67 122.67-122.67h-137.45v288.33h75.121v-20h-60.336z" fill="#e9edf5"/>
  <path d="m341.33 163h-170.66l84.879 84.883z" fill="#ffd93b"/>
  <path d="m341.33 163h-85.785v84.883z" fill="#fdba12"/>
 </g>
</svg>
