<svg height="512pt" viewBox="0 0 512 512" width="512pt" xmlns="http://www.w3.org/2000/svg"><path d="m512 256c0 141.386719-114.613281 256-256 256s-256-114.613281-256-256 114.613281-256 256-256 256 114.613281 256 256zm0 0" fill="#a3d4ff"/><path d="m512 256c0-2.574219-.050781-5.136719-.125-7.691406l-83.308594-83.308594-3.925781 10.339844-37.671875-37.671875-14.007812 46.4375-129.394532 7.550781-53.988281-53.988281-106.144531 63.332031 115.804687 115.804688-103.738281 68.195312 124.464844 124.464844c11.773437 1.65625 23.800781 2.535156 36.035156 2.535156 141.386719 0 256-114.613281 256-256zm0 0" fill="#65b1fc"/><path d="m125.03125 137.667969h64.542969v54.667969h-64.542969zm0 0" fill="#707789"/><path d="m322.425781 137.667969h64.542969v54.667969h-64.542969zm0 0" fill="#636978"/><path d="m95.5 165h321v220h-321zm0 0" fill="#414952"/><path d="m255.59375 165h160.90625v220h-160.90625zm0 0" fill="#333940"/><path d="m83.433594 165h345.132812v36h-345.132812zm0 0" fill="#555a66"/><path d="m255.59375 165h172.972656v36h-172.972656zm0 0" fill="#414952"/><path d="m196.816406 259.542969c0 21.824219-17.691406 39.515625-39.511718 39.515625-21.824219 0-39.515626-17.691406-39.515626-39.515625s17.691407-39.515625 39.515626-39.515625c21.820312 0 39.511718 17.691406 39.511718 39.515625zm0 0" fill="#fff"/><path d="m182.054688 249.042969h-14.25v-14.25h-21v14.25h-14.25v21h14.25v14.25h21v-14.25h14.25zm0 0" fill="#4a7aff"/><path d="m394.210938 259.542969c0 21.824219-17.691407 39.515625-39.515626 39.515625-21.820312 0-39.511718-17.691406-39.511718-39.515625s17.691406-39.515625 39.511718-39.515625c21.824219 0 39.515626 17.691406 39.515626 39.515625zm0 0" fill="#e9edf5"/><path d="m329.945312 249.042969h49.5v21h-49.5zm0 0" fill="#0053bf"/><path d="m241.832031 267.667969-18 48h23.167969l-16 48.664062 57.167969-65.273437h-30.335938l22.335938-31.390625zm0 0" fill="#ffce00"/><path d="m257.832031 299.058594 22.335938-31.390625h-24.574219v68.582031l32.574219-37.191406zm0 0" fill="#ffa300"/></svg>