<svg width="900" height="900" version="1.1" viewBox="0 0 238.12 238.12" xmlns="http://www.w3.org/2000/svg">
 <g transform="matrix(.4625 0 0 .4625 .66146 .66146)">
  <circle cx="256" cy="256" r="256" fill="#555a66"/>
  <path d="m512 256c0-9.595-0.546-19.062-1.574-28.383l-140.92-140.92-241.9 96.004 74.237 74.237-34.058 31.544 50.204 50.204-90.384 57.986 114.98 114.98c4.443 0.23 8.914 0.349 13.413 0.349 141.38 0 256-114.62 256-256z" fill="#333940"/>
  <path d="m352.17 396h-187.29c-22.507 0-40.752-18.245-40.752-40.752s18.245-40.752 40.752-40.752h187.29z" fill="#fff"/>
  <rect x="255.9" y="314.5" width="96.261" height="81.504" fill="#f2f6fc"/>
  <path d="m369.51 411h-204.63c-30.742 0-55.752-25.01-55.752-55.752s25.01-55.752 55.752-55.752h204.63v30h-204.63c-14.2 0-25.752 11.552-25.752 25.752s11.552 25.752 25.752 25.752h204.63z" fill="#ffda00"/>
  <g fill="#ffc200">
   <rect x="255.9" y="381" width="113.6" height="30"/>
   <rect x="255.9" y="299.5" width="113.6" height="30"/>
  </g>
  <path d="m352.17 182.7h-187.29c-22.507 0-40.752-18.245-40.752-40.752s18.245-40.752 40.752-40.752h187.29z" fill="#fff"/>
  <rect x="255.9" y="101.2" width="96.261" height="81.504" fill="#f2f6fc"/>
  <path d="m369.51 197.2h-204.63c-30.466 0-55.252-24.786-55.252-55.252s24.786-55.252 55.252-55.252h204.63v29h-204.63c-14.476 0-26.252 11.776-26.252 26.252s11.776 26.252 26.252 26.252h204.63z" fill="#19cffc"/>
  <g fill="#41b3e5">
   <rect x="255.9" y="168.2" width="113.6" height="29"/>
   <rect x="255.9" y="86.698" width="113.6" height="29"/>
  </g>
  <path d="m393.08 288.48h-187.29c-22.507 0-40.752-18.245-40.752-40.752s18.245-40.752 40.752-40.752h187.29z" fill="#fff"/>
  <rect x="255.9" y="206.98" width="137.17" height="81.504" fill="#f2f6fc"/>
  <path d="m410.42 303.48h-204.63c-30.742 0-55.752-25.01-55.752-55.752s25.01-55.752 55.752-55.752h204.63v30h-204.63c-14.2 0-25.752 11.552-25.752 25.752s11.552 25.752 25.752 25.752h204.63z" fill="#ff9500"/>
  <g fill="#fe8205">
   <rect x="255.9" y="273.48" width="154.52" height="30"/>
   <rect x="255.9" y="191.98" width="154.52" height="30"/>
  </g>
 </g>
</svg>
