<svg width="900" height="900" version="1.1" viewBox="0 0 238.12 238.12" xmlns="http://www.w3.org/2000/svg">
 <g transform="matrix(.4625 0 0 .4625 .66146 .66146)">
  <circle cx="256" cy="256" r="256" fill="#ffce00"/>
  <path d="m286.52 510.2c127-15.087 225.48-123.14 225.48-254.2 0-0.16 0-0.319-1e-3 -0.479l-78.399-78.398-1.852 2.966-117.38-117.39-113.67 361.67z" fill="#ffa300"/>
  <path d="m314.36 62.703s10.319 102.26 119.24 114.42c0 0 7.53 185.61-177.15 284.17h-0.857c-193.77-109.92-177.15-284.17-177.15-284.17 108.92-12.164 119.24-114.42 119.24-114.42z" fill="#4a7aff"/>
  <path d="m433.6 177.12c-108.92-12.164-119.24-114.42-119.24-114.42h-58.363v398.6h0.447c184.68-98.563 177.15-284.18 177.15-284.18z" fill="#0053bf"/>
  <circle cx="256.02" cy="295.73" r="39.748" fill="#fff"/>
  <path d="m256.02 255.98h-0.019v79.495h0.019c21.952 0 39.748-17.796 39.748-39.748s-17.796-39.747-39.748-39.747z" fill="#e9edf5"/>
  <circle cx="374.25" cy="158.98" r="24.327" fill="#e9edf5"/>
  <circle cx="137.79" cy="158.98" r="24.327" fill="#fff"/>
  <circle cx="352.55" cy="204.63" r="27.506" fill="#e9edf5"/>
  <circle cx="159.49" cy="204.63" r="27.506" fill="#fff"/>
  <circle cx="313.37" cy="251.58" r="33.927" fill="#e9edf5"/>
  <circle cx="198.67" cy="251.58" r="33.927" fill="#fff"/>
 </g>
</svg>
