<svg width="900" height="900" version="1.1" viewBox="0 0 238.12 238.12" xmlns="http://www.w3.org/2000/svg">
 <g transform="matrix(.4625 0 0 .4625 .66146 .66146)">
  <circle cx="256" cy="256" r="256" fill="#a3d4ff"/>
  <path d="m266.94 511.77c136.31-5.729 245.06-118.05 245.06-255.77 0-1.101-7e-3 -2.2-0.021-3.298l-69.138-69.138-299.48 170.66 49.45 49.449-21.461 12.507z" fill="#65b1fc"/>
  <path d="m256 394.65c-84.993 0-158.01-60.369-173.98-143.85l-12.864-67.241h373.68l-12.864 67.241c-15.97 83.479-88.984 143.85-173.98 143.85z" fill="#c38778"/>
  <path d="m255.64 183.56v211.08c0.119 0 0.237 4e-3 0.356 4e-3 84.993 0 158.01-60.369 173.98-143.85l12.864-67.241z" fill="#a65d4e"/>
  <path d="m272.04 394.65-16.397 21.526h-84.297v-43.051h84.653z" fill="#b46e5a"/>
  <path d="m255.64 373.13h85.009v43.051h-85.009z" fill="#915041"/>
  <path d="m400.36 320.2-11.409-58.083 43.108-22.182 7.159-37.423-63.758 32.808-24.892-27.583 11.221-24.168h-33.076l-49.789 107.24-78.804 8.937-44.481-48.993 44.588-8.918 30.564-58.264h-33.877l-16.605 31.654-65.623 13.124-18.023 66.605c5.731 11.799 12.714 22.824 20.762 32.922l1.312 0.355 15.321-56.617 54.176 59.673 110.81-12.566 37.8-81.415 21.3 23.603 17.192 87.525c9.289-8.466 17.69-17.924 25.028-28.233z" fill="#b46e5a"/>
  <path d="m439.22 202.51-63.758 32.808-24.892-27.583 11.221-24.168h-33.076l-49.789 107.24-23.278 2.64v30.192l43.395-4.921 37.8-81.415 21.3 23.603 17.192 87.525c9.289-8.464 17.689-17.923 25.028-28.231l-11.409-58.083 43.108-22.182z" fill="#915041"/>
 </g>
</svg>
