<svg width="900" height="900" version="1.1" viewBox="0 0 238.12 238.12" xmlns="http://www.w3.org/2000/svg">
 <g transform="matrix(.4625 0 0 .4625 .66146 .66146)">
  <g id="XMLID_1424_">
   <g id="XMLID_1425_">
    <g id="XMLID_1426_">
     <g id="XMLID_1427_">
      <g id="XMLID_1428_">
       <g id="XMLID_1429_">
        <g id="XMLID_1430_">
         <g id="XMLID_1431_">
          <g id="XMLID_1432_">
           <g id="XMLID_1433_">
            <g id="XMLID_1434_">
             <g id="XMLID_1435_">
              <g id="XMLID_1436_">
               <g id="XMLID_1437_">
                <g id="XMLID_1438_">
                 <circle cx="256" cy="256" r="256" fill="#ffa21a"/>
                </g>
               </g>
              </g>
             </g>
            </g>
           </g>
          </g>
         </g>
        </g>
       </g>
      </g>
     </g>
    </g>
   </g>
  </g>
  <path d="m511.94 261.71-233.75-233.75-44.379 169.82-102.69 31.461 102.86 102.86-61.806 138.45 37.218 37.218c15.112 2.779 30.687 4.232 46.602 4.232 139.48 0 252.9-111.54 255.94-250.29z" fill="#ed7600"/>
  <path d="m360.69 198.35v18.904h-209.39v-18.904c0-50.013 35.059-91.831 81.933-102.22 7.323-1.621 14.944-2.482 22.76-2.482s15.437 0.861 22.76 2.482c46.875 10.39 81.933 52.208 81.933 102.22z" fill="#d8d8d8"/>
  <path d="m360.69 198.35v18.91h-104.69v-123.61c7.62 0 15.05 0.82 22.19 2.36l0.57 0.12c42.7 9.46 75.59 45.01 81.1 89.07 0.55 4.3 0.83 8.69 0.83 13.15z" fill="#bcbcbc"/>
  <path d="m256 121.34c-12.255 0-22.189-9.934-22.189-22.189v-71.195h44.378v71.195c0 12.255-9.934 22.189-22.189 22.189z" fill="#0baf78"/>
  <path d="m278.19 27.96v71.19c0 12.25-9.94 22.19-22.19 22.19v-93.38z" fill="#007a57"/>
  <path d="m360.61 214.16-8.17 100.75-18.891 38.192 13.431 29.088-7.16 88.36h-167.64l-7.16-88.36 18.739-33.643-24.199-33.637-8.17-100.75z" fill="#563b22"/>
  <path d="m360.61 214.16-0.25 3.1-0.97 11.98-6.95 85.67-18.89 38.19 13.43 29.09-7.16 88.36h-83.82v-256.39z" fill="#331d0e"/>
  <path d="m256 185.2h-124.88v44.042h124.88l16.921-22.021z" fill="#fff"/>
  <path d="m256 185.2h124.88v44.04h-124.88z" fill="#d8d8d8"/>
  <path d="m352.44 314.91-5.46 67.28h-181.96l-5.46-67.28z" fill="#ffd4a1"/>
  <path d="m352.44 314.91-5.46 67.28h-90.98v-67.28z" fill="#f7b66f"/>
  <circle transform="matrix(.16 -.987 .987 .16 -129.05 545.41)" cx="256" cy="348.55" r="53.218" fill="#0baf78"/>
  <path d="m309.22 348.55c0 12.76-4.49 24.47-11.99 33.64-9.75 11.95-24.6 19.58-41.23 19.58v-106.44c16.63 0 31.48 7.63 41.23 19.58 7.5 9.17 11.99 20.88 11.99 33.64z" fill="#007a57"/>
 </g>
</svg>
