<svg width="900" height="900" version="1.1" viewBox="0 0 238.12 238.12" xmlns="http://www.w3.org/2000/svg">
 <g id="XMLID_760_" transform="matrix(.4625 0 0 .4625 .66146 .66146)">
  <g id="XMLID_1538_">
   <g id="XMLID_1540_">
    <g id="XMLID_2191_">
     <g id="XMLID_2192_">
      <g id="XMLID_2193_">
       <g id="XMLID_2194_">
        <g id="XMLID_2195_">
         <g id="XMLID_2196_">
          <g id="XMLID_2197_">
           <g id="XMLID_2198_">
            <g id="XMLID_2199_">
             <g id="XMLID_2201_">
              <g id="XMLID_2202_">
               <g id="XMLID_2203_">
                <circle id="XMLID_2204_" cx="256" cy="256" r="256" fill="#ff0335"/>
               </g>
              </g>
             </g>
            </g>
           </g>
          </g>
         </g>
        </g>
       </g>
      </g>
     </g>
    </g>
   </g>
  </g>
  <g id="XMLID_623_">
   <path id="XMLID_1535_" d="m512 256c0-20.851-2.511-41.113-7.215-60.517l-38.054-38.054-127.21-95.695-50.024 49.016 10.125 7.875-133.02 133.87-4.243-4.243-99.639 99.64c-12.387 12.387-12.387 32.47 0 44.857l102.77 102.77c28.14 10.638 58.636 16.477 90.501 16.477 141.38 0 256-114.62 256-256z" fill="#c2001b"/>
   <path id="XMLID_1155_" d="m339.52 61.734-50.024 49.016 10.125 7.875-149.56 150.42 29.319 29.319 25.318-25.318 73.207 73.207 188.82-188.82zm7.061 53.192c-3.451-3.451-3.451-9.098 0-12.548 3.451-3.451 9.098-3.451 12.548 0 3.451 3.451 3.451 9.098 0 12.548-3.451 3.451-9.097 3.451-12.548 0z" fill="#e1e1e3"/>
   <g id="XMLID_475_">
    <path id="XMLID_479_" d="m361.72 78.432-199.2 203.06 16.872 16.871 25.314-25.314 73.207 73.207 188.83-188.83zm-15.136 36.5c-3.451-3.451-3.451-9.108 0-12.558 3.451-3.451 9.1-3.444 12.551 7e-3s3.451 9.093 0 12.544c-3.451 3.45-9.1 3.457-12.551 7e-3z" fill="#c8c6cc"/>
    <path id="XMLID_1759_" d="m116.56 365.84 51.949-51.949 42.947-16.554-49.085-49.086-99.64 99.64c-12.387 12.387-12.387 32.47 0 44.857s32.47 12.387 44.857 0c7.335-7.335 10.325-17.371 8.972-26.908z" fill="#8a6746"/>
    <path id="XMLID_478_" d="m107.58 392.75c-12.388 12.388-32.47 12.388-44.859 0-1.98-1.98-3.649-4.158-4.992-6.477l121.32-121.32 32.393 32.393-42.943 16.553-51.951 51.951c1.358 9.531-1.633 19.565-8.973 26.905z" fill="#715539"/>
    <circle id="XMLID_1758_" transform="matrix(.7071 -.7071 .7071 .7071 -238.71 170.66)" cx="86.649" cy="373.48" r="9.834" fill="#fff5cb"/>
    <circle id="XMLID_1757_" transform="matrix(.7071 -.7071 .7071 .7071 -176.1 188.45)" cx="139.43" cy="306.79" r="9.834" fill="#fff"/>
    <path id="XMLID_477_" d="m146.38 313.75c-3.84 3.84-10.062 3.84-13.902 0-0.375-0.375-0.721-0.778-1.025-1.195l13.739-13.739c0.417 0.304 0.82 0.651 1.195 1.025 3.839 3.84 3.832 10.069-7e-3 13.909z" fill="#fff5cb"/>
    <polygon id="XMLID_476_" points="264.45 332.79 277.91 346.25 466.73 157.43 451.33 145.91" fill="#fff5cb"/>
   </g>
  </g>
 </g>
</svg>
