<svg width="900" height="900" version="1.1" viewBox="0 0 238.12 238.12" xmlns="http://www.w3.org/2000/svg">
 <g transform="matrix(.4625 0 0 .4625 .66146 .66146)">
  <g id="XMLID_806_">
   <g id="XMLID_807_">
    <g id="XMLID_808_">
     <g id="XMLID_809_">
      <g id="XMLID_810_">
       <g id="XMLID_811_">
        <g id="XMLID_832_">
         <g id="XMLID_833_">
          <g id="XMLID_834_">
           <g id="XMLID_835_">
            <g id="XMLID_836_">
             <g id="XMLID_837_">
              <g id="XMLID_838_">
               <g id="XMLID_839_">
                <g id="XMLID_840_">
                 <circle cx="256" cy="256" r="256" fill="#4c4c4c"/>
                </g>
               </g>
              </g>
             </g>
            </g>
           </g>
          </g>
         </g>
        </g>
       </g>
      </g>
     </g>
    </g>
   </g>
  </g>
  <path d="m510.29 285.78-69.955-69.955-224.03 76.64-160.61 28.741 190.61 190.61c3.216 0.12 6.447 0.18 9.692 0.18 131.31 0 239.53-98.865 254.29-226.22z" fill="#232323"/>
  <path d="m468.32 288.74c0 27.26-22.15 50.11-50.2 50.11h-324.22c-32.37 0-56.27-30.17-48.87-61.68l2.09-8.88c9.07-38.59 34.03-70.1 66.97-88.25 7.945-4.375 17.419 11.241 26.185 8.506s16.825-23.821 26.185-24.736c4.4-0.43 8.85-0.65 13.35-0.65h50l26.189 18.628 26.191-18.628h50.5c4.33 0 8.62 0.2 12.85 0.6 8.994 0.844 17.753 18.889 26.185 21.407 9.157 2.734 17.928-9.915 26.185-5.407 37.35 20.38 64.34 57.8 70.01 102.59 0.27 2.15 0.4 4.28 0.4 6.39z" fill="#ffe05f"/>
  <path d="m468.32 288.73c0 27.26-22.15 50.12-50.2 50.12h-162.12v-157.07l26.19-18.63h50.5c4.33 0 8.62 0.2 12.85 0.6 8.99 0.85 17.75 18.89 26.18 21.41 9.16 2.74 17.93-9.91 26.19-5.41 37.35 20.38 64.34 57.8 70.01 102.6 0.27 2.14 0.4 4.27 0.4 6.38z" fill="#ffb624"/>
  <path d="m166.46 163.8v77.9c0 14.47-11.72 26.19-26.18 26.19s-26.19-11.72-26.19-26.19v-61.67c15.89-8.75 33.65-14.4 52.37-16.23z" fill="#ff9c31"/>
  <path d="m282.19 163.16v78.55c0 14.47-11.73 26.19-26.19 26.19s-26.19-11.72-26.19-26.19v-78.55z" fill="#ff9c31"/>
  <g fill="#f4710f">
   <path d="m282.19 163.15v78.55c0 14.47-11.73 26.19-26.19 26.19v-104.74z"/>
   <path d="m397.91 179.76v61.95c0 14.47-11.73 26.19-26.19 26.19s-26.18-11.72-26.18-26.19v-77.95c18.76 1.76 36.51 7.34 52.37 16z"/>
  </g>
 </g>
</svg>
