<svg width="900" height="900" version="1.1" viewBox="0 0 238.12 238.12" xmlns="http://www.w3.org/2000/svg">
 <g transform="matrix(.4625 0 0 .4625 .66146 .66146)">
  <circle cx="256" cy="256" r="256" fill="#ade232"/>
  <path d="m510.98 278.74-173.27-173.27-8.225 11.101-60.68 4.775 68.193 68.192 0.712 6.914h-88.679l-56.042-56.042-63.25 18.176 50.118 50.119-42.188 118.54-48.468 61.475s76.813 77.458 118.13 118.64c15.757 3.033 32.022 4.64 48.665 4.64 133.72 0 243.48-102.53 254.98-233.26z" fill="#8dc805"/>
  <path d="m374.33 256.86c-41.333 0-74.839 33.506-74.839 74.839s33.507 74.839 74.839 74.839 74.839-33.507 74.839-74.839-33.506-74.839-74.839-74.839z" fill="#04303e"/>
  <path d="m374.33 286.86c24.725 0 44.839 20.115 44.839 44.839s-20.115 44.839-44.839 44.839-44.839-20.115-44.839-44.839 20.114-44.839 44.839-44.839" fill="#a1aab7"/>
  <path d="m137.67 256.86c-41.333 0-74.839 33.506-74.839 74.839s33.507 74.839 74.839 74.839 74.839-33.507 74.839-74.839c1e-3 -41.332-33.506-74.839-74.839-74.839z" fill="#09607d"/>
  <path d="m137.67 286.86c24.725 0 44.839 20.115 44.839 44.839s-20.115 44.839-44.839 44.839-44.839-20.115-44.839-44.839 20.115-44.839 44.839-44.839" fill="#d1d9e1"/>
  <path d="m201 204h53.958l10-11.162-10-8.838h-63.982l-19.18-38.268-17.88 8.961 20.057 40.018-44.858 129.55c-2.689 7.766 3.079 15.867 11.297 15.867h106.08c2.926 0 5.781-0.511 8.465-1.454l10-12.88-10-14.14zm-49.288 116.13 34.779-100.45 50.343 100.45z" fill="#2681ff"/>
  <path d="m384.77 329.46-51.047-212.9-19.416 4.797 15.404 62.642c-0.029 0-0.056-3e-3 -0.085-3e-3h-74.662v20h69.051l-69.046 107.67-5e-3 -0.011v27.021c5.305-1.863 9.934-5.443 13.056-10.311l70.253-109.55 27.086 115.23c1.265 5.412 6.709 8.746 12.104 7.413 5.318-1.316 8.581-6.674 7.307-12.003z" fill="#005fe0"/>
  <path d="m276.89 105.46c-5.523 0-10 4.477-10 10s4.477 10 10 10h28.16v6.333h32.665v-26.333z" fill="#04303e"/>
  <path d="m366.71 172.4h-15c-8.284 0-15-6.716-15-15s6.716-15 15-15h15z" fill="#ffd300"/>
  <path d="m185.23 158.58h-55.489v-30l57.094 8.619c5.258 0.794 9.146 5.312 9.146 10.63-1e-3 5.938-4.814 10.751-10.751 10.751z" fill="#09607d"/>
 </g>
</svg>
