<svg width="900" height="900" version="1.1" viewBox="0 0 238.12 238.12" xmlns="http://www.w3.org/2000/svg">
 <g transform="matrix(.4625 0 0 .4625 .66146 .66146)">
  <g id="XMLID_00000011753826278447508830000017620034328148730538_">
   <g id="XMLID_00000114755051725908356330000011207024119116056711_">
    <g id="XMLID_00000183217790714039578910000017620487018081341338_">
     <g id="XMLID_00000022540111650264796510000003674244837289367985_">
      <g id="XMLID_00000158030845099489242780000004336378879811691654_">
       <g id="XMLID_00000058569798568742665660000015178599834581314723_">
        <g id="XMLID_00000062900994606362273300000013804913830991851917_">
         <g id="XMLID_00000078032352795207243030000003053947039775579294_">
          <g id="XMLID_00000004528164636243385730000002478768881213506476_">
           <g id="XMLID_00000132087975648387543100000017260106468800797827_">
            <g id="XMLID_00000130621343967246388290000014709627374429698948_">
             <g id="XMLID_00000077318881136827032710000011044290813306197650_">
              <g id="XMLID_00000154404430059822162430000012726527922283504282_">
               <g id="XMLID_00000086680056538812011340000000687914837059231927_">
                <g id="XMLID_00000078046753360855837420000016042896495814168982_">
                 <circle cx="256" cy="256" r="256" fill="#cffce9"/>
                </g>
               </g>
              </g>
             </g>
            </g>
           </g>
          </g>
         </g>
        </g>
       </g>
      </g>
     </g>
    </g>
   </g>
  </g>
  <path d="m512 256c0-5.555-0.197-11.064-0.546-16.531l-210.5-210.5-71.668 59.801-28.938-17.424s-49.95 10.207-55.597 38.164c-5.647 27.956-27.106 216.63-27.106 216.63l15.381 72.938 50.71 50.709-3.509 23.251 35.856 35.856c13.009 2.039 26.34 3.106 39.921 3.106 141.38 0 256-114.62 256-256z" fill="#93d8de"/>
  <path d="m244.28 84.674-24.917 23.517c-0.846-0.824-6.884-6.534-15.494-9.502-10.912-3.769-21.373-1.49-31.981 6.951-11.804 9.4-25.413 39.451-29.024 182.97h-34.294c3.6-149.9 17.863-190.59 41.979-209.78 20.245-16.103 43.773-20.324 66.263-11.894 16.15 6.061 26.363 16.567 27.468 17.74z" fill="#5b4c4b"/>
  <path d="m256 410.36-75.778 22.01v40.674h75.778l75.777-40.674z" fill="#ffa41f"/>
  <path d="m331.78 432.36-75.777-22.01v62.684h75.777z" fill="#ef710a"/>
  <path d="m359.26 314.82s32.307-1.588 10.107 28.732c0 0-6.276 10.19-10.107 14.726-3.299 3.907-27.039 9.912-27.039 9.912-14.57 15.07-76.22 64.17-76.22 64.17h-75.78c-21.67-10.76-39.6-25.1-54.16-40.17 0 0-3.27-11.597-6.725-15.715-3.625-4.322-14.456-9.485-14.456-9.485-22.2-30.32-31.64-57.21-31.64-57.21l182.76-21.17z" fill="#ef710a"/>
  <path d="m256 288.61v143.75h75.78c21.67-10.76 39.59-25.09 54.16-40.16 0 0 1.72-12.572 5.019-16.478 3.831-4.536 16.161-8.732 16.161-8.732 22.2-30.32 31.64-57.21 31.64-57.21z" fill="#ce480d"/>
  <path d="m256 309.78h-182.75c50.143-40.118 82.085-43.092 108.83-86.555 8.156-13.256 14.03-36.35 18.263-62.088 0 0 9.875-13.511 10.759-20.405 0.871-6.791-5.463-20.405-5.463-20.405 4.801-47.345 5.41-91.366 5.41-91.366h44.95l23.366 74.382s16.567 30.598 17.437 37.389c0.884 6.895 0.737 21.418 0.737 21.418 4.233 25.737-11.808 56.688-3.652 69.944 26.75 43.464-37.888 77.686-37.888 77.686z" fill="#ffa41f"/>
  <path d="m438.75 309.78c-50.143-40.118-82.085-43.092-108.83-86.555-8.156-13.256-14.03-36.35-18.263-62.088 0 0-13.968-13.511-14.852-20.405-0.871-6.791 9.556-20.405 9.556-20.405-4.8-47.345-5.41-91.366-5.41-91.366h-44.949v280.82h182.75z" fill="#ef710a"/>
  <path d="m256 161.14h-55.656c2.168-13.235 3.902-27.162 5.296-40.81h50.36s12.076 6.226 24.985 14.181z" fill="#5b4c4b"/>
  <path d="m311.66 161.14c-2.168-13.235-3.902-27.162-5.296-40.81h-50.36v40.81z" fill="#3d3535"/>
  <path d="m407.12 366.99c-6.07 8.31-13.11 16.87-21.18 25.21l-15.6-13.9-38.12 33.97-38.12-33.97-38.11 33.97-38.12-33.97-38.11 33.97-38.11-33.97-15.59 13.89c-8.07-8.33-15.11-16.89-21.18-25.2l36.77-32.78 38.11 33.98 38.11-33.98 38.12 33.98 38.11-33.98 38.12 33.98 38.12-33.97z" fill="#5b4c4b"/>
  <path d="m332.22 368.19-38.12-33.98-38.1 33.971v44.08l38.1-33.961 38.12 33.97 38.12-33.97 15.6 13.9c8.07-8.34 15.11-16.9 21.18-25.21l-36.78-32.77z" fill="#3d3535"/>
 </g>
</svg>
