<svg width="900" height="900" version="1.1" viewBox="0 0 238.12 238.12" xmlns="http://www.w3.org/2000/svg">
 <g transform="matrix(.4625 0 0 .4625 .66146 .66146)">
  <g id="XMLID_00000017476024524649927270000000320545728099484862_">
   <g id="XMLID_00000051349755225693603270000003383697087908788378_">
    <g id="XMLID_00000046306979331763439840000017206216681353450430_">
     <g id="XMLID_00000034071196890279632190000009627664050344131720_">
      <g id="XMLID_00000041992779218572448000000017833016560837086390_">
       <g id="XMLID_00000096059515468790603580000010143477985591088277_">
        <g id="XMLID_00000150809055058515957040000013822817005506587017_">
         <g id="XMLID_00000028291331877748463150000007619905126940195485_">
          <g id="XMLID_00000013910562725647022880000010886935790884590475_">
           <g id="XMLID_00000032630239112100463880000010606806601580809099_">
            <g id="XMLID_00000075846258598635528140000008147234492661808791_">
             <g id="XMLID_00000173843976040275612500000012377937738365724563_">
              <g id="XMLID_00000054946867183220479000000001643324932515159444_">
               <g id="XMLID_00000162353285300936840390000016102815802325619647_">
                <g id="XMLID_00000090288588776328233390000003689209601482453924_">
                 <circle cx="256" cy="256" r="256" fill="#d9b1ee"/>
                </g>
               </g>
              </g>
             </g>
            </g>
           </g>
          </g>
         </g>
        </g>
       </g>
      </g>
     </g>
    </g>
   </g>
  </g>
  <path d="m512 256c0-1.259-9e-3 -2.516-0.028-3.77l-202.21-202.21-173.47 390.33 65.79 65.964c17.384 3.726 35.422 5.688 53.919 5.688 141.38 0 256-114.62 256-256z" fill="#a274bf"/>
  <path d="m256 351.08h-68.005v-218.58l68.005-15.247 54.447 106.24z" fill="#fa50a2"/>
  <path d="m324 132.5-68.004-15.247v233.82h68.004z" fill="#c12590"/>
  <path d="m256 339.12c-14.14-21.24-38.3-35.236-65.73-35.236-43.578 0-78.906 35.327-78.906 78.906 0 43.578 35.327 78.906 78.906 78.906h65.73l58.788-74.732z" fill="#733675"/>
  <path d="m321.73 303.89c-27.43 0-51.59 13.996-65.73 35.236v122.58h65.73c43.578 0 78.906-35.327 78.906-78.906-1e-3 -43.578-35.328-78.905-78.906-78.905z" fill="#451849"/>
  <path d="m256 45.428c-5.758 0-16.772-15.829-16.772-15.829-33.924 7.637-59.26 37.949-59.26 74.187v10.495c0 18.639 15.11 33.749 33.749 33.749h42.283l50.629-51.275z" fill="#c12590"/>
  <path d="m298.28 148.03c18.639 0 33.749-15.11 33.749-33.749v-10.495c0-20.998-8.509-40.006-22.273-53.77-9.974-9.985-22.72-17.208-36.987-20.417 0 0-11.013 15.829-16.772 15.829v102.6z" fill="#a00778"/>
  <path d="m267.32 45.974-11.317 32.286h-16.772v-48.66c5.401-1.219 11.013-1.856 16.772-1.856z" fill="#a00778"/>
  <path d="m272.77 78.26v-48.66c-5.401-1.219-11.013-1.856-16.772-1.856v50.516z" fill="#700058"/>
 </g>
</svg>
