<svg width="900" height="900" version="1.1" viewBox="0 0 238.12 238.12" xmlns="http://www.w3.org/2000/svg">
 <g transform="matrix(.4625 0 0 .4625 .66146 .66146)">
  <circle cx="256" cy="256" r="256" fill="#00d65b"/>
  <path d="m512 256c0-6.201-0.233-12.347-0.667-18.437l-109.45-109.45-2.721 4.998-51.833-51.833-227.45 64.504-2.974 104.21 136.1 136.1-68.666 56.29 69.582 69.582c0.693 6e-3 1.382 0.026 2.076 0.026 141.38 0 256-114.62 256-256z" fill="#06bf51"/>
  <path d="m174.03 271.75c-47.457 0-86.065-38.609-86.065-86.065s38.608-86.065 86.065-86.065 86.065 38.609 86.065 86.065-38.608 86.065-86.065 86.065zm0-135.24c-27.118 0-49.18 22.062-49.18 49.18s22.063 49.18 49.18 49.18 49.18-22.062 49.18-49.18-22.062-49.18-49.18-49.18z" fill="#8d5c4d"/>
  <path d="m337.97 271.75c-47.457 0-86.065-38.609-86.065-86.065s38.608-86.065 86.065-86.065 86.065 38.609 86.065 86.065-38.608 86.065-86.065 86.065zm0-135.24c-27.117 0-49.18 22.062-49.18 49.18s22.063 49.18 49.18 49.18c27.118 0 49.18-22.062 49.18-49.18s-22.063-49.18-49.18-49.18z" fill="#704639"/>
  <path d="m327.72 442.02c5.968-25.992 16.92-50.489 31.48-72.833 12.576-19.3 19.884-42.346 19.884-67.099 0-44.248-23.353-83.035-58.402-104.73l26.653-116.08h-182.67l26.682 116.2c-34.639 21.546-57.946 59.793-58.423 103.22-0.274 24.954 6.88 48.22 19.387 67.725 14.616 22.794 25.728 47.645 32.03 73.962h143.29z" fill="#966857"/>
  <path d="m320.68 197.36 26.653-116.08h-91.738v361.11h72.038l0.085-0.372c5.969-25.992 16.921-50.489 31.48-72.833 12.576-19.3 19.885-42.346 19.885-67.099-1e-3 -44.247-23.354-83.034-58.403-104.73z" fill="#805142"/>
  <path d="m132.93 300.7c-0.094 8.581 0.71 16.955 2.288 25.053h241.58c1.493-7.661 2.289-15.572 2.289-23.67 0-16.516-3.256-32.269-9.158-46.659h-227.75c-5.79 14.009-9.069 29.289-9.244 45.276z" fill="#b2876d"/>
  <path d="m379.08 302.09c0-16.516-3.257-32.269-9.158-46.659h-114.33v70.329h121.2c1.493-7.662 2.289-15.572 2.289-23.67z" fill="#966857"/>
  <path d="m134.81 325.76 34.591-70.329 48.887 70.329 37.308-70.329 39.433 70.329 47.161-70.325 34.199 70.325z" fill="#cfa388"/>
  <path d="m135.21 325.76h83.478l-48.887-70.329z" fill="#cfa388"/>
  <g fill="#b2876d">
   <path d="m255.6 255.42v70.333h39.429z"/>
   <path d="m342.2 255.43-47.172 70.329h81.769z"/>
  </g>
 </g>
</svg>
