<svg width="900" height="900" version="1.1" viewBox="0 0 238.12 238.12" xmlns="http://www.w3.org/2000/svg">
 <g transform="matrix(.4625 0 0 .4625 .66146 .66146)">
  <circle cx="256" cy="256" r="256" fill="#ff583e"/>
  <path d="m512 256c0-33.06-6.269-64.655-17.679-93.664l-93.578-93.578-289.49 357.82 76.104 76.104c21.846 6.065 44.861 9.32 68.639 9.32 141.38 0 256-114.62 256-256z" fill="#db0404"/>
  <path d="m111.26 116.09h289.49v310.48h-289.49z" fill="#fff"/>
  <path d="m255.6 116.09h145.15v310.48h-145.15z" fill="#e9edf5"/>
  <path d="m111.26 68.758h289.49v67.576h-289.49z" fill="#555a66"/>
  <path d="m255.6 68.758h145.15v67.575h-145.15z" fill="#333940"/>
  <circle cx="256" cy="275.33" r="108.07" fill="#555a66"/>
  <path d="m256 167.27c-0.135 0-0.27 5e-3 -0.405 5e-3v216.12c0.135 0 0.269 5e-3 0.405 5e-3 59.683 0 108.07-48.383 108.07-108.07s-48.383-108.07-108.07-108.07z" fill="#333940"/>
  <circle cx="256" cy="275.33" r="76.146" fill="#4a7aff"/>
  <path d="m256 199.19c-0.136 0-0.269 0.01-0.405 0.01v152.27c0.136 1e-3 0.269 0.01 0.405 0.01 42.054 0 76.146-34.091 76.146-76.146s-34.092-76.145-76.146-76.145z" fill="#0053bf"/>
  <path d="m256 351.48c42.054 0 76.146-34.091 76.146-76.146 0-8.569-1.436-16.798-4.046-24.485-4.878 7.897-13.586 13.175-23.55 13.175-10.46 0-19.56-5.802-24.274-14.36-4.714 8.558-13.814 14.36-24.275 14.36s-19.561-5.802-24.275-14.36c-4.714 8.558-13.814 14.36-24.274 14.36-9.964 0-18.673-5.278-23.55-13.175-2.61 7.687-4.046 15.916-4.046 24.485-2e-3 42.055 34.09 76.146 76.144 76.146z" fill="#00edff"/>
  <path d="m328.1 250.85c-4.878 7.897-13.586 13.175-23.55 13.175-10.46 0-19.56-5.802-24.274-14.36-4.714 8.558-13.814 14.36-24.275 14.36-0.136 0-0.269-0.012-0.405-0.014v87.459c0.136 0 0.269 0.01 0.405 0.01 42.054 0 76.146-34.091 76.146-76.146 0-8.569-1.437-16.797-4.047-24.484z" fill="#0ac0ea"/>
  <circle cx="256" cy="102.55" r="25" fill="#afb4c8"/>
  <path d="m256 77.545c-0.136 0-0.27 8e-3 -0.405 0.01v49.979c0.135 2e-3 0.269 0.01 0.405 0.01 13.807 0 25-11.193 25-25s-11.193-24.999-25-24.999z" fill="#7e8596"/>
 </g>
</svg>
