<svg width="900" height="900" version="1.1" viewBox="0 0 238.12 238.12" xmlns="http://www.w3.org/2000/svg">
 <g transform="matrix(.46285 0 0 .46285 .57322 .57322)">
  <path d="m512 256c0 141.39-114.61 256-256 256s-256-114.61-256-256 114.61-256 256-256 256 114.61 256 256z" fill="#414952"/>
  <path d="m511.98 257.26-148.45-148.45-225.28 326.19 73.113 73.113c14.492 2.5508 29.406 3.8867 44.629 3.8867 140.96 0 255.3-113.93 255.98-254.74z" fill="#23272b"/>
  <path d="m138.26 378.2h50.051v56.805h-50.051z" fill="#fff"/>
  <path d="m323.69 378.2h50.051v56.805h-50.051z" fill="#e9edf5"/>
  <path d="m373.74 415.7h-235.48v-279.48c0-23.148 18.762-41.91 41.91-41.91h151.67c23.145 0 41.91 18.762 41.91 41.91v279.48z" fill="#ff432e"/>
  <path d="m373.74 136.21c0-23.148-18.762-41.91-41.91-41.91h-76.023v321.39h117.94v-279.48z" fill="#db0404"/>
  <path d="m165.1 181.15h181.8v40.918h-181.8z" fill="#fff"/>
  <path d="m255.81 181.15h91.094v40.918h-91.094z" fill="#e9edf5"/>
  <path d="m186.39 201.61h139.21v84.367h-139.21z" fill="#ffe000"/>
  <path d="m255.81 201.61h69.797v84.371h-69.797z" fill="#ffc200"/>
  <path d="m325.61 285.98-69.605-45.559-69.605 45.559z" fill="#ffee6e"/>
  <path d="m256 240.42-0.19141 0.125v45.434h69.797z" fill="#ffe45c"/>
  <path d="m325.61 201.61-69.605 61.59-69.605-61.59z" fill="#fdba12"/>
  <path d="m325.61 201.61h-69.797v61.422l0.19141 0.16797z" fill="#ffa300"/>
 </g>
</svg>
