<svg width="900" height="900" version="1.1" viewBox="0 0 238.12 238.12" xmlns="http://www.w3.org/2000/svg">
 <g transform="matrix(.4625 0 0 .4625 .66146 .66146)">
  <circle cx="256" cy="256" r="256" fill="#ffce00"/>
  <path d="m255.54 512c0.154 0 0.309 1e-3 0.463 1e-3 132.13 0 240.88-100.1 254.55-228.61l-189.96-189.96z" fill="#ffa300"/>
  <ellipse transform="matrix(.167 -.986 .986 .167 52.079 388.74)" cx="256" cy="163.56" rx="95.345" ry="95.344" fill="#e09380"/>
  <path d="m351.34 163.56c0-52.657-42.687-95.344-95.343-95.344v190.69c52.656-1e-3 95.343-42.688 95.343-95.345z" fill="#d47f6c"/>
  <path d="m256 512c65.352 0 124.98-24.488 170.22-64.788l-35.083-109.01-3.872-12.187c-12.819-40.342-50.279-67.745-92.608-67.745h-77.292c-42.27 0-79.691 27.327-92.559 67.591l-3.943 12.34-35.085 109.01c45.238 40.3 104.87 64.788 170.22 64.788z" fill="#555a66"/>
  <path d="m391.14 338.2-3.872-12.187c-12.819-40.342-50.279-67.745-92.608-67.745h-38.658v253.73c65.352 0 124.98-24.488 170.22-64.788z" fill="#333940"/>
  <path d="m337.2 381.96-53.579-117.46-27.619 16.683-27.619-16.683-53.579 117.46 37.367 22.572 43.831-96.088 43.831 96.088z" fill="#fff"/>
  <path d="m283.62 264.5-27.619 16.684v27.259l43.831 96.088 37.367-22.572z" fill="#e9edf5"/>
  <path d="m313.74 233.09-57.741 22.684-57.741-22.684v64.726l57.741-16.135 57.741 16.135z" fill="#fff"/>
  <path d="m256 255.77v25.908l57.741 16.134v-64.726z" fill="#e9edf5"/>
 </g>
</svg>
