<svg width="900" height="900" version="1.1" viewBox="0 0 238.12 238.12" xmlns="http://www.w3.org/2000/svg">
 <g transform="matrix(.4625 0 0 .4625 .66146 .66146)">
  <circle cx="256" cy="256" r="256" fill="#19cffc"/>
  <path d="m257.52 512c127.02-0.737 232.12-93.976 251.34-215.76l-222.95-222.95-70.521 62.497 174.86 174.86-31.794 31.793-165.84-165.84-48.667 27.333 21.887 21.887-26.485 168.01z" fill="#1ea1e3"/>
  <path d="m215.39 327.45c0-19.068-5.268-36.33-13.786-48.83-9.154-13.433-14.079-29.838-14.079-46.689v-32.093c0-11.813-8.615-21.388-19.242-21.388s-19.242 9.576-19.242 21.388v32.093c0 16.851-4.925 33.257-14.079 46.689-8.518 12.5-13.786 29.762-13.786 48.83 0 18.697 5.067 35.658 13.296 59.726 1.913 5.596 7.178 9.353 13.093 9.353h41.438c5.914 0 11.179-3.757 13.093-9.353 8.227-24.068 13.294-41.028 13.294-59.726z" fill="#fff"/>
  <path d="m201.6 278.62c-9.154-13.433-14.079-29.838-14.079-46.689v-32.093c0-11.813-8.615-21.388-19.242-21.388-0.264 0-0.52 0.032-0.78 0.044v218.04h21.499c5.914 0 11.179-3.757 13.093-9.353 8.229-24.069 13.296-41.029 13.296-59.727-1e-3 -19.068-5.269-36.331-13.787-48.83z" fill="#e9edf5"/>
  <path d="m219.29 139.9c13.483 13.483 29.415 21.964 44.277 24.78 15.971 3.025 31.054 11.143 42.97 23.059l22.693 22.693c8.353 8.353 21.216 9.032 28.73 1.518 7.514-7.515 6.835-20.377-1.518-28.73l-22.693-22.693c-11.916-11.916-20.034-26.998-23.059-42.97-2.815-14.862-11.297-30.794-24.78-44.277-13.221-13.221-28.797-21.631-51.635-32.831-5.31-2.604-11.69-1.538-15.872 2.644l-29.301 29.301c-4.182 4.182-5.249 10.562-2.644 15.872 11.201 22.837 19.611 38.413 32.832 51.634z" fill="#fff"/>
  <path d="m356.44 183.22-22.693-22.693c-11.916-11.916-20.033-26.998-23.059-42.97-2.815-14.862-11.297-30.794-24.78-44.276-13.221-13.221-28.797-21.631-51.635-32.832-5.31-2.604-11.69-1.538-15.872 2.645l-14.295 14.295 154.19 154.19c7.138-7.56 6.367-20.136-1.852-28.355z" fill="#e9edf5"/>
  <path d="m143.95 176.6h48.667v27.333h-48.667z" fill="#dce1eb"/>
  <path d="m167.5 176.6h25.114v27.333h-25.114z" fill="#bec3d2"/>
  <path transform="matrix(.707 -.707 .707 .707 -41.294 306.66)" d="m325.2 189.51h48.667v27.333h-48.667z" fill="#dce1eb"/>
  <path transform="matrix(.707 -.707 .707 .707 -32.599 310.27)" d="m346.18 180.82h24.077v27.333h-24.077z" fill="#bec3d2"/>
  <path d="m330.41 295.42c-13.483 13.483-21.964 29.415-24.78 44.277-3.025 15.971-11.143 31.054-23.059 42.97l-22.693 22.693c-8.353 8.353-9.032 21.216-1.518 28.73 7.514 7.515 20.377 6.835 28.73-1.518l22.693-22.693c11.916-11.916 26.998-20.034 42.97-23.059 14.862-2.815 30.794-11.297 44.277-24.78 13.221-13.221 21.631-28.797 32.831-51.635 2.604-5.31 1.538-11.69-2.644-15.872l-29.301-29.301c-4.182-4.182-10.562-5.249-15.872-2.644-22.838 11.201-38.413 19.611-51.634 32.832z" fill="#fff"/>
  <path d="m411.97 279.29-154.17 154.17c0.189 0.208 0.361 0.428 0.562 0.629 7.515 7.514 20.377 6.835 28.73-1.518l22.693-22.693c11.916-11.916 26.998-20.034 42.97-23.059 14.862-2.815 30.794-11.297 44.277-24.78 13.221-13.221 21.631-28.797 32.831-51.635 2.604-5.31 1.538-11.69-2.644-15.872z" fill="#e9edf5"/>
  <path transform="matrix(.707 .707 -.707 .707 379.23 -64.218)" d="m242.8 412h48.667v27.333h-48.667z" fill="#dce1eb"/>
  <path transform="matrix(.707 -.707 .707 .707 -226.15 321.79)" d="m261.69 421.17h27.333v25.421h-27.333z" fill="#bec3d2"/>
 </g>
</svg>
