<svg width="900" height="900" version="1.1" viewBox="0 0 238.12 238.12" xmlns="http://www.w3.org/2000/svg">
 <g transform="matrix(.4625 0 0 .4625 .66146 .66146)">
  <circle cx="256" cy="256" r="256" fill="#273b7a"/>
  <path d="m270.4 511.59c129.92-7.204 233.99-111.27 241.19-241.19l-139.71-139.71-98.864 191.27-142.33 49.923z" fill="#121149"/>
  <path d="m384.56 149.65-12.086-18.129c-12.348-18.522-38.555-21.118-54.296-5.377l-36.119 36.119c-17.025 17.025-12.367 45.728 9.168 56.496l4.986 2.493c9.187 4.594 11.174 16.837 3.912 24.1l-54.767 54.767c-7.263 7.263-19.508 5.277-24.1-3.912l-2.493-4.986c-10.768-21.537-39.471-26.193-56.496-9.168l-36.119 36.119c-15.741 15.741-13.147 41.948 5.377 54.296l18.129 12.086c27.458 18.304 64.019 14.684 87.354-8.649l138.9-138.9c23.333-23.337 26.953-59.897 8.649-87.356z" fill="#ffedb5"/>
  <path d="m245.36 300.12c-7.263 7.263-19.508 5.275-24.1-3.912l-2.493-4.986c-10.768-21.537-39.471-26.193-56.496-9.168l-36.119 36.119c-15.741 15.741-13.147 41.948 5.377 54.296l18.129 12.085c27.458 18.304 64.019 14.684 87.354-8.649l66.005-66.003-33.72-33.72z" fill="#fee187"/>
  <path d="m318.18 126.15-36.119 36.119c-15.722 15.722-12.941 41.389 4.532 53.708l85.289-85.289c-12.575-17.749-38.206-20.036-53.702-4.538z" fill="#ffc61b"/>
  <path d="m215.97 286.59c-12.319-17.474-37.986-20.254-53.708-4.532l-36.119 36.119c-15.496 15.496-13.21 41.127 4.539 53.701z" fill="#eaa22f"/>
 </g>
</svg>
