<svg width="900" height="900" version="1.1" viewBox="0 0 238.12 238.12" xmlns="http://www.w3.org/2000/svg">
 <g transform="matrix(.4625 0 0 .4625 .66169 .66133)">
  <circle cx="256" cy="256" r="256" fill="#ffe377"/>
  <path d="m479.18 381.47 3e-3 3e-3c0.375-0.666 0.742-1.338 1.111-2.008 0.248-0.449 0.5-0.895 0.745-1.345 0.65-1.195 1.291-2.397 1.922-3.603 0.223-0.427 0.44-0.858 0.661-1.286 0.422-0.818 0.843-1.635 1.257-2.458 0.062-0.123 0.127-0.245 0.188-0.368l-4e-3 -4e-3c16.838-33.648 26.498-71.539 26.923-111.69 0.021-1.969 0.011-3.931-0.012-5.889l-163.05-163.05-17.378 18.557-24.732-24.732-15.197 24.647 14.822 59.134-8.586 15.818-24.526-24.526-12.164 40.052-40.301-40.301-117.06 117.06 71.621 71.621-47.325 47.325 117.35 117.35c2.604 0.106 5.215 0.186 7.839 0.213 96.754 1.022 181.52-51.774 225.89-130.52z" fill="#fc0"/>
  <path d="m261.16 163.46c-15.546 8.244-26.894 23.313-30.108 41.211h-3.077c-21.732 0-39.35 17.618-39.35 39.35 0 8.255 2.547 15.913 6.891 22.24h-0.725c-21.732 0-39.35 17.618-39.35 39.35 0 8.255 2.547 15.913 6.891 22.24h-5.808c-21.732 0-39.35 17.617-39.35 39.35s17.618 39.35 39.35 39.35h104.64l19.593-109.99z" fill="#7f6d67"/>
  <path d="m365.8 327.85h-5.808c4.344-6.328 6.89-13.985 6.89-22.24 0-21.732-17.617-39.35-39.35-39.35h-0.725c4.344-6.328 6.89-13.985 6.89-22.24 0-21.732-17.617-39.35-39.35-39.35h-4.336c-10.442-10.543-16.909-25.029-16.909-41.041 0-1.672 0.087-3.323 0.225-4.959-4.269 1.143-8.341 2.763-12.164 4.79v243.09h104.64c21.732 0 39.35-17.617 39.35-39.35s-17.616-39.351-39.349-39.351z" fill="#504541"/>
  <path d="m348.93 199.91-13.426-11.773s-0.052 0.054-0.141 0.168c0.443-0.561 10.706-14.108-1.491-46.176-16.054-42.211-0.225-62.009 1.632-64.128l13.426 11.773s0.053-0.055 0.141-0.168c-0.443 0.561-10.706 14.108 1.491 46.175 16.055 42.212 0.226 62.011-1.632 64.129z" fill="#ff9e22"/>
  <path d="m306.82 193.73-13.426-11.773s-0.052 0.054-0.141 0.168c0.443-0.561 10.706-14.108-1.491-46.176-16.054-42.211-0.225-62.009 1.632-64.128l13.426 11.773s0.053-0.055 0.141-0.168c-0.443 0.561-10.706 14.108 1.491 46.175 16.055 42.212 0.225 62.011-1.632 64.129z" fill="#ff9e22"/>
  <path d="m164.06 301.49c-45.662 0-82.811-37.149-82.811-82.811s37.149-82.81 82.811-82.81l82.811 82.81z" fill="#ff4c04"/>
  <path d="m164.06 301.49v-165.62c45.662 0 82.811 37.149 82.811 82.81-1e-3 45.663-37.149 82.812-82.811 82.812z" fill="#be3700"/>
  <path d="m164.06 262.77 6.627-50.12-6.627-36.334-35.927 52.817h25.694l-8.159 60.674z" fill="#fc0"/>
  <path d="m174.3 209.95 8.159-60.674-18.391 27.037v86.454l35.926-52.817z" fill="#ff9e22"/>
 </g>
</svg>
