<svg width="900" height="900" version="1.1" viewBox="0 0 238.12 238.12" xmlns="http://www.w3.org/2000/svg">
 <g transform="matrix(.4625 0 0 .4625 .66146 .66146)">
  <path d="m492.26 157.25c12.717 30.388 19.742 63.75 19.742 98.753 0 141.38-114.62 256-256 256-39.608 0-77.116-8.995-110.59-25.054l-100.19-85.617c-28.519-41.284-45.222-91.356-45.222-145.33 0-141.38 114.62-256 256-256 57.961 0 111.42 19.262 154.33 51.734z" fill="#7584f2"/>
  <path d="m512 256c0-35.003-7.025-68.365-19.742-98.753l-46.684-60.125-69.584-5.79 66.334 40.407-205.71 149.88 32.768 32.66-189.77 116.44 65.799 56.229c33.475 16.059 70.983 25.054 110.59 25.054 141.38 0 256-114.62 256-256z" fill="#4253ce"/>
  <path d="m365.66 317.66-83.308 33.73h-72.86l55.581-22.559c3.097-1.257 5.38-3.952 6.112-7.213 1.642-7.322-4.923-13.848-12.235-12.162l-105.94 24.429c-17.42 4.017-32.97 13.807-44.123 27.778l-38.067 47.687 66.546 66.546 36.634-75.646h92.173c12.864 0 25.415-3.965 35.944-11.356l74.025-51.962c1.707-1.199 3.04-2.856 3.844-4.781 3.783-9.052-5.237-18.172-14.331-14.491z" fill="#ffcdbe"/>
  <path d="m365.66 317.66-80.35 32.532v47.055c5.958-1.914 11.631-4.717 16.812-8.354l74.025-51.962c1.707-1.198 3.04-2.856 3.844-4.78 3.783-9.052-5.237-18.173-14.331-14.491z" fill="#ffbeaa"/>
  <path d="m45.222 401.33c25.257 36.562 59.781 66.23 100.18 85.612l32.144-46.966-108.12-74.002z" fill="#fff"/>
  <circle cx="285.09" cy="233.86" r="68.047" fill="#ffc247"/>
  <path d="m353.13 233.86c0-37.507-30.348-67.922-67.827-68.041v136.08c37.48-0.119 67.827-30.533 67.827-68.041z" fill="#ffa426"/>
  <circle cx="285.09" cy="233.86" r="41.201" fill="#ffb13b"/>
  <path d="m326.29 233.86c0-22.681-18.328-41.076-40.981-41.195v82.39c22.653-0.119 40.981-18.514 40.981-41.195z" fill="#ff9500"/>
  <path d="m373.65 142.42h-92.173c-3.773 0-7.519 0.341-11.196 1.01-14.293 2.6-24.057 13.229-34.077 28.055-6.593 9.756-15.638 40.507-15.638 40.507 0.029-0.026 0.059-0.051 0.088-0.077 9.131-26.812 34.528-46.098 64.429-46.098 21.143 0 40.034 9.643 52.515 24.771l-0.034 7e-3c0.203 0.225 0.402 0.453 0.599 0.686l-55.267 22.432c-3.208 1.302-5.71 4.035-6.442 7.419-1.578 7.29 4.967 13.763 12.252 12.083l105.94-24.428c17.42-4.017 32.97-13.807 44.123-27.779l28.209-35.369-51.475-52.779z" fill="#ffcdbe"/>
  <path d="m415.5 92.86-41.849 49.56h-88.346v23.402c21.054 0.067 39.858 9.689 52.295 24.765l-0.034 7e-3c0.203 0.225 0.402 0.454 0.599 0.687l-52.86 21.455v20.669c1.097 0.119 2.238 0.079 3.403-0.19l105.94-24.428c17.42-4.017 32.97-13.808 44.123-27.779l28.209-35.368z" fill="#ffbeaa"/>
  <path d="m492.26 157.25c-17.592-42.038-46.077-78.386-81.925-105.51l-34.343 39.597 98.982 85.847z" fill="#e9edf5"/>
 </g>
</svg>
