<svg width="900" height="900" version="1.1" viewBox="0 0 238.12 238.12" xmlns="http://www.w3.org/2000/svg">
 <g transform="matrix(.46302 0 0 .46302 .52943 .52943)">
  <circle cx="256" cy="256" r="256" fill="#008cc3"/>
  <path d="m507.66 303.09-250.3-253.53-28.66 3.017-37.064-4.31-16.377 18.963 9.481 40.512 21.549 29.306 15.694 314.72 57.363 59.159c114.72-10.376 207.59-96.419 228.31-207.84z" fill="#0074a3"/>
  <path d="m269.1 345.64 25.6 25.6 35.845-35.845v56.42c0 26.824-21.821 48.645-48.645 48.645s-48.645-21.821-48.645-48.645v-243.62c24.019-7.68 41.463-30.21 41.463-56.744 0-32.844-26.72-59.564-59.564-59.564s-59.564 26.72-59.564 59.564c0 26.534 17.444 49.064 41.463 56.744v243.61c0 46.785 38.062 84.847 84.847 84.847s84.847-38.062 84.847-84.847v-143.82zm-53.946-277.55c12.883 0 23.362 10.48 23.362 23.362s-10.481 23.362-23.362 23.362-23.362-10.481-23.362-23.362 10.482-23.362 23.362-23.362z" fill="#fff"/>
  <path d="m269.1 345.64 25.6 25.6 35.845-35.845v56.42c0 26.824-21.821 48.645-48.645 48.645-13.327 0-25.417-5.391-34.211-14.102l-25.586 25.586c15.35 15.267 36.49 24.717 59.799 24.717 46.785 0 84.847-38.062 84.847-84.847v-143.82z" fill="#e0e0e0"/>
 </g>
</svg>
