<svg width="900" height="900" version="1.1" viewBox="0 0 238.12 238.12" xmlns="http://www.w3.org/2000/svg">
 <g transform="matrix(.4625 0 0 .4625 .66146 .66146)">
  <circle cx="256" cy="256" r="256" fill="#00ddc1"/>
  <path d="m423.85 304.43-199.93-199.93s-173.32 239.42-173.33 239.43c-1e-3 1e-3 93.794 93.795 164.86 164.86 13.435 2.138 27.21 3.248 41.253 3.209 111.2-0.31 205.64-71.487 240.7-170.65l-55.241-55.241z" fill="#00baa0"/>
  <path d="m255 227.15-81.804-81.001-58.86 21.723-4.33 94.169 78.13 61.377 66.02 11.832 0.844 0.22 3.81-53.029z" fill="#606aea"/>
  <path d="m348.65 262.55-73.158-15.115-20.488-20.287v108.32l69.131 18.032 62.72-34.314-10.602-50.41c-8.983-1.636-18.277-3.606-27.603-6.226z" fill="#4855b7"/>
  <path d="m428.81 278.23c-13.819-3.801-32.403-5.781-52.557-9.452l-52.119 84.725 3.808 0.993 45.92 4.252 81.3-41.426-5.711-18.936c-2.96-9.821-10.751-17.436-20.641-20.156z" fill="#27488f"/>
  <path d="m255 187.1c-25.08-44.691-31.078-82.598-31.078-82.598l-54.949 20.536s1.287 11.474 4.223 21.114c3.725 12.234 27.812 67.785 81.804 104.19l5.253-23.791z" fill="#4855b7"/>
  <path d="m268.21 208.43c-4.904-7.199-9.287-14.35-13.207-21.337v63.239c21.148 14.258 46.883 25.579 77.78 30.208l15.866-17.992s-59.269-23.036-80.439-54.118z" fill="#27488f"/>
  <path transform="matrix(.946 -.323 .323 .946 -41.854 74.184)" d="m161.32 155.37h82.452v15.615h-82.452z" fill="#ff73a5"/>
  <path transform="matrix(.898 -.439 .439 .898 -62.61 114.64)" d="m177.49 184.79h77.792v15.615h-77.792z" fill="#ff73a5"/>
  <path d="m245.11 267.8 9.893-9.767 3.81-14.823-3.81-7.12-20.865 20.599zm-42.778-35.756 8.745 12.937 43.926-29.693 3.81-11.898-3.81-6.951z" fill="#ff73a5"/>
  <path d="m275.79 215.56-20.792 20.527v21.943l31.763-31.358zm-14.483-23.389-6.309 4.265v18.849l15.054-10.177z" fill="#ff468c"/>
  <path transform="matrix(.468 -.884 .884 .468 -72.268 394.51)" d="m268.47 249.43h45.67v15.615h-45.67z" fill="#ff468c"/>
  <path d="m285.84 287.05c-2.361 4.705-8.09 6.605-12.795 4.244s-6.605-8.09-4.244-12.795l4.276-8.519 17.039 8.551z" fill="#fc0"/>
  <g fill="#fd5">
   <path d="m165.8 186.74c-4.837 2.077-10.443-0.161-12.519-4.998s0.161-10.443 4.998-12.519l8.759-3.761 7.521 17.518z"/>
   <path d="m184.13 219.94c-4.615 2.532-10.41 0.844-12.942-3.771s-0.844-10.41 3.771-12.942l8.357-4.585 9.171 16.713z"/>
   <path d="m210.31 248.21c-4.27 3.079-10.228 2.114-13.307-2.156s-2.114-10.228 2.156-13.307l7.731-5.576 11.151 15.463z"/>
   <path d="m244.43 270.91c-3.812 3.631-9.846 3.483-13.476-0.329-3.631-3.812-3.483-9.846 0.329-13.476l6.903-6.574 13.147 13.805z"/>
  </g>
  <path d="m155.81 262.04c-43.028-26.138-41.474-94.168-41.474-94.169l-29.816 11.004-13.724 123.51 117.34 21.029c1.419-12.527 0.543-41.411-32.326-61.378z" fill="#4855b7"/>
  <path d="m255 371.37 9.453-25.251-9.453-25.626c-38.969 1.97-74.745 11.97-113.74-18.27-33.557-26.023-68.351-18.888-68.351-18.888l-22.313 60.589s2.82 2.976 8.655 6.949c1.815-1.557 4.169-2.503 6.747-2.503 5.731 0 10.377 4.646 10.377 10.377 0 0.467-0.042 0.923-0.101 1.374 2.17 0.935 4.483 1.85 6.94 2.729 1.807-3.051 5.122-5.103 8.925-5.103 5.723 0 10.363 4.633 10.375 10.353 2.88 0.558 5.885 1.048 9.018 1.455 1.542-3.797 5.262-6.477 9.612-6.477 4.838 0 8.891 3.316 10.04 7.796 3.759 0.031 7.654-0.057 11.693-0.281 1.533-3.816 5.261-6.514 9.626-6.514 3.614 0 6.794 1.85 8.652 4.653 1.929-0.281 3.877-0.584 5.86-0.927v-9.557s20.9-9.284 56.179-0.928v6.963s3.923 1.193 10.881 2.841c1.497-3.891 5.26-6.657 9.678-6.657 5.731 0 10.377 4.646 10.377 10.377 0 0.127-0.014 0.251-0.019 0.377 0.29 0.049 0.594 0.099 0.887 0.149z" fill="#544956"/>
  <path d="m453.6 315.77c-27.335 12.978-88.956 40.442-121.11 21.708-28.065-16.35-53.388-18.201-77.491-16.982v50.878c3.828 0.66 7.925 1.307 12.281 1.911 1.432-4.017 5.258-6.898 9.766-6.898 5.309 0 9.679 3.989 10.295 9.132 3.754 0.315 7.619 0.58 11.578 0.784 1.25-4.328 5.233-7.496 9.963-7.496 4.893 0 8.984 3.39 10.079 7.947 4.534-0.034 9.151-0.168 13.827-0.41 0.222-5.535 4.766-9.957 10.355-9.957 4.976 0 9.129 3.504 10.138 8.177 1.353-0.167 2.708-0.341 4.066-0.53 2.927-0.407 5.787-0.837 8.589-1.284-0.026-0.299-0.046-0.599-0.046-0.904 0-5.731 4.646-10.377 10.376-10.377 4.737 0 8.724 3.177 9.968 7.514 4.674-0.994 9.117-2.033 13.334-3.099-0.152-0.707-0.237-1.44-0.237-2.193 0-5.731 4.646-10.377 10.376-10.377 4.49 0 8.302 2.857 9.748 6.847 14.605-4.766 24.937-9.514 30.787-12.952 4.664-2.74 7.463-7.797 7.345-13.205l0.077-15.644c0.012-2.097-2.167-3.49-4.063-2.59z" fill="#423544"/>
 </g>
</svg>
