<svg width="900" height="900" version="1.1" viewBox="0 0 238.12 238.12" xmlns="http://www.w3.org/2000/svg">
 <g transform="matrix(.4625 0 0 .4625 .66146 .66146)">
  <circle cx="256" cy="256" r="256" fill="#7883ee"/>
  <path d="m382.56 123.82-43.981-43.981-116.28 116.28-77.647-77.647-29.242 29.242 85.116 85.116-31.886 31.886-23.987-23.988-29.242 29.242 89.034 89.034-32.931 32.931-26.861-26.861-29.242 29.242 116.55 116.55c7.916 0.737 15.931 1.132 24.04 1.132 141.38 0 256-114.62 256-256 0-8.773-0.444-17.443-1.305-25.99l-117.16-117.16z" fill="#4652ca"/>
  <path transform="matrix(.996 .087 -.087 .996 12.253 -13.133)" d="m116.79 116.25h79.47v35h-79.47z" fill="#e9edf5"/>
  <path transform="matrix(.996 -.087 .087 .996 -10.304 31.491)" d="m315.74 116.25h79.47v35h-79.47z" fill="#cdd2e1"/>
  <path transform="matrix(.996 .087 -.087 .996 22.908 -12.668)" d="m116.79 238.5h79.47v35h-79.47z" fill="#e9edf5"/>
  <path transform="matrix(.996 -.087 .087 .996 -20.96 31.956)" d="m315.74 238.5h79.47v35h-79.47z" fill="#cdd2e1"/>
  <path transform="matrix(.996 .087 -.087 .996 33.745 -12.195)" d="m116.79 362.85h79.47v35h-79.47z" fill="#e9edf5"/>
  <path transform="matrix(.996 -.087 .087 .996 -31.797 32.429)" d="m315.74 362.85h79.47v35h-79.47z" fill="#cdd2e1"/>
  <path d="m181 299.62v34.982c29.273 2.769 55.094 3.498 75 3.498l10.407-17.317-10.407-17.665c-30.094 0-55.638-1.667-75-3.498z" fill="#e9edf5"/>
  <path d="m331 299.62c-29.273 2.769-55.094 3.498-75 3.498v34.982c30.094 0 55.638-1.667 75-3.498z" fill="#cdd2e1"/>
  <path d="m181 178.1v34.982c29.273 2.769 55.094 3.498 75 3.498l10.407-16.774-10.407-18.208c-30.094 0-55.638-1.666-75-3.498z" fill="#e9edf5"/>
  <path d="m331 178.1c-29.273 2.769-55.094 3.498-75 3.498v34.982c30.094 0 55.638-1.667 75-3.498z" fill="#cdd2e1"/>
  <path d="m173.42 325.29v97.154c32.231 7.69 60.663 9.715 82.581 9.715l9.437-51.336-9.437-45.817c-33.136 0-61.261-4.629-82.581-9.716z" fill="#fff"/>
  <path d="m338.58 325.29c-32.231 7.69-60.663 9.715-82.581 9.715v97.154c33.136 0 61.261-4.629 82.581-9.715z" fill="#e9edf5"/>
  <path d="m173.42 202.57v97.154c32.231 7.69 60.663 9.715 82.581 9.715l12.946-49.918-12.946-47.236c-33.136 0-61.261-4.629-82.581-9.715z" fill="#fff"/>
  <path d="m338.58 202.57c-32.231 7.69-60.663 9.715-82.581 9.715v97.154c33.136 0 61.261-4.629 82.581-9.715z" fill="#e9edf5"/>
  <path d="m173.42 79.842v97.154c32.231 7.69 60.663 9.715 82.581 9.715l12.946-48.094-12.946-49.06c-33.136 0-61.261-4.628-82.581-9.715z" fill="#fff"/>
  <path d="m338.58 79.842c-32.231 7.69-60.663 9.716-82.581 9.716v97.154c33.136 0 61.261-4.629 82.581-9.715z" fill="#e9edf5"/>
 </g>
</svg>
