<svg width="900" height="900" version="1.1" viewBox="0 0 238.12 238.12" xmlns="http://www.w3.org/2000/svg">
 <g transform="matrix(.46285 0 0 .46285 .57324 .57322)">
  <path d="m512 256c0 141.39-114.61 256-256 256s-256-114.61-256-256 114.61-256 256-256 256 114.61 256 256z" fill="#4a7aff"/>
  <path d="m512 256c0-5.832-0.21484-11.613-0.59766-17.348l-143.75-143.75-73.957 263.39 108.13 108.13c66.578-46.227 110.18-123.22 110.18-210.41z" fill="#0053bf"/>
  <path d="m9.418 325c30.121 107.87 129.11 187 246.58 187s216.46-79.133 246.58-187z" fill="#c3e535"/>
  <path d="m255.59 325v187c0.13672 0 0.26953 4e-3 0.40625 4e-3 117.48 0 216.46-79.133 246.58-187z" fill="#a8d812"/>
  <path d="m445.25 396.94c0-17.496-14.184-31.676-31.676-31.676-1.8203 0-3.6016 0.16016-5.3359 0.45704-6.8789-18.336-31.578-31.91-60.996-31.91-29.422 0-54.121 13.574-61 31.91-1.7344-0.29688-3.5156-0.45703-5.3359-0.45703-17.492 0-31.676 14.18-31.676 31.676z" fill="#0a9154"/>
  <path d="m377.34 396.94h-243.65v-274.22c0-24.758 20.07-44.832 44.832-44.832h153.98c24.762 0 44.832 20.074 44.832 44.832z" fill="#f5f0eb"/>
  <path d="m377.34 122.72c0-24.758-20.07-44.832-44.832-44.832h-76.914v319.05h121.75z" fill="#ebe1dc"/>
  <path d="m283.34 405.32c0-17.492-14.18-31.672-31.676-31.672-1.8164 0-3.5976 0.16016-5.3359 0.45313-6.8789-18.336-31.578-31.906-60.996-31.906s-54.117 13.574-60.996 31.906c-1.7383-0.29297-3.5195-0.45313-5.3359-0.45313-17.492 0-31.676 14.18-31.676 31.672z" fill="#06b26b"/>
  <path d="m283.34 405.32c0-16.16-12.105-29.484-27.742-31.422v31.426z" fill="#0a9154"/>
  <path d="m320.79 166.33h-41.539v-41.664h-47.473v41.664h-41.539v47.473h41.539v93.078h47.473v-93.078h41.539z" fill="#c8beb9"/>
  <path d="m279.25 166.33v-41.664h-23.656v182.21h23.656v-93.078h41.539v-47.473z" fill="#b4aaaa"/>
 </g>
</svg>
