<svg width="900" height="900" version="1.1" viewBox="0 0 238.12 238.12" xmlns="http://www.w3.org/2000/svg">
 <g transform="matrix(.46285 0 0 .46285 .57322 .57322)">
  <path d="m512 256c0 141.39-114.61 256-256 256s-256-114.61-256-256 114.61-256 256-256 256 114.61 256 256z" fill="#00cfff"/>
  <path d="m512 256c0-39.969-9.1641-77.797-25.5-111.5l-119-119-44.004 158.04-164.5-164.5-33.191 190.44-77.559 117.52 183.88 183.88c7.8594 0.72656 15.816 1.1172 23.867 1.1172 141.39 0 256-114.61 256-256z" fill="#0aaeef"/>
  <path d="m61.75 292h149.5v35h-149.5z" fill="#455a64"/>
  <path d="m136.31 292h74.941v35h-74.941z" fill="#37474f"/>
  <path d="m159 202.08v-183.05c-15.859 6.5-30.922 14.539-45 23.941v159.1l-65.75 85.324v39.598h27v-30.402l61.25-79.48 61.25 79.48v30.402h27v-39.598z" fill="#37474f"/>
  <path d="m159 202.08v-183.05c-7.7617 3.1836-15.332 6.7383-22.691 10.637v187.69l0.19141-0.24609 61.25 79.48v30.402h27v-39.598z" fill="#263238"/>
  <path d="m270.25 253.5h149.5v35h-149.5z" fill="#455a64"/>
  <path d="m344.64 253.5h75.105v35h-75.105z" fill="#37474f"/>
  <path d="m367.5 163.58v-138.08c-14.305-6.9336-29.359-12.562-45-16.758v154.84l-65.75 85.32v39.598h27v-30.402l61.25-79.48 61.25 79.48v30.402h27v-39.598z" fill="#37474f"/>
  <path d="m367.5 163.58v-138.08c-7.4258-3.5977-15.055-6.8359-22.855-9.7148v163.29l0.35547-0.46093 61.25 79.48v30.402h27v-39.598z" fill="#263238"/>
 </g>
</svg>
