<svg width="900" height="900" version="1.1" viewBox="0 0 238.12 238.12" xmlns="http://www.w3.org/2000/svg">
 <g transform="matrix(.4625 0 0 .4625 .66146 .66146)">
  <circle cx="256" cy="256" r="256" fill="#00ed89"/>
  <path d="m512 256c0-6.402-0.242-12.747-0.704-19.031l-127.85-127.85-254.9 293.76 108.42 108.42c6.284 0.463 12.629 0.705 19.031 0.705 141.38 0 256-114.62 256-256z" fill="#00cb76"/>
  <path d="m256 277.77-127.45-22.708v-145.94h127.45l36.234 73.054z" fill="#fff"/>
  <path d="m383.45 255.06-127.45 22.708v-168.64h127.45z" fill="#dbe1e8"/>
  <path d="m256 402.88h-127.45v-147.82h127.45l36.234 71.054z" fill="#918edd"/>
  <path d="m256 255.06h127.45v147.82h-127.45z" fill="#6c67d2"/>
  <path d="m328.2 177.07c-0.389-0.144-0.775-0.288-1.161-0.433v-19.473c3.975 1.571 6.617 3.662 6.773 3.788l5.431 4.566 9.176-10.915-5.458-4.588c-0.403-0.339-6.688-5.513-15.922-7.788v-15.007h-14.26v14.454c-1.239 0.219-2.495 0.508-3.768 0.891-9.038 2.722-15.428 9.821-16.677 18.526-1.167 8.129 2.354 15.947 9.191 20.404 0.315 0.205 0.645 0.385 0.989 0.538 0.262 0.117 4.424 1.968 10.266 4.341v23.739c-4.762-1.232-9.061-3.709-12.161-7.129l-4.788-5.283-10.567 9.575 4.788 5.283c5.73 6.323 13.911 10.609 22.727 12.101v13.208h14.26v-13.504c10.427-2.551 18.697-10.357 20.44-20.122 1.624-9.098-2.587-21.015-19.279-27.172zm-19.281-7.796c-1.904-1.439-2.823-3.706-2.471-6.157 0.215-1.501 1.274-5.11 6.33-6.781v14.599c-1.786-0.756-3.136-1.344-3.859-1.661zm24.521 32.462c-0.513 2.872-2.846 5.803-6.402 7.577v-17.174c4.748 2.581 7.051 5.965 6.402 9.597z" fill="#343b42"/>
  <path d="m152.22 139.27h83.86v15h-83.86z" fill="#5a5f64"/>
  <path d="m256 303.22h-27.928v-15h27.928l11.991 7.5z" fill="#4b5055"/>
  <path d="m256 288.22h27.928v15h-27.928z" fill="#373c41"/>
  <path d="m303.78 288.22h55.856v15h-55.856z" fill="#373c41"/>
  <path d="m152.22 288.22h55.856v15h-55.856z" fill="#4b5055"/>
  <path d="m256 371.66h-27.928v-15h27.928l11.991 7.5z" fill="#4b5055"/>
  <path d="m256 356.66h27.928v15h-27.928z" fill="#373c41"/>
  <path d="m303.78 356.66h55.856v15h-55.856z" fill="#373c41"/>
  <path d="m152.22 356.66h55.856v15h-55.856z" fill="#4b5055"/>
  <path d="m303.78 322.44h55.856v15h-55.856z" fill="#373c41"/>
  <path d="m152.22 322.44h55.856v15h-55.856z" fill="#4b5055"/>
  <path d="m256 337.44h-27.928v-15h27.928l11.991 7.5z" fill="#4b5055"/>
  <path d="m256 322.44h27.928v15h-27.928z" fill="#373c41"/>
  <path d="m152.22 165.8h42.937v15h-42.937z" fill="#5a5f64"/>
  <path d="m152.22 192.32h83.86v45.543h-83.86z" fill="#fc0"/>
 </g>
</svg>
