<svg width="900" height="900" version="1.1" viewBox="0 0 238.12 238.12" xmlns="http://www.w3.org/2000/svg">
 <g transform="matrix(.4625 0 0 .4625 .66146 .66146)">
  <path d="m11.721 332.8c-7.616-24.245-11.721-50.044-11.721-76.803 0-141.38 114.62-256 256-256s256 114.62 256 256-114.62 256-256 256c-77.448 0-146.86-34.392-193.81-88.737z" fill="#fe8205"/>
  <path d="m62.192 423.26 26.545 26.545c44.864 38.754 103.33 62.193 167.26 62.193 141.38 0 256-114.62 256-256 0-1.464-0.013-2.925-0.037-4.383l-170.86-170.86-239.6 170.92 32.965 32.965-11.654 7.419 37.989 37.989z" fill="#f24500"/>
  <path d="m122.82 217.28h47.17v74.781h-47.17z" fill="#636978"/>
  <path d="m342.01 217.28h47.17v74.781h-47.17z" fill="#414952"/>
  <path d="m386.6 171.31h-261.21l45.495-90.549h170.22z" fill="#7584f2"/>
  <path d="m341.11 80.762h-84.749v90.549h130.24z" fill="#606aea"/>
  <path d="m354.76 171.31h-197.52l34.403-69.176h128.72z" fill="#fff"/>
  <path d="m320.36 102.14h-63.999v69.176h98.402z" fill="#e9edf5"/>
  <path d="m410.49 251.68h-308.99v-52.691c0-22.556 18.285-40.841 40.841-40.841h227.3c22.556 0 40.841 18.285 40.841 40.841z" fill="#7584f2"/>
  <path d="m410.49 198.99c0-22.556-18.285-40.841-40.841-40.841h-113.29v93.533h154.13z" fill="#606aea"/>
  <path d="m122.82 193.6h63.242v23.682h-63.242z" fill="#fff"/>
  <path d="m325.94 193.6h63.242v23.682h-63.242z" fill="#e9edf5"/>
  <path d="m376.68 326.81-92.656 57.914-65.348-36.225 72.507-19.471c9.459-4.715 14.256-15.472 11.443-25.663-2.947-10.68-13.344-17.526-24.316-16.011l-92.833 2.652c-12.448 0.356-24.814 2.139-36.856 5.314l-136.9 37.482c10.581 33.686 27.936 64.371 50.471 90.458 32.713-17.887 61.981-34.167 61.981-34.167l120.38 45.451c21.239 7.944 45.024 4.97 63.654-7.96l112.44-80.217-6.853-11.365c-7.88-12.658-24.631-16.356-37.107-8.192z" fill="#ffdecf"/>
  <g fill="#ffcdbe">
   <path d="m291.19 329.03c9.459-4.715 14.256-15.472 11.443-25.663-2.947-10.68-13.344-17.526-24.316-16.012l-21.956 0.627v50.399z"/>
   <path d="m413.79 335c-7.879-12.659-24.629-16.357-37.106-8.193l-92.656 57.914-27.669-15.338v68.413c17.922 3.272 36.608-0.639 51.846-11.214l112.44-80.217z"/>
  </g>
 </g>
</svg>
