<svg width="900" height="900" version="1.1" viewBox="0 0 238.12 238.12" xmlns="http://www.w3.org/2000/svg">
 <g transform="matrix(.4625 0 0 .4625 .66146 .66146)">
  <circle cx="256" cy="256" r="256" fill="#fe8205"/>
  <path d="m512 256c0-9.979-0.571-19.825-1.682-29.506l-118.51-118.51-66.247 89.771 37.065 37.065-9.663 42-125.85-125.85-104.02 34.608 92.395 92.395-79.116 66.448 31.008 31.008-42.521 41.839 91.714 91.714c12.853 1.989 26.021 3.02 39.431 3.02 141.38 0 256-114.62 256-256z" fill="#f24500"/>
  <path d="m148.83 344.42h27.106v49.129h-27.106z" fill="#636978"/>
  <path d="m336.06 344.42h27.106v49.129h-27.106z" fill="#414952"/>
  <path d="m210.72 263.95h-30.096l-25.454-106.97h30.096z" fill="#dce1eb"/>
  <path d="m360.89 307.43h-35.012l20.33-149.36 35.011-14.4z" fill="#414952"/>
  <path d="m182.83 216.53c-36.132-5.99-69.282 19.983-69.282 54.28v30.059c0 30.446 26.407 55.127 58.982 55.127h84.133l6.76-73.532-7.779-53.864z" fill="#fff"/>
  <path d="m364.16 246.59-108.52-17.988v127.4h98.215c32.575 0 58.982-24.682 58.982-55.127 0-26.733-20.52-49.613-48.682-54.281z" fill="#e9edf5"/>
  <path transform="matrix(.785 -.62 .62 .785 -17.522 255.3)" d="m304.86 138.19h107.64v29.365h-107.64z" fill="#23272b"/>
  <path d="m256 256.75c-20.35 0-36.847 16.497-36.847 36.847s16.497 36.847 36.847 36.847c0.222 0 0.441-0.013 0.662-0.017l3.211-34.441-3.211-39.219c-0.221-4e-3 -0.44-0.017-0.662-0.017z" fill="#dce1eb"/>
  <path d="m256 256.75c-0.119 0-0.237 8e-3 -0.356 9e-3v73.676c0.119 1e-3 0.237 9e-3 0.356 9e-3 20.35 0 36.847-16.497 36.847-36.847s-16.497-36.847-36.847-36.847z" fill="#bec3d2"/>
  <path d="m227.11 185.58h-104.02v-46.144l104.02 11.536z" fill="#636978"/>
  <path d="m244.56 290.21v79.623h12.097l3.211-38.522-3.211-41.101z" fill="#636978"/>
  <path d="m255.64 290.21h11.791v79.623h-11.791z" fill="#414952"/>
  <path d="m237.36 346.54v24.565h19.303l2.028-12.283-2.028-12.282z" fill="#414952"/>
  <path d="m255.64 346.54h41.856v24.564h-41.856z" fill="#23272b"/>
  <path d="m124.85 389.31v27.954h130.79l3.046-12.775-3.046-15.179z" fill="#414952"/>
  <path d="m255.64 389.31h131.5v27.953h-131.5z" fill="#23272b"/>
 </g>
</svg>
