<svg width="900" height="900" version="1.1" viewBox="0 0 238.12 238.12" xmlns="http://www.w3.org/2000/svg">
 <g transform="matrix(.4625 0 0 .4625 .66146 .66146)">
  <circle cx="256" cy="256" r="256" fill="#175d76"/>
  <path d="m511.69 268.64-96.709-96.709-99.107-73.602-55.349 47.136 82.923 82.923-178.7 193.78 89.81 89.809c0.484 3e-3 0.964 0.019 1.449 0.019 137.14 0 249.09-107.84 255.69-243.36z" fill="#00263f"/>
  <rect transform="matrix(.7071 -.7071 .7071 .7071 -130.63 258.87)" x="214.37" y="123.17" width="65.609" height="327.91" fill="#ffdc00"/>
  <rect transform="matrix(-.7071 .7071 -.7071 -.7071 613.34 343.4)" x="219.16" y="134.77" width="32.768" height="327.91" fill="#ffc000"/>
  <polygon points="91.951 131.9 154.43 147.99 108.04 194.38" fill="#ffecb3"/>
  <polygon points="131.21 171.21 91.969 131.97 108.04 194.38" fill="#ffd863"/>
  <polygon points="99.612 161.65 121.7 139.56 91.951 131.9" fill="#ff6838"/>
  <polygon points="110.63 150.63 91.969 131.97 99.612 161.65" fill="#ae4e32"/>
  <rect transform="matrix(-.7071 -.7071 .7071 -.7071 517.09 641.77)" x="373.95" y="186.22" width="35.03" height="55.149" fill="#c0c0c0"/>
  <rect transform="matrix(-.7071 -.7071 .7071 -.7071 542.95 699.5)" x="388.13" y="192.05" width="56.439" height="90.499" fill="#e0e0e0"/>
  <path d="m281.31 103.3-31.481 31.481 10.692 10.692c14.632-14.632 38.354-14.632 52.985 0 14.631 14.631 14.632 38.354 0 52.985l37.476 37.476 63.995-63.995-68.64-68.64c-17.957-17.955-47.07-17.955-65.027 1e-3z" fill="#fff"/>
  <rect transform="matrix(.7071 .7071 -.7071 .7071 246.4 -206.94)" x="358.89" y="148.71" width="28.22" height="90.499" fill="#e0e0e0"/>
  <rect transform="matrix(-.7071 -.7071 .7071 -.7071 188.79 698.8)" x="212.62" y="178.61" width="52.998" height="263.38" fill="#ff6838"/>
  <rect transform="matrix(.7071 .7071 -.7071 .7071 298.23 -81.831)" x="233.78" y="187.38" width="28.22" height="263.39" fill="#ae4e32"/>
 </g>
</svg>
