<svg width="900" height="900" version="1.1" viewBox="0 0 238.12 238.12" xmlns="http://www.w3.org/2000/svg">
 <g transform="matrix(.4625 0 0 .4625 .66146 .66146)">
  <g id="XMLID_20_">
   <g id="XMLID_1095_">
    <g id="XMLID_1096_">
     <g id="XMLID_1097_">
      <g id="XMLID_1098_">
       <g id="XMLID_1099_">
        <g id="XMLID_1100_">
         <g id="XMLID_1101_">
          <g id="XMLID_1102_">
           <g id="XMLID_1103_">
            <g id="XMLID_1104_">
             <g id="XMLID_1105_">
              <g id="XMLID_1106_">
               <g id="XMLID_1107_">
                <g id="XMLID_1108_">
                 <circle cx="256" cy="256" r="256" fill="#3d5d72"/>
                </g>
               </g>
              </g>
             </g>
            </g>
           </g>
          </g>
         </g>
        </g>
       </g>
      </g>
     </g>
    </g>
   </g>
  </g>
  <path d="m511.68 268.86-194.41-194.41-199.78 195.55 53.971 54.196s2.835 32.092 2.835 32.092l33.092 33.064-2.654 76.642 45.933 45.933c1.773 0.036 3.547 0.067 5.329 0.067 137.07 0 248.98-107.73 255.68-243.14z" fill="#274a59"/>
  <path d="m188.2 351.2 16.54 114.8h102.52l16.541-114.8z" fill="#f9aa69"/>
  <path d="m323.8 351.2-1.12 7.81-15.42 106.99h-51.26v-114.8z" fill="#f49a56"/>
  <path d="m143.06 244.39 18.16 87.169c1.94 9.312 6.472 17.885 13.075 24.732 9.509 9.862 22.62 15.433 36.32 15.433h90.76c13.7 0 26.811-5.571 36.32-15.433 6.602-6.847 11.135-15.42 13.075-24.732l18.16-87.169z" fill="#fecb95"/>
  <path d="m368.94 244.39-6.92 33.22-11.25 53.95c-0.97 4.66-2.58 9.13-4.78 13.29-2.21 4.17-4.99 8.02-8.29 11.44-4.35 4.51-9.45 8.12-15.02 10.72-6.6 3.08-13.86 4.72-21.3 4.72h-45.38v-127.34z" fill="#fcba7e"/>
  <path d="m380.12 200v-24.58c0-24.335-19.911-44.246-44.246-44.246h-5.929c26.946-65.006-89.949-101.68-89.949-101.68s1 44.5-23.395 50.604c-44.08 11.031-40.416 38.73-36.704 51.071h-3.779c-24.335 0-44.246 19.911-44.246 44.246v24.58c-15.413 3.253-27.075 17.002-27.075 33.346v10.183c0 18.743 15.336 34.079 34.079 34.079h234.24c18.743 0 34.079-15.336 34.079-34.079v-10.183c-1e-3 -16.343-11.662-30.092-27.075-33.346z" fill="#fff"/>
  <path d="m407.2 233.35v10.18c0 18.74-15.34 34.08-34.08 34.08h-117.12v-242.13c31.02 12.83 94.56 45.98 73.95 95.7h5.93c24.33 0 44.24 19.91 44.24 44.24v24.58c15.42 3.25 27.08 17 27.08 33.35z" fill="#e9edf5"/>
 </g>
</svg>
