<svg width="900" height="900" version="1.1" viewBox="0 0 238.12 238.12" xmlns="http://www.w3.org/2000/svg">
 <g transform="matrix(.46285 0 0 .46285 .57322 .57322)">
  <path d="m512 256c0 141.39-114.61 256-256 256s-256-114.61-256-256 114.61-256 256-256 256 114.61 256 256z" fill="#4a7aff"/>
  <path d="m512 256c0-19.781-2.2461-39.035-6.4922-57.527l-74.934-74.93-291.41 160.57-18.492-18.492-35.867 23.379 56.734 56.738-39.371 45.988 117.73 117.73c11.797 1.6641 23.844 2.5469 36.102 2.5469 141.39 0 256-114.61 256-256z" fill="#0053bf"/>
  <path d="m131.71 396.34h-18.379c-8.7226 0-15.793-7.0664-15.793-15.789v-55.035c0-8.7188 7.0703-15.789 15.793-15.789h18.379c8.7188 0 15.789 7.0703 15.789 15.789v55.035c0 8.7226-7.0703 15.789-15.789 15.789z" fill="#414952"/>
  <path d="m332.99 396.34h-18.379c-8.7188 0-15.789-7.0664-15.789-15.789v-55.035c0-8.7188 7.0703-15.789 15.789-15.789h18.379c8.7227 0 15.789 7.0703 15.789 15.789v55.035c4e-3 8.7226-7.0664 15.789-15.789 15.789z" fill="#333940"/>
  <path d="m327.08 289-18.613-55.086c-3.3594-9.9492-12.695-16.648-23.195-16.648h-124.21c-10.504 0-19.836 6.6992-23.199 16.648l-18.613 55.086-21.555 5.2734c-9.7148 2.375-16.102 11.66-14.844 21.586l4.6172 36.371c1.4922 11.766 11.504 20.586 23.363 20.586h224.67c11.863 0 21.871-8.8203 23.363-20.586l4.6172-36.371c1.2578-9.9258-5.1289-19.211-14.844-21.586z" fill="#fff"/>
  <path d="m348.63 294.27-21.555-5.2734-18.613-55.086c-3.3594-9.9492-12.695-16.648-23.195-16.648h-61.223v155.55h111.45c11.859 0 21.871-8.8203 23.363-20.586l4.6172-36.371c1.2578-9.9258-5.1289-19.211-14.844-21.586z" fill="#e9edf5"/>
  <path d="m119.24 289-21.555 5.2734c-9.7148 2.375-16.102 11.66-14.844 21.586l4.6172 36.371c1.4922 11.766 11.5 20.586 23.359 20.586h224.68c11.859 0 21.871-8.8203 23.363-20.586l4.6172-36.371c1.2578-9.9258-5.1289-19.211-14.844-21.586l-21.559-5.2734" fill="#fff"/>
  <path d="m119.24 289-21.555 5.2734c-9.7148 2.375-16.102 11.66-14.844 21.586l4.6172 36.371c1.4922 11.766 11.5 20.586 23.359 20.586h113.23v-83.816z" fill="#fff"/>
  <path d="m348.63 294.27-21.555-5.2734h-103.03v83.816h111.45c11.859 0 21.871-8.8203 23.363-20.586l4.6172-36.371c1.2578-9.9258-5.1289-19.211-14.844-21.586z" fill="#e9edf5"/>
  <path d="m300.54 233.33h-154.77c-0.0664 0.19532-0.14062 0.38672-0.20312 0.58204l-16.926 55.086h189.03l-16.93-55.086c-0.0586-0.19532-0.13672-0.38672-0.20312-0.58204z" fill="#a3d4ff"/>
  <path d="m300.75 233.91c-0.0586-0.19532-0.13672-0.38282-0.19922-0.58204h-76.5v55.668h93.629z" fill="#65b1fc"/>
  <path d="m122.52 291.04h-32.195c-4.6953 0-8.5078-3.8086-8.5078-8.5078v-11.625c0-4.6992 3.8125-8.5078 8.5078-8.5078h23.688c4.6992 0 8.5078 3.8086 8.5078 8.5078z" fill="#fff"/>
  <path d="m86.512 344.75h45.18c7.4726 0 11.852-8.418 7.5586-14.535l-6.6328-9.4492c-1.7266-2.4648-4.5469-3.9297-7.5586-3.9297h-42.09z" fill="#65b1fc"/>
  <path d="m323.8 291.04h32.191c4.6992 0 8.5117-3.8086 8.5117-8.5078v-11.625c0-4.6992-3.8125-8.5078-8.5117-8.5078h-23.684c-4.6992 0-8.5078 3.8086-8.5078 8.5078z" fill="#fff"/>
  <path d="m359.81 344.75h-45.18c-7.4727 0-11.852-8.418-7.5547-14.535l6.6289-9.4492c1.7305-2.4648 4.5508-3.9297 7.5586-3.9297h42.094z" fill="#65b1fc"/>
  <path d="m155.33 330.91h135.66v13.84h-135.66z" fill="#a3d4ff"/>
  <path d="m224.05 330.91h66.941v13.84h-66.941z" fill="#65b1fc"/>
  <path d="m334.37 429.89c-18.594 0-33.668-15.074-33.668-33.668v-99.664h67.332v99.664c4e-3 18.594-15.07 33.668-33.664 33.668z" fill="#fa0"/>
  <path d="m334.17 296.56v133.33c0.0664 0 0.13281 4e-3 0.19922 4e-3 18.594 0 33.668-15.07 33.668-33.664v-99.668z" fill="#ff9500"/>
  <path d="m238.16 123.54h192.42v127.5h-192.42z" fill="#fff"/>
  <path d="m334.17 123.54h96.406v127.49h-96.406z" fill="#e9edf5"/>
  <path d="m409.89 311.36h-151.05c-14.098 0-25.527-11.426-25.527-25.523v-65.969h202.11v65.969c0 14.098-11.43 25.523-25.527 25.523z" fill="#ffde52"/>
  <path d="m334.17 219.87v91.496h75.727c14.098 0 25.527-11.426 25.527-25.523v-65.969h-101.25z" fill="#ffa300"/>
  <path d="m256.04 123.54h25.664v82h-25.664z" fill="#bfe1ff"/>
  <path d="m299.7 123.54h25.668v82h-25.668z" fill="#bfe1ff"/>
  <g fill="#a3d4ff">
   <path d="m343.37 123.54h25.668v82h-25.668z"/>
   <path d="m387.04 123.54h25.664v82h-25.664z"/>
  </g>
 </g>
</svg>
