<svg width="900" height="900" version="1.1" viewBox="0 0 238.12 238.12" xmlns="http://www.w3.org/2000/svg">
 <g transform="matrix(.4625 0 0 .4625 .66146 .66146)">
  <circle cx="256" cy="256" r="256" fill="#ff6c52"/>
  <path d="m512 256c0-26.189-3.942-51.456-11.249-75.25l-69.75-69.75-133.13 133.13-30.001-30.001-186.87 186.87 99.753 99.753c23.793 7.307 49.059 11.248 75.247 11.248 141.38 0 256-114.62 256-256z" fill="#ff432e"/>
  <path d="m256 140.65-67.5-9.647-13.5-10 13.5-10h67.5l13 10z" fill="#fcc515"/>
  <path d="m256 140.65 67.5-9.647 20-10-20-10h-67.5z" fill="#fa0"/>
  <path d="m106 131v250h150l24.294-125-24.294-125z" fill="#333940"/>
  <path d="m256 131h150v250h-150z" fill="#101214"/>
  <path d="m131 156v200h125l35.118-100-35.118-100z" fill="#8cc7fc"/>
  <path d="m256 156h125v200h-125z" fill="#6cb1f8"/>
  <path d="m246 143.5v102.5h-127.5v20h127.5v102.5h10l8.294-112.5-8.294-112.5z" fill="#333940"/>
  <path d="m266 266h127.5v-20h-127.5v-102.5h-10v225h10z" fill="#101214"/>
  <path d="m134.75 247.71h-53.75v153.29h71.176z" fill="#e9edf5"/>
  <path d="m188.5 111h-107.5v145h52.426c30.416 0 55.074-24.657 55.074-55.074z" fill="#fff"/>
  <path d="m377.25 247.71h53.75v153.29h-71.176z" fill="#cdd2e1"/>
  <path d="m323.5 111h107.5v145h-52.426c-30.416 0-55.074-24.657-55.074-55.074z" fill="#e9edf5"/>
 </g>
</svg>
