<svg width="900" height="900" version="1.1" viewBox="0 0 238.12 238.12" xmlns="http://www.w3.org/2000/svg">
 <g transform="matrix(.4625 0 0 .4625 .66146 .66146)">
  <circle id="XMLID_108_" cx="256" cy="256" r="256" fill="#8ee26b"/>
  <path d="m481.85 135.4-78.292-78.292-286.22 43.953 29.517 29.517-10.289 18.766 53.926 53.926-7.548 29.912 36.282 36.282 1.663 12.021 26.635 26.635 1.528 90.237-106.47-106.47-22.821-2.264 1.608 23.477 102.75 102.75-117.57 32.314 38.707 38.707c33.513 16.105 71.074 25.131 110.74 25.131 141.38 0 256-114.62 256-256 0-43.61-10.917-84.666-30.148-120.6z" fill="#00cbb1"/>
  <path d="m241 421.15h15l7.5-88.753-7.5-58.07h-15z" fill="#ff405c"/>
  <path d="m256 274.33h15v146.82h-15z" fill="#ea1c81"/>
  <path d="m212.71 261.34c0 13.433 10.889 24.322 24.322 24.322h18.966l33.312-36.403-33.312-36.403h-43.288z" fill="#fff"/>
  <path d="m274.97 285.66c13.433 0 24.322-10.889 24.322-24.322v-48.484h-43.288v72.806z" fill="#e5e5e5"/>
  <path transform="matrix(.707 -.707 .707 .707 -169.9 169.04)" d="m104.1 271.42h30v36.403h-30z" fill="#ff405c"/>
  <path transform="matrix(.707 -.707 .707 .707 -194.63 228.73)" d="m163.79 312.64h30v73.32h-30z" fill="#ff405c"/>
  <path transform="matrix(.707 -.707 .707 .707 -89.713 362.65)" d="m374.7 274.62h36.403v30h-36.403z" fill="#ea1c81"/>
  <path transform="matrix(.707 -.707 .707 .707 -149.4 337.92)" d="m296.55 334.3h73.32v30h-73.32z" fill="#ea1c81"/>
  <path d="m182.94 233.18h73.057l38.959-49.354-38.959-49.354h-73.057z" fill="#4b4b66"/>
  <path d="m256 134.47h73.057v98.709h-73.057z" fill="#2e2e44"/>
  <path d="m136.56 149.34h119.44l31.053-24.141-31.053-24.141h-119.44z" fill="#fff"/>
  <path d="m256 101.06h119.44v48.282h-119.44z" fill="#e5e5e5"/>
  <path d="m108.44 57.104v24.712c0 13.953 11.311 25.264 25.265 25.264h122.3l43.288-24.988-43.288-24.988z" fill="#ffc533"/>
  <path d="m256 57.104v49.976h122.3c13.953 0 25.265-11.311 25.265-25.264v-24.712z" fill="#ff7d47"/>
  <path d="m106.55 408.49v39.67h149.45l34.085-19.835-34.085-19.835z" fill="#4b4b66"/>
  <path d="m256 408.49h149.45v39.67h-149.45z" fill="#2e2e44"/>
 </g>
</svg>
