<svg width="900" height="900" version="1.1" viewBox="0 0 238.12 238.12" xmlns="http://www.w3.org/2000/svg">
 <g transform="matrix(.4625 0 0 .4625 .66146 .66146)">
  <circle cx="256" cy="256" r="256" fill="#00c8c8"/>
  <path d="m512 256c0-3.294-0.062-6.574-0.186-9.839l-140.05-140.05-177.69 143.89-64.047 160.24 8.022 8.618 92.48 91.885c8.38 0.828 16.878 1.252 25.475 1.252 141.38 0 256-114.62 256-256z" fill="#1cadb5"/>
  <path d="m200.46 159.88c-14.053-16.945-35.514-27.525-59.418-26.772-39.479 1.244-71.31 33.858-71.651 73.355-0.166 19.2 6.977 36.73 18.814 49.976 8.902 9.961 12.607 23.539 10.386 36.713-6.346 37.637-2.905 95.094 57.072 141.07 0 0-6.769-76.799 22.895-124.12 5.464-8.717 14.872-12.71 23.959-12l16.618-60.067-13.795-74.306c-3.523-5.436-4.212-4.65-4.88-3.845z" fill="#fff"/>
  <path d="m331.52 206.46c-0.341-39.498-32.172-72.111-71.651-73.355-23.851-0.752-45.269 9.781-59.324 26.661v138.24c8.393 0.03 16.774 4.057 21.808 12.087 29.664 47.322 22.895 124.12 22.895 124.12 59.978-45.972 63.418-103.43 57.072-141.07-2.221-13.173 1.484-26.751 10.386-36.713 11.837-13.244 18.98-30.774 18.814-49.974z" fill="#e9edf5"/>
  <path d="m327.93 200.76-21.736 21.736 106.62 106.62 21.736-21.736-45.038-57.374z" fill="#636978"/>
  <path transform="matrix(.707 -.707 .707 .707 -58.681 347.85)" d="m375.94 169.37h29.221v150.78h-29.221z" fill="#414952"/>
  <path d="m224.41 97.236c-0.354 0.344-0.711 0.684-1.061 1.035-39.034 39.034-39.034 102.32 0 141.35s102.32 39.034 141.35 0c0.35-0.35 0.691-0.707 1.035-1.061l-61.197-78.016z" fill="#7e8596"/>
  <path d="m364.7 98.27c-39.025-39.025-102.29-39.034-141.33-0.026l141.35 141.35c39.007-39.035 38.999-102.3-0.026-141.33z" fill="#636978"/>
  <path d="m244.39 117.22c-0.357 0.343-0.723 0.67-1.074 1.021-28.005 28.005-28.005 73.411 0 101.42s73.411 28.005 101.42 0c0.351-0.351 0.679-0.718 1.021-1.074l-47.513-55.44z" fill="#fff"/>
  <path d="m344.73 118.24c-27.997-27.997-73.382-28.004-101.39-0.025l101.42 101.42c27.979-28.008 27.971-73.394-0.025-101.39z" fill="#e9edf5"/>
  <path d="m290.34 163.17-13.126 13.126-15.841-15.841-21.213 21.214 37.054 37.053 34.339-34.339-9.262-14.824z" fill="#ff7d81"/>
  <path transform="matrix(.707 -.707 .707 .707 -16.336 271.32)" d="m291.88 140.38h54.935v30h-54.935z" fill="#ff475a"/>
 </g>
</svg>
