<svg width="900" height="900" version="1.1" viewBox="0 0 238.12 238.12" xmlns="http://www.w3.org/2000/svg">
 <g transform="matrix(.4625 0 0 .4625 .66146 .66146)">
  <circle cx="256" cy="256" r="256" fill="#ffe377"/>
  <path d="m511.75 266.97-70.998-70.998-10.436 13.044-136.85-136.85 26.371 89.71-78.869-78.869-100.43 152.28-44.208-8.954-16.969 13.62 87.583 87.583-44.564 82.291 99.97 99.971c11.012 1.445 22.241 2.202 33.647 2.202 137.71 0 250-108.74 255.75-245.03z" fill="#ffd944"/>
  <path d="m256.12 409.83h-133.74l-33.79-183.08h167.53l29.91 96.372z" fill="#ff415b"/>
  <path d="m389.62 409.83h-133.74v-183.08h167.53z" fill="#f9163d"/>
  <path d="m256.21 307.18h-17.044v-40.135h17.044l3.236 20.693z" fill="#ffe377"/>
  <path d="m256.19 267.04h17.044v40.135h-17.044z" fill="#ffd944"/>
  <path d="m256.21 378.43h-17.044v-40.135h17.044l3.236 20.693z" fill="#ffe377"/>
  <path d="m256.19 338.29h17.044v40.135h-17.044z" fill="#ffd944"/>
  <path d="m308.53 267.04v40.135h34.061v-40.135zm0 111.39h34.061v-40.135h-34.061z" fill="#ffd944"/>
  <path d="m169.81 267.04v40.135h34.061v-40.135zm0 111.39h34.061v-40.135h-34.061z" fill="#ffe377"/>
  <path d="m274.77 239.95-18.911-43.981h-184.62l8.117 43.981z" fill="#f9163d"/>
  <path d="m432.64 239.95 8.117-43.981h-184.89v43.981z" fill="#c8001c"/>
  <path d="m352.25 186.63c-0.819 0-1.628 0.04-2.432 0.099l-56.35-114.56-22.042 10.842 56.347 114.55c-5.217 5.818-8.394 13.503-8.394 21.933 0 18.153 14.716 32.869 32.87 32.869s32.869-14.716 32.869-32.869-14.715-32.87-32.868-32.87z" fill="#39326c"/>
  <path d="m240.97 83.011-22.041-10.841-56.349 114.56c-0.804-0.059-1.613-0.099-2.432-0.099-18.153 0-32.87 14.716-32.87 32.87s14.716 32.869 32.87 32.869 32.87-14.716 32.87-32.869c0-8.43-3.177-16.115-8.394-21.933z" fill="#514899"/>
  <circle transform="matrix(.383 -.924 .924 .383 -103.93 283.46)" cx="160.15" cy="219.5" r="13.774" fill="#8078be"/>
  <circle transform="matrix(.383 -.924 .924 .383 14.661 460.94)" cx="352.25" cy="219.5" r="13.774" fill="#514899"/>
 </g>
</svg>
