<svg width="900" height="900" version="1.1" viewBox="0 0 238.12 238.12" xmlns="http://www.w3.org/2000/svg">
 <g transform="matrix(.4625 0 0 .4625 .66146 .66146)">
  <circle cx="256" cy="256" r="256" fill="#35ccff"/>
  <path d="m510.28 285.68-177.28-177.28-266.63 245.02 156.44 156.44c10.864 1.405 21.94 2.138 33.189 2.138 131.34 0 239.57-98.923 254.28-226.32z" fill="#00baff"/>
  <rect x="66.372" y="108.4" width="266.64" height="232.9" fill="#ffcf35"/>
  <rect x="198.77" y="108.4" width="134.24" height="232.9" fill="#ffb344"/>
  <polygon points="250.72 280.77 250.72 220.85 263.36 220.85 234.03 191.53 204.71 220.85 217.35 220.85 217.35 280.77" fill="#ae4e32"/>
  <g fill="#ff6838">
   <polygon points="182.02 280.77 182.02 220.85 194.66 220.85 165.34 191.53 136.02 220.85 148.66 220.85 148.66 280.77"/>
   <rect x="136.86" y="289.5" width="125.66" height="20.944"/>
  </g>
  <rect x="198.54" y="289.5" width="63.974" height="20.944" fill="#ae4e32"/>
  <path d="m404.43 207.99h-71.425v133.32h133.32v-60.494c0-3.996-1.329-7.877-3.777-11.035l-41.641-53.713c-3.947-5.093-10.028-8.073-16.472-8.073z" fill="#f1333f"/>
  <path d="m401.98 216.7h-59.892v53.279h107.06l-37.714-48.647c-2.265-2.922-5.754-4.632-9.45-4.632z" fill="#b9eaff"/>
  <rect x="66.372" y="331.2" width="399.95" height="22.219" fill="#4b7689"/>
  <g fill="#175d76">
   <rect x="198.82" y="331.2" width="267.5" height="22.219"/>
   <circle cx="133.03" cy="352.42" r="33.328"/>
  </g>
  <g fill="#00263f">
   <circle cx="133.03" cy="352.42" r="17.17"/>
   <circle cx="399.65" cy="352.42" r="33.328"/>
  </g>
  <circle cx="399.65" cy="352.42" r="17.17" fill="#000b11"/>
  <rect x="170.1" y="108.4" width="59.182" height="59.182" fill="#ffecb3"/>
  <rect x="198.54" y="108.4" width="30.741" height="59.182" fill="#ffd863"/>
 </g>
</svg>
