<svg width="900" height="900" version="1.1" viewBox="0 0 238.12 238.12" xmlns="http://www.w3.org/2000/svg">
 <g transform="matrix(.4625 0 0 .4625 .66146 .66146)">
  <circle cx="256" cy="256" r="256" fill="#a3d4ff"/>
  <path d="m512 256c0-15.153-1.317-29.998-3.841-44.428l-109.87-109.87-284.58 279.71 28.966 28.966-12.235 6.984 92.524 92.524c10.815 1.393 21.84 2.112 33.033 2.112 141.38 0 256-114.62 256-256z" fill="#65b1fc"/>
  <path d="m153.3 417.36h-22.859v-45.402h32.43z" fill="#a65d4e"/>
  <path d="m358.7 417.36h22.859v-45.402h-32.43z" fill="#784132"/>
  <path d="m113.71 101.7v279.71h142.6l16.915-125.41-16.915-154.3z" fill="#c38778"/>
  <path d="m256.31 101.7h141.98v279.71h-141.98z" fill="#a65d4e"/>
  <path d="m133.58 121.44v67.576h123.6l5.875-33.788-5.875-33.788z" fill="#b46e5a"/>
  <path d="m256.31 121.44h122.11v67.576h-122.11z" fill="#915041"/>
  <path d="m133.58 293.04v67.576h123.6l3.377-33.788-3.377-33.788z" fill="#b46e5a"/>
  <path d="m256.31 293.04h122.11v67.576h-122.11z" fill="#915041"/>
  <path d="m133.58 207.24v67.576h123.6l4.828-27.446-4.828-40.13z" fill="#b46e5a"/>
  <path d="m256.31 207.24h122.11v67.576h-122.11z" fill="#915041"/>
  <path d="m256 141.44c-7.612 0-13.783 6.171-13.783 13.783s6.171 13.783 13.783 13.783c0.396 0 0.785-0.026 1.172-0.059l3.715-13.724-3.715-13.724c-0.387-0.033-0.776-0.059-1.172-0.059z" fill="#915041"/>
  <path d="m269.78 155.23c0-7.507-6.005-13.601-13.473-13.767v27.534c7.468-0.167 13.473-6.26 13.473-13.767z" fill="#61362b"/>
  <path d="m256 313.04c-7.612 0-13.783 6.171-13.783 13.783s6.171 13.783 13.783 13.783c0.396 0 0.785-0.026 1.172-0.059l2.532-13.724-2.532-13.724c-0.387-0.032-0.776-0.059-1.172-0.059z" fill="#915041"/>
  <path d="m269.78 326.82c0-7.507-6.005-13.601-13.473-13.767v27.534c7.468-0.166 13.473-6.259 13.473-13.767z" fill="#61362b"/>
  <path d="m256 227.24c-7.612 0-13.783 6.171-13.783 13.783s6.171 13.783 13.783 13.783c0.396 0 0.785-0.026 1.172-0.059l3.715-13.724-3.715-13.724c-0.387-0.032-0.776-0.059-1.172-0.059z" fill="#915041"/>
  <path d="m269.78 241.02c0-7.507-6.005-13.601-13.473-13.767v27.534c7.468-0.166 13.473-6.259 13.473-13.767z" fill="#61362b"/>
 </g>
</svg>
