<svg width="900" height="900" version="1.1" viewBox="0 0 238.12 238.12" xmlns="http://www.w3.org/2000/svg">
 <g transform="matrix(.4625 0 0 .4625 .66146 .66146)">
  <circle cx="256" cy="256" r="256" fill="#b9eaff"/>
  <path d="m511.92 262.47-65.47-65.47h-380.9l34.69 34.69-33.935 92.97 187.31 187.31c0.794 7e-3 1.585 0.03 2.381 0.03 139.22 1e-3 252.48-111.14 255.92-249.53z" fill="#35ccff"/>
  <rect x="84.33" y="201" width="20" height="84.67" fill="#666"/>
  <path d="m373.79 317.31c-69.32 53.771-166.26 53.771-235.58 0v-133.37h235.58v133.37z" fill="#1a1a1a"/>
  <path d="m256 183.94v173.69c41.135 0.144 82.949-13.293 117.79-40.317v-133.37c-39.477 0-78.954 0-117.79-4e-3z"/>
  <polygon points="256 113.47 446.45 197 256 280.53 65.553 197" fill="#333"/>
  <polygon points="256 280.53 446.45 197 256 113.47" fill="#1a1a1a"/>
  <polygon points="77 269 111 269 121.69 324.66 66.308 324.66" fill="#808080"/>
 </g>
</svg>
