<svg width="900" height="900" version="1.1" viewBox="0 0 238.12 238.12" xmlns="http://www.w3.org/2000/svg">
 <g transform="matrix(.4625 0 0 .4625 .66146 .66146)">
  <circle cx="256" cy="256" r="256" fill="#ff5f1c"/>
  <path d="m512 256c0-25.927-3.868-50.948-11.035-74.533l-123.02-122.11-234.78 381.61 19.884 19.986-1.54 1.294 44.934 44.934c16.038 3.146 32.606 4.812 49.566 4.812 141.38 0 256-114.62 256-256z" fill="#ff2034"/>
  <g fill="#57545c">
   <path d="m161.5 436.1h30v26.15h-30z"/>
   <path d="m320.5 436.1h30v26.15h-30z"/>
  </g>
  <path d="m355.5 444.67h-199c-14.374 0-26.134-11.76-26.134-26.134v-345.83c0-14.374 11.76-26.134 26.134-26.134h199c14.374 0 26.134 11.76 26.134 26.134v345.83c0 14.374-11.76 26.135-26.134 26.135z" fill="#fff"/>
  <path d="m381.63 72.71v345.82c0 14.38-11.76 26.14-26.13 26.14h-99.5v-398.1h99.5c14.37 0 26.13 11.76 26.13 26.14z" fill="#defaf7"/>
  <path d="m130.37 189.3h251.27v30h-251.27z" fill="#cac7cd"/>
  <g fill="#8d8a94">
   <path d="m256 189.3h125.63v30h-125.63z"/>
   <path d="m330.18 113.1h30v52.301h-30z"/>
   <path d="m330.18 245.62h30v52.301h-30z"/>
  </g>
 </g>
</svg>
