<svg width="900" height="900" version="1.1" viewBox="0 0 238.12 238.12" xmlns="http://www.w3.org/2000/svg">
 <g transform="matrix(.4625 0 0 .4625 .66146 .66146)">
  <circle cx="256" cy="256" r="256" fill="#60c344"/>
  <path d="m512 256c0-33.009-6.251-64.558-17.628-93.531l-66.372-66.371-344 319.8 78.469 78.469c28.973 11.378 60.522 17.629 93.531 17.629 141.38 0 256-114.62 256-256z" fill="#47ab4b"/>
  <rect x="84" y="96.1" width="344" height="319.8" fill="#fff"/>
  <g fill="#e0e0e0">
   <rect x="256.33" y="96.1" width="171.67" height="319.8"/>
   <circle cx="256" cy="256" r="137"/>
  </g>
  <path d="m393 256c0-75.552-61.157-136.82-136.67-137v273.99c75.51-0.181 136.67-61.444 136.67-137z" fill="#c0c0c0"/>
  <rect x="172" y="191.39" width="31" height="74.832" fill="#808080"/>
  <rect x="309" y="191.39" width="31" height="74.832" fill="#666"/>
  <rect x="240.5" y="273.7" width="31" height="70.23" fill="#808080"/>
  <rect x="256.33" y="273.7" width="15.167" height="70.23" fill="#666"/>
 </g>
</svg>
