<svg width="900" height="900" version="1.1" viewBox="0 0 238.12 238.12" xmlns="http://www.w3.org/2000/svg">
 <g transform="matrix(.4625 0 0 .4625 .66146 .66146)">
  <circle cx="256" cy="256" r="256" fill="#ff8870"/>
  <path d="m512 256c0-16.948-1.647-33.512-4.79-49.54l-81.234-81.234-6.927 11.143-24.696-24.696-73.824 143.02-143.02-143.02-102.93 234.23 165.62 165.62c5.228 0.319 10.499 0.48 15.807 0.48 141.38 0 256-114.62 256-256z" fill="#ff583e"/>
  <path d="m228.05 325.13v134.96h27.939l8.113-46.533-7.099-88.431z" fill="#636978"/>
  <path d="m255.99 325.13h27.967v134.96h-27.967z" fill="#414952"/>
  <path d="m86.024 125.23v185.22h170.98l12.969-87.026-13.983-98.197z" fill="#fff"/>
  <path d="m255.99 125.23h169.99v185.22h-169.99z" fill="#e9edf5"/>
  <path d="m73.644 302.26 0.929 43.639h182.43l7.099-21.819-7.099-21.82z" fill="#707789"/>
  <path d="m438.39 302.26h-182.4v43.639h183.33z" fill="#555a66"/>
  <path d="m117.65 111.67h59.859v27.106h-59.859z" fill="#636978"/>
  <path d="m334.49 111.67h59.859v27.106h-59.859z" fill="#414952"/>
  <path d="m230.18 244.33c0 18.939-15.353 34.292-34.292 34.292s-34.292-15.353-34.292-34.292 34.292-63.195 34.292-63.195 34.292 44.257 34.292 63.195z" fill="#ff8870"/>
  <path d="m270.26 244.33c0 18.939-15.353 34.292-34.292 34.292s-34.292-15.353-34.292-34.292 34.292-63.195 34.292-63.195 34.292 44.257 34.292 63.195z" fill="#ffce00"/>
  <path d="m241.74 244.33c0 11.894 6.058 22.372 15.255 28.522l5-28.13-5-36.086c-7.898 12.721-15.255 26.923-15.255 35.694z" fill="#65b1fc"/>
  <path d="m276.04 181.13s-10.628 13.718-20.051 29.147v61.858c5.64 4.073 12.562 6.481 20.051 6.481 18.939 0 34.292-15.353 34.292-34.292s-34.292-63.194-34.292-63.194z" fill="#4a7aff"/>
  <path d="m350.4 244.33c0 18.939-15.353 34.292-34.292 34.292s-34.292-15.353-34.292-34.292 34.292-63.195 34.292-63.195 34.292 44.257 34.292 63.195z" fill="#23272b"/>
 </g>
</svg>
