<svg width="900" height="900" version="1.1" viewBox="0 0 238.12 238.12" xmlns="http://www.w3.org/2000/svg">
 <g transform="matrix(.4625 0 0 .4625 .66146 .66146)">
  <circle cx="256" cy="256" r="256" fill="#9dcfff"/>
  <path d="m496.63 343.56-150.97-150.97-21.415 29.41-140.5-140.5-9.46 17.134 63 216.44-26.769 100.07 92.525 92.525c89.73-16.668 163.02-80.124 193.59-164.11z" fill="#72bbff"/>
  <path d="m379.31 315.06-122.46 33.644-33.645-122.46 49.241-13.528 14.406 5.496 9.576-12.085 49.242-13.528z" fill="#ffd300"/>
  <path d="m298.11 205.66-1.689 0.464-9.576 12.085 7.824 28.478 13.14 47.828 10.266 37.368 61.232-16.822-25.849-94.088-7.795-28.377z" fill="#ffb600"/>
  <path transform="matrix(.964 -.265 .265 .964 -50.071 84.845)" d="m271.52 208.73h35.992v38.649h-35.992z" fill="#fff"/>
  <path transform="matrix(.964 -.265 .265 .964 -72.109 85.002)" d="m265.9 296.66h26.356v26.356h-26.356z" fill="#ffb600"/>
  <path transform="matrix(.964 -.265 .265 .964 -49.128 87.062)" d="m289.23 206.34h17.963v38.649h-17.963z" fill="#e3eaee"/>
  <path d="m239.57 379.02-75.211-273.76 24.107-6.624 68.588 249.66 153.71-42.229 6.623 24.106z" fill="#8b9aa6"/>
  <path d="m114.79 136.26 78.107-21.458-9.148-33.3-78.107 21.458c-19.591 5.065-10.275 38.954 9.148 33.3z" fill="#5a5a5a"/>
  <circle cx="245.4" cy="383.15" r="47.335" fill="#5a5a5a"/>
  <circle cx="245.4" cy="383.15" r="24.012" fill="#8b9aa6"/>
  <path transform="matrix(.964 -.265 .265 .964 -74.512 109.23)" d="m319.58 318.36h96.22v25h-96.22z" fill="#697c84"/>
 </g>
</svg>
