<svg width="900" height="900" version="1.1" viewBox="0 0 238.12 238.12" xmlns="http://www.w3.org/2000/svg">
 <g transform="matrix(.4625 0 0 .4625 .66146 .66146)">
  <circle cx="256" cy="256" r="256" fill="#9dcfff"/>
  <path d="m508.26 212.27-114.63-114.63-137.64 122.48-75.37 0.681 0.38-0.681-78.601-78.601-14.842 9.221-14.842 263.62 72.488 72.488c33.525 16.118 71.101 25.151 110.79 25.151 141.38 0 256-114.62 256-256 0-14.911-1.289-29.519-3.736-43.731z" fill="#72bbff"/>
  <g fill="#5a5a5a">
   <path d="m87.567 203.69h336.87v29.684h-336.87z"/>
   <path d="m87.567 361.95h336.87v29.684h-336.87z"/>
   <path d="m72.725 141.52h29.684v272.84h-29.684z"/>
   <path d="m409.59 141.52h29.684v272.84h-29.684z"/>
  </g>
  <path d="m225.45 376.8h-91.951v-91.952h36.78l9.196 6.091 9.195-6.091h36.78z" fill="#ffd300"/>
  <path d="m170.28 284.84h18.39v33.786h-18.39z" fill="#fff"/>
  <path d="m393.64 376.8h-119.42v-119.42h47.768l11.942 6.493 11.941-6.493h47.768z" fill="#ffd300"/>
  <path d="m321.98 257.38h23.884v43.878h-23.884z" fill="#fff"/>
  <path d="m393.64 217.06h-119.42v-119.42h47.768l11.942 10 11.941-10h47.768z" fill="#ffd300"/>
  <path d="m321.98 97.639h23.884v43.878h-23.884z" fill="#fff"/>
  <g fill="#ffb600">
   <path d="m280.7 342.55h27.784v27.784h-27.784z"/>
   <path d="m280.7 183.11h27.784v27.784h-27.784z"/>
   <path d="m138.09 352.34h19.837v19.837h-19.837z"/>
   <path d="m225.45 284.84h-36.78v33.786h-9.195v58.166h45.975z"/>
  </g>
  <path d="m179.47 284.84h9.195v33.786h-9.195z" fill="#e3eaee"/>
  <path d="m409.59 141.52v62.172h-15.956v13.368h-119.42v-13.368h-18.216v29.684h153.59v128.58h-15.956v14.843h-119.42v-14.843h-18.216v29.684h153.59v22.724h29.684v-272.84z" fill="#32393f"/>
  <g fill="#ffb600">
   <path d="m280.7 361.95v8.38h27.784v-27.784h-27.784z"/>
   <path d="m280.7 183.11v27.784h27.784v-27.784z"/>
   <path d="m333.93 301.26v75.541h59.709v-119.42h-47.768v43.878z"/>
  </g>
  <path d="m333.93 257.38h11.942v43.878h-11.942z" fill="#e3eaee"/>
  <path d="m321.98 257.38h11.942v43.878h-11.942z" fill="#fff"/>
  <path d="m345.87 97.639v43.879h-11.941v75.54h59.709v-119.42z" fill="#ffb600"/>
  <path d="m321.98 97.639h11.942v43.878h-11.942z" fill="#fff"/>
  <path d="m333.93 97.639h11.942v43.878h-11.942z" fill="#e3eaee"/>
 </g>
</svg>
