<svg width="900" height="900" version="1.1" viewBox="0 0 238.12 238.12" xmlns="http://www.w3.org/2000/svg">
 <g transform="matrix(.4625 0 0 .4625 .66146 .66146)">
  <circle cx="256" cy="256" r="256" fill="#ff641a"/>
  <path d="m512 256c0-4.172-0.108-8.318-0.305-12.441l-96.846-96.846-301.01 260.98 101 101c13.403 2.167 27.149 3.311 41.164 3.311 141.38 0 256-114.62 256-256z" fill="#ef3800"/>
  <path d="m398.16 407.69h-35.06l-107.1-10-107.1 10h-35.06v-254.33l142.16-66.961 142.16 66.961z" fill="#fff"/>
  <path d="m256 194.28v203.41l107.1 10h35.06v-241.17l-142.16-66.323z" fill="#e3eaee"/>
  <path d="m148.9 184.28h214.21v223.41h-214.21z" fill="#8b9aa6"/>
  <path d="m229.44 134.08h53.112v23.04h-53.112z" fill="#9dcfff"/>
  <path d="m404.28 169.37-148.28-69.176-148.28 69.176-10.57-22.656 158.85-74.107 158.85 74.107z" fill="#5a5a5a"/>
  <path d="m256 134.08h26.556v23.04h-26.556z" fill="#72bbff"/>
  <rect x="333.61" y="407.69" width="15" height="0" fill="#5a5a5a"/>
  <path d="m256 184.28h107.1v223.41h-107.1z" fill="#697c84"/>
  <path d="m256 72.606v27.587l142.16 66.323 6.115 2.853 10.57-22.656z" fill="#32393f"/>
  <path d="m148.9 183.98h112.2v15h-112.2z" fill="#697c84"/>
  <path d="m256 183.98h107.1v15h-107.1z" fill="#5a5a5a"/>
  <path d="m148.9 225.98h112.2v15h-112.2z" fill="#697c84"/>
  <path d="m256 225.98h107.1v15h-107.1z" fill="#5a5a5a"/>
  <path d="m148.9 267.98h112.2v15h-112.2z" fill="#697c84"/>
  <path d="m256 267.98h107.1v15h-107.1z" fill="#5a5a5a"/>
  <path d="m148.9 309.98h112.2v15h-112.2z" fill="#697c84"/>
  <path d="m256 309.98h107.1v15h-107.1z" fill="#5a5a5a"/>
  <path d="m148.9 351.98h112.2v15h-112.2z" fill="#697c84"/>
  <path d="m256 351.98h107.1v15h-107.1z" fill="#5a5a5a"/>
  <path d="m148.9 387.34h112.2v20.353h-112.2z" fill="#697c84"/>
  <path d="m256 387.34h107.1v20.353h-107.1z" fill="#5a5a5a"/>
 </g>
</svg>
