<svg width="900" height="900" version="1.1" viewBox="0 0 238.12 238.12" xmlns="http://www.w3.org/2000/svg">
 <g transform="matrix(.4625 0 0 .4625 .66133 .66133)">
  <circle cx="256" cy="256" r="256" fill="#adcfff"/>
  <path d="m287.54 187.6-18.234-18.234-21.729 58.198-24.265 24.265-159.95 47.1 46.63 46.63 16.702 94.109 63.884 63.884c20.884 5.504 42.807 8.45 65.42 8.45 141.38 0 256-114.62 256-256 0-32.137-5.939-62.883-16.751-91.223l-92.444-92.444z" fill="#8bbbff"/>
  <path d="m132.17 228.56c0-19-15.403-34.403-34.403-34.403s-34.403 15.403-34.403 34.403v70.369h68.805v-70.369z" fill="#e7b964"/>
  <path d="m292.68 185.37 119.12-76.245 14.168-10.431c-10.182-14.951-27.338-24.79-46.751-24.79-17.333 0-33.37 7.734-44.168 21.262l-65.655 68.274z" fill="#cb9e56"/>
  <path d="m141.55 251.23v102.43l33.797 79.018 13.116 3.677 6.319-10.341-18.184-70.775s52.523-9.788 58.778-64.911z" fill="#896645"/>
  <g fill="#73553a">
   <path d="m346.24 266.87 34.946 54.665-10.236 62.832-7.334 9.716-9.11-2.211-1.061-60.497-35.967-30.884z"/>
   <path d="m401.45 94.972c-3.458 5.814-10.265 8.147-15.204 5.21s-6.139-10.032-2.681-15.846 19.243-12.002 19.243-12.002 2.1 16.824-1.358 22.638z"/>
   <path d="m294.14 432.41 8.847 3.948 8.847-10.825 15.026-141.46h-48.477z"/>
  </g>
  <path d="m89.948 239.7v113.96l33.762 79.018 12.11 1.748 7.325-8.412-18.149-70.775s52.523-9.788 58.778-64.911z" fill="#896645"/>
  <path d="m423.1 183.04-57.389-36.089 46.086-37.827 34.513 52.142c4.041 6.105 2.696 14.292-3.085 18.784l-2.739 2.128c-5.037 3.913-11.986 4.258-17.386 0.862z" fill="#73553a"/>
  <path d="m379.21 91.494c-12.579 0-23.757 5.971-30.875 15.226l-78.58 80.374 85.134 73.983 19.89-91.972c1.455 0.165 2.932 0.258 4.431 0.258 21.503 0 38.935-17.432 38.935-38.935-1e-3 -21.502-17.432-38.934-38.935-38.934z" fill="#73553a"/>
  <path d="m235.13 193.04-23.348 5.216-47.722-11.161h-21.51c-29.052 0-52.603 23.551-52.603 52.603s23.551 52.603 52.603 52.603h92.58l17.18-45.761z" fill="#896645"/>
  <path d="m261.74 187.1-26.611 5.945v99.261h78.266c23.844 0 43.173-19.329 43.173-43.173v-27.644l-74.018-34.389z" fill="#73553a"/>
  <circle cx="379.21" cy="130.43" r="38.935" fill="#73553a"/>
  <path d="m348.34 106.72-78.579 80.374 76.023 76.023 32.21-103.33z" fill="#73553a"/>
  <circle cx="401.04" cy="133.24" r="6.136" fill="#464141"/>
  <path d="m202.54 259.26h20.715v53.331h-20.715z" fill="#5a5555"/>
  <path d="m205.05 192.25-31.556-5.158h-9.431v87.927h71.07l10.905-43.963z" fill="#ff4c04"/>
  <path d="m252.31 220.12h16.993v-50.757h-1.109c-8.773 0-15.885 7.112-15.885 15.885v34.872z" fill="#cf3b00"/>
  <path d="m235.13 275.02h34.174v-87.927h-9.43l-24.744 17.092z" fill="#cf3b00"/>
  <path d="m235.13 187.1h-61.639v68.905h61.639l7.265-34.452z" fill="#5a5555"/>
  <path d="m235.13 187.1h17.18v68.905h-17.18z" fill="#464141"/>
  <path d="m123.71 432.68 19.435-6.664 3.501 13.653h-19.95z" fill="#5a5555"/>
  <path d="m175.35 432.68 19.435-6.664 3.501 13.653h-19.95z" fill="#5a5555"/>
  <path d="m294.14 432.41 17.694-6.877-1.502 14.137h-15.421z" fill="#464141"/>
  <path d="m354.5 391.87 16.444-7.505-2.258 13.859h-14.074z" fill="#464141"/>
 </g>
</svg>
