<svg width="900" height="900" version="1.1" viewBox="0 0 238.12 238.12" xmlns="http://www.w3.org/2000/svg">
 <g transform="matrix(.4625 0 0 .4625 .66146 .66146)">
  <circle cx="256" cy="256" r="256" fill="#2fa69a"/>
  <path d="m512 256c0-6.418-0.243-12.779-0.707-19.078l-73.103-73.102-63.016 75.996-80.816-80.816-11.429 66.027-51.518-51.518-146.39 204.34 131.04 131.04c13.014 2.039 26.349 3.107 39.935 3.107 141.38 0 256-114.62 256-256z" fill="#12887a"/>
  <polygon points="300.41 295.52 393.18 202.74 409.64 219.19 316.87 311.98" fill="#fcd748"/>
  <rect x="267.88" y="159" width="26.482" height="87.07" fill="#f0f0f0"/>
  <polygon points="96.079 320.57 231.41 305.91 231.41 303.96 344.13 303.96 318.24 224.82 246.07 224.82 231.41 173.51 96.079 173.51 96.079 303.96" fill="#fcd748"/>
  <polygon points="246.04 224.82 246.04 303.96 344.13 303.96 318.24 224.82" fill="#fabf40"/>
  <path d="m322.94 384.26h-191.53c-23.194 0-41.997-18.803-41.997-41.997s18.803-41.997 41.997-41.997h191.53c23.194 0 41.997 18.803 41.997 41.997s-18.803 41.997-41.997 41.997z" fill="#e0e0e0"/>
  <path d="m322.94 300.26h-76.858v83.994h76.858c23.194 0 41.997-18.803 41.997-41.997 0-23.195-18.803-41.997-41.997-41.997z" fill="#969696"/>
  <path d="m322.94 400.76h-191.53c-32.255 0-58.496-26.242-58.496-58.497s26.241-58.497 58.496-58.497h191.53c32.255 0 58.496 26.241 58.496 58.497s-26.241 58.497-58.496 58.497zm-191.53-83.994c-14.059 0-25.496 11.438-25.496 25.497s11.438 25.497 25.496 25.497h191.53c14.059 0 25.496-11.438 25.496-25.497s-11.437-25.497-25.496-25.497z" fill="#595959"/>
  <path d="m322.94 283.76h-76.858v33h76.858c14.059 0 25.496 11.438 25.496 25.497s-11.437 25.497-25.496 25.497h-76.9v33h76.9c32.255 0 58.496-26.242 58.496-58.497s-26.241-58.497-58.496-58.497z" fill="#303030"/>
  <polygon points="215.62 188.17 113.67 188.17 113.67 233.85 172.17 233.85 184.12 273.66 240.53 273.66" fill="#2789e1"/>
  <path d="m473.5 238.75h-87.852c-20.691 0-37.464-16.773-37.464-37.464v-37.464h90.006z" fill="#fabf40"/>
 </g>
</svg>
