<svg width="900" height="900" version="1.1" viewBox="0 0 238.12 238.12" xmlns="http://www.w3.org/2000/svg">
 <g transform="matrix(.4625 0 0 .4625 .66146 .66146)">
  <g id="XMLID_258_">
   <g id="XMLID_1144_">
    <g id="XMLID_1252_">
     <g id="XMLID_1321_">
      <g id="XMLID_1464_">
       <g id="XMLID_1465_">
        <g id="XMLID_1466_">
         <g id="XMLID_1535_">
          <g id="XMLID_1536_">
           <g id="XMLID_1537_">
            <g id="XMLID_1538_">
             <g id="XMLID_1539_">
              <g id="XMLID_1540_">
               <g id="XMLID_1541_">
                <g id="XMLID_1542_">
                 <circle cx="256" cy="256" r="256" fill="#3d5d72"/>
                </g>
               </g>
              </g>
             </g>
            </g>
           </g>
          </g>
         </g>
        </g>
       </g>
      </g>
     </g>
    </g>
   </g>
  </g>
  <path d="m100.28 358.21-3.368-29.964 50.128-31.545-76.726-76.199 4.968-11.418-16.72-16.564 19.53-19.62-7.922-7.923 15.209-14.815 4.892 4.892c1.182 1.182 4.388 0.727 4.405 0.72 1.541-0.638 19.038-16.319 19.038-16.319l12.624 14.031c1.05 0.362 10.081-7.667 14.227-3.522l82.137 82.325 0.542-3.976 44.416 46.018 63.086-38.085-100.92-100.3c-4.285-4.128 2.506-7.662 6.714-11.869l-17.977-15.637 21.313-17.824-10.195-10.195 15.209-14.815 6.31 6.31s4.692 1.908 6.235 1.265l15.35-18.807 14.265 14.401s8.88-7.511 13.026-3.365l104.44 104.5 56.391-1.167 48.122 48.122c1.957 12.757 2.973 25.822 2.973 39.125 0 141.38-114.62 256-256 256-0.151 0-0.301-5e-3 -0.452-6e-3z" fill="#324a5e"/>
  <path d="m346.48 171.12 22.286 33.606-113.17 66.291-32.349-42.701-146.81 91.735 23.846 38.162 111.93-69.94 31.643 41.771 149.82-87.757 20.524 30.949 46.701-104.48z" fill="#ff637b"/>
  <path d="m407.22 364.77h-3.243c-1.667 0-3.169-1.005-3.807-2.545-7e-3 -0.017-0.014-0.034-0.021-0.051-0.642-1.543-0.293-3.319 0.889-4.501l2.473-2.473c4.146-4.146 4.146-10.867 0-15.012-4.146-4.146-10.867-4.146-15.012 0l-2.473 2.473c-1.182 1.182-2.958 1.531-4.501 0.889-0.017-7e-3 -0.034-0.014-0.051-0.021-1.54-0.638-2.545-2.14-2.545-3.807v-3.498c0-5.863-4.753-10.615-10.615-10.615-5.863 0-10.615 4.753-10.615 10.615v3.498c0 1.667-1.004 3.169-2.545 3.807-0.017 7e-3 -0.034 0.014-0.051 0.021-1.543 0.642-3.319 0.293-4.501-0.889l-2.276-2.277c-4.207-4.207-11.223-4.337-15.351-0.052-4.003 4.156-3.956 10.77 0.142 14.867l2.473 2.473c1.182 1.182 1.531 2.958 0.889 4.501-7e-3 0.017-0.014 0.034-0.021 0.051-0.638 1.54-2.14 2.545-3.807 2.545h-3.243c-5.756 0-10.658 4.476-10.863 10.228-0.217 6.04 4.615 11.003 10.606 11.003h3.498c1.667 0 3.169 1.005 3.807 2.545 7e-3 0.017 0.014 0.034 0.021 0.051 0.642 1.543 0.293 3.32-0.889 4.501l-2.277 2.277c-4.207 4.207-4.337 11.223-0.052 15.351 4.156 4.003 10.77 3.955 14.867-0.142l2.473-2.473c1.182-1.182 2.958-1.531 4.501-0.889l0.051 0.021c1.54 0.638 2.545 2.14 2.545 3.807v3.498c0 5.863 4.752 10.615 10.615 10.615 5.862 0 10.615-4.753 10.615-10.615v-3.498c0-1.667 1.004-3.169 2.545-3.807l0.051-0.021c1.543-0.642 3.319-0.293 4.501 0.889l2.473 2.473c4.146 4.146 10.867 4.146 15.012 0 4.146-4.146 4.146-10.867 0-15.012l-2.473-2.473c-1.182-1.182-1.531-2.958-0.889-4.501 7e-3 -0.017 0.014-0.034 0.021-0.051 0.638-1.54 2.14-2.545 3.807-2.545h3.498c5.991 0 10.823-4.963 10.608-11.002-0.201-5.753-5.104-10.229-10.86-10.229z" fill="#be7bef"/>
  <path d="m418.08 375c0.215 6.041-4.621 11.005-10.609 11.005h-3.498c-1.67 0-3.171 1.001-3.806 2.543-0.012 0.017-0.018 0.035-0.023 0.052-0.64 1.542-0.291 3.317 0.89 4.498l2.473 2.473c2.072 2.072 3.108 4.789 3.108 7.507 0 2.712-1.036 5.435-3.108 7.507-4.149 4.144-10.871 4.144-15.014 0l-2.473-2.473c-1.181-1.181-2.956-1.531-4.498-0.89-0.018 6e-3 -0.035 0.012-0.052 0.023-1.542 0.634-2.543 2.136-2.543 3.806v3.497c0 2.927-1.187 5.581-3.108 7.507-1.926 1.92-4.58 3.108-7.507 3.108v-99.554c5.86 0 10.615 4.755 10.615 10.615v3.497c0 1.67 1.001 3.172 2.543 3.806 0.017 0.012 0.035 0.017 0.052 0.023 1.542 0.64 3.317 0.291 4.498-0.89l2.473-2.473c2.072-2.072 4.789-3.108 7.507-3.108s5.43 1.036 7.507 3.108c4.143 4.149 4.143 10.871 0 15.014l-2.473 2.473c-1.181 1.181-1.531 2.956-0.89 4.499 6e-3 0.017 0.012 0.035 0.023 0.052 0.634 1.542 2.136 2.543 3.806 2.543h3.242c5.756 2e-3 10.661 4.483 10.865 10.232z" fill="#a158d8"/>
  <path d="m303.79 89.998h-3.243c-1.667 0-3.169-1.004-3.807-2.545-7e-3 -0.017-0.014-0.034-0.021-0.051-0.642-1.543-0.293-3.319 0.889-4.501l2.473-2.473c4.146-4.146 4.146-10.867 0-15.012s-10.867-4.145-15.012 0l-2.473 2.473c-1.182 1.182-2.958 1.531-4.501 0.889-0.017-7e-3 -0.034-0.014-0.051-0.021-1.54-0.638-2.545-2.14-2.545-3.807v-3.498c0-5.863-4.753-10.615-10.615-10.615-5.863 0-10.615 4.752-10.615 10.615v3.498c0 1.667-1.005 3.169-2.545 3.807-0.017 7e-3 -0.034 0.014-0.051 0.021-1.543 0.642-3.32 0.293-4.501-0.889l-2.276-2.277c-4.207-4.207-11.223-4.337-15.351-0.052-4.003 4.156-3.956 10.77 0.142 14.867l2.473 2.473c1.182 1.182 1.531 2.958 0.889 4.501-7e-3 0.017-0.014 0.034-0.021 0.051-0.638 1.54-2.14 2.545-3.807 2.545h-3.243c-5.756 0-10.658 4.476-10.863 10.228-0.215 6.039 4.617 11.002 10.608 11.002h3.498c1.667 0 3.169 1.004 3.807 2.545 7e-3 0.017 0.014 0.034 0.021 0.051 0.642 1.543 0.293 3.319-0.889 4.501l-2.277 2.277c-4.207 4.207-4.337 11.223-0.052 15.351 4.156 4.003 10.77 3.955 14.867-0.142l2.473-2.473c1.182-1.182 2.958-1.531 4.501-0.889l0.051 0.021c1.54 0.638 2.545 2.14 2.545 3.807v3.498c0 5.863 4.752 10.615 10.615 10.615s10.615-4.753 10.615-10.615v-3.498c0-1.667 1.004-3.169 2.545-3.807 0.017-7e-3 0.034-0.014 0.051-0.021 1.543-0.642 3.319-0.293 4.501 0.889l2.473 2.473c4.145 4.145 10.867 4.145 15.012 0 4.146-4.145 4.146-10.867 0-15.012l-2.473-2.473c-1.182-1.182-1.531-2.958-0.889-4.502 7e-3 -0.017 0.014-0.034 0.021-0.051 0.638-1.54 2.14-2.545 3.807-2.545h3.498c5.991 0 10.823-4.963 10.608-11.002-0.204-5.751-5.106-10.227-10.862-10.227z" fill="#00efd1"/>
  <path d="m314.65 100.23c0.215 6.041-4.621 11.005-10.609 11.005h-3.497c-1.67 0-3.172 1.001-3.806 2.543-0.012 0.017-0.018 0.035-0.023 0.052-0.64 1.542-0.291 3.317 0.89 4.498l2.473 2.473c2.072 2.072 3.108 4.789 3.108 7.507 0 2.712-1.036 5.435-3.108 7.507-4.149 4.143-10.871 4.143-15.014 0l-2.473-2.473c-1.181-1.181-2.956-1.531-4.498-0.89-0.018 6e-3 -0.035 0.012-0.052 0.023-1.542 0.634-2.543 2.136-2.543 3.806v3.497c0 2.927-1.187 5.581-3.108 7.507-1.926 1.921-4.58 3.108-7.507 3.108v-99.553c5.86 0 10.615 4.754 10.615 10.615v3.498c0 1.67 1.001 3.172 2.543 3.806 0.017 0.012 0.035 0.017 0.052 0.023 1.542 0.64 3.317 0.291 4.498-0.89l2.473-2.473c2.072-2.072 4.789-3.108 7.507-3.108s5.429 1.036 7.507 3.108c4.144 4.149 4.144 10.871 0 15.014l-2.473 2.473c-1.181 1.181-1.53 2.956-0.89 4.498 6e-3 0.017 0.012 0.035 0.023 0.052 0.634 1.542 2.136 2.543 3.806 2.543h3.241c5.755 0 10.661 4.481 10.865 10.231z" fill="#00ceb4"/>
  <path d="m144.28 174.55h-3.243c-1.667 0-3.169-1.005-3.807-2.545-7e-3 -0.017-0.014-0.034-0.021-0.051-0.642-1.543-0.293-3.319 0.889-4.501l2.473-2.473c4.145-4.146 4.145-10.867 0-15.012-4.146-4.146-10.867-4.146-15.012 0l-2.473 2.473c-1.182 1.182-2.958 1.531-4.501 0.889-0.017-7e-3 -0.034-0.014-0.051-0.021-1.54-0.638-2.545-2.14-2.545-3.807v-3.498c0-5.863-4.753-10.615-10.615-10.615-5.863 0-10.615 4.753-10.615 10.615v3.498c0 1.667-1.005 3.169-2.545 3.807-0.017 7e-3 -0.034 0.014-0.051 0.021-1.543 0.642-3.319 0.293-4.501-0.889l-2.277-2.277c-4.207-4.207-11.223-4.337-15.351-0.052-4.003 4.156-3.956 10.77 0.142 14.867l2.473 2.473c1.182 1.182 1.531 2.958 0.889 4.501-7e-3 0.017-0.014 0.034-0.021 0.051-0.638 1.54-2.14 2.545-3.807 2.545h-3.243c-5.756 0-10.658 4.476-10.863 10.228-0.215 6.039 4.617 11.002 10.608 11.002h3.498c1.667 0 3.169 1.005 3.807 2.545 7e-3 0.017 0.014 0.034 0.021 0.051 0.642 1.543 0.293 3.319-0.889 4.501l-2.277 2.277c-4.207 4.207-4.337 11.223-0.052 15.351 4.156 4.003 10.77 3.955 14.867-0.142l2.473-2.473c1.182-1.182 2.958-1.531 4.501-0.889 0.017 7e-3 0.034 0.014 0.051 0.021 1.54 0.638 2.545 2.14 2.545 3.807v3.498c0 5.863 4.752 10.615 10.615 10.615s10.615-4.753 10.615-10.615v-3.498c0-1.667 1.004-3.169 2.545-3.807l0.051-0.021c1.543-0.643 3.32-0.293 4.501 0.889l2.473 2.473c4.145 4.146 10.867 4.146 15.012 0 4.145-4.145 4.145-10.867 0-15.012l-2.473-2.473c-1.182-1.182-1.531-2.958-0.889-4.501 7e-3 -0.017 0.014-0.034 0.021-0.051 0.638-1.54 2.14-2.545 3.807-2.545h3.498c5.991 0 10.823-4.963 10.608-11.002-0.203-5.752-5.105-10.228-10.861-10.228z" fill="#ffe670"/>
  <path d="m155.14 184.78c0.215 6.041-4.621 11.005-10.609 11.005h-3.497c-1.67 0-3.172 1.001-3.806 2.543-0.012 0.017-0.018 0.035-0.023 0.052-0.64 1.542-0.291 3.317 0.89 4.498l2.473 2.473c2.072 2.072 3.108 4.789 3.108 7.507 0 2.712-1.036 5.435-3.108 7.507-4.149 4.143-10.871 4.143-15.014 0l-2.473-2.473c-1.181-1.181-2.956-1.531-4.498-0.89-0.018 6e-3 -0.035 0.012-0.052 0.023-1.542 0.634-2.543 2.136-2.543 3.806v3.497c0 2.927-1.187 5.581-3.108 7.507-1.926 1.92-4.58 3.108-7.507 3.108v-99.553c5.86 0 10.615 4.755 10.615 10.615v3.498c0 1.67 1.001 3.172 2.543 3.806 0.018 0.012 0.035 0.017 0.052 0.023 1.542 0.64 3.317 0.291 4.498-0.89l2.473-2.473c2.072-2.072 4.789-3.108 7.507-3.108s5.43 1.036 7.507 3.108c4.144 4.149 4.144 10.871 0 15.014l-2.473 2.473c-1.181 1.181-1.53 2.956-0.89 4.499 6e-3 0.017 0.012 0.035 0.023 0.052 0.634 1.542 2.136 2.543 3.806 2.543h3.241c5.756-1e-3 10.662 4.48 10.865 10.23z" fill="#fdbb2c"/>
  <path d="m460.91 168.75-46.71 104.49-20.52-30.95-128.8 75.44v-52.15l103.89-60.85-22.29-33.61z" fill="#f94367"/>
 </g>
</svg>
