<svg width="900" height="900" version="1.1" viewBox="0 0 238.12 238.12" xmlns="http://www.w3.org/2000/svg">
 <g transform="matrix(.4625 0 0 .4625 .66146 .66146)">
  <circle cx="256" cy="256" r="256" fill="#7883ee"/>
  <path d="m399.04 112.96-23.45-23.45-10.474 10.474-31.153-31.153-13.848 13.848-20.184-20.184-3.656 3.656-11.903-11.903-56.302 56.302 99.587 99.587-193.47 193.47 7.521 39.098 64.422 64.422c16.134 3.186 32.805 4.871 49.872 4.871 141.38 0 256-114.62 256-256 0-17.066-1.685-33.737-4.871-49.869l-100.63-100.63z" fill="#4652ca"/>
  <path d="m333.96 68.833c-26.168 1.842-53.535 19.881-68.349 44.89-16.053 27.102-17.998 63.462-4.57 70.396l39.366-48.965z" fill="#e25a91"/>
  <path d="m333.96 68.833c11.526 21.307 8.217 51.768-8.111 75.995-17.695 26.254-51.379 46.225-64.807 39.291z" fill="#c63878"/>
  <path d="m290.06 138.24c4.041-8.063 10.768-23.37 12.808-41.658 1.812-16.241-0.864-27.753-2.939-34.088-26.765 5.752-53.346 27.159-67.152 54.066-17.713 34.521-11.857 73.143 16.451 86.236l25.149-28.329z" fill="#f97db0"/>
  <path d="m290.06 138.24c5.638-7.238 16.819-20.246 33.221-31.116 14.568-9.655 26.903-13.415 33.997-15.015 8.101 23.756 1.181 55.315-17.468 79.721-23.927 31.312-63.728 46.358-90.582 30.967z" fill="#e25a91"/>
  <path d="m443.17 178.04c-21.307-11.526-51.768-8.217-75.995 8.111-26.254 17.695-46.225 51.379-39.291 64.807l55.501-26.708z" fill="#f97db0"/>
  <path d="m443.17 178.04c-1.842 26.168-19.881 53.535-44.89 68.349-27.102 16.053-63.462 17.998-70.396 4.57z" fill="#e25a91"/>
  <path d="m373.76 221.94c7.238-5.638 20.246-16.819 31.116-33.221 9.655-14.568 13.415-26.903 15.015-33.997-23.756-8.101-55.315-1.181-79.721 17.468-31.312 23.927-46.358 63.728-30.967 90.582l33.959-14.247z" fill="#e25a91"/>
  <path d="m373.76 221.94c8.063-4.041 23.37-10.768 41.658-12.808 16.241-1.812 27.753 0.864 34.088 2.939-5.752 26.765-27.159 53.346-54.066 67.152-34.521 17.713-73.143 11.857-86.236-16.451z" fill="#c63878"/>
  <path d="m406.5 105.5c-25.607-5.223-56.8 6.291-77.858 28.588-22.82 24.163-34.642 61.945-23.658 72.928l51.171-40.818z" fill="#e25a91"/>
  <path d="m406.5 105.5c5.223 25.607-6.291 56.8-28.588 77.858-24.163 22.821-61.945 34.642-72.928 23.658z" fill="#c63878"/>
  <path d="m345.38 166.62c6.084-7.39 16.729-21.678 23.693-40.389 6.185-16.618 6.77-29.482 6.514-36.725-27.251-1.267-58.611 14.012-79.223 38.585-26.444 31.526-31.401 73.828-7.83 95.375l31.883-22.966z" fill="#f97db0"/>
  <path d="m345.38 166.62c7.39-6.084 21.678-16.729 40.389-23.693 16.618-6.185 29.482-6.77 36.725-6.514 1.267 27.251-14.012 58.611-38.585 79.223-31.526 26.444-73.828 31.401-95.375 7.83z" fill="#e25a91"/>
  <path d="m162 309.78-92.699 60.516 36.204 36.203 47.084-29.522 29.523-47.085z" fill="#fff"/>
  <path d="m202.22 350-20.112-20.112-76.607 76.607 36.203 36.204z" fill="#e9edf5"/>
  <path d="m284.37 54.25c-104.16 64.867-151.96 189.53-113.08 286.47l69.908-52.346 50.432-67.994c20.176-55.8 19.357-115.76-7.255-166.13z" fill="#fff"/>
  <path d="m457.75 227.63c-50.365-26.613-110.33-27.431-166.12-7.256l-120.34 120.34c96.932 38.878 221.6-8.924 286.46-113.08z" fill="#cdd2e1"/>
  <path d="m291.62 220.38-120.34 120.34c2.315 5.772 4.92 11.45 7.856 17.007 54.145-33.72 93.052-83.603 112.48-137.35z" fill="#e9edf5"/>
  <path d="m159.5 288.13c-4.443-4.443-12.332-3.758-17.621 1.531s-5.974 13.178-1.531 17.621l32.181 32.181 14.828-4.322 4.324-14.83z" fill="#f97db0"/>
  <path d="m222.34 370.12c5.289-5.289 5.974-13.178 1.531-17.621l-32.181-32.181-19.152 19.152 32.181 32.181c4.443 4.443 12.332 3.758 17.621-1.531z" fill="#e25a91"/>
 </g>
</svg>
