<svg width="900" height="900" version="1.1" viewBox="0 0 238.12 238.12" xmlns="http://www.w3.org/2000/svg">
 <g transform="matrix(.4625 0 0 .4625 .66146 .66146)">
  <circle cx="256" cy="256" r="256" fill="#ffedb5"/>
  <path d="m238.22 184.63-56.332-56.954-12.322 24.436-5.417 12.948-13.445 37.928-3.881 3.92-38.84 18.699 115.23 114.95-36.133 25.372 63.419 62.914-1.719 1.564 73.035 73.035c108.93-28.9 189.34-127.8 190.16-245.63l-107.96-107.96-7.271 1.526-23.157-23.783-13.802 15.672-12.264-2.927-33.285-33.285-5.044 4.784-28.77-29.577-19.795 19.334z" fill="#fee187"/>
  <g fill="#6caf5f">
   <path d="m255.99 408.18c-4.82 0-8.944-3.658-9.425-8.556-12.286-125.3-72.347-171.87-72.951-172.33-4.172-3.141-5.034-9.076-1.907-13.259 3.125-4.182 9.03-5.067 13.226-1.955 2.743 2.032 67.331 51.317 80.505 185.69 0.512 5.211-3.3 9.852-8.511 10.362-0.313 0.032-0.627 0.046-0.937 0.046z"/>
   <path d="m256.01 408.18c-0.31 0-0.622-0.016-0.938-0.045-5.21-0.51-9.021-5.149-8.511-10.362 13.176-134.37 77.762-183.66 80.505-185.69 4.203-3.117 10.143-2.236 13.262 1.974 3.112 4.199 2.239 10.118-1.945 13.241-0.605 0.457-60.664 47.025-72.951 172.33-0.478 4.894-4.602 8.554-9.422 8.554z"/>
  </g>
  <path d="m256 433.75c-5.236 0-9.481-4.246-9.481-9.482v-230.14c0-5.236 4.246-9.481 9.481-9.481 5.236 0 9.481 4.246 9.481 9.481v230.14c0 5.237-4.245 9.481-9.481 9.481z" fill="#477f3c"/>
  <path d="m256.29 184.66v249.08c5.101-0.153 9.194-4.329 9.194-9.468v-230.14c-1e-3 -5.138-4.093-9.313-9.194-9.466z" fill="#2e5e24"/>
  <path d="m179.29 347.55c0-14.122 11.448-51.143 25.571-51.143s51.143 37.019 51.143 51.143c0 14.122-37.019 25.571-51.143 25.571s-25.571-11.449-25.571-25.571z" fill="#ff314f"/>
  <path d="m332.71 347.55c0-14.122-11.448-51.143-25.571-51.143-14.122 0-51.143 37.019-51.143 51.143 0 14.122 37.019 25.571 51.143 25.571 14.122 0 25.571-11.449 25.571-25.571z" fill="#a30f44"/>
  <path d="m95.677 187.73c0-6.206 14.438-10.054 16.255-15.655 1.884-5.804-7.466-17.391-3.951-22.223 3.551-4.88 17.484 0.453 22.364-3.098 4.832-3.517 4.044-18.432 9.849-20.316 5.601-1.819 13.707 10.652 19.915 10.652 6.206 0 14.314-12.471 19.915-10.652 5.804 1.884 5.017 16.801 9.849 20.318 4.88 3.551 18.813-1.783 22.364 3.098 3.517 4.832-5.835 16.418-3.951 22.223 1.819 5.601 16.255 9.449 16.255 15.655s-14.438 10.054-16.255 15.655c-1.884 5.804 7.466 17.391 3.951 22.223-3.551 4.88-17.484-0.453-22.364 3.098-4.832 3.517-4.044 18.432-9.849 20.316-5.601 1.819-13.707-10.652-19.915-10.652-6.206 0-14.314 12.471-19.915 10.652-5.804-1.884-5.017-16.801-9.849-20.318-4.88-3.551-18.813 1.783-22.364-3.098-3.517-4.832 5.835-16.418 3.951-22.223-1.818-5.601-16.255-9.449-16.255-15.655z" fill="#ffc61b"/>
  <path d="m224.54 187.73c0-6.208-14.438-10.056-16.255-15.655-1.884-5.804 7.468-17.391 3.951-22.223-3.551-4.88-17.484 0.453-22.364-3.098-4.83-3.517-4.044-18.432-9.849-20.318-5.601-1.819-13.707 10.652-19.915 10.652s-14.314-12.471-19.915-10.652c-5.804 1.884-5.017 16.801-9.849 20.316-7e-3 5e-3 -0.016 7e-3 -0.022 0.012l60.145 81.605c5.317-2.815 18.344 1.936 21.764-2.763 3.517-4.83-5.835-16.418-3.951-22.223 1.822-5.599 16.26-9.447 16.26-15.653z" fill="#eaa22f"/>
  <circle cx="160.1" cy="187.73" r="19.178" fill="#d35933"/>
  <path d="m179.29 187.73c0-10.592-8.587-19.178-19.178-19.178-4.143 0-7.968 1.327-11.104 3.56l22.733 30.844c4.581-3.507 7.549-9.013 7.549-15.226z" fill="#b54324"/>
  <path d="m287.46 187.73c0-6.206 14.438-10.054 16.255-15.655 1.884-5.804-7.466-17.391-3.951-22.223 3.551-4.88 17.484 0.453 22.364-3.098 4.832-3.517 4.044-18.432 9.849-20.316 5.601-1.819 13.707 10.652 19.915 10.652 6.206 0 14.314-12.471 19.915-10.652 5.804 1.884 5.017 16.801 9.849 20.318 4.88 3.551 18.813-1.783 22.364 3.098 3.517 4.832-5.835 16.418-3.951 22.223 1.819 5.601 16.255 9.449 16.255 15.655s-14.438 10.054-16.255 15.655c-1.884 5.804 7.466 17.391 3.951 22.223-3.551 4.88-17.484-0.453-22.364 3.098-4.832 3.517-4.044 18.432-9.849 20.316-5.601 1.819-13.707-10.652-19.915-10.652-6.206 0-14.314 12.471-19.915 10.652-5.804-1.884-5.017-16.801-9.849-20.318-4.88-3.551-18.813 1.783-22.364-3.098-3.517-4.832 5.835-16.418 3.951-22.223-1.817-5.601-16.255-9.449-16.255-15.655z" fill="#ff314f"/>
  <path d="m416.32 187.73c0-6.208-14.438-10.056-16.255-15.655-1.884-5.804 7.468-17.391 3.951-22.223-3.524-4.842-17.263 0.362-22.242-3.029l-60.161 81.598c0.171 0.095 0.359 0.174 0.512 0.286 4.83 3.517 4.044 18.432 9.849 20.318 5.601 1.819 13.707-10.652 19.915-10.652s14.314 12.471 19.915 10.652c5.804-1.884 5.017-16.801 9.849-20.316 4.88-3.551 18.813 1.783 22.364-3.098 3.517-4.83-5.835-16.418-3.951-22.223 1.816-5.604 16.254-9.452 16.254-15.658z" fill="#a30f44"/>
  <circle cx="351.88" cy="187.73" r="19.178" fill="#ffad9e"/>
  <path d="m363.08 172.18-22.738 30.841c3.215 2.431 7.204 3.891 11.547 3.891 10.592 0 19.178-8.587 19.178-19.178 0-6.412-3.157-12.071-7.987-15.554z" fill="#ff6262"/>
  <path d="m184.01 149.38c0-7.021 14.565-11.654 16.624-17.991 2.132-6.566-6.854-18.863-2.875-24.328 4.018-5.52 18.515-0.752 24.036-4.77 5.467-3.977 5.387-19.259 11.954-21.392 6.335-2.057 15.227 10.285 22.25 10.285 7.021 0 15.913-12.341 22.25-10.285 6.566 2.132 6.489 17.413 11.954 21.392 5.52 4.018 20.018-0.752 24.036 4.77 3.977 5.466-5.008 17.761-2.877 24.328 2.057 6.335 16.624 10.969 16.624 17.991 0 7.021-14.565 11.654-16.624 17.991-2.132 6.566 6.854 18.863 2.875 24.328-4.018 5.52-18.515 0.752-24.036 4.77-5.467 3.977-5.387 19.259-11.954 21.392-6.335 2.057-15.227-10.285-22.25-10.285-7.021 0-15.913 12.341-22.25 10.285-6.566-2.132-6.489-17.413-11.954-21.392-5.52-4.018-20.018 0.752-24.036-4.77-3.977-5.466 5.008-17.761 2.877-24.328-2.057-6.337-16.624-10.969-16.624-17.991z" fill="#d35933"/>
  <path d="m327.99 149.38c0-7.021-14.565-11.654-16.624-17.991-2.132-6.566 6.854-18.863 2.877-24.328-4.018-5.52-18.515-0.752-24.036-4.77-5.467-3.979-5.387-19.259-11.954-21.392-6.251-2.029-14.986 9.931-21.963 10.256v116.45c6.977 0.324 15.712 12.285 21.963 10.256 6.566-2.132 6.489-17.413 11.954-21.392 5.52-4.018 20.018 0.752 24.036-4.77 3.977-5.466-5.008-17.761-2.875-24.329 2.055-6.336 16.622-10.968 16.622-17.99z" fill="#b54324"/>
  <circle cx="256" cy="149.38" r="21.697" fill="#ffc61b"/>
  <path d="m277.7 149.38c0-11.886-9.561-21.526-21.409-21.682v43.365c11.848-0.156 21.409-9.798 21.409-21.683z" fill="#eaa22f"/>
  <circle cx="256" cy="347.56" r="25.571" fill="#a30f44"/>
  <path d="m256 321.98c14.122 0 25.571 11.448 25.571 25.571 0 14.122-11.448 25.571-25.571 25.571z" fill="#770a36"/>
 </g>
</svg>
