<svg width="900" height="900" version="1.1" viewBox="0 0 238.12 238.12" xmlns="http://www.w3.org/2000/svg">
 <g transform="matrix(.46285 0 0 .46285 .57322 .57322)">
  <path d="m512 256c0 141.39-114.61 256-256 256s-256-114.61-256-256 114.61-256 256-256 256 114.61 256 256z" fill="#4a7aff"/>
  <path d="m512 256c0-5.8047-0.21094-11.562-0.59375-17.27l-120.94-120.94-175.93-43.438-69.688 66.676 99.715 99.711-90.758 24.41-66.07 90.156 11.879 103.37c43.254 33.422 97.492 53.32 156.38 53.32 141.39 0 256-114.61 256-256z" fill="#0053bf"/>
  <path d="m321.15 187.1c-35.934-35.941-94.395-35.98-130.32-0.0859l-23.324-23.344c48.797-48.75 128.19-48.707 176.98 0.0977z" fill="#ffce00"/>
  <path d="m367.13 141.12c-61.281-61.293-161-61.336-222.28-0.09375l-23.328-23.344c74.152-74.102 194.8-74.051 268.95 0.10547z" fill="#ffce00"/>
  <path d="m344.49 163.77c-24.395-24.402-56.441-36.613-88.488-36.633v32.984c23.594 0.0195 47.188 9.0117 65.152 26.98z" fill="#fdba12"/>
  <path d="m390.47 117.79c-37.07-37.078-85.77-55.629-134.47-55.648v32.984c40.246 0.01953 80.492 15.352 111.13 45.996z" fill="#fdba12"/>
  <path d="m448.25 409.88c0-0.10938-8e-3 -0.21485-8e-3 -0.32032-0.17188-105.84-86.32-191.91-192.2-191.93-0.0156 0-0.0274-4e-3 -0.043-4e-3s-0.0312 4e-3 -0.0469 4e-3c-105.98 0.0234-192.2 86.254-192.2 192.25 0 5.3516 0.23047 10.652 0.66016 15.895 46.899 52.887 115.34 86.227 191.59 86.227s144.69-33.344 191.59-86.23c0.41797-5.1562 0.64453-10.355 0.65235-15.586 0-0.10156 8e-3 -0.20312 8e-3 -0.30468zm-310.64-52.102c7.8203-4.082 16.301-7.7031 25.328-10.844-2.6094 15.348-4.2539 31.441-4.875 47.945h-60.898c6.0742-13.477 20.082-26.477 40.445-37.102zm0 104.2c-20.363-10.625-34.371-23.625-40.445-37.098h60.898c0.62109 16.5 2.2656 32.594 4.8789 47.941-9.0312-3.1406-17.512-6.7617-25.332-10.844zm32.957-148.73c-17.027 4.6094-32.82 10.625-46.836 17.938-4.8477 2.5312-9.4219 5.1836-13.719 7.9453 17.203-35.352 46.871-63.559 83.25-78.871-3.418 5.4844-6.6562 11.453-9.6914 17.918-5.0352 10.727-9.3828 22.5-13.004 35.07zm70.434 173.78c-15.898-0.71875-31.305-2.5742-45.859-5.5-3.7383-17.074-6.2383-36.09-7.0625-56.641h52.922zm0-92.141h-52.922c0.82422-20.555 3.3242-39.57 7.0586-56.645 14.559-2.9258 29.965-4.7812 45.863-5.5zm0-92.172c-12.496 0.52344-24.762 1.6953-36.648 3.4883 9.8438-26.836 23.035-45.754 36.648-53.973zm30-50.484c13.609 8.2148 26.793 27.121 36.637 53.945-11.77-1.7695-24.012-2.9492-36.637-3.4727zm45.848 229.3c-14.551 2.9219-29.957 4.7773-45.848 5.4961v-62.141h52.918c-0.80469 19.875-3.2031 38.988-7.0703 56.645zm-45.848-86.645v-62.145c15.898 0.71875 31.305 2.5742 45.859 5.5 3.7383 17.074 6.2383 36.09 7.0625 56.645zm57.43-116.71c-3.0352-6.4609-6.2774-12.43-9.6953-17.914 36.426 15.332 66.125 43.59 83.316 79-16.695-10.832-37.27-19.715-60.629-26.047-3.6172-12.555-7.9609-24.32-12.992-35.039zm45.965 79.609c20.363 10.625 34.371 23.625 40.445 37.102h-60.898c-0.625-16.504-2.2695-32.598-4.8789-47.949 9.0273 3.1406 17.512 6.7656 25.332 10.848zm0 104.2c-7.8203 4.082-16.305 7.707-25.332 10.848 2.6094-15.352 4.2539-31.441 4.8789-47.945h60.898c-6.0742 13.473-20.082 26.473-40.445 37.098z" fill="#a3d4ff"/>
  <path d="m448.24 409.56c-0.17188-105.84-86.32-191.9-192.2-191.93h-0.043v294.37c76.242 0 144.69-33.344 191.59-86.23 0.41797-5.1562 0.64453-10.355 0.65235-15.586 0-0.10156 8e-3 -0.20312 8e-3 -0.30468 0-0.10938-8e-3 -0.21485-8e-3 -0.32032zm-177.24-157.34c13.609 8.2148 26.793 27.121 36.637 53.945-11.77-1.7695-24.012-2.9492-36.637-3.4727zm45.848 229.3c-14.551 2.9219-29.957 4.7773-45.848 5.4961v-62.141h52.918c-0.80469 19.875-3.2031 38.988-7.0703 56.645zm-45.848-86.645v-62.145c15.898 0.71875 31.305 2.5742 45.859 5.5 3.7383 17.074 6.2383 36.09 7.0625 56.645zm57.43-116.71c-3.0352-6.4609-6.2774-12.43-9.6953-17.914 36.426 15.332 66.125 43.59 83.316 79-16.695-10.832-37.27-19.715-60.629-26.047-3.6172-12.555-7.9609-24.32-12.992-35.039zm45.965 79.609c20.363 10.625 34.371 23.625 40.445 37.102h-60.898c-0.625-16.504-2.2695-32.598-4.8789-47.949 9.0273 3.1406 17.512 6.7656 25.332 10.848zm0 104.2c-7.8203 4.082-16.305 7.707-25.332 10.848 2.6094-15.352 4.2539-31.441 4.8789-47.945h60.898c-6.0742 13.473-20.082 26.473-40.445 37.098z" fill="#65b1fc"/>
 </g>
</svg>
