<svg width="900" height="900" version="1.1" viewBox="0 0 238.12 238.12" xmlns="http://www.w3.org/2000/svg">
 <g transform="matrix(.4625 0 0 .4625 .66146 .66146)">
  <circle cx="256" cy="256" r="256" fill="#ffd944"/>
  <path d="m512 256c0-17.283-1.724-34.162-4.989-50.485l-82.898-82.898-31.892 31.892-78.028-78.028-36.85 36.85 31.845 31.845-138.76 4.074 91.211 91.211-6.295 18.379-133.81-133.81-11.945 305.63 69.615 69.615c24.245 7.614 50.042 11.727 76.8 11.727 141.38 0 256-114.62 256-256z" fill="#ffbd32"/>
  <path d="m314.19 76.481 56.866 359.04h-26.964l-56.866-359.04z" fill="#00429c"/>
  <path d="m280.35 76.481-56.866 359.04h26.964l44.652-283.08 2.189-30.29-0.016-45.668z" fill="#5f5ace"/>
  <path d="m184.61 135.93h225.32v181.96h-225.32z" fill="#fbfafa"/>
  <path d="m170.43 122.62h253.68v26.632h-253.68z" fill="#7c83e7"/>
  <path d="m170.43 304.58h253.68v26.632h-253.68z" fill="#7c83e7"/>
  <path d="m297.27 135.93h112.66v181.96h-112.66z" fill="#eeeae7"/>
  <path d="m297.27 122.62h126.84v26.632h-126.84z" fill="#5f5ace"/>
  <path d="m297.27 304.58h126.85v26.632h-126.85z" fill="#5f5ace"/>
  <path d="m207.64 171.04h179.29v119.45h-179.29z" fill="#d6e9f8"/>
  <path d="m297.27 171.04h89.666v119.45h-89.666z" fill="#95c7ee"/>
  <path d="m386.93 290.5h-119.45l59.727-100.42z" fill="#00cb76"/>
  <path d="m297.27 290.5h-89.622l59.727-100.42 29.895 50.261z" fill="#75e68c"/>
  <path d="m116.67 191.47h4.863l5.826 43.667-5.826 34.692-16.214-8.108z" fill="#5f5ace"/>
  <path d="m121.53 191.47h4.864l11.35 70.251-16.214 8.108z" fill="#00429c"/>
  <path d="m105.32 261.72h32.428l-4.269 168.93h-23.89z" fill="#ff415b"/>
  <path d="m105.32 261.72h16.214v168.93h-11.945z" fill="#ff6379"/>
  <path d="m145.26 172.33c0 13.106-10.624 23.73-23.73 23.73s-23.73-10.624-23.73-23.73 23.73-47.307 23.73-47.307 23.73 34.201 23.73 47.307z" fill="#fbfafa"/>
  <path d="m145.26 172.33c0 13.106-10.624 23.73-23.73 23.73v-71.037s23.73 34.201 23.73 47.307z" fill="#eeeae7"/>
 </g>
</svg>
