<svg width="900" height="900" version="1.1" viewBox="0 0 238.12 238.12" xmlns="http://www.w3.org/2000/svg">
 <g transform="matrix(.4625 0 0 .4625 .66146 .66146)">
  <circle cx="256" cy="256" r="256" fill="#7584f2"/>
  <path d="m172.42 498.05c26.193 9.043 54.312 13.954 83.578 13.954 141.38 0 256-114.62 256-256 0-12.976-0.966-25.727-2.829-38.184l-147.21-147.21-197.17 174.35-55.886-55.886-33.48 29.552 24.236 24.236-26.756 155.67z" fill="#4855b7"/>
  <path d="m150.04 70.603h211.92v197.28h-211.92z" fill="#fff"/>
  <path d="m256.12 70.602h105.84v197.28h-105.84z" fill="#e9edf5"/>
  <path d="m182.83 160.82 34.04 40.773 112.3-15.722v-80.427h-146.34z" fill="#7584f2"/>
  <path d="m329.17 105.44h-73.047v96.149l73.047-15.722z" fill="#606aea"/>
  <path d="m182.83 160.82v72.218h146.34v-47.167l-50.772-46.964-57.886 55.502z" fill="#00d65b"/>
  <path d="m329.17 185.87-50.773-46.964-22.274 21.358v72.774h73.047z" fill="#06bf51"/>
  <circle cx="219.66" cy="142.03" r="20.258" fill="#ffce00"/>
  <path d="m255.75 345.14c-45.649 0-88.779-6.186-121.44-17.418-48.273-16.6-58.406-38.674-58.406-54.269h30c0 4.419 7.976 15.52 38.161 25.899 29.607 10.181 69.273 15.788 111.69 15.788 42.417 0 82.082-5.607 111.69-15.788 30.186-10.38 38.161-21.48 38.161-25.899h30c0 15.595-10.133 37.669-58.405 54.269-32.665 11.232-75.795 17.418-121.44 17.418z" fill="#f2f6fc"/>
  <path d="m405.6 273.45c0 4.419-7.976 15.52-38.161 25.899-29.521 10.151-69.042 15.754-111.32 15.787v30c45.513-0.034 88.498-6.215 121.08-17.417 48.272-16.6 58.405-38.674 58.405-54.269z" fill="#dce1eb"/>
  <path d="m72.899 223.9h36v174.62h-36z" fill="#ffce07"/>
  <path d="m402.6 223.9h36v174.62h-36z" fill="#e2b807"/>
  <circle cx="90.899" cy="202.42" r="22.411" fill="#ffe108"/>
  <circle cx="420.6" cy="202.42" r="22.411" fill="#ffce07"/>
 </g>
</svg>
