<svg width="900" height="900" version="1.1" viewBox="0 0 238.12 238.12" xmlns="http://www.w3.org/2000/svg">
 <g transform="matrix(.4625 0 0 .4625 .66156 .66133)">
  <circle cx="256" cy="256" r="256" fill="#7584f2"/>
  <path d="m509.96 288.5-236.05-236.05-93.67 131.8 105.26 105.26-105.26 153.8 68.597 68.598c2.382 0.065 4.771 0.099 7.169 0.099 130.38-1e-3 237.99-97.462 253.96-223.5z" fill="#4855b7"/>
  <path d="m306.52 145.65c0-18.219-9.644-34.185-24.106-43.072-5.568-3.422-7.531-10.714-4.006-16.218 2.921-4.561 4.487-10.074 4.13-15.97-0.823-13.611-12.094-24.514-25.723-24.92-15.053-0.448-27.397 11.621-27.397 26.573 0 5.26 1.528 10.163 4.163 14.29 3.489 5.463 1.777 12.742-3.763 16.106-15.049 9.139-24.944 25.918-24.303 44.954z" fill="#fa0"/>
  <path d="m282.41 102.57c-5.568-3.421-7.531-10.714-4.006-16.218 2.921-4.562 4.487-10.074 4.13-15.97-0.823-13.611-12.094-24.514-25.723-24.92-0.232-7e-3 -0.461-2e-3 -0.691-3e-3v101.05l50.397-0.87c0-18.218-9.645-34.184-24.107-43.071z" fill="#ff9500"/>
  <path d="m308.53 452h-105.06c-19.57 0-35.435-15.865-35.435-35.435v-201.51c0-19.57 15.865-35.435 35.435-35.435h105.06c19.57 0 35.435 15.865 35.435 35.435v201.51c1e-3 19.57-15.864 35.435-35.434 35.435z" fill="#fff"/>
  <path d="m308.53 179.62h-52.408v272.38h52.408c19.57 0 35.435-15.865 35.435-35.435v-201.51c0-19.571-15.865-35.435-35.435-35.435z" fill="#e9edf5"/>
  <path d="m180.23 136.29h151.53v47.954h-151.53z" fill="#ffce00"/>
  <path d="m256.12 136.29h75.646v47.954h-75.646z" fill="#fdba12"/>
  <path d="m180.07 228.06h45.707v27.936h-45.707z" fill="#e9edf5"/>
  <path d="m180.07 273.67h67.209v27.936h-67.209z" fill="#e9edf5"/>
  <path d="m180.07 319.28h45.707v27.936h-45.707z" fill="#e9edf5"/>
  <path d="m180.07 364.9h67.209v27.936h-67.209z" fill="#e9edf5"/>
 </g>
</svg>
