<svg width="900" height="900" version="1.1" viewBox="0 0 238.12 238.12" xmlns="http://www.w3.org/2000/svg">
 <g transform="matrix(.4625 0 0 .4625 .66146 .66146)">
  <path d="m510.07 287.46c1.265-10.313 1.927-20.811 1.927-31.465 0-141.38-114.62-256-256-256s-256 114.62-256 256c0 117.8 79.565 216.99 187.88 246.82z" fill="#889391"/>
  <path d="m510.07 287.46-69.308-69.308-184.76-103.56-184.76 103.56 61.774 61.774-32.835 135.18 87.706 87.706c21.692 5.972 44.53 9.179 68.12 9.179 130.73 0 238.56-97.996 254.07-224.54z" fill="#1a534a"/>
  <polygon points="411.83 218.16 440.76 218.16 256 33.391 215.41 224.25 256 415.11 411.83 415.11" fill="#fde59a"/>
  <g fill="#fef2cc">
   <polygon points="71.235 218.16 100.17 218.16 100.17 415.11 256 415.11 256 33.391"/>
   <polygon points="389.56 198.43 389.56 392.85 256 392.85 222.61 222.98 256 64.868"/>
  </g>
  <polygon points="256 392.85 122.44 392.85 122.44 198.43 256 64.868" fill="#fff"/>
  <path d="m256 369.73-20.399-61.197 20.399-210.79 33.998 33.998-13.599 13.599 13.599 13.599-13.599 13.599 13.599 13.599-13.599 13.599 13.599 13.599-13.599 13.599v20.399h13.599v17.867c14.422 10.507 23.799 27.52 23.799 46.73 0 31.924-25.876 57.801-57.797 57.801z" fill="#889391"/>
  <path d="m198.2 311.94c0-19.21 9.377-36.222 23.799-46.73v-17.867h13.599v-129.19l20.399-20.4v271.99c-31.921 1e-3 -57.797-25.876-57.797-57.797z" fill="#b0b7b6"/>
  <circle cx="256" cy="330.77" r="16.696" fill="#fef2cc"/>
 </g>
</svg>
