<svg width="900" height="900" version="1.1" viewBox="0 0 238.12 238.12" xmlns="http://www.w3.org/2000/svg">
 <g transform="matrix(.4625 0 0 .4625 .66146 .66146)">
  <circle cx="256" cy="256" r="256" fill="#cc7400"/>
  <path d="m506.99 306.64-217.6-217.6h-155.83v311.65l111.05 111.05c3.774 0.165 7.569 0.254 11.384 0.254 124.05 0 227.48-88.231 250.99-205.36z" fill="#aa6100"/>
  <polygon points="356.17 400.7 133.56 400.7 133.56 89.043 289.39 89.043 356.17 155.83" fill="#ffda44"/>
  <polygon points="289.39 89.043 244.87 89.043 244.87 400.7 356.17 400.7 356.17 155.83" fill="#ffcd00"/>
  <polygon points="356.17 155.83 289.39 155.83 289.39 89.043" fill="#ffa733"/>
  <g fill="#003068">
   <rect x="166.96" y="122.44" width="77.913" height="11.13"/>
   <rect x="166.96" y="144.7" width="77.913" height="11.13"/>
   <polygon points="244.85 200.35 217.09 244.76 227.33 251.16 244.85 223.13 255.62 240.36 247.03 238.02 243.85 249.67 271.98 257.34 279.64 229.22 268 226.04 265.84 233.94"/>
   <polygon points="186.28 283.6 194.16 281.45 173.59 314.36 232.77 314.36 232.77 302.29 195.37 302.29 204.91 287.02 207.24 295.58 218.89 292.4 211.22 264.28 183.1 271.95"/>
   <polygon points="277.53 296.25 268.99 287.71 248.38 308.32 268.99 328.94 277.53 320.4 271.49 314.36 316.1 314.36 287.7 268.9 277.46 275.3 294.32 302.29 271.49 302.29"/>
  </g>
  <circle cx="356.17" cy="400.7" r="44.522" fill="#46f8ff"/>
  <polygon points="383.74 385.72 350.78 425.6 328.61 405.97 338.93 394.31 349.04 403.25 371.73 375.79" fill="#003f8a"/>
 </g>
</svg>
