<svg width="900" height="900" version="1.1" viewBox="0 0 238.12 238.12" xmlns="http://www.w3.org/2000/svg">
 <g transform="matrix(.4625 0 0 .4625 .66146 .66146)">
  <circle cx="256" cy="256" r="256" fill="#83e276"/>
  <path d="m512 256c0-0.282-0.01-0.561-0.011-0.843l-123.32-123.32-265.33 41.333 55.533 55.533-14.235 6.573-108.3 35.227 79.615 79.615-28.282 33.052 128.03 128.03c6.699 0.526 13.468 0.8 20.302 0.8 141.38 0 256-114.62 256-256z" fill="#0cc27c"/>
  <polygon points="107.67 383.17 178.33 146.5 210.33 146.5 139.67 383.17" fill="#c17948"/>
  <g fill="#af622e">
   <polygon points="404.33 383.17 333.67 146.5 301.67 146.5 372.33 383.17"/>
   <rect x="123.33" y="131.84" width="265.33" height="41.33"/>
  </g>
  <rect x="255.95" y="131.84" width="132.71" height="41.33" fill="#8e4a1c"/>
  <rect x="56.33" y="229.17" width="399.33" height="41.33" fill="#af622e"/>
  <rect x="255.95" y="229.17" width="199.71" height="41.33" fill="#8e4a1c"/>
 </g>
</svg>
