<svg id="Capa_1" enable-background="new 0 0 512 512" height="512" viewBox="0 0 512 512" width="512" xmlns="http://www.w3.org/2000/svg"><g><circle cx="256" cy="256" fill="#c4e25a" r="256"/><path d="m342.844 211.156-45-45-211.844 211.844 131.056 131.056c12.699 1.938 25.704 2.944 38.944 2.944 141.385 0 256-114.615 256-256 0-15.761-1.433-31.186-4.16-46.159l-81.84-81.841z" fill="#97bb55"/><path d="m86 128v250h32.458l137.542-24.723 15.723-117.117-15.723-141.841c-76.112 0-135.591 19.489-170 33.681z" fill="#db3c2c"/><path d="m426 378v-250c-34.409-14.192-93.888-33.681-170-33.681v258.957l137.542 24.724z" fill="#c92820"/><path d="m118.458 218.346v159.654h137.542l21.744-93.83-21.744-125.824z" fill="#555a65"/><path d="m256 158.346v219.654h137.542v-159.654z" fill="#333940"/><path d="m118.458 158.346v60h137.542l14.362-30-14.362-30z" fill="#e9edf5"/><path d="m256 158.346h137.542v60h-137.542z" fill="#cdd2e1"/><g><path d="m173.683 331.405h15.532v31.063h-15.532z" fill="#fff"/><circle cx="181.448" cy="362.468" fill="#e9edf5" r="15.532"/><path d="m322.786 331.405h15.532v31.063h-15.532z" fill="#e9edf5"/><circle cx="330.552" cy="362.468" fill="#cdd2e1" r="15.532"/><path d="m224.937 295.412-72.607 9.993c-11.717 1.613-20.582 13.881-20.582 28.485h93.189 31.063l9.319-19.239-9.319-19.239z" fill="#e9edf5"/><path d="m380.253 333.891c0-14.604-8.865-26.873-20.582-28.486l-72.607-9.993h-31.064v38.479h31.063z" fill="#cdd2e1"/><path d="m246.681 261.516v12.437h9.319l3.837-15.568-3.837-21.708c-6.008 6.88-9.319 15.705-9.319 24.839z" fill="#e9edf5"/><path d="m265.319 261.516c0-9.134-3.311-17.959-9.319-24.839v37.276h9.319z" fill="#cdd2e1"/><path d="m212.512 321.864c0 30.88 19.47 55.914 43.488 55.914l9.319-55.914-9.319-55.914c-24.018 0-43.488 25.033-43.488 55.914z" fill="#fff"/><path d="m299.488 321.864c0-30.88-19.47-55.914-43.488-55.914v111.827c24.018 0 43.488-25.033 43.488-55.913z" fill="#e9edf5"/></g></g></svg>