<svg width="900" height="900" version="1.1" viewBox="0 0 238.12 238.12" xmlns="http://www.w3.org/2000/svg">
 <g transform="matrix(.46266 0 0 .46266 .62177 .62177)">
  <circle cx="256" cy="256" r="256" fill="#c4e25a"/>
  <path d="m342.84 211.16-45-45-211.84 211.84 131.06 131.06c12.699 1.938 25.704 2.944 38.944 2.944 141.38 0 256-114.62 256-256 0-15.761-1.433-31.186-4.16-46.159l-81.84-81.841z" fill="#97bb55"/>
  <path d="m86 128v250h32.458l137.54-24.723 15.723-117.12-15.723-141.84c-76.112 0-135.59 19.489-170 33.681z" fill="#db3c2c"/>
  <path d="m426 378v-250c-34.409-14.192-93.888-33.681-170-33.681v258.96l137.54 24.724z" fill="#c92820"/>
  <path d="m118.46 218.35v159.65h137.54l21.744-93.83-21.744-125.82z" fill="#555a65"/>
  <path d="m256 158.35v219.65h137.54v-159.65z" fill="#333940"/>
  <path d="m118.46 158.35v60h137.54l14.362-30-14.362-30z" fill="#e9edf5"/>
  <path d="m256 158.35h137.54v60h-137.54z" fill="#cdd2e1"/>
  <path d="m173.68 331.4h15.532v31.063h-15.532z" fill="#fff"/>
  <circle cx="181.45" cy="362.47" r="15.532" fill="#e9edf5"/>
  <path d="m322.79 331.4h15.532v31.063h-15.532z" fill="#e9edf5"/>
  <circle cx="330.55" cy="362.47" r="15.532" fill="#cdd2e1"/>
  <path d="m224.94 295.41-72.607 9.993c-11.717 1.613-20.582 13.881-20.582 28.485h124.25l9.319-19.239-9.319-19.239z" fill="#e9edf5"/>
  <path d="m380.25 333.89c0-14.604-8.865-26.873-20.582-28.486l-72.607-9.993h-31.064v38.479h31.063z" fill="#cdd2e1"/>
  <path d="m246.68 261.52v12.437h9.319l3.837-15.568-3.837-21.708c-6.008 6.88-9.319 15.705-9.319 24.839z" fill="#e9edf5"/>
  <path d="m265.32 261.52c0-9.134-3.311-17.959-9.319-24.839v37.276h9.319z" fill="#cdd2e1"/>
  <path d="m212.51 321.86c0 30.88 19.47 55.914 43.488 55.914l9.319-55.914-9.319-55.914c-24.018 0-43.488 25.033-43.488 55.914z" fill="#fff"/>
  <path d="m299.49 321.86c0-30.88-19.47-55.914-43.488-55.914v111.83c24.018 0 43.488-25.033 43.488-55.913z" fill="#e9edf5"/>
 </g>
</svg>
