<svg width="900" height="900" version="1.1" viewBox="0 0 238.12 238.12" xmlns="http://www.w3.org/2000/svg">
 <g transform="matrix(.4625 0 0 .4625 .66146 .66146)">
  <circle cx="256" cy="256" r="256" fill="#ff7c37"/>
  <path d="m121.58 397.66 113.48 113.48c6.91 0.56 13.893 0.857 20.947 0.857 141.38 0 256-114.62 256-256 0-7.054-0.298-14.037-0.857-20.947l-120.72-120.72z" fill="#ff4536"/>
  <path d="m121.58 397.66h134.42l45.75-130.94-45.75-152.4h-134.42z" fill="#79b6fc"/>
  <path d="m256 114.34h134.42v283.33h-134.42z" fill="#55a4fc"/>
  <path d="m143.22 376.02h112.78l45.75-109.29-45.75-130.75h-112.78z" fill="#55a4fc"/>
  <path d="m256 135.98h112.78v240.03h-112.78z" fill="#2893fb"/>
  <path d="m270.27 258.51-14.271-18.52h-28.016v-62.82h-34v164.1h34v-67.283h28.016z" fill="#fff"/>
  <path d="m284.02 177.17v62.82h-28.017v34h28.017v67.283h34v-164.1z" fill="#f6f6f8"/>
 </g>
</svg>
