<svg width="900" height="900" version="1.1" viewBox="0 0 238.12 238.12" xmlns="http://www.w3.org/2000/svg">
 <g transform="matrix(.4625 0 0 .4625 .66146 .66146)">
  <circle cx="256" cy="256" r="256" fill="#00ecce"/>
  <path d="m131.31 479.61c36.9 20.621 79.419 32.39 124.69 32.39 141.38 0 256-114.62 256-256 0-1.745-0.031-3.483-0.066-5.22l-185.49-185.49-132.2 123.63 77.424 77.862-46.197 4.865-43.399-43.441-8.314 3.363-71.594-71.594-40.04 250.45z" fill="#00c6cb"/>
  <path d="m215.44 313.3-132.57-43.007v-56.098h69.088c21.724 0 39.336 17.611 39.336 39.336v4.573z" fill="#fff"/>
  <path d="m191.3 346.95h-117.46v-88.848h117.46l116.33 44.424z" fill="#d8f1fb"/>
  <path d="m191.3 258.1v88.848h64.702l62.495-44.424-62.495-44.424z" fill="#ff405c"/>
  <path d="m256 258.1h167.96v88.848h-167.96z" fill="#ea1c81"/>
  <path d="m89.061 324.36v45.176h166.94l35.664-22.588-35.664-22.588z" fill="#424e66"/>
  <path d="m256 324.36h153.84v45.176h-153.84z" fill="#29313d"/>
  <path d="m409.84 220.09h40.04v190.34h-40.04z" fill="#424e66"/>
  <path d="m62.121 159.98h40.04v250.45h-40.04z" fill="#5d6b7f"/>
  <path d="m165.27 122.46c0 50.107 40.62 90.728 90.728 90.728l36.608-115.48-36.608-65.974c-50.108 0-90.728 40.62-90.728 90.728z" fill="#fff"/>
  <path d="m346.73 122.46c0-50.108-40.62-90.728-90.728-90.728v181.46c50.107 0 90.728-40.62 90.728-90.727z" fill="#d8f1fb"/>
  <path d="m308.91 123.31 0.133-50.141h-23.2l-29.952 50.141v18.722h34.252l-0.055 27.039h18.718l0.059-27.039h9.629v-18.722zm-17.305 0h-12.973l13.03-20.948z" fill="#29313d"/>
  <path d="m255.68 169.07-57.684-0.18 0.058-17.135 2.832-3.029c0.05-0.055 7.603-8.319 24.842-33.427 3.799-5.534 5.347-9.453 5.969-11.872l0.183-1.458c-0.271-4.34-3.822-7.786-8.146-7.786-3.893 0-7.261 2.816-8.008 6.697l-1.987 10.311-20.23-4.052 1.987-10.311c2.642-13.71 14.518-23.661 28.238-23.661 15.868 0 28.779 13.16 28.779 29.337v0.668l-0.623 4.554c-1.384 6.077-4.503 12.68-9.271 19.624-5.936 8.645-10.796 15.408-14.67 20.616l27.796 0.087z" fill="#424e66"/>
 </g>
</svg>
