<svg id="Capa_1" enable-background="new 0 0 512 512" height="512" viewBox="0 0 512 512" width="512" xmlns="http://www.w3.org/2000/svg"><g><circle cx="256" cy="256" fill="#00ecce" r="256"/><path d="m131.306 479.61c36.9 20.621 79.419 32.39 124.694 32.39 141.385 0 256-114.615 256-256 0-1.745-.031-3.483-.066-5.22l-185.49-185.49-132.204 123.634 77.424 77.862-46.197 4.865-43.399-43.441-8.314 3.363-71.594-71.594-40.04 250.446z" fill="#00c6cb"/><g><path d="m215.442 313.296-132.567-43.007v-56.098h69.088c21.724 0 39.336 17.611 39.336 39.336v4.573z" fill="#fff"/><path d="m191.298 346.947h-117.459v-88.848h117.459l116.329 44.424z" fill="#d8f1fb"/><g><path d="m191.298 258.099v88.848h64.702l62.495-44.424-62.495-44.424z" fill="#ff405c"/></g><path d="m256 258.099h167.956v88.848h-167.956z" fill="#ea1c81"/><path d="m89.061 324.359v45.176h166.939l35.664-22.588-35.664-22.588z" fill="#424e66"/><path d="m256 324.359h153.839v45.176h-153.839z" fill="#29313d"/><path d="m409.839 220.09h40.04v190.336h-40.04z" fill="#424e66"/><path d="m62.121 159.979h40.04v250.447h-40.04z" fill="#5d6b7f"/></g><g><path d="m165.272 122.463c0 50.107 40.62 90.728 90.728 90.728l36.608-115.482-36.608-65.974c-50.108 0-90.728 40.62-90.728 90.728z" fill="#fff"/></g><path d="m346.728 122.463c0-50.108-40.62-90.728-90.728-90.728v181.455c50.107 0 90.728-40.62 90.728-90.727z" fill="#d8f1fb"/><g><g><g><path d="m308.912 123.31.133-50.141h-23.2l-29.952 50.141v18.722h34.252l-.055 27.039h18.718l.059-27.039h9.629v-18.722zm-17.305 0h-12.973l13.03-20.948z" fill="#29313d"/><g><g><g><path d="m255.677 169.072-57.684-.18.058-17.135 2.832-3.029c.05-.055 7.603-8.319 24.842-33.427 3.799-5.534 5.347-9.453 5.969-11.872l.183-1.458c-.271-4.34-3.822-7.786-8.146-7.786-3.893 0-7.261 2.816-8.008 6.697l-1.987 10.311-20.23-4.052 1.987-10.311c2.642-13.71 14.518-23.661 28.238-23.661 15.868 0 28.779 13.16 28.779 29.337v.668l-.623 4.554c-1.384 6.077-4.503 12.68-9.271 19.624-5.936 8.645-10.796 15.408-14.67 20.616l27.796.087z" fill="#424e66"/></g></g></g></g></g></g></g></svg>