<svg width="900" height="900" version="1.1" viewBox="0 0 238.12 238.12" xmlns="http://www.w3.org/2000/svg">
 <circle cx="119.06" cy="119.06" r="118.4" fill="#14447c" stroke-width=".4625"/>
 <path d="m183.58 54.613v-0.07169h-129.04v129.04l53.353 53.353c3.6769 0.3441 7.4005 0.52817 11.167 0.52817 65.391 0 118.4-53.01 118.4-118.4 0-3.7398-0.18176-7.4375-0.52078-11.089z" fill="#0b0a48" stroke-width=".4625"/>
 <path d="m137.79 151.35c-10.796 8.2305-24.266 13.122-38.886 13.122-35.451 0-64.182-28.736-64.182-64.178 0-35.451 28.732-64.187 64.182-64.187 35.446 0 64.182 28.736 64.182 64.187 0 14.652-4.9102 28.15-13.182 38.955v4e-3c3.2382 2.4089 17.803 13.218 19.356 15.124-0.58619-5.3268-2.3953-22.351-2.3953-22.351l53.74 40.214 0.13291 1.177-39.72-17.478 3.2656 30.243-46.503-34.823 9e-3 -9e-3zm-15.234-12.051c-7.4013-5.5329-36.335-26.565-36.335-26.565h28.26c1.6305 1.2598 14.276 10.681 20.437 15.293l-0.015 0.015c5.8306-7.6992 9.2885-17.327 9.2885-27.765 0-25.274-20.277-45.747-45.289-45.747-25.017 0-45.294 20.474-45.294 45.747 0 25.264 20.277 45.742 45.294 45.742 8.6658 0 16.759-2.4594 23.643-6.7145l9e-3 -4e-3" fill="#f90"/>
</svg>
