<svg width="900" height="900" version="1.1" viewBox="0 0 238.12 238.12" xmlns="http://www.w3.org/2000/svg">
 <g transform="matrix(.46285 0 0 .46285 .57322 .57322)">
  <path d="m512 256c0 141.39-114.61 256-256 256s-256-114.61-256-256 114.61-256 256-256 256 114.61 256 256z" fill="#ffd400"/>
  <path d="m512 256c0-34.926-7.0039-68.215-19.672-98.551l-57.066-57.066-81.945 81.945-245.12-1.6602v203.64l-31.527 31.523 73.191 73.188c32.336 14.754 68.277 22.984 106.14 22.984 141.39 0 256-114.61 256-256z" fill="#fdbf00"/>
  <path d="m97.684 236.98h21.016v168.12h-21.016z" fill="#5a5a5a"/>
  <path d="m76.668 394.6h63.047v21.016h-63.047z" fill="#5a5a5a"/>
  <path d="m393.3 236.98h21.016v168.12h-21.016z" fill="#444"/>
  <path d="m372.29 394.6h63.047v21.016h-63.047z" fill="#444"/>
  <path d="m435.33 100.38v147.11h-358.66v-147.11h42.031l21.016 21.016h232.57l21.016-21.016z" fill="#96c8ef"/>
  <path d="m435.33 100.38v147.11h-179.33v-126.09h116.29l21.016-21.016z" fill="#78b9eb"/>
  <path d="m118.7 100.38h274.6v42.031h-274.6z" fill="#5a5a5a"/>
  <path d="m351.27 194.95v147.11l-95.27 7.9883-32.223 2.5195c0 11.559-30.473 21.016-42.031 21.016-11.559 0-21.016-9.457-21.016-21.016v-157.62z" fill="#ececf1"/>
  <path d="m202.76 226.48h106.48v21.016h-106.48z" fill="#d3d3d8"/>
  <path d="m202.76 268.51h106.48v21.016h-106.48z" fill="#d3d3d8"/>
  <path d="m256 100.38h137.3v42.031h-137.3z" fill="#444"/>
  <path d="m351.27 194.95v147.11l-95.27 7.9883v-155.1z" fill="#e2e2e7"/>
  <path d="m256 226.48h53.238v21.016h-53.238z" fill="#babac0"/>
  <path d="m256 268.51h53.238v21.016h-53.238z" fill="#babac0"/>
  <path d="m139.71 184.45h232.57v21.016h-232.57z" fill="#5a5a5a"/>
  <path d="m256 184.45h116.29v21.016h-116.29z" fill="#444"/>
  <path d="m372.29 331.55v10.508c0 17.441-14.078 31.523-31.523 31.523h-159.02c11.559 0 21.016-9.457 21.016-21.016v-21.016z" fill="#d3d3d8"/>
  <path d="m372.29 331.55v10.508c0 17.441-14.078 31.523-31.523 31.523h-84.762v-42.031z" fill="#babac0"/>
 </g>
</svg>
