<svg width="900" height="900" version="1.1" viewBox="0 0 238.12 238.12" xmlns="http://www.w3.org/2000/svg">
 <g transform="matrix(.4625 0 0 .4625 .66157 .66153)">
  <path d="m512 256.27c0 0.31 0 0.62-0.01 0.93 0 1.32-0.02 2.64-0.05 3.95-0.07 3.48-0.2 6.95-0.41 10.4-1.07 17.84-3.97 35.18-8.51 51.84-23.74 87.26-92.47 155.96-179.7 179.66-10.52 2.87-21.31 5.07-32.32 6.57-3.74 0.51-7.51 0.94-11.3 1.29-7.89 0.73-15.89 1.1-23.97 1.09-10.35-0.01-20.56-0.63-30.58-1.85-0.91-0.11-1.82-0.23-2.73-0.35-1.22-0.16-2.44-0.32-3.65-0.5-4.31-0.62-8.58-1.35-12.81-2.19-0.23-0.05-0.47-0.09-0.7-0.14-0.87-0.18-1.73-0.36-2.6-0.54-1.79-0.38-3.58-0.77-5.35-1.19-10.14-2.38-20.04-5.36-29.67-8.9-3.52-1.3-7-2.67-10.45-4.12-92.42-38.69-157.3-130.04-157.19-236.49 0.15-141.38 114.89-255.88 256.27-255.73 114.41 0.12 211.22 75.29 243.9 178.87 0.67 2.11 1.31 4.24 1.92 6.37 1.8 6.28 3.37 12.66 4.69 19.12 0.51 2.51 0.99 5.03 1.43 7.56 0.77 4.38 1.41 8.79 1.95 13.24 0.26 2.18 0.49 4.36 0.7 6.56 0.35 3.69 0.62 7.41 0.8 11.15 0.19 3.77 0.31 7.56 0.33 11.37 0 0 0.01 0.01 0 0.02 0.01 0.04 0.01 0.09 0 0.14 0.01 0.62 0.01 1.24 0.01 1.87z" fill="#2864f0"/>
  <path d="m511.99 257.2c0 1.32-0.02 2.64-0.05 3.95-0.07 3.48-0.2 6.95-0.41 10.4-1.07 17.84-3.97 35.18-8.51 51.84-23.74 87.26-92.47 155.96-179.7 179.66-10.52 2.87-21.31 5.07-32.32 6.57-3.74 0.51-7.51 0.94-11.3 1.29-7.89 0.73-15.89 1.1-23.97 1.09-10.35-0.01-20.56-0.63-30.58-1.85-0.91-0.11-125.01-122.63-125.01-122.63l95.86-143.8 30 30v-27.97l-22.69-22 37.69-81.88v-6.67l-35-34 100-50z" fill="#0053bf"/>
  <path d="m226 243.72h60v50h-60z" fill="#fd9e27"/>
  <path d="m256 243.72h30v50h-30z" fill="#da7d00"/>
  <path d="m136 243.72h60v50h-60z" fill="#fd9e27"/>
  <path d="m316 243.72h60v50h-60z" fill="#da7d00"/>
  <path d="m373.5 390.66h-235c-23.472 0-42.5-19.028-42.5-42.5s19.028-42.5 42.5-42.5h235c23.472 0 42.5 19.028 42.5 42.5s-19.028 42.5-42.5 42.5z" fill="#fff"/>
  <path d="m373.5 305.66h-117.5v85h117.5c23.472 0 42.5-19.028 42.5-42.5s-19.028-42.5-42.5-42.5z" fill="#eaeaea"/>
  <path d="m373.5 403.16h-235c-30.327 0-55-24.673-55-55s24.673-55 55-55h235c30.327 0 55 24.673 55 55s-24.673 55-55 55zm-235-85c-16.542 0-30 13.458-30 30s13.458 30 30 30h235c16.542 0 30-13.458 30-30s-13.458-30-30-30z" fill="#06465e"/>
  <path d="m373.5 293.16h-117.5v25h117.5c16.542 0 30 13.458 30 30s-13.458 30-30 30h-117.5v25h117.5c30.327 0 55-24.673 55-55s-24.673-55-55-55z" fill="#022b3a"/>
  <circle cx="256" cy="348.16" r="15" fill="#fc393e"/>
  <path d="m256 333.16v30c8.284 0 15-6.716 15-15 0-8.285-6.715-15-15-15z" fill="#c6001c"/>
  <circle cx="154.75" cy="348.16" r="15" fill="#fc393e"/>
  <circle cx="357.5" cy="348.16" r="15" fill="#c6001c"/>
  <path d="m271 142.14v-78.222h-30v77.947l-37.689 37.689v44.198h25v-33.842l27.552-27.552 27.552 27.552v33.842h25v-44.198z" fill="#f2f2fc"/>
  <path d="m271 142.14v-78.222h-15v98.577l27.415 27.415v33.842h25v-44.198z" fill="#d8d9fb"/>
  <path d="m206 51.199h100v50h-100z" fill="#fc393e"/>
  <path d="m256 51.199h50v50h-50z" fill="#c6001c"/>
 </g>
</svg>
