<svg width="900" height="900" version="1.1" viewBox="0 0 238.12 238.12" xmlns="http://www.w3.org/2000/svg">
 <g transform="matrix(.4625 0 0 .4625 .66146 .66146)">
  <circle id="XMLID_69_" cx="256" cy="256" r="256" fill="#774e3f"/>
  <path d="m512 256c0-38.314-8.432-74.654-23.518-107.29l-89.931-89.931-285.1 186.13 74.212 74.212-53.691 120.9 65.543 65.712c18.174 4.094 37.076 6.267 56.487 6.267 141.38 0 256-114.62 256-256z" fill="#543833"/>
  <path d="m156.47 316.04h47.574v52.518h-47.574z" fill="#ccc"/>
  <path d="m128.45 73.781v156.13h127.55l45.359-103.92-45.359-52.211z" fill="#6ee0ff"/>
  <path d="m256 73.781h127.55v156.13h-127.55z" fill="#5fc2ff"/>
  <path d="m268.42 111.05-132.56 104.28-19.633-22.684 132.56-104.28z" fill="#aef9ff"/>
  <path d="m395.87 111.05-132.56 104.28-19.632-22.684 132.56-104.28z" fill="#6ee0ff"/>
  <path d="m113.45 244.91h142.55l12.418-93.066-12.418-93.067h-142.55zm30-156.13h97.551v126.13h-97.551z" fill="#fff"/>
  <path d="m398.55 244.91v-186.13h-142.55v186.13zm-30-156.13v126.13h-97.551v-126.13z" fill="#efefef"/>
  <path d="m241 322.35v56.206h15l16.371-85.413-16.371-5.125c-9.218 8.567-15 20.784-15 34.332z" fill="#fb2"/>
  <path d="m271 378.56v-56.206c0-9.312 7.576-16.888 16.888-16.888s16.888 7.576 16.888 16.888v6.06h30v-6.06c0-25.854-21.034-46.888-46.888-46.888-12.306 0-23.514 4.773-31.888 12.556v90.538z" fill="#fc8f1a"/>
  <path d="m102.67 361.42v8.44c0 52.071 42.212 94.283 94.283 94.283h59.049l60.135-54.951-60.135-47.772z" fill="#efefef"/>
  <path d="m256 361.42v102.72h59.049c52.071 0 94.283-42.212 94.283-94.283v-8.44h-153.33z" fill="#ccc"/>
 </g>
</svg>
