<svg width="900" height="900" version="1.1" viewBox="0 0 238.12 238.12" xmlns="http://www.w3.org/2000/svg">
 <g transform="matrix(.4625 0 0 .4625 .66146 .66146)">
  <circle id="XMLID_48_" cx="256" cy="256" r="256" fill="#7f5b5b"/>
  <path d="m201.36 83.905 16.941 16.941-46.333 370.43 42.024 37.274c13.67 2.258 27.7 3.451 42.01 3.451 141.38 0 256-114.62 256-256 0-9.479-0.532-18.833-1.535-28.045l-199.82-199.82z" fill="#563f3f"/>
  <path d="m211.19 65.695v38.914l-35.298 21.842c-9.402 5.818-15.124 16.087-15.124 27.144v2.51l35.468 48.771-35.468 48.771v1.671c0 7.115 2.798 13.945 7.789 19.015l0.978 0.993c4.992 5.07 7.79 11.9 7.79 19.015v13.95c0 7.353-2.988 14.391-8.278 19.499s-8.278 12.146-8.278 19.499v100.64c0 18.415 14.929 30.512 33.344 30.512h61.481l50.76-185.13-50.76-227.61h-44.404z" fill="#fff"/>
  <path d="m299.99 65.695v38.914l35.298 21.842c9.402 5.818 15.124 16.087 15.124 27.144v2.51l-29.947 48.771 29.947 48.771v1.671c0 7.115-2.798 13.945-7.79 19.015l-0.978 0.993c-4.992 5.07-7.79 11.9-7.79 19.015v13.95c0 7.353 2.988 14.391 8.278 19.499s8.278 12.146 8.278 19.499v100.64c0 18.415-14.929 30.512-33.344 30.512h-61.481v-412.74z" fill="#eaeaea"/>
  <path d="m256 28.133h54.642v55.772h-54.642z" fill="#33a3ff"/>
  <path d="m201.36 28.133h54.642v55.772h-54.642z" fill="#78d2ff"/>
  <path d="m160.76 156.11v97.541h94.825l64.878-48.771-64.878-48.77z" fill="#78d2ff"/>
  <path d="m255.59 156.11h94.825v97.541h-94.825z" fill="#33a3ff"/>
  <path d="m202.8 380.39h-42.036v-32.696h42.036c9.029 0 16.348 7.319 16.348 16.348 0 9.028-7.319 16.348-16.348 16.348z" fill="#eaeaea"/>
  <path d="m308.38 380.39h42.036v-32.696h-42.036c-9.029 0-16.348 7.319-16.348 16.348 0 9.028 7.319 16.348 16.348 16.348z" fill="#d6d6d6"/>
  <path d="m202.8 445.78h-42.036v-32.696h42.036c9.029 0 16.348 7.319 16.348 16.348s-7.319 16.348-16.348 16.348z" fill="#eaeaea"/>
  <path d="m308.38 445.78h42.036v-32.696h-42.036c-9.029 0-16.348 7.319-16.348 16.348s7.319 16.348 16.348 16.348z" fill="#d6d6d6"/>
  <path d="m248.31 195.56c-5.19-5.648-13.027-14.193-28.006-14.193s-22.816 8.545-27.992 14.193c-1.371 1.488-2.392 2.562-3.228 3.334-2.838 2.619-4.465 6.289-4.465 10.151 0 11.977 14.249 18.267 23.078 10.174 1.896-1.738 3.504-3.494 4.915-5.036 4.285-4.665 5.15-5.255 7.693-5.255 2.542 0 3.407 0.59 7.693 5.255 5.123 5.602 12.862 14.002 27.55 14.177l24.888-21.777-24.888-5.775c-2.208-0.082-3.218-0.872-7.238-5.248z" fill="#33a3ff"/>
  <path d="m283.99 214.19c4.285-4.665 5.15-5.255 7.693-5.255 2.542 0 3.407 0.59 7.693 5.268 1.417 1.543 3.032 3.3 4.935 5.04 8.836 8.077 23.07 1.787 23.07-10.184 0-3.862-1.625-7.534-4.465-10.152-0.837-0.772-1.858-1.847-3.228-3.339-5.19-5.648-13.026-14.193-28.006-14.193-14.979 0-22.816 8.545-28.006 14.193-4.285 4.665-5.15 5.255-7.68 5.255-0.158 0-0.309-2e-3 -0.455-8e-3v27.551c0.155 2e-3 0.299 0.016 0.455 0.016 14.981 1e-3 22.818-8.53 27.994-14.192z" fill="#1a75e2"/>
 </g>
</svg>
