<svg width="900" height="900" version="1.1" viewBox="0 0 238.12 238.12" xmlns="http://www.w3.org/2000/svg">
 <g transform="matrix(.4625 0 0 .4625 .66146 .66146)">
  <circle cx="256" cy="256" r="256" fill="#a7e340"/>
  <path d="m512 256c0-12.131-0.844-24.066-2.476-35.748l-148.89-148.89-206.64 37 141.26 141.26-143.55 194.3 65.095 65.095c12.783 1.964 25.876 2.984 39.208 2.984 141.38 0 256-114.62 256-256z" fill="#86c42b"/>
  <path d="m338.8 452h-165.59c-18.058 0-32.698-14.639-32.698-32.698v-273.99c0-18.058 14.639-32.698 32.698-32.698h165.59c18.058 0 32.698 14.639 32.698 32.698v273.99c0 18.059-14.639 32.698-32.697 32.698z" fill="#fa5d0f"/>
  <path d="m338.8 112.61h-82.797v339.39h82.797c18.058 0 32.698-14.639 32.698-32.697v-273.99c-1e-3 -18.058-14.64-32.697-32.698-32.697z" fill="#d13400"/>
  <path d="m140.51 197h230.99v185h-230.99z" fill="#fff"/>
  <path d="m256 197h115.49v185h-115.49z" fill="#e9edf5"/>
  <path d="m259.77 249.09c6.118 6.118 16.037 6.118 22.155 0s8.932-31.088 8.932-31.088-24.969 2.814-31.087 8.932c-1.769 1.769-3.022 3.856-3.769 6.076-0.746-2.22-2-4.307-3.769-6.076-6.118-6.118-31.087-8.932-31.087-8.932s2.814 24.97 8.932 31.088 16.037 6.118 22.155 0z" fill="#93d632"/>
  <path d="m256 249.09h3.768c6.118 6.118 16.037 6.118 22.155 0 6.118-6.119 8.932-31.088 8.932-31.088s-24.969 2.814-31.087 8.932c-1.769 1.769-3.022 3.856-3.769 6.076v16.08z" fill="#78b22a"/>
  <path d="m208.17 279.01c0-32.493 21.413-37.37 47.827-37.37s47.827 4.877 47.827 37.37-21.413 74.341-47.827 74.341-47.827-41.848-47.827-74.341z" fill="#fe6a16"/>
  <path d="m256 241.64c-0.136 0-0.269 2e-3 0 2e-3v111.7c-0.27 2e-3 -0.135 0.01 0 0.01 26.414 0 47.827-41.848 47.827-74.341s-21.413-37.37-47.827-37.37z" fill="#f24500"/>
  <path d="m256 275.5c-5.385 0-9.75-4.365-9.75-9.75v-6c0-5.385 4.365-9.75 9.75-9.75s9.75 4.365 9.75 9.75v6c0 5.385-4.365 9.75-9.75 9.75z" fill="#f24500"/>
  <path d="m256 275.5c5.385 0 9.75-4.365 9.75-9.75v-6c0-5.385-4.365-9.75-9.75-9.75z" fill="#d13400"/>
  <path d="m256 333.5c-5.385 0-9.75-4.365-9.75-9.75v-6c0-5.385 4.365-9.75 9.75-9.75s9.75 4.365 9.75 9.75v6c0 5.385-4.365 9.75-9.75 9.75z" fill="#f24500"/>
  <path d="m256 333.5c5.385 0 9.75-4.365 9.75-9.75v-6c0-5.385-4.365-9.75-9.75-9.75z" fill="#d13400"/>
  <path d="m281.83 304.5c-5.385 0-9.75-4.365-9.75-9.75v-6c0-5.385 4.365-9.75 9.75-9.75s9.75 4.365 9.75 9.75v6c0 5.385-4.365 9.75-9.75 9.75z" fill="#d13400"/>
  <path d="m230.17 304.5c-5.385 0-9.75-4.365-9.75-9.75v-6c0-5.385 4.365-9.75 9.75-9.75s9.75 4.365 9.75 9.75v6c0 5.385-4.366 9.75-9.75 9.75z" fill="#f24500"/>
  <path d="m344.44 112.61h-176.88c-13.148 0-23.807-10.659-23.807-23.807s10.659-23.807 23.807-23.807h176.88c13.148 0 23.807 10.659 23.807 23.807s-10.659 23.807-23.807 23.807z" fill="#ffe89c"/>
  <path d="m344.44 65h-88.44v47.614h88.44c13.148 0 23.807-10.659 23.807-23.807s-10.659-23.807-23.807-23.807z" fill="#fad17f"/>
 </g>
</svg>
