<svg width="900" height="900" version="1.1" viewBox="0 0 238.12 238.12" xmlns="http://www.w3.org/2000/svg">
 <g transform="matrix(.46285 0 0 .46285 .57322 .57322)">
  <path d="m512 256c0 141.39-114.61 256-256 256s-256-114.61-256-256 114.61-256 256-256 256 114.61 256 256z" fill="#ffce00"/>
  <path d="m512 256c0-6.0781-0.22656-12.102-0.64453-18.074l-94.934-94.938-29.023 17.539-97.871-97.875-226.87 226.87 95.008 95.004-14.672 31.891 94.938 94.934c5.9727 0.41797 11.996 0.64453 18.074 0.64453 141.39 0 256-114.61 256-256z" fill="#ffa300"/>
  <path d="m449.35 289.53v-67.051l-34.133-2.7734c-4.1367-18.215-11.32-35.266-20.98-50.602l22.188-26.109-47.41-47.414-26.109 22.188c-15.34-9.6602-32.391-16.844-50.605-20.98l-2.7695-34.129h-67.051l-2.7734 34.129c-18.215 4.1367-35.266 11.32-50.602 20.98l-26.113-22.188-47.41 47.41 22.188 26.109c-9.6562 15.332-16.836 32.375-20.973 50.578l-34.137 2.7969v67.051l34.137 2.8008c4.1328 18.195 11.309 35.23 20.957 50.551l-22.172 26.137 47.41 47.41 26.137-22.172c15.32 9.6484 32.355 16.824 50.551 20.957l2.7969 34.141h67.051l2.8008-34.141c18.195-4.1328 35.23-11.309 50.551-20.957l26.133 22.172 47.414-47.41-22.172-26.137c9.6523-15.328 16.828-32.375 20.965-50.578zm-193.35 72.453c-58.531 0-105.98-47.449-105.98-105.98s47.449-105.98 105.98-105.98 105.98 47.449 105.98 105.98-47.449 105.98-105.98 105.98z" fill="#2864f0"/>
  <path d="m449.35 289.53v-67.051l-34.133-2.7734c-4.1367-18.215-11.32-35.266-20.98-50.602l22.188-26.109-47.41-47.414-26.109 22.188c-15.34-9.6602-32.391-16.844-50.605-20.98l-2.7695-34.129h-33.93v87.367c0.13281 0 0.26953-4e-3 0.40234-4e-3 58.531 0 105.98 47.449 105.98 105.98s-47.453 105.98-105.98 105.98c-0.13281 0-0.26953-8e-3 -0.40234-8e-3v87.371h33.93l2.7969-34.137c18.195-4.1367 35.23-11.312 50.551-20.961l26.137 22.172 47.41-47.41-22.172-26.133c9.6523-15.332 16.832-32.375 20.965-50.582z" fill="#27488f"/>
  <path d="m335.94 280.17 5.5117-21.633-67.609-48 0.55859-18.246c0-8.5703-3.6172-16.742-9.957-22.508-4.7891-4.3516-12.102-4.3516-16.887 0-6.3438 5.7656-9.9609 13.938-9.9609 22.508l0.55859 18.246-67.609 48 5.5117 21.633 63.934-9.5 1.6758 54.934-9.5312 5.4023v14.473l23.863-9.7734 23.867 9.7734v-14.473l-9.5312-5.4023 1.6758-54.934z" fill="#fe6a16"/>
  <path d="m256 335.71 23.867 9.7734v-14.473l-9.5312-5.4023 1.6758-54.934 63.93 9.5 5.5117-21.633-67.609-48 0.55859-18.246c0-8.5703-3.6172-16.742-9.957-22.508-2.5039-2.2734-5.6914-3.3477-8.8476-3.2461z" fill="#fa5d0f"/>
 </g>
</svg>
