<svg width="900" height="900" version="1.1" viewBox="0 0 238.12 238.12" xmlns="http://www.w3.org/2000/svg">
 <g transform="matrix(.4625 0 0 .4625 .66146 .66146)">
  <circle cx="256" cy="256" r="256" fill="#ffa700"/>
  <path d="m512 256c0-2.545-0.048-5.079-0.122-7.607l-248.27-248.27c-0.792-0.023-1.586-0.038-2.379-0.055-1.74-0.036-3.48-0.067-5.228-0.067s-3.488 0.031-5.227 0.066c-0.793 0.017-1.587 0.032-2.379 0.055v33.077c0 3.801-3.092 6.894-6.893 6.894h-34.23c-12.19 0-22.107 9.917-22.107 22.107v0.476c0 5.638 2.122 10.788 5.609 14.696l54.902 54.565c-54.45 2.932-98.087 48.38-98.087 103.53v4.726 5e-3 107.88c0 27.344 11.874 52.049 30.719 69.215l94.172 94.172c133.7-8.497 239.52-119.61 239.52-255.46z" fill="#ff6900"/>
  <path d="m241.5 40.092h-34.23c-12.19 0-22.107 9.917-22.107 22.107v0.476c0 12.19 9.917 22.107 22.107 22.107h105.54c3.801 0 6.893 3.092 6.893 6.894 0 3.801-3.092 6.893-6.893 6.893h-42.312c-12.19 0-22.107 9.917-22.107 22.107v13.074h15.213v-13.074c0-3.801 3.092-6.894 6.893-6.894h42.312c12.19 0 22.107-9.917 22.107-22.107s-9.917-22.107-22.107-22.107h-105.54c-3.801 0-6.893-3.092-6.893-6.893v-0.476c0-3.801 3.092-6.893 6.893-6.893h34.23c12.19 0 22.107-9.917 22.107-22.107v-33.077c-2.528-0.074-5.062-0.122-7.607-0.122s-5.079 0.048-7.607 0.122v33.077c0 3.801-3.092 6.893-6.893 6.893z" fill="#006ef5"/>
  <g fill="#0043a3">
   <path d="m256 49.87v-49.87c2.55 0 5.08 0.05 7.61 0.12v33.08c0 6.65-2.95 12.62-7.61 16.67z"/>
   <path d="m334.92 91.67c0 12.19-9.92 22.11-22.11 22.11h-42.31c-3.8 0-6.89 3.09-6.89 6.89v13.08h-7.61v-29.74c3.89-3.39 8.95-5.44 14.5-5.44h42.31c3.8 0 6.9-3.09 6.9-6.9 0-3.8-3.1-6.89-6.9-6.89h-56.81v-15.21h56.81c12.19 0 22.11 9.91 22.11 22.1z"/>
  </g>
  <path d="m270.73 441.75h-29.466c-51.524 0-93.68-42.156-93.68-93.68v-107.88c0-59.627 48.786-108.41 108.41-108.41s108.41 48.786 108.41 108.41v107.88c0 51.524-42.156 93.68-93.68 93.68z" fill="#006ef5"/>
  <path d="m364.41 240.19v107.88c0 51.52-42.15 93.68-93.68 93.68h-14.73v-309.97c2.56 0 5.1 0.09 7.61 0.27 26.81 1.88 51 13.62 68.96 31.58 19.65 19.65 31.84 46.75 31.84 76.56z" fill="#0043a3"/>
  <path d="m260.73 131.78h-9.461c-57.025 0-103.68 46.657-103.68 103.68v37.597h216.83v-37.597c0-57.025-46.657-103.68-103.68-103.68z" fill="#fff"/>
  <path d="m364.41 235.46v37.6h-108.41v-141.28h4.73c0.69 0 1.39 0.01 2.08 0.02 0.27 0.01 0.53 0.01 0.8 0.02 55.71 1.54 100.8 47.58 100.8 103.64z" fill="#dadadc"/>
  <path d="m260.73 131.78h-9.461c-0.962 0-1.92 0.016-2.876 0.042v141.24h15.213v-141.24c-0.955-0.027-1.914-0.042-2.876-0.042z" fill="#b0afb5"/>
  <path d="m263.61 131.82v141.24h-7.61v-141.28h4.73c0.69 0 1.39 0.01 2.08 0.02 0.27 0.01 0.53 0.01 0.8 0.02z" fill="#797880"/>
  <path d="m256.54 240h-1.083c-8.067 0-14.667-6.6-14.667-14.667v-30c0-8.067 6.6-14.667 14.667-14.667h1.083c8.067 0 14.667 6.6 14.667 14.667v30c-1e-3 8.067-6.601 14.667-14.667 14.667z" fill="#006ef5"/>
  <path d="m271.21 195.33v30c0 8.07-6.6 14.67-14.67 14.67h-0.54v-59.33h0.54c8.07 0 14.67 6.6 14.67 14.66z" fill="#0043a3"/>
 </g>
</svg>
