<svg width="900" height="900" version="1.1" viewBox="0 0 238.12 238.12" xmlns="http://www.w3.org/2000/svg">
 <g transform="matrix(.4625 0 0 .4625 .66146 .66146)">
  <circle cx="256" cy="256" r="256" fill="#b4edff" data-original="#d9d9db"/>
  <path class="" d="m512 256c0-31.545-5.72-61.751-16.155-89.655l-75.095-75.095h-329.5v329.5l75.095 75.095c27.904 10.435 58.11 16.155 89.655 16.155 141.38 0 256-114.62 256-256z" fill="#6ccdff" data-original="#aeadb3"/>
  <path class="" d="m256 91.25h164.75v164.75h-164.75z" fill="#008878" data-original="#008878"/>
  <path d="m351.24 256v-6.169c0-2.003 1.253-3.747 3.1-4.521 6.961-2.918 11.886-9.801 11.886-17.789 0-10.612-8.683-19.295-19.295-19.295h-17.107c-10.612 0-19.295 8.683-19.295 19.295 0 7.989 4.925 14.871 11.886 17.789 1.847 0.774 3.1 2.518 3.1 4.521v6.169h-69.513v164.75h164.75v-164.75z" fill="#681f7b" data-original="#681f7b"/>
  <path d="m283.72 310.53c-7.989 0-14.871 4.925-17.789 11.886-0.774 1.847-2.518 3.1-4.521 3.1h-5.415v-69.512h-164.75v164.75h164.75v-69.512h5.415c2.003 0 3.747 1.253 4.521 3.1 2.918 6.961 9.801 11.886 17.789 11.886 10.612 0 19.295-8.683 19.295-19.295v-17.107c0-10.613-8.683-19.296-19.295-19.296z" fill="#ffb84d" data-original="#ffb84d"/>
  <path d="m303.02 329.82v17.11c0 5.31-2.17 10.13-5.67 13.62-3.49 3.5-8.31 5.67-13.62 5.67-7.99 0-14.88-4.92-17.79-11.88-0.78-1.85-2.52-3.1-4.53-3.1h-5.41v-25.73h5.41c2.01 0 3.75-1.25 4.53-3.1 2.91-6.96 9.8-11.88 17.79-11.88 10.61 0 19.29 8.68 19.29 19.29z" fill="#ff8900" data-original="#ff8900"/>
  <path d="m256 256v-164.75h-164.75v164.75h69.512v7.262c0 2.003-1.253 3.747-3.099 4.521-6.961 2.918-11.886 9.801-11.886 17.789 0 10.612 8.683 19.295 19.295 19.295h17.107c10.612 0 19.295-8.683 19.295-19.295 0-7.988-4.925-14.871-11.886-17.789-1.847-0.774-3.099-2.518-3.099-4.521v-7.262z" fill="#ff328e" data-original="#ff328e"/>
  <path class="" d="m245.08 157.66c-2.918-6.961-9.801-11.886-17.789-11.886-10.612 0-19.295 8.683-19.295 19.295v17.107c0 10.612 8.683 19.295 19.295 19.295 7.989 0 14.871-4.925 17.789-11.886 0.774-1.847 2.518-3.099 4.521-3.099h6.402v-25.727h-6.402c-2.002 1e-3 -3.747-1.252-4.521-3.099z" fill="#00ad95" data-original="#00ad95"/>
 </g>
</svg>
