<svg width="900" height="900" version="1.1" viewBox="0 0 238.12 238.12" xmlns="http://www.w3.org/2000/svg">
 <g transform="matrix(.4625 0 0 .4625 .66146 .66146)">
  <circle cx="256" cy="256" r="256" fill="#ff7473"/>
  <path d="m512 256c0-6.903-0.282-13.74-0.818-20.505l-108.18-108.18-288.11 252.49 132.02 132.02c3.018 0.105 6.045 0.178 9.089 0.178 141.39 0 256-114.62 256-256z" fill="#da1716"/>
  <polygon points="366.37 127.31 237.69 127.31 226.19 265.7 237.69 384.69 384.69 384.69" fill="#d6e6fd"/>
  <g fill="#6c819f">
   <polygon points="338.9 265.7 237.69 265.7 231.94 274.31 237.69 282.93 338.9 282.93"/>
   <polygon points="338.9 302.33 237.69 302.33 231.94 310.94 237.69 319.55 338.9 319.55"/>
   <polygon points="338.9 338.95 237.69 338.95 231.94 347.57 237.69 356.18 338.9 356.18"/>
   <polygon points="237.69 155.82 226.19 201.06 237.69 246.3 338.36 246.3 338.36 155.82"/>
  </g>
  <path d="m109 127.31v239.06c0 10.114 8.199 18.312 18.313 18.312h110.37v-257.37z" fill="#f4f4ff"/>
  <g fill="#a1b8d8">
   <path d="m366.37 127.31v239.06c0 10.114 8.199 18.313 18.313 18.313s18.313-8.199 18.313-18.313v-239.06z"/>
   <rect x="136.47" y="155.82" width="82.36" height="17.227"/>
   <rect x="136.47" y="192.45" width="82.36" height="17.227"/>
   <rect x="136.47" y="229.07" width="82.36" height="17.227"/>
   <rect x="136.47" y="265.7" width="101.22" height="17.227"/>
   <rect x="136.47" y="302.33" width="101.22" height="17.227"/>
   <rect x="136.47" y="338.95" width="101.22" height="17.227"/>
  </g>
 </g>
</svg>
