<svg width="900" height="900" version="1.1" viewBox="0 0 238.12 238.12" xmlns="http://www.w3.org/2000/svg">
 <g transform="matrix(.4625 0 0 .4625 .66146 .66146)">
  <path d="m198.98 505.63c18.334 4.17 37.418 6.372 57.015 6.372 141.38 0 256-114.62 256-256s-114.62-256-256-256-256 114.62-256 256c0 49.887 14.269 96.441 38.949 135.8z" fill="#ff6c52"/>
  <path d="m511.51 239.97-107.18-107.18-13.287 16.134-30.617-30.617-8.645 15.76-38.171-38.171-111.7-8.315-72.516 44.236 42.432 42.432-28.567 21.82 56.136 56.136-8.66 28.901-68.369-68.369-20.883 24.65 78.754 78.754-46.634 155.63s41.312 28.377 65.332 33.846c18.351 4.176 37.453 6.383 57.071 6.383 141.38 0 256-114.62 256-256 0-5.383-0.167-10.728-0.494-16.029z" fill="#f92814"/>
  <path d="m417.94 226.9c-5.425-5.632-14.645-5.461-20.174 0.068l-69.831 69.831-3.884-3.884 92.059-92.059c6.42-6.419 6.42-16.828 0-23.247-6.419-6.419-16.827-6.419-23.247 0l-85.024 85.024-3.884-3.884 100.83-100.83c6.969-6.969 6.816-18.362-0.458-25.137-6.929-6.453-17.837-5.957-24.533 0.738l-94.904 94.904-4.683-4.683 80.475-80.749c6.747-6.891 6.631-17.946-0.26-24.693s-17.946-6.631-24.693 0.26l-92.317 90.182c0.286 0.389 0.564 0.788 0.832 1.196l30.424 46.377c8.651 13.189 4.506 31.587-9.26 41.095-7.116 4.916-15.411 6.492-22.958 5.046-0.116 13.632-4.605 27.213-13.382 38.402l-8.061-8.201c7.649-10.352 10.966-23.018 9.859-35.375-2.309-1.779-4.358-3.963-6.046-6.535l-17.526-26.716c2.593-1.125 7.184-5.149 7.184-5.149l14.731 21.865c6.617 9.821 19.942 12.418 29.763 5.802 9.821-6.617 12.419-19.943 5.802-29.764l-23.491-34.866c-6.617-9.821-19.942-12.419-29.763-5.802-1.922 1.295-57.464 57.122-57.464 57.122-12.809 12.81-16.16 31.54-10.076 47.46 6e-3 0.014 2e-3 0.03-9e-3 0.041l-31.958 31.958 80.953 80.953c17.855-17.854 33.638-33.637 33.638-33.637 0.01-0.01 0.024-0.014 0.038-0.01 16.094 4.506 33.934 1.119 47.405-10.164l143.71-143.4c5.386-5.388 5.448-14.08 0.188-19.541z" fill="#ffdecf"/>
  <path d="m397.77 226.97-69.831 69.831-3.884-3.884 92.059-92.059c6.419-6.419 6.419-16.828 0-23.247s-16.827-6.419-23.247 0l-85.024 85.024-3.884-3.884 100.83-100.83c6.875-6.875 6.805-18.047-0.182-24.851l-127.62 127.61c5.332 12.634 0.722 28.229-11.58 36.726-7.117 4.916-15.411 6.492-22.958 5.046-0.116 13.632-4.605 27.213-13.382 38.402l-8.061-8.201c5.681-7.689 8.968-16.656 9.831-25.824l-82.344 82.344 44.473 44.473c17.855-17.854 33.638-33.637 33.638-33.637 0.01-0.01 0.024-0.014 0.038-0.01 16.094 4.506 33.934 1.119 47.405-10.165l143.71-143.4c5.385-5.385 5.447-14.077 0.187-19.539-5.424-5.631-14.644-5.46-20.173 0.069z" fill="#ffbeaa"/>
  <path d="m38.95 391.8 74.004-65.876 132.87 132.87-46.836 46.836c-67.269-15.301-124.46-57.094-160.04-113.83z" fill="#fff"/>
  <path d="m88.276 449.39c31.203 27.084 69.018 46.751 110.71 56.234l46.836-46.836-83.471-83.471z" fill="#e9edf5"/>
  <path d="m129.39 131.81-15.768-25.522c42.896-26.502 91.493-36.347 144.45-29.264 22.095 2.956 41.288 11.635 55.54 18.865l-13.573 26.754c-12.136-6.157-28.326-13.527-45.944-15.884-45.902-6.14-87.858 2.288-124.7 25.051z" fill="#fff"/>
  <path d="m101.48 237.38-24.813-16.861c7.256-10.679 15.665-20.604 24.993-29.499l20.704 21.71c-7.793 7.432-14.819 15.725-20.884 24.65z" fill="#fff"/>
  <path d="m143.25 196.06-16.561-25.015c20.088-13.298 42.366-22.349 66.216-26.901 17.908-3.417 36.097-4.145 54.057-2.163l-3.29 29.819c-14.988-1.653-30.175-1.044-45.143 1.813-19.925 3.802-38.523 11.355-55.279 22.447z" fill="#fff"/>
 </g>
</svg>
