<svg width="900" height="900" version="1.1" viewBox="0 0 238.12 238.12" xmlns="http://www.w3.org/2000/svg">
 <g transform="matrix(.4625 0 0 .4625 .66146 .66146)">
  <circle cx="256" cy="256" r="256" fill="#7584f2"/>
  <path d="m509.63 290.95-243.71-243.71-3.099 23.145-31.886-31.885 0.389 52.792-128.03 121.78 24.352 141.54 68.763 68.763-45.488 32.786 49.868 49.868c17.78 3.908 36.252 5.968 55.206 5.968 129.53 0 236.59-96.2 253.63-221.05z" fill="#4253ce"/>
  <path d="m231.62 397.76c-81.107 0-147.09-65.985-147.09-147.09s65.985-147.09 147.09-147.09v43c-57.396 0-104.09 46.696-104.09 104.09 0 57.397 46.696 104.09 104.09 104.09 37.427 0 72.155-20.253 90.635-52.855l37.408 21.203c-26.099 46.047-75.162 74.652-128.04 74.652z" fill="#dbeeff"/>
  <path d="m359.67 323.11-37.408-21.203c-14.356 25.328-38.522 43.197-66.139 49.912v43.879c43.192-7.327 81.536-33.754 103.55-72.588z" fill="#a3d4ff"/>
  <path d="m271.16 287.84h155.46v49.32h-155.46z" fill="#65b1fc"/>
  <path d="m150.93 406.84h210.15v49.32h-210.15z" fill="#dbeeff"/>
  <path d="m232.54 406.84h128.53v49.32h-128.53z" fill="#a3d4ff"/>
  <path transform="matrix(.582 .813 -.813 .582 315.69 -177.83)" d="m303.42 184.8h54.953v67.005h-54.953z" fill="#dbeeff"/>
  <path d="m342.13 176.45-27.445 19.656 31.698 44.891 27.745-19.872z" fill="#a3d4ff"/>
  <path transform="matrix(.582 .813 -.813 .582 155.75 -154.16)" d="m200.41 51.05h54.953v46.865h-54.953z" fill="#dbeeff"/>
  <path d="m262.94 83.176-31.998-44.676-18.292 13.101 31.698 44.891z" fill="#a3d4ff"/>
  <circle cx="232.54" cy="381.64" r="38.613" fill="#a3d4ff"/>
  <path d="m232.54 343.03c21.326 0 38.613 17.288 38.613 38.613 0 21.326-17.288 38.613-38.613 38.613z" fill="#65b1fc"/>
  <path transform="matrix(.582 .813 -.813 .582 231.7 -165.4)" d="m192.8 95.993h168.01v93.571h-168.01z" fill="#a3d4ff"/>
  <path d="m265.93 47.24-37.428 26.807 96.915 137.25 38.344-27.464z" fill="#65b1fc"/>
 </g>
</svg>
