<svg width="900" height="900" version="1.1" viewBox="0 0 238.12 238.12" xmlns="http://www.w3.org/2000/svg">
 <g transform="matrix(.46285 0 0 .46285 .57322 .57322)">
  <path d="m512 256c0 141.39-114.61 256-256 256s-256-114.61-256-256 114.61-256 256-256 256 114.61 256 256z" fill="#fe6a16"/>
  <path d="m512 256c0-22.707-2.9727-44.719-8.5195-65.68l-84.887-84.887-325.19 50.684 41.84 41.844-16.637 58.039 18.992 18.992-34.578 28.223 57.316 57.316-38.117 56.266 91.75 91.75c13.676 2.2578 27.711 3.4531 42.027 3.4531 141.39 0 256-114.61 256-256z" fill="#f24500"/>
  <path d="m320.03 208.24h23v47.758h-23z" fill="#65b1fc"/>
  <path d="m370.39 236h23v20h-23z" fill="#65b1fc"/>
  <g fill="#a3d4ff">
   <path d="m118.61 135.82h23v120.18h-23z"/>
   <path d="m168.97 135.82h23v46.285h-23z"/>
   <path d="m219.32 135.82h23v65.176h-23z"/>
  </g>
  <g fill="#65b1fc">
   <path d="m317.39 146.64h23v45.832h-23z"/>
   <path d="m370.39 135.82h23v76.625h-23z"/>
   <path d="m292.68 201-25.648 2.6445v-31.777l25.648-2.6445z"/>
  </g>
  <path d="m154.89 421.91h-20.324c-9.6406 0-17.457-7.8164-17.457-17.461v-60.852c0-9.6406 7.8164-17.457 17.457-17.457h20.324c9.6406 0 17.457 7.8164 17.457 17.457v60.852c0 9.6445-7.8164 17.461-17.457 17.461z" fill="#414952"/>
  <path d="m377.44 421.91h-20.324c-9.6406 0-17.457-7.8164-17.457-17.461v-60.852c0-9.6406 7.8164-17.457 17.457-17.457h20.324c9.6406 0 17.457 7.8164 17.457 17.457v60.852c0 9.6445-7.8164 17.461-17.457 17.461z" fill="#333940"/>
  <path d="m370.9 303.21-20.578-60.91c-3.7148-11-14.035-18.406-25.648-18.406h-137.34c-11.613 0-21.934 7.4062-25.648 18.406l-20.578 60.91-23.836 5.8242c-10.742 2.625-17.805 12.898-16.414 23.867l5.1055 40.219c1.6524 13.008 12.719 22.762 25.832 22.762h248.42c13.113 0 24.184-9.7539 25.832-22.762l5.1055-40.219c1.3906-10.969-5.6719-21.242-16.414-23.867z" fill="#fff"/>
  <path d="m394.73 309.04-23.836-5.8242-20.578-60.91c-3.7148-11-14.035-18.406-25.648-18.406h-69.078v171.99h124.62c13.113 0 24.18-9.7539 25.828-22.762l5.1055-40.219c1.3945-10.969-5.668-21.242-16.41-23.867z" fill="#e9edf5"/>
  <path d="m141.1 303.21-23.836 5.8242c-10.742 2.625-17.805 12.898-16.414 23.867l5.1055 40.219c1.6524 13.008 12.719 22.762 25.832 22.762h248.42c13.113 0 24.184-9.7539 25.832-22.762l5.1055-40.219c1.3906-10.969-5.6719-21.242-16.414-23.867l-23.832-5.8242" fill="#fff"/>
  <path d="m394.73 309.04-23.836-5.8242h-115.3v92.672h124.62c13.113 0 24.18-9.7539 25.828-22.762l5.1055-40.219c1.3945-10.969-5.668-21.242-16.41-23.867z" fill="#e9edf5"/>
  <path d="m341.56 241.66h-171.12c-0.0703 0.21875-0.15625 0.42578-0.22266 0.64453l-18.719 60.91h209.01l-18.719-60.91c-0.0664-0.21875-0.15235-0.42578-0.22266-0.64453z" fill="#a3d4ff"/>
  <path d="m341.79 242.3c-0.0664-0.21875-0.15235-0.42578-0.22266-0.64453h-85.969v61.551h104.91z" fill="#65b1fc"/>
  <path d="m144.72 305.47h-35.594c-5.1992 0-9.4102-4.2109-9.4102-9.4062v-12.855c0-5.1953 4.2148-9.4062 9.4102-9.4062h26.188c5.1953 0 9.4062 4.2109 9.4062 9.4062z" fill="#fff"/>
  <path d="m104.91 364.85h49.957c8.2656 0 13.102-9.3047 8.3555-16.07l-7.332-10.449c-1.9102-2.7226-5.0312-4.3438-8.3555-4.3438h-46.543z" fill="#4a7aff"/>
  <path d="m367.28 305.47h35.594c5.1992 0 9.4102-4.2109 9.4102-9.4062v-12.855c0-5.1953-4.2148-9.4062-9.4102-9.4062h-26.188c-5.1953 0-9.4062 4.2109-9.4062 9.4062z" fill="#e9edf5"/>
  <path d="m407.09 364.85h-49.953c-8.2656 0-13.105-9.3047-8.3555-16.07l7.332-10.449c1.9102-2.7226 5.0273-4.3438 8.3555-4.3438h46.539z" fill="#0053bf"/>
  <path d="m181 349.55h149.99v15.301h-149.99z" fill="#a3d4ff"/>
  <path d="m255.59 349.55h75.402v15.301h-75.402z" fill="#65b1fc"/>
  <path d="m93.406 105.43h325.19v50.684h-325.19z" fill="#fff"/>
  <path d="m255.59 105.43h163v50.684h-163z" fill="#e9edf5"/>
 </g>
</svg>
