<svg width="900" height="900" version="1.1" viewBox="0 0 238.12 238.12" xmlns="http://www.w3.org/2000/svg">
 <g transform="matrix(.79731 0 0 .79731 .66146 .66146)">
  <circle cx="148.5" cy="148.5" r="148.5" fill="#345065"/>
  <path d="m297 148.5c0-8.645-0.747-17.115-2.165-25.356l-87.86-87.86-116.73 226.65 32.906 32.906c8.237 1.417 16.704 2.164 25.346 2.164 82.014 0 148.5-66.486 148.5-148.5z" fill="#223f51"/>
  <path d="m99.652 265.69h97.696c7.54 0 13.652-6.112 13.652-13.652v-207.07c0-7.54-6.112-13.652-13.652-13.652h-97.696c-7.54 1e-3 -13.652 6.113-13.652 13.652v207.07c0 7.54 6.112 13.653 13.652 13.653z" fill="#f3f3e9"/>
  <path d="m197.35 31.313h-49.181v234.38h49.181c7.54 0 13.652-6.112 13.652-13.652v-207.07c0-7.539-6.112-13.651-13.652-13.651z" fill="#d0d5d9"/>
  <circle cx="101.62" cy="44.333" r="5.208" fill="#345065"/>
  <circle cx="101.62" cy="252.67" r="5.208" fill="#345065"/>
  <circle cx="195.85" cy="44.333" r="5.208" fill="#345065"/>
  <circle cx="195.85" cy="252.67" r="5.208" fill="#345065"/>
  <circle cx="148.5" cy="195.38" r="46.875" fill="#5d7486"/>
  <circle cx="148.5" cy="86" r="31.25" fill="#5d7486"/>
  <path d="m148.5 148.5c-0.112 0-0.221 8e-3 -0.333 8e-3v93.733c0.112 1e-3 0.221 8e-3 0.333 8e-3 25.888 0 46.875-20.987 46.875-46.875 0-25.887-20.987-46.874-46.875-46.874z" fill="#516572"/>
  <path d="m148.5 54.75c-0.112 0-0.222 7e-3 -0.333 8e-3v62.483c0.111 1e-3 0.221 8e-3 0.333 8e-3 17.259 0 31.25-13.991 31.25-31.25s-13.991-31.249-31.25-31.249z" fill="#516572"/>
  <circle cx="148.5" cy="195.38" r="15.625" fill="#345065"/>
  <circle cx="148.5" cy="86" r="10.417" fill="#345065"/>
  <path d="m148.5 179.75c-0.112 0-0.221 0.014-0.333 0.017v31.216c0.112 2e-3 0.221 0.017 0.333 0.017 8.629 0 15.625-6.996 15.625-15.625s-6.996-15.625-15.625-15.625z" fill="#244051"/>
  <path d="m148.5 75.583c-0.112 0-0.221 0.013-0.333 0.017v20.8c0.112 4e-3 0.221 0.017 0.333 0.017 5.753 0 10.417-4.664 10.417-10.417s-4.664-10.417-10.417-10.417z" fill="#244051"/>
 </g>
</svg>
