<svg width="900" height="900" version="1.1" viewBox="0 0 238.12 238.12" xmlns="http://www.w3.org/2000/svg">
 <g transform="matrix(.46285 0 0 .46285 .57322 .57322)">
  <path d="m512 256c0 141.39-114.61 256-256 256s-256-114.61-256-256 114.61-256 256-256 256 114.61 256 256z" fill="#4a7aff"/>
  <path d="m512 256c0-1.8438-0.0312-3.6797-0.0703-5.5156l-66.43-66.43-26.062 34.438-106.44-106.43-136 39.996 65.398 65.398-46.434 29.066-62.465-62.465-55 136 191.55 191.55c134.85-7.2969 241.95-118.94 241.95-255.61z" fill="#0053bf"/>
  <path d="m333.5 204.11h85v91.891h-85z" fill="#bfe1ff"/>
  <path d="m202.5 130.11h85v91.891h-85z" fill="#dbeeff"/>
  <path d="m245 130.11h42.5v91.891h-42.5z" fill="#bfe1ff"/>
  <path d="m106 204.11h85v91.891h-85z" fill="#dbeeff"/>
  <path d="m304.5 380.32h-147v-196.27h212v133z" fill="#a3d4ff"/>
  <path d="m255.59 184.05v196.27h48.906l65-63.27v-133z" fill="#65b1fc"/>
  <path d="m181.5 184.05v196.27h123l4-3.8945v-192.38z" fill="#bfe1ff"/>
  <path d="m181.5 184.05h74.094v196.27h-74.094z" fill="#bfe1ff"/>
  <path d="m244.88 184.05v196.27h59.617l4-3.8945v-192.38z" fill="#a3d4ff"/>
  <path d="m390.5 184.05h55v136h-55z" fill="#65b1fc"/>
  <path d="m78.5 184.05h55v136h-55z" fill="#a3d4ff"/>
  <path d="m313 112.05v40h-136v-40z" fill="#a3d4ff"/>
  <path d="m245 112.05h68v40h-68z" fill="#65b1fc"/>
  <path d="m304.62 290.46v-25.031h-13.66c-1.0703-3.9375-2.6289-7.6758-4.6133-11.137l9.6602-9.6602-17.699-17.699-9.6602 9.6602c-3.4609-1.9844-7.1992-3.543-11.137-4.6133v-13.66h-25.031v13.66c-3.9375 1.0703-7.6719 2.6289-11.133 4.6133l-9.6602-9.6602-17.703 17.699 9.6602 9.6602c-1.9844 3.4648-3.543 7.1992-4.6133 11.137h-13.656v25.031h13.656c1.0703 3.9375 2.6289 7.6719 4.6133 11.137l-9.6602 9.6602 17.703 17.699 9.6602-9.6602c3.4609 1.9844 7.1953 3.543 11.133 4.6133v13.66h25.031v-13.66c3.9375-1.0703 7.6758-2.6289 11.137-4.6133l9.6602 9.6602 17.699-17.699-9.6602-9.6602c1.9844-3.4648 3.543-7.1992 4.6133-11.137zm-59.625 12.516c-13.824 0-25.031-11.207-25.031-25.031s11.207-25.031 25.031-25.031 25.031 11.207 25.031 25.031-11.207 25.031-25.031 25.031z" fill="#414952"/>
  <path d="m304.62 290.46v-25.031h-13.66c-1.0703-3.9375-2.6289-7.6719-4.6133-11.137l9.6602-9.6602-17.699-17.699-9.6602 9.6602c-3.4648-1.9844-7.1992-3.543-11.137-4.6133v-13.66h-12.633v34.594h0.11719c13.824 0 25.031 11.207 25.031 25.031s-11.207 25.031-25.031 25.031c-0.0391 0-0.0781-4e-3 -0.11719-4e-3v34.598h12.633v-13.66c3.9375-1.0703 7.6719-2.6289 11.137-4.6133l9.6602 9.6602 17.699-17.699-9.6602-9.6602c1.9844-3.4648 3.543-7.1992 4.6133-11.137z" fill="#333940"/>
 </g>
</svg>
