<svg width="900" height="900" version="1.1" viewBox="0 0 238.12 238.12" xmlns="http://www.w3.org/2000/svg">
 <g transform="matrix(.4625 0 0 .4625 .66146 .66146)">
  <circle cx="256" cy="256" r="256" fill="#ffdc00"/>
  <path d="m512 256c0-7.45-0.337-14.82-0.961-22.108l-173.89-173.89-128.98-6.162-31.829 31.829-52 340 81.383 81.383c16.26 3.239 33.071 4.95 50.283 4.95 141.39 0 256-114.62 256-256z" fill="#ffc000"/>
  <path d="m354.3 156.5h-20v-54.752c0-21.778-17.717-39.495-39.495-39.495s-39.495 17.718-39.495 39.495v54.752h-20v-54.752c0-32.806 26.689-59.495 59.495-59.495s59.495 26.689 59.495 59.495z" fill="#00263f"/>
  <path d="m294.8 42.252c-0.381 0-0.757 0.022-1.136 0.029v20c0.378-0.011 0.755-0.029 1.136-0.029 21.778 0 39.495 17.718 39.495 39.495v54.753h20v-54.752c0-32.806-26.69-59.496-59.495-59.496z" fill="#001521"/>
  <path d="m286.5 156.5h-20v-54.752c0-21.778-17.717-39.495-39.495-39.495s-39.495 17.718-39.495 39.495v54.752h-20v-54.752c0-32.806 26.689-59.495 59.495-59.495s59.495 26.689 59.495 59.495z" fill="#4b7689"/>
  <path d="m227 42.252c-0.224 0-0.444 0.014-0.667 0.017v20c0.223-4e-3 0.443-0.017 0.667-0.017 21.778 0 39.495 17.718 39.495 39.495v54.753h20v-54.752c0-32.806-26.689-59.496-59.495-59.496z" fill="#175d76"/>
  <rect x="124.33" y="131.67" width="215.17" height="294" fill="#f1333f"/>
  <rect x="329.67" y="131.67" width="74.67" height="294" fill="#ae283f"/>
  <path d="m318 271.47h-21.995l13.761-13.761-10.178-10.178-23.939 23.939h-19.105c-0.749-3.075-1.961-5.971-3.568-8.602l43.459-43.459-10.178-10.178-43.459 43.459c-2.632-1.607-5.527-2.819-8.602-3.568v-19.105l23.939-23.939-10.178-10.178-13.761 13.761v-21.995h-14.394v21.995l-13.761-13.761-10.178 10.178 23.939 23.939v19.105c-3.075 0.749-5.971 1.961-8.602 3.568l-43.459-43.459-10.178 10.178 43.459 43.459c-1.607 2.632-2.819 5.527-3.568 8.602h-19.105l-23.939-23.939-10.178 10.178 13.761 13.761h-21.993v14.394h21.995l-13.761 13.761 10.178 10.178 23.939-23.939h19.105c0.749 3.075 1.961 5.971 3.568 8.602l-43.459 43.459 10.178 10.178 43.459-43.459c2.632 1.606 5.527 2.819 8.602 3.568v19.105l-23.939 23.939 10.178 10.178 13.761-13.761v21.995h14.394v-21.995l13.761 13.761 10.178-10.178-23.939-23.939v-19.105c3.075-0.749 5.971-1.961 8.602-3.568l43.459 43.459 10.178-10.178-43.459-43.459c1.607-2.632 2.819-5.527 3.568-8.602h19.105l23.939 23.939 10.178-10.178-13.761-13.761h21.993zm-91 23.215c-8.833 0-16.019-7.186-16.019-16.019s7.186-16.019 16.019-16.019 16.019 7.186 16.019 16.019-7.186 16.019-16.019 16.019z" fill="#fff"/>
  <path d="m318 271.47h-21.995l13.761-13.761-10.178-10.178-23.939 23.939h-19.105c-0.749-3.075-1.961-5.971-3.568-8.602l43.459-43.459-10.178-10.178-43.459 43.459c-2.632-1.607-5.527-2.818-8.602-3.568v-19.105l23.939-23.939-10.178-10.178-13.761 13.761v-21.995h-7.864v75.015c0.223-9e-3 0.442-0.034 0.667-0.034 8.833 0 16.019 7.186 16.019 16.019s-7.186 16.019-16.019 16.019c-0.225 0-0.444-0.025-0.667-0.034v75.015h7.864v-21.995l13.761 13.761 10.178-10.178-23.939-23.939v-19.105c3.075-0.749 5.971-1.961 8.602-3.568l43.459 43.459 10.178-10.178-43.459-43.459c1.606-2.632 2.818-5.527 3.568-8.602h19.105l23.939 23.939 10.178-10.178-13.761-13.761h21.995z" fill="#e0e0e0"/>
 </g>
</svg>
