<svg width="900" height="900" version="1.1" viewBox="0 0 238.12 238.12" xmlns="http://www.w3.org/2000/svg">
 <g transform="matrix(.4625 0 0 .4625 .66146 .66146)">
  <circle cx="256" cy="256" r="256" fill="#c3dc4b"/>
  <path d="m508.96 295.52-168.63-168.63-18.741 35.762-225.43 82.746 38.027 39.758v122.85l103.33 103.33c6.106 0.436 12.268 0.67 18.485 0.67 127.94 0 233.96-93.862 252.96-216.48z" fill="#a0be2d"/>
  <path d="m321.59 126.89h18.741v56.222h-18.741z" fill="#464141"/>
  <path d="m256 120.6-121.82 106.59v180.81h243.63v-180.81z" fill="#fcf5f5"/>
  <path d="m377.82 227.19-121.82-106.59v287.4h121.82z" fill="#ebe1dc"/>
  <path d="m265.37 267.44h18.741v37.482h-18.741z" fill="#464141"/>
  <path d="m284.11 304.93v50.21h18.741v-40.84z" fill="#464141"/>
  <path d="m209.15 314.3v40.84h18.741v-50.21z" fill="#5a5555"/>
  <path d="m256 258.07h-37.482v18.74h84.334v-18.74z" fill="#5a5555"/>
  <path d="m256 258.07h46.852v18.741h-46.852z" fill="#464141"/>
  <path d="m316.4 334.61c-0.256 0.174-26.144 17.167-60.395 17.167-33.995 0-60.148-17.011-60.413-17.176l-10.377 15.602c1.245 0.833 30.93 20.315 70.79 20.315s69.546-19.482 70.79-20.315z" fill="#8f5041"/>
  <path d="m316.4 334.61c-0.256 0.174-26.144 17.167-60.395 17.167v18.741c39.861 0 69.546-19.482 70.79-20.315z" fill="#774132"/>
  <path d="m256 295.56h-28.111v-84.333h-18.741v103.07h93.704v-18.741z" fill="#8f5041"/>
  <path d="m256 295.56h46.852v18.741h-46.852z" fill="#774132"/>
  <path d="m256 105.06-159.84 140.33 12.335 14.111 147.51-129.54 147.51 129.54 12.335-14.111z" fill="#e79d25"/>
  <path d="m415.84 245.4-159.84-140.33v24.909l147.51 129.54z" fill="#ca741b"/>
 </g>
</svg>
