<svg width="900" height="900" version="1.1" viewBox="0 0 238.12 238.12" xmlns="http://www.w3.org/2000/svg">
 <g transform="matrix(.4625 0 0 .4625 .66146 .66146)">
  <circle cx="256" cy="256" r="256" fill="#ffce00"/>
  <path d="m501.29 329.49-133.98-133.98-97.908 20.38-121.37-121.37 34.081 220.93-43.656 83.232-40.978-12.169 123.04 123.04c11.595 1.608 23.437 2.439 35.474 2.439 115.84 0 213.71-76.941 245.29-182.51z" fill="#ffa300"/>
  <path d="m169.24 256.45h158.66v35.185h-158.66z" fill="#fff"/>
  <path d="m255.64 256.45h72.252v35.185h-72.252z" fill="#e9edf5"/>
  <path d="m348.02 405.24-32.794-85.445h-147.67l-48.802-218.74 29.279-6.533 43.567 195.27h144.24l40.183 104.7z" fill="#c38778"/>
  <path d="m335.85 289.8h-80.203v30h59.584l32.794 85.445 28.008-10.75z" fill="#a65d4e"/>
  <path transform="matrix(.358 -.934 .934 .358 -225.41 376.71)" d="m110.42 337.33h101.83v30h-101.83z" fill="#c38778"/>
  <path d="m310.54 218.34h30v86.463h-30z" fill="#a65d4e"/>
  <path d="m167.93 195.52h199.38v30h-199.38z" fill="#c38778"/>
  <path d="m255.64 195.52h111.67v30h-111.67z" fill="#a65d4e"/>
  <path d="m256 452.18c-59.879 0-116.17-23.318-158.52-65.66l21.213-21.213c36.675 36.675 85.437 56.873 137.3 56.873 51.866 0 100.63-20.198 137.3-56.873l21.213 21.213c-42.341 42.342-98.636 65.66-158.52 65.66z" fill="#b46e5a"/>
  <path d="m414.52 386.52-21.213-21.213c-36.675 36.674-85.437 56.872-137.3 56.872-0.119 0-0.237-4e-3 -0.356-4e-3v30c0.119 0 0.237 4e-3 0.356 4e-3 59.88 0 116.18-23.318 158.52-65.659z" fill="#915041"/>
 </g>
</svg>
