<svg width="900" height="900" version="1.1" viewBox="0 0 238.12 238.12" xmlns="http://www.w3.org/2000/svg">
 <g transform="matrix(.4625 0 0 .4625 .66146 .66146)">
  <circle class="" cx="256" cy="256" r="256" fill="#dbc084" data-original="#c5edf9"/>
  <path class="" d="m265.97 511.79c136.76-5.238 246.03-117.74 246.03-255.79 0-0.908-0.025-1.81-0.034-2.715l-98.027-98.027-15.909 7.965-20.237-20.237-6.577 33.662-42.768 21.413-75.248-75.248-17.148 2.7-178.18 178.18z" fill="#b5995c" data-original="#a7e5f7"/>
  <path d="m211.15 301.03c-33.766 0-61.139 27.373-61.139 61.139s27.373 61.139 61.139 61.139h14.329l20.38-55.407-20.38-66.871z" fill="#ff2b2f" data-original="#ff2b2f"/>
  <path d="m239.81 423.31c33.766 0 61.139-27.373 61.139-61.139s-27.373-61.139-61.139-61.139h-14.33v122.28z" fill="#d72226" data-original="#d72226"/>
  <path d="m225.48 268.42h-8.487v28.343c-5.495-1.726-13.881-2.981-25.827-1.396 0 0 9.467 4.305 14.718 9.145-4.334 2.025-8.91 5.122-13.198 9.854h32.794l4.244-26.355z" fill="#77dc5a" data-original="#77dc5a"/>
  <path d="m245.08 304.51c5.251-4.84 14.718-9.145 14.718-9.145-11.946-1.585-20.332-0.33-25.827 1.396v-28.343h-8.487v45.946h32.794c-4.288-4.732-8.864-7.829-13.198-9.854z" fill="#5bc83e" data-original="#5bc83e"/>
  <path d="m57.871 303.69s-6.937-55.061 83.432-145.43c17.661-17.661 45.857-18.1 62.977-0.979l-42.461 73.46z" fill="#ffd428" data-original="#ffd428"/>
  <path d="m57.871 303.69s55.061 6.937 145.43-83.432c17.661-17.661 18.1-45.857 0.979-62.977z" fill="#ffa21d" data-original="#ffa21d"/>
  <path d="m208.85 176.79-4.816-4.816 37.315-41.168 16.374 16.375z" fill="#00b479" data-original="#00b479"/>
  <path d="m189.59 157.53-4.816-4.816 29.609-48.873 16.375 16.374z" fill="#5bc83e" data-original="#5bc83e"/>
  <path d="m245.98 115.59-7.224-7.224-49.165 49.165 7.224 7.224 31.814-24.59z" fill="#77dc5a" data-original="#77dc5a"/>
  <path d="m196.78 164.76 49.157-49.157 7.222 7.223-49.157 49.157zm152.08 70.209-9.15-10.418h-13.781v52.936c-9.23-17.195-23.067-31.875-41.458-43.917l-15.099 23.059c29.036 19.014 43.032 45.304 42.785 80.373l27.544 0.194h0.019l8.607-8.918z" fill="#5bc83e" data-original="#5bc83e"/>
  <path d="m394.95 233.57c-18.39 12.042-32.228 26.722-41.458 43.917v-52.936h-13.782l-0.01 112.64h0.019l27.544-0.194c-0.247-35.069 13.748-61.359 42.785-80.373z" fill="#00b479" data-original="#00b479"/>
  <path d="m339.7 127.3c-18.061 0-34.039 8.85-43.884 22.436a27.374 27.374 0 0 0-11.105-2.344c-15.179 0-27.485 12.305-27.485 27.485 0 4.091 0.901 7.97 2.504 11.459-5.982 3.455-10.017 9.904-10.017 17.308 0 1.109 0.094 2.195 0.268 3.255-0.09-1e-3 -0.178-7e-3 -0.268-7e-3 -11.041 0-19.991 8.95-19.991 19.991s8.95 19.991 19.991 19.991c0.041 0 0.081-3e-3 0.122-3e-3 1.301 14.406 13.404 25.697 28.149 25.697 15.547 0 28.159-12.551 28.266-28.073 8.591 6.721 28.198 3.212 33.449-8.706l27.091-54.308z" fill="#77dc5a" data-original="#77dc5a"/>
  <path d="m339.7 127.3c18.061 0 34.039 8.85 43.884 22.436a27.374 27.374 0 0 1 11.105-2.344c15.179 0 27.485 12.305 27.485 27.485 0 4.091-0.901 7.97-2.504 11.459 5.982 3.455 10.017 9.904 10.017 17.308 0 1.109-0.094 2.195-0.268 3.255 0.09-1e-3 0.178-7e-3 0.268-7e-3 11.041 0 19.991 8.95 19.991 19.991s-8.95 19.991-19.991 19.991c-0.041 0-0.081-3e-3 -0.122-3e-3 -1.301 14.406-13.404 25.697-28.149 25.697-15.547 0-28.159-12.551-28.266-28.073-8.591 6.721-28.198 3.212-33.449-8.706z" fill="#5bc83e" data-original="#5bc83e"/>
 </g>
</svg>
