<svg width="900" height="900" version="1.1" viewBox="0 0 238.12 238.12" xmlns="http://www.w3.org/2000/svg">
 <g transform="matrix(.46285 0 0 .46285 .57322 .57322)">
  <path d="m512 256c0 141.39-114.61 256-256 256s-256-114.61-256-256 114.61-256 256-256 256 114.61 256 256z" fill="#ffd400"/>
  <path d="m319.18 504.14c110.83-28.133 192.82-128.55 192.82-248.14 0-7.7812-0.36719-15.477-1.0469-23.082l-69.75-69.746-44.32 53.238-190.67-49.359-54.547-54.551-59.59 25 91.668 91.664 13.746 135.34 31.609 31.609-10.703 7.2461z" fill="#fdba12"/>
  <path d="m424 310.07h-227.93l-50-146.9h295.13z" fill="#4a7aff"/>
  <path d="m441.2 163.17h-184.86v146.91h167.66z" fill="#2864f0"/>
  <path d="m421 364.5h-223.51l-64.695-227h-40.719v-25h59.59l64.695 227h204.64z" fill="#414952"/>
  <path d="m256.34 339.5h164.66v25h-164.66z" fill="#333940"/>
  <path d="m263.93 380.5c0 15.738-12.762 28.5-28.5 28.5-15.742 0-28.5-12.762-28.5-28.5s12.758-28.5 28.5-28.5c15.738 0 28.5 12.762 28.5 28.5z" fill="#414952"/>
  <g fill="#333940">
   <path d="m256.34 361.15v38.695c4.7031-5.082 7.582-11.875 7.582-19.348s-2.8789-14.266-7.582-19.348z"/>
   <path d="m403.69 380.5c0 15.738-12.762 28.5-28.5 28.5-15.742 0-28.5-12.762-28.5-28.5s12.758-28.5 28.5-28.5c15.738 0 28.5 12.762 28.5 28.5z"/>
  </g>
 </g>
</svg>
