<svg width="900" height="900" version="1.1" viewBox="0 0 238.12 238.12" xmlns="http://www.w3.org/2000/svg">
 <g transform="matrix(.46285 0 0 .46285 .57322 .57322)">
  <path d="m512 256c0 141.39-114.61 256-256 256s-256-114.61-256-256 114.61-256 256-256 256 114.61 256 256z" fill="#bd6018"/>
  <path d="m511.79 265.86-67.332-67.332-0.58203 0.49609-39.414-39.41-22.746 24.199-79.902-79.906-191.6 91.059 30.227 30.227-72.902 54.789 64.523 64.527-27.871 43.777 121.98 121.98c9.7891 1.1328 19.734 1.7383 29.828 1.7383 138.09 0 250.61-109.33 255.79-246.14z" fill="#7f4233"/>
  <path d="m202.26 117.23-84.113 34.391c-9.832 4.0195-16.254 13.59-16.254 24.211 0 14.445 11.707 26.156 26.156 26.156h127.95z" fill="#ffbeaa"/>
  <path d="m238.38 187.97c-0.32032 0-0.64063-0.0195-0.96485-0.0508l-79.352-8.4375c-4.9453-0.52343-8.5273-4.957-8-9.8984 0.52344-4.9453 4.9531-8.5195 9.9023-8l79.352 8.4336c4.9453 0.52734 8.5234 4.957 8 9.9023-0.49219 4.6172-4.3945 8.0508-8.9375 8.0508z" fill="#faa68e"/>
  <path d="m309.74 117.23 84.113 34.391c9.832 4.0195 16.254 13.59 16.254 24.211 0 14.445-11.707 26.156-26.156 26.156h-127.95z" fill="#faa68e"/>
  <path d="m273.62 187.97c-4.543 0-8.4453-3.4336-8.9375-8.0508-0.52343-4.9453 3.0586-9.375 8-9.9023l79.355-8.4336c4.9531-0.51953 9.375 3.0547 9.8984 8 0.52734 4.9414-3.0547 9.375-7.9961 9.8984l-79.355 8.4375c-0.32422 0.0312-0.64453 0.0508-0.96485 0.0508z" fill="#e09380"/>
  <path d="m314.4 140.12c0 32.254-26.148 58.398-58.402 58.398s-58.402-26.145-58.402-58.398c0-32.254 26.148-58.402 58.402-58.402s58.402 26.148 58.402 58.402z" fill="#ffdecf"/>
  <path d="m256 81.719c-0.0977 0-0.19141 0.0078-0.28516 0.0078v116.79c0.0937 0 0.1875 4e-3 0.28516 4e-3 32.254 0 58.402-26.145 58.402-58.398 0-32.254-26.148-58.402-58.402-58.402z" fill="#ffcdbe"/>
  <path d="m104.19 253.72h35.652v134.56h-35.652z" fill="#e6e6e6"/>
  <path d="m372.16 253.72h35.652v134.56h-35.652z" fill="#d7d7d7"/>
  <path d="m67.539 198.52h376.92v81.453h-376.92z" fill="#fff"/>
  <path d="m255.71 198.52h188.75v81.457h-188.75z" fill="#cbe8fe"/>
 </g>
</svg>
