<svg width="900" height="900" version="1.1" viewBox="0 0 238.12 238.12" xmlns="http://www.w3.org/2000/svg">
 <g transform="matrix(.4625 0 0 .4625 .66146 .66146)">
  <circle cx="256" cy="256" r="256" fill="#273b7a"/>
  <path d="m503.69 320.89-113.63-113.63-41.162-0.872-19.337-19.337-205.24 200.62 124.21 124.21c2.481 0.071 4.967 0.115 7.465 0.115 118.96 2e-3 218.96-81.146 247.69-191.1z" fill="#121149"/>
  <path d="m390.06 207.26-85.33-85.328-18.061 18.061c10.099 10.099 10.099 26.471 0 36.569l-164.74 164.74 2.391 46.368 46.368 2.391 164.74-164.74c10.099-10.099 26.471-10.099 36.569 0z" fill="#d0d1d3"/>
  <path d="m390.06 207.26-42.664-42.663-223.07 223.07 46.368 2.391 164.74-164.74c10.099-10.099 26.471-10.099 36.569 0z" fill="#a6a8aa"/>
  <path d="m304.74 121.94-18.061 18.061c10.099 10.099 10.099 26.471 0 36.569l-164.74 164.74 2.391 46.368 223.07-223.07z" fill="#d0d1d3"/>
  <g fill="#fff">
   <path d="m313.93 258.96c-0.626 0-1.26-0.098-1.888-0.303l-82.558-27.15c-3.165-1.041-4.887-4.451-3.846-7.618s4.458-4.882 7.618-3.846l82.558 27.15c3.165 1.041 4.887 4.451 3.846 7.618-0.835 2.538-3.196 4.149-5.73 4.149z"/>
   <path d="m337.65 235.24c-0.626 0-1.26-0.098-1.888-0.303l-82.56-27.15c-3.165-1.041-4.887-4.451-3.846-7.618s4.461-4.884 7.618-3.846l82.56 27.15c3.165 1.041 4.887 4.451 3.846 7.618-0.834 2.537-3.196 4.149-5.73 4.149z"/>
   <path d="m290.22 282.67c-0.626 0-1.26-0.098-1.888-0.303l-82.56-27.152c-3.165-1.041-4.887-4.451-3.846-7.618s4.458-4.88 7.618-3.846l82.56 27.152c3.165 1.041 4.887 4.451 3.846 7.618-0.836 2.537-3.197 4.149-5.73 4.149z"/>
   <path d="m266.5 306.39c-0.626 0-1.26-0.098-1.888-0.303l-82.558-27.15c-3.165-1.041-4.887-4.451-3.846-7.618s4.458-4.884 7.618-3.846l82.558 27.15c3.165 1.041 4.887 4.451 3.846 7.618-0.834 2.537-3.197 4.149-5.73 4.149z"/>
   <path d="m242.79 330.1c-0.626 0-1.26-0.098-1.888-0.303l-82.558-27.148c-3.165-1.041-4.887-4.451-3.846-7.618s4.458-4.882 7.618-3.846l82.56 27.15c3.165 1.041 4.887 4.451 3.846 7.618-0.836 2.537-3.197 4.147-5.732 4.147z"/>
   <path d="m219.08 353.81c-0.626 0-1.26-0.098-1.888-0.303l-82.56-27.15c-3.165-1.041-4.887-4.451-3.846-7.618s4.461-4.88 7.618-3.846l82.56 27.15c3.165 1.041 4.887 4.451 3.846 7.618-0.834 2.539-3.196 4.149-5.73 4.149z"/>
   <path d="m343.13 160.33-15.238 15.238c-2.357 2.357-2.357 6.177 0 8.533 2.357 2.357 6.177 2.357 8.533 0l15.238-15.238z"/>
  </g>
  <g fill="#d0d1d3">
   <path d="m315.82 247.19-38.383-12.622-9.561 9.561 44.173 14.527c0.626 0.205 1.26 0.303 1.888 0.303 2.534 0 4.896-1.612 5.73-4.149 1.04-3.169-0.682-6.579-3.847-7.62z"/>
   <path d="m339.53 223.47-38.385-12.622-9.561 9.561 44.173 14.527c0.626 0.205 1.26 0.303 1.888 0.303 2.534 0 4.896-1.612 5.73-4.149 1.042-3.169-0.68-6.578-3.845-7.62z"/>
   <path d="m292.1 270.9-38.384-12.624-9.561 9.561 44.173 14.527c0.626 0.205 1.26 0.303 1.888 0.303 2.534 0 4.896-1.612 5.73-4.149 1.041-3.167-0.681-6.577-3.846-7.618z"/>
   <path d="m268.39 294.62-38.383-12.622-9.561 9.561 44.173 14.527c0.626 0.205 1.26 0.303 1.888 0.303 2.534 0 4.896-1.612 5.73-4.149 1.038-3.169-0.684-6.577-3.847-7.62z"/>
   <path d="m244.68 318.33-38.384-12.622-9.561 9.561 44.175 14.527c0.626 0.205 1.26 0.303 1.888 0.303 2.534 0 4.896-1.612 5.73-4.149 1.039-3.169-0.683-6.577-3.848-7.62z"/>
   <path d="m220.96 342.05-38.384-12.622-9.561 9.561 44.173 14.527c0.626 0.205 1.26 0.303 1.888 0.303 2.534 0 4.896-1.612 5.73-4.149 1.041-3.169-0.681-6.577-3.846-7.62z"/>
   <path d="m327.9 184.1c2.357 2.355 6.177 2.355 8.532 0l15.238-15.238-4.267-4.267z"/>
  </g>
 </g>
</svg>
