<svg width="900" height="900" version="1.1" viewBox="0 0 238.12 238.12" xmlns="http://www.w3.org/2000/svg">
 <g transform="matrix(.4625 0 0 .4625 .66146 .66146)">
  <circle id="XMLID_19_" cx="256" cy="256" r="256" fill="#5b5b6d"/>
  <path d="m286.35 510.2c127.08-15.015 225.65-123.09 225.65-254.2 0-29.654-5.059-58.123-14.333-84.611l-82.732-82.733-329.9 52.817-12.037 89.667 178.7 178.5-8.348 57.497z" fill="#40404c"/>
  <path d="m93.215 196.24v-29.473c0-7.368 5.994-13.362 13.362-13.362h167.67v-35h-167.67c-26.667 0-48.362 21.695-48.362 48.362v29.473c0 22.756 15.501 42.153 37.696 47.172l160.84 36.369v83.428h17.5l12.946-64.47-12.946-50.884-170.62-38.582c-6.132-1.386-10.415-6.746-10.415-13.033z" fill="#fff085"/>
  <path d="m291.75 363.21v-111.4l-17.5-3.957v115.35z" fill="#ffd05a"/>
  <path d="m153.62 79.156c-14.309 0-25.908 11.599-25.908 25.908v61.69c0 14.309 11.6 25.908 25.908 25.908h120.63l75.063-56.753-75.063-56.753z" fill="#fff"/>
  <path d="m394.88 79.156h-120.63v113.51h120.63c14.309 0 25.908-11.599 25.908-25.908v-61.69c0-14.309-11.599-25.908-25.908-25.908z" fill="#e0e0e0"/>
  <path d="m239.53 336.67v120.89c0 7.696 6.239 13.935 13.935 13.935h20.783l21.416-71.105-21.416-77.658h-20.783c-7.696 0-13.935 6.239-13.935 13.935z" fill="#ffac27"/>
  <path d="m295.04 471.5c7.696 0 13.935-6.239 13.935-13.935v-120.89c0-7.696-6.239-13.935-13.935-13.935h-20.783v148.76z" fill="#ff8e12"/>
 </g>
</svg>
