<svg id="Capa_1" enable-background="new 0 0 512 512" height="512" viewBox="0 0 512 512" width="512" xmlns="http://www.w3.org/2000/svg"><g><g><g><g><g><g><g><g><g><g><g><g><g><g><g><g><g><g><g><g><g><circle cx="256" cy="256" fill="#d79b8c" r="256"/></g></g></g></g></g></g></g></g></g></g></g></g></g></g></g></g></g></g></g></g><path d="m327.256 501.952c93.292-26.981 164.662-105.604 181.139-202.898l-82.207-82.207-24.841 11.35-31.457-31.457-1.514 2.653-8.732-8.732-9.096 5.804-83.715-83.715-160.819 16.475-15.524 92.706 43.306 43.306-28.167 15.088z" fill="#b46e5a"/><g><g><path d="m432.495 326.035-46.393 14.93-36.49-113.388 46.393-14.93c18.435-5.933 38.258 4.239 44.191 22.673l14.972 46.524c5.932 18.434-4.238 38.258-22.673 44.191zm-31.608-13.887 24.592-7.914c6.413-2.064 9.952-8.961 7.888-15.374l-14.972-46.524c-2.064-6.413-8.961-9.952-15.374-7.888l-24.592 7.914z" fill="#e9edf5"/></g></g><g><g><path d="m305.352 188.963c-.215.063-.431.118-.646.188-7.775 2.502-13.556 8.326-16.278 15.399-3.812-.791-7.875-.636-11.846.642-12.245 3.941-18.977 17.062-15.036 29.307l53.051-17.072-2.443-16.961z" fill="#fff"/></g></g><g><g><path d="m366.214 200.815c-3.941-12.245-17.062-18.977-29.307-15.036-3.971 1.278-7.361 3.521-9.997 6.387-6.336-4.158-14.428-5.518-22.204-3.015-.07.022-.137.05-.207.073l9.243 28.478z" fill="#e9edf5"/></g></g><g><g><path d="m256.183 233.333 58.503 181.79 58.051-18.682-24.441-86.54-34.55-95.093z" fill="#ffce00"/></g></g><g><g><path d="m369.89 196.74-56.998 18.343 58.958 181.644 56.543-18.197z" fill="#fdba12"/></g></g><g><g><g><path d="m353.741 227.868h24.332v137.439h-24.332z" fill="#ffa300" transform="matrix(.952 -.306 .306 .952 -73.265 126.354)"/></g></g><g><g><path d="m305.486 243.397h24.332v137.439h-24.332z" fill="#fdba12" transform="matrix(.952 -.306 .306 .952 -80.343 112.317)"/></g></g></g><g><g><path d="m313.097 212.809h-28.098v46.615c0 7.877 6.386 14.263 14.263 14.263s14.262-6.385 14.262-14.263v-45.299l.292-.815z" fill="#fff"/></g></g><g><g><path d="m313.524 212.809h-1.37l1.37 4.223z" fill="#e9edf5"/></g></g><g><g><path d="m78.855 183.639 14.972-46.524c5.933-18.435 25.756-28.606 44.191-22.673l46.393 14.93-36.49 113.388-46.393-14.93c-18.435-5.933-28.606-25.757-22.673-44.191zm76.738-39.482-24.592-7.914c-6.413-2.064-13.31 1.475-15.374 7.888l-14.972 46.524c-2.064 6.413 1.475 13.31 7.888 15.374l24.592 7.914z" fill="#fff"/></g></g><g><g><path d="m229.317 90.945c-7.776-2.502-15.868-1.142-22.204 3.015-2.635-2.865-6.026-5.109-9.997-6.387-12.245-3.941-25.366 2.792-29.307 15.037l52.755 16.977 7.31-13.517 1.862-14.977c-.142-.048-.278-.102-.419-.148z" fill="#fff"/></g></g><g><g><path d="m257.44 106.987c-3.971-1.278-8.034-1.433-11.846-.642-2.722-7.073-8.502-12.897-16.278-15.399-.044-.014-.089-.025-.133-.038l-9.274 28.47 52.567 16.917c3.941-12.247-2.791-25.368-15.036-29.308z" fill="#e9edf5"/></g></g><g><g><path d="m164.133 98.534-58.503 181.791 57.267 18.43 32.779-94.825 25.731-86.964z" fill="#ffce00"/></g></g><g><g><path d="m277.84 135.127-57.078-18.368-59.151 181.582 57.725 18.577z" fill="#fdba12"/></g></g><g><g><g><path d="m155.949 129.663h24.332v137.439h-24.332z" fill="#fdba12" transform="matrix(-.952 -.306 .306 -.952 267.374 438.728)"/></g></g><g><g><path d="m204.204 145.192h24.332v137.439h-24.332z" fill="#ffa300" transform="matrix(-.952 -.306 .306 -.952 356.807 483.822)"/></g></g></g><g><g><path d="m205.356 107.827v46.615c0 2.498.646 4.843 1.773 6.884l12.596-29.566 4.624-23.933z" fill="#fff"/></g></g><g><g><path d="m223.672 107.827-17.075 52.416c2.224 4.983 7.212 8.462 13.022 8.462 7.877 0 14.262-6.386 14.262-14.263v-46.615z" fill="#e9edf5"/></g></g></g></svg>