<svg width="900" height="900" version="1.1" viewBox="0 0 238.12 238.12" xmlns="http://www.w3.org/2000/svg">
 <g transform="matrix(.4625 0 0 .4625 .66146 .66146)">
  <circle cx="256" cy="256" r="256" fill="#ffce00"/>
  <path d="m512 256c0-0.749-3e-3 -1.497-0.01-2.245l-78.123-78.123-2.747 2.078-97.061-97.313-186.58 127.31 125.75 130.75-129.79 48.071 25.447 25.447-20.605 16.334 82.464 82.464c8.309 0.814 16.734 1.23 25.256 1.23 141.38 0 256-114.62 256-256z" fill="#ffa300"/>
  <path d="m433.87 371.81h-121.22v-196.18h121.22zm-91.217-30h61.217v-136.18h-61.217z" fill="#333940"/>
  <path d="m356 428.3h-70.445v-306.31h59.783z" fill="#a65d4e"/>
  <path d="m218.72 428.3h-70.445l10.662-306.31h59.783z" fill="#c38778"/>
  <path d="m216.92 121.99v306.31h35.254l14.518-168.26-14.518-138.05z" fill="#d79b8c"/>
  <path d="m251.31 121.99h36.053v306.31h-36.053z" fill="#b46e5a"/>
  <path d="m143.44 333.33v53.197h108.73l9.828-26.599-9.828-26.598z" fill="#636978"/>
  <path d="m251.31 333.33h109.53v53.197h-109.53z" fill="#414952"/>
  <path d="m147.47 154.51v53.197h104.7l9.828-27.773-9.828-25.424z" fill="#636978"/>
  <path d="m251.31 154.51h105.5v53.197h-105.5z" fill="#414952"/>
  <path d="m201.38 66.122c-21.536 0-38.994 17.458-38.994 38.994v16.877h20.147v68.067c0 11.944 9.682 21.626 21.626 21.626s21.626-9.682 21.626-21.626v-68.067h26.388l9.828-27.936-10.69-27.936h-49.931z" fill="#ffe89c"/>
  <path d="m342.9 105.12c0-21.536-17.458-38.994-38.994-38.994h-52.598v55.871h91.592z" fill="#ffde91"/>
 </g>
</svg>
