<svg width="900" height="900" version="1.1" viewBox="0 0 238.12 238.12" xmlns="http://www.w3.org/2000/svg">
 <g transform="matrix(.4625 0 0 .4625 .66146 .66146)">
  <circle cx="256" cy="256" r="256" fill="#d79b8c"/>
  <path d="m327.26 501.95c93.292-26.981 164.66-105.6 181.14-202.9l-82.207-82.207-24.841 11.35-31.457-31.457-1.514 2.653-8.732-8.732-9.096 5.804-83.715-83.715-160.82 16.475-15.524 92.706 43.306 43.306-28.167 15.088z" fill="#b46e5a"/>
  <path d="m432.5 326.04-46.393 14.93-36.49-113.39 46.393-14.93c18.435-5.933 38.258 4.239 44.191 22.673l14.972 46.524c5.932 18.434-4.238 38.258-22.673 44.191zm-31.608-13.887 24.592-7.914c6.413-2.064 9.952-8.961 7.888-15.374l-14.972-46.524c-2.064-6.413-8.961-9.952-15.374-7.888l-24.592 7.914z" fill="#e9edf5"/>
  <path d="m305.35 188.96c-0.215 0.063-0.431 0.118-0.646 0.188-7.775 2.502-13.556 8.326-16.278 15.399-3.812-0.791-7.875-0.636-11.846 0.642-12.245 3.941-18.977 17.062-15.036 29.307l53.051-17.072-2.443-16.961z" fill="#fff"/>
  <path d="m366.21 200.82c-3.941-12.245-17.062-18.977-29.307-15.036-3.971 1.278-7.361 3.521-9.997 6.387-6.336-4.158-14.428-5.518-22.204-3.015-0.07 0.022-0.137 0.05-0.207 0.073l9.243 28.478z" fill="#e9edf5"/>
  <path d="m256.18 233.33 58.503 181.79 58.051-18.682-24.441-86.54-34.55-95.093z" fill="#ffce00"/>
  <path d="m369.89 196.74-56.998 18.343 58.958 181.64 56.543-18.197z" fill="#fdba12"/>
  <path transform="matrix(.952 -.306 .306 .952 -73.265 126.35)" d="m353.74 227.87h24.332v137.44h-24.332z" fill="#ffa300"/>
  <path transform="matrix(.952 -.306 .306 .952 -80.343 112.32)" d="m305.49 243.4h24.332v137.44h-24.332z" fill="#fdba12"/>
  <path d="m313.1 212.81h-28.098v46.615c0 7.877 6.386 14.263 14.263 14.263s14.262-6.385 14.262-14.263v-45.299l0.292-0.815z" fill="#fff"/>
  <path d="m313.52 212.81h-1.37l1.37 4.223z" fill="#e9edf5"/>
  <path d="m78.855 183.64 14.972-46.524c5.933-18.435 25.756-28.606 44.191-22.673l46.393 14.93-36.49 113.39-46.393-14.93c-18.435-5.933-28.606-25.757-22.673-44.191zm76.738-39.482-24.592-7.914c-6.413-2.064-13.31 1.475-15.374 7.888l-14.972 46.524c-2.064 6.413 1.475 13.31 7.888 15.374l24.592 7.914z" fill="#fff"/>
  <path d="m229.32 90.945c-7.776-2.502-15.868-1.142-22.204 3.015-2.635-2.865-6.026-5.109-9.997-6.387-12.245-3.941-25.366 2.792-29.307 15.037l52.755 16.977 7.31-13.517 1.862-14.977c-0.142-0.048-0.278-0.102-0.419-0.148z" fill="#fff"/>
  <path d="m257.44 106.99c-3.971-1.278-8.034-1.433-11.846-0.642-2.722-7.073-8.502-12.897-16.278-15.399-0.044-0.014-0.089-0.025-0.133-0.038l-9.274 28.47 52.567 16.917c3.941-12.247-2.791-25.368-15.036-29.308z" fill="#e9edf5"/>
  <path d="m164.13 98.534-58.503 181.79 57.267 18.43 32.779-94.825 25.731-86.964z" fill="#ffce00"/>
  <path d="m277.84 135.13-57.078-18.368-59.151 181.58 57.725 18.577z" fill="#fdba12"/>
  <path transform="matrix(-.952 -.306 .306 -.952 267.37 438.73)" d="m155.95 129.66h24.332v137.44h-24.332z" fill="#fdba12"/>
  <path transform="matrix(-.952 -.306 .306 -.952 356.81 483.82)" d="m204.2 145.19h24.332v137.44h-24.332z" fill="#ffa300"/>
  <path d="m205.36 107.83v46.615c0 2.498 0.646 4.843 1.773 6.884l12.596-29.566 4.624-23.933z" fill="#fff"/>
  <path d="m223.67 107.83-17.075 52.416c2.224 4.983 7.212 8.462 13.022 8.462 7.877 0 14.262-6.386 14.262-14.263v-46.615z" fill="#e9edf5"/>
 </g>
</svg>
