<svg width="900" height="900" version="1.1" viewBox="0 0 238.12 238.12" xmlns="http://www.w3.org/2000/svg">
 <g transform="matrix(.4625 0 0 .4625 .66146 .66146)">
  <circle cx="256" cy="256" r="256" fill="#fdba12"/>
  <path d="m510.5 283.89-69.131-69.131-3.622 32.548-135.55-135.55-61.708 30 41.998 41.998-179.27 25.272-36.335 62.934 60.049 60.049-45.367 31.829 146.67 146.67c9.122 0.984 18.387 1.489 27.77 1.489 131.96 0 240.6-99.844 254.5-228.11z" fill="#ff9d00"/>
  <path d="m329.26 225.59-45.009-83.834h-43.764v-30h61.708l53.497 99.644z" fill="#333940"/>
  <path d="m302.2 111.76h-46.358v30h28.414l45.009 83.834 26.432-14.19z" fill="#202428"/>
  <path d="m85.082 227.35h344.33v89.606h-344.33z" fill="#333940"/>
  <path d="m255.84 227.35h173.57v89.606h-173.57z" fill="#202428"/>
  <circle cx="126.28" cy="324.75" r="59.396" fill="#555a66"/>
  <circle cx="126.28" cy="324.75" r="26.609" fill="#707789"/>
  <circle cx="392.97" cy="324.75" r="59.396" fill="#333940"/>
  <circle cx="392.97" cy="324.75" r="26.609" fill="#555a66"/>
  <path d="m271.75 225.66h-172.16v-13.82c0-19.323 15.665-34.988 34.988-34.988h137.18z" fill="#333940"/>
  <path d="m66.879 271.96 18.203-24.405h100.59l46.942 89.606h67.544l43.579-89.606h85.673l22.958 24.405v-34.177c0-16.356-13.259-29.615-29.615-29.615h-29.782l-60.122-43.839h-76.328l0.726 40.352h-160.75c-16.356 0-29.615 13.259-29.615 29.615z" fill="#f24500"/>
  <path d="m422.75 208.17h-29.781l-60.122-43.838h-76.328l0.726 40.352h-1.406v132.48h44.318l43.579-89.606h85.673l22.958 24.405v-34.177c-2e-3 -16.356-13.261-29.615-29.617-29.615z" fill="#d13400"/>
  <path d="m240.11 313.19h48.804l22.788-46.856h-96.139z" fill="#fe6a16"/>
  <path d="m311.7 266.33h-55.86v46.856h33.072z" fill="#fa5d0f"/>
 </g>
</svg>
