<svg width="900" height="900" version="1.1" viewBox="0 0 238.12 238.12" xmlns="http://www.w3.org/2000/svg">
 <g transform="matrix(.4625 0 0 .4625 .66146 .66146)">
  <circle cx="256" cy="256" r="256" fill="#ffce00"/>
  <path d="m511.09 234.3-76.697-76.697-8.643 6.066-25.549-25.549-110.4 77.511-116.09-116.09-59.171 66.881 101.9 100.71-150.04 105.34 133.32 133.32c18.108 4.062 36.941 6.205 56.274 6.205 141.38 0 256-114.62 256-256 0-7.307-0.306-14.543-0.907-21.695z" fill="#ffa300"/>
  <path d="m395.43 157.61h38.965v47.435h-38.965z" fill="#636978"/>
  <path d="m204.67 146.12c0-13.294-9.387-24.395-21.894-27.038-0.494-14.828-12.67-26.698-27.619-26.698s-27.125 11.869-27.619 26.698c-12.507 2.643-21.894 13.744-21.894 27.038 0 15.006 11.96 27.218 26.868 27.624v106.69l45.291-47.435v-59.252c14.906-0.407 26.867-12.619 26.867-27.624z" fill="#fff"/>
  <path d="m272.19 248.13h75.104v40.681h-75.104z" fill="#636978"/>
  <path d="m74.754 334.23-8.345 6e-3v38.242h189.24l6.356-20.143-6.356-20.143z" fill="#e9edf5"/>
  <path d="m416.9 330.41-161.25 1.802v40.269h161.25z" fill="#cdd2e1"/>
  <path d="m226 268.51 12.163-16.217c5.284-7.046 11.734-13.04 19.005-17.78l8.335-29.475-8.335-32.004-37.293 9.103c-53.503 13.06-98.199 49.675-121.53 99.562l-23.593 52.527h180.89l6.356-25.681-6.356-40.035z" fill="#00c8c8"/>
  <path d="m400.2 138.12-144.56 35.286v62.138c7.362-5.061 15.615-8.814 24.414-10.99l71.12-17.589 12.517 61.544h-108.05v65.716h184.2z" fill="#00a0aa"/>
 </g>
</svg>
