<svg width="900" height="900" version="1.1" viewBox="0 0 238.12 238.12" xmlns="http://www.w3.org/2000/svg">
 <g transform="matrix(.46305 0 0 .46305 .52524 .52145)">
  <circle transform="matrix(.707 -.707 .707 .707 -106.04 256)" cx="256" cy="256" r="256" fill="#a3d4ff"/>
  <path d="m292.9 509.36c123.9-17.885 219.1-124.5 219.1-253.36 0-12.095-0.839-23.995-2.462-35.643l-111.32-111.32-0.827 0.818-47.977-47.977-188.08 315.92z" fill="#65b1fc"/>
  <path d="m177.58 76.879c0 26.045-21.114 47.159-47.159 47.159h-1.645v142.34c0 42.431 19.306 82.557 52.46 109.04l74.76 59.71 0.862-0.688 10-184.43-10-173.12h-79.278z" fill="#7584f2"/>
  <path d="m381.58 124.04c-26.045 0-47.159-21.114-47.159-47.159h-78.374v358.21l74.718-59.676c33.155-26.48 52.46-66.606 52.46-109.04v-142.34z" fill="#606aea"/>
  <path d="m256 415.92-65.399-52.233c-29.755-23.765-46.821-59.235-46.821-97.316v-128.78c23.024-5.061 41.307-22.922 46.975-45.715h66.108l10-15-10-15h-94.278v15c0 17.732-14.427 32.159-32.159 32.159h-16.646v157.34c0 47.254 21.176 91.269 58.099 120.76l84.121 67.185 0.862-0.688 10-19.197-10-19.197z" fill="#fff"/>
  <path d="m381.58 109.04c-17.732 0-32.159-14.427-32.159-32.159v-15h-93.374v30h65.203c5.668 22.793 23.951 40.654 46.975 45.715v128.78c0 38.082-17.065 73.552-46.821 97.316l-65.357 52.199v38.394l84.079-67.152c36.923-29.489 58.099-73.503 58.099-120.76v-157.34z" fill="#e9edf5"/>
  <path d="m243.28 123.32v204.49h13.582l10-102.24-10-102.24z" fill="#ffce00"/>
  <path d="m256.04 123.32h12.678v204.49h-12.678z" fill="#fdba12"/>
  <path d="m182.94 304.92v27.175h73.923l10-13.588-10-13.587z" fill="#fdba12"/>
  <path d="m256.04 304.92h73.019v27.176h-73.019z" fill="#ffa300"/>
  <path d="m227.36 242.33-21.393-82.683-9.458 2.447-9.458-2.447-21.394 82.683 17.182 4.445 13.67-52.832 13.67 52.832z" fill="#ffce00"/>
  <path d="m196.51 273.14c-18.521 0-33.536-15.014-33.536-33.535v-7.517h67.071v7.517c0 18.521-15.014 33.535-33.535 33.535z" fill="#fdba12"/>
  <path d="m346.34 242.33-21.392-82.683-9.459 2.447-9.458-2.447-21.393 82.683 17.182 4.445 13.669-52.832 13.67 52.832z" fill="#fdba12"/>
  <path d="m315.49 273.14c-18.521 0-33.536-15.014-33.536-33.535v-7.517h67.071v7.517c1e-3 18.521-15.013 33.535-33.535 33.535z" fill="#ffa300"/>
  <path d="m256 136.43c-9.687 0-18.049 5.673-21.947 13.877h-70.854v20.815h70.854c3.898 8.204 12.26 13.877 21.947 13.877 0.29 0 0.575-0.021 0.862-0.031l10-24.253-10-24.253c-0.287-0.011-0.572-0.032-0.862-0.032z" fill="#fdba12"/>
  <path d="m277.95 150.31c-3.892-8.192-12.235-13.859-21.905-13.875v48.566c9.669-0.017 18.013-5.683 21.905-13.875h70.854v-20.815h-70.854z" fill="#ffa300"/>
 </g>
</svg>
