<svg width="900" height="900" version="1.1" viewBox="0 0 238.12 238.12" xmlns="http://www.w3.org/2000/svg">
 <g transform="matrix(.4625 0 0 .4625 .66146 .66146)">
  <circle cx="256" cy="256" r="256" fill="#ff8870"/>
  <path d="m505.71 199.35-76.658-75.614-50.328 3.554-34.714 48.634 99.197 99.197-71.275 67.565-219.27-219.57-60.146 4.173 1.755 258.74 123.08 123.07c12.605 1.909 25.513 2.899 38.652 2.899 141.38 0 256-114.62 256-256 0-19.467-2.173-38.426-6.289-56.648z" fill="#ff583e"/>
  <path d="m224.79 324.55c0-39.084-31.684-70.769-70.769-70.769s-70.769 31.685-70.769 70.769c0 0.693 0.032 1.378 0.052 2.066l70.717 8.577 70.717-8.577c0.02-0.687 0.052-1.372 0.052-2.066z" fill="#fff"/>
  <path d="m83.255 324.51c0 0.016-1e-3 0.032-1e-3 0.047 0 39.085 31.684 70.769 70.769 70.769s70.769-31.684 70.769-70.769c0-0.016-1e-3 -0.031-1e-3 -0.047z" fill="#e9edf5"/>
  <path d="m428.75 324.55c0-39.084-31.684-70.769-70.769-70.769s-70.769 31.685-70.769 70.769c0 0.693 0.032 1.378 0.052 2.066l70.717 6.548 70.717-6.548c0.019-0.687 0.052-1.372 0.052-2.066z" fill="#fff"/>
  <path d="m287.21 324.51c0 0.016-1e-3 0.032-1e-3 0.047 0 39.085 31.684 70.769 70.769 70.769s70.769-31.684 70.769-70.769c0-0.016-1e-3 -0.031-1e-3 -0.047z" fill="#e9edf5"/>
  <path d="m393.88 109.19c-27.498 0-49.868 22.371-49.868 49.868v16.872h30v-16.872c0-10.956 8.913-19.868 19.868-19.868s19.868 8.913 19.868 19.868v100.39c-15.006-12.871-34.495-20.656-55.769-20.656-31.316 0-58.766 16.871-73.738 42-7.836-6.003-17.628-9.574-28.239-9.574s-20.404 3.571-28.239 9.574c-14.973-25.13-42.422-42-73.738-42-21.274 0-40.763 7.785-55.769 20.656v-100.39c0-10.956 8.913-19.868 19.868-19.868s19.868 8.913 19.868 19.868v16.872h30v-16.872c0-27.498-22.371-49.868-49.868-49.868-27.498 0-49.868 22.371-49.868 49.868v165.5l12.859 8.615s17.141-7.922 17.141-8.615c0-30.751 25.018-55.769 55.769-55.769s55.769 25.018 55.769 55.769c0 0.693-0.027 1.379 0.795 2.208l13.357 5.235 14.384-4.388c1.428-1.677 1.464-2.362 1.464-3.055 0-2.455-0.104-4.885-0.307-7.289 0.25-8.895 7.562-16.054 16.516-16.054s16.267 7.16 16.516 16.054c-0.203 2.403-0.307 4.833-0.307 7.288 0 0.693 0.036 1.377 1.464 2.208l13.677 10.211 13.641-10.07c1.245-0.969 1.218-1.656 1.218-2.349 0-30.751 25.018-55.769 55.769-55.769s55.769 25.018 55.769 55.769c0 0.693 17.225 11.995 17.225 11.995l12.775-11.995v-165.5c-1e-3 -27.497-22.372-49.867-49.87-49.867z" fill="#636978"/>
  <g fill="#414952">
   <path d="m209.79 324.51c0 0.016 1e-3 0.032 1e-3 0.047 0 30.751-25.018 55.769-55.769 55.769s-55.769-25.018-55.769-55.769c0-0.016 1e-3 -0.031 1e-3 -0.047h-30c0 0.016-1e-3 0.032-1e-3 0.047 0 47.293 38.476 85.769 85.769 85.769s85.769-38.476 85.769-85.769c0-0.016-1e-3 -0.031-1e-3 -0.047z"/>
   <path d="m413.74 324.51c0 0.016 1e-3 0.032 1e-3 0.047 0 30.751-25.018 55.769-55.769 55.769s-55.769-25.018-55.769-55.769c0-0.016 1e-3 -0.031 1e-3 -0.047h-30c0 0.016-1e-3 0.032-1e-3 0.047 0 47.293 38.476 85.769 85.769 85.769s85.769-38.476 85.769-85.769c0-0.016-1e-3 -0.031-1e-3 -0.047z"/>
  </g>
 </g>
</svg>
