<svg id="Capa_1" enable-background="new 0 0 512 512" height="512" viewBox="0 0 512 512" width="512" xmlns="http://www.w3.org/2000/svg"><g><circle cx="256" cy="256" fill="#e27266" r="256"/><path d="m507.616 303.327-205.327-205.327h-92.578v92.578l74 74 .062 19.812c.12 0 29 28.918 29 28.918-.182.02-.365.042-.547.062l-84-84.527h-92.578v55.547l29 28.918-66.648 26.63 19.133 19 14.086 41.977s53.448 53.455 110.686 110.694c4.667.253 9.365.391 14.095.391 125.213 0 229.414-89.901 251.616-208.673z" fill="#c7475a"/><g><g><g><path d="m237.484 321.422h37.393v18.516h-37.393z" fill="#54747f"/></g></g><g><g><path d="m387.119 321.422h26.881v18.516h-26.881z" fill="#455e72"/></g></g><g><path d="m98 321.422h28.391v18.516h-28.391z" fill="#54747f"/></g><g id="Eye_test_2_"><g><path d="m302.289 172.062h-74.062v-18.516h74.062v-18.516h-74.062v-18.516h74.062v-18.514h-92.578v92.578h92.578z" fill="#d5e5e5"/><path d="m135.648 228.844v55.547h18.516v-37.032h18.516v37.032h18.515v-37.032h18.516v37.032h18.516v-55.547z" fill="#d5e5e5"/><path d="m357.836 228.844v37.031h-18.516v-37.031h-18.516v37.031h-18.516v-37.031h-18.516v55.547h92.578v-55.547z" fill="#c1d8d8"/></g></g><g><path d="m256 321.422h18.516v18.516h-18.516z" fill="#455e72"/><g fill="#c1d8d8"><path d="m256.181 135.031h46.108v18.516h-46.108z"/><path d="m256.181 98h46.108v18.516h-46.108z"/><path d="m256.181 172.062h46.108v18.516h-46.108z"/></g></g><g><path d="m200.453 414h-37.031c-25.522 0-46.289-20.767-46.289-46.289v-44.011l6.717-1.926c43.947-12.558 72.173-12.576 116.175 0l6.717 1.926v44.011c0 25.522-20.767 46.289-46.289 46.289z" fill="#54747f"/><path d="m163.422 395.484c-15.314 0-27.773-12.459-27.773-27.773v-29.98c17.914-4.73 32.41-6.866 46.288-6.866 13.88 0 28.374 2.135 46.29 6.865v29.981c0 15.314-12.459 27.773-27.773 27.773z" fill="#e9f2f2"/></g><g><path d="m348.578 414h-37.031c-25.522 0-46.289-20.767-46.289-46.289v-44.011l6.717-1.926c43.947-12.558 72.173-12.576 116.175 0l6.717 1.926v44.011c0 25.522-20.767 46.289-46.289 46.289z" fill="#455e72"/><path d="m311.547 395.484c-15.314 0-27.773-12.459-27.773-27.773v-29.98c17.913-4.73 32.41-6.866 46.288-6.866 13.88 0 28.374 2.135 46.29 6.865v29.981c0 15.314-12.459 27.773-27.773 27.773z" fill="#d5e5e5"/></g></g></g></svg>