<svg width="900" height="900" version="1.1" viewBox="0 0 238.12 238.12" xmlns="http://www.w3.org/2000/svg">
 <g transform="matrix(.4625 0 0 .4625 .66146 .66146)">
  <circle cx="256" cy="256" r="256" fill="#e27266"/>
  <path d="m507.62 303.33-205.33-205.33h-92.578v92.578l74 74 0.062 19.812c0.12 0 29 28.918 29 28.918-0.182 0.02-0.365 0.042-0.547 0.062l-84-84.527h-92.578v55.547l29 28.918-66.648 26.63 19.133 19 14.086 41.977s53.448 53.455 110.69 110.69c4.667 0.253 9.365 0.391 14.095 0.391 125.21 0 229.41-89.901 251.62-208.67z" fill="#c7475a"/>
  <path d="m237.48 321.42h37.393v18.516h-37.393z" fill="#54747f"/>
  <path d="m387.12 321.42h26.881v18.516h-26.881z" fill="#455e72"/>
  <path d="m98 321.42h28.391v18.516h-28.391z" fill="#54747f"/>
  <g id="Eye_test_2_">
   <path d="m302.29 172.06h-74.062v-18.516h74.062v-18.516h-74.062v-18.516h74.062v-18.514h-92.578v92.578h92.578z" fill="#d5e5e5"/>
   <path d="m135.65 228.84v55.547h18.516v-37.032h18.516v37.032h18.515v-37.032h18.516v37.032h18.516v-55.547z" fill="#d5e5e5"/>
   <path d="m357.84 228.84v37.031h-18.516v-37.031h-18.516v37.031h-18.516v-37.031h-18.516v55.547h92.578v-55.547z" fill="#c1d8d8"/>
  </g>
  <path d="m256 321.42h18.516v18.516h-18.516z" fill="#455e72"/>
  <g fill="#c1d8d8">
   <path d="m256.18 135.03h46.108v18.516h-46.108z"/>
   <path d="m256.18 98h46.108v18.516h-46.108z"/>
   <path d="m256.18 172.06h46.108v18.516h-46.108z"/>
  </g>
  <path d="m200.45 414h-37.031c-25.522 0-46.289-20.767-46.289-46.289v-44.011l6.717-1.926c43.947-12.558 72.173-12.576 116.18 0l6.717 1.926v44.011c0 25.522-20.767 46.289-46.289 46.289z" fill="#54747f"/>
  <path d="m163.42 395.48c-15.314 0-27.773-12.459-27.773-27.773v-29.98c17.914-4.73 32.41-6.866 46.288-6.866 13.88 0 28.374 2.135 46.29 6.865v29.981c0 15.314-12.459 27.773-27.773 27.773z" fill="#e9f2f2"/>
  <path d="m348.58 414h-37.031c-25.522 0-46.289-20.767-46.289-46.289v-44.011l6.717-1.926c43.947-12.558 72.173-12.576 116.18 0l6.717 1.926v44.011c0 25.522-20.767 46.289-46.289 46.289z" fill="#455e72"/>
  <path d="m311.55 395.48c-15.314 0-27.773-12.459-27.773-27.773v-29.98c17.913-4.73 32.41-6.866 46.288-6.866 13.88 0 28.374 2.135 46.29 6.865v29.981c0 15.314-12.459 27.773-27.773 27.773z" fill="#d5e5e5"/>
 </g>
</svg>
