<svg width="900" height="900" version="1.1" viewBox="0 0 238.12 238.12" xmlns="http://www.w3.org/2000/svg">
 <g transform="matrix(.4625 0 0 .4625 .66146 .66146)">
  <circle cx="256" cy="256" r="256" fill="#ffbeaa"/>
  <g fill="#faa68e">
   <path d="m268.01 511.71c91.333-4.219 170.16-56.295 212-131.73l-295.06-295.06-51.236 71.871 165.54 165.54-4.954 1.601-133.8-133.8-12.029 27.699-27.699-27.699-12.849 26.878-26.878-26.878-5.105 71.871 100.14 100.14-44.256 14.303z"/>
   <path d="m335.6 234.78 144.7 144.7c19.833-35.948 31.267-77.171 31.678-121.03l-95.533-95.533-2.098 3.825-81.375-81.375-41.344 6.856-16.173 47.791 68.811 68.811z"/>
  </g>
  <path d="m422.12 324.39s-57.59-29.902-147.3-35.44-184.95 35.44-184.95 35.44 89.707 63.127 166.12 63.127 166.12-63.127 166.12-63.127z" fill="#fff"/>
  <path d="m422.12 324.39s-57.59-29.903-147.3-35.44c-6.292-0.388-12.611-0.541-18.923-0.501v99.068c0.032 0 0.063 1e-3 0.095 1e-3 76.417 0 166.12-63.128 166.12-63.128z" fill="#e9edf5"/>
  <path d="m89.875 324.39s90.815-70.88 166.12-70.88 166.12 70.88 166.12 70.88-152.84-54.268-332.25 0z" fill="#ff7045"/>
  <path d="m256 253.51c-0.032 0-0.063 1e-3 -0.095 1e-3v46.769c98.357 0.026 166.22 24.11 166.22 24.11s-90.815-70.88-166.12-70.88z" fill="#de4726"/>
  <path d="m422.12 324.39s-145.08 80.847-332.25 0c0 0 56.482 104.1 166.12 104.1s166.12-104.1 166.12-104.1z" fill="#ff7045"/>
  <path d="m255.9 360.3v68.188c0.032 0 0.063 1e-3 0.095 1e-3 109.64 0 166.12-104.1 166.12-104.1s-65.924 36.732-166.22 35.916z" fill="#de4726"/>
  <path d="m185.1 144.92h-25.213l-3.503 11.864h-22.675l27.012-71.871h24.225l27.006 71.871h-23.256zm-4.607-15.541-7.933-25.836-7.851 25.836z" fill="#555a66"/>
  <path d="m305.48 123.57v-14.953h34.317v30.641c-6.569 4.478-12.379 7.525-17.429 9.143-5.049 1.618-11.038 2.427-17.967 2.427-8.53 0-15.484-1.454-20.86-4.363-5.376-2.908-9.543-7.239-12.501-12.992-2.958-5.752-4.437-12.354-4.437-19.806 0-7.844 1.618-14.666 4.854-20.468 3.235-5.801 7.974-10.205 14.217-13.212 4.869-2.32 11.423-3.481 19.659-3.481 7.941 0 13.881 0.719 17.82 2.157 3.938 1.438 7.206 3.669 9.805 6.692 2.598 3.023 4.551 6.856 5.858 11.497l-21.424 3.824c-0.883-2.712-2.378-4.788-4.485-6.226-2.108-1.438-4.797-2.157-8.064-2.157-4.871 0-8.751 1.691-11.644 5.074s-4.339 8.735-4.339 16.056c0 7.779 1.462 13.334 4.388 16.668 2.925 3.333 7.002 5 12.231 5 2.483 0 4.854-0.359 7.108-1.079 2.256-0.719 4.837-1.944 7.746-3.677v-6.766h-14.853z" fill="#414952"/>
  <path d="m59.951 190.13h21.094l7.594 40.235 11.114-40.235h21.019l11.142 40.182 7.603-40.182h20.983l-15.843 71.871h-21.777l-12.605-45.25-12.557 45.25h-21.778z" fill="#555a66"/>
  <path d="m335.6 162.91h29.206l11.264 43.73 11.183-43.73h29.188v71.871h-18.188v-54.81l-14.015 54.81h-16.463l-13.987-54.81v54.81h-18.188z" fill="#414952"/>
 </g>
</svg>
