<svg width="900" height="900" version="1.1" viewBox="0 0 238.12 238.12" xmlns="http://www.w3.org/2000/svg">
 <g transform="matrix(.46285 0 0 .46285 .57322 .57322)">
  <path d="m0 256c0-141.39 114.61-256 256-256 79.527 0 150.59 36.266 197.54 93.16 14.68 17.789-0.69922 52.688 8.7891 74.031 7.9297 17.832 41.582 21.645 45.277 41.348 2.8828 15.383 4.3906 31.246 4.3906 47.461 0 26.512-4.0273 52.078-11.508 76.129-32.414 104.21-129.62 66.871-244.49 66.871-114.64 0-211.68 37.645-244.29-66.234-7.6094-24.234-11.711-50.02-11.711-76.766z" fill="#e7001f"/>
  <path d="m256 399c114.88 0 212.07 37.336 244.49-66.871 7.4805-24.051 11.512-49.617 11.512-76.129 0-16.219-1.5078-32.082-4.3945-47.461-3.5977-19.18-34.988-28.125-42.605-45.539-8.1445-18.621 7.2109-45.562-4.9219-61.559l-8e-3 4e-3c-1.5469-2.0391-3.125-4.0547-4.7266-6.0508-0.37891-0.46875-0.75781-0.94531-1.1406-1.4141l-143.6 63.308c-15.211 6.8594-18.09 8.3594-45.703-0.61719-22-7.1523-45.527 2.7383-65.809 11.859l-110.24 49.68c-16.402 7.3789-24.352 25.199-17.793 39.77 0.45312 0.98828 0.95312 1.9414 1.5 2.8476 0.73828 1.2109 1.5625 2.3477 2.4688 3.4024l89.43 89.094-55.047-17.109c-30.656-9.5312-63.563-10.93-95.027-4.043l-2.4336 0.53125c-0.07813 0.0195-0.15625 0.0391-0.23438 0.0586 32.609 103.88 129.64 66.238 244.29 66.238z" fill="#901"/>
  <path d="m501.01 181.59-173.71 76.762c-1.9609 0.87891-4.1602 1.0078-6.082 0.33985l-99.641-34.363c-0.6875-0.22657-1.4062-0.36719-2.1367-0.40625-1.332-0.0703-2.6914 0.1875-3.9609 0.75l-102.85 46.359c-15.258 6.8906-32.488 2.2773-40.07-10.203-0.54688-0.90625-1.0469-1.8594-1.5-2.8476-6.5586-14.57 1.3906-32.391 17.793-39.77l110.24-49.68c20.281-9.1211 43.809-19.012 65.809-11.859 27.613 8.9766 30.492 7.4766 45.703 0.61718l143.61-63.309c20.91 25.551 36.98 55.219 46.801 87.609z" fill="#ffdba9"/>
  <path d="m501.01 181.59-173.71 76.762c-1.9609 0.87891-4.1602 1.0078-6.082 0.33985l-65.219-22.492v-81.527c2.9883 0.38671 5.9609 1.0391 8.8984 2 27.613 8.9766 30.492 7.4766 45.703 0.61718l143.61-63.309c20.91 25.551 36.98 55.219 46.801 87.609z" fill="#ffc473"/>
  <path d="m256 512c114.88 0 212.08-75.664 244.49-179.87-29.84-6.1797-60.996-4.9531-90.301 3.6719l-101.23 29.785c-35.078 10.32-72.762 10.039-107.65-0.80469l-91.895-28.566c-30.656-9.5312-63.563-10.93-95.027-4.043l-2.4336 0.53125c-0.07813 0.0195-0.15625 0.0391-0.23438 0.0586 32.609 103.88 129.64 179.24 244.29 179.24z" fill="#ffdba9"/>
  <path d="m500.49 332.13c-32.41 104.21-129.62 179.87-244.49 179.87v-138.87c17.852 0.043 35.719-2.4688 52.949-7.5391l101.24-29.789c29.297-8.6211 60.457-9.8516 90.297-3.6719z" fill="#ffc473"/>
  <path d="m507.61 208.54c-90.281 39.859-177.11 78.133-177.96 78.512-9.4766 4.2695-18.727-0.10937-26.379-2.7891-4.9102-1.7109-73.07-25.461-73.07-25.461-5.3711-1.9023-9.9688-5.832-12.891-10.629-3.3281-5.4609-4.457-12.051-2.0195-18.051 0.96094-2.3398 2.3828-4.4219 4.1524-6.1992 6.7188-6.8008 18.367-9.3438 27.457-6.1406 0 0 24.34 8.5195 24.453 8.5586l50.688 17.801 174.13-76.949c1.75 4.7383 3.3672 9.5391 4.8398 14.398 2.668 8.7891 4.8789 17.789 6.5976 26.949z" fill="#ffc473"/>
  <path d="m507.61 208.54c-90.281 39.859-177.11 78.133-177.96 78.512-9.4766 4.2695-18.727-0.10937-26.379-2.7891-2.8711-1-27.41-9.5508-47.27-16.473v-46.82c6.9297 2.4219 15.289 5.3516 15.352 5.3711l50.688 17.801 174.13-76.949c1.75 4.7383 3.3672 9.5391 4.8398 14.398 2.668 8.7891 4.8789 17.789 6.5976 26.949z" fill="#ffb84d"/>
  <path d="m109.41 364.2 91.895 48.383c34.887 18.371 72.57 18.848 107.65 1.3672l101.23-50.449c26.621-13.266 54.766-16.195 82.07-8.7734 3.082-7.3672 5.8398-14.902 8.2344-22.598-29.844-6.1797-61-4.9531-90.305 3.668l-101.23 29.789c-35.078 10.32-72.766 10.039-107.65-0.80859l-91.895-28.566c-30.656-9.5312-63.559-10.93-95.027-4.0391l-2.4336 0.53125c-0.07813 0.0156-0.15625 0.0391-0.23438 0.0547 2.4258 7.7188 5.2109 15.273 8.3242 22.66 29.738-9.3945 60.547-6.3984 89.371 8.7812z" fill="#ffc473"/>
  <path d="m500.49 332.13c-2.3867 7.6992-5.1484 15.23-8.2266 22.602-27.312-7.4219-55.453-4.4922-82.07 8.7695l-101.24 50.449c-17.23 8.5898-35.098 12.84-52.949 12.77v-53.59c17.852 0.043 35.719-2.4688 52.949-7.5391l101.24-29.789c29.297-8.6211 60.457-9.8516 90.297-3.6719z" fill="#ffb84d"/>
 </g>
</svg>
