<svg width="900" height="900" version="1.1" viewBox="0 0 238.12 238.12" xmlns="http://www.w3.org/2000/svg">
 <g transform="matrix(.4625 0 0 .4625 .66146 .66146)">
  <circle cx="256" cy="256" r="256" fill="#fcc515"/>
  <path d="m511.69 268.46-195.69-195.69-30.606 1.219-5.308-5.308-24.087 24.086 145.1 145.1-73.577 73.577-63.481-63.48-171.28 171.28 78.329 78.329c26.572 9.34 55.142 14.437 84.906 14.437 137.21 0 249.2-107.94 255.69-243.54z" fill="#fa0"/>
  <path d="m92.765 219.72v199.51h136.03l27.207-124.18 27.206-106.65-27.207-95.647z" fill="#fb6270"/>
  <path d="m419.24 219.72v199.51h-54.411l-27.206-21.391-27.206 21.391h-27.205l-27.206-124.18-1e-3 -202.29z" fill="#eb2e4b"/>
  <path d="m147.18 219.72v199.51h54.412v-199.51l54.412-126.96z" fill="#fff"/>
  <path d="m364.82 219.72v199.51h-54.412v-199.51l-54.412-126.96z" fill="#e9edf5"/>
  <path d="m256 419.24h-27.207l27.207-156.24 7.352 79.294z" fill="#555a65"/>
  <path d="m283.21 419.24h-27.207v-156.24z" fill="#333940"/>
  <path d="m201.59 219.73 54.412 54.412 9.628-36.785-9.628-17.627z" fill="#fff"/>
  <path d="m256 219.73v54.412l54.412-54.412z" fill="#e9edf5"/>
  <path d="m256 92.765v-40l60 20z" fill="#eb2e4b"/>
  <path d="m147.18 219.73h-54.412l54.412 54.411 54.412-54.411z" fill="#eb2e4b"/>
  <path d="m364.82 219.73h-54.412l54.412 54.411 54.413-54.411z" fill="#bd000c"/>
 </g>
</svg>
