<svg width="900" height="900" version="1.1" viewBox="0 0 238.12 238.12" xmlns="http://www.w3.org/2000/svg">
 <g transform="matrix(.46285 0 0 .46285 .57322 .57322)">
  <path d="m512 256c0 141.39-114.61 256-256 256s-256-114.61-256-256 114.61-256 256-256 256 114.61 256 256z" fill="#ffd400"/>
  <path d="m432.84 203.91-25.695-25.691-144.14 144.14-43.656-43.652-66.516 66.516-4.8164-4.8203-68.98 68.98 85.934 85.934c28.289 10.766 58.969 16.68 91.035 16.68 141.39 0 256-114.61 256-256 0-15.891-1.4609-31.438-4.2305-46.527l-31.188-31.188z" fill="#fdbf00"/>
  <path d="m373.07 180.99h-262.91l80.84-81.086c13.27-13.27 31.941-19.902 50.617-19.902 18.676 0 37.352 6.6328 50.617 19.902z" fill="#5a5a5a"/>
  <path d="m373.07 180.99h-131.46v-100.99c18.676 0 37.352 6.6328 50.617 19.902z" fill="#444"/>
  <path d="m327.61 325.71v49.141h-5.7109l-32.766-49.141-12.203-12.285-17.32 12.285 49.141 73.715h43.43v-73.715l-11.516-12.285z" fill="#444"/>
  <path d="m407.22 178.29-56.023 139.81-109.59 1.9648-58.727 0.98438-114.25-142.76z" fill="#ff7816"/>
  <path d="m407.22 178.29-56.023 139.81-109.59 1.9648v-141.78z" fill="#ff4b00"/>
  <path d="m180.18 362.57c0 33.91-27.52 61.43-61.426 61.43-33.91 0-61.43-27.52-61.43-61.43 0-33.91 27.52-61.43 61.43-61.43 33.906 0 61.426 27.523 61.426 61.43z" fill="#5a5a5a"/>
  <path d="m180.18 362.57c0 33.91-27.52 61.43-61.426 61.43v-122.86c33.906 0 61.426 27.52 61.426 61.426z" fill="#444"/>
  <path d="m155.61 362.57c0 20.395-16.461 36.859-36.855 36.859-20.395 0-36.859-16.465-36.859-36.859s16.465-36.855 36.859-36.855c20.395 0 36.855 16.461 36.855 36.855z" fill="#ececf1"/>
  <path d="m155.61 362.57c0 20.395-16.461 36.859-36.855 36.859v-73.715c20.395 0 36.855 16.461 36.855 36.855z" fill="#e2e2e7"/>
  <path d="m476.68 178.29v24.57h-30.141l-49.141 122.86h-201.24l-70.52 47.176-13.762-20.641 76.91-51.105h191.9l49.141-122.86z" fill="#6e6e6e"/>
  <path d="m476.68 178.29v24.57h-30.141l-49.141 122.86h-155.79v-24.57h139.07l49.141-122.86z" fill="#5a5a5a"/>
 </g>
</svg>
