<svg width="900" height="900" version="1.1" viewBox="0 0 238.12 238.12" xmlns="http://www.w3.org/2000/svg">
 <g transform="matrix(.4625 0 0 .4625 .66146 .66146)">
  <circle cx="256" cy="256" r="256" fill="#ffc9c9"/>
  <path d="m512 256c0-4.065-0.095-8.108-0.282-12.126l-138.42-138.59-62.587 10.998 23.551 23.551-34.927 5.684 39.112 39.112-31.661 12.366 41.384 41.384-0.41 2.632-54.077-54.076-2.849 5.33-26.738-26.738-6.482 23.74-33.02-33.02-1.587 44-80.101-80.101-57.035 23.153 55.253 55.253-26.306 194.35 118.08 118.08c7.612 0.68 15.317 1.028 23.103 1.028 141.38 0 256-114.62 256-256z" fill="#ff9696"/>
  <path d="m346.52 85.009-17.491 12.421c-7.302 5.186-13.47 11.599-18.312 18.85l13.644 5.071c3.082 1.145 4.651 4.572 3.506 7.653-1.145 3.082-4.572 4.651-7.653 3.506l-15.331-5.698c-2.664 5.921-4.54 12.208-5.541 18.704l20.598 7.656c3.707 1.378 5.595 5.5 4.218 9.207s-5.5 5.595-9.207 4.218l-16.458-6.117v18.364c0 13.262 10.751 24.014 24.014 24.014 13.262 0 24.013-10.751 24.014-24.012 0 1.909 0.229 3.763 0.65 5.543l1.77-42.988-1.823-55.557z" fill="#1dd882"/>
  <path d="m378.09 166.6c-3.707 1.378-7.829-0.511-9.207-4.218-1.377-3.707 0.511-7.829 4.218-9.207l20.598-7.656c-1.001-6.495-2.877-12.782-5.542-18.704l-15.331 5.698c-3.082 1.145-6.508-0.424-7.653-3.506-1.145-3.081 0.425-6.508 3.506-7.653l13.644-5.071c-4.843-7.25-11.01-13.664-18.312-18.85l-17.491-12.421 0.309 97.672c1.838 11.437 11.749 20.175 23.705 20.175 13.262 0 24.014-10.751 24.014-24.014v-18.364z" fill="#2cc47f"/>
  <path d="m342.54 105.17v209.98h4.633l1.823-127.22-1.823-82.756z" fill="#2cc47f"/>
  <path d="m346.83 105.17h4.329v209.98h-4.329z" fill="#06b26b"/>
  <path d="m416.89 255.28c-2.785-1.276-4.009-4.568-2.733-7.354 1.276-2.785 4.568-4.009 7.354-2.733l15.477 7.09c3.01-4.107 5.426-8.578 7.21-13.281l-11.519-5.277c-2.315-1.061-3.332-3.797-2.272-6.113 1.061-2.315 3.797-3.332 6.112-2.272l10.252 4.696c1.319-6.624 1.454-13.516 0.294-20.357l-2.777-16.386-16.386-2.777c-6.84-1.159-13.732-1.025-20.357 0.294l4.696 10.252c1.061 2.315 0.043 5.052-2.272 6.113s-5.052 0.043-6.113-2.272l-5.277-11.52c-4.703 1.784-9.175 4.201-13.281 7.21l7.09 15.477c1.276 2.785 0.052 6.078-2.733 7.354s-6.078 0.052-7.354-2.733l-5.665-12.366-10.06 10.06c-7.265 7.265-7.265 19.044 0 26.309s19.043 7.265 26.309 1e-3c-7.264 7.265-7.264 19.044 1e-3 26.308 7.265 7.265 19.044 7.265 26.309 0l10.06-10.06z" fill="#1dbc6c"/>
  <path transform="matrix(.707 .707 -.707 .707 289.53 -203.19)" d="m386.7 186.56h6.678v122.7h-6.678z" fill="#2cc47f"/>
  <path d="m316.96 268.28 4.887 88.856h25.322l1.823-55.972-1.823-32.884z" fill="#fff"/>
  <path d="m376.73 268.28h-29.904v88.856h25.017z" fill="#e9edf5"/>
  <path d="m222.09 249.51c6.547 10.362 2.328 25.37-9.579 28.278s-31.916-9.67-34.217-21.708c-7.117-37.227 6.801-90.553 6.801-90.553s19.599 56.45 36.995 83.983z" fill="#25af6d"/>
  <path d="m227.1 249.51c-6.547 10.362-2.327 25.37 9.579 28.278 11.907 2.908 31.916-9.67 34.218-21.708 7.117-37.227-6.801-90.553-6.801-90.553s-19.6 56.45-36.996 83.983z" fill="#079e59"/>
  <path d="m224.6 156.24s-23.773 92.167-23.773 105.3 10.644 23.773 23.773 23.773c0.21 0 0.417-0.01 0.626-0.016l3.739-51.593-4.056-74.411c-0.084-2.18-0.309-3.05-0.309-3.05z" fill="#1dd882"/>
  <path d="m224.41 285.31c0.062 0 0.123 5e-3 0.186 5e-3 13.13 0 23.773-10.644 23.773-23.773 0-13.13-23.773-105.3-23.773-105.3z" fill="#2cc47f"/>
  <path d="m224.6 282.39c-14.188-9.425-29.619-23.795-38.246-44.747-14.637-35.547-30.843-50.707-30.843-50.707s7.841 37.074 7.841 66.912c0 29.315 23.15 39.713 32.882 42.79-2.185 0.769-3.438 1.121-3.438 1.121h32.429l4.056-8.418-4.056-7.379c-0.207 0.141-0.417 0.29-0.625 0.428z" fill="#2cc47f"/>
  <path d="m262.85 237.64c-8.627 20.952-24.059 35.322-38.246 44.747-0.062-0.041-0.124-0.086-0.186-0.127v15.496h31.988s-1.253-0.352-3.438-1.121c9.732-3.077 32.883-13.475 32.883-42.79 0-29.838 7.841-66.912 7.841-66.912s-16.205 15.16-30.842 50.707z" fill="#06b26b"/>
  <path d="m164.07 292.55 9.897 71.547h51.254l5.578-31.659-5.578-39.888z" fill="#fff"/>
  <path d="m285.12 292.55h-60.711v71.547h50.813z" fill="#e9edf5"/>
  <path d="m142.9 351.11 0.014-207.81-28.088-21.459v271.06h142.35l2.913-17.234-2.913-24.554z" fill="#636978"/>
  <path d="m256.31 351.11h140.87v41.788h-140.87z" fill="#414952"/>
  <circle cx="164.24" cy="396.58" r="29.806" fill="#7e8596"/>
  <circle cx="164.24" cy="396.56" r="14.977" fill="#414952"/>
  <circle cx="347.76" cy="396.58" r="29.806" fill="#636978"/>
  <circle cx="347.76" cy="396.56" r="14.977" fill="#23272b"/>
  <path d="m85.877 120.14h57.035v23.153h-57.035z" fill="#7e8596"/>
 </g>
</svg>
