<svg width="900" height="900" version="1.1" viewBox="0 0 238.12 238.12" xmlns="http://www.w3.org/2000/svg">
 <g transform="matrix(.4625 0 0 .4625 .66146 .66146)">
  <circle id="XMLID_49_" cx="256" cy="256" r="256" fill="#385175"/>
  <path d="m512 256c0-25.138-3.64-49.423-10.393-72.374l-126.01-126.01-239.19 71.368 35.566 35.566-49.191 267.72 71.483 72.219c19.775 4.896 40.45 7.512 61.739 7.512 141.38 0 256-114.62 256-256z" fill="#1d324c"/>
  <path d="m162.77 120.99v20.936c0 10.04-5.617 19.235-14.549 23.82-2.88 1.478-6.014 2.353-9.223 2.785-15.861 2.132-28.091 15.72-28.091 32.165v203.11c0 22.126 17.937 40.063 40.063 40.063h105.03l124.37-137.67-124.37-185.21z" fill="#a9fffd"/>
  <path d="m373 168.54c-3.209-0.431-6.342-1.306-9.223-2.785-8.932-4.584-14.548-13.78-14.548-23.82v-20.936h-93.226v322.88h105.02c22.126 0 40.063-17.937 40.063-40.063v-203.11c1e-3 -16.444-12.23-30.032-28.091-32.164z" fill="#5fd9ff"/>
  <path d="m136.4 128.98h119.6l69.597-35.684-69.597-35.684h-119.6z" fill="#ffe445"/>
  <path d="m256 57.616h119.6v71.368h-119.6z" fill="#ffba31"/>
  <path d="m149.43 386.5h106.57l82.303-80.302-82.303-80.301h-106.57z" fill="#fff"/>
  <path d="m256 225.9h106.57v160.6h-106.57z" fill="#e5e5e5"/>
  <path d="m239.32 254.81v34.714h-34.714v33.365h34.714v34.714h16.682l21.786-51.397-21.786-51.396z" fill="#f93e82"/>
  <path d="m272.68 289.52v-34.714h-16.682v102.79h16.682v-34.714h34.714v-33.365z" fill="#ba1e7f"/>
 </g>
</svg>
