<svg width="900" height="900" version="1.1" viewBox="0 0 238.12 238.12" xmlns="http://www.w3.org/2000/svg">
 <g transform="matrix(.4625 0 0 .4625 .66146 .66146)">
  <path d="m79.001 440.94 28.476-29.144 5.611 56.623c14.994 10.108 31.12 18.663 48.142 25.451l94.77-37.903 96.747 37.095c16.948-6.924 32.987-15.607 47.89-25.831l2.19-44.74 31.863 16.797c47.686-46.496 77.31-111.43 77.31-183.29 0-141.38-114.62-256-256-256s-256 114.62-256 256c0 72.713 30.319 138.34 79.001 184.94z" fill="#7ee780"/>
  <path d="m256 224.92-91.802 46.913-56.399 143.22 5.288 53.368c14.995 10.108 31.12 18.663 48.142 25.451l94.771-37.904 96.747 37.095c16.948-6.924 32.987-15.607 47.89-25.831l2.19-44.74 31.863 16.797c42.367-41.309 70.456-97.179 76.2-159.52l-201.93-201.93z" fill="#00dc7b"/>
  <path d="m256 180.03h-26.039v19.969c0 14.492-10.225 26.971-24.434 29.821l-39.923 8.007c-20.014 4.014-36.054 18.969-41.458 38.654l-45.146 164.46c10.542 10.092 21.943 19.293 34.087 27.479l49.94-141.3 9.302 41.283c7.338 32.567 6.248 66.468-3.17 98.495l-7.93 26.97c29.313 11.689 61.289 18.126 94.771 18.126l34.677-153.4z" fill="#ffbda9"/>
  <path d="m348.36 237.93-41.762-8.194c-14.268-2.8-24.559-15.306-24.559-29.846v-19.862h-26.039v331.97c34.238 0 66.897-6.738 96.747-18.933l-7.696-26.175c-9.415-32.02-10.508-65.913-3.175-98.473l9.28-41.207 49.481 140.02c12.149-8.334 23.538-17.69 34.053-27.942l-44.651-162.66c-5.425-19.762-21.569-34.751-41.679-38.697z" fill="#ffa68c"/>
  <path d="m290.68 115.17-34.677-59.271c-41.365 0-74.898 33.533-74.898 74.898v2.506c0 42.166 16.581 98.088 16.581 98.088 22.524 0 42.844-1.809 58.317-6.473z" fill="#b95d4c"/>
  <path d="m330.9 133.31v-2.506c0-41.365-33.533-74.898-74.898-74.898v169.02c76.513-23.063 74.898-91.614 74.898-91.614z" fill="#a24f3e"/>
  <path d="m209.8 274.73c0-17.872 20.686-21.774 46.203-21.774l11.207 21.774-11.207 21.773c-25.517 0-46.203-3.901-46.203-21.773z" fill="#7c8186"/>
  <path d="m302.2 274.73c0 17.872-20.686 21.774-46.203 21.774v-43.547c25.517-1e-3 46.203 3.901 46.203 21.773z" fill="#575f64"/>
  <path d="m209.8 341.86c0-17.872 20.686-21.774 46.203-21.774l11.207 21.774-11.207 21.774c-25.517 0-46.203-3.902-46.203-21.774z" fill="#7c8186"/>
  <path d="m302.2 341.86c0 17.872-20.686 21.774-46.203 21.773v-43.547c25.517 1e-3 46.203 3.902 46.203 21.774z" fill="#575f64"/>
  <path d="m209.8 409c0-17.872 20.686-21.774 46.203-21.773l11.207 21.774-11.207 21.772c-25.517 0-46.203-3.901-46.203-21.773z" fill="#7c8186"/>
  <path d="m302.2 409c0 17.872-20.686 21.774-46.203 21.773v-43.547c25.517 0 46.203 3.902 46.203 21.774z" fill="#575f64"/>
 </g>
</svg>
