<svg width="900" height="900" version="1.1" viewBox="0 0 238.12 238.12" xmlns="http://www.w3.org/2000/svg">
 <g transform="matrix(.4625 0 0 .4625 .66146 .66146)">
  <circle cx="256" cy="256" r="256" fill="#7584f2"/>
  <path d="m512 256c0-10.34-0.613-20.537-1.805-30.556l-75.195-75.195-1.159 4.639-36.525-36.525-71.625 129.84-129.84-129.84-118.85 74.363 134.07 134.07-134.07 65.491 110.43 110.43c21.823 6.053 44.819 9.287 68.57 9.287 141.38 0 256-114.62 256-256z" fill="#4855b7"/>
  <path d="m114.68 118.36h81.166v50.004h-81.166z" fill="#fff"/>
  <path d="m316.15 118.36h81.166v50.004h-81.166z" fill="#e9edf5"/>
  <path d="m92.264 178.95h327.47v194.94h-327.47z" fill="#fff"/>
  <path d="m256.12 178.95h163.62v194.94h-163.62z" fill="#e9edf5"/>
  <path d="m77 150.25h358v42.476h-358z" fill="#ffce00"/>
  <path d="m256.12 150.25h178.88v42.476h-178.88z" fill="#fdba12"/>
  <path d="m77 349.81h358v42.476h-358z" fill="#ffce00"/>
  <path d="m256.12 349.81h178.88v42.476h-178.88z" fill="#fdba12"/>
  <path d="m129.06 261.43h81.166v30h-81.166z" fill="#636978"/>
  <path d="m380.9 261.43h-25.584l1e-3 -25.583-30-1e-3 -1e-3 25.584h-25.582v30h25.582v25.581l30 1e-3v-25.582h25.584z" fill="#414952"/>
 </g>
</svg>
