<svg width="900" height="900" version="1.1" viewBox="0 0 238.12 238.12" xmlns="http://www.w3.org/2000/svg">
 <g transform="matrix(.4625 0 0 .4625 .66146 .66146)">
  <path d="m256 0c-141.38 0-256 114.62-256 256s114.62 256 256 256 256-114.62 256-256-114.62-256-256-256z" fill="#4a7aff"/>
  <path d="m506.57 203.32-126.32-126.32-67.022 1.723-44.448 44.448-43.103-43.103-42.323-7.295-75.291 56.206 131.33 131.33-2.427 251c6.28 0.46 12.626 0.695 19.027 0.695 141.38 0 256-114.62 256-256 0-18.06-1.87-35.682-5.427-52.685z" fill="#0053bf"/>
  <g fill="#fff">
   <path d="m305.68 151.56h83.245v30h-83.245z"/>
   <path d="m305.68 181.56v-30h-59.621v-22.587c0-38.045-30.952-68.997-68.998-68.997-38.045 0-68.997 30.952-68.997 68.997h30c0-21.503 17.494-38.997 38.997-38.997s38.998 17.494 38.998 38.997v190.69h30v-61.272h59.621v-30h-59.621v-46.83z"/>
   <path d="m305.68 228.4h83.245v30h-83.245z"/>
  </g>
  <path d="m334.93 59.981c-38.045 0-68.997 30.952-68.997 68.997h30c0-21.503 17.494-38.997 38.997-38.997s38.997 17.494 38.997 38.997v22.587h-68.245v30h68.245v46.83h-68.245v30h68.245v63.938h30v-193.36c0-38.045-30.952-68.997-68.997-68.997z" fill="#e9edf5"/>
  <path d="m465.24 268.33c-34.876 0-34.876 24-69.752 24-34.875 0-34.875-24-69.75-24-8.379 0-14.734 1.394-20.054 3.499-16.821 6.657-23.199 20.501-49.693 20.501-34.875 0-34.875-24-69.749-24-34.875 0-34.875 24-69.75 24-34.873 0-34.873-24-69.747-24-23.852 0-31.391 11.226-44.93 18.323 15.15 126.93 123.18 225.34 254.18 225.34 131.01 0 239.03-98.41 254.18-225.34-13.546-7.096-21.084-18.327-44.943-18.327z" fill="#19cffc"/>
  <path d="m465.24 268.33c-34.876 0-34.876 24-69.752 24-34.875 0-34.875-24-69.75-24-8.379 0-14.734 1.394-20.054 3.499-16.821 6.657-23.199 20.501-49.693 20.501-0.226 0-0.434-0.012-0.657-0.014v219.67c0.222 1e-3 0.442 8e-3 0.664 8e-3 131.01 0 239.03-98.41 254.18-225.34-13.544-7.096-21.082-18.327-44.941-18.327z" fill="#1bb3ef"/>
  <path d="m22.238 360.52c39.98 89.283 129.61 151.48 233.76 151.48 104.15 0 193.78-62.199 233.76-151.48-6.199-3.199-13.672-5.521-24.52-5.521-34.876 0-34.876 24-69.752 24-34.875 0-34.875-24-69.75-24-34.873 0-34.873 24-69.746 24-34.875 0-34.875-24-69.749-24-34.875 0-34.875 24-69.75 24-34.873 0-34.873-24-69.747-24-10.841 0-18.312 2.32-24.508 5.516z" fill="#96e8ff"/>
  <path d="m465.24 355c-34.876 0-34.876 24-69.752 24-34.875 0-34.875-24-69.75-24-34.873 0-34.873 24-69.746 24-0.226 0-0.434-0.012-0.657-0.014v133.01c0.222 1e-3 0.442 6e-3 0.664 6e-3 104.15 0 193.78-62.199 233.76-151.48-6.197-3.199-13.671-5.521-24.519-5.521z" fill="#19cffc"/>
 </g>
</svg>
