<svg width="900" height="900" version="1.1" viewBox="0 0 238.12 238.12" xmlns="http://www.w3.org/2000/svg">
 <g transform="matrix(.4625 0 0 .4625 .66146 .66146)">
  <circle cx="256" cy="256" r="256" fill="#99c6fc"/>
  <path d="m263.66 511.88c113.44-3.334 208.35-80.454 238.4-185.03l-228.39-228.39-42.271 75.417-24.603 20.804 76.422 76.422-159.94 100.4z" fill="#79b6fc"/>
  <path d="m413.97 270.2s-51.995-23.717-100.34 24.63-24.629 100.34-24.629 100.34 51.995 23.717 100.34-24.629 24.629-100.34 24.629-100.34z" fill="#77dc5a"/>
  <path d="m295.17 398 94.357-94.358-9.001-9.001-103.36 103.36z" fill="#5bc83e"/>
  <path d="m97.671 270.2s51.995-23.717 100.34 24.63 24.629 100.34 24.629 100.34-51.995 23.717-100.34-24.629-24.629-100.34-24.629-100.34z" fill="#b5e44e"/>
  <path d="m216.48 398-94.358-94.358 9.001-9.001 103.36 103.36z" fill="#77dc5a"/>
  <path d="m256 222.86h-32.533v-31.466h32.533l20.407 15.733z" fill="#a36553"/>
  <path d="m256 191.39h32.533v31.466h-32.533z" fill="#8d5442"/>
  <path d="m256 173.87h-24.603v-58.291c0-13.588 11.015-24.603 24.603-24.603l15.432 35.972z" fill="#7847a1"/>
  <path d="m280.6 173.87h-24.603v-82.895c13.588 0 24.603 11.015 24.603 24.603z" fill="#612b8a"/>
  <path d="m256 194.68h-49.206v-31.715h49.206l30.865 15.857z" fill="#a365d9"/>
  <path d="m256 162.96h49.206v31.714h-49.206z" fill="#7847a1"/>
  <path d="m256 400.98h-64.908v-36.509l20-58.466-20-53.654v-8.946c0-17.88 14.495-32.375 32.375-32.375h32.533l40.714 89.5z" fill="#b67261"/>
  <path d="m320.91 400.98h-64.908v-189.95h32.533c17.88 0 32.375 14.495 32.375 32.375v8.946l-20 60.057 20 52.062z" fill="#a36553"/>
  <path d="m256 364.47h-64.908v-112.12h64.908l40.714 56.06z" fill="#fff"/>
  <path d="m256 252.35h64.908v112.12h-64.908z" fill="#e9edf0"/>
  <path d="m272.3 321.14-16.301 28.213c-15.582 0-28.213-12.631-28.213-28.213s28.213-55.859 28.213-55.859z" fill="#ffd428"/>
  <path d="m284.21 321.14c0 15.582-12.631 28.213-28.213 28.213v-84.072s28.213 40.277 28.213 55.859z" fill="#ffa21d"/>
 </g>
</svg>
