<svg width="900" height="900" version="1.1" viewBox="0 0 238.12 238.12" xmlns="http://www.w3.org/2000/svg">
 <g transform="matrix(.4625 0 0 .4625 .66146 .66146)">
  <g id="XMLID_1423_">
   <g id="XMLID_1424_">
    <g id="XMLID_1425_">
     <g id="XMLID_1426_">
      <g id="XMLID_1427_">
       <g id="XMLID_1428_">
        <g id="XMLID_1429_">
         <g id="XMLID_1430_">
          <g id="XMLID_1431_">
           <g id="XMLID_1447_">
            <g id="XMLID_1553_">
             <g id="XMLID_1554_">
              <g id="XMLID_1585_">
               <g id="XMLID_1601_">
                <g id="XMLID_1602_">
                 <circle cx="256" cy="256" r="256" fill="#6d462c"/>
                </g>
               </g>
              </g>
             </g>
            </g>
           </g>
          </g>
         </g>
        </g>
       </g>
      </g>
     </g>
    </g>
   </g>
  </g>
  <path d="m512 256c0-21.288-2.599-41.97-7.496-61.745l-75.547-75.547-99.485 34.328-42.735-42.58-206.33 60.177 12.47 12.456 10.038 175.38 42.854 42.923 2.425 22.728 87.047 87.047c6.846 0.549 13.768 0.829 20.756 0.829 141.38 0 256-114.62 256-256z" fill="#472e1c"/>
  <circle cx="394.98" cy="146.2" r="43.707" fill="#c9144c"/>
  <path d="m174.46 88.169c-22.606 22.606-8.546 93.573 30.573 118.55s73.834-14.143 73.834-14.143 39.119-34.715 14.143-73.834c-24.976-39.118-95.944-53.178-118.55-30.572z" fill="#fff"/>
  <path d="m278.87 192.58s39.119-34.715 14.143-73.834c-8.363-13.098-21.882-23.387-37.015-30.43v121c13.926-6.66 22.872-16.74 22.872-16.74z" fill="#ddd"/>
  <circle cx="242.02" cy="155.72" r="35.574" fill="#fff27b"/>
  <path d="m267.17 180.87c13.892-13.892 13.892-36.416 0-50.309-3.311-3.311-7.112-5.832-11.169-7.564v65.438c4.057-1.733 7.858-4.254 11.169-7.565z" fill="#ffd215"/>
  <path d="m108.57 192.71-27.059-21.139c-7.446-5.817-8.766-16.568-2.949-24.014l21.139-27.059c5.817-7.446 16.568-8.766 24.014-2.949l27.059 21.139c7.446 5.817 8.766 16.568 2.949 24.014l-21.139 27.059c-5.817 7.445-16.569 8.766-24.014 2.949z" fill="#ffd215"/>
  <path d="m315.05 136.68c-19.598 0-36.533 11.404-44.53 27.938-6.637-3.312-14.124-5.176-22.046-5.176-14.655 0-27.82 6.377-36.873 16.508-1.958-0.236-3.951-0.358-5.972-0.358-27.303 0-49.437 22.134-49.437 49.437s22.134 49.438 49.437 49.438c14.655 0 27.82-6.377 36.874-16.508 1.958 0.236 3.951 0.358 5.972 0.358 19.598 0 60.302-0.358 68.224-0.358 27.303 0 47.789-44.538 47.789-71.842 0-27.303-22.134-49.437-49.438-49.437z" fill="#11a52d"/>
  <path d="m315.05 136.68c-19.598 0-36.533 11.404-44.53 27.939-4.494-2.243-9.378-3.821-14.523-4.607v98.293c21.01-0.065 53.691-0.345 60.701-0.345 27.303 0 47.79-44.538 47.79-71.842s-22.134-49.438-49.438-49.438z" fill="#0c8e21"/>
  <circle cx="285.12" cy="236.9" r="41.321" fill="#e53344"/>
  <path d="m285.12 278.22c22.821 0 41.321-18.5 41.321-41.321s-18.5-41.321-41.321-41.321c-11.36 0-21.65 4.585-29.119 12.005v58.632c7.47 7.42 17.759 12.005 29.119 12.005z" fill="#c9144c"/>
  <path d="m323.53 202.03-27.059-21.139c-7.446-5.817-8.766-16.568-2.949-24.014l21.139-27.059c5.817-7.446 16.568-8.766 24.014-2.949l27.059 21.139c7.446 5.817 8.766 16.568 2.949 24.014l-21.139 27.059c-5.816 7.445-16.568 8.766-24.014 2.949z" fill="#ffd215"/>
  <circle transform="matrix(.162 -.987 .987 .162 -21.243 320.61)" cx="178.22" cy="172.82" r="43.707" fill="#e53344"/>
  <path d="m207.5 206.9c-6.42-10.548-18.815-16.877-32.017-16.35-2.924 0.117-5.781 0.494-8.54 1.108l1.461-4.456c4.865-14.834-2.652-30.715-17.818-37.64-11.819-5.397-25.962-4.232-36.534 3.008-8.128 5.567-13.644 13.3-16.143 21.768-8.848 0.016-17.635 2.596-24.981 7.628-19.785 13.552-23.845 36.976-16.502 58.42l3.41 9.032 13.513 25.36 83.743 3.284 41.853-30.909c13.184-9.734 16.794-26.719 8.555-40.253z" fill="#70ce34"/>
  <path d="m305.75 200.14c6.421-11.549 18.815-18.48 32.017-17.902 2.924 0.128 5.781 0.541 8.54 1.213l-1.269-4.238c-4.454-14.87 1.004-31.181 13.957-39.736 12.453-8.224 28.512-7.593 40.202 1.175 8.128 6.096 13.644 14.563 16.143 23.835 8.848 0.017 17.635 2.843 24.981 8.352 18.802 14.101 23.402 37.965 17.512 60.453-0.512 1.955-1.149 3.877-1.876 5.762l-3.994 10.362-12.062 25.048-83.743 3.596-41.853-33.844c-13.183-10.66-16.793-29.257-8.555-44.076z" fill="#11a52d"/>
  <path d="m59.832 259.23v-9.806h392.13v9.806c0 75.024-60.819 135.84-135.84 135.84h-120.44c-75.024 1e-3 -135.84-60.818-135.84-135.84z" fill="#fff"/>
  <path d="m256 249.42v145.65h60.117c75.024 0 135.84-60.819 135.84-135.84v-9.807z" fill="#ddd"/>
  <path d="m363.78 424.12h-215.58l-19.088-46.451h253.57z" fill="#ddd"/>
  <path d="m382.68 377.67h-126.68v46.452h107.78z" fill="#b7b7b7"/>
 </g>
</svg>
