<svg width="900" height="900" version="1.1" viewBox="0 0 238.12 238.12" xmlns="http://www.w3.org/2000/svg">
 <g transform="matrix(.4625 0 0 .4625 .66146 .66146)">
  <circle cx="256" cy="256" r="256" fill="#6fa3fb"/>
  <path d="m499.9 331.59h0.755c5.393-17.474 8.958-35.748 10.489-54.598l-189.3-189.3-131.68 43.894 21.947 21v98.938l-90.207 51.769-15.168-15.29 28.145 135.81 85.488 85.702c11.648 1.624 23.541 2.482 35.636 2.482 114.2 0 210.91-74.78 243.9-178.04z" fill="#4f76fa"/>
  <path d="m299.9 251.53v-141.88h-87.79v141.88l-124.7 71.564 42.952 76.569 125.64-72.111 120.6 69.218 40.026-78.273z" fill="#e9f6ff"/>
  <path d="m416.63 318.5-116.74-66.967v-141.88h-43.895v217.91l120.6 69.218z" fill="#d2e4fd"/>
  <path transform="matrix(.5 -.866 .866 .5 -112.64 516.91)" d="m325.51 334.06h131.69v43.893h-131.69z" fill="#b8cafc"/>
  <path transform="matrix(.866 -.5 .5 .866 -161.84 108.02)" d="m98.697 290.16h43.895v131.69h-43.895z" fill="#d2e4fd"/>
  <path d="m256 87.697h-65.842v43.895h131.68v-43.895z" fill="#d2e4fd"/>
  <path d="m256 87.697h65.842v43.894h-65.842z" fill="#b8cafc"/>
 </g>
</svg>
