<svg width="900" height="900" version="1.1" viewBox="0 0 238.12 238.12" xmlns="http://www.w3.org/2000/svg">
 <g transform="matrix(.4625 0 0 .4625 .66146 .66146)">
  <path d="m512 256c0 141.38-114.62 256-256 256s-256-114.62-256-256c0-118.92 81.09-218.9 190.99-247.67l23.805 79.638 23.805-87.378c5.75-0.39 11.55-0.59 17.4-0.59 141.38 0 256 114.62 256 256z" fill="#0070d2"/>
  <path d="m167.49 184.67-10.363 57.6-82.504 167.21 82.859 82.859c30.328 12.659 63.606 19.66 98.522 19.66 141.38 0 256-114.62 256-256 0-25.857-3.849-50.813-10.979-74.342l-88.653-88.653-36.253 45.1-137.52-137.52-23.805 121.4z" fill="#0047af"/>
  <path d="m190.99 131.4-57.637 67.878 35.357 19.092 46.085-54.537 17.998-61.607-17.998-98.92c-8.066 1.305-16.007 2.983-23.805 5.024z" fill="#e8e8e8"/>
  <path d="m214.8 163.83 46.08 54.543 35.357-19.092-57.637-67.878v-130.81c-8.044 0.537-15.983 1.451-23.805 2.716v160.53z" fill="#c6c6c6"/>
  <path d="m74.619 250.64v158.84c27.204-2.679 86.849-6.68 140.18-9.123l110.61-48.546-110.61-84.874c-46.492-4.764-117.52-12.747-140.18-16.293z" fill="#ffdcc0"/>
  <path d="m425.08 348.16c-1.564-7.448-2.867-12.444-6.198-21.982-11.649-33.363-15.258-56.551-14.891-74.827 0.598-29.772 11.755-46.498 15.948-72.866 5.637-35.416 5.922-39.656 4.241-60.849-2.622-32.995-47.229-48.138-47.229-20.283 0 11.114-3.373 32.497-6.969 61.452-3.775 30.53-37.119 75.2-52.643 92.279-0.083 0.091-0.163 0.177-0.246 0.268-15.369 16.855-24.08 21.337-61.968 19.328-5.351-0.283-20.64-1.724-40.327-3.742v133.42c51.011-2.336 96.241-3.246 101.76-0.206 20.051 11.04 52.781 31.052 85.818 14.534 13.611-6.801 30.345-30.152 22.706-66.526z" fill="#ffc1a6"/>
  <path d="m133.35 199.28v191.42c0 16.17 13.108 29.278 29.278 29.278h52.164l62.045-115.47-62.045-105.22h-81.442z" fill="#fff"/>
  <path d="m214.8 199.28v220.7h52.164c16.17 0 29.278-13.108 29.278-29.278v-191.42z" fill="#e8e8e8"/>
  <path d="m198.89 257.19v31.403h-31.402v31.817h31.402v31.402h15.907l17.998-42.187-17.998-52.435z" fill="#ff9f50"/>
  <path d="m230.7 257.19h-15.91v94.622h15.91v-31.402h31.402v-31.817h-31.402z" fill="#f27520"/>
 </g>
</svg>
