<svg width="900" height="900" version="1.1" viewBox="0 0 238.12 238.12" xmlns="http://www.w3.org/2000/svg">
 <g transform="matrix(.4625 0 0 .4625 .66146 .66146)">
  <circle cx="256" cy="256" r="256" fill="#46a99a"/>
  <path d="m509.27 293.38c-35.522-35.564-64.069-64.16-64.069-64.16l-45.82 7.489-144.22-144.22-96.368 331.08 88.253 88.253c2.973 0.103 5.954 0.173 8.952 0.173 128.68 0 235.18-94.954 253.27-218.62z" fill="#3d92a0"/>
  <path d="m281.54 219v-62.283c0-32.729-17.653-63.148-46.07-79.387l-5.075-2.9-40.916 185.48z" fill="#f72349"/>
  <path d="m230.4 74.426-5.075 2.9c-28.417 16.238-46.07 46.657-46.07 79.387v62.283l51.145 40.916z" fill="#fa4350"/>
  <path d="m230.4 219-40.915 61.374h92.06v-61.374z" fill="#fc9f63"/>
  <path d="m179.25 219h51.145v61.374h-51.145z" fill="#f9bb69"/>
  <path d="m302 372.43c79.09 0 143.2-64.115 143.2-143.2-79.09 0-143.2 64.115-143.2 143.2z" fill="#96e192"/>
  <path d="m302 311.06v-51.145h-71.603l-40.915 92.061z" fill="#f9bb69"/>
  <path d="m230.4 259.91h-71.602v51.145l71.602 40.916z" fill="#f6d76f"/>
  <path d="m230.4 311.06-40.915 56.259 40.915 56.259h71.603v-112.52z" fill="#292827"/>
  <path d="m158.8 311.06h71.603v112.52h-71.603z" fill="#4a3a34"/>
 </g>
</svg>
