<svg width="900" height="900" version="1.1" viewBox="0 0 238.12 238.12" xmlns="http://www.w3.org/2000/svg">
 <g transform="matrix(.4625 0 0 .4625 .66146 .66146)">
  <g id="XMLID_757_">
   <g id="XMLID_758_">
    <g id="XMLID_759_">
     <g id="XMLID_760_">
      <g id="XMLID_761_">
       <g id="XMLID_762_">
        <g id="XMLID_763_">
         <g id="XMLID_764_">
          <g id="XMLID_765_">
           <g id="XMLID_766_">
            <g id="XMLID_767_">
             <g id="XMLID_768_">
              <g id="XMLID_769_">
               <g id="XMLID_770_">
                <g id="XMLID_771_">
                 <circle cx="256" cy="256" r="256" fill="#683e2e"/>
                </g>
               </g>
              </g>
             </g>
            </g>
           </g>
          </g>
         </g>
        </g>
       </g>
      </g>
     </g>
    </g>
   </g>
  </g>
  <path d="m512 256c0-20.124-2.329-39.703-6.72-58.49l-152.85-152.85c-160.08 72.46-227.95 391.84-227.95 391.84l68.104 67.575c20.282 5.169 41.529 7.923 63.42 7.923 141.38 0 256-114.62 256-256z" fill="#512c20"/>
  <path d="m159.57 44.657h192.85v91.111h-192.85z" fill="#ffa348"/>
  <path d="m256 44.66h96.43v91.11h-96.43z" fill="#f28111"/>
  <path d="m354.76 448.73h-197.53c-27.631 0-50.239-22.607-50.239-50.239v-218.34c0-27.631 22.607-50.239 50.239-50.239h197.53c27.631 0 50.239 22.607 50.239 50.239v218.34c0 27.632-22.608 50.239-50.239 50.239z" fill="#fff"/>
  <path d="m405 180.15v218.34c0 27.63-22.6 50.24-50.23 50.24h-98.77v-318.82h98.77c27.63 0 50.23 22.61 50.23 50.24z" fill="#ffecc2"/>
  <path d="m308.51 325.24c-0.466-0.309-0.965-0.611-1.489-0.908 4.293 0.135 8.203-0.043 11.386-0.672 21.54-4.253 34.619-15.347 34.619-15.347s-13.151-11.008-34.719-15.12c-3.921-0.747-8.941-0.769-14.414-0.341 7.917-5.45 15.021-11.289 18.832-16.7 13.997-19.87 15.378-39.746 15.378-39.746s-19.92-0.352-40.933 11.862c-6.581 3.826-14.017 12.039-20.805 20.92 2.949-13.735 4.799-28.138 2.585-37.472-6.293-26.526-22.921-42.666-22.921-42.666s-16.628 16.141-22.921 42.666c-2.178 9.181-0.621 23.265 2.009 36.794-6.646-8.619-13.871-16.515-20.285-20.243-21.013-12.214-40.933-11.862-40.933-11.862s1.382 19.876 15.378 39.746c3.811 5.41 10.915 11.25 18.832 16.7-5.473-0.428-10.493-0.406-14.414 0.341-21.568 4.112-34.719 15.12-34.719 15.12s13.079 11.094 34.619 15.347c3.183 0.629 7.093 0.807 11.386 0.672-0.524 0.297-1.023 0.6-1.489 0.908-15.285 10.131-21.86 22.856-21.86 22.856s13.656 4.322 31.62 0.643c8.621-1.765 21.602-9.658 31.372-16.267l-4.57 57.265h31.893l-4.57-57.265c9.77 6.609 22.752 14.502 31.372 16.267 17.964 3.679 31.62-0.643 31.62-0.643s-6.575-12.725-21.859-22.855z" fill="#35b55f"/>
  <path d="m330.37 348.09s-13.654 4.312-31.619 0.642c-8.625-1.761-21.607-9.655-31.381-16.265l4.581 57.255h-15.952v-200.65l0.03-0.03s15.041 14.608 21.92 38.871c0.358 1.239 0.686 2.507 1 3.805 2.208 9.326 0.358 23.726-2.581 37.469 6.789-8.879 14.22-17.101 20.801-20.921 21.01-12.221 40.931-11.863 40.931-11.863s-1.373 19.876-15.37 39.737c-3.82 5.417-10.923 11.251-18.846 16.713 5.476-0.433 10.505-0.418 14.414 0.328 21.577 4.118 34.723 15.131 34.723 15.131s-13.072 11.087-34.619 15.34c-3.178 0.627-7.088 0.806-11.385 0.671 0.522 0.298 1.03 0.597 1.492 0.91 15.28 10.132 21.861 22.861 21.861 22.861z" fill="#1c9b4a"/>
 </g>
</svg>
