<svg width="900" height="900" version="1.1" viewBox="0 0 238.12 238.12" xmlns="http://www.w3.org/2000/svg">
 <g transform="matrix(.46285 0 0 .46285 .57322 .57322)">
  <path d="m512 256c0 141.39-114.61 256-256 256s-256-114.61-256-256 114.61-256 256-256 256 114.61 256 256z" fill="#0053bf"/>
  <path d="m512 256c0-6.6523-0.25391-13.246-0.75391-19.773l-118.77-118.76-25.766 53.25-110.71-110.71-3.3516 177.77-68.598-68.984 62.184 126.15-167-21.074 93.734 93.27-74.375 34.273 105.28 105.28c16.832 3.4805 34.266 5.3164 52.129 5.3164 141.39 0 256-114.61 256-256z" fill="#1b3b6b"/>
  <path d="m242 283h28v174h-28z" fill="#59c612"/>
  <path d="m255.81 283h14.191v174h-14.191z" fill="#59c612"/>
  <path d="m454.57 251.34c-45.957-4.5156-91.461 4.9375-131.07 26.098 39.316-43.809 63.988-99.773 68.984-159.97-44.637 25.582-80.438 62.797-104.3 106.74 5.418-55.922-5.3047-113.05-32.184-164.2-26.879 51.152-37.602 108.28-32.184 164.21-23.859-43.945-59.66-81.16-104.3-106.74 4.9961 60.199 29.668 116.16 68.984 159.97-39.613-21.16-85.117-30.613-131.07-26.098 41.5 49.152 101.27 78.301 164.51 81.465-48.113 5.6055-92.637 29.973-123.35 68.602 60.688 4.1602 119.54-21.789 157.4-69.402 0 0 4e-3 0 8e-3 -4e-3 -4e-3 0-4e-3 0-4e-3 -4e-3 0 0 0 4e-3 4e-3 4e-3v-4e-3s0 4e-3 -4e-3 4e-3h8e-3c37.859 47.613 96.711 73.566 157.4 69.406-30.707-38.629-75.234-62.996-123.35-68.602 63.25-3.1641 123.02-32.312 164.52-81.465z" fill="#93d632"/>
  <path d="m255.81 332.23c0.0625-0.0742 0.125-0.14844 0.1836-0.22265h0.00781c0-0.00391 0-0.00391-0.00391-0.00391h0.00391c4e-3 0 4e-3 -4e-3 4e-3 -4e-3 0 4e-3 -4e-3 4e-3 -4e-3 4e-3 4e-3 0 4e-3 0 8e-3 4e-3 37.855 47.613 96.711 73.562 157.4 69.402-30.711-38.625-75.234-62.996-123.35-68.602 63.246-3.1641 123.01-32.312 164.51-81.465-45.957-4.5156-91.461 4.9375-131.07 26.098 39.312-43.809 63.988-99.773 68.984-159.97-44.641 25.582-80.438 62.797-104.3 106.74 5.4178-55.922-5.3049-113.05-32.184-164.2z" fill="#59c612"/>
 </g>
</svg>
