<svg width="900" height="900" version="1.1" viewBox="0 0 238.12 238.12" xmlns="http://www.w3.org/2000/svg">
 <g transform="matrix(.4625 0 0 .4625 .66156 .66133)">
  <path d="m116.51 470.7c-70.139-45.662-116.51-124.76-116.51-214.7 0-141.38 114.62-256 256-256s256 114.62 256 256c0 89.932-46.373 169.03-116.51 214.7z" fill="#7584f2"/>
  <path d="m510.88 231.91-170.62-170.62-51.941 4.383-17.332 20.162 29.537 29.537-29.537 19.826 104.74 104.74-3.841 3.224-63.451-63.671-96.039 2.615-65.358-65.358-61.372 64.764 20.125 19.667-1.031 2.722 105.2 105.2-6.32 7.081 154.84 154.5h36.995c70.138-45.662 116.51-124.76 116.51-214.7 0-8.124-0.379-16.16-1.119-24.091z" fill="#4253ce"/>
  <path d="m182.75 345.09c-24.384 0-45.341 17.299-49.961 41.241l-16.28 84.366c40.127 26.126 88.034 41.305 139.49 41.305 0.691 0 1.379-0.014 2.068-0.019l12.924-76.981-12.923-89.912z" fill="#e9edf5"/>
  <path d="m395.49 470.7-16.281-84.366c-4.62-23.943-25.577-41.241-49.961-41.241h-73.602v166.91c0.119 0 0.237 3e-3 0.356 3e-3 51.453-1e-3 99.36-15.18 139.49-41.305z" fill="#cdd2e1"/>
  <path d="m229.32 326.15v28.317c0 15.639 12.678 28.317 28.317 28.317 0.146 0 0.291-9e-3 0.436-0.011l3.636-30.195-3.636-26.428z" fill="#ffbeaa"/>
  <path d="m255.64 326.15v56.557c0.657 0.046 1.319 0.077 1.988 0.077 15.639 0 28.317-12.678 28.317-28.317v-28.317z" fill="#faa68e"/>
  <path d="m157.58 155.46c3.803 0 7.265 1.427 9.909 3.761v-22.222h-20.176c2.365-2.651 3.814-6.136 3.814-9.967 0-8.282-6.714-14.996-14.996-14.996s-14.996 6.714-14.996 14.996c0 3.831 1.449 7.316 3.814 9.967h-20.177v21.465c-2.504-1.878-5.605-3.004-8.976-3.004-8.282 0-14.996 6.714-14.996 14.996s6.714 14.996 14.996 14.996c3.371 0 6.472-1.126 8.976-3.004v21.465h62.717v-22.222c-2.643 2.333-6.105 3.761-9.909 3.761-8.282 0-14.996-6.714-14.996-14.996s6.714-14.996 14.996-14.996z" fill="#ffce00"/>
  <path d="m281.94 114.81c-4.201 0-8.025-1.576-10.944-4.154v24.545h22.285c-2.612 2.928-4.212 6.777-4.212 11.009 0 9.148 7.416 16.563 16.563 16.563 9.148 0 16.563-7.416 16.563-16.563 0-4.232-1.601-8.081-4.212-11.009h22.286v-23.708c2.766 2.074 6.191 3.318 9.915 3.318 9.148 0 16.563-7.416 16.563-16.563s-7.416-16.563-16.563-16.563c-3.724 0-7.148 1.244-9.915 3.318v-23.71h-69.273v24.545c2.92-2.577 6.744-4.154 10.944-4.154 9.148 0 16.563 7.416 16.563 16.563s-7.415 16.563-16.563 16.563z" fill="#bfe1ff"/>
  <path d="m255.31 241.47c-7.575 0-13.716 6.141-13.716 13.715 0 3.479 1.305 6.645 3.44 9.063h-20.325v-57.362h19.632c-1.717-2.291-2.747-5.127-2.747-8.21 0-7.575 6.141-13.716 13.716-13.716 0.944 0 1.865 0.096 2.755 0.277l3.931-12.909-3.932-14.558c-0.689-0.019-1.375-0.052-2.068-0.052-40.878 0-74.017 33.138-74.017 74.017v32.135c0 40.879 33.139 74.017 74.017 74.017 0.694 0 1.379-0.033 2.068-0.052l3.932-42.803-3.932-53.285c-0.89-0.181-1.811-0.277-2.754-0.277z" fill="#ffcdbe"/>
  <path d="m256 157.71c-0.12 0-0.237 8e-3 -0.356 9e-3v27.25c7.421 0.177 13.385 6.236 13.385 13.699 0 3.083-1.03 5.919-2.747 8.21h19.632v18.454c2.424-2.163 5.612-3.488 9.116-3.488 7.575 0 13.715 6.141 13.715 13.716s-6.141 13.716-13.715 13.716c-3.504 0-6.692-1.326-9.116-3.488v18.454h-20.325c2.134-2.418 3.44-5.584 3.44-9.063 0-7.463-5.964-13.521-13.385-13.699v96.391c0.119 1e-3 0.237 9e-3 0.356 9e-3 40.878 0 74.017-33.138 74.017-74.017v-32.135c0-40.88-33.139-74.018-74.017-74.018z" fill="#ffbeaa"/>
  <path d="m409.55 280.58c0 3.479-1.305 6.645-3.439 9.063h20.324v-18.454c2.424 2.163 5.612 3.488 9.116 3.488 7.575 0 13.716-6.141 13.716-13.715 0-7.575-6.141-13.716-13.716-13.716-3.504 0-6.692 1.325-9.116 3.488v-18.454h-19.632c1.717-2.291 2.747-5.126 2.747-8.21 0-7.575-6.141-13.715-13.715-13.715s-13.715 6.141-13.715 13.715c0 3.083 1.03 5.919 2.747 8.21h-19.632v57.362h20.325c-2.134-2.418-3.44-5.584-3.44-9.063 0-7.575 6.141-13.715 13.715-13.715s13.715 6.141 13.715 13.716z" fill="#ff7d81"/>
 </g>
</svg>
