<svg width="900" height="900" version="1.1" viewBox="0 0 238.12 238.12" xmlns="http://www.w3.org/2000/svg">
 <g transform="matrix(.4625 0 0 .4625 .66146 .66146)">
  <g id="XMLID_1778_">
   <g id="XMLID_1779_">
    <g id="XMLID_1780_">
     <g id="XMLID_1781_">
      <g id="XMLID_1782_">
       <g id="XMLID_1783_">
        <g id="XMLID_1784_">
         <g id="XMLID_1785_">
          <g id="XMLID_2983_">
           <g id="XMLID_2984_">
            <g id="XMLID_2985_">
             <g id="XMLID_2986_">
              <g id="XMLID_3026_">
               <g id="XMLID_3027_">
                <g id="XMLID_3028_">
                 <circle cx="256" cy="256" r="256" fill="#873a22"/>
                </g>
               </g>
              </g>
             </g>
            </g>
           </g>
          </g>
         </g>
        </g>
       </g>
      </g>
     </g>
    </g>
   </g>
  </g>
  <path d="m512 256c0-26.566-4.047-52.186-11.557-76.278l-73.441-73.442-30.05 22.138-77.194-77.194-77.737-5.981-43.48 25.223-11.557 78.993-101.99 18.199 86.645 86.645-34.933 200.16 47.261 47.261c22.848 6.686 47.019 10.273 72.029 10.273 141.38 0 256-114.62 256-256z" fill="#602a1c"/>
  <path d="m334.7 113.98h-33v-25.347c0-11.876-9.662-21.538-21.538-21.538h-48.326c-11.876 0-21.538 9.662-21.538 21.538v25.348h-33v-25.348c0-30.072 24.465-54.538 54.538-54.538h48.326c30.072 0 54.538 24.465 54.538 54.538z" fill="#a9e54a"/>
  <path d="m280.16 67.095c11.876 0 21.538 9.662 21.538 21.538v25.348h33v-25.348c0-30.072-24.465-54.538-54.538-54.538h-24.163v33z" fill="#59c66b"/>
  <path d="m112.55 164.12 24.159 290.34h119.29l59.645-145.17-59.645-145.17z" fill="#a9e54a"/>
  <path d="m399.45 164.12h-143.45v290.34h119.29z" fill="#59c66b"/>
  <path d="m345.98 331.39-13.458-20.935 11.998-7.585-52.372-26.673 1.628 58.751 13.023-8.232 13.584 21.13c0.174 0.27 0.58 0.902 0.066 1.844-0.513 0.942-1.265 0.942-1.586 0.942h-30.392v30.431h30.392c11.799 0 22.641-6.433 28.296-16.79 5.654-10.357 5.202-22.957-1.179-32.883z" fill="#e0e0e0"/>
  <g fill="#fff">
   <path d="m221.11 350.64h-27.977c-0.321 0-1.073 0-1.586-0.942-0.514-0.942-0.108-1.575 0.054-1.826l9.785-15.175-25.575-16.492-9.797 15.193c-6.38 9.926-6.831 22.526-1.177 32.882 5.654 10.357 16.497 16.79 28.296 16.79h27.977v13.917l50.531-30.016-50.531-30.016z"/>
   <path d="m238.68 274.63 15.797-24.572c0.132-0.205 0.533-0.83 1.52-0.83s1.389 0.625 1.55 0.875l12.363 19.083 25.539-16.545-12.333-19.038c-5.96-9.271-16.098-14.806-27.119-14.806s-21.159 5.535-27.118 14.805l-15.855 24.663-12.618-8.049-1.868 58.743 52.48-26.459z"/>
  </g>
  <path d="m84.998 106.28h342v61.378h-342z" fill="#59c66b"/>
  <path d="m256 106.28h171v61.378h-171z" fill="#36a36f"/>
  <g fill="#e0e0e0">
   <path d="m256 355.68v18.585l15.643-9.292z"/>
   <path d="m257.55 250.11 12.363 19.083 25.539-16.545-12.333-19.038c-5.96-9.271-16.098-14.806-27.119-14.806v30.431c0.987 0 1.389 0.625 1.55 0.875z"/>
  </g>
 </g>
</svg>
