<svg width="900" height="900" version="1.1" viewBox="0 0 238.12 238.12" xmlns="http://www.w3.org/2000/svg">
 <g transform="matrix(.4625 0 0 .4625 .66146 .66146)">
  <g id="XMLID_2869_">
   <g id="XMLID_2870_">
    <g id="XMLID_2871_">
     <g id="XMLID_2872_">
      <g id="XMLID_2873_">
       <g id="XMLID_2874_">
        <g id="XMLID_2953_">
         <g id="XMLID_2954_">
          <g id="XMLID_3114_">
           <g id="XMLID_3115_">
            <g id="XMLID_3116_">
             <g id="XMLID_3117_">
              <g id="XMLID_3118_">
               <g id="XMLID_3119_">
                <g id="XMLID_3120_">
                 <circle cx="256" cy="256" r="256" fill="#7c371d"/>
                </g>
               </g>
              </g>
             </g>
            </g>
           </g>
          </g>
         </g>
        </g>
       </g>
      </g>
     </g>
    </g>
   </g>
  </g>
  <path d="m196.57 505.06c19.073 4.535 38.973 6.935 59.433 6.935 131.76 0 240.27-99.541 254.43-227.52l-223.71-223-119.87 97.936 167.71 165.88-30.094 31.375-137.88-137.88-39.264 24.877-26.851-0.641 19.863 19.172-45.857 120.79z" fill="#49170d"/>
  <path d="m157.33 281.38 11.534 7.781-2.281-70.38-66.114 24.236 13.035 8.794-45.422 78.68c-3.872 6.715-5.918 14.306-5.918 21.954 0 11.417 4.372 22.261 12.311 30.535 8.343 8.692 19.606 13.48 31.714 13.48h110.12v-52.739h-94.965z" fill="#90e266"/>
  <path d="m443.91 330.47-63.382-109.77-45.673 26.371 55.802 96.646h-55.622v-18.799l-58.308 45.171 58.308 45.171v-18.804h70.776c24.275 0 44.025-19.745 44.025-44.014-1e-3 -7.648-2.047-15.24-5.926-21.968z" fill="#379b2f"/>
  <path d="m333.6 191.63 6.794-70.088-12.788 7.48-33.488-58.001c-2.015-3.501-4.492-6.705-7.393-9.553-9.745-9.533-23.138-13.93-36.745-12.064-13.536 1.856-25.227 9.722-32.079 21.585l-51.047 88.416 45.674 26.37 43.472-75.297 26.082 45.174-12.905 7.549z" fill="#90e266"/>
  <path d="m340.39 121.54-6.79 70.09-64.42-28.43 12.9-7.55-26.08-45.17v-61.49c11.47-0.04 22.42 4.36 30.72 12.48 2.91 2.85 5.38 6.05 7.4 9.55l33.49 58.01z" fill="#379b2f"/>
 </g>
</svg>
