<svg width="900" height="900" version="1.1" viewBox="0 0 238.12 238.12" xmlns="http://www.w3.org/2000/svg">
 <g transform="matrix(.4625 0 0 .4625 .66146 .66146)">
  <circle cx="256" cy="256" r="256" fill="#ff6c52"/>
  <path d="m508.36 299.28-124.35-124.35-61.058 78.524-156.18-156.18-40.398 21.356 16.349 89.111-11.496 4.491-15.265-15.265-18.32 28.385 84.553 84.553-117.16 27.16 174.4 174.4c5.472 0.349 10.991 0.526 16.552 0.526 126.63 0 231.79-91.947 252.36-212.72z" fill="#f73021"/>
  <path d="m126.38 237.38c-22.283 0-40.412-18.129-40.412-40.412h30c0 5.741 4.67 10.412 10.412 10.412 5.741 0 10.412-4.671 10.412-10.412s-4.67-10.412-10.412-10.412h-15v-89.28h7.181l22.819 20.828v41.338c14.878 5.968 25.412 20.54 25.412 37.526 0 22.283-18.128 40.412-40.412 40.412z" fill="#fff"/>
  <path d="m326.04 266.04h-67.722l-139.76-168.76h48.217z" fill="#555a66"/>
  <path d="m326.04 266.04-69.918-74.088v71.436l2.196 2.652z" fill="#333940"/>
  <path d="m65.044 256h194.69v81.07h-194.69z" fill="#ffce00"/>
  <path d="m452 259.16-36.829-17.042-0.339-0.73-18.699-14.798-4.334-34.867-7.79-16.798h-84.282v81.07h-43.607v81.07h195.88z" fill="#fdba12"/>
  <circle transform="matrix(.16 -.987 .987 .16 -212.28 417.39)" cx="139.15" cy="333.45" r="40.953" fill="#555a66"/>
  <circle transform="matrix(.16 -.987 .987 .16 -212.28 417.39)" cx="139.15" cy="333.45" r="17.888" fill="#e9edf5"/>
  <circle transform="matrix(.16 -.987 .987 .16 -16.015 648.07)" cx="372.85" cy="333.45" r="40.953" fill="#333940"/>
  <circle transform="matrix(.16 -.987 .987 .16 -16.014 648.07)" cx="372.85" cy="333.45" r="17.888" fill="#cdd2e1"/>
  <path d="m391.8 191.73h-65.644v49.665h88.677z" fill="#e9edf5"/>
 </g>
</svg>
