<svg width="900" height="900" version="1.1" viewBox="0 0 238.12 238.12" xmlns="http://www.w3.org/2000/svg">
 <g transform="matrix(.46285 0 0 .46285 .57322 .57322)">
  <path d="m512 256c0 141.39-114.61 256-256 256s-256-114.61-256-256 114.61-256 256-256 256 114.61 256 256z" fill="#ffce00"/>
  <path d="m512 256c0-7.8242-0.37109-15.559-1.0586-23.199l-124.41-124.41-7.2383 10.047-49.262-49.258-135.09 72.555-35.086-35.086-32.68 22.555 63.711 63.711-82.992 73.562 93.727 93.727-93.727 56.41 88.363 88.363c19.168 4.582 39.168 7.0234 59.742 7.0234 141.39 0 256-114.61 256-256z" fill="#ffa300"/>
  <path d="m170.85 229.15h-17.113c-8.1211 0-14.703-6.582-14.703-14.699v-51.246c0-8.1211 6.582-14.703 14.703-14.703h17.113c8.1172 0 14.699 6.582 14.699 14.703v51.246c0 8.1172-6.582 14.699-14.699 14.699z" fill="#414952"/>
  <path d="m358.26 229.15h-17.113c-8.1172 0-14.699-6.582-14.699-14.699v-51.246c0-8.1211 6.582-14.703 14.699-14.703h17.113c8.1211 0 14.703 6.582 14.703 14.703v51.246c0 8.1172-6.582 14.699-14.703 14.699z" fill="#333940"/>
  <path d="m352.76 129.2-17.328-51.293c-3.1289-9.2656-11.82-15.504-21.602-15.504h-115.66c-9.7812 0-18.473 6.2383-21.602 15.504l-17.328 51.293-20.07 4.9062c-9.0469 2.2109-14.996 10.859-13.82 20.098l4.2969 33.867c1.3906 10.957 10.711 19.168 21.754 19.168h209.2c11.043 0 20.363-8.2109 21.754-19.168l4.3008-33.867c1.1719-9.2383-4.7734-17.887-13.824-20.098z" fill="#fff"/>
  <path d="m372.83 134.11-20.07-4.9062-17.328-51.293c-3.1289-9.2656-11.82-15.5-21.602-15.5h-58.234v144.83h105c11.043 0 20.363-8.2109 21.754-19.168l4.2969-33.867c1.1758-9.2383-4.7734-17.887-13.82-20.098z" fill="#e9edf5"/>
  <path d="m159.24 129.2-20.07 4.9062c-9.0469 2.2109-14.996 10.859-13.82 20.098l4.2969 33.867c1.3906 10.957 10.711 19.168 21.754 19.168h209.2c11.043 0 20.363-8.2109 21.754-19.168l4.3008-33.867c1.1719-9.2383-4.7734-17.887-13.824-20.098l-20.07-4.9062" fill="#fff"/>
  <path d="m372.83 134.11-20.07-4.9062h-97.164v78.039h105c11.043 0 20.363-8.2109 21.754-19.168l4.2969-33.863c1.1758-9.2422-4.7734-17.891-13.82-20.102z" fill="#e9edf5"/>
  <path d="m328.05 77.367h-144.11c-0.0586 0.18359-0.1289 0.35937-0.1875 0.54297l-15.762 51.293h176.01l-15.762-51.293c-0.0586-0.18359-0.12891-0.35938-0.1875-0.54297z" fill="#a3d4ff"/>
  <path d="m328.24 77.91c-0.0586-0.18359-0.12891-0.35938-0.1875-0.54297h-72.461v51.836h88.41z" fill="#65b1fc"/>
  <path d="m162.29 131.1h-29.977c-4.375 0-7.9219-3.5469-7.9219-7.9219v-10.824c0-4.375 3.5469-7.9219 7.9219-7.9219h22.055c4.375 0 7.9219 3.5469 7.9219 7.9219z" fill="#fff"/>
  <path d="m128.77 181.11h42.066c6.957 0 11.035-7.8359 7.0352-13.535l-6.1719-8.7969c-1.6094-2.293-4.2344-3.6602-7.0391-3.6602h-39.191z" fill="#4a7aff"/>
  <path d="m349.71 131.1h29.977c4.375 0 7.9219-3.5469 7.9219-7.9219v-10.824c0-4.375-3.5469-7.9219-7.9219-7.9219h-22.055c-4.375 0-7.9219 3.5469-7.9219 7.9219z" fill="#e9edf5"/>
  <path d="m383.23 181.11h-42.066c-6.957 0-11.035-7.8359-7.0352-13.535l6.1719-8.7969c1.6094-2.293 4.2344-3.6602 7.0391-3.6602h39.191z" fill="#0053bf"/>
  <path d="m192.84 168.22h126.31v12.887h-126.31z" fill="#a3d4ff"/>
  <path d="m255.59 168.22h63.562v12.887h-63.562z" fill="#65b1fc"/>
  <path d="m135.61 382.09 220.53-150.15 20.258 29.758-220.53 150.15z" fill="#414952"/>
  <path d="m356.14 231.95-100.54 68.449v43.547l120.8-82.238z" fill="#333940"/>
  <path d="m135.61 261.72 20.262-29.758 220.53 150.15-20.262 29.758z" fill="#414952"/>
  <path d="m376.39 382.09-120.8-82.242v43.551l100.54 68.449z" fill="#333940"/>
  <path d="m107.89 227.19h296.21v39.285h-296.21z" fill="#4a7aff"/>
  <path d="m255.59 227.19h148.51v39.289h-148.51z" fill="#0053bf"/>
  <path d="m107.89 377.33h296.21v39.285h-296.21z" fill="#4a7aff"/>
  <path d="m255.59 377.33h148.51v39.285h-148.51z" fill="#0053bf"/>
  <path d="m291.17 321.9c0 19.426-15.746 35.172-35.172 35.172s-35.172-15.746-35.172-35.172 15.746-35.176 35.172-35.176 35.172 15.75 35.172 35.176z" fill="#4a7aff"/>
  <path d="m256 286.73c-0.13672 0-0.26953 8e-3 -0.40625 0.0117v70.324c0.13672 0 0.26953 0.0117 0.40625 0.0117 19.426 0 35.172-15.75 35.172-35.176 0-19.422-15.746-35.172-35.172-35.172z" fill="#0053bf"/>
 </g>
</svg>
