<svg width="900" height="900" version="1.1" viewBox="0 0 238.12 238.12" xmlns="http://www.w3.org/2000/svg">
 <g transform="matrix(.4625 0 0 .4625 .66146 .66146)">
  <circle cx="256" cy="256" r="256" fill="#e03a00"/>
  <g fill="#940030">
   <path d="m510.74 230.56-76.866-76.865-10.914 100.9-72.978-72.076-98.251 85.306-118.45-116.58-4.544 20.733-20.994-20.994-2.586 52.579 5.415-1.414-7.713 3.856 3.448 106.02-10.647 41.288 158.01 158.66c0.776 7e-3 1.55 0.029 2.327 0.029 141.38 0 256-114.62 256-256 1e-3 -8.583-0.43-17.066-1.256-25.434z"/>
   <polygon points="83.609 152.14 78.726 181.58 90.074 201.12 102.57 203.71 106.16 174.69"/>
  </g>
  <circle cx="256" cy="256" r="119.33" fill="#fff"/>
  <path d="m256 136.67c65.905 0 119.33 53.426 119.33 119.33s-53.425 119.33-119.33 119.33z" fill="#dbdbdb"/>
  <circle cx="256" cy="256" r="83.523" fill="#e0e0e0"/>
  <path d="m256 172.47c46.133 0 83.532 37.398 83.532 83.532s-37.399 83.532-83.532 83.532z" fill="#bababa"/>
  <path d="m129.79 149.86c-2.857 0-5.172 2.315-5.172 5.172v27.857c0 8.754-6.485 16.003-14.901 17.248v-45.104c0-2.857-2.315-5.172-5.172-5.172s-5.172 2.315-5.172 5.172v45.104c-8.413-1.245-14.898-8.494-14.898-17.248v-27.857c0-2.857-2.315-5.172-5.172-5.172s-5.172 2.315-5.172 5.172v27.857c0 14.465 11.109 26.372 25.243 27.67v121.17c0 2.857 2.315 5.172 5.172 5.172s5.172-2.315 5.172-5.172v-121.17c14.134-1.296 25.245-13.205 25.245-27.67v-27.857c-1e-3 -2.858-2.317-5.172-5.173-5.172z" fill="#fff"/>
  <path d="m129.79 149.86c-2.857 0-5.172 2.315-5.172 5.172v27.857c0 8.754-6.485 16.003-14.901 17.248v-45.104c0-2.843-2.293-5.144-5.13-5.168v187.04c2.838-0.022 5.13-2.326 5.13-5.168v-121.18c14.134-1.296 25.245-13.205 25.245-27.67v-27.855c0-2.858-2.316-5.172-5.172-5.172z" fill="#e0e0e0"/>
  <path d="m429.61 152.23c-11.417 14.714-40.617 58.618-22.93 103.62h27.2v-102.15c-1e-3 -2.275-2.875-3.268-4.27-1.47z" fill="#fff"/>
  <path d="m433.88 153.7c0-2.276-2.874-3.269-4.27-1.47-2.336 3.01-5.418 7.258-8.688 12.469v91.15h12.957v-102.15z" fill="#e0e0e0"/>
  <path d="m433.88 255.85v95.198c0 7.511-6.089 13.6-13.6 13.6s-13.6-6.089-13.6-13.6v-95.198z" fill="#fee187"/>
  <path d="m420.92 255.85v108.76c7.211-0.338 12.957-6.273 12.957-13.567v-95.198z" fill="#ffc61b"/>
  <path d="m117.16 256v88.35c0 6.971-5.651 12.621-12.621 12.621-6.971 0-12.621-5.651-12.621-12.621v-88.35z" fill="#fee187"/>
  <path d="m104.58 256v100.97c6.951-0.022 12.579-5.663 12.579-12.619v-88.35z" fill="#ffc61b"/>
 </g>
</svg>
