<svg width="900" height="900" version="1.1" viewBox="0 0 238.12 238.12" xmlns="http://www.w3.org/2000/svg">
 <g transform="matrix(.4625 0 0 .4625 .66146 .66146)">
  <circle cx="256" cy="256" r="256" fill="#d8f1fb"/>
  <path d="m509.11 294.54-78.993-78.993-21.566-5.721-98.91-98.91-17.322 7.078-83.525-83.525-21.8 76.448-122.65 43.597 33.189 33.189-0.743 238.46 69.758 69.758c27.847 10.386 57.981 16.076 89.447 16.076 128.28 0 234.53-94.362 253.11-217.46z" fill="#d0d5f4"/>
  <path d="m165.2 34.466v105.57h21.799l13.259-52.784-13.259-52.783z" fill="#ff405c"/>
  <path d="m187 34.466h21.799v105.57h-21.799z" fill="#ea1c81"/>
  <path d="m187 426.17h-90.2l-15.229-295.78h105.43l57.4 170.86z" fill="#424e66"/>
  <path d="m187 426.17h90.2l15.229-295.78h-105.43z" fill="#29313d"/>
  <path d="m64.349 110.91v43.599h122.65l44.576-21.799-44.576-21.8z" fill="#ffd321"/>
  <path d="m187 110.91h122.65v43.599h-122.65z" fill="#ffb454"/>
  <path d="m253.86 391.77h88.131l25.066-23.572-25.066-23.571h-88.131z" fill="#ffef4a"/>
  <path d="m341.99 344.63h88.13v47.144h-88.13z" fill="#ffd321"/>
  <path d="m253.86 325.65h88.131l44.065-22.53-44.065-22.529h-88.131z" fill="#ff405c"/>
  <path d="m341.99 280.59h88.13v45.059h-88.13z" fill="#ea1c81"/>
  <path d="m237.44 265.55v25.375h104.55l44.065-42.23-44.065-46.288h-41.405c-34.873-1e-3 -63.144 28.269-63.144 63.143z" fill="#ffb454"/>
  <path d="m446.54 290.92v-25.375c0-34.873-28.27-63.144-63.144-63.144h-41.404v88.518h104.55z" fill="#ff8659"/>
  <path d="m307.15 323.25c-4.172 0-5.359-0.62-8.883-2.461-5.063-2.647-12.716-6.646-25.97-6.646-13.255 0-20.907 3.999-25.97 6.646-0.036 0.019-0.072 0.038-0.108 0.056-5.402 2.823-8.775 8.308-8.775 14.286v3.27c0 12.113 13.167 20.013 24.182 14.42 0.631-0.32 1.226-0.631 1.789-0.925 3.523-1.841 4.711-2.462 8.882-2.462 4.172 0 5.359 0.62 8.882 2.462 5.064 2.647 12.716 6.646 25.971 6.646 13.254 0 20.906-4 25.969-6.646 3.52-1.84 4.707-2.461 8.873-2.461l20.77-13.092-20.77-22.2c-13.25 1e-3 -20.901 4-25.964 6.646-3.521 1.841-4.708 2.461-8.878 2.461z" fill="#00ecce"/>
  <path d="m342 349.44c4.171 0 5.357 0.62 8.879 2.462 5.063 2.646 12.716 6.646 25.969 6.646 13.254 0 20.906-4 25.969-6.646 3.522-1.841 4.709-2.462 8.878-2.462 4.171 0 5.357 0.62 8.879 2.462 0.511 0.267 1.048 0.548 1.615 0.837 11.077 5.651 24.353-2.141 24.353-14.335v-3.27c0-5.977-3.372-11.462-8.773-14.285-0.035-0.018-0.07-0.036-0.105-0.055-5.063-2.646-12.716-6.646-25.969-6.646s-20.905 4-25.968 6.646c-3.522 1.841-4.709 2.461-8.879 2.461s-5.357-0.62-8.879-2.461c-5.063-2.646-12.716-6.646-25.969-6.646h-6e-3v35.292z" fill="#00c6cb"/>
  <path d="m237.44 401.22c0 13.78 11.171 24.951 24.951 24.951h79.598l39.674-22.34-39.674-22.34h-104.55z" fill="#ffb454"/>
  <path d="m421.59 426.17c13.78 0 24.951-11.171 24.951-24.951v-19.729h-104.55v44.679h79.597z" fill="#ff8659"/>
 </g>
</svg>
