<svg width="900" height="900" version="1.1" viewBox="0 0 238.12 238.12" xmlns="http://www.w3.org/2000/svg">
 <g transform="matrix(.4625 0 0 .4625 .66146 .66146)">
  <circle cx="256" cy="256" r="256" fill="#00ff93"/>
  <path d="m134.72 377.28 134.38 134.38c61.082-3.112 121.26-27.985 167.92-74.639s71.527-106.83 74.639-167.92l-134.38-134.38z" fill="#00dc80"/>
  <path d="m189.05 98.049c-40.887 17.352-73.649 50.115-91.001 91.001l32.194 66.95-32.191 66.946c17.352 40.886 50.11 73.652 90.997 91.005l66.95-32.195 51.948-125.76-51.948-125.76z" fill="#ff4a4a"/>
  <path d="m381.76 256 32.195-66.949c-17.352-40.887-50.118-73.645-91.004-90.997l-66.947 32.19v251.51l66.946 32.191c40.886-17.352 73.652-50.11 91.004-90.997z" fill="#e40058"/>
  <path d="m316.76 256-60.756 85.756c-47.362 0-85.756-38.394-85.756-85.756s38.394-85.756 85.756-85.756z" fill="#fff"/>
  <path d="m341.76 256c0 47.362-38.394 85.756-85.756 85.756v-171.51c47.362 0 85.756 38.394 85.756 85.756z" fill="#d1d1d6"/>
  <path d="m98.049 322.95c19.618-15.716 32.195-39.857 32.195-66.949s-12.576-51.234-32.195-66.949c-8.73 20.57-13.561 43.195-13.561 66.949s4.832 46.379 13.561 66.949z" fill="#fff"/>
  <path d="m381.76 256c0 27.092 12.576 51.234 32.195 66.949 8.73-20.57 13.561-43.195 13.561-66.949s-4.831-46.379-13.561-66.949c-19.619 15.715-32.195 39.857-32.195 66.949z" fill="#d1d1d6"/>
  <path d="m189.05 98.049c15.716 19.618 39.857 32.195 66.949 32.195l16.208-22.878-16.208-22.878c-23.754 0-46.379 4.832-66.949 13.561z" fill="#fff"/>
  <path d="m256 427.51 16.208-22.878-16.208-22.878c-27.092 0-51.234 12.576-66.949 32.195 20.57 8.729 43.195 13.561 66.949 13.561z" fill="#fff"/>
  <path d="m256 381.76v45.756c23.754 0 46.379-4.831 66.949-13.561-15.715-19.619-39.857-32.195-66.949-32.195z" fill="#d1d1d6"/>
  <path d="m322.95 98.049c-20.57-8.73-43.195-13.561-66.949-13.561v45.756c27.092 0 51.234-12.576 66.949-32.195z" fill="#d1d1d6"/>
  <path d="m256 267.94h-22.342l22.342-38.935 4.775-21.176-4.775-8.963-48.243 84.074h48.243l7.301-7.321z" fill="#4b5055"/>
  <path d="m279.43 198.86h-23.428l-2e-3 4e-3v30.139l8.39-14.623-0.138 53.558h-8.252v15h8.213l-0.078 30.183 15 0.039 0.078-30.222h13.255v-15h-13.216z" fill="#373c41"/>
 </g>
</svg>
