<svg width="900" height="900" version="1.1" viewBox="0 0 238.12 238.12" xmlns="http://www.w3.org/2000/svg">
 <g transform="matrix(.4625 0 0 .4625 .66146 .66146)">
  <path d="m256 0c-141.38 0-256 114.62-256 256 0 62.665 22.615 120.2 60 164.69 0.645 0.768 1.271 1.19 1.925 1.95l107.92 74.478c10.298 3.68 20.9 6.72 31.759 9.07h108.79c11.371-2.461 22.455-5.688 33.208-9.604l106.86-74.116c38.355-44.755 61.531-102.9 61.531-166.47 0-141.38-114.62-256-256-256z" fill="#606aea"/>
  <path d="m504.04 192.4-88.348-88.348-292.71 69.465 45.504 322.66 1.405 0.966c9.402 3.357 19.141 6.209 29.014 8.462 0.915 0.209 1.737 0.218 2.657 0.417l108.84 0.163c0.943-0.204 1.765-0.366 2.704-0.58 8.115-1.854 16.864-4.335 24.696-6.955 2.19-0.732 3.653-1.285 5.808-2.069l106.86-74.116c0.577-0.674 0.96-1.098 1.531-1.778 37.326-44.477 60-102.08 60-164.69 0-21.955-2.764-43.264-7.963-63.599z" fill="#4855b7"/>
  <path d="m273.84 179.73h-141.83c-25.545 0-46.253-20.708-46.253-46.253s20.708-46.253 46.253-46.253h124.13l3.849 4 13.856-4c25.545 0 46.253 20.708 46.253 46.253s-20.708 46.253-46.253 46.253z" fill="#dce1eb"/>
  <path d="m380.06 87.123h-18.54l-15.043 5-15.043-5h-20.77l-15.944 6-14.125-6h-20.573l-3.852 2v90.507l50.625-5 20.735 5h20.603l14.499-7 15.609 7h1.817c25.545 0 46.253-20.708 46.253-46.253 0-14.761-6.915-27.908-17.682-36.377-3.701-2.911-7.858-0.27-12.346-1.951-4.415-1.654-9.15-7.653-14.086-7.877-0.707-0.033-1.42-0.049-2.137-0.049z" fill="#bec3d2"/>
  <path d="m331.18 87.221-34.005 92.507h30.298l34.006-92.507z" fill="#7e8596"/>
  <path d="m124.67 179.15 33.793-91.928h-26.46c-1.313 0-2.613 0.056-3.899 0.163l-28.923 78.68c6.75 6.797 15.597 11.509 25.489 13.085z" fill="#afb4c8"/>
  <path d="m381.92 87.261-33.991 92.467h30.299l30.366-82.607c-7.4-5.83-16.624-9.448-26.674-9.86z" fill="#7e8596"/>
  <path d="m246.42 179.73h30.298l34.006-92.507h-30.299z" fill="#7e8596"/>
  <path d="m144.91 179.73h30.298l34.006-92.507h-30.299z" fill="#afb4c8"/>
  <path d="m195.67 179.73h30.298l30.145-82.004 1.861-8.503-1.859-2h-26.44z" fill="#afb4c8"/>
  <path d="m256.11 87.221v10.51l3.864-10.51z" fill="#7e8596"/>
  <path d="m256 130.22c-31.536 0-57.101 25.565-57.101 57.101v318.28c18.361 4.184 37.473 6.393 57.101 6.393s38.74-2.209 57.101-6.392v-318.28c0-31.536-25.565-57.102-57.101-57.102z" fill="#ffb89c"/>
  <path d="m313.1 187.33c0-31.5-25.507-57.04-56.993-57.099v381.77c19.59-8e-3 38.666-2.215 56.993-6.391z" fill="#ff936b"/>
  <path d="m256 239.69c-22.131 0-40.072-17.941-40.072-40.072v-60.597c0-22.131 17.941-40.072 40.072-40.072s40.072 17.941 40.072 40.072v60.597c0 22.131-17.941 40.072-40.072 40.072z" fill="#fff"/>
  <path d="m256.11 98.952v140.74c22.081-0.059 39.964-17.975 39.964-40.07v-60.597c0-22.094-17.882-40.01-39.964-40.069z" fill="#e9edf5"/>
  <path d="m452 420.69v-137.58c0-31.536-25.565-57.101-57.101-57.101s-57.101 25.565-57.101 57.101v215.54c44.95-15.147 84.318-42.434 114.2-77.963z" fill="#ff936b"/>
  <path d="m394.9 335.47c-22.131 0-40.072-17.941-40.072-40.072v-60.597c0-22.131 17.941-40.072 40.072-40.072s40.072 17.941 40.072 40.072v60.597c0 22.131-17.941 40.072-40.072 40.072z" fill="#e9edf5"/>
  <path d="m117.1 193.48c-31.536 0-57.101 25.565-57.101 57.101v170.11c29.884 35.529 69.252 62.816 114.2 77.963v-248.07c0-31.536-25.565-57.101-57.102-57.101z" fill="#ffb89c"/>
  <path d="m117.1 302.95c-22.131 0-40.072-17.941-40.072-40.072v-60.597c0-22.131 17.941-40.072 40.072-40.072s40.072 17.941 40.072 40.072v60.597c1e-3 22.131-17.94 40.072-40.072 40.072z" fill="#fff"/>
 </g>
</svg>
