<svg width="900" height="900" version="1.1" viewBox="0 0 238.12 238.12" xmlns="http://www.w3.org/2000/svg">
 <g transform="matrix(.46285 0 0 .46285 .57322 .57322)">
  <path d="m512 256c0 141.39-114.61 256-256 256s-256-114.61-256-256 114.61-256 256-256 256 114.61 256 256z" fill="#ff7a78"/>
  <path d="m387.06 108.33-39.031-39.031-17.867 17.867 39.031 39.031-13.168 13.172 1.707 1.707-46.402 46.398-40.727-40.73-17.871 17.871 40.73 40.727-12.77 12.773 54.109 54.109-62.922 62.918-98.355-98.359-78.824 78.824 9.9648 41.395-16.34 47.695 97.594 97.594c22.27 6.3242 45.781 9.7109 70.078 9.7109 141.39 0 256-114.61 256-256 0-18.559-1.9922-36.648-5.7422-54.086l-106.39-106.39z" fill="#ff5552"/>
  <g fill="#fff7d3">
   <path d="m328.39 69.297h19.652v29.48h-19.652z"/>
   <path d="m284.71 87.387 20.844 20.844-13.898 13.895-20.844-20.844z"/>
   <path d="m252.73 144.96h29.477v19.652h-29.477z"/>
   <path d="m291.66 187.44 13.895 13.895-20.844 20.844-13.895-13.895z"/>
  </g>
  <g fill="#ffeea6">
   <path d="m328.39 210.8h19.652v29.48h-19.652z"/>
   <path d="m384.77 187.44 20.844 20.848-13.895 13.895-20.848-20.844z"/>
   <path d="m394.22 144.96h29.48v19.652h-29.48z"/>
   <path d="m391.71 87.387 13.898 13.895-20.844 20.844-13.898-13.895z"/>
  </g>
  <path d="m338.21 88.949c36.301 0 65.836 29.535 65.836 65.836 0 36.305-29.535 65.836-65.836 65.836l-30.32-65.836z" fill="#ffdf5e"/>
  <path d="m338.21 88.949v131.67c-36.305 0-65.836-29.531-65.836-65.836 0-36.301 29.531-65.836 65.836-65.836z" fill="#ffeea6"/>
  <path d="m178.54 243.2-62.449 62.449c-8e-3 0-13.898 13.102-13.898 13.102l-13.898-13.102 76.344-76.348z" fill="#b0ffc7"/>
  <path d="m384.4 266.34h-152.09l-74.398-74.398c-15.281-15.289-40.301-15.289-55.582 0l153.68 153.01 167.7-39.305c0-21.617-17.688-39.305-39.305-39.305z" fill="#8eeaa9"/>
  <path d="m423.7 348.88-187.36-23.582 19.652 43.234h148.05v36.172h19.652z" fill="#1a405e"/>
  <path d="m256 325.3-167.7 23.582v55.824h19.652v-36.172h148.05z" fill="#275d86"/>
  <path d="m423.7 305.64v43.234h-167.7l-19.652-21.617 19.652-21.617z" fill="#275d86"/>
  <path d="m88.297 305.64h167.7v43.234h-167.7z" fill="#337aad"/>
 </g>
</svg>
