<svg width="900" height="900" version="1.1" viewBox="0 0 238.12 238.12" xmlns="http://www.w3.org/2000/svg">
 <g transform="matrix(.4625 0 0 .4625 .66146 .66146)">
  <g id="XMLID_1868_">
   <g id="XMLID_1869_">
    <g id="XMLID_1870_">
     <g id="XMLID_1871_">
      <g id="XMLID_1872_">
       <g id="XMLID_1873_">
        <g id="XMLID_1874_">
         <g id="XMLID_1878_">
          <g id="XMLID_1879_">
           <g id="XMLID_1880_">
            <g id="XMLID_1881_">
             <g id="XMLID_1905_">
              <g id="XMLID_1906_">
               <g id="XMLID_1907_">
                <g id="XMLID_1908_">
                 <circle cx="256" cy="256" r="256" fill="#41f2f2"/>
                </g>
               </g>
              </g>
             </g>
            </g>
           </g>
          </g>
         </g>
        </g>
       </g>
      </g>
     </g>
    </g>
   </g>
  </g>
  <path d="m512 256c0-11.962-0.821-23.733-2.408-35.258l-172.22-172.22-158.78 414.96 46.696 46.696c10.072 1.204 20.323 1.824 30.719 1.824 141.38 0 256-114.62 256-256z" fill="#11c5ce"/>
  <path d="m337.37 48.52h-162.74l-64.169 136.92 68.124 278.04h157.24l65.717-278.04z" fill="#d37800"/>
  <path d="m401.54 185.44-65.72 278.04h-79.82v-414.96h81.37z" fill="#934600"/>
  <path d="m332.09 169.51h-54.223v-61.578h-43.739v61.578h-54.223v43.738h54.223v107.36h43.739v-107.36h54.223z" fill="#7f470e"/>
  <path d="m332.09 169.51v43.737h-54.222v107.36h-21.873v-212.67h21.873v61.574z" fill="#422005"/>
 </g>
</svg>
