<svg width="900" height="900" version="1.1" viewBox="0 0 238.12 238.12" xmlns="http://www.w3.org/2000/svg">
 <g transform="matrix(.4625 0 0 .4625 .66146 .66146)">
  <circle cx="256" cy="256" r="256" fill="#8a8a91"/>
  <path d="m435.86 124.03c-3.966-4.355-9.662-7.106-16.017-7.106h-120.81v45.441l-70.326-70.325c-0.276-0.543-0.551-1.087-0.838-1.626l-38.808 82.443-82.404-82.405 1e-3 0.018-0.027-0.057c-13.235 24.756-13.989 54.311-2.032 79.709l42.874 91.081-25.52 54.213c-20.106-1.367-39.02 9.641-47.696 28.074-5.585 11.864-6.215 25.193-1.775 37.531 2.477 6.883 6.37 12.995 11.385 18.027l-0.014 0.014 103.65 103.65c21.802 6.04 44.766 9.281 68.491 9.281 141.38 0 256-114.62 256-256 0-22.122-2.807-43.588-8.082-64.062l-67.98-67.98z" fill="#57565c"/>
  <path d="m104.6 170.13c-11.955-25.399-11.202-54.953 2.032-79.709l110.17 234.04-32.38 15.242z" fill="#e1e1e3"/>
  <path d="m229.9 170.13c11.955-25.399 11.202-54.953-2.032-79.709l-110.17 234.04 32.38 15.242z" fill="#c6c5ca"/>
  <path d="m97.769 408.82c-11.864-5.584-20.844-15.455-25.284-27.793s-3.81-25.667 1.775-37.531c9.091-19.315 29.421-30.487 50.587-27.803 5.098 0.647 10.055 2.091 14.737 4.295 24.49 11.529 35.036 40.832 23.507 65.323-9.091 19.314-29.421 30.486-50.586 27.803h-2e-3c-5.095-0.646-10.054-2.091-14.734-4.294zm0.543-54.001c-2.56 5.439-2.851 11.55-0.814 17.207 2.036 5.656 6.152 10.182 11.592 12.742 2.157 1.015 4.43 1.68 6.758 1.975 9.701 1.231 19.021-3.895 23.19-12.752 5.285-11.228 0.451-24.665-10.779-29.95-2.156-1.015-4.431-1.68-6.76-1.975-9.698-1.231-19.018 3.894-23.187 12.753z" fill="#acacb2"/>
  <path d="m222 413.11h-2e-3c-21.166 2.684-41.494-8.489-50.586-27.803-11.528-24.491-0.983-53.796 23.507-65.323 4.681-2.204 9.639-3.649 14.737-4.295 21.166-2.685 41.495 8.488 50.587 27.803 5.585 11.864 6.215 25.193 1.775 37.531s-13.42 22.209-25.284 27.793c-4.68 2.202-9.637 3.647-14.734 4.294zm-8.999-71.049c-2.328 0.295-4.604 0.959-6.76 1.975-11.228 5.286-16.063 18.721-10.779 29.95 4.169 8.858 13.489 13.982 23.19 12.752 2.328-0.295 4.601-0.959 6.758-1.975 5.441-2.561 9.557-7.086 11.592-12.742 2.037-5.656 1.747-11.767-0.814-17.207-4.166-8.859-13.486-13.984-23.187-12.753z" fill="#d9d8db"/>
  <circle cx="166.74" cy="261.67" r="11.41" fill="#acacb2"/>
  <g fill="#d65333">
   <path d="m441.52 138.61h-118.74v-21.68h97.06c11.972 0 21.678 9.707 21.678 21.68z"/>
   <rect x="322.78" y="331.36" width="118.74" height="21.68"/>
   <rect x="322.78" y="288.48" width="118.74" height="21.68"/>
   <rect x="322.78" y="245.59" width="118.74" height="21.68"/>
   <rect x="322.78" y="202.71" width="118.74" height="21.68"/>
   <rect x="322.78" y="159.81" width="118.74" height="21.68"/>
   <path d="m441.52 374.25c0 11.973-9.706 21.68-21.68 21.68h-97.06v-21.68z"/>
  </g>
  <rect x="299.04" y="116.92" width="47.496" height="278.78" fill="#e57654"/>
 </g>
</svg>
