<svg width="900" height="900" version="1.1" viewBox="0 0 238.12 238.12" xmlns="http://www.w3.org/2000/svg">
 <g transform="matrix(.4625 0 0 .4625 .66146 .66146)">
  <path d="m256 0c-141.38 0-256 114.62-256 256 0 72.069 29.792 137.17 77.719 183.69v-1.597l178.62-24.436 178.64 24.437v0.917c47.518-46.477 77.023-111.3 77.023-183.01 0-141.38-114.62-256-256-256z" fill="#9dcfff"/>
  <path d="m157.01 341.13 162.84 162.84c96.605-24.804 171.16-104.58 188.37-204l-181.71-181.71z" fill="#72bbff"/>
  <path d="m256.34 341.13h99.336l-1e-3 -134.86-99.335-16.572z" fill="#32393f"/>
  <path d="m256.35 341.13h-99.336l1e-3 -134.86 99.335-16.572z" fill="#575f64"/>
  <path d="m256.34 304.47h-35.157v30.812c0 17.435-11.893 32.623-28.819 36.803l-9.897 2.444v81.438h73.872l42.254-69.459z" fill="#a24f3e"/>
  <path d="m330.23 374.53-9.895-2.444c-16.927-4.181-28.819-19.368-28.819-36.803v-30.812h-35.172v151.5h73.887z" fill="#873f2e"/>
  <path d="m179.36 242.58c0 7.887-6.393 14.28-14.28 14.28s-14.28-6.393-14.28-14.28v-10.788c0-7.887 6.393-14.28 14.28-14.28s14.28 6.393 14.28 14.28z" fill="#a24f3e"/>
  <path d="m361.88 242.58c0 7.887-6.393 14.28-14.28 14.28s-14.28-6.393-14.28-14.28v-10.788c0-7.887 6.393-14.28 14.28-14.28s14.28 6.393 14.28 14.28z" fill="#873f2e"/>
  <path d="m256.34 126.73-91.263 76.801v34.372c0 50.403 57.603 103.85 91.263 103.85l42.254-125.94z" fill="#b95d4c"/>
  <path d="m347.6 237.91v-34.372l-91.263-32.309v170.53c33.659 1e-3 91.263-53.448 91.263-103.85z" fill="#a24f3e"/>
  <path d="m266.55 305.01-10.213-6.458c-1.724-2.617-4.685-4.346-8.054-4.346-5.325 0-16.846 9.643-16.846 9.643s8.023 11.966 24.899 11.966z" fill="#a24f3e"/>
  <path d="m264.39 294.2c-3.368 0-8.054 4.346-8.054 4.346v17.262c16.876 0 24.899-11.966 24.899-11.966s-11.52-9.642-16.845-9.642z" fill="#873f2e"/>
  <path d="m256.34 217.52h-7.613l-8.658 61.701c5.424 2.82 10.847 4.231 16.271 4.231l8.136-26.584z" fill="#a24f3e"/>
  <path d="m256.34 217.52v65.932c5.424 0 10.847-1.41 16.271-4.231l-8.658-61.701z" fill="#873f2e"/>
  <path d="m193.35 233.93c11.434 11.434 30.039 11.434 41.473 0-11.434-11.433-30.039-11.433-41.473 0z" fill="#fff"/>
  <circle cx="214.09" cy="233.93" r="8.575" fill="#575f64"/>
  <path d="m277.86 233.93c11.434 11.434 30.039 11.434 41.473 0-11.435-11.433-30.039-11.433-41.473 0z" fill="#eeeef0"/>
  <circle cx="298.59" cy="233.93" r="8.575" fill="#32393f"/>
  <path d="m182.45 374.54-68.145 16.831c-21.491 5.308-36.591 24.591-36.591 46.728v1.113c0 0.156-3e-3 0.322-4e-3 0.48 46.097 44.748 108.97 72.311 178.29 72.311l42.594-53.372-42.254-44.969c-30.718 0-57.812-15.509-73.886-39.122z" fill="#ff5ca7"/>
  <path d="m398.39 391.37-68.158-16.834c-16.073 23.615-43.168 39.125-73.888 39.125 0 0 3e-3 66.801 6e-3 98.336 69.529-0.092 132.55-27.911 178.63-72.982v-0.917c0-22.137-15.099-41.42-36.591-46.728z" fill="#ff1785"/>
  <path d="m256.35 89.265-8e-3 -0.026c-54.857 0-99.328 44.47-99.328 99.328v17.698h38.449c23.76 0 45.677-10.223 60.886-27.053v-89.947z" fill="#575f64"/>
  <path d="m256.34 89.265 8e-3 -0.026c54.857 0 99.328 44.47 99.328 99.328v17.698h-38.449c-23.76 0-45.677-10.223-60.886-27.053v-89.947z" fill="#32393f"/>
  <path d="m334.95 362.08 75.769-31.384-5.974 15.102-83.007 46.613-12.726-4.393 4.805-12.276z" fill="#d1d1d6"/>
  <path d="m309.02 388.02-7.253-2.504-29.229 12.107-3.424-8.267 65.844-27.274z" fill="#eeeef0"/>
  <path d="m235.95 409.26c-4.628-11.174 0.697-24.03 11.871-28.659 11.174-4.628 24.03 0.697 28.659 11.871s-0.697 24.03-11.871 28.659c-11.175 4.629-24.031-0.697-28.659-11.871zm30.367-12.578c-2.307-5.57-8.716-8.225-14.287-5.918s-8.225 8.716-5.918 14.287 8.716 8.225 14.287 5.918 8.225-8.717 5.918-14.287z" fill="#ffd300"/>
  <path d="m355.68 427.93h-20.723v-88.383l20.723-27.49z" fill="#32393f"/>
  <path d="m334.95 362.08 31.384-75.769-15.102 5.974-46.613 83.007 4.393 12.726 12.276-4.805z" fill="#fff"/>
  <path d="m309.02 388.02 2.504 7.253-12.107 29.229 8.267 3.424 27.274-65.844z" fill="#eeeef0"/>
  <path d="m275.91 432.43c4.628-11.174 17.485-16.499 28.659-11.871s16.499 17.485 11.871 28.659-17.485 16.499-28.659 11.871-16.499-17.485-11.871-28.659zm10.163 4.209c-2.307 5.57 0.347 11.979 5.918 14.287s11.979-0.347 14.287-5.918-0.347-11.979-5.918-14.287-11.98 0.348-14.287 5.918z" fill="#ff9e00"/>
 </g>
</svg>
