<svg width="900" height="900" version="1.1" viewBox="0 0 238.12 238.12" xmlns="http://www.w3.org/2000/svg">
 <g transform="matrix(.4625 0 0 .4625 .66146 .66146)">
  <circle cx="256" cy="256" r="256" fill="#a37862"/>
  <path d="m180.61 500.71c23.835 7.335 49.151 11.291 75.393 11.291 136.36 0 247.8-106.62 255.55-241.04l-69.404-69.404-4.626 5.214-25.898-25.898-36.682 30.874-100.3-100.3-4.287 11.935-28.839-28.838-133.92 147.54-38.5 147.11z" fill="#8d5c4d"/>
  <path d="m190.09 207.6c0-8.119 6.582-14.701 14.701-14.701s14.701 6.582 14.701 14.701c0 2.381-0.579 4.623-1.584 6.613h100.35l5.369-6.613-13.548-16.685 7.762-20.045-18.056-11.662 1.153-21.463-20.778-5.509-5.51-20.778-21.463 1.153-11.663-18.057-20.045 7.761-16.685-13.548-16.685 13.548-20.045-7.761-11.662 18.056-21.463-1.153-5.509 20.778-20.778 5.51 1.153 21.463-18.056 11.663 7.762 20.045-13.549 16.685 5.369 6.613h100.35c-1.007-1.991-1.585-4.233-1.585-6.614z" fill="#f2f6fc"/>
  <path d="m310.08 190.91 7.762-20.045-18.057-11.662 1.153-21.463-20.778-5.51-5.51-20.778-21.463 1.153-11.663-18.056-20.045 7.761-16.685-13.548-0.042 104.13c0.014 0 0.028-2e-3 0.042-2e-3 8.119 0 14.701 6.582 14.701 14.701 0 2.381-0.579 4.623-1.584 6.613h100.35l5.369-6.613z" fill="#dce1eb"/>
  <path d="m176.83 207.6c0-15.445 12.521-27.966 27.966-27.966s27.966 12.521 27.966 27.966c0 2.279-0.279 4.492-0.793 6.613h63.218c0.158-2.186 0.266-4.386 0.266-6.613 0-50.068-40.588-90.656-90.656-90.656s-90.657 40.588-90.657 90.656c0 2.227 0.108 4.426 0.266 6.613h63.218c-0.515-2.121-0.794-4.334-0.794-6.613z" fill="#dce1eb"/>
  <path d="m204.79 116.94c-0.014 0-0.028 1e-3 -0.042 1e-3v62.691c0.014 0 0.028-1e-3 0.042-1e-3 15.445 0 27.966 12.521 27.966 27.966 0 2.279-0.279 4.492-0.793 6.613h63.218c0.158-2.186 0.266-4.386 0.266-6.613-1e-3 -50.068-40.589-90.657-90.657-90.657z" fill="#bec3d2"/>
  <path d="m69.101 204.2h44.565v185h-44.565z" fill="#fdba12"/>
  <path d="m397.58 204.2h44.565v185h-44.565z" fill="#ffa300"/>
  <path d="m69.101 201.56h373.05v53.348h-373.05z" fill="#ffce00"/>
  <path d="m255.62 201.56h186.52v53.348h-186.52z" fill="#fdba12"/>
  <path d="m323.62 180.88h88v47.358h-88z" fill="#f05e3a"/>
 </g>
</svg>
