<svg width="900" height="900" version="1.1" viewBox="0 0 238.12 238.12" xmlns="http://www.w3.org/2000/svg">
 <g transform="matrix(.4625 0 0 .4625 .66146 .66146)">
  <circle cx="256" cy="256" r="256" fill="#a7e5f7"/>
  <path d="m508.81 296.46-98.749-98.749-34.223-13.779-12.553-32.997-14.6-14.6-24.023 81.55-146.2-4.714-76.643 114.14 183.06 183.06c114.42-12.842 206.02-101.09 223.94-213.91z" fill="#66d4f3"/>
  <path d="m271.68 136.34h31.341v21.636h-31.341z" fill="#5664e0"/>
  <path d="m317.34 136.34h31.341v21.636h-31.341z" fill="#5664e0"/>
  <ellipse transform="matrix(.796 -.606 .606 .796 -165.73 179.98)" cx="183.9" cy="335.64" rx="40.261" ry="40.262" fill="#585858"/>
  <circle cx="183.9" cy="335.64" r="20.737" fill="#dadcf6"/>
  <ellipse transform="matrix(.796 -.606 .606 .796 -129.08 288.63)" cx="363.28" cy="335.64" rx="40.261" ry="40.262" fill="#3b3b3b"/>
  <circle cx="363.28" cy="335.64" r="20.737" fill="#c1c5f2"/>
  <path d="m144.75 327.31h-42.944v-57.538l42.944-30.259z" fill="#5664e0"/>
  <path d="m271.68 338.42h-138.38v-187.48h138.38l69.189 93.738z" fill="#ff7c37"/>
  <path d="m410.06 338.42h-138.38v-187.48h91.602l46.776 46.776z" fill="#ff4536"/>
  <path d="m271.68 232.92h-27.509v-66.543h27.509l19.059 33.272z" fill="#a7e5f7"/>
  <path d="m271.68 166.37h91.603v66.544h-91.603z" fill="#66d4f3"/>
  <path d="m195.8 214.91v-48.534l-35.876 60.27h25.602v48.535l10.274-17.261 25.601-43.01z" fill="#ffd428"/>
  <circle cx="340.87" cy="190.76" r="13.644" fill="#2936aa"/>
  <path d="m271.75 204.4h-16.794v-10.578h16.794l7.612 5.289z" fill="#818ae6"/>
  <path d="m271.75 193.82h46.924v10.578h-46.924z" fill="#5664e0"/>
  <path d="m271.75 221.61h-16.794v-10.578h16.794l7.612 5.289z" fill="#818ae6"/>
  <path d="m271.75 211.03h82.762v10.578h-82.762z" fill="#5664e0"/>
  <path d="m271.68 305.05h-27.509v-59.746h27.509l20.059 28.086z" fill="#dadcf6"/>
  <path d="m363.28 305.05h-91.602v-59.746h91.602v17.497l-12.726 12.376 12.726 12.375z" fill="#c1c5f2"/>
  <path d="m363.28 287.55h-21.91c-6.835 0-12.375-5.541-12.375-12.376s5.541-12.376 12.375-12.376h21.91z" fill="#5664e0"/>
  <path d="m150.86 283.42h75.751v21.636h-75.751z" fill="#77dc5a"/>
 </g>
</svg>
