<svg width="900" height="900" version="1.1" viewBox="0 0 238.12 238.12" xmlns="http://www.w3.org/2000/svg">
 <g transform="matrix(.4625 0 0 .4625 .66146 .66146)">
  <circle cx="256" cy="256" r="256" fill="#a9d939"/>
  <path d="m352.18 111.7-53.678-53.678-8.522 8.522 6.227 6.227-21.227 21.227-6.573-6.573-5.251 5.251-34.653-34.655-8.522 8.522 7.371 7.371-7.371 7.371v30.152l7.239 7.239-10.21 10.21-23.007-23.007-49.681 49.681 6.353 6.353-20.794 20.794-6.353-6.353-31.087 31.087 9 9-16.823 16.823 19.792 19.792-28.407 28.408 77.26 77.26-37.26 37.26 36.001 36.001-6.001 6 71.078 71.078c12.692 1.936 25.689 2.941 38.922 2.941 140.1 0 253.9-112.56 255.95-252.17l-153.95-153.95z" fill="#83b22d"/>
  <path d="m228.5 112.25v-15h27.5l3.882-7.236-3.882-7.764h-27.5v-24.237h-15v96h15v-26.763h27.5l3.882-7.942-3.882-7.058z" fill="#fff"/>
  <path d="m283.5 154.02h15v-96h-15v24.237h-27.5v15h27.5v15h-27.5v15h27.5z" fill="#e9edf5"/>
  <path d="m154 105.87h40v50h-40z" fill="#fcc515"/>
  <path d="m318 105.87h40v50h-40z" fill="#fa0"/>
  <path d="m316 387.98h50v50h-50z" fill="#333940"/>
  <path d="m146 387.98h50v50h-50z" fill="#555a65"/>
  <path d="m138.06 195.34v-20h-52.294v46.118h-9.765v60h40v-60h-10.235v-26.118z" fill="#fa4135"/>
  <path d="m426 221.46v-46.118h-52.294v20h32.294v26.118h-10v60h40v-60z" fill="#d70012"/>
  <path d="m277.24 256.61-21.235-114.35h-125v42.294l15 50-15 50v39.173l5.529 12.5-5.529 12.5v33.533h125z" fill="#fb6b56"/>
  <path d="m256 142.25v240h125v-33.533l-5.882-12.5 5.882-12.5v-39.173l-15-50 15-50v-42.294z" fill="#fa4135"/>
  <path d="m270.73 234.55-14.732-50h-125v100h125z" fill="#a6d4fd"/>
  <path d="m256 184.55h125v100h-125z" fill="#6cb1f8"/>
  <path d="m206 311.21v70h50l5.261-35-5.261-35z" fill="#555a65"/>
  <path d="m256 311.21h50v70h-50z" fill="#333940"/>
  <path d="m116 370.98v25h140l14.732-12.5-14.732-12.5z" fill="#333940"/>
  <path d="m256 370.98h140v25h-140z" fill="#101214"/>
  <path d="m131 323.72h50v25h-50z" fill="#fcc515"/>
  <path d="m331 323.72h50v25h-50z" fill="#fa0"/>
 </g>
</svg>
