<svg width="900" height="900" version="1.1" viewBox="0 0 238.12 238.12" xmlns="http://www.w3.org/2000/svg">
 <g transform="matrix(.4625 0 0 .4625 .66146 .66146)">
  <circle class="" cx="256" cy="256" r="256" fill="#98b6f9" data-original="#00e9f3"/>
  <path class="" d="m512 256c0-18.539-1.988-36.611-5.732-54.032l-80.269-80.269c-9.976-11.631-24.771-19.005-41.296-19.005-21.163 0-39.49 12.09-48.488 29.733h-132.31l-13.041-13.134c-9.889-10.233-23.752-16.599-39.108-16.599-21.888 0-40.746 12.931-49.382 31.564l41.876 41.865-3.996 3.83h-37.88a54.564 54.564 0 0 0 11.155 15.853l61.727 61.523-41.474 19.413-14.147-13.66-54.394 25.46 59.334 126.76 93.957 93.957a257.86 257.86 0 0 0 37.465 2.738c141.38 0 256-114.62 256-256z" fill="#6681bd" data-original="#00b8c0"/>
  <path class="" d="m200.25 181.78h135.97c8.998 17.643 27.325 29.733 48.488 29.733 21.888 0 40.746-12.931 49.382-31.564h-37.88l-23.835-22.847 23.835-22.848h37.88c-8.636-18.633-27.494-31.564-49.382-31.564-21.163 0-39.49 12.09-48.488 29.733h-135.97c-8.998-17.643-27.325-29.733-48.488-29.733-21.888 0-40.746 12.931-49.382 31.564h37.88l23.835 22.848-23.835 22.848h-37.88c8.636 18.633 27.494 31.564 49.382 31.564 21.163-1e-3 39.49-12.091 48.488-29.734z" fill="#f3f3f3" data-original="#9330b2"/>
  <path class="" d="m151.76 211.52c-21.892 0-40.749-12.937-49.379-31.569h37.88l23.829-22.848h208.28l23.829 22.848h37.889c-8.639 18.632-27.496 31.569-49.387 31.569-21.16 0-39.493-12.089-48.489-29.732h-135.96c-8.996 17.643-27.329 29.732-48.489 29.732z" fill="#c1c1c1" data-original="#4f0953"/>
  <path d="m150.26 393.74 68.357-31.996c13.533-6.334 16.094-7.715 40.923-0.031 19.795 6.125 40.742-3.028 58.786-11.473l98.081-45.908c14.579-6.824 21.473-22.874 15.4-35.849s-22.815-17.962-37.393-11.138l-91.503 42.829c-1.746 0.817-3.715 0.958-5.443 0.39l-89.67-29.485c-1.728-0.568-3.696-0.427-5.443 0.39l-89.68 41.976z" fill="#ffc473" data-original="#ffc473"/>
  <path d="m289.29 269.82s-61.339-20.388-65.747-21.864c-6.885-2.306-15.231-6.104-23.663-2.157l-97.505 45.639 16.043 34.274 88.838-41.582 45.62 15.277 21.998 7.351c10.34 3.463 24.184-1.299 28.149-11.457 3.963-10.158-3.394-22.019-13.733-25.481z" fill="#ffdba9" data-original="#ffdba9"/>
  <path class="" d="m178.97 389.85-54.394 25.46-59.334-126.76v-1e-3l54.395-25.46z" fill="#ff328e" data-original="#ff328e"/>
  <path class="" d="m89.074 339.45 54.396-25.46 35.502 75.852-54.396 25.46z" fill="#bc0247" data-original="#bc0247"/>
 </g>
</svg>
