<svg width="900" height="900" version="1.1" viewBox="0 0 238.12 238.12" xmlns="http://www.w3.org/2000/svg">
 <g transform="matrix(.46285 0 0 .46285 .57322 .57322)">
  <path d="m512 256c0 141.39-114.61 256-256 256s-256-114.61-256-256 114.61-256 256-256 256 114.61 256 256z" fill="#fe6a16"/>
  <path d="m512 256c0-0.48828-0.0156-0.96875-0.0195-1.457l-80.785-80.785-361.77 159.34 178.77 178.77c2.5938 0.07813 5.1953 0.12891 7.8086 0.12891 141.39 0 256-114.61 256-256z" fill="#f24500"/>
  <path d="m411.97 343.48c-103.22-17.758-208.72-17.758-311.94 0-22.285 3.832-42.004-14.824-39.445-37.293 4.3828-38.465 8.7695-76.898 13.16-115.3 1.7188-15.016 13.16-27.074 28.062-29.609 102.06-17.352 206.32-17.352 308.38 0 14.902 2.5352 26.344 14.594 28.062 29.609 4.3906 38.402 8.7773 76.836 13.16 115.3 2.5586 22.469-17.16 41.125-39.445 37.293z" fill="#a3d4ff"/>
  <path d="m451.41 306.19c-4.3828-38.465-8.7695-76.898-13.16-115.3-1.7188-15.016-13.16-27.074-28.062-29.609-51.164-8.6992-102.88-13.035-154.6-13.012v181.89c52.316-0.0195 104.63 4.418 156.38 13.32 22.285 3.832 42.004-14.824 39.445-37.293z" fill="#65b1fc"/>
  <path d="m263.94 352.21 120.55-158.65 28.664 21.781-120.55 158.65z" fill="#333940"/>
  <path d="m98.836 352.21 120.55-158.65 28.664 21.781-120.55 158.65z" fill="#414952"/>
 </g>
</svg>
