<svg width="900" height="900" version="1.1" viewBox="0 0 238.12 238.12" xmlns="http://www.w3.org/2000/svg">
 <g transform="matrix(.4625 0 0 .4625 .66146 .66146)">
  <circle cx="256" cy="256" r="256" fill="#35ccff"/>
  <path d="m389.55 179.82-309.62 130.91 200.13 200.13c115.89-10.806 209.34-98.854 228.37-212.16z" fill="#00baff"/>
  <path d="m324.83 331.97c49.619 0 89.843-40.224 89.843-89.843 0-46.458-35.264-84.676-80.484-89.357-15.541-36.412-51.665-61.937-93.757-61.937-53.245 0-96.926 40.844-101.48 92.906-2.315-0.217-4.658-0.34-7.03-0.34-41.027 0-74.286 33.259-74.286 74.286s33.259 74.286 74.286 74.286h192.91z" fill="#fff"/>
  <path d="m334.19 152.77c-15.541-36.413-51.665-61.937-93.757-61.937-0.479 0-0.955 0.011-1.432 0.017v241.12h85.83c49.619 0 89.843-40.224 89.843-89.843 0-46.458-35.264-84.676-80.484-89.357z" fill="#e0e0e0"/>
  <rect x="207.41" y="224.27" width="216.78" height="54.988" fill="#333"/>
  <rect x="314.33" y="224.27" width="109.85" height="54.988" fill="#1a1a1a"/>
  <rect x="385.59" y="241.72" width="20.09" height="20.09" fill="#8cc63f"/>
  <rect x="357.7" y="241.72" width="20.09" height="20.09" fill="#ffdc00"/>
  <rect x="207.41" y="290.29" width="216.78" height="54.988" fill="#333"/>
  <rect x="314.33" y="290.29" width="109.85" height="54.988" fill="#1a1a1a"/>
  <rect x="385.59" y="307.74" width="20.09" height="20.09" fill="#8cc63f"/>
  <rect x="357.7" y="307.74" width="20.09" height="20.09" fill="#ffdc00"/>
  <rect x="207.41" y="356.32" width="216.78" height="54.988" fill="#333"/>
  <rect x="314.33" y="356.32" width="109.85" height="54.988" fill="#1a1a1a"/>
  <rect x="385.59" y="373.77" width="20.09" height="20.09" fill="#8cc63f"/>
  <rect x="357.7" y="373.77" width="20.09" height="20.09" fill="#ffdc00"/>
 </g>
</svg>
