<svg width="900" height="900" version="1.1" viewBox="0 0 238.12 238.12" xmlns="http://www.w3.org/2000/svg">
 <g transform="matrix(.4625 0 0 .4625 .66146 .66146)">
  <g id="XMLID_849_">
   <g id="XMLID_850_">
    <g id="XMLID_851_">
     <g id="XMLID_852_">
      <g id="XMLID_853_">
       <g id="XMLID_854_">
        <g id="XMLID_855_">
         <g id="XMLID_856_">
          <g id="XMLID_857_">
           <g id="XMLID_858_">
            <g id="XMLID_859_">
             <g id="XMLID_860_">
              <g id="XMLID_861_">
               <g id="XMLID_862_">
                <g id="XMLID_863_">
                 <circle cx="256" cy="256" r="256" fill="#4f4f51"/>
                </g>
               </g>
              </g>
             </g>
            </g>
           </g>
          </g>
         </g>
        </g>
       </g>
      </g>
     </g>
    </g>
   </g>
  </g>
  <path d="m512 256c0-35.407-7.188-69.135-20.185-99.805l-82.645-82.645-306.34 364.9 53.365 53.365c30.67 12.996 64.397 20.184 99.804 20.184 141.38 0 256-114.62 256-256z" fill="#232323"/>
  <path d="m102.83 73.549h306.34v364.9h-306.34z" fill="#fff"/>
  <path d="m256 73.55h153.17v364.9h-153.17z" fill="#dffff9"/>
  <path d="m159.29 116.55h193.41v141.91h-193.41z" fill="#ace233"/>
  <path d="m256 116.55h96.71v141.91h-96.71z" fill="#1155ce"/>
  <path d="m159.29 116.55 96.706 70.953 96.706-70.953z" fill="#ffe705"/>
  <path d="m352.71 116.55-96.71 70.95v-70.95z" fill="#f4c01c"/>
  <path d="m352.71 258.46-96.706-70.953-96.706 70.953z" fill="#ec3d93"/>
  <path d="m352.71 258.46h-96.71v-70.96z" fill="#bc00a2"/>
  <path d="m195.56 303.74h120.88v30h-120.88z" fill="#4f4f51"/>
  <path d="m195.56 365.45h120.88v30h-120.88z" fill="#4f4f51"/>
  <path d="m256 303.74h60.44v30h-60.44z" fill="#353535"/>
  <path d="m256 365.45h60.44v30h-60.44z" fill="#353535"/>
 </g>
</svg>
