<svg width="900" height="900" version="1.1" viewBox="0 0 238.12 238.12" xmlns="http://www.w3.org/2000/svg">
 <g transform="matrix(.4625 0 0 .4625 .66146 .66146)">
  <circle cx="256" cy="256" r="256" fill="#ff7b6b"/>
  <path d="m124.07 406.87 103.56 103.56c9.317 1.028 18.779 1.573 28.37 1.573 141.38 0 256-114.62 256-256 0-9.591-0.545-19.053-1.573-28.37l-122.5-122.5z" fill="#ff5456"/>
  <path d="m387.93 105.13v301.73h-131.93l-79.158-150.87 145.36-150.87z" fill="#ffbea4"/>
  <path d="m256 142.69v264.17h-131.93v-301.73h65.73z" fill="#ffd4c4"/>
  <path d="m350.37 142.69v226.61h-94.37l-37.842-75.746 0.282-169.65 103.76 18.78z" fill="#d4fffb"/>
  <path d="m256 123.91v245.39h-94.37v-226.61h28.17z" fill="#fff"/>
  <path d="m274.62 256v-38.186h-18.624l-18.78 56.966 18.78 56.966h18.624v-38.186h38.186v-37.56z" fill="#fa2036"/>
  <path d="m237.06 217.81v38.186h-38.186v37.56h38.186v38.186h18.937v-113.93z" fill="#ff5456"/>
  <path d="m322.2 142.69-18.78-18.78v46.951h-47.42l-18.78 9.39 18.78 9.39h66.2z" fill="#a4a6aa"/>
  <path d="m208.58 170.86v-46.951l-18.78 18.78v46.951h66.2v-18.78z" fill="#c2c4c6"/>
  <path d="m322.2 105.13v37.56h-66.2l-37.842-18.78 37.842-18.78z" fill="#62676f"/>
  <path d="m189.8 105.13h66.2v37.56h-66.2z" fill="#83878c"/>
 </g>
</svg>
