<svg width="900" height="900" version="1.1" viewBox="0 0 238.12 238.12" xmlns="http://www.w3.org/2000/svg">
 <g transform="matrix(.4625 0 0 .4625 .66146 .66146)">
  <g id="XMLID_2693_">
   <g id="XMLID_2694_">
    <g id="XMLID_2695_">
     <g id="XMLID_2696_">
      <g id="XMLID_2697_">
       <g id="XMLID_2698_">
        <g id="XMLID_2699_">
         <g id="XMLID_2700_">
          <g id="XMLID_2701_">
           <g id="XMLID_2702_">
            <g id="XMLID_2703_">
             <g id="XMLID_2704_">
              <g id="XMLID_2705_">
               <g id="XMLID_2706_">
                <g id="XMLID_2707_">
                 <circle cx="256" cy="256" r="256" fill="#a2e864"/>
                </g>
               </g>
              </g>
             </g>
            </g>
           </g>
          </g>
         </g>
        </g>
       </g>
      </g>
     </g>
    </g>
   </g>
  </g>
  <path d="m510.19 286.46-152.46-152.46-17.32 17.326-63.733-63.734-224.13 251.55 170.79 170.79c10.697 1.362 21.598 2.065 32.664 2.065 131.08 0 239.13-98.518 254.19-225.54z" fill="#5bce74"/>
  <path d="m280.18 127.16h-52.369v-29.045c0-9.677 7.845-17.522 17.522-17.522h17.324c9.677 0 17.522 7.845 17.522 17.522v29.045z" fill="#f45162"/>
  <path d="m280.18 127.16v-29.045c0-9.677-7.845-17.522-17.522-17.522h-8.662v46.567z" fill="#c12f5f"/>
  <path d="m475.22 274v12.879l-235.78 21.552-186.89-21.552v-117.08c0-25.735 20.861-46.596 46.596-46.596h229.07c16.514 0 31.747 8.892 39.872 23.271l4.205 7.447 3.263 38.799 31.736 23.161 39.084 15.572c17.423 6.943 28.845 23.796 28.845 42.544z" fill="#fff"/>
  <path d="m475.22 274c0-18.748-11.422-35.602-28.845-42.544l-39.084-15.572-31.736-23.161-3.263-38.799-4.205-7.447c-8.126-14.378-23.358-23.271-39.872-23.271h-74.211v183.89l221.22-20.22z" fill="#ededed"/>
  <path d="m52.543 286.88h422.67v52.26h-422.67z" fill="#f45162"/>
  <path d="m254 286.88h221.22v52.26h-221.22z" fill="#c12f5f"/>
  <circle transform="matrix(.707 -.707 .707 .707 -192.63 206.22)" cx="152.62" cy="335.63" r="40.399" fill="#fff"/>
  <path d="m152.62 393.45c-31.885 0-57.825-25.94-57.825-57.825s25.94-57.824 57.825-57.824c31.884 0 57.824 25.939 57.824 57.824s-25.939 57.825-57.824 57.825zm0-85.236c-15.114 0-27.41 12.296-27.41 27.41 0 15.115 12.296 27.411 27.41 27.411s27.41-12.296 27.41-27.411c0-15.113-12.295-27.41-27.41-27.41z" fill="#3a3a3a"/>
  <circle transform="matrix(.707 -.707 .707 .707 -129.86 357.74)" cx="366.89" cy="335.63" r="40.399" fill="#ededed"/>
  <path d="m366.89 393.45c-31.885 0-57.825-25.94-57.825-57.825s25.94-57.824 57.825-57.824c31.884 0 57.824 25.939 57.824 57.824s-25.94 57.825-57.824 57.825zm0-85.236c-15.114 0-27.41 12.296-27.41 27.41 0 15.115 12.296 27.411 27.41 27.411s27.41-12.296 27.41-27.411c0-15.113-12.296-27.41-27.41-27.41z" fill="#3a3a3a"/>
  <path d="m192.85 187.54h-23.664v-23.664h-33.138v23.664h-23.663v33.137h23.663v23.664h33.138v-23.664h23.664z" fill="#f45162"/>
  <path d="m407.29 215.89h-72.97c-16.334 0-29.575-13.241-29.575-29.575v-32.385h67.546z" fill="#107be5"/>
 </g>
</svg>
