<svg width="900" height="900" version="1.1" viewBox="0 0 238.12 238.12" xmlns="http://www.w3.org/2000/svg">
 <g transform="matrix(.4625 0 0 .4625 .66146 .66146)">
  <circle cx="256" cy="256" r="256" fill="#a365d9"/>
  <path d="m371.82 178.29-83.28-83.28-78.06 128.8-50.989-50.989 2.955 190.06-16.966 48.428 100.49 100.49c3.328 0.128 6.668 0.213 10.027 0.213 126.23 0 231.11-91.362 252.15-211.56l-127.71-127.72z" fill="#7847a1"/>
  <path d="m386.21 322.23v-135.58c0-10.875-8.816-19.691-19.691-19.691s-19.691 8.816-19.691 19.691v135.85l-63.819 23.607v65.193h83.51v-45.053c12.082-10.816 19.691-26.526 19.691-44.019z" fill="#fdb59e"/>
  <path d="m322.72 282.07v26.516c-0.707-0.04-1.419-0.064-2.136-0.064-20.755 0-37.58 16.825-37.58 37.58s16.825 37.58 37.58 37.58 37.58-16.825 37.58-36.68v-100.38c-19.575-1e-3 -35.444 15.868-35.444 35.443z" fill="#ffc9b7"/>
  <path d="m125.79 322.23v-135.58c0-10.875 8.816-19.691 19.691-19.691s19.691 8.816 19.691 19.691v135.85l63.82 20.512v68.287h-83.51v-45.053c-12.083-10.815-19.692-26.525-19.692-44.018z" fill="#ffc9b7"/>
  <path d="m193.25 285.38v23.864c0.637-0.036 1.277-0.058 1.923-0.058 18.679 0 33.822 15.143 33.822 33.822s-15.142 33.822-33.822 33.822c-18.679 0-33.822-15.142-33.822-33.012v-90.337c17.617 0 31.899 14.282 31.899 31.899z" fill="#ffd5c8"/>
  <path d="m256 294.05s-67.05-25.043-67.05-110.67 67.05-110.67 67.05-110.67l33.397 110.67z" fill="#b5e44e"/>
  <path d="m256 72.702s67.05 25.043 67.05 110.67-67.05 110.67-67.05 110.67z" fill="#77dc5a"/>
  <path d="m256 327.09h-7.971v-203.12h7.971l5 9.506v177.51z" fill="#77dc5a"/>
  <path d="m256 123.97h7.971v203.12h-7.971z" fill="#5bc83e"/>
 </g>
</svg>
