<svg width="900" height="900" version="1.1" viewBox="0 0 238.12 238.12" xmlns="http://www.w3.org/2000/svg">
 <g transform="matrix(.4625 0 0 .4625 .66133 .66133)">
  <circle cx="256" cy="256" r="256" fill="#fcc515"/>
  <path d="m210.28 292.32-105.93-105.93-38.353 38.353 139.49 139.49-52.629 52.629 95.001 95.001c2.704 0.084 5.415 0.142 8.14 0.142 141.38 0 256-114.62 256-256 0-17.026-1.678-33.659-4.849-49.755l-105.4-105.4z" fill="#fa0"/>
  <path d="m66 183.1h46.849v41.644h-46.849z" fill="#333940"/>
  <path d="m399.15 183.1h46.849v41.644h-46.849z" fill="#101214"/>
  <path d="m110.25 100.85v213.02c0 80.497 65.256 145.75 145.75 145.75l30.365-179.39-30.365-179.39z" fill="#555a65"/>
  <path d="m401.75 100.85h-145.75v358.78c80.497 0 145.75-65.256 145.75-145.75z" fill="#333940"/>
  <path d="m146.68 154.47v98.904h109.32l22.774-49.452-22.774-49.452z" fill="#333940"/>
  <path d="m256 154.47h109.32v98.904h-109.32z" fill="#101214"/>
  <path d="m162.3 170.08v67.671h93.699l19.521-33.835-19.521-33.836z" fill="#fff"/>
  <path d="m256 170.08h93.699v67.671h-93.699z" fill="#e9edf5"/>
 </g>
</svg>
