<svg width="900" height="900" version="1.1" viewBox="0 0 238.12 238.12" xmlns="http://www.w3.org/2000/svg">
 <g transform="matrix(.4625 0 0 .4625 .66146 .66146)">
  <path d="m39.728 393.04c-25.158-39.622-39.728-86.629-39.728-137.04 0-141.38 114.62-256 256-256s256 114.62 256 256c0 50.409-14.57 97.416-39.728 137.04z" fill="#b46e5a"/>
  <path d="m472.27 393.04c21.441-33.768 35.192-72.9 38.787-114.93l-193.2-193.2-164.53 136.24 54.296 54.296-6.914 10.7 163.28 163.28z" fill="#915041"/>
  <path d="m256 358.96c-89.145 0-168.04 13.443-216.27 34.073 45.405 71.506 125.3 118.96 216.27 118.96 1.369 0 2.734-0.012 4.098-0.033v-152.98c-1.366-6e-3 -2.727-0.019-4.098-0.019z" fill="#a8d812"/>
  <path d="m256 358.96c-0.098 0-0.195 1e-3 -0.293 1e-3v153.03c0.098 0 0.195 2e-3 0.293 2e-3 90.976 0 170.87-47.456 216.27-118.96-48.231-20.629-127.13-34.071-216.27-34.071z" fill="#82b20b"/>
  <path d="m256 440.41c69.13 0 129.96-5.981 165.23-15.035l-6.827-40.672c-4.272-25.448-24.508-45.213-50.049-48.886l-68.012-9.779v-44.494h-80.681v44.494l-68.012 9.779c-25.541 3.672-45.777 23.438-50.049 48.886l-6.827 40.672c35.267 9.055 96.098 15.035 165.23 15.035z" fill="#ffbeaa"/>
  <path d="m421.23 425.38-6.828-40.672c-4.272-25.448-24.508-45.213-50.049-48.886l-68.012-9.779v-44.494h-40.633v158.86c0.098 0 0.195 1e-3 0.293 1e-3 69.13 1e-3 129.96-5.979 165.23-15.034z" fill="#faa68e"/>
  <circle transform="matrix(.233 -.973 .973 .233 -58.768 311.58)" cx="168.12" cy="193.04" r="31.765" fill="#ffbeaa"/>
  <circle transform="matrix(.446 -.895 .895 .446 17.778 414.8)" cx="343.88" cy="193.04" r="31.765" fill="#e09380"/>
  <path d="m256 305.33c-49.301 0-89.267-39.966-89.267-89.267v-66.794c0-49.3 39.966-89.266 89.267-89.266s89.267 39.966 89.267 89.267v66.794c0 49.3-39.966 89.266-89.267 89.266z" fill="#ffcdbe"/>
  <path d="m256 60c-0.098 0-0.195 3e-3 -0.293 4e-3v245.32c0.098 0 0.195 4e-3 0.293 4e-3 49.301 0 89.267-39.966 89.267-89.267v-66.794c0-49.301-39.966-89.267-89.267-89.267z" fill="#ffbeaa"/>
 </g>
</svg>
