<svg width="900" height="900" version="1.1" viewBox="0 0 238.12 238.12" xmlns="http://www.w3.org/2000/svg">
 <g transform="matrix(.4625 0 0 .4625 .66146 .66146)">
  <circle cx="256" cy="256" r="256" fill="#fdba12"/>
  <path d="m512 256c0-4.42-0.112-8.814-0.333-13.179l-148.16-148.16-215.02 135.53 142 142-142 62.807 74.948 74.948c10.664 1.354 21.532 2.052 32.563 2.052 141.38 0 256-114.62 256-256z" fill="#ff9100"/>
  <path d="m361.16 135-21.213 21.213 41.931 41.931v35.133h33.526v132.39c0 6.374-5.186 11.56-11.56 11.56s-11.561-5.186-11.561-11.56v-85.526h-68.12v30h38.12v55.526c0 22.917 18.644 41.56 41.561 41.56 22.916 0 41.56-18.644 41.56-41.56v-146.43z" fill="#333940"/>
  <path d="m168.46 194.24h175.09v228.52h-175.09z" fill="#414952"/>
  <path d="m256 194.24h87.543v228.52h-87.543z" fill="#23272b"/>
  <path d="m148.49 94.665h215.02v135.53h-215.02z" fill="#636978"/>
  <path d="m256 94.665h107.51v135.53h-107.51z" fill="#414952"/>
  <path d="m180.86 121.9h150.28v81.07h-150.28z" fill="#a3d4ff"/>
  <path d="m256 121.9h75.138v81.07h-75.138z" fill="#65b1fc"/>
  <path d="m148.49 392.23h215.02v42.771h-215.02z" fill="#636978"/>
  <path d="m256 392.23h107.51v42.771h-107.51z" fill="#414952"/>
  <path d="m283.5 319.11c0 15.19-12.314 27.504-27.504 27.504s-27.504-12.314-27.504-27.504 27.504-50.36 27.504-50.36 27.504 35.169 27.504 50.36z" fill="#fe6a16"/>
  <path d="m283.5 319.11c0-14.937-26.615-49.218-27.504-50.36l0.042 77.863c15.171-0.023 27.462-12.327 27.462-27.503z" fill="#f24500"/>
 </g>
</svg>
