<svg id="Capa_1" enable-background="new 0 0 512 512" height="512" viewBox="0 0 512 512" width="512" xmlns="http://www.w3.org/2000/svg"><g><circle cx="256" cy="256" fill="#ffe370" r="256"/><path d="m511.726 244.373-120.746-120.746-6.068 8.052v26.153l-58.871-58.871-172.824 291.703-30.969 15.622 103.982 103.981c9.768 1.132 19.698 1.733 29.77 1.733 141.385 0 256-114.615 256-256 0-3.898-.102-7.772-.274-11.627z" fill="#fc0"/><g><g><path d="m404.079 348.401h-64.454l.293-118.22 15 23.804-.293 79.416h34.454v-139.754h15z" fill="#515165"/></g><g><path d="m390.98 158.433h-15v-28.593l-20.272-20.271 10.607-10.607 24.665 24.665z" fill="#515165"/></g><path d="m417.262 212.774h-45.066v-68.834h22.533l22.533 24.277z" fill="#ff4949"/><path d="m316.787 206.376h38.108v47.609h-38.108z" fill="#40383f"/><g><g><path d="m234.686 393.223h-91.354v-294.261h91.354l45.678 147.131z" fill="#ff7d43"/><path d="m234.686 98.962h91.355v294.261h-91.355z" fill="#ff4949"/></g><g><path d="m234.686 222.154h-70.491v-102.329h70.491l35.246 51.165z" fill="#a7eaf9"/><path d="m234.686 119.825h70.492v102.329h-70.492z" fill="#75e1f7"/></g><g><path d="m251.657 180.391-16.971 25.985c-15.151 0-27.433-10.834-27.433-25.985s27.433-44.788 27.433-44.788z" fill="#515165"/><path d="m262.119 180.391c0 15.151-12.282 25.985-27.433 25.985v-70.773c0 .001 27.433 29.638 27.433 44.788z" fill="#40383f"/></g><g><path d="m234.686 406.286h-112.438v-31.244h112.438l56.22 15.622z" fill="#0081ff"/><path d="m234.686 375.042h112.439v31.243h-112.439z" fill="#005fe3"/></g><path d="m248.403 242.937h56.775v22.095h-56.775z" fill="#515165"/><path d="m164.195 242.937h56.775v41.46h-56.775z" fill="#0081ff"/></g></g></g></svg>