<svg width="900" height="900" version="1.1" viewBox="0 0 238.12 238.12" xmlns="http://www.w3.org/2000/svg">
 <g transform="matrix(.4625 0 0 .4625 .66146 .66146)">
  <circle cx="256" cy="256" r="256" fill="#ffe370"/>
  <path d="m511.73 244.37-120.75-120.75-6.068 8.052v26.153l-58.871-58.871-172.82 291.7-30.969 15.622 103.98 103.98c9.768 1.132 19.698 1.733 29.77 1.733 141.38 0 256-114.62 256-256 0-3.898-0.102-7.772-0.274-11.627z" fill="#fc0"/>
  <path d="m404.08 348.4h-64.454l0.293-118.22 15 23.804-0.293 79.416h34.454v-139.75h15z" fill="#515165"/>
  <path d="m390.98 158.43h-15v-28.593l-20.272-20.271 10.607-10.607 24.665 24.665z" fill="#515165"/>
  <path d="m417.26 212.77h-45.066v-68.834h22.533l22.533 24.277z" fill="#ff4949"/>
  <path d="m316.79 206.38h38.108v47.609h-38.108z" fill="#40383f"/>
  <path d="m234.69 393.22h-91.354v-294.26h91.354l45.678 147.13z" fill="#ff7d43"/>
  <path d="m234.69 98.962h91.355v294.26h-91.355z" fill="#ff4949"/>
  <path d="m234.69 222.15h-70.491v-102.33h70.491l35.246 51.165z" fill="#a7eaf9"/>
  <path d="m234.69 119.82h70.492v102.33h-70.492z" fill="#75e1f7"/>
  <path d="m251.66 180.39-16.971 25.985c-15.151 0-27.433-10.834-27.433-25.985s27.433-44.788 27.433-44.788z" fill="#515165"/>
  <path d="m262.12 180.39c0 15.151-12.282 25.985-27.433 25.985v-70.773c0 1e-3 27.433 29.638 27.433 44.788z" fill="#40383f"/>
  <path d="m234.69 406.29h-112.44v-31.244h112.44l56.22 15.622z" fill="#0081ff"/>
  <path d="m234.69 375.04h112.44v31.243h-112.44z" fill="#005fe3"/>
  <path d="m248.4 242.94h56.775v22.095h-56.775z" fill="#515165"/>
  <path d="m164.2 242.94h56.775v41.46h-56.775z" fill="#0081ff"/>
 </g>
</svg>
