<svg width="900" height="900" version="1.1" viewBox="0 0 238.12 238.12" xmlns="http://www.w3.org/2000/svg">
 <g transform="matrix(.46285 0 0 .46285 .57322 .57322)">
  <path d="m512 256c0 141.39-114.61 256-256 256s-256-114.61-256-256 114.61-256 256-256 256 114.61 256 256z" fill="#53edf5"/>
  <path d="m512 256c0-7.2969-0.32031-14.516-0.92188-21.656l-90.086-90.09-329.98 223.49 143.34 143.34c7.1406 0.60157 14.359 0.92188 21.656 0.92188 141.39 0 256-114.61 256-256z" fill="#33ccde"/>
  <path d="m91.008 144.26h329.98v223.49h-329.98z" fill="#414952"/>
  <path d="m255.81 144.26h165.18v223.49h-165.18z" fill="#23272b"/>
  <path d="m170.88 308.5c-33.91 0-61.5-27.59-61.5-61.5s27.59-61.5 61.5-61.5c33.91 0 61.5 27.59 61.5 61.5s-27.59 61.5-61.5 61.5zm0-100c-21.23 0-38.5 17.27-38.5 38.5s17.27 38.5 38.5 38.5c21.227 0 38.5-17.27 38.5-38.5s-17.273-38.5-38.5-38.5z" fill="#fff"/>
  <path d="m341.12 308.5c-33.91 0-61.5-27.59-61.5-61.5s27.59-61.5 61.5-61.5c33.91 0 61.5 27.59 61.5 61.5s-27.59 61.5-61.5 61.5zm0-100c-21.227 0-38.5 17.27-38.5 38.5s17.273 38.5 38.5 38.5c21.23 0 38.5-17.27 38.5-38.5s-17.27-38.5-38.5-38.5z" fill="#e9edf5"/>
  <path d="m173.33 285.5h165.33v23h-165.33z" fill="#fff"/>
  <path d="m255.81 285.5h82.859v23h-82.859z" fill="#e9edf5"/>
 </g>
</svg>
