<?xml version="1.0" encoding="UTF-8" standalone="no"?>
<svg
   width="900"
   height="900"
   version="1.1"
   viewBox="0 0 238.12 238.12"
   id="svg207"
   sodipodi:docname="surete-quebec.svg"
   inkscape:version="1.1.2 (b8e25be833, 2022-02-05)"
   xmlns:inkscape="http://www.inkscape.org/namespaces/inkscape"
   xmlns:sodipodi="http://sodipodi.sourceforge.net/DTD/sodipodi-0.dtd"
   xmlns="http://www.w3.org/2000/svg"
   xmlns:svg="http://www.w3.org/2000/svg">
  <defs
     id="defs211" />
  <sodipodi:namedview
     id="namedview209"
     pagecolor="#ffffff"
     bordercolor="#999999"
     borderopacity="1"
     inkscape:pageshadow="0"
     inkscape:pageopacity="0"
     inkscape:pagecheckerboard="0"
     showgrid="false"
     inkscape:zoom="0.89777778"
     inkscape:cx="450"
     inkscape:cy="449.44307"
     inkscape:window-width="1920"
     inkscape:window-height="1001"
     inkscape:window-x="-9"
     inkscape:window-y="-9"
     inkscape:window-maximized="1"
     inkscape:current-layer="svg207" />
  <g
     id="g1560">
    <circle
       id="XMLID_69_"
       cx="119.06"
       cy="119.06"
       r="118.4"
       fill="#1362b7"
       stroke-width=".4625" />
    <g
       style="overflow:visible"
       id="g1377"
       transform="matrix(0.32857023,0,0,0.32857023,37.023696,15.576366)">
      <g
         id="g2834"
         transform="matrix(1.3598163,0,0,1.3598163,-90.892778,-288.97487)">
			<path
   id="path2836"
   style="fill:none"
   d="" />

			<g
   id="g2838">
				<g
   id="g2840">
					
					<path
   d="m 253.766,600.788 c 92.297,0 167.117,-74.813 167.117,-167.109 0,-92.289 -74.82,-167.109 -167.117,-167.109 -92.281,0 -167.109,74.82 -167.109,167.109 -10e-4,92.297 74.827,167.109 167.109,167.109"
   id="path2844"
   style="fill:#bd9705" />

					<path
   id="path2846"
   style="fill:#bd9705"
   d="" />

					<line
   x1="251.758"
   y1="640.53003"
   x2="251.758"
   y2="640.53003"
   id="line2848"
   style="fill:#bd9705" />

					<path
   d="m 252.453,650.054 c 0.461,0.18 1.266,0.375 2.047,0 h -2.047"
   id="path2850"
   style="fill:#bd9705" />

					<path
   d="m 257.734,650.054 c 0.867,0.469 1.813,0.18 2.25,0 h -2.25"
   id="path2852"
   style="fill:#bd9705" />

					<path
   d="m 252.453,650.054 c 0.461,0.18 1.266,0.375 2.047,0 h -2.047"
   id="path2854"
   style="fill:#bd9705" />

					<path
   d="m 257.734,650.054 c 0.867,0.469 1.813,0.18 2.25,0 h -2.25"
   id="path2856"
   style="fill:#bd9705" />

					<path
   id="path2858"
   style="fill:#bd9705;stroke-width:0.991826"
   transform="matrix(1.0082417,0,0,1.0082417,-1.0360571,212.51023)"
   d="m 134.69336,433.9668 c 0.30945,1.31813 0.99093,2.3874 2.21484,2.91406 2.33179,1.02356 4.70377,1.81941 7.13672,2.70312 3.98218,1.46493 14.57456,1.79896 16.51953,1.15625 1.94497,-0.65063 0.89063,2.14454 0.89063,2.14454 -2.38733,1.23978 -6.37762,1.7838 -3.85938,4.41015 3.09946,3.23137 7.88768,4.20612 12.52149,4.39258 5.75755,0.20928 10.29946,-3.55513 16.0332,-4.09766 1.38756,-0.12397 3.22217,-0.24077 3.88867,0.61914 5.12972,6.78806 8.75037,10.7078 14.4375,6.78711 1.71983,-1.19316 5.47737,-4.15266 7.01172,-5.33789 2.28616,-1.80512 3.69675,-3.526 5.95117,-2.21679 1.78231,1.03149 4.47791,5.90566 6.48438,6.26171 2.98242,0.52666 5.83379,-0.50382 8.0039,-2.60351 0,0 6.27004,-6.04429 8.64844,-11.66992 l 0.0781,0.20898 c 0.61195,0.99183 1.42407,1.69817 2.42382,1.83008 3.73522,0.47211 5.95921,-0.75258 7.91211,-7.50195 z" />

					<path
   d="m 254.5,650.054 c -0.781,0.375 -1.586,0.18 -2.047,0 h 2.047"
   id="path2860"
   style="fill:#bd9705" />

					<path
   d="m 259.984,650.054 c -0.438,0.18 -1.383,0.469 -2.25,0 h 2.25"
   id="path2862"
   style="fill:#bd9705" />

					<path
   id="path2864"
   style="fill:#bd9705;stroke-width:0.991826"
   transform="matrix(1.0082417,0,0,1.0082417,-1.0360571,212.51023)"
   d="m 259.16797,433.9668 c 1.90629,6.80293 4.13675,8.05904 7.87891,7.58593 0.3253,-0.0387 0.61962,-0.12445 0.90624,-0.28711 l 0.11719,-0.0937 c 1.51055,3.57254 3.67924,6.94337 6.4375,9.35351 3.78084,3.29286 9.19843,5.71907 11.72461,-0.45703 0,0 0.99201,-3.23033 2.84375,-3.17578 1.88249,0.0466 4.90466,7.68646 20.61914,10.22851 1.25466,0.20928 2.93584,-0.1485 3.74219,-1.34961 0.46517,-0.69725 -1.11624,-4.09754 -0.54297,-4.80273 1.06125,-1.27053 2.89842,-0.44302 3.85156,-0.21094 23.65703,6.05212 27.77149,0.50391 27.77149,0.50391 1.15448,-0.82917 0.33155,-3.6418 -0.65235,-5.15234 -1.3102,-2.01539 -0.0237,-4.72692 2.59571,-5.02149 8.48507,-0.96108 17.24227,0.0846 24.85156,-4.52539 1.66627,-1.0067 2.61918,-1.87465 3.06055,-2.5957 z" />

					<path
   d="m 134.766,650.054 c -0.016,-0.047 -0.023,-0.102 -0.039,-0.156 -1.398,-6.773 10.219,-5.555 3.703,-9.813 l -7.18,-5.227 c -5.664,-2.367 -5.758,-5.813 -5.57,-8.141 h 13.469 c 2.391,1.055 4.836,1.922 7.563,1.789 0.297,-0.016 0.828,-0.43 1.367,-0.461 -0.039,-0.477 0,-0.93 0.117,-1.328 h 8.453 c 5.539,3.664 10.75,8.063 17.5,8.828 1.375,-2.266 3.828,-2.641 6.07,-1.352 3.992,2.313 7.43,5.25 11.352,7.586 3.938,2.352 8.406,1.242 12.813,1.039 1.93,-0.102 1.859,-2.102 1.57,-3.211 -0.289,-1.141 -1.578,-1.461 -1.805,-2.5 -0.516,-2.305 2.336,-2.938 3.938,-2.898 5.797,0.125 11.148,2.43 16.797,4.109 3.539,1.047 7.148,1.531 10.898,0.391 l 1.422,-0.484 c 5.789,-4.703 12.398,-6.898 12.398,-6.898 0.414,-0.156 0.813,-0.32 1.234,-0.477 l 0.266,-0.133 c -3.914,-0.656 -15.469,1.391 -15.469,1.391 -3.781,0.516 -6.867,2.859 -10.555,3.023 -6.984,0.359 -13.453,-1.344 -20.484,-1.359 -7.102,-0.016 -12.367,0.906 -19.078,-2.18 -0.336,-0.164 -0.836,-1.625 -0.445,-1.742 2.469,-0.75 3.273,0.375 5.32,-1.68 0.391,-0.398 0.492,-0.93 0.375,-1.453 h 63.945 c -0.016,0.297 -0.031,0.641 -0.055,0.992 l -0.094,0.461 c 0.367,0.141 0.75,0.258 1.117,0.375 l 0.297,0.063 c 0.531,-0.266 1.039,-0.523 1.547,-0.766 l 0.094,-0.086 c -0.016,-0.367 -0.031,-0.727 -0.047,-1.039 h 60.977 c -0.172,1.938 1.672,4.023 5.961,3.664 0,0 3.859,-0.32 3.859,1.781 0,3.203 -3.914,4.563 -6.523,4.922 -5.328,0.758 -10.57,-0.469 -15.961,-1.797 -4.148,-1.008 -8.633,-1.031 -12.961,1.578 -9.711,5.844 -17.711,-9.422 -31.539,-6.375 -1.477,0.328 -2.883,0.68 -4.203,1.063 l -0.43,0.156 c 0,0 9.508,-0.914 15.891,2.328 6.375,3.25 13.445,7.18 17.781,4.93 0,0 7.852,-5.258 12.891,-3.25 0,0 3.195,0.313 3.703,3.563 0.531,3.242 -4.07,-0.102 -3.758,3.563 0.234,2.742 3.453,2.93 4.289,2.867 11.305,-0.828 19.781,-10.336 23.289,-12.219 2.641,-1.438 6.664,-1.008 8.391,2.133 0,0 1.453,3.445 2.117,3.867 0,0 5.195,6.805 10.109,-2.734 2.141,-4.133 4.258,-7.563 6.227,-10.039 h 8.383 c 0.063,0.805 0.148,1.617 0.367,2.375 0.781,2.547 3.313,2.398 4.773,1.813 3.367,-1.344 7.352,-4.539 10.859,-3.563 2.594,0.711 3.391,2.586 2.719,5.438 0,0 0.07,4.383 -12.344,11.422 0,0 -1.695,1.789 1.664,2.539 -0.289,-0.063 3.906,0.805 2.32,3.313 H 260.266 c -0.016,-0.039 -0.023,-0.078 -0.039,-0.117 0,0 -0.102,0.047 -0.242,0.117 h -2.25 c -0.508,-0.211 -0.992,-0.719 -1.328,-1.641 -1.117,-3.031 1.414,-5.773 1.414,-5.773 0.563,-0.734 1.594,-1.438 2.836,-2.016 l -0.172,-0.313 c -3.266,-4.586 -4.578,-5.016 -4.578,-5.016 0,0 -1.961,1.086 -4.148,5.234 l 0.117,0.125 c 1.141,0.57 2.117,1.25 2.656,1.953 0,0 2.516,2.75 1.383,5.781 -0.359,0.961 -0.883,1.469 -1.414,1.664 h -2.047 c -0.234,-0.086 -0.375,-0.164 -0.375,-0.164 -0.016,0.063 -0.039,0.117 -0.055,0.164 H 134.766"
   id="path2866"
   style="fill:#bd9705" />

					<path
   d="m 347.469,626.718 c -4.273,1.039 -9.688,1.594 -15.016,0.109 0,0 -0.109,-0.047 -0.297,-0.109 h 15.313"
   id="path2868"
   style="fill:#bd9705" />

					<path
   d="m 125.68,626.718 c 0.039,-0.461 0.102,-0.867 0.117,-1.227 0.055,-0.883 2.289,-1.938 3.133,-1.945 3.727,-0.023 6.922,1.75 10.219,3.172 H 125.68"
   id="path2870"
   style="fill:#bd9705" />

					<path
   d="m 148.195,626.718 c 0.586,-2.133 2.969,-3.266 4.93,-2.172 1.203,0.672 2.367,1.398 3.523,2.172 h -8.453"
   id="path2872"
   style="fill:#bd9705" />

					<path
   d="m 190.766,626.718 c -0.133,-0.711 -0.641,-1.391 -1.172,-1.641 -7.008,-3.203 -14.672,-0.875 -22.234,-0.547 -4.398,0.188 -8.375,-1.219 -12.195,-3.156 -2.07,-1.047 -5.43,-2.773 -3.727,-5.195 1.164,-1.625 6.727,1.469 4.82,-2.422 -1.375,-2.797 -3.984,-4.586 -6.742,-5.781 -9.359,-4.055 -19.961,-9.305 -23.063,-19.563 -0.805,-2.734 0.836,-6.148 3.625,-6.75 4.172,-0.891 7.266,2.656 11.242,3.961 3.734,1.227 7.031,-1.367 10.609,-0.672 3.016,0.578 4.906,3.07 7.555,4.414 1.5,0.758 3.805,1.086 4.859,-0.578 1.961,-3.055 -2.391,-4.109 -3.266,-6.414 -1.625,-4.359 5.547,-2.375 8.086,-1.352 8.164,3.289 12.672,10.586 19,16.734 1.156,1.133 3.719,1.25 5.461,0.758 0.453,-0.141 1.813,-1.406 1.055,-1.945 -0.898,-0.664 -1.227,-0.945 -1.984,-1.82 -0.445,-0.516 1.227,-1.758 1.32,-1.742 8.867,2.031 14.055,7.422 21.266,13.203 1.734,1.406 4.313,1.68 6.375,1.156 2.289,-0.547 0.844,-4.008 2.617,-5.047 1.977,-1.195 4.031,0.844 5.742,2.234 3.664,2.969 6.398,6.344 9.336,9.93 0.891,1.07 1.391,2.461 2.328,3.406 0,0 4.43,5.461 9.734,8.711 l 0.039,-0.633 c 0.203,-3.297 -0.391,-5.844 -0.977,-6.633 l -0.188,0.133 c -1.672,1.094 -4.164,2.367 -5.766,1.273 -1.328,-0.891 -1.039,-0.688 -1.563,-1.32 -2.07,-2.508 0.258,-3.602 0.258,-3.602 l 0.195,-0.094 c 0,-0.07 -0.063,-0.086 -0.094,-0.109 -5.719,-5.281 -3.93,-7.984 -1.641,-9.625 2.523,-1.797 6.469,-1.289 8.68,4.531 l 0.422,-0.422 c 0.953,-1.094 2.523,0.133 2.523,0.133 0.305,0.227 2.305,4.391 0.297,6.617 -0.148,0.148 -0.281,0.297 -0.422,0.438 l -0.117,0.078 c 1.023,2.313 1.852,4.734 1.648,9.352 h -63.941"
   id="path2874"
   style="fill:#bd9705" />

					<path
   d="m 257.57,626.718 c -0.164,-4.563 0.656,-6.859 1.688,-9.156 l -0.078,-0.219 c -0.164,-0.133 -0.297,-0.289 -0.438,-0.438 -2,-2.242 0.039,-6.383 0.336,-6.617 0,0 1.578,-1.211 2.523,-0.102 l 0.414,0.414 c 2.258,-5.805 6.203,-6.297 8.703,-4.484 2.289,1.656 4.063,4.383 -1.695,9.609 l 0.102,0.211 c 0,0 2.328,1.109 0.234,3.617 -0.508,0.625 -0.234,0.414 -1.555,1.305 -1.617,1.078 -4.094,-0.203 -5.758,-1.297 l -0.188,-0.148 c -0.602,0.789 -1.203,3.328 -1.023,6.625 l 0.172,-0.086 c 10.625,-6.18 15.102,-12.523 15.102,-12.523 2.594,-3.75 5.281,-11.633 8.406,-12.875 -0.258,0.102 3.094,-2.781 5.133,1.141 0.523,1.008 -0.438,4.625 0.508,5.242 2.094,1.359 4.359,0.086 5.969,-1.578 1.852,-1.906 3.25,-4.289 5.039,-6.297 2.148,-2.406 4,-4.086 7.117,-5.32 0,0 5.422,-1.969 5.547,-1.563 0,0 2.508,-0.109 2.406,1.148 -0.109,1.195 -1.156,1.578 -0.219,2.836 0.914,1.195 7.328,-1.789 10.68,-6.813 3.352,-5.031 11.938,-10.578 17.797,-9.32 0,0 2.828,0.313 6.391,3.664 0,0 0.938,1.992 -0.117,2.211 0,0 -1.984,0.727 -2.719,2.609 -2.328,5.984 6.297,2.953 9.211,1.781 0,0 5.656,-3.086 7.961,-3.664 2.297,-0.578 5.797,-1.094 7.43,0.727 1.625,1.836 9.461,0.844 10.313,0.367 0.836,-0.461 4.188,-1.461 3.82,2.781 -0.813,9.383 -10.133,12.938 -18,14.648 -13.508,2.93 -30.602,8.18 -16.328,12.867 7.625,2.523 3.961,5.141 3.445,5.563 -0.273,0.211 -3.648,1.992 -8.43,3.133 h -15.313 c -1.914,-0.586 -12.273,-3.641 -13.414,-0.828 -0.109,0.266 -0.172,0.539 -0.195,0.828 H 257.57"
   id="path2876"
   style="fill:#bd9705" />

					<path
   d="m 357.68,626.718 c 2.539,-3.219 4.773,-4.844 6.375,-4.383 1.867,0.547 1.883,2.406 2.008,4.383 h -8.383"
   id="path2878"
   style="fill:#bd9705" />

					<path
   id="path2880"
   style="fill:#bd9705;stroke-width:0.991826"
   transform="matrix(1.0082417,0,0,1.0082417,-1.0360571,212.51023)"
   d="m 134.69336,433.9668 c 0.30945,1.31813 0.99093,2.37947 2.21484,2.91406 2.33179,1.02356 4.70377,1.81941 7.13672,2.70312 3.98218,1.46493 14.57456,1.79896 16.51953,1.15625 1.94497,-0.65063 0.89063,2.14454 0.89063,2.14454 -2.38733,1.23978 -6.37762,1.7838 -3.85938,4.41015 3.09946,3.23137 7.88768,4.20612 12.52149,4.39258 5.75755,0.20928 10.29946,-3.55513 16.0332,-4.09766 1.38756,-0.12397 3.22217,-0.24077 3.88867,0.61914 5.12972,6.78806 8.75037,10.7078 14.4375,6.78711 1.71983,-1.19316 5.47737,-4.15266 7.01172,-5.33789 2.28616,-1.80512 3.69675,-3.526 5.95117,-2.21679 1.78231,1.03149 4.47791,5.90566 6.48438,6.26171 2.98242,0.52666 5.83379,-0.50382 8.0039,-2.60351 0,0 6.27004,-6.04429 8.64844,-11.66992 l 0.0781,0.20898 c 0.61195,0.99183 1.42407,1.69817 2.42382,1.83008 3.73522,0.47211 5.95921,-0.75258 7.91211,-7.50195 z" />

					<path
   d="m 254.5,650.054 c -0.781,0.375 -1.586,0.18 -2.047,0 h 2.047"
   id="path2882"
   style="fill:#bd9705" />

					<path
   d="m 259.984,650.054 c -0.438,0.18 -1.383,0.469 -2.25,0 h 2.25"
   id="path2884"
   style="fill:#bd9705" />

					<path
   id="path2886"
   style="fill:#bd9705;stroke-width:0.991826"
   transform="matrix(1.0082417,0,0,1.0082417,-1.0360571,212.51023)"
   d="m 259.16797,433.9668 c 1.90629,6.81086 4.13675,8.05904 7.87891,7.58593 0.3253,-0.0387 0.61962,-0.12445 0.90624,-0.28711 l 0.11719,-0.0937 c 1.51055,3.57254 3.67924,6.94337 6.4375,9.35351 3.78084,3.29286 9.19843,5.71907 11.72461,-0.45703 0,0 0.99201,-3.23033 2.84375,-3.17578 1.88249,0.0466 4.90466,7.68646 20.61914,10.22851 1.25466,0.20928 2.93584,-0.1485 3.74219,-1.34961 0.46517,-0.69725 -1.11624,-4.09754 -0.54297,-4.80273 1.06125,-1.27053 2.89842,-0.44302 3.85156,-0.21094 23.65703,6.05212 27.77149,0.50391 27.77149,0.50391 1.15448,-0.82917 0.33155,-3.6418 -0.65235,-5.15234 -1.3102,-2.01539 -0.0237,-4.72692 2.59571,-5.02149 8.48507,-0.96108 17.24227,0.0846 24.85156,-4.52539 1.66627,-1.0067 2.61918,-1.87465 3.06055,-2.5957 z" />

					<path
   d="m 134.766,650.054 c -0.016,-0.047 -0.023,-0.102 -0.039,-0.156 -1.398,-6.773 10.219,-5.555 3.703,-9.813 l -7.18,-5.227 c -5.672,-2.367 -5.758,-5.813 -5.57,-8.141 h 13.461 c 2.398,1.055 4.844,1.922 7.57,1.789 0.297,-0.016 0.828,-0.43 1.367,-0.461 -0.039,-0.477 0,-0.93 0.117,-1.328 h 8.453 c 5.531,3.664 10.75,8.063 17.5,8.828 1.375,-2.266 3.828,-2.641 6.07,-1.352 3.992,2.313 7.43,5.25 11.352,7.586 3.938,2.352 8.406,1.242 12.813,1.039 1.93,-0.102 1.859,-2.102 1.57,-3.211 -0.289,-1.141 -1.578,-1.461 -1.805,-2.5 -0.516,-2.305 2.336,-2.938 3.938,-2.898 5.797,0.125 11.148,2.43 16.797,4.109 3.539,1.047 7.148,1.531 10.898,0.391 l 1.422,-0.484 c 5.789,-4.703 12.398,-6.898 12.398,-6.898 0.414,-0.156 0.813,-0.32 1.234,-0.477 l 0.266,-0.133 c -3.914,-0.656 -15.469,1.391 -15.469,1.391 -3.781,0.516 -6.867,2.859 -10.555,3.023 -6.984,0.359 -13.453,-1.344 -20.484,-1.359 -7.102,-0.016 -12.367,0.906 -19.078,-2.18 -0.336,-0.164 -0.836,-1.625 -0.445,-1.742 2.469,-0.75 3.273,0.375 5.32,-1.68 0.391,-0.398 0.492,-0.93 0.375,-1.453 h 63.945 c -0.016,0.297 -0.031,0.641 -0.055,0.992 l -0.094,0.461 c 0.367,0.141 0.75,0.258 1.117,0.375 l 0.297,0.063 c 0.531,-0.266 1.039,-0.523 1.547,-0.766 l 0.094,-0.086 c -0.016,-0.367 -0.031,-0.727 -0.047,-1.039 h 60.977 c -0.172,1.938 1.672,4.023 5.961,3.664 0,0 3.859,-0.32 3.859,1.781 0,3.203 -3.914,4.563 -6.523,4.922 -5.328,0.758 -10.57,-0.469 -15.961,-1.797 -4.148,-1.008 -8.633,-1.031 -12.961,1.578 -9.711,5.844 -17.711,-9.422 -31.539,-6.375 -1.477,0.328 -2.883,0.68 -4.203,1.063 l -0.43,0.156 c 0,0 9.508,-0.914 15.891,2.328 6.375,3.25 13.445,7.18 17.781,4.93 0,0 7.852,-5.258 12.891,-3.25 0,0 3.195,0.313 3.703,3.563 0.531,3.242 -4.07,-0.102 -3.758,3.563 0.234,2.742 3.453,2.93 4.289,2.867 11.305,-0.828 19.781,-10.336 23.289,-12.219 2.641,-1.438 6.664,-1.008 8.391,2.133 0,0 1.453,3.445 2.117,3.867 0,0 5.195,6.805 10.109,-2.734 2.141,-4.133 4.258,-7.563 6.227,-10.039 h 8.383 c 0.063,0.805 0.148,1.617 0.367,2.375 0.781,2.547 3.313,2.398 4.773,1.813 3.367,-1.344 7.352,-4.539 10.859,-3.563 2.594,0.711 3.391,2.586 2.719,5.438 0,0 0.07,4.383 -12.344,11.422 0,0 -1.695,1.789 1.664,2.539 -0.289,-0.063 3.906,0.805 2.32,3.313 H 260.266 c -0.016,-0.039 -0.023,-0.078 -0.039,-0.117 0,0 -0.102,0.047 -0.242,0.117 h -2.25 c -0.508,-0.211 -0.992,-0.719 -1.328,-1.641 -1.117,-3.031 1.414,-5.773 1.414,-5.773 0.563,-0.734 1.594,-1.438 2.836,-2.016 l -0.172,-0.313 c -3.266,-4.586 -4.578,-5.016 -4.578,-5.016 0,0 -1.961,1.086 -4.148,5.234 l 0.117,0.125 c 1.141,0.57 2.117,1.25 2.656,1.953 0,0 2.516,2.75 1.383,5.781 -0.359,0.961 -0.883,1.469 -1.414,1.664 h -2.047 c -0.234,-0.086 -0.375,-0.164 -0.375,-0.164 -0.016,0.063 -0.039,0.117 -0.055,0.164 H 134.766"
   id="path2888"
   style="fill:#bd9705" />

					<path
   d="m 347.477,626.718 c -4.281,1.031 -9.695,1.594 -15.023,0.109 0,0 -0.109,-0.047 -0.297,-0.109 h 15.32"
   id="path2890"
   style="fill:#bd9705" />

					<path
   d="m 125.68,626.718 c 0.039,-0.461 0.102,-0.867 0.117,-1.227 0.055,-0.883 2.289,-1.938 3.133,-1.945 3.727,-0.023 6.922,1.75 10.211,3.172 H 125.68"
   id="path2892"
   style="fill:#bd9705" />

					<path
   d="m 148.195,626.718 c 0.586,-2.133 2.969,-3.266 4.93,-2.172 1.203,0.672 2.367,1.398 3.523,2.172 h -8.453"
   id="path2894"
   style="fill:#bd9705" />

					<path
   d="m 190.766,626.718 c -0.133,-0.711 -0.641,-1.391 -1.172,-1.641 -7.008,-3.203 -14.672,-0.875 -22.234,-0.547 -4.398,0.188 -8.375,-1.219 -12.195,-3.156 -2.07,-1.047 -5.43,-2.773 -3.727,-5.195 1.164,-1.625 6.727,1.469 4.82,-2.422 -1.375,-2.797 -3.984,-4.586 -6.742,-5.781 -9.359,-4.055 -19.961,-9.305 -23.063,-19.563 -0.805,-2.734 0.836,-6.148 3.625,-6.75 4.172,-0.891 7.266,2.656 11.242,3.961 3.734,1.227 7.031,-1.367 10.609,-0.672 3.016,0.578 4.906,3.07 7.555,4.414 1.5,0.758 3.805,1.086 4.859,-0.578 1.961,-3.055 -2.391,-4.109 -3.266,-6.414 -1.625,-4.359 5.547,-2.375 8.086,-1.352 8.164,3.289 12.672,10.586 19,16.734 1.156,1.133 3.719,1.25 5.461,0.758 0.453,-0.141 1.813,-1.406 1.055,-1.945 -0.898,-0.664 -1.227,-0.945 -1.984,-1.82 -0.445,-0.516 1.227,-1.758 1.32,-1.742 8.867,2.031 14.055,7.422 21.266,13.203 1.734,1.406 4.313,1.68 6.375,1.156 2.289,-0.547 0.844,-4.008 2.617,-5.047 1.977,-1.195 4.031,0.844 5.742,2.234 3.664,2.969 6.398,6.344 9.336,9.93 0.891,1.07 1.391,2.461 2.328,3.406 0,0 4.43,5.461 9.734,8.711 l 0.039,-0.633 c 0.203,-3.297 -0.391,-5.844 -0.977,-6.633 l -0.188,0.133 c -1.672,1.094 -4.164,2.367 -5.766,1.273 -1.328,-0.891 -1.039,-0.688 -1.563,-1.32 -2.07,-2.508 0.258,-3.602 0.258,-3.602 l 0.195,-0.094 c 0,-0.07 -0.063,-0.086 -0.094,-0.109 -5.719,-5.281 -3.93,-7.984 -1.641,-9.625 2.523,-1.797 6.469,-1.289 8.68,4.531 l 0.422,-0.422 c 0.953,-1.094 2.523,0.133 2.523,0.133 0.305,0.227 2.305,4.391 0.297,6.617 -0.148,0.148 -0.281,0.297 -0.422,0.438 l -0.117,0.078 c 1.023,2.313 1.852,4.734 1.648,9.352 h -63.941"
   id="path2896"
   style="fill:#bd9705" />

					<path
   d="m 257.57,626.718 c -0.164,-4.563 0.656,-6.859 1.688,-9.156 l -0.078,-0.219 c -0.164,-0.133 -0.297,-0.289 -0.438,-0.438 -2,-2.242 0.039,-6.383 0.336,-6.617 0,0 1.578,-1.211 2.523,-0.102 l 0.414,0.414 c 2.258,-5.805 6.203,-6.297 8.703,-4.484 2.289,1.656 4.063,4.383 -1.695,9.609 l 0.102,0.211 c 0,0 2.328,1.109 0.234,3.617 -0.508,0.625 -0.234,0.414 -1.555,1.305 -1.617,1.078 -4.094,-0.203 -5.758,-1.297 l -0.188,-0.148 c -0.602,0.789 -1.203,3.328 -1.023,6.625 l 0.172,-0.086 c 10.625,-6.18 15.102,-12.523 15.102,-12.523 2.594,-3.75 5.281,-11.633 8.406,-12.875 -0.258,0.102 3.094,-2.781 5.133,1.141 0.523,1.008 -0.438,4.625 0.508,5.242 2.094,1.359 4.359,0.086 5.969,-1.578 1.852,-1.906 3.25,-4.289 5.039,-6.297 2.148,-2.406 4,-4.086 7.117,-5.32 0,0 5.422,-1.969 5.547,-1.563 0,0 2.508,-0.109 2.406,1.148 -0.109,1.195 -1.156,1.578 -0.219,2.836 0.914,1.195 7.328,-1.789 10.68,-6.813 3.352,-5.031 11.938,-10.578 17.797,-9.32 0,0 2.828,0.313 6.391,3.664 0,0 0.938,1.992 -0.117,2.211 0,0 -1.984,0.727 -2.719,2.609 -2.328,5.984 6.297,2.953 9.211,1.781 0,0 5.656,-3.086 7.961,-3.664 2.297,-0.578 5.797,-1.094 7.43,0.727 1.625,1.836 9.461,0.844 10.313,0.367 0.836,-0.461 4.188,-1.461 3.82,2.781 -0.813,9.383 -10.133,12.938 -18,14.648 -13.508,2.93 -30.602,8.18 -16.328,12.867 7.625,2.523 3.961,5.141 3.445,5.563 -0.273,0.211 -3.641,1.992 -8.422,3.133 h -15.32 c -1.922,-0.586 -12.273,-3.641 -13.414,-0.828 -0.109,0.266 -0.172,0.539 -0.195,0.828 H 257.57"
   id="path2898"
   style="fill:#bd9705" />

					<path
   d="m 357.68,626.718 c 2.539,-3.219 4.773,-4.844 6.375,-4.383 1.867,0.547 1.883,2.398 2.008,4.383 h -8.383"
   id="path2900"
   style="fill:#bd9705" />

					<path
   d="m 389.875,541.772 c 2.047,-2.367 1.203,-6.047 2.406,-8.844 1.273,-2.961 5.023,-3.234 7.75,-4.633 1.578,-0.789 3.18,-1.984 3.75,-3.609 0,0 1.188,-2.313 1.766,-4.492 2.781,-10.484 -0.453,-13.32 6.773,-19.281 5.203,-4.289 10.969,-8.734 12.023,-15.836 0.461,-3.086 4.297,-5.32 6.352,-3.617 0.977,0.797 -0.336,3.844 1.547,4.93 0.75,0.438 2.063,0.516 2.734,0.039 0,0 2.578,-1.969 4,-4.344 1.93,-3.133 2.453,-7.086 5.773,-9.336 2.531,-1.695 5.852,-2.172 8.07,-0.797 1.125,0.695 1.188,3.352 -0.016,4.953 -5.188,6.898 -9.813,14.313 -9.055,22.867 0.063,0.625 0.344,1.68 1.055,2.07 1.414,0.781 3.391,-1.578 4.781,-0.742 1.602,0.961 1.148,3.359 0.25,4.523 -2.305,2.984 -6.484,3.547 -8.898,6.422 -2.156,2.547 -1.75,4.984 -1.422,6.5 0.375,1.758 3.172,0.164 3.734,1.352 0,0 3.203,1.539 -0.297,11.5 l -0.039,-0.242 c -0.852,4.602 -11.18,10.016 -10.672,9.719 -1.555,0.93 -3.789,2.563 -4.922,4.367 0,0 -2.539,4.648 0.266,5.664 2.797,1.008 2.664,2.68 2.656,3 l -0.023,-0.344 c 1.234,4.133 -3.422,6.031 -6.133,8.219 -3.188,2.586 -7.531,3.281 -11.891,4.117 -8.414,1.594 -12,6.773 -17.531,8.672 0,0 -1.953,1.195 -8.688,3.117 -7.625,2.18 -15.258,2.758 -23.266,3.695 -6.227,0.727 -15.031,-1.266 -20.828,-3.031 l 1.164,-0.914 c 3.875,0.625 11.375,0.883 14.656,-0.891 6.008,-3.234 7.523,-5.156 11.195,-10.805 1.156,-1.789 3.453,-7.633 4.633,-9.453 2.836,-4.453 7.234,-6.672 11.789,-9.086"
   id="path2902"
   style="fill:#bd9705" />

					<path
   d="m 385.32,547.202 c 0,0 3.695,-2.625 4.93,-6.039"
   id="path2904"
   style="fill:#bd9705" />

					<path
   d="m 356.984,292.851 c -4.695,-2.891 -8.094,-8.359 -13.258,-9.961 -4.852,-1.516 -9.719,-1.07 -14.734,-2.359 -0.586,-0.164 -1.688,-0.563 -2.164,-1.422 -2.164,-3.906 -3.664,-8.648 -7.781,-10.172 -3.492,-1.297 -7.664,0.055 -11.367,1.477 -2.203,0.852 -4.844,0.672 -7,-0.734 -3.07,-2.023 -5,-6.133 -8.5,-5.758 -7.43,0.805 -16.398,4.383 -21.875,-2.688 -2.688,-3.469 -3.297,-8.445 0.922,-11.531 0.664,-0.484 0.375,-2.469 -0.375,-2.914 -3.648,-2.125 -7.539,-3.25 -11.164,-5.516 -2.906,-1.828 -5.297,-3.625 -5.969,-6.984 -1.086,-5.445 -0.211,-14.602 -0.43,-11.984 l 1.313,-4.578 c 1.648,-1.953 3.281,-3.523 5.75,-2.734 3.57,1.141 3.859,5.25 5.305,8.227 0.906,1.836 2.727,3.328 4.57,4.094 1.781,0.734 3.609,-0.719 5.477,-1.203 3.898,-1.016 7.914,4.938 11.805,3.602 1.422,-0.484 1.023,-5.469 2.227,-6.141 1.688,-0.945 3.977,0.141 5.641,1.195 5.641,3.57 9.836,7.406 15.453,11.055 2.32,1.508 7.188,-0.453 7.414,-3.922 0,0 1.086,-2.188 3.047,-1.969 0,0 5.227,2.617 6.531,4.797 0.469,0.773 2.617,1.961 11.336,19.609 8.719,17.656 7.188,21.359 14.164,30.953 l 3.703,3.922 -0.041,3.639"
   id="path2906"
   style="fill:#bd9705" />

					<path
   d="m 414.953,492.241 c 3.063,-1.938 7.797,-9.727 10.727,-11.898 3.203,-2.383 1.281,-0.414 4.578,-2.836 2.117,-1.57 6.867,-0.406 8.719,-2.406 0.539,-0.57 2.398,-2.484 2.609,-3.258 1.156,-4.32 3.633,-4.219 6.977,-7.195 1.961,-1.742 7.414,-8.063 7.414,-8.063 2.711,-4.461 -0.344,-8.648 2.383,-13.094 1.859,-3.008 2.109,-3.875 4.594,-6.742 3.367,-3.891 -1.055,-9.945 -5.453,-10.523 -0.664,-0.094 -0.508,-1.102 -0.5,-1.289 0.711,-9.992 4.633,-19.359 3.391,-29.813 -0.297,-2.469 -1.938,-4.125 -3.125,-6.266 -0.75,-1.344 -2.359,-1.703 -3.57,-1.906 -1.227,-0.203 -2.328,0.047 -3.57,1 -0.242,0.195 -0.977,0.094 -1.086,-0.109 -3.531,-7.469 1.898,-14.797 -0.469,-22.008 -0.383,-1.156 -1.789,-2.578 -3.313,-2.016 -1.875,0.68 -4.516,2.281 -5.398,0.008 -0.914,-2.359 -0.008,-5.086 -0.477,-7.539 -0.32,-1.695 -0.734,-3.5 -1.914,-5.18 -3.227,-4.602 -0.945,-10.711 -2.461,-15.563 -0.727,-2.352 -3.992,-0.117 -5.438,1.445 -0.25,0.273 -2.805,6.477 -2.805,6.477 -1.656,4.063 -0.109,7.953 -4.75,10.422 0,0 -4.273,2.5 -0.523,17.07 1.531,5.977 -5.758,10.188 -3.656,16.539 0.945,2.883 3.352,6.188 3.875,9 0.773,4.117 -0.203,8.328 0.094,12.617 0.211,3.281 2.766,5.828 3.789,8.992 0.359,1.117 0.32,2.336 0.313,3.453 -0.047,7.469 -5.023,14.063 -2.711,21.836 0.57,1.938 1.82,3.672 2.07,5.398 0.781,5.57 -1.938,11.141 -4.617,16.219 -3.031,5.727 1.031,13.242 -2.164,19.391 -1.109,2.117 -4.141,5.523 -4.141,5.523 l 0.608,2.314"
   id="path2908"
   style="fill:#bd9705" />

					<path
   d="m 416.523,378.569 c 0.016,0.211 -2.398,-0.664 -2.398,-0.664 -1.094,-8.281 -2.828,-10.891 -2.828,-10.891 -3.617,-4.625 -5.102,-8.43 -8.414,-13.273 -0.633,-0.922 -1.695,-1.711 -1.82,-2.922 -0.461,-5.258 -0.695,-10.211 -4.68,-13.906 -3.727,-3.461 -8.164,-5.516 -10.766,-9.758 -2.867,-4.688 -1.914,-10.859 -6.203,-14.445 -5.891,-4.914 -12.781,-7.211 -19.227,-11.008 -0.602,-0.352 -1.305,-1.648 -1.656,-2.203 -2.25,-3.594 0.898,-6.766 3.109,-9.828 1.18,-1.633 0.93,-4.375 -0.836,-5.461 -1.461,-0.898 -3.992,-0.836 -4.367,-2.805 -0.344,-1.859 1.305,-3.414 2.633,-4.758 0.977,-0.984 0.914,-3.531 -0.203,-3.938 -4.453,-1.641 -10.742,-1.695 -12.281,-6.477 -0.805,-2.492 -0.297,-5.781 0.891,-8.219 1.188,-2.438 4.477,-2.922 7.305,-2.102 6.656,1.906 12.492,4.992 16.023,11.531 0.258,0.492 1.484,1.164 2.063,0.656 0.797,-0.688 1.367,-1.297 1.891,-1.867 4.063,-4.359 10.047,1.195 13.664,4.492 4.5,4.078 6.633,9.539 10.391,14.039 1.039,1.258 2.984,-1.469 4.805,-1.742 1.273,-0.188 2.883,0.297 3.758,1.227 4.797,5.086 5.914,11.93 9.172,18.141 0.492,0.953 5.492,0.195 7.164,1.641 2.211,1.891 2.914,8.359 2.188,10.891 -3.117,10.797 0.195,14.867 -3.047,24.633 -0.002,10e-4 -7.635,17.43 -6.331,39.016"
   id="path2910"
   style="fill:#bd9705" />

					<path
   d="m 82.422,314.491 c 0.313,-0.875 0.305,-3.422 0.531,-4.211 1.719,-6.375 1.328,-13.484 6.008,-18.297 0.695,-0.719 2.586,-0.461 3.961,-0.125 2.141,0.523 3.586,2.43 5.586,3.078 0.305,0.102 1.234,-0.039 1.508,-0.336 2.945,-3.336 3.281,-7.734 4.945,-11.664 2.133,-5.008 6.016,-8.828 10.461,-12.242 1.75,-1.344 4.258,-2.211 5.641,-0.359 0.359,0.484 1.758,2.906 1.461,3.836 0,0 0.219,2.836 2.398,1.086 0.32,-1.844 2.648,-5.32 3.75,-6.602 1.211,-1.406 1.938,-3.211 3.898,-4.234 0,0 5.859,-2.234 7.391,-2.234 2.461,0 6.273,0.125 8.289,1.766 1.633,1.32 1.633,3.555 1.148,5.32 -1.055,3.883 -4.984,0.789 -7.781,1.852 -0.508,0.203 -0.648,1.141 -0.695,1.609 -0.375,3.484 2.438,6.539 1.391,10.102 -0.906,3.023 -3.734,4.094 -5.789,6.391 -2.461,2.75 -3.328,6.5 -1.414,9.516 0,0 4.672,6.547 2.148,11.156 -0.977,1.781 -2.641,3.141 -4.273,4 -3.68,1.906 -8.055,2.172 -11.117,5.086 -3.125,2.961 -1.258,8.227 -3.875,11.406 -3.773,4.594 -9.078,7.344 -12.945,11.914 -3.516,4.164 -0.57,10.242 -3.102,14.828 -1.93,3.5 -5.328,4.672 -7.961,7.922 0,0 -1.531,6.102 -0.234,11.328 l -2.602,2.398 c -1.758,-4.797 -0.445,-20.484 -7.422,-34.219 -6.969,-13.727 -7.836,-24.844 -7.836,-24.844 0.094,-2.07 -0.539,-4.414 1.961,-5.008 0,0 3.484,2.836 4.57,-0.219"
   id="path2912"
   style="fill:#bd9705" />

					<path
   d="m 149.109,295.741 c 4.148,-8.492 7.414,-9.578 7.414,-9.578 4.297,-2.328 10.328,-1.242 15.047,-1.75 1.648,-0.172 3.773,-1.188 5.008,-2.398 3.367,-3.313 2.711,-8.125 7.742,-9.164 4.609,-0.953 10.477,0.789 14.922,-0.203 3.797,-0.859 4.344,-4.906 5.469,-8.773 0.352,-1.195 3.211,-1.805 4.125,-1.906 8.438,-0.938 16.391,5.648 24.617,1.742 2.148,-1.016 3.57,-3.305 4.797,-5.883 1.375,-2.891 0.234,-8.266 -3.492,-8.727 -0.75,-0.086 -0.461,-2.555 -0.211,-2.828 2.672,-2.844 8.578,-3.031 11.117,-6.094 2.578,-3.125 4.023,-4.195 5.438,-7.852 1.266,-3.273 1.461,-8.023 0.883,-11.555 -0.453,-2.758 -3.633,-4.766 -6.383,-5.492 -1.313,-0.336 -2.148,0.938 -2.781,1.734 -2.992,3.688 -3.602,9.508 -9.039,10.453 -3.289,0.578 -5.758,-2.57 -8.836,-1.57 -1.539,0.5 -2.836,1.719 -4.328,2.258 -2.313,0.82 -2.766,-3.258 -4.813,-3.453 -8.336,-0.797 -16.82,5 -21.492,12.391 -0.5,0.805 -1.563,1.492 -2.43,1.602 -2.078,0.273 -4.156,0.258 -6.406,-0.32 -5.219,-1.352 -10.414,0.992 -14.945,3.391 -6.695,3.547 -10.242,10.688 -12.219,18.211 -0.367,1.398 -1.219,3.383 -2.234,4.391 -1.75,1.75 -4.969,1.234 -5.438,3.922 -1.133,6.516 0.258,12.984 -1.875,19.078 -0.883,2.547 -3.211,6.953 -4.227,9.688 l 4.57,-1.315"
   id="path2914"
   style="fill:#bd9705" />

					<path
   d="m 92.891,488.843 c -4.711,-3.805 -13.063,-6.344 -18.078,-10.055 -2.219,-1.617 -5.508,-1.633 -7.648,-3.383 -1.422,-1.148 -2.188,-3.219 -3.445,-4.703 -5.016,-5.906 -11.336,-10.023 -15.797,-16.305 -2.266,-3.172 -1.156,-7.453 -2.961,-11.109 -1.656,-3.359 -3.109,-6.305 -4.93,-9.523 -1.742,-3.086 -2.844,-6.477 -3.25,-10.055 0,0 -0.555,-8.75 6.852,-2.867 0,0 1.313,-0.875 0.43,-4.352 -0.867,-3.492 -1.914,-14.227 -1.828,-14.852 0.523,-3.586 -0.203,-7.375 1.258,-10.648 1.82,-4.102 6,-6.953 10.477,-8.172 1.156,-0.32 2.156,-1.492 1.648,-2.734 -2.398,-5.844 -3.305,-13.07 -1.414,-18.859 0.578,-1.781 1.594,-3.586 3.391,-3.938 1.75,-0.352 2.93,1.961 4.602,2.844 0.75,0.414 1.625,-0.555 2.008,-0.984 2.141,-2.414 1.25,-6.422 3.789,-8.406 0.789,-0.609 1.742,-1.531 1.914,-2.078 1.406,-4.586 -1.016,-9.906 1.508,-13.945 0.492,-0.789 2.766,-0.836 4.188,0.461 0.836,0.773 1.609,1.773 1.891,2.539 2,5.602 4.047,10.539 6.727,16.117 0.883,1.859 1.219,3.734 1.164,5.664 -0.133,4.938 -2.258,9.695 -1.016,14.57 0.938,3.633 3.18,6.813 4.055,10.469 0.633,2.594 0.164,5.313 -0.797,7.82 -1.211,3.148 -3.648,5.188 -5.805,7.789 -0.859,1.047 -1.219,3.148 -0.602,4.203 2.188,3.727 5.258,7.617 1.992,11.32 -2.219,2.523 -5.359,4.383 -4.5,7.914 0.672,2.766 3.805,4.43 4.445,7.172 0.406,1.789 0.102,4.086 -0.859,5.602 -1.336,2.102 -1.445,4.359 -2.25,6.586 -0.391,1.125 -1.102,2.305 -0.367,3.75 1.547,2.984 3.445,5.648 3.914,8.695 0.695,4.508 -1.438,8.859 -1.367,13.672 0.031,2.484 0.461,4.742 0.641,7.195 0.063,0.828 1.32,1.5 2.055,2.336 0,0 4.914,4.586 5.781,4.586 0.879,0 2.184,5.664 2.184,5.664"
   id="path2916"
   style="fill:#bd9705" />

					<path
   d="m 161.32,577.757 c -6.32,1.531 -8.305,1.219 -8.305,1.219 -6.523,0.664 -13.539,-0.445 -20.023,0.742 -8.117,1.508 -15.867,-1.75 -22.742,-6.227 -5.32,-3.461 -11.727,-1.672 -17.102,-4.164 -6.5,-3 -10.922,-6.172 -13.547,-12.93 -0.453,-1.156 -0.195,-6.055 0.617,-6.828 1.453,-1.383 2.797,-2.547 2.305,-4.484 -0.438,-1.695 -1.172,-3.477 -2.688,-4.531 -6.727,-4.672 -13.219,-9.828 -16.016,-17.484 -0.961,-2.641 1.539,-3.797 4.102,-5.031 2.711,-1.305 -4.539,-5.266 -4.539,-5.266 -2.898,-3.031 -6.492,-5.734 -7.492,-9.695 -0.633,-2.539 -0.539,-6.297 1.789,-7.711 2.328,-1.422 7.906,0.133 6.648,-4.008 -1.523,-5.031 -5.57,-8.852 -8.742,-13.273 -0.922,-1.281 -0.805,-4.063 0.898,-4.539 1.617,-0.461 3.719,-0.148 5.227,0.656 2.57,1.352 4.563,3.703 7.086,5.172 3.297,1.938 7.438,1.797 10.781,3.5 1.75,0.883 3.484,2.258 4.5,4.195 1.93,3.688 3.266,7.016 5.664,10.242 1.844,2.453 5.039,3.266 7.008,5.453 2.07,2.305 3.688,4.938 4.594,8.227 0.898,3.25 0.477,6.508 1.469,9.578 0.5,1.531 0.641,3.336 1.922,4.391 3.57,2.938 7.828,4.875 9.422,9.094 2.219,5.883 2.867,12.445 7.969,16.734 3.914,3.297 8.367,4.891 12.164,8.313 4.164,3.773 5.391,9.641 9.375,13.43 0,0 6.977,2.617 11.336,2.617 l 6.32,2.608"
   id="path2918"
   style="fill:#bd9705" />

					<path
   d="m 253.766,596.874 c 90.133,0 163.195,-73.07 163.195,-163.195 0,-90.117 -73.063,-163.188 -163.195,-163.188 -90.117,0 -163.18,73.07 -163.18,163.188 0,90.125 73.062,163.195 163.18,163.195"
   id="path2920"
   style="fill:#ffe91f" />

					<path
   id="path2922"
   style="fill:#ffe91f"
   d="" />

					<path
   d="m 253.766,534.101 c 55.469,0 100.43,-44.953 100.43,-100.422 0,-55.453 -44.961,-100.422 -100.43,-100.422 -55.453,0 -100.422,44.969 -100.422,100.422 0,55.468 44.969,100.422 100.422,100.422"
   id="path2924"
   style="fill:#bd9705" />

					<path
   id="path2926"
   style="fill:#bd9705"
   d="" />

					<path
   d="m 253.766,530.343 c 53.391,0 96.656,-43.281 96.656,-96.664 0,-53.383 -43.266,-96.656 -96.656,-96.656 -53.383,0 -96.656,43.273 -96.656,96.656 0,53.383 43.273,96.664 96.656,96.664"
   id="path2928"
   style="fill:#0067b1" />

					<path
   id="path2930"
   style="fill:#00aeef"
   d="" />

					<path
   d="m 219.289,474.671 0.016,-13.797 h 12.281 c 0.102,-24.953 -30.625,-19.602 -21.734,1.406 -5.742,1.984 -13.875,-2.648 -15.398,-3.727 -1.531,-1.102 -7.531,-7.172 -7.633,-15.266 -0.219,-17 8.5,-23.094 8.5,-23.094 2.563,-3.664 15.906,-8.07 27.898,-0.227 11.984,7.852 14.602,18.531 15.828,41 h 7.195 c 0,-0.102 0.078,-7.875 -0.359,-16.367 -0.391,-7.625 -8.938,-25.711 -12.43,-37.703 -3.477,-11.992 -8.273,-35.305 18.961,-63.203 27.242,27.898 22.453,51.211 18.961,63.203 -3.484,11.992 -12.031,30.078 -12.422,37.703 -0.43,8.492 -0.328,16.266 -0.328,16.367 h 7.156 c 1.234,-22.469 3.852,-33.148 15.844,-41 11.984,-7.844 25.328,-3.438 27.891,0.227 0,0 8.727,6.094 8.5,23.094 -0.102,8.094 -6.094,14.164 -7.633,15.266 -1.523,1.078 -9.672,5.711 -15.398,3.727 8.898,-21.008 -21.648,-26.289 -21.531,-1.336 l 0.367,-0.023 h 11.703 l 0.023,13.75 h -26.164 c 1.867,15.148 8.836,16.891 11.563,19.398 -1.094,5.57 -6.625,6.844 -11.328,7.844 1.57,6.164 -2.883,11.375 -6.984,15.258 h -0.438 c -4.102,-3.883 -8.547,-9.094 -6.969,-15.258 -4.711,-1 -10.234,-2.273 -11.336,-7.844 2.727,-2.508 9.703,-4.25 11.547,-19.398 h -26.149"
   id="path2932"
   style="fill:#ffffff" />

					<path
   id="path2934"
   style="fill:none;stroke:#000000;stroke-width:0.255891"
   transform="matrix(1.0082417,0,0,1.0082417,-1.0360571,212.51023)"
   d="m 59.498047,146.30664 c -0.157405,2.37566 0.287396,4.6006 1.021484,6.75391 -0.14916,5.2214 2.203301,9.82263 5.34961,14.24609 l -3.957032,-10.99023 c 0.849921,1.64928 1.811643,3.27111 2.939453,4.85351 z m 5.353515,14.86328 2.433594,6.75391 c 0.457232,-2.68091 -1.052133,-4.81114 -2.423828,-6.74024 -0.0033,-0.005 -0.0065,-0.009 -0.0098,-0.0137 z m 1.017579,6.13672 2.43164,6.75586 c 0.464175,-2.67297 -1.038339,-4.80527 -2.417969,-6.73438 -0.005,-0.007 -0.0087,-0.0145 -0.01367,-0.0215 z M 375.94531,418.88086 279.9707,436.59375 c 4.62588,2.81282 9.90267,4.1217 15.14844,4.46289 5.72581,0.37987 11.25892,1.65089 17.2793,0.34961 5.32313,-1.15449 10.35163,-0.78336 15.55078,-2.23242 3.36328,-0.95315 6.58787,-1.72743 9.88867,-2.75 7.05882,-2.17706 12.84694,-6.65694 19.9375,-8.89649 5.22295,-1.63452 10.25234,-3.19983 14.98633,-5.88867 1.09993,-0.63576 2.82753,-1.09254 3.18359,-2.75781 z" />

					<path
   d="m 253.766,600.788 c 92.297,0 167.117,-74.813 167.117,-167.109 0,-92.289 -74.82,-167.109 -167.117,-167.109 -92.281,0 -167.109,74.82 -167.109,167.109 -10e-4,92.297 74.827,167.109 167.109,167.109 z"
   id="path2936"
   style="fill:none;stroke:#000000;stroke-width:0.344" />

					<path
   id="path2938"
   style="fill:none;stroke:#000000;stroke-width:0.193"
   d="" />

					<path
   d="m 253.766,596.874 c 90.133,0 163.195,-73.07 163.195,-163.195 0,-90.117 -73.063,-163.188 -163.195,-163.188 -90.117,0 -163.18,73.07 -163.18,163.188 0,90.125 73.062,163.195 163.18,163.195 z"
   id="path2940"
   style="fill:none;stroke:#000000;stroke-width:0.344" />

					<path
   id="path2942"
   style="fill:none;stroke:#000000;stroke-width:0.193"
   d="" />

					<path
   d="m 253.766,534.101 c 55.469,0 100.43,-44.953 100.43,-100.422 0,-55.453 -44.961,-100.422 -100.43,-100.422 -55.453,0 -100.422,44.969 -100.422,100.422 0,55.468 44.969,100.422 100.422,100.422 z"
   id="path2944"
   style="fill:none;stroke:#000000;stroke-width:0.344" />

					<path
   id="path2946"
   style="fill:none;stroke:#000000;stroke-width:0.193"
   d="" />

					<path
   d="m 253.766,530.343 c 53.391,0 96.656,-43.281 96.656,-96.664 0,-53.383 -43.266,-96.656 -96.656,-96.656 -53.383,0 -96.656,43.273 -96.656,96.656 0,53.383 43.273,96.664 96.656,96.664 z"
   id="path2948"
   style="fill:none;stroke:#000000;stroke-width:0.344" />

					<path
   id="path2950"
   style="fill:none;stroke:#000000;stroke-width:0.193"
   d="" />

					<path
   d="m 161.32,577.757 c -6.32,1.531 -8.305,1.219 -8.305,1.219 -6.523,0.664 -13.539,-0.445 -20.023,0.742 -8.117,1.508 -15.867,-1.75 -22.742,-6.227 -5.32,-3.461 -11.727,-1.672 -17.102,-4.164 -6.5,-3 -10.922,-6.172 -13.547,-12.93 -0.453,-1.156 -0.195,-6.055 0.617,-6.828 1.453,-1.383 2.797,-2.547 2.305,-4.484 -0.438,-1.695 -1.172,-3.477 -2.688,-4.531 -6.727,-4.672 -13.219,-9.828 -16.016,-17.484 -0.961,-2.641 1.539,-3.797 4.102,-5.031 2.711,-1.305 -4.539,-5.266 -4.539,-5.266 -2.898,-3.031 -6.492,-5.734 -7.492,-9.695 -0.633,-2.539 -0.539,-6.297 1.789,-7.711 2.328,-1.422 7.906,0.133 6.648,-4.008 -1.523,-5.031 -5.57,-8.852 -8.742,-13.273 -0.922,-1.281 -0.805,-4.063 0.898,-4.539 1.617,-0.461 3.719,-0.148 5.227,0.656 2.57,1.352 4.563,3.703 7.086,5.172 3.297,1.938 7.438,1.797 10.781,3.5 1.75,0.883 3.484,2.258 4.5,4.195 1.93,3.688 3.266,7.016 5.664,10.242 1.844,2.453 5.039,3.266 7.008,5.453 2.07,2.305 3.688,4.938 4.594,8.227 0.898,3.25 0.477,6.508 1.469,9.578 0.5,1.531 0.641,3.336 1.922,4.391 3.57,2.938 7.828,4.875 9.422,9.094 2.219,5.883 2.867,12.445 7.969,16.734 3.914,3.297 8.367,4.891 12.164,8.313 4.164,3.773 5.391,9.641 9.375,13.43 0,0 6.977,2.617 11.336,2.617 z M 92.891,488.843 c -4.711,-3.805 -13.063,-6.344 -18.078,-10.055 -2.219,-1.617 -5.508,-1.633 -7.648,-3.383 -1.422,-1.148 -2.188,-3.219 -3.445,-4.703 -5.016,-5.906 -11.336,-10.023 -15.797,-16.305 -2.266,-3.172 -1.156,-7.453 -2.961,-11.109 -1.656,-3.359 -3.109,-6.305 -4.93,-9.523 -1.742,-3.086 -2.844,-6.477 -3.25,-10.055 0,0 -0.555,-8.75 6.852,-2.867 0,0 1.313,-0.875 0.43,-4.352 -0.867,-3.492 -1.914,-14.227 -1.828,-14.852 0.523,-3.586 -0.203,-7.375 1.258,-10.648 1.82,-4.102 6,-6.953 10.477,-8.172 1.156,-0.32 2.156,-1.492 1.648,-2.734 -2.398,-5.844 -3.305,-13.07 -1.414,-18.859 0.578,-1.781 1.594,-3.586 3.391,-3.938 1.75,-0.352 2.93,1.961 4.602,2.844 0.75,0.414 1.625,-0.555 2.008,-0.984 2.141,-2.414 1.25,-6.422 3.789,-8.406 0.789,-0.609 1.742,-1.531 1.914,-2.078 1.406,-4.586 -1.016,-9.906 1.508,-13.945 0.492,-0.789 2.766,-0.836 4.188,0.461 0.836,0.773 1.609,1.773 1.891,2.539 2,5.602 4.047,10.539 6.727,16.117 0.883,1.859 1.219,3.734 1.164,5.664 -0.133,4.938 -2.258,9.695 -1.016,14.57 0.938,3.633 3.18,6.813 4.055,10.469 0.633,2.594 0.164,5.313 -0.797,7.82 -1.211,3.148 -3.648,5.188 -5.805,7.789 -0.859,1.047 -1.219,3.148 -0.602,4.203 2.188,3.727 5.258,7.617 1.992,11.32 -2.219,2.523 -5.359,4.383 -4.5,7.914 0.672,2.766 3.805,4.43 4.445,7.172 0.406,1.789 0.102,4.086 -0.859,5.602 -1.336,2.102 -1.445,4.359 -2.25,6.586 -0.391,1.125 -1.102,2.305 -0.367,3.75 1.547,2.984 3.445,5.648 3.914,8.695 0.695,4.508 -1.438,8.859 -1.367,13.672 0.031,2.484 0.461,4.742 0.641,7.195 0.063,0.828 1.32,1.5 2.055,2.336 0,0 4.914,4.586 5.781,4.586 0.879,0 2.184,5.664 2.184,5.664 z M 416.523,378.569 c 0.016,0.211 -2.398,-0.664 -2.398,-0.664 -1.094,-8.281 -2.828,-10.891 -2.828,-10.891 -3.617,-4.625 -5.102,-8.43 -8.414,-13.273 -0.633,-0.922 -1.695,-1.711 -1.82,-2.922 -0.461,-5.258 -0.695,-10.211 -4.68,-13.906 -3.727,-3.461 -8.164,-5.516 -10.766,-9.758 -2.867,-4.688 -1.914,-10.859 -6.203,-14.445 -5.891,-4.914 -12.781,-7.211 -19.227,-11.008 -0.602,-0.352 -1.305,-1.648 -1.656,-2.203 -2.25,-3.594 0.898,-6.766 3.109,-9.828 1.18,-1.633 0.93,-4.375 -0.836,-5.461 -1.461,-0.898 -3.992,-0.836 -4.367,-2.805 -0.344,-1.859 1.305,-3.414 2.633,-4.758 0.977,-0.984 0.914,-3.531 -0.203,-3.938 -4.453,-1.641 -10.742,-1.695 -12.281,-6.477 -0.805,-2.492 -0.297,-5.781 0.891,-8.219 1.188,-2.438 4.477,-2.922 7.305,-2.102 6.656,1.906 12.492,4.992 16.023,11.531 0.258,0.492 1.484,1.164 2.063,0.656 0.797,-0.688 1.367,-1.297 1.891,-1.867 4.063,-4.359 10.047,1.195 13.664,4.492 4.5,4.078 6.633,9.539 10.391,14.039 1.039,1.258 2.984,-1.469 4.805,-1.742 1.273,-0.188 2.883,0.297 3.758,1.227 4.797,5.086 5.914,11.93 9.172,18.141 0.492,0.953 5.492,0.195 7.164,1.641 2.211,1.891 2.914,8.359 2.188,10.891 -3.117,10.797 0.195,14.867 -3.047,24.633 -0.002,10e-4 -7.635,17.43 -6.331,39.016 z m -1.57,113.672 c 3.063,-1.938 7.797,-9.727 10.727,-11.898 3.203,-2.383 1.281,-0.414 4.578,-2.836 2.117,-1.57 6.867,-0.406 8.719,-2.406 0.539,-0.57 2.398,-2.484 2.609,-3.258 1.156,-4.32 3.633,-4.219 6.977,-7.195 1.961,-1.742 7.414,-8.063 7.414,-8.063 2.711,-4.461 -0.344,-8.648 2.383,-13.094 1.859,-3.008 2.109,-3.875 4.594,-6.742 3.367,-3.891 -1.055,-9.945 -5.453,-10.523 -0.664,-0.094 -0.508,-1.102 -0.5,-1.289 0.711,-9.992 4.633,-19.359 3.391,-29.813 -0.297,-2.469 -1.938,-4.125 -3.125,-6.266 -0.75,-1.344 -2.359,-1.703 -3.57,-1.906 -1.227,-0.203 -2.328,0.047 -3.57,1 -0.242,0.195 -0.977,0.094 -1.086,-0.109 -3.531,-7.469 1.898,-14.797 -0.469,-22.008 -0.383,-1.156 -1.789,-2.578 -3.313,-2.016 -1.875,0.68 -4.516,2.281 -5.398,0.008 -0.914,-2.359 -0.008,-5.086 -0.477,-7.539 -0.32,-1.695 -0.734,-3.5 -1.914,-5.18 -3.227,-4.602 -0.945,-10.711 -2.461,-15.563 -0.727,-2.352 -3.992,-0.117 -5.438,1.445 -0.25,0.273 -2.805,6.477 -2.805,6.477 -1.656,4.063 -0.109,7.953 -4.75,10.422 0,0 -4.273,2.5 -0.523,17.07 1.531,5.977 -5.758,10.188 -3.656,16.539 0.945,2.883 3.352,6.188 3.875,9 0.773,4.117 -0.203,8.328 0.094,12.617 0.211,3.281 2.766,5.828 3.789,8.992 0.359,1.117 0.32,2.336 0.313,3.453 -0.047,7.469 -5.023,14.063 -2.711,21.836 0.57,1.938 1.82,3.672 2.07,5.398 0.781,5.57 -1.938,11.141 -4.617,16.219 -3.031,5.727 1.031,13.242 -2.164,19.391 -1.109,2.117 -4.141,5.523 -4.141,5.523 z M 82.422,314.491 c 0.313,-0.875 0.305,-3.422 0.531,-4.211 1.719,-6.375 1.328,-13.484 6.008,-18.297 0.695,-0.719 2.586,-0.461 3.961,-0.125 2.141,0.523 3.586,2.43 5.586,3.078 0.305,0.102 1.234,-0.039 1.508,-0.336 2.945,-3.336 3.281,-7.734 4.945,-11.664 2.133,-5.008 6.016,-8.828 10.461,-12.242 1.75,-1.344 4.258,-2.211 5.641,-0.359 0.359,0.484 1.758,2.906 1.461,3.836 0,0 0.219,2.836 2.398,1.086 0.32,-1.844 2.648,-5.32 3.75,-6.602 1.211,-1.406 1.938,-3.211 3.898,-4.234 0,0 5.859,-2.234 7.391,-2.234 2.461,0 6.273,0.125 8.289,1.766 1.633,1.32 1.633,3.555 1.148,5.32 -1.055,3.883 -4.984,0.789 -7.781,1.852 -0.508,0.203 -0.648,1.141 -0.695,1.609 -0.375,3.484 2.438,6.539 1.391,10.102 -0.906,3.023 -3.734,4.094 -5.789,6.391 -2.461,2.75 -3.328,6.5 -1.414,9.516 0,0 4.672,6.547 2.148,11.156 -0.977,1.781 -2.641,3.141 -4.273,4 -3.68,1.906 -8.055,2.172 -11.117,5.086 -3.125,2.961 -1.258,8.227 -3.875,11.406 -3.773,4.594 -9.078,7.344 -12.945,11.914 -3.516,4.164 -0.57,10.242 -3.102,14.828 -1.93,3.5 -5.328,4.672 -7.961,7.922 0,0 -1.531,6.102 -0.234,11.328 l -2.602,2.398 c -1.758,-4.797 -0.445,-20.484 -7.422,-34.219 -6.969,-13.727 -7.836,-24.844 -7.836,-24.844 0.094,-2.07 -0.539,-4.414 1.961,-5.008 0,0 3.484,2.836 4.57,-0.219 z m 274.562,-21.64 c -4.695,-2.891 -8.094,-8.359 -13.258,-9.961 -4.852,-1.516 -9.719,-1.07 -14.734,-2.359 -0.586,-0.164 -1.688,-0.563 -2.164,-1.422 -2.164,-3.906 -3.664,-8.648 -7.781,-10.172 -3.492,-1.297 -7.664,0.055 -11.367,1.477 -2.203,0.852 -4.844,0.672 -7,-0.734 -3.07,-2.023 -5,-6.133 -8.5,-5.758 -7.43,0.805 -16.398,4.383 -21.875,-2.688 -2.688,-3.469 -3.297,-8.445 0.922,-11.531 0.664,-0.484 0.375,-2.469 -0.375,-2.914 -3.648,-2.125 -7.539,-3.25 -11.164,-5.516 -2.906,-1.828 -5.297,-3.625 -5.969,-6.984 -1.086,-5.445 -0.211,-14.602 -0.43,-11.984 l 1.313,-4.578 c 1.648,-1.953 3.281,-3.523 5.75,-2.734 3.57,1.141 3.859,5.25 5.305,8.227 0.906,1.836 2.727,3.328 4.57,4.094 1.781,0.734 3.609,-0.719 5.477,-1.203 3.898,-1.016 7.914,4.938 11.805,3.602 1.422,-0.484 1.023,-5.469 2.227,-6.141 1.688,-0.945 3.977,0.141 5.641,1.195 5.641,3.57 9.836,7.406 15.453,11.055 2.32,1.508 7.188,-0.453 7.414,-3.922 0,0 1.086,-2.188 3.047,-1.969 0,0 5.227,2.617 6.531,4.797 0.469,0.773 2.617,1.961 11.336,19.609 8.719,17.656 7.188,21.359 14.164,30.953 l 3.703,3.922 z"
   id="path2952"
   style="fill:none;stroke:#000000;stroke-width:0.516" />

					<path
   d="m 84.555,558.679 c 7.625,2.805 15.664,0.766 23.555,-1.195 1.266,-0.32 2.586,-0.109 3.906,-0.109 -0.125,0.422 0.133,0.656 0.438,0.875 M 69.727,524.249 c 4.883,6.539 13.633,5.992 20.414,9.313 0.82,0.406 1.984,0.891 2.188,2.031 0.047,0.266 -0.227,0.57 -0.367,0.852 M 61.453,504.632 c 1.031,1.375 2.594,2.258 4.016,2.828 5.695,2.313 13.969,1.734 17.344,7.633 m 24.515,16.351 c 1.648,4.57 0.359,9.25 0.984,13.945 0.336,2.641 1.609,4.703 2.945,6.984 M 94.141,508.562 c 0.922,7.977 -1.133,15.75 0.602,23.938 0.5,2.336 2.023,4.211 2.445,6.57 M 81.063,490.249 c 0.523,3.992 -0.961,7.813 -0.867,11.766 m 2.171,-45.328 c -1.945,4.695 -5.836,9.461 -3.914,14.82 M 53.172,455.382 c 2.414,4.234 8.633,4.016 13.023,5.383 0.734,0.227 1.383,0.914 2.227,1.148 M 41.398,428.788 c 1.992,6.633 6.711,11.648 12.727,15.109 4.539,2.609 9.758,5.07 10.813,10.609 M 79.75,433.155 c -1.563,4.172 -6.32,4.938 -9.906,7.141 -2.063,1.25 -4.148,3.164 -3.602,5.93 m 16.125,-34 c -0.672,2.477 -3.094,3.305 -4.914,4.07 -4.922,2.063 -11.984,2.914 -13.391,9.008 0.148,0 0.289,0 0.445,0 m 20.907,-34.875 c -0.352,2.273 -2.648,2.805 -4.094,3.609 -3.656,2.047 -7.734,2.328 -11.945,3.297 -1.672,0.383 -4.148,1.094 -4.438,3.563 m -17.429,-6.54 c -0.148,2.047 -0.023,4.047 0.484,6.078 1.516,5.992 6.188,8.953 9.766,13.68 1.164,1.531 1.734,3.516 1.945,5.523 m 22.664,-59.718 c -0.094,3.656 -4.586,4.813 -6.977,6.977 m 20.493,-29.204 c 2.719,-5.523 9,-5.227 14.352,-6.289 1.281,-0.25 2.453,-1.109 3.516,-2 M 102.414,313.28 c 1.133,-2.688 4.578,-2.461 7.008,-2.781 6.117,-0.797 12.164,0.109 18.258,-0.453 1.961,-0.18 3.742,-1.398 5.68,-1.992 m -52.297,14.383 c -0.313,2.141 1.141,3.828 2.281,5.594 3.039,4.688 7.523,7.602 9.492,12.711 M 91.961,298.03 c -0.703,5.898 1.047,11.055 4.492,16.32 1.031,1.555 0.977,3.852 0.734,5.906 m 20.493,-46.202 c -0.828,5.203 -0.672,10.484 -1.32,15.688 m 84.132,-36.173 c 1.164,0 2.461,-0.305 3.422,0.148 4.313,2.031 8.422,4.016 13.172,4.898 2.914,0.547 5.961,0.797 8.578,-0.117 2.414,-0.859 4.906,0.188 7.078,-1 m -57.523,8.712 c 5.789,-0.57 10.875,1.695 16.563,3.031 1.539,0.367 2.883,-0.461 4.344,-0.414 m -37.048,9.586 c 3.844,-1.852 8.398,-0.289 12.633,-0.945 0.633,-0.086 1.18,-0.508 1.766,-0.797 m 1.742,-32.695 c 0.383,1.953 -1.148,3.375 -1.594,5.156 -1.461,5.75 0.547,11.211 -1.023,16.641 m 41.406,-37.047 c -2.266,0.93 -2.328,3.453 -3.727,5.367 -2.156,2.93 -0.469,6.625 -1.5,9.883 m 214.883,115.078 c 0.141,0.922 0.555,1.805 1.016,2.523 2.398,3.727 7.461,5.617 7.43,10.547 -0.008,1.07 1.117,1.961 1.57,3.055 m -11.336,10.031 c 2.109,5.609 8.109,7.758 12.141,11.844 1.18,1.211 2.164,2.617 2.695,4.273 m -11.782,8.719 c -0.016,1.633 1.117,2.805 2.266,3.305 5.953,2.602 10.664,7.828 9.945,14.563 m -12.211,13.515 c 0,0.734 -0.188,1.539 0.109,2.133 1.172,2.414 2.844,4.477 3.836,7.016 1.055,2.695 0.242,5.719 1.719,8.297 m 18.313,-1.313 c -3.727,5.523 -10.828,5.391 -16.555,7.406 m 25.711,-31.383 c -2.313,2.961 -4.148,6.188 -6.664,9.039 -3.992,4.523 -10.617,2.078 -15.133,5.773 m 17.446,-55.351 c -1.547,7.305 -8.727,10.18 -12.93,16.234 -0.906,1.289 -1.383,2.773 -1.906,4.258 m 6.547,-44.469 c -2.383,3.148 -5.625,5.313 -8.055,8.461 -1.25,1.602 -1.648,3.82 -1.969,5.922 m -46.203,-60.14 c 3.648,2.766 9.203,0.727 12.203,4.359 m -37.492,-26.594 c 6.977,0.492 13.898,-1.422 20.859,0.297 2.75,0.672 5.469,1.641 7.922,3.195 m 28.539,11.11 c 1.523,9.367 -3.773,18.328 -8.539,26.602 -1.492,2.602 -1.148,6.141 -1.266,9.359 0,-0.141 0,-0.289 0,-0.43 m -8.273,-59.719 c 2.656,8.781 1.391,18.602 -0.883,27.461 m -22.671,-47.07 c 0.852,4.211 1.688,8.305 1.313,12.641 m -77.321,-17.586 c 0.594,0 1.219,0.133 1.727,-0.063 1.961,-0.773 3.461,-2.227 5.289,-3.344 2.586,-1.57 5.406,-1.484 8.25,-1.383 m -43.423,-5.96 c 1.164,0 2.383,0.219 3.445,-0.117 6.469,-2.023 12.18,-6.164 19.227,-5.547 m -22.234,6.531 c 1.164,0 2.375,0.227 3.445,-0.109 6.461,-2.031 12.18,-6.172 19.227,-5.555 m 25.281,-13.953 c 9.164,7.57 3.688,20.563 7.398,30.516 M 295.07,228.288 c 1.5,1.023 2.797,2.391 3.297,3.984 2.008,6.258 3.055,12.891 5.867,18.68 m 84.547,72.789 c 3.648,2.781 9.211,0.727 12.211,4.359 m -38.351,-26.578 c 6.977,0.477 13.883,-1.43 20.852,0.281 2.75,0.68 5.469,1.648 7.906,3.203 m 30.523,9.157 c 1.508,9.367 -2.695,18.539 -7.453,26.805 -1.492,2.609 -1.156,6.148 -1.266,9.367 0,-0.141 0,-0.289 0,-0.438 m -10.469,-61.015 c 2.656,8.781 1.391,18.602 -0.867,27.453 m -21.351,-45.766 c 0.828,4.219 1.672,8.313 1.305,12.641 m -59.282,-47.516 c 9.172,7.563 3.695,20.555 7.414,30.516 m -36.187,-38.797 c 1.492,1.023 2.789,2.391 3.297,3.984 2,6.258 3.063,12.891 5.859,18.68 m 0.43,17.875 c 0.594,0 1.219,0.133 1.719,-0.063 1.977,-0.773 3.469,-2.227 5.305,-3.344 2.578,-1.57 5.391,-1.492 8.242,-1.383 m -43.595,-5.663 c 1.164,0 2.383,0.219 3.461,-0.117 6.445,-2.031 12.172,-6.164 19.203,-5.555 m -138.164,27.461 c 3.828,-1.867 8.391,-0.289 12.633,-0.938 0.625,-0.102 1.164,-0.516 1.75,-0.805 m 4.36,-11.335 c 5.781,-0.57 10.891,1.695 16.57,3.031 1.523,0.367 2.875,-0.461 4.352,-0.414 m 4.796,-16.133 c 1.164,0 2.445,-0.305 3.406,0.156 4.313,2.039 8.43,4.016 13.188,4.891 2.906,0.547 5.969,0.805 8.578,-0.125 2.422,-0.852 4.891,0.203 7.086,-0.992 M 215.32,227.858 c -2.266,0.922 -2.328,3.445 -3.734,5.367 -2.156,2.93 -0.477,6.625 -1.508,9.875 m -34,-0.429 c 0.398,1.953 -1.125,3.375 -1.586,5.164 -1.461,5.742 0.547,11.195 -1.016,16.625 M 96.75,336.382 c 2.734,-5.516 9,-5.211 14.344,-6.281 1.289,-0.25 2.477,-1.109 3.531,-2 m -10.023,-16.555 c 1.109,-2.688 4.57,-2.484 7.008,-2.797 6.102,-0.789 12.141,0.117 18.258,-0.445 1.953,-0.188 3.742,-1.398 5.688,-1.992 m -54.493,13.945 c -0.313,2.141 1.141,3.82 2.281,5.602 3.039,4.688 7.523,7.586 9.492,12.703 m -0.445,-42.711 c -0.703,5.898 1.063,11.055 4.508,16.32 1.023,1.555 0.969,3.844 0.727,5.906 m 21.358,-45.336 c -0.828,5.211 -0.664,10.484 -1.305,15.695 M 81.938,455.382 c -1.938,4.688 -5.844,9.453 -3.93,14.82 m 2.617,-39.234 c -1.57,4.188 -6.32,4.953 -9.922,7.141 -2.039,1.258 -4.133,3.172 -3.594,5.938 m 15.704,-33.126 c -0.672,2.477 -3.109,3.305 -4.922,4.063 -4.922,2.063 -11.992,2.914 -13.383,9.008 0.141,0 0.289,0 0.43,0 m 21.789,-35.305 c -0.352,2.273 -2.648,2.805 -4.094,3.609 -3.656,2.047 -7.742,2.328 -11.953,3.297 -1.664,0.383 -4.141,1.102 -4.438,3.563 M 83.25,358.187 c -0.125,3.648 -4.594,4.805 -6.984,6.969 m -24.844,88.476 c 2.422,4.242 8.633,4.023 13.031,5.391 0.727,0.227 1.391,0.914 2.227,1.156 M 39.219,424.874 c 2,6.633 6.719,11.648 12.727,15.102 4.539,2.602 9.75,5.07 10.805,10.609 M 47.508,392.179 c -0.148,2.055 -0.023,4.055 0.484,6.086 1.516,5.984 6.188,8.953 9.766,13.68 1.164,1.523 1.734,3.508 1.945,5.508 m 389.242,41.851 c -3.734,5.531 -10.852,5.398 -16.57,7.406 m 25.719,-31.383 c -2.313,2.953 -4.141,6.195 -6.672,9.047 -3.984,4.516 -10.602,2.063 -15.117,5.781 m 18.734,-57.109 c -1.531,7.305 -8.719,10.18 -12.93,16.234 -0.891,1.289 -1.375,2.773 -1.883,4.258 m 6.532,-44.469 c -2.383,3.148 -5.633,5.313 -8.063,8.461 -1.242,1.602 -1.641,3.82 -1.961,5.922 m -10.89,56.664 c 0,0.742 -0.195,1.547 0.102,2.141 1.18,2.406 2.852,4.469 3.836,7.008 1.055,2.703 0.227,5.727 1.727,8.297 m -7.845,-47.954 c -0.016,1.633 1.117,2.797 2.258,3.305 5.945,2.609 10.68,7.82 9.945,14.57 M 420.18,384.335 c 2.109,5.609 8.102,7.758 12.125,11.852 1.18,1.203 2.172,2.609 2.688,4.266 m -11.766,-40.962 c 0.125,0.914 0.555,1.797 1.023,2.516 2.406,3.734 7.453,5.625 7.43,10.563 -0.008,1.055 1.102,1.961 1.57,3.047 M 108.523,531.655 c 1.641,4.57 0.367,9.25 0.977,13.938 0.336,2.648 1.602,4.703 2.953,6.984 M 95.016,506.819 c 0.93,7.969 -1.133,15.75 0.602,23.922 0.492,2.344 2.023,4.219 2.445,6.586 M 80.625,487.632 c 0.531,3.984 -0.953,7.813 -0.875,11.766 m 2.188,58.406 c 7.633,2.805 15.664,0.773 23.563,-1.195 1.258,-0.313 2.578,-0.102 3.891,-0.102 -0.109,0.414 0.133,0.656 0.445,0.867 M 67.992,522.507 c 4.875,6.547 13.633,5.992 20.391,9.313 0.836,0.406 1.992,0.898 2.203,2.031 0.047,0.258 -0.227,0.563 -0.367,0.859 M 58.836,502.452 c 1.031,1.383 2.594,2.25 4.016,2.828 5.688,2.313 13.977,1.727 17.344,7.633 m 13.077,-151.68 c 1.25,-5.938 0.133,-11.906 0.805,-17.836 1.156,-10.039 3.898,-19.578 7.156,-29.195 1.133,-3.359 2.914,-6.508 5.336,-8.969 5.625,-5.719 8.773,-12.656 15.586,-17.492 3.5,-2.484 7.359,-3.789 10.164,-6.867 3.516,-3.883 6.297,-7.813 9.016,-12.422 0.727,-1.227 2.219,-0.211 3.359,-0.5 m -53.172,93.711 c 1.258,-5.93 0.148,-11.906 0.82,-17.82 1.148,-10.055 3.891,-19.594 7.148,-29.211 1.133,-3.359 2.906,-6.508 5.336,-8.969 5.625,-5.719 8.789,-12.656 15.586,-17.484 3.5,-2.484 7.352,-3.789 10.164,-6.875 3.516,-3.875 6.305,-7.797 9.008,-12.406 0.734,-1.242 2.227,-0.227 3.375,-0.508 m -68.218,76.929 c 0.742,6.547 0.039,12.25 -1.328,18.914 -2.195,10.734 -6.758,19.531 -9.07,30.18 -3.875,17.953 -3.242,34.898 -0.484,52.578 1.742,11.227 7.711,21.055 13.719,30.617 M 75.391,342.491 c 0.75,6.539 1.141,12.891 -0.227,19.563 -2.195,10.727 -6.766,19.539 -9.07,30.188 -3.883,17.945 -3.242,34.891 -0.492,52.578 1.742,11.211 7.711,21.047 13.719,30.609 m -19.173,3.922 c 7.008,1.391 11.469,7.023 14.922,12.844 3.203,5.398 2.992,11.898 5.43,17.539 2.891,6.75 4.461,13.672 8.539,20.094 2.742,4.305 5.102,8.359 8.367,12.094 10.656,12.172 22.188,22.781 37.117,29.32 2.383,1.039 4.375,2.398 6.695,3.125 M 59.922,478.265 c 7.016,1.391 12.578,6.367 16.023,12.172 3.211,5.414 3,11.914 5.414,17.555 2.914,6.734 4.477,13.672 8.563,20.086 2.734,4.313 5.094,8.359 8.367,12.109 10.664,12.172 22.18,22.781 37.102,29.313 M 432.727,339.53 c -0.648,21.938 1.266,43.125 4.977,65.438 2.359,14.156 0.773,27.516 -3.484,40.992 -0.633,2.008 -0.188,4.281 -0.766,6.445 -2.438,8.969 -5.93,17.008 -9.773,25.211 m 9.569,-136.429 c -0.445,21.945 1.633,43.117 5.555,65.398 2.484,14.133 1,27.5 -3.141,41.023 -0.617,2.008 -0.141,4.273 -0.711,6.453 -2.359,8.984 -5.773,17.047 -9.555,25.289 M 352.617,259.671 c 8.492,5.594 16.164,11.984 23.273,19.422 3.016,3.156 5.75,6.227 8.352,9.922 4.313,6.117 7.469,12.188 10.359,18.727 2.484,5.68 4.656,11.453 6.688,17.359 4,11.602 6.297,22.992 9.195,35.18 0.133,0.578 0.086,1.797 0.969,2.258 M 354.797,260.983 c 8.508,5.586 16.18,11.984 23.266,19.414 3.016,3.164 5.758,6.227 8.352,9.922 4.313,6.117 7.484,12.188 10.367,18.734 2.492,5.68 4.648,11.445 6.695,17.352 4,11.602 6.281,23 9.188,35.18 0.141,0.578 0.078,1.805 0.969,2.266 M 152.547,284.952 c 3.508,-4.5 7.5,-8.25 12.375,-11.516 7.242,-4.844 13.234,-9.586 20.617,-13.992 7.742,-4.609 15.063,-8.563 22.914,-12.617 11.031,-5.695 22.328,-9.531 33.211,-15.492 2.609,-1.43 3.508,-6.313 2.852,-8.711 m -92.407,61.016 c 3.516,-4.492 7.508,-8.242 12.383,-11.508 7.227,-4.844 13.219,-9.586 20.602,-14 7.742,-4.609 15.078,-8.563 22.922,-12.609 11.023,-5.688 22.328,-9.539 33.211,-15.492 2.609,-1.43 3.039,-5.367 2.852,-8.719 m 14.819,-0.43 c 1.055,8.57 6.766,10.063 15.078,14.805 7.211,4.109 14.477,7.305 21.68,11.414 18.211,10.422 36.695,19.523 50.859,34.805 m -87.617,-61.024 c 1.055,8.57 5.023,10.5 13.336,15.234 7.219,4.117 14.477,7.305 21.688,11.43 18.188,10.406 36.695,19.516 50.844,34.789"
   id="path2954"
   style="fill:none;stroke:#000000;stroke-width:0.258" />

					<path
   d="m 149.109,295.741 c 4.148,-8.492 7.414,-9.578 7.414,-9.578 4.297,-2.328 10.328,-1.242 15.047,-1.75 1.648,-0.172 3.773,-1.188 5.008,-2.398 3.367,-3.313 2.711,-8.125 7.742,-9.164 4.609,-0.953 10.477,0.789 14.922,-0.203 3.797,-0.859 4.344,-4.906 5.469,-8.773 0.352,-1.195 3.211,-1.805 4.125,-1.906 8.438,-0.938 16.391,5.648 24.617,1.742 2.148,-1.016 3.57,-3.305 4.797,-5.883 1.375,-2.891 0.234,-8.266 -3.492,-8.727 -0.75,-0.086 -0.461,-2.555 -0.211,-2.828 2.672,-2.844 8.578,-3.031 11.117,-6.094 2.578,-3.125 4.023,-4.195 5.438,-7.852 1.266,-3.273 1.461,-8.023 0.883,-11.555 -0.453,-2.758 -3.633,-4.766 -6.383,-5.492 -1.313,-0.336 -2.148,0.938 -2.781,1.734 -2.992,3.688 -3.602,9.508 -9.039,10.453 -3.289,0.578 -5.758,-2.57 -8.836,-1.57 -1.539,0.5 -2.836,1.719 -4.328,2.258 -2.313,0.82 -2.766,-3.258 -4.813,-3.453 -8.336,-0.797 -16.82,5 -21.492,12.391 -0.5,0.805 -1.563,1.492 -2.43,1.602 -2.078,0.273 -4.156,0.258 -6.406,-0.32 -5.219,-1.352 -10.414,0.992 -14.945,3.391 -6.695,3.547 -10.242,10.688 -12.219,18.211 -0.367,1.398 -1.219,3.383 -2.234,4.391 -1.75,1.75 -4.969,1.234 -5.438,3.922 -1.133,6.516 0.258,12.984 -1.875,19.078 -0.883,2.547 -3.211,6.953 -4.227,9.688 z"
   id="path2956"
   style="fill:none;stroke:#000000;stroke-width:0.516" />

					<path
   d="m 200.492,253.569 c 1.164,0 2.461,-0.305 3.422,0.148 4.313,2.031 8.422,4.016 13.172,4.898 2.914,0.547 5.961,0.797 8.578,-0.117 2.414,-0.859 4.906,0.188 7.078,-1 m -57.523,8.712 c 5.789,-0.57 10.875,1.695 16.563,3.031 1.539,0.367 2.883,-0.461 4.344,-0.414 m -37.048,9.586 c 3.844,-1.852 8.398,-0.289 12.633,-0.945 0.633,-0.086 1.18,-0.508 1.766,-0.797 m 1.742,-32.695 c 0.383,1.953 -1.148,3.375 -1.594,5.156 -1.461,5.75 0.547,11.211 -1.023,16.641 m 41.406,-37.047 c -2.266,0.93 -2.328,3.453 -3.727,5.367 -2.156,2.93 -0.469,6.625 -1.5,9.883 m -49.258,35.312 c 3.828,-1.867 8.391,-0.289 12.633,-0.938 0.625,-0.102 1.164,-0.516 1.75,-0.805 m 4.36,-11.335 c 5.781,-0.57 10.891,1.695 16.57,3.031 1.523,0.367 2.875,-0.461 4.352,-0.414 m 4.796,-16.133 c 1.164,0 2.445,-0.305 3.406,0.156 4.313,2.039 8.43,4.016 13.188,4.891 2.906,0.547 5.969,0.805 8.578,-0.125 2.422,-0.852 4.891,0.203 7.086,-0.992 M 215.32,227.858 c -2.266,0.922 -2.328,3.445 -3.734,5.367 -2.156,2.93 -0.477,6.625 -1.508,9.875 m -34,-0.429 c 0.398,1.953 -1.125,3.375 -1.586,5.164 -1.461,5.742 0.547,11.195 -1.016,16.625 m -20.929,20.492 c 3.508,-4.5 7.5,-8.25 12.375,-11.516 7.242,-4.844 13.234,-9.586 20.617,-13.992 7.742,-4.609 15.063,-8.563 22.914,-12.617 11.031,-5.695 22.328,-9.531 33.211,-15.492 2.609,-1.43 3.508,-6.313 2.852,-8.711 m -92.407,61.016 c 3.516,-4.492 7.508,-8.242 12.383,-11.508 7.227,-4.844 13.219,-9.586 20.602,-14 7.742,-4.609 15.078,-8.563 22.922,-12.609 11.023,-5.688 22.328,-9.539 33.211,-15.492 2.609,-1.43 3.039,-5.367 2.852,-8.719"
   id="path2958"
   style="fill:none;stroke:#000000;stroke-width:0.258" />

					<path
   d="m 385.32,547.202 c 0,0 3.695,-2.625 4.93,-6.039 l -0.375,0.609 c 2.047,-2.367 1.203,-6.047 2.406,-8.844 1.273,-2.961 5.023,-3.234 7.75,-4.633 1.578,-0.789 3.18,-1.984 3.75,-3.609 0,0 1.188,-2.313 1.766,-4.492 2.781,-10.484 -0.453,-13.32 6.773,-19.281 5.203,-4.289 10.969,-8.734 12.023,-15.836 0.461,-3.086 4.297,-5.32 6.352,-3.617 0.977,0.797 -0.336,3.844 1.547,4.93 0.75,0.438 2.063,0.516 2.734,0.039 0,0 2.578,-1.969 4,-4.344 1.93,-3.133 2.453,-7.086 5.773,-9.336 2.531,-1.695 5.852,-2.172 8.07,-0.797 1.125,0.695 1.188,3.352 -0.016,4.953 -5.188,6.898 -9.813,14.313 -9.055,22.867 0.063,0.625 0.344,1.68 1.055,2.07 1.414,0.781 3.391,-1.578 4.781,-0.742 1.602,0.961 1.148,3.359 0.25,4.523 -2.305,2.984 -6.484,3.547 -8.898,6.422 -2.156,2.547 -1.75,4.984 -1.422,6.5 0.375,1.758 3.172,0.164 3.734,1.352 0,0 3.203,1.539 -0.297,11.5 l -0.039,-0.242 c -0.852,4.602 -11.18,10.016 -10.672,9.719 -1.555,0.93 -3.789,2.563 -4.922,4.367 0,0 -2.539,4.648 0.266,5.664 2.797,1.008 2.664,2.68 2.656,3 l -0.023,-0.344 c 1.234,4.133 -3.422,6.031 -6.133,8.219 -3.188,2.586 -7.531,3.281 -11.891,4.117 -8.414,1.594 -12,6.773 -17.531,8.672 0,0 -1.953,1.195 -8.688,3.117 -7.625,2.18 -15.258,2.758 -23.266,3.695 -6.227,0.727 -15.031,-1.266 -20.828,-3.031 l 1.164,-0.914 c 3.875,0.625 11.375,0.883 14.656,-0.891 6.008,-3.234 7.523,-5.156 11.195,-10.805 1.156,-1.789 3.453,-7.633 4.633,-9.453 2.839,-4.452 7.238,-6.671 11.792,-9.085 z"
   id="path2960"
   style="fill:none;stroke:#000000;stroke-width:0.516" />

					<path
   id="path2962"
   style="fill:none;stroke:#000000;stroke-width:0.255891"
   transform="matrix(1.0082417,0,0,1.0082417,-1.0360571,212.51023)"
   d="m 446.34375,258.1582 -19.73633,22.84961 -0.6289,-11.59179 c -0.33868,3.91535 0.20871,7.77717 0.58007,11.64843 l -1.28515,1.48828 -0.58985,-10.97461 c -0.32144,3.7106 0.15321,7.38136 0.51758,11.05665 l -10.32226,11.95117 c 0.13769,0.39348 0.30192,0.7779 0.41992,1.17773 l -1.26563,1.47656 c 1.10398,3.18087 1.58672,6.56577 1.6836,9.98633 l -2.17383,-9.41406 -1.1543,1.34961 -0.30859,-1.33594 -56.125,64.97656 c 0.63557,0.0554 1.26405,0.0676 1.89258,0.0781 l -1.04102,1.2168 c 6.67201,0.54252 12.92444,-1.47956 18.97656,-4.01368 6.2614,-2.63428 11.37458,-6.56463 17.24024,-10.42382 4.58719,-2.99829 7.36938,-7.03499 10.71679,-11.23438 4.94326,-6.1761 8.8807,-12.68414 11.42969,-19.88281 2.59561,-7.28397 4.56359,-14.66838 7.53906,-21.8125 1.77438,-4.24601 4.23206,-8.02869 7.23829,-11.68555 3.64198,-4.40172 7.20678,-8.19723 10.20507,-13.08594 2.61148,-4.26981 4.11344,-8.74238 6.57813,-12.91796 l -2.27539,2.66015 c 0.58648,-1.19655 1.19784,-2.38375 1.88867,-3.54297 z m -34.26367,39.66797 1.15625,-1.33984 0.30664,1.32617 0.49023,-0.57227 c -0.13763,-0.39654 -0.26312,-0.79614 -0.42187,-1.18554 l 1.26758,-1.46875 c -0.81616,-2.33226 -1.94698,-4.56104 -3.59961,-6.58008 l 1.41992,6.15039 c -0.64345,-1.23042 -1.36792,-2.4317 -2.28711,-3.55469 z m 31.62695,-9.38672 -11.21875,4.77149 c 4.0253,-1.02856 8.00814,-2.10397 11.21875,-4.77149 z m -11.21875,4.77149 c -2.80401,0.71649 -5.62787,1.40903 -8.23047,2.60547 -0.48798,0.23208 -0.66584,0.78362 -0.86719,1.26367 z m 12.51367,-3.9043 -11.20898,4.76758 c 4.02332,-1.02903 8.00397,-2.10599 11.20898,-4.76758 z m -11.20898,4.76758 c -2.80584,0.71764 -5.63133,1.41123 -8.23242,2.61133 -0.48798,0.23208 -0.67562,0.77374 -0.87696,1.26172 z m 4.29687,12.52148 -20.35156,16.57422 c 1.05156,-0.57315 2.13524,-1.01976 3.23242,-1.41601 l -2.8164,2.29492 c 4.74742,-2.59882 10.12061,-2.79941 14.54297,-6.05469 3.29286,-2.41014 6.00482,-6.1454 5.81835,-10.53125 l -0.47656,0.38672 c 0.0352,-0.41333 0.0681,-0.82779 0.0508,-1.25391 z m -19.93554,17.45313 c -0.51767,0.28338 -1.0346,0.56983 -1.53516,0.91797 -0.4493,0.30151 -1.36392,0.67461 -1.44922,1.51172 z m -0.41602,-0.87891 c -0.5246,0.28594 -1.04795,0.5774 -1.55469,0.92969 -0.44929,0.30945 -1.36404,0.67266 -1.4414,1.50977 z m -22.89258,-4.03906 c 0.0368,0.13771 0.0598,0.27631 0.0957,0.41406 l -0.14063,0.16406 z m 1.26563,6.16016 c 0.54227,3.51643 0.75399,7.06424 0.39258,10.69336 -0.179,1.79786 -0.86912,3.42024 -1.60547,5.02734 z m 28.13867,16.31836 -25.50781,3.89843 c 0.73938,0.27882 1.48347,0.49878 2.23047,0.69141 l -3.95899,0.60351 c 4.19939,1.58097 8.50088,1.76672 12.94922,0.74415 4.50983,-1.05432 8.73297,-2.03916 12.56836,-4.63477 l -0.70898,0.10742 c 0.82443,-0.41506 1.63685,-0.8712 2.42773,-1.41015 z m -29.75586,5.24804 c -0.0215,0.12766 -0.0595,0.24957 -0.0762,0.37891 l 0.0254,-0.33789 c 0.0169,-0.0138 0.034,-0.0272 0.0508,-0.041 z m -33.36328,64.79297 c -0.8133,1.04638 -1.72021,2.06936 -2.38672,3.14649 -1.13771,1.88707 -1.44486,4.05294 -2.07617,6.10937 z m -4.46289,9.25586 -1.58203,3.28125 c 0.79867,-1.00208 1.22819,-2.12868 1.58203,-3.28125 z m 2.74219,-7.96094 c -0.82124,1.05431 -1.73596,2.06741 -2.39454,3.14453 -1.1423,1.8924 -1.44631,4.05831 -2.07812,6.11328 z m -4.47266,9.25781 -1.58594,3.2793 c 0.80135,-1.00186 1.23195,-2.12794 1.58594,-3.2793 z m -23.63281,-0.18359 c -1.10787,1.33996 -2.44076,2.43269 -3.3711,3.95117 -0.73427,1.18037 -1.29539,2.41683 -1.85156,3.64453 z m -5.22266,7.5957 -4.29297,6.24219 c 2.19371,-1.63017 3.23545,-3.90778 4.29297,-6.24219 z m 6.52539,-7.5957 c -1.1158,1.33996 -2.43955,2.43269 -3.38476,3.95117 -0.74126,1.19106 -1.30612,2.43926 -1.86524,3.67774 z m -5.25,7.62891 -4.27344,6.20898 c 2.18844,-1.62241 3.22487,-3.88632 4.27344,-6.20898 z m 18.64649,2.31836 c 6.71069,2.72752 14.05729,2.10939 21.18554,2.17187 z m -3.0293,0.86914 c 6.71069,2.72752 14.07316,2.09181 21.18555,2.15429 z m -50.14063,6.04297 c -0.3878,0.99182 0.54302,1.53584 0.98438,2.0625 2.89811,3.57255 6.42271,6.18982 10.68359,7.8789 l -0.38476,-0.32812 c 0.82442,0.43354 1.66018,0.85135 2.54687,1.20508 l -11.68359,-9.94141 c -0.1632,0.4352 -0.0544,0.76878 0.13281,1.06445 z m 19.46094,1.70703 c -0.14716,0.004 -0.30187,0.0215 -0.45312,0.0215 l 1.27148,0.48047 c -0.0935,-0.18038 -0.21093,-0.34327 -0.41211,-0.44141 -0.12001,-0.0541 -0.25909,-0.0644 -0.40625,-0.0605 z m 0.81836,0.50195 c 0.20894,0.403 0.25654,0.91394 0.55664,1.13867 5.30032,3.8592 11.40511,5.13023 17.63477,5.74219 l -2.11719,-0.80078 c 1.83796,0.35721 3.70022,0.61625 5.57422,0.80078 l -18.19727,-6.88672 c 0.21364,0.40379 0.25871,0.91876 0.55469,1.14453 0.44184,0.32171 0.89669,0.59987 1.34961,0.88672 z m 3.45117,-0.006 c -0.0942,-0.17804 -0.21254,-0.33843 -0.41406,-0.43555 -0.23308,-0.1081 -0.55125,-0.0391 -0.83789,-0.0391 z" />

					<path
   id="path2964"
   style="fill:none;stroke:#000000;stroke-width:0.511782"
   transform="matrix(1.0082417,0,0,1.0082417,-1.0360571,212.51023)"
   d="m 163.25,364.16797 c -1.89166,-0.0785 -3.2668,0.51165 -2.46094,2.67383 0.86785,2.28615 5.18325,3.33131 3.23828,6.36132 -1.04637,1.6504 -3.33062,1.32407 -4.81836,0.57227 -2.62635,-1.33301 -4.50279,-3.80368 -7.49414,-4.37695 -3.54875,-0.68932 -6.818,1.88199 -10.52148,0.66601 -3.94449,-1.29433 -7.01249,-4.81145 -11.15039,-3.92773 -2.7662,0.59708 -4.39412,3.98171 -3.5957,6.69336 3.07664,10.17415 13.59151,15.38244 22.875,19.4043 2.73545,1.18522 5.32374,2.96023 6.6875,5.73437 1.89042,3.85919 -3.62677,0.78867 -4.78125,2.40039 -1.68908,2.4022 1.64319,4.11586 3.69726,5.1543 3.78878,1.92216 7.73366,3.31537 12.0957,3.1289 7.50118,-0.32532 15.10106,-2.63385 22.05079,0.54297 0.94521,0.44136 1.72035,2.13803 0.79101,3.06836 -2.03027,2.0382 -2.82952,0.92215 -5.27734,1.66602 -0.38781,0.11604 0.10815,1.56585 0.4414,1.72851 6.65615,3.06078 11.87892,2.14624 18.92188,2.16211 6.97352,0.0159 13.39145,1.70472 20.31836,1.34766 3.65785,-0.16266 6.71766,-2.48726 10.46875,-2.99805 0,0 11.4598,-2.02954 15.34179,-1.3789 l 4.53907,-2.15625 c -4.61887,-1.2997 -9.08167,-5.4541 -11.65625,-8.15235 -0.44834,-0.31341 -0.58394,-0.44178 -0.96094,-0.89648 -0.078,-0.0945 -0.10999,-0.17317 -0.17578,-0.26367 -0.64163,-0.71523 -1.0918,-1.25586 -1.0918,-1.25586 -0.93033,-0.93728 -1.42587,-2.31766 -2.30859,-3.37891 -2.91399,-3.55669 -5.62572,-6.90293 -9.25977,-9.84766 -1.69701,-1.37963 -3.73546,-3.40302 -5.69531,-2.21679 -1.75851,1.0305 -0.32541,4.46333 -2.5957,5.00586 -2.04614,0.51872 -4.6044,0.24802 -6.32422,-1.14649 -7.15206,-5.73374 -12.29629,-11.0813 -21.0918,-13.0957 -0.0932,-0.0159 -1.75095,1.21772 -1.30859,1.72851 0.7518,0.86785 1.07613,1.14612 1.96679,1.80469 0.75181,0.5346 -0.59562,1.79083 -1.04492,1.92969 -1.72776,0.48798 -4.26946,0.37178 -5.41601,-0.75195 -6.27628,-6.09775 -10.74844,-13.33555 -18.84571,-16.59766 -1.25912,-0.50732 -3.66693,-1.25355 -5.55859,-1.33203 z m 78.57422,39.1543 c 0.29202,0.32551 0.73692,0.74116 1.13672,1.16015 0.16972,0.11865 0.22814,0.16943 0.58984,0.41211 1.66466,1.1312 4.24434,-0.28663 5.90625,-1.39062 V 403.5 c 6.4e-4,8.6e-4 9.5e-4,0.003 0.002,0.004 0.0556,-0.037 0.12821,-0.0772 0.18164,-0.11329 1.04638,-0.71311 2.04622,-1.41025 2.91407,-2.35546 1.99158,-2.20781 0.01,-6.33736 -0.29297,-6.5625 0,0 -1.5587,-1.21787 -2.50391,-0.13282 -0.1609,0.21316 -0.26226,0.29909 -0.41015,0.48633 -0.0107,-0.0237 -0.0234,-0.0454 -0.0234,-0.0742 0,0.008 0.008,-3e-4 0.0156,0.008 -2.19292,-5.77243 -6.107,-6.27645 -8.60937,-4.49415 -2.27029,1.62759 -4.04335,4.30905 1.62891,9.54688 0.028,0.0208 0.0746,0.0426 0.084,0.0977 -0.0863,0.0503 -0.0979,0.0505 -0.1875,0.10351 0,0 -2.09699,1.01775 -0.43164,3.3086 z m 7.63476,0.18164 h -0.002 l 0.96875,6.57421 c 0.20112,-3.26644 -0.38621,-5.7887 -0.9668,-6.57421 z m 90.95313,-39.1543 c -5.56842,0.2854 -12.45035,5.04402 -15.35938,9.41016 -3.3246,4.98293 -9.68722,7.94304 -10.59375,6.75781 -0.92934,-1.24772 0.10869,-1.62922 0.2168,-2.81446 0.10117,-1.2477 -2.38479,-1.13864 -2.38281,-1.14062 -0.12398,-0.40268 -5.50195,1.55078 -5.50195,1.55078 -3.09152,1.22391 -4.92816,2.89102 -7.0586,5.27734 -1.77437,1.99159 -3.16119,4.35373 -4.99804,6.24415 -1.59684,1.65039 -3.84304,2.91429 -5.91993,1.5664 -0.93826,-0.61195 0.0148,-4.19946 -0.5039,-5.19922 -2.02234,-3.88994 -5.34769,-1.03164 -5.0918,-1.13281 -3.09946,1.23185 -5.76509,9.05019 -8.33789,12.76953 0,0 -4.50605,6.35282 -15.14844,12.49805 l 1.01172,-6.55469 c -0.59454,0.78583 -1.19009,3.29474 -1.01367,6.55469 -0.97923,0.5654 -2.1042,1.11679 -3.18555,1.67383 l 1.63672,-10.20899 c -1.09698,2.45709 -1.96064,5.02601 -1.64258,10.21289 -2.41021,1.24128 -4.98552,2.46052 -7.94922,3.57617 0,0 -7.52858,2.502 -13.51562,7.88282 l -0.19141,-0.5586 c -3.71934,1.13068 -7.29852,0.64977 -10.80859,-0.38867 -5.60282,-1.66527 -10.91054,-3.95024 -16.66016,-4.07422 -1.5889,-0.0397 -4.41803,0.58689 -3.90625,2.87305 0.22515,1.03051 1.50438,1.3488 1.79102,2.48047 0.28664,1.09993 0.35563,3.08438 -1.5586,3.18555 -4.37097,0.20134 -8.80122,1.30152 -12.70703,-1.03125 -3.88994,-2.31691 -7.30039,-5.22935 -11.25976,-7.52344 -2.22368,-1.27847 -4.65577,-0.90764 -6.01953,1.33984 -8.07346,-0.91446 -13.97028,-7.10551 -20.85157,-10.91015 -2.32484,-1.2864 -5.24588,0.53586 -5.00586,3.47265 -0.53459,0.0308 -1.06089,0.44116 -1.35546,0.45703 -6.431,0.32532 -11.25928,-4.96653 -17.63672,-4.91992 -0.8371,0.007 -3.05288,1.05195 -3.10742,1.92774 -0.13192,2.16912 -1.30249,6.47819 5.4082,9.29101 l 7.12109,5.18359 c 6.46274,4.2232 -5.05845,3.01479 -3.67187,9.73243 0.28663,1.38756 0.97544,2.51191 2.2539,3.07031 2.33179,1.02356 4.70377,1.81941 7.13672,2.70312 3.98218,1.46493 14.57456,1.79896 16.51953,1.15625 1.94497,-0.65063 0.89063,2.14454 0.89063,2.14454 -2.38733,1.23978 -6.37762,1.7838 -3.85938,4.41015 3.09946,3.23137 7.88768,4.20612 12.52149,4.39258 5.75755,0.20928 10.29946,-3.55513 16.0332,-4.09766 1.38756,-0.12397 3.22217,-0.24077 3.88867,0.61914 5.12972,6.78806 8.75037,10.7078 14.4375,6.78711 1.71983,-1.19316 5.47737,-4.15266 7.01172,-5.33789 2.28616,-1.80512 3.69675,-3.526 5.95117,-2.21679 1.78231,1.03149 4.47791,5.90566 6.48438,6.26171 2.98242,0.52666 5.83379,-0.50382 8.0039,-2.60351 0,0 6.25775,-6.0346 8.64063,-11.65625 0.62621,1.08496 1.45303,1.88568 2.51172,2.02539 3.60873,0.46 5.80403,-0.72388 7.71289,-6.88672 l 0.0898,0.043 c -0.018,-0.0448 -0.0438,-0.0811 -0.0625,-0.125 0.0743,-0.24191 0.15115,-0.43786 0.22461,-0.69531 0,0 2.66703,1.51097 3.80664,-1.48633 0.12961,-0.34674 0.20144,-0.68787 0.24414,-1.02344 0.0401,0.34199 0.11177,0.69103 0.24219,1.04492 1.12374,3.00524 3.78906,1.51172 3.78906,1.51172 1.92216,6.91204 4.15495,8.17328 7.91993,7.70117 0.37032,-0.045 0.70749,-0.18537 1.02734,-0.37109 -0.037,-0.0861 -0.0848,-0.16755 -0.1211,-0.25391 l -2.27734,-9.29101 4.04297,-1.36524 c 0,0 -2.03909,-0.40494 -4.40625,-0.11718 l -1.66016,-6.76953 c -2.73305,0.38707 -5.77075,1.75831 -6.91211,3.23046 0,0 -1.37598,1.49954 -1.63671,3.5 -0.24175,-2.01506 -1.625,-3.53125 -1.625,-3.53125 -1.53436,-2.00745 -6.56959,-3.86648 -9.59961,-3.27734 0,0 -4.73402,0.43407 -5.45508,3.06836 -0.71312,2.65016 2.05273,3.78906 2.05273,3.78906 -1.09676,1.13729 -1.3896,3.63013 -1.01562,5.99024 l -2.78711,-8.18164 c 3.00816,-4.34671 9.33042,-10.27938 23.60156,-13.41016 13.71497,-3.02209 21.64963,12.11849 31.28125,6.32227 4.29262,-2.58768 8.74138,-2.56422 12.85547,-1.56446 5.34693,1.31715 10.54563,2.53306 15.83008,1.78125 2.58767,-0.35606 6.46875,-1.70404 6.46875,-4.88086 0,-2.08382 -3.82617,-1.76757 -3.82617,-1.76758 -4.88177,0.41062 -6.55586,-2.39406 -5.71875,-4.45507 1.25565,-3.07565 13.59765,0.93164 13.59765,0.93164 11.20466,3.11532 22.73518,-2.81412 23.25391,-3.2168 0.51178,-0.41855 4.1447,-3.0152 -3.41797,-5.51758 -14.15732,-4.64868 2.79773,-9.85567 16.19531,-12.76172 7.80269,-1.69602 17.04716,-5.22104 17.85352,-14.52734 0.36499,-4.20732 -2.95991,-3.21504 -3.78906,-2.75781 -0.84504,0.4731 -8.6168,1.45576 -10.22852,-0.36524 -1.61965,-1.80611 -5.09092,-1.29398 -7.36914,-0.7207 -2.28616,0.57328 -7.89649,3.63477 -7.89649,3.63477 -2.89018,1.16242 -11.44373,4.1675 -9.13476,-1.76758 0.72899,-1.86662 2.69531,-2.58789 2.69531,-2.58789 1.04638,-0.21721 0.11719,-2.19141 0.11719,-2.19141 -3.53388,-3.32361 -6.33984,-3.63477 -6.33985,-3.63477 -0.72637,-0.15595 -1.49552,-0.20678 -2.29101,-0.16601 z m -76.75977,59.03516 c 0.97906,-0.13866 1.9196,-0.15939 2.71875,-0.002 0,0 4.7206,0.48083 5.42579,3.12305 0.69724,2.65016 -2.07813,3.76562 -2.07813,3.76562 2.0685,2.16598 1.28815,9.20731 -1.64453,10.91016 1.5346,3.57005 3.67154,6.94005 6.43359,9.3457 3.78084,3.29286 9.19648,5.71907 11.72266,-0.45703 0,0 0.99201,-3.23033 2.84375,-3.17578 1.88248,0.0466 4.90465,7.68647 20.61914,10.22852 1.25466,0.20927 2.93583,-0.14851 3.74219,-1.34961 0.46516,-0.69726 -1.11625,-4.09755 -0.54297,-4.80274 1.06125,-1.27053 2.89842,-0.44302 3.85156,-0.21093 23.65703,6.05212 27.77149,0.5039 27.77148,0.5039 1.15449,-0.82916 0.33351,-3.64179 -0.65039,-5.15234 -1.3102,-2.01539 -0.0237,-4.72691 2.59571,-5.02149 8.48507,-0.96108 17.24032,0.0846 24.84961,-4.52539 7.45456,-4.51776 0.37196,-5.96615 0.75976,-5.88086 -3.33154,-0.74387 -1.65039,-2.51953 -1.65039,-2.51953 12.31253,-6.98146 12.24414,-11.32812 12.24414,-11.32812 0.66651,-2.82869 -0.12447,-4.68739 -2.69726,-5.39258 -3.47834,-0.96802 -7.43201,2.20019 -10.77149,3.5332 -1.44806,0.58022 -3.9578,0.72735 -4.73242,-1.79883 -0.77462,-2.58073 0.24807,-5.94143 -2.35547,-6.70117 -2.80587,-0.81329 -7.62617,4.87246 -12.5,14.30274 -4.87383,9.46102 -10.02539,2.71289 -10.02539,2.71289 -0.65857,-0.41855 -2.09961,-3.83594 -2.09961,-3.83594 -1.71288,-3.11532 -5.70285,-3.54148 -8.32226,-2.11523 -3.47933,1.8676 -11.88702,11.2979 -23.09961,12.11914 -0.82917,0.0625 -4.02182,-0.12417 -4.25391,-2.84375 -0.30945,-3.63504 4.25322,-0.31966 3.72656,-3.53516 -0.50384,-3.22343 -3.67187,-3.5332 -3.67187,-3.5332 -4.99781,-1.99159 -12.78516,3.22461 -12.78516,3.22461 -4.30055,2.2316 -11.31383,-1.6672 -17.63672,-4.89063 -2.53196,-1.28601 -5.54173,-1.89846 -8.26367,-2.1875 3.66465,1.46991 14.8729,6.62043 18.13477,16.48438 -3.31568,-1.68214 -4.99024,0.8125 -4.99024,0.8125 -0.87987,-0.2729 -2.29282,-10.85416 -19.80078,-16.94727 4.8061,2.66112 7.07813,6.91406 7.07813,6.91406 z m -7.13281,-7.14063 c -0.27034,-0.14969 -0.51804,-0.31273 -0.80469,-0.45117 l -0.29101,0.0566 c 0.38719,0.1254 0.72326,0.26492 1.0957,0.39453 z m -0.80469,-0.45117 0.16211,-0.0312 c -0.0182,0.002 -0.19726,0.0117 -0.19726,0.0117 0.0125,0.006 0.0226,0.0135 0.0352,0.0195 z m 0.16211,-0.0312 c 0.32944,-0.0295 3.42841,-0.27818 7.29883,0.13281 -0.69671,-0.27945 -1.625,-0.65625 -1.625,-0.65625 0.31044,0.15473 0.38803,-0.0455 0.30274,-0.0684 -0.50385,-0.10811 -0.9603,-0.4272 -1.50977,-0.27148 z m 4.86719,-12.17969 c 1.6538,1.10507 4.22104,2.53902 5.90039,1.42969 1.30921,-0.88372 1.03912,-0.67503 1.54297,-1.29492 2.07688,-2.4875 -0.23242,-3.58789 -0.23242,-3.58789 -0.0849,-0.0508 -0.0958,-0.0513 -0.17774,-0.0996 0.0142,-0.0572 0.0469,-0.0821 0.0742,-0.10938 5.71093,-5.18427 3.95193,-7.88878 1.68164,-9.53125 -2.47701,-1.79633 -6.38237,-1.30817 -8.62304,4.43164 0.014,0.0342 -0.004,0.0618 -0.0137,0.0899 -0.14609,-0.18693 -0.24745,-0.27176 -0.40625,-0.48438 -0.93727,-1.09993 -2.50195,0.10156 -2.50195,0.10156 -0.29457,0.23209 -2.31568,4.33883 -0.33203,6.5625 0.85991,0.96108 1.85987,1.65884 2.90625,2.37891 0.0533,0.0362 0.12615,0.0762 0.18164,0.11328 z m -11.4668,-8.67383 c -2.29563,2.88128 -3.31632,2.97108 -6.74414,4.95313 z m 11.64649,0.0352 6.73828,5.02148 c -3.41254,-1.99506 -4.43078,-2.07916 -6.73828,-5.02148 z m -8.90235,6.60352 1.58008,10.25976 c 0.35607,-5.22295 -0.48708,-7.78815 -1.58008,-10.25976 z m 0.18555,15.45898 -1.07031,1.14844 c 0.60799,-0.50855 1.05881,-0.8958 1.07031,-1.14844 z m -1.07031,1.14844 c -1.06998,0.89497 -2.80224,2.31231 -4.73438,5.07422 z m 3.70508,1.17578 c 0,0 -1.94317,1.07731 -4.11328,5.1914 l 8.65429,-0.21679 c -3.23831,-4.54851 -4.54101,-4.97461 -4.54101,-4.97461 z" />

					<path
   id="path2966"
   style="fill:none;stroke:#000000;stroke-width:0.255891"
   transform="matrix(1.0082417,0,0,1.0082417,-1.0360571,212.51023)"
   d="m 166.59375,369.28125 4.82031,5.02734 c -0.51127,-0.74438 -0.99955,-1.51123 -1.44336,-2.32226 l 2.44922,2.55664 c -0.51693,-0.7573 -1.01234,-1.53568 -1.45703,-2.36328 -0.69725,-1.26359 -2.13156,-1.87566 -3.35547,-2.65821 l 0.86328,0.90235 c -0.59869,-0.40876 -1.26499,-0.75527 -1.87695,-1.14258 z m 5.82617,5.26172 c 0.71091,1.04146 1.45,2.05219 2.16992,3.07812 l -3.17578,-3.3125 c 1.49582,2.17783 3.16375,4.17692 4.33008,6.61914 1.37963,2.88225 4.47193,3.96783 6.48633,6.43946 0.2297,0.28148 0.49733,0.50767 0.77148,0.72461 l -52.29297,-17.95118 c 3.98842,1.37304 7.66122,3.33539 11.4336,5.16016 l -10.34961,-3.64062 c 7.11337,2.44088 13.38983,7.926 20.92969,9.8789 1.72776,0.44136 3.03887,1.93799 4.82812,2.28711 10.2287,2.03027 18.02417,7.39938 28.06641,9.62305 7.3975,1.63861 14.492,2.87674 21.45312,4.69531 l -17.77734,-6.25391 c 4.30777,0.8839 8.59749,1.77125 12.75976,2.74024 l -15.46484,-5.30859 z m 29.63281,20.08789 24.81641,8.51953 c -3.82007,-1.5667 -7.63835,-3.14566 -11.53711,-4.62695 -4.37462,-1.66898 -8.79847,-2.84943 -13.2793,-3.89258 z m 24.81641,8.51953 c 1.5179,0.62253 3.04536,1.22979 4.56836,1.8418 0.0265,0.0394 0.0474,0.0797 0.0742,0.11914 0.23209,0.31738 0.79716,0.34161 1.22266,0.48047 l -0.0527,-0.10157 c 2.89725,1.15195 5.80967,2.27926 8.78711,3.3086 1.57304,0.55046 3.2696,1.41774 5.10547,1.11523 l -14.10742,-4.84375 -0.39844,-0.76953 c 0.24491,0.23452 0.71193,0.29827 1.09375,0.42969 l -7.33984,-14.26563 c 1.1334,2.44346 1.95989,4.92434 2.91992,7.375 l -3.35352,-6.51367 c 2.05609,4.44241 3.06318,9.02727 5.83203,13.31836 z m -19.79883,-5.00586 17.28321,6.08203 c -2.56418,-1.04689 -5.11142,-2.1128 -7.72071,-3.10742 -3.16192,-1.20799 -6.35233,-2.13596 -9.5625,-2.97461 z m 17.28321,6.08203 c 6.0861,2.48481 12.13827,4.99844 18.4082,7.16797 1.58097,0.55046 3.27936,1.40993 5.11523,1.10742 z m 118.19531,-34.51172 c -0.82961,0.34386 -1.52643,0.79717 -2.16602,1.29688 -5.29873,2.20353 -6.34677,7.88533 -7.92773,12.89453 l 3.5664,-5.79883 c -0.49173,1.47588 -0.9234,2.98266 -1.38281,4.44727 z m -7.91016,12.83985 -5.9375,9.64062 c 2.41014,-2.78207 4.68107,-5.75894 5.79688,-9.17578 0.049,-0.1514 0.0927,-0.31206 0.14062,-0.46484 z m -2.18359,1.35156 -5.49805,8.93945 c 0.0669,-0.0207 0.12884,-0.0509 0.19531,-0.0723 2.16093,-2.57749 4.16927,-5.32452 5.17578,-8.45117 0.044,-0.13563 0.0838,-0.2793 0.12696,-0.41602 z m -5.30274,8.86719 c -0.20055,0.23922 -0.39303,0.48638 -0.5957,0.72265 l 0.40039,-0.65039 c -2.09051,0.64876 -4.35827,0.98988 -6.66211,1.45508 -4.23906,0.86785 -7.81904,2.92199 -11.70898,4.56445 -0.47413,0.20185 -0.92523,0.44055 -1.39453,0.65039 l 29.74804,-8.5664 c -1.50313,0.54152 -2.99847,1.12762 -4.48047,1.80859 -0.29113,0.13277 -0.60356,0.22524 -0.90429,0.33985 l 16.5625,-5.22852 c -0.76293,0.16182 -1.52283,0.34323 -2.28321,0.51953 l 7.26172,-2.09179 2.99219,-0.94336 c -9.22154,1.62679 -18.45599,2.8599 -27.30664,6.82226 -0.52469,0.23385 -1.07504,0.41929 -1.62891,0.59766 z m 28.93555,-7.41992 c 0.24557,-0.0433 0.49079,-0.0849 0.73633,-0.12891 l -3.72852,1.07227 -4.97851,1.57226 c 8.01602,-1.70018 16.15694,-2.71288 24.14648,-5.12891 3.09152,-0.93727 6.45458,-3.99198 9.40625,-5.46484 z m -24.5332,7.74414 -2.40235,0.75976 c 0.82691,-0.20942 1.62688,-0.46424 2.40235,-0.75976 z m -2.40235,0.75976 c -1.66009,0.42043 -3.39499,0.73347 -5.15429,1.10938 -3.00599,0.6474 -5.67003,1.88551 -8.33789,3.15039 z m -13.49218,4.25977 -15.79883,4.98828 c 0.0374,-0.0407 0.0901,-0.0728 0.125,-0.11328 0.26133,-0.13421 0.52336,-0.26682 0.78515,-0.40039 0.35662,-0.048 0.62692,-0.23931 0.88868,-0.45703 1.81644,-0.91764 3.66329,-1.78393 5.53125,-2.61915 l -4.30274,1.23829 c 1.2995,-1.7082 2.38655,-3.56513 2.82422,-5.23438 0.65884,-2.46162 1.31791,-4.8889 2.16016,-7.20898 l -4.04688,7.49804 c 0.55833,-2.09332 1.14075,-4.16007 1.86133,-6.14648 l -6.58594,12.18359 -26.05664,7.50196 c 5.50162,-5.03468 9.76538,-11.24019 11.99414,-18.44727 l -1.48437,2.09766 c 0.3895,-0.97188 0.74656,-1.96235 1.05859,-2.97461 l -14.22461,20.08984 -6.95312,2.00195 c 2.52819,0.0222 5.07207,0.0855 7.60937,0.0899 l -3.7207,1.17383 c 7.10544,-0.008 14.38159,0.58205 21.06055,-2.02149 0.79685,-0.30893 1.57937,-0.64732 2.36132,-0.98437 l -0.0898,-0.0156 c 0.0526,-0.008 0.10377,-0.004 0.15625,-0.0117 7.35158,-3.17705 14.11939,-7.46264 21.52344,-10.68945 1.1314,-0.49328 2.22368,-1.01728 3.32422,-1.53906 z M 290.8125,410.3457 c -0.0219,0.009 -0.0445,0.0179 -0.0664,0.0273 l 13.83008,2.57617 c -2.59158,-0.67055 -5.1943,-1.37815 -7.89844,-1.98828 -1.93303,-0.45233 -3.86099,-0.89345 -5.86523,-0.61524 z m 13.76367,2.60352 c 3.8246,0.98958 7.61447,1.88565 11.59571,2.1582 z m 1.11133,-23.28711 4.00781,-7.41016 c -1.82369,2.21886 -3.04079,4.74442 -4.00781,7.41016 z m 2.18555,-1.35156 3.96875,-7.35157 c -1.80432,2.2007 -3.008,4.70507 -3.96875,7.35157 z m -111.02149,-6.92578 c 3.15853,3.64355 6.78513,6.80254 10.4961,9.93554 z m 10.4961,9.93554 5.93945,5.62305 c -0.43343,-0.49591 -0.81454,-1.28499 -1.0625,-1.48633 -1.64621,-1.39865 -3.25318,-2.76583 -4.87695,-4.13672 z m -8.75977,-9.06836 c 3.11941,3.61026 6.70673,6.74119 10.38281,9.84375 z m 10.38281,9.84375 6.03711,5.72461 c -0.42648,-0.51178 -0.80673,-1.28669 -1.05469,-1.5039 -1.68304,-1.42787 -3.32517,-2.82201 -4.98242,-4.22071 z m -19.89062,3.11914 c -3.23831,0.25589 -6.53182,0.66736 -9.41406,1.97657 -1.57787,0.71653 -3.17126,1.4514 -4.7754,2.16797 z m -14.18946,4.14454 -16.9375,4.94531 c 5.89386,-0.32323 11.49836,-2.51565 16.9375,-4.94531 z m 17.63672,-4.14454 c -3.22343,0.25589 -6.52608,0.66736 -9.40039,1.97657 -1.56922,0.71271 -3.15344,1.44328 -4.75,2.15625 z m -14.15039,4.13282 -16.97656,4.95703 c 5.90312,-0.32373 11.52556,-2.52279 16.97656,-4.95703 z m 137.17188,-0.35157 c -0.6585,0.0125 -1.31781,0.0532 -1.97266,0.11719 l 12.1875,2.14844 c -1.49155,-0.49438 -2.98287,-0.98512 -4.47851,-1.48242 -1.7957,-0.60477 -3.76085,-0.82073 -5.73633,-0.78321 z m 10.21484,2.26563 c 4.16856,1.38169 8.33825,2.677 12.56836,3.50976 l -12.58008,-2.21679 c 8.04043,2.66692 16.06929,5.04986 24.57617,4.33008 l -10.10546,-1.78125 c 3.31313,0.53398 6.66809,0.77642 10.10546,0.48828 z m -0.0117,1.29297 c -1.48772,-0.49346 -2.97499,-0.98444 -4.46679,-1.48047 -2.39427,-0.79842 -5.08958,-0.91397 -7.70899,-0.66602 z m -104.23437,1.70312 c -0.66721,0.0709 -1.3048,0.25692 -1.9375,0.46875 -2.24859,-0.29104 -4.31089,0.72515 -6.20899,1.51563 -2.45114,1.02038 -4.82347,2.36492 -7.19531,3.72265 l 10.00391,-3.85156 c -2.206,0.97456 -4.35964,2.17022 -6.50586,3.39844 l 13.54687,-5.20703 c -0.58121,-0.0987 -1.14871,-0.1058 -1.70312,-0.0469 z m -11.84375,5.25391 -9.22656,3.54687 c 1.94056,-0.92427 3.8346,-2.0096 5.72851,-3.09375 l -14.5,5.58399 c 1.55565,-0.0802 3.04318,-0.41375 4.50391,-0.84961 l -1.06446,0.4082 c 5.28746,-0.26151 9.92609,-2.94465 14.5586,-5.5957 z m 62.89648,-0.99219 -0.85742,1.21289 -0.83984,0.24024 c 0.57379,-0.47676 1.14757,-0.95275 1.69726,-1.45313 z m 20.48828,2.58985 c -0.50502,-0.006 -1.01407,0.0261 -1.52734,0.10742 l 13.72461,2.56054 c -2.53789,-0.65939 -5.06613,-1.35602 -7.71094,-1.96289 -1.48774,-0.33771 -2.97125,-0.68843 -4.48633,-0.70507 z m 12.19727,2.66796 c 3.87867,1.00776 7.74308,1.91669 11.78516,2.19727 z m -172.81055,-1.27343 c 0.73615,0.75028 1.53576,1.38955 2.36719,1.97851 l -1.51562,-0.23633 c 3.26211,3.31667 7.64834,4.64208 11.39843,7.59375 2.44882,1.93704 5.392,2.8128 8.15821,4.31641 6.98939,3.75803 14.48275,5.40775 22.07617,7.53125 10.60757,2.97548 21.4711,2.00133 32.29687,1.59766 8.01197,-0.30251 14.99325,-4.99948 22.91992,-5.92188 l -5.27343,-0.82226 c 1.44319,-0.38779 2.90017,-0.72232 4.39843,-0.89649 l -15.04492,-2.35351 -6.125,-3.27149 c 1.18609,1.36578 2.65246,2.25454 4.21875,2.97461 l -0.3164,-0.0488 -3.04297,-1.625 c 0.45914,0.52887 0.96622,0.97712 1.49804,1.38281 l -56.94921,-8.90624 -1.18165,-2.85157 c 0.17775,0.88735 0.31104,1.81406 0.45313,2.73828 l -0.11914,-0.0176 -0.76953,-1.86133 c 0.11465,0.57848 0.19902,1.18755 0.29297,1.78515 z m 244.6875,3.4707 -95.98437,17.7207 c 4.63381,2.81282 9.91048,4.11377 15.15625,4.46289 5.73374,0.37194 11.25879,1.64295 17.28711,0.34961 5.32313,-1.16242 10.36052,-0.77531 15.55273,-2.24023 3.36328,-0.95315 6.57811,-1.71863 9.87891,-2.74219 7.07469,-2.18499 12.84768,-6.66488 19.95312,-8.89648 5.21502,-1.63453 10.2516,-3.20058 14.97071,-5.9043 1.09993,-0.62783 2.83642,-1.08473 3.18554,-2.75 z m -79.97656,8.64844 c -1.0067,0.17059 -2.09907,0.29382 -2.95898,0.61914 -1.60581,0.61096 -2.96159,1.80329 -4.3086,3.00976 z m -7.26758,3.6289 -7.43945,3.71485 c 3.09388,0.2591 5.25056,-1.75433 7.43945,-3.71485 z m 9.86524,-3.6289 c -1.00671,0.17059 -2.10701,0.29382 -2.95899,0.61914 -1.60704,0.61143 -2.96792,1.80428 -4.31836,3.01172 z m -7.27735,3.63086 -7.4375,3.71289 c 3.08751,0.25898 5.24576,-1.75324 7.4375,-3.71289 z m -74.90234,-1.17383 c 0.36739,0.15166 0.72395,0.32177 1.08203,0.49023 l -0.23437,-0.0371 z m 3.51953,2.64258 c 0.27811,0.17082 0.56669,0.32404 0.83203,0.51757 l -0.91601,-0.48828 c 0.0281,-0.01 0.0559,-0.0197 0.084,-0.0293 z m -58.82422,1.82031 -20.74414,2.5957 c 2.73138,0.40444 5.45218,0.43929 8.14844,0.20899 l -5.13477,0.64257 c 7.08263,1.06126 14.07982,-0.32541 20.75977,-2.5957 l -12.58399,1.57422 c 3.2367,-0.51329 6.43176,-1.36424 9.55469,-2.42578 z m 62.25195,1.29297 -19.88281,15.13281 c 7.19074,-4.43247 14.08659,-8.97258 19.88281,-15.13281 z m -3.45507,1.30273 -19.88282,15.11719 c 7.18281,-4.42453 14.08659,-8.96489 19.88282,-15.11719 z m 56.20117,0.85156 c 0.0502,3.36344 -0.41646,7.49786 2.28515,10.13282 0.4504,0.90553 1.08991,1.7297 2.03711,2.40429 l -3.02929,-10.80273 c 0.0156,0.91198 -0.011,1.88305 -0.004,2.86523 z m -87.76172,3.02149 -24.64063,8.6543 c 1.51822,0.0227 3.03068,-0.0964 4.53711,-0.27735 l -3.24414,1.13867 c 8.82527,0.13192 17.61255,-3.33225 24.64063,-8.64843 l -5.5,1.92968 c 1.45227,-0.86631 2.86987,-1.78391 4.20703,-2.79687 z" />

					
					<path
   id="path2970"
   style="fill:none;stroke:#000000;stroke-width:0.242"
   d="" />

					<path
   d="m 174.594,544.085 6.969,4.57 c 7.82,5.133 13.648,-0.555 15.375,-3.188 3.75,-5.719 2.711,-11.555 -2.922,-15.25 l -13.297,-8.727 -19.094,29.102 6.078,3.992 6.891,-10.499 m 3.297,-5.031 5.617,-8.547 4.82,3.164 c 3.766,2.477 4.578,4.688 2.711,7.523 -0.844,1.305 -2.977,4.539 -7.516,1.555 z"
   id="path2972" />

					<path
   d="m 198.648,553.522 c -4.82,15.609 6.18,21.086 10.57,22.445 4.406,1.359 16.578,3.039 21.398,-12.57 4.813,-15.617 -6.18,-21.086 -10.578,-22.445 -4.398,-1.359 -16.561,-3.039 -21.39,12.57 m 6.954,2.149 c 2.883,-9.313 8.875,-10 12.625,-8.836 3.75,1.156 8.313,5.109 5.438,14.414 -2.883,9.313 -8.867,10 -12.625,8.836 -3.751,-1.156 -8.321,-5.102 -5.438,-14.414 z"
   id="path2974" />

					<polyline
   points="244.969,575.187 262.266,575.718 262.07,582.015 237.508,581.257 238.586,546.46 245.852,546.687 244.969,575.187"
   id="polyline2976" />

					<polyline
   points="277.891,579.694 270.68,580.71 265.82,546.249 273.016,545.233 277.891,579.694"
   id="polyline2978" />

					<path
   d="m 302.516,548.522 c -1.242,-1.781 -3.594,-5.117 -9.266,-3.133 -3.297,1.156 -7.383,5.039 -4.141,14.336 2.078,5.906 6.258,10.391 12.078,8.359 3.797,-1.328 5.695,-4.406 5.109,-8.719 l 6.875,-2.398 c 1.117,7.617 -1.813,14.242 -10.047,17.117 -8.742,3.063 -17.078,-0.656 -21.047,-12.008 -4.016,-11.484 0.578,-19.664 9.047,-22.625 9.836,-3.438 16.188,1.938 18.242,6.664 l -6.85,2.407"
   id="path2980" />

					<polyline
   points="332.164,524.343 316.977,534.866 321.148,540.882 335.094,531.226 338.602,536.28 324.656,545.944 329.781,553.358 345.648,542.366 349.156,547.429 327.43,562.483 307.609,533.866 328.656,519.288 332.164,524.343"
   id="polyline2982" />

					<path
   d="m 140.273,483.983 c 1.797,-0.734 4.906,-2.945 2.656,-8.891 -1.227,-3.211 -3.352,-6.5 -6.789,-5.195 -2.547,0.961 -2.297,3.664 -1.813,7.422 l 0.516,3.797 c 0.758,5.727 1.5,11.242 -5.656,13.953 -3.625,1.375 -10.766,1.852 -14.766,-8.711 -3.773,-9.977 1.75,-15.117 5.719,-16.68 l 2.469,6.531 c -1.383,0.727 -4.625,2.578 -2.367,8.516 0.977,2.586 3.094,5.305 6.039,4.195 2.547,-0.961 2.297,-3.258 2.094,-4.734 l -1.055,-8.672 c -0.594,-4.859 -0.328,-9.625 5.523,-11.844 9.797,-3.703 14.43,5.945 15.516,8.797 4.5,11.883 -1.578,16.516 -5.609,18.047 l -2.477,-6.531"
   id="path2984" />

					<path
   d="m 127.516,430.241 c 9.125,-0.797 13.508,4.375 14.266,13.117 0.281,3.195 -0.086,7.992 -3.242,11.375 -1.961,2.07 -4.695,3.031 -8.172,3.438 l -22.992,1.992 -0.641,-7.398 22.508,-1.938 c 4.828,-0.43 6.711,-3.414 6.422,-6.789 -0.43,-4.977 -3.023,-6.797 -7.227,-6.43 l -22.844,1.977 -0.641,-7.391 22.563,-1.953 m -25.571,7.711 0.477,5.461 -3.695,3.438 4.227,2.695 0.469,5.461 -7.523,-4.898 -0.523,-6.039 z"
   id="path2986" />

					<path
   d="m 139.906,424.546 1.398,-6.992 -13.352,-2.68 1.477,-7.367 c 1.07,-5.273 2.922,-5.203 7.586,-4.266 3.516,0.711 5.328,0.773 7.039,0.625 l 1.586,-7.891 -0.898,-0.188 c -0.875,1.414 -2.109,1.164 -7.102,0.164 -6.367,-1.281 -7.719,0.023 -9.516,2.586 -0.469,-3.609 -3.313,-6.156 -7.078,-6.914 -2.945,-0.594 -9.984,-0.273 -11.805,8.805 l -3.461,17.25 34.126,6.868 m -17.703,-10.836 -9.133,-1.828 1.797,-8.891 c 0.836,-4.188 3.664,-4.453 5.461,-4.086 3.375,0.672 4.297,2.734 3.555,6.445 z"
   id="path2988" />

					<polyline
   points="133.359,357.03 124.922,373.46 131.43,376.804 139.188,361.718 144.664,364.538 136.906,379.624 144.922,383.741 153.742,366.585 159.227,369.397 147.141,392.905 116.188,376.983 127.891,354.218 133.359,357.03"
   id="polyline2990" />

					<polyline
   points="171.414,355.554 166.578,360.983 145.18,341.937 138.188,349.788 133.586,345.694 152.406,324.554 157.008,328.64 150.008,336.499 171.414,355.554"
   id="polyline2992" />

					<path
   d="m 185.414,308.405 -15.336,10.297 4.086,6.078 14.086,-9.453 3.43,5.109 -14.086,9.461 5.023,7.484 16.023,-10.75 3.43,5.109 -21.945,14.719 -19.391,-28.898 21.258,-14.266 3.422,5.11 m -14.547,-1.843 -4.063,2.727 -0.164,-8.414 6.203,-4.164 z"
   id="path2994" />

					<path
   d="m 216.93,325.53 14.766,-3.039 c 11.258,-2.313 11.984,-13.453 10.492,-20.766 -1.336,-6.461 -5.719,-15.75 -17.211,-13.391 l -15.055,3.094 7.008,34.102 m 1.179,-29.64 6.844,-1.406 c 3.039,-0.625 8,-0.813 10.07,9.258 1.156,5.602 0.406,11.844 -5.391,13.031 l -6.93,1.43 z"
   id="path2996" />

					<path
   d="m 277.703,309.827 c -0.75,9.125 -6.578,12.586 -15.328,11.867 -3.18,-0.258 -7.852,-1.422 -10.672,-5.102 -1.703,-2.281 -2.195,-5.148 -2.016,-8.633 l 1.891,-23 7.391,0.609 -1.844,22.516 c -0.398,4.836 2.227,7.188 5.609,7.469 4.977,0.406 7.211,-1.844 7.555,-6.047 l 1.875,-22.859 7.391,0.609 -1.852,22.571"
   id="path2998" />

					<path
   d="m 322.188,340.522 -1.641,-4.953 c 3.164,-1.375 6.367,-4.18 9.078,-9.219 7.719,-14.391 -2.016,-21.883 -6.078,-24.055 -4.055,-2.18 -15.672,-6.148 -23.398,8.242 -7.734,14.398 2.016,21.875 6.07,24.055 1.797,0.969 5.133,2.32 8.961,2.164 l 1.773,5.414 5.235,-1.648 m -10.672,-14.867 1.508,4.563 c -1.469,-0.023 -2.828,-0.477 -3.898,-1.047 -3.453,-1.859 -7.18,-6.602 -2.57,-15.195 4.609,-8.586 10.625,-8.109 14.086,-6.25 3.453,1.859 7.188,6.602 2.57,15.195 -1.531,2.852 -3.234,4.695 -4.938,5.813 l -1.617,-4.766 z"
   id="path3000" />

					<path
   d="m 351.945,355.093 c -6.492,6.469 -13.18,5.32 -19.367,-0.898 -2.258,-2.266 -5.055,-6.188 -4.797,-10.813 0.172,-2.844 1.648,-5.344 4.063,-7.867 l 16.352,-16.281 5.227,5.258 -16.008,15.93 c -3.438,3.43 -2.961,6.922 -0.57,9.32 3.516,3.547 6.672,3.281 9.672,0.305 l 16.242,-16.172 5.234,5.25 -16.048,15.968"
   id="path3002" />

					<path
   d="m 383.43,375.897 -8.992,-16.133 -6.398,3.57 8.273,14.82 -5.375,3 -8.273,-14.82 -7.867,4.391 9.398,16.852 -5.375,3 -12.875,-23.07 30.398,-16.961 12.477,22.352 -5.391,2.999 m 3.054,-14.351 -2.398,-4.273 8.414,0.523 3.625,6.523 z"
   id="path3004" />

					<path
   d="m 389.68,393.968 1.922,8.109 c 0.75,3.219 0.375,5.391 -2.406,6.055 -2.688,0.633 -4.297,-1.328 -4.961,-4.109 l -1.961,-8.305 7.406,-1.75 m -29.633,-0.172 3.391,14.352 c 1.641,6.93 3.25,8.492 5.594,9.977 2.18,1.383 4.992,1.914 7.68,1.273 3.352,-0.789 6.391,-2.656 6.969,-7.172 1.047,1.242 3.055,3.664 7.922,2.508 3.484,-0.82 8.18,-4.172 6.219,-12.477 l -3.891,-16.469 z m 16.516,3.273 2.133,9.008 c 0.602,2.555 0.07,5.367 -2.898,6.07 -3.453,0.813 -5.43,-0.813 -6.234,-4.25 l -2.055,-8.688 z"
   id="path3006" />

					<polyline
   points="394.242,452.483 395.016,434.022 387.695,433.718 386.992,450.671 380.844,450.413 381.555,433.46 372.539,433.085 371.734,452.366 365.586,452.101 366.688,425.71 401.469,427.163 400.391,452.733 394.242,452.483"
   id="polyline3008" />

					<path
   d="m 380.227,484.007 c 2.156,0.094 6.242,0.266 8.117,-5.438 1.094,-3.32 0.5,-8.93 -8.844,-12.008 -5.945,-1.961 -12.063,-1.367 -13.984,4.477 -1.266,3.82 0.023,7.203 3.797,9.367 l -2.281,6.906 c -6.719,-3.742 -10.188,-10.094 -7.461,-18.383 2.906,-8.805 10.922,-13.148 22.344,-9.383 11.555,3.813 15.25,12.43 12.43,20.953 -3.258,9.891 -11.391,11.656 -16.391,10.414 l 2.273,-6.905"
   id="path3010" />

					
					
					
					
					
					
					
					
					
					
					
					
					
					
					
					
					
					
					
					
					
					
					
				</g>

			</g>

		</g>
    </g>
  </g>
</svg>
