<?xml version="1.0" encoding="UTF-8" standalone="no"?>
<svg
   width="900"
   height="900"
   version="1.1"
   viewBox="0 0 238.12 238.12"
   id="svg207"
   sodipodi:docname="surete-quebec.svg"
   inkscape:version="1.1.2 (b8e25be833, 2022-02-05)"
   xmlns:inkscape="http://www.inkscape.org/namespaces/inkscape"
   xmlns:sodipodi="http://sodipodi.sourceforge.net/DTD/sodipodi-0.dtd"
   xmlns="http://www.w3.org/2000/svg"
   xmlns:svg="http://www.w3.org/2000/svg">
  <defs
     id="defs211">
    <clipPath
       clipPathUnits="userSpaceOnUse"
       id="clipPath13171">
      <path
         id="path13173"
         style="fill:#ff0000;fill-opacity:1;fill-rule:nonzero;stroke:none"
         d="m 726.76758,440.0293 v 108.65429 h 23.45508 v -59.44531 c -0.31904,0.51772 -0.46103,0.76777 -0.81641,0.91406 -0.0359,0.043 -0.0731,0.0835 -0.10937,0.12305 0.002,0.0962 -10e-4,0.16635 -0.0156,0.18359 -0.22677,0.27271 -0.46994,0.53033 -0.71875,0.78321 -0.006,0.0383 -0.0124,0.0835 -0.0176,0.11133 -0.0113,0.0635 -0.20668,0.62097 -0.37109,0.66992 -0.16744,0.0498 -0.34081,0.0827 -0.51563,0.11133 -0.12943,0.12746 -0.25818,0.25472 -0.38476,0.38476 -0.0243,-10e-4 -0.0576,0.002 -0.0879,0.002 -0.0998,0.15264 -0.20166,0.3035 -0.30274,0.45508 0.22733,0.0129 0.45254,0.0179 0.67188,-0.004 0.0578,-0.006 0.0742,-0.12658 0.13086,-0.11524 0.0835,0.0187 0.0651,0.33655 -0.0332,0.62305 -0.14026,0.40907 -0.32418,0.80218 -0.48632,1.20312 -0.0774,0.12377 -0.15816,0.24582 -0.23633,0.36914 -0.003,0.0149 -0.005,0.0301 -0.008,0.0449 -0.0227,0.11263 -0.25352,0.38471 -0.19532,0.28515 0.0654,-0.11118 0.13403,-0.22108 0.20313,-0.33008 0.0224,-0.12108 0.0304,-0.24547 0.0351,-0.36914 -0.22483,0.53255 -0.4653,1.05866 -0.70703,1.58399 -0.0389,0.18107 -0.0772,0.36214 -0.11719,0.54297 -0.0605,0.0393 -0.12266,0.0766 -0.18359,0.11523 -0.0333,0.0736 -0.0667,0.14699 -0.0996,0.2207 -0.0565,0.005 -0.11344,0.0116 -0.16992,0.0176 -0.17927,0.24778 -0.43097,0.58246 -0.78906,1.11914 -0.01,0.11864 -0.0271,0.23623 -0.0586,0.35157 -0.34334,1.25717 -1.33452,1.54231 -2.57812,1.75585 -0.31518,0.0541 -0.73094,0.0206 -0.93164,-0.22851 -0.65043,-0.80751 -0.9751,-1.82917 -1.46289,-2.74414 0.0196,-1.56971 0.16739,-3.13308 0.11523,-4.70313 -0.15277,-0.72734 0.29653,-1.35874 0.47266,-2.01367 0.008,-0.0283 -0.0633,0.0423 -0.0859,0.0234 -0.0801,-0.0586 -0.0318,-0.19508 -0.0469,-0.29297 0.21215,-1.8995 0.12274,-1.38845 0.34179,-1.65039 -0.0123,-0.0848 -0.0246,-0.17003 -0.0352,-0.2207 0.0151,0.0265 0.0244,0.0958 0.043,0.0742 0.0212,-0.0239 0.0468,-0.0585 0.0742,-0.0977 0.008,-0.4617 -0.0203,-0.925 0.0215,-1.38477 0.0538,-0.59211 0.64004,-1.59966 0.5293,-2.15625 -0.008,0.0287 -0.008,0.10862 -0.0273,0.0859 -0.16592,-0.21219 -0.11643,-1.26329 -0.0937,-1.61328 -0.0151,-0.82569 0.5766,-1.4761 0.88086,-2.1875 0.19046,-0.44565 0.26835,-1.01522 0.38477,-1.48242 0.0238,-0.099 0.0665,-0.19521 0.0703,-0.29688 0.008,-0.19767 -0.0593,0.17658 -0.082,0.0254 -0.0499,-0.3481 -0.0647,-0.69417 -0.0723,-1.04492 0.0621,-0.85307 -0.008,-0.65752 0.69922,-1.92578 0,0 0,-0.002 0,-0.002 0.0472,-0.13369 0.0954,-0.26288 0.14648,-0.375 0.037,-0.0812 0.098,-0.1488 0.16211,-0.21289 -0.009,-0.0369 -0.0137,-0.0729 -0.0176,-0.10547 0.005,0.007 0.0128,0.0138 0.0215,0.0195 0.0338,0.0221 0.0851,-0.0164 0.13281,-0.0664 -0.0268,-0.0747 -0.0511,-0.13174 -0.0723,-0.17578 -0.0296,0.0334 -0.0663,0.0785 -0.0859,0.13086 0.004,-0.0507 0.0175,-0.0881 0.0469,-0.10937 0.0279,-0.023 0.0233,-0.0193 0.0352,-0.0293 -0.19316,-0.39219 -0.16283,0.34695 -0.16016,-0.62891 0.002,-0.9049 0.19538,-1.24322 0.5,-1.24414 1.19509,-0.004 4.10967,5.17672 3.98438,1.62891 -0.0267,-0.75494 0.0368,-0.25013 -0.50391,-1.43945 -0.035,-0.32475 0.34132,0.55776 0.4668,0.85937 0.16366,0.38907 0.14113,0.88744 0.15625,1.28906 -0.21297,1.29013 -0.2556,1.33266 -0.71094,2.14844 -0.0228,0.0873 -0.0417,0.16908 -0.0508,0.22852 -0.0753,0.11918 -0.15079,0.23848 -0.22656,0.35742 0.0555,0.67442 0.15379,1.39442 -0.0742,2.05859 -0.21918,0.88001 -0.44329,1.70937 -0.80273,2.55078 -0.0714,0.1677 -0.11961,0.36633 -0.26172,0.48047 -0.11112,0.0877 -0.0555,-0.36778 -0.0781,-0.15234 -0.004,0.0703 0.0107,0.2721 -0.0195,0.20898 -0.0272,-0.0559 -0.0642,-0.23972 -0.0566,-0.17773 0.0593,0.50321 0.27821,0.98877 0.19922,1.51172 -0.13796,1.22625 -0.0261,0.73316 -0.28125,1.64257 -0.0797,0.28356 -0.15821,0.5669 -0.24024,0.84961 -0.0181,0.0625 -0.026,0.17897 -0.0391,0.26954 0.12313,-0.24691 0.26163,-0.42433 0.56641,-0.66993 0.0326,-0.15784 0.0682,-0.27738 0.10742,-0.31054 0.11617,-0.0981 0.24111,-0.18034 0.37305,-0.25 0.2929,-0.85442 0.7297,-1.33846 1.37695,-1.93946 0.10054,-0.0903 0.19911,-0.18266 0.30078,-0.27148 0.006,-0.006 0.0182,-0.0172 0.0273,-0.0254 0.0231,-0.70931 0.21516,-1.46118 0.29101,-1.87891 l -0.002,-0.002 c 0.2959,-1.63 1.10323,-2.52848 1.95508,-2.79102 V 440.0293 Z m 16.73437,35.78515 c 0.002,0.004 0.002,0.007 0.004,0.0117 0.0387,-0.0419 0.0743,-0.0873 0.10156,-0.13672 0.0299,-0.0541 -0.0327,0.0486 -0.10547,0.125 z m 0.004,0.0117 c -0.0449,0.0487 -0.0935,0.0935 -0.14063,0.14063 0.014,0.0601 0.0335,0.125 0.0566,0.1914 0.02,-0.0102 0.0273,-0.004 0.01,0.0312 0.14025,0.38763 0.39023,0.8087 0.34766,0.62696 -0.11453,-0.48708 -0.2037,-0.79336 -0.27344,-0.99024 z m -2.75977,12.71094 c -7.1e-4,0.0429 -0.002,0.0861 -0.004,0.12891 0.0644,-0.10132 0.14598,-0.25097 0.2539,-0.4961 0.0633,-0.14408 -0.11511,0.17409 -0.25,0.36719 z m -0.004,0.12891 c -0.03,0.0472 -0.0555,0.0881 -0.0781,0.11523 0.0238,0.16369 0.0486,0.32419 0.0586,0.22461 0.011,-0.11308 0.0157,-0.22633 0.0195,-0.33984 z m 6.91601,3.46875 c 0.30181,-0.29722 0.60746,-0.59089 0.9043,-0.89258 0.0174,-0.10321 0.0362,-0.22237 0.0449,-0.33399 -0.0327,0.0282 -0.0641,0.0545 -0.0977,0.084 -0.30772,0.27035 -0.29731,0.34632 0.0977,-0.26367 -0.009,-0.0519 -0.0316,-0.0706 -0.0742,-0.0254 -0.42312,0.44884 -0.77713,0.95499 -1.11914,1.47071 0.0816,-0.0123 0.16286,-0.0257 0.24414,-0.0391 z m -4.31445,-16.36329 c -0.002,0.0264 -0.002,0.0558 0.002,0.0879 -0.0172,-0.0247 -0.0138,-0.0553 -0.002,-0.0879 z m -0.36523,1.00977 c -0.0279,0.0329 -0.0558,0.0657 -0.082,0.0996 -0.25783,1.21587 -0.1416,0.59551 0.082,-0.0996 z m 4.07421,1.6543 c -0.0548,0.0993 -0.11199,0.20566 -0.17773,0.32812 7.5e-4,0.01 10e-4,0.0196 0.002,0.0293 0.0482,-0.0593 0.12575,-0.1692 0.14453,-0.23047 0.0129,-0.0408 0.024,-0.0836 0.0312,-0.12695 z m -0.53125,0.96289 c -0.0313,0.0501 -0.0627,0.10012 -0.0937,0.15039 -0.0227,0.0367 0.063,-0.0611 0.0781,-0.10156 0.006,-0.0161 0.01,-0.0327 0.0156,-0.0488 z m 2.72657,3.10156 c -0.44888,0.0168 -0.70687,0.15461 -0.51563,0.49805 0.29684,0.53295 0.85348,0.75072 1.49024,0.87109 v -1.2832 c -0.35613,-0.0609 -0.70114,-0.0961 -0.97461,-0.0859 z m -0.63477,1.23047 c -0.005,-0.0143 -0.18985,0.1851 -0.22656,0.27539 -0.0182,0.045 -0.035,0.089 -0.0508,0.13476 0.0905,-0.12893 0.18179,-0.25856 0.26758,-0.39062 0.008,-0.0117 0.0105,-0.0175 0.01,-0.0195 z m -0.25586,2.26172 c -0.008,0.001 -0.0169,2.4e-4 -0.0234,0.002 -1.20866,0.3187 -1.45223,0.34383 -1.6914,0.6875 0.61601,-0.22128 1.32174,-0.2834 1.9414,-0.51562 -0.0865,-0.0479 -0.16133,-0.10698 -0.22656,-0.17383 z m -3.43945,1.39648 c -0.0111,-0.007 0.0324,0.15061 0.084,0.32813 -0.0132,-0.0998 -0.0268,-0.20023 -0.0645,-0.28907 -0.0108,-0.0256 -0.0168,-0.0373 -0.0195,-0.0391 z m 0.85351,0.12305 c -0.0675,0.0955 -0.12537,0.19123 -0.0898,0.21094 -0.0306,0.56707 -0.0432,0.76598 -0.0508,0.89648 0.002,-9.3e-4 0.004,-0.003 0.006,-0.004 0.0225,-0.25802 0.07,-0.73838 0.13476,-1.10351 z m 1.34571,0.55664 c -0.10712,0.002 -0.3118,0.0135 -0.63672,0.0254 -0.0799,0.0951 -0.16161,0.18862 -0.24219,0.2832 0.72441,-0.25598 1.17417,-0.31422 0.87891,-0.30859 z m -2.00977,0.0527 c 0.005,0.0689 0.008,0.1239 0.0117,0.18555 0.0166,-0.0386 0.0349,-0.0741 0.0508,-0.10937 -0.006,-0.002 -0.0122,-0.007 -0.0195,-0.0156 -0.0164,-0.0187 -0.0304,-0.0398 -0.043,-0.0606 z m 0.87891,0.90821 c -0.12686,0.19309 -0.24239,0.39465 -0.35742,0.59765 0.57875,-0.0564 1.15834,-0.10854 1.66992,-0.36328 0.39742,-0.19616 -0.87547,-0.15651 -1.3125,-0.23437 z m -0.82227,3.89843 c -0.0183,0.003 -0.0364,0.007 -0.0547,0.01 0.0195,0.006 0.0381,0.005 0.0547,-0.01 z m -0.51367,0.0859 c -0.0535,0.009 -0.10668,0.0183 -0.16016,0.0274 3.7e-4,0.0253 0.002,0.0508 0.002,0.0762 0.0533,-0.0339 0.10526,-0.0692 0.1582,-0.10352 z m 1.83203,2.27344 c -0.003,-10e-5 -0.006,0.005 -0.01,0.0176 -0.0271,0.11267 -0.0526,0.22486 -0.0781,0.33789 0.0104,-0.007 0.0209,-0.0129 0.0312,-0.0195 0.079,-0.0506 0.0762,-0.33522 0.0566,-0.33594 z m -0.99414,1.93359 c -0.19582,0.12132 -0.3911,0.24362 -0.58398,0.36914 0.002,0.089 0.002,0.17867 0.004,0.26758 0.23379,-0.13384 0.41865,-0.37773 0.58008,-0.63672 z m -0.58203,0.0293 c -0.004,0.0994 -0.006,0.19861 -0.004,0.29883 0.005,-0.008 0.0105,-0.0172 0.0156,-0.0254 -0.002,-0.0609 -0.003,-0.18264 -0.004,-0.27344 -0.003,2.8e-4 -0.005,-2.7e-4 -0.008,0 z m -0.043,0.36719 c -0.18925,0.12399 -0.37564,0.25093 -0.55664,0.38672 -0.0819,0.0612 0.20143,-0.0336 0.30274,-0.0449 0.0388,-0.005 0.0767,-0.0133 0.11328,-0.0234 0.0434,-0.1126 0.0893,-0.22103 0.14062,-0.31836 z m -0.63281,1.27929 c -0.10651,0.0264 -0.21413,0.0513 -0.30664,0.0957 -0.01,0.004 -0.0133,0.0299 -0.002,0.0293 0.12276,-0.006 0.22301,-0.0525 0.30859,-0.125 z" />
    </clipPath>
    <clipPath
       clipPathUnits="userSpaceOnUse"
       id="clipPath13181">
      <path
         id="path13183"
         style="fill:#ff0000;fill-opacity:1;fill-rule:nonzero;stroke:none"
         d="M 108.23633,215.97071 V 678.12696 H 750.6582 V 488.24805 c -0.0104,0.0103 -0.0206,0.0206 -0.0312,0.0312 -0.0313,0.0319 -0.0625,0.0638 -0.0937,0.0957 -0.0354,0.25183 0.003,-0.0211 -0.0664,0.47461 -0.52573,0.81033 -0.6234,1.12277 -1.06055,1.30273 -0.0359,0.043 -0.0731,0.0835 -0.10937,0.12305 0.002,0.0962 -10e-4,0.16635 -0.0156,0.18359 -0.22677,0.27271 -0.46994,0.53033 -0.71875,0.78321 -0.006,0.0383 -0.0124,0.0835 -0.0176,0.11133 -0.0113,0.0635 -0.20668,0.62097 -0.37109,0.66992 -0.16744,0.0498 -0.34081,0.0827 -0.51563,0.11133 -0.12943,0.12746 -0.25818,0.25472 -0.38476,0.38476 -0.0243,-10e-4 -0.0576,0.002 -0.0879,0.002 -0.0998,0.15264 -0.20166,0.3035 -0.30274,0.45508 0.22733,0.0129 0.45254,0.0179 0.67188,-0.004 0.0578,-0.006 0.0742,-0.12658 0.13086,-0.11524 0.0835,0.0187 0.0651,0.33655 -0.0332,0.62305 -0.14026,0.40907 -0.32418,0.80218 -0.48632,1.20312 -0.0774,0.12377 -0.15816,0.24582 -0.23633,0.36914 -0.003,0.0149 -0.005,0.0301 -0.008,0.0449 -0.0227,0.11263 -0.25352,0.38471 -0.19532,0.28515 0.0654,-0.11118 0.13403,-0.22108 0.20313,-0.33008 0.0224,-0.12108 0.0304,-0.24547 0.0351,-0.36914 -0.22483,0.53255 -0.4653,1.05866 -0.70703,1.58399 -0.0389,0.18107 -0.0772,0.36214 -0.11719,0.54297 -0.0605,0.0393 -0.12266,0.0766 -0.18359,0.11523 -0.0333,0.0736 -0.0667,0.14699 -0.0996,0.2207 -0.0565,0.005 -0.11344,0.0116 -0.16992,0.0176 -0.17927,0.24778 -0.43097,0.58246 -0.78906,1.11914 -0.01,0.11864 -0.0271,0.23623 -0.0586,0.35157 -0.34334,1.25717 -1.33452,1.54231 -2.57812,1.75585 -0.31518,0.0541 -0.73094,0.0206 -0.93164,-0.22851 -0.65043,-0.80751 -0.9751,-1.82917 -1.46289,-2.74414 0.0196,-1.56971 0.16739,-3.13308 0.11523,-4.70313 -0.15277,-0.72734 0.29653,-1.35874 0.47266,-2.01367 0.008,-0.0283 -0.0633,0.0423 -0.0859,0.0234 -0.0801,-0.0586 -0.0318,-0.19508 -0.0469,-0.29297 0.21215,-1.8995 0.12274,-1.38845 0.34179,-1.65039 -0.0123,-0.0848 -0.0246,-0.17003 -0.0352,-0.2207 0.0151,0.0265 0.0244,0.0958 0.043,0.0742 0.0212,-0.0239 0.0468,-0.0585 0.0742,-0.0977 0.008,-0.4617 -0.0203,-0.925 0.0215,-1.38477 0.0538,-0.59211 0.64004,-1.59966 0.5293,-2.15625 -0.008,0.0287 -0.008,0.10862 -0.0273,0.0859 -0.16592,-0.21219 -0.11643,-1.26329 -0.0937,-1.61328 -0.0151,-0.82569 0.5766,-1.4761 0.88086,-2.1875 0.19046,-0.44565 0.26835,-1.01522 0.38477,-1.48242 0.0238,-0.099 0.0665,-0.19521 0.0703,-0.29688 0.008,-0.19767 -0.0593,0.17658 -0.082,0.0254 -0.0499,-0.3481 -0.0647,-0.69417 -0.0723,-1.04492 0.0621,-0.85307 -0.008,-0.65752 0.69922,-1.92578 0,0 0,-0.002 0,-0.002 0.0472,-0.13369 0.0954,-0.26288 0.14648,-0.375 0.037,-0.0812 0.098,-0.1488 0.16211,-0.21289 -0.009,-0.0369 -0.0137,-0.0729 -0.0176,-0.10547 0.005,0.007 0.0128,0.0138 0.0215,0.0195 0.0338,0.0221 0.0851,-0.0164 0.13281,-0.0664 -0.0268,-0.0747 -0.0511,-0.13174 -0.0723,-0.17578 -0.0296,0.0334 -0.0663,0.0785 -0.0859,0.13086 0.004,-0.0507 0.0175,-0.0881 0.0469,-0.10937 0.0279,-0.023 0.0233,-0.0193 0.0352,-0.0293 -0.19316,-0.39219 -0.16283,0.34695 -0.16016,-0.62891 0.002,-0.9049 0.19538,-1.24322 0.5,-1.24414 1.19509,-0.004 4.10967,5.17672 3.98438,1.62891 -0.0267,-0.75494 0.0368,-0.25013 -0.50391,-1.43945 -0.035,-0.32475 0.34132,0.55776 0.4668,0.85937 0.16366,0.38907 0.14113,0.88744 0.15625,1.28906 -0.21297,1.29013 -0.2556,1.33266 -0.71094,2.14844 -0.0228,0.0873 -0.0417,0.16908 -0.0508,0.22852 -0.0753,0.11918 -0.15079,0.23848 -0.22656,0.35742 0.0555,0.67442 0.15379,1.39442 -0.0742,2.05859 -0.21918,0.88001 -0.44329,1.70937 -0.80273,2.55078 -0.0714,0.1677 -0.11961,0.36633 -0.26172,0.48047 -0.11112,0.0877 -0.0555,-0.36778 -0.0781,-0.15234 -0.004,0.0703 0.0107,0.2721 -0.0195,0.20898 -0.0272,-0.0559 -0.0642,-0.23972 -0.0566,-0.17773 0.0593,0.50321 0.27821,0.98877 0.19922,1.51172 -0.13796,1.22625 -0.0261,0.73316 -0.28125,1.64257 -0.0797,0.28356 -0.15821,0.5669 -0.24024,0.84961 -0.0181,0.0625 -0.026,0.17897 -0.0391,0.26954 0.12313,-0.24691 0.26163,-0.42433 0.56641,-0.66993 0.0326,-0.15784 0.0682,-0.27738 0.10742,-0.31054 0.11617,-0.0981 0.24111,-0.18034 0.37305,-0.25 0.2929,-0.85442 0.7297,-1.33846 1.37695,-1.93946 0.10054,-0.0903 0.19911,-0.18266 0.30078,-0.27148 0.006,-0.006 0.0182,-0.0172 0.0273,-0.0254 0.0231,-0.70931 0.21516,-1.46118 0.29101,-1.87891 l -0.002,-0.002 c 0.34611,-1.90658 1.39203,-2.81381 2.39062,-2.87109 V 215.97071 Z m 635.26562,259.84374 c 0.002,0.004 0.002,0.007 0.004,0.0117 0.0387,-0.0419 0.0743,-0.0873 0.10156,-0.13672 0.0299,-0.0541 -0.0327,0.0486 -0.10547,0.125 z m 0.004,0.0117 c -0.0449,0.0487 -0.0935,0.0935 -0.14063,0.14063 0.014,0.0601 0.0335,0.125 0.0566,0.1914 0.02,-0.0102 0.0273,-0.004 0.01,0.0312 0.14025,0.38763 0.39023,0.8087 0.34766,0.62696 -0.11453,-0.48708 -0.2037,-0.79336 -0.27344,-0.99024 z m -2.75977,12.71094 c -7.1e-4,0.0429 -0.002,0.0861 -0.004,0.12891 0.0644,-0.10132 0.14598,-0.25097 0.2539,-0.4961 0.0633,-0.14408 -0.11511,0.17409 -0.25,0.36719 z m -0.004,0.12891 c -0.03,0.0472 -0.0555,0.0881 -0.0781,0.11523 0.0238,0.16369 0.0486,0.32419 0.0586,0.22461 0.011,-0.11308 0.0157,-0.22633 0.0195,-0.33984 z m 6.91601,3.46875 c 0.30181,-0.29722 0.60746,-0.59089 0.9043,-0.89258 0.0174,-0.10321 0.0362,-0.22237 0.0449,-0.33399 -0.0327,0.0282 -0.0641,0.0545 -0.0977,0.084 -0.30772,0.27035 -0.29731,0.34632 0.0977,-0.26367 -0.009,-0.0519 -0.0316,-0.0706 -0.0742,-0.0254 -0.42312,0.44884 -0.77713,0.95499 -1.11914,1.47071 0.0816,-0.0123 0.16286,-0.0257 0.24414,-0.0391 z m -4.31445,-16.36329 c -0.002,0.0264 -0.002,0.0558 0.002,0.0879 -0.0172,-0.0247 -0.0138,-0.0553 -0.002,-0.0879 z m -0.36523,1.00977 c -0.0279,0.0329 -0.0558,0.0657 -0.082,0.0996 -0.25783,1.21587 -0.1416,0.59551 0.082,-0.0996 z m 4.07421,1.6543 c -0.0548,0.0993 -0.11199,0.20566 -0.17773,0.32812 7.5e-4,0.01 10e-4,0.0196 0.002,0.0293 0.0482,-0.0593 0.12575,-0.1692 0.14453,-0.23047 0.0129,-0.0408 0.024,-0.0836 0.0312,-0.12695 z m -0.53125,0.96289 c -0.0313,0.0501 -0.0627,0.10012 -0.0937,0.15039 -0.0227,0.0367 0.063,-0.0611 0.0781,-0.10156 0.006,-0.0161 0.01,-0.0327 0.0156,-0.0488 z m 2.72657,3.10156 c -0.44888,0.0168 -0.70687,0.15461 -0.51563,0.49805 0.36279,0.65137 1.11387,0.83126 1.92578,0.9375 v -1.26367 c -0.5013,-0.11106 -1.02517,-0.18625 -1.41015,-0.17188 z m -0.63477,1.23047 c -0.005,-0.0143 -0.18985,0.1851 -0.22656,0.27539 -0.0182,0.045 -0.035,0.089 -0.0508,0.13476 0.0905,-0.12893 0.18179,-0.25856 0.26758,-0.39062 0.008,-0.0117 0.0105,-0.0175 0.01,-0.0195 z m -0.25586,2.26172 c -0.008,0.001 -0.0169,2.4e-4 -0.0234,0.002 -1.20866,0.3187 -1.45223,0.34383 -1.6914,0.6875 0.61601,-0.22128 1.32174,-0.2834 1.9414,-0.51562 -0.0865,-0.0479 -0.16133,-0.10698 -0.22656,-0.17383 z m -3.43945,1.39648 c -0.0111,-0.007 0.0324,0.15061 0.084,0.32813 -0.0132,-0.0998 -0.0268,-0.20023 -0.0645,-0.28907 -0.0108,-0.0256 -0.0168,-0.0373 -0.0195,-0.0391 z m 0.85351,0.12305 c -0.0675,0.0955 -0.12537,0.19123 -0.0898,0.21094 -0.0306,0.56707 -0.0432,0.76598 -0.0508,0.89648 0.002,-9.3e-4 0.004,-0.003 0.006,-0.004 0.0225,-0.25802 0.07,-0.73838 0.13476,-1.10351 z m 1.34571,0.55664 c -0.10712,0.002 -0.3118,0.0135 -0.63672,0.0254 -0.0799,0.0951 -0.16161,0.18862 -0.24219,0.2832 0.72441,-0.25598 1.17417,-0.31422 0.87891,-0.30859 z m -2.00977,0.0527 c 0.005,0.0689 0.008,0.1239 0.0117,0.18555 0.0166,-0.0386 0.0349,-0.0741 0.0508,-0.10937 -0.006,-0.002 -0.0122,-0.007 -0.0195,-0.0156 -0.0164,-0.0187 -0.0304,-0.0398 -0.043,-0.0606 z m 0.87891,0.90821 c -0.12686,0.19309 -0.24239,0.39465 -0.35742,0.59765 0.57875,-0.0564 1.15834,-0.10854 1.66992,-0.36328 0.39742,-0.19616 -0.87547,-0.15651 -1.3125,-0.23437 z m -0.82227,3.89843 c -0.0183,0.003 -0.0364,0.007 -0.0547,0.01 0.0195,0.006 0.0381,0.005 0.0547,-0.01 z m -0.51367,0.0859 c -0.0535,0.009 -0.10668,0.0183 -0.16016,0.0274 3.7e-4,0.0253 0.002,0.0508 0.002,0.0762 0.0533,-0.0339 0.10526,-0.0692 0.1582,-0.10352 z m 1.83203,2.27344 c -0.003,-10e-5 -0.006,0.005 -0.01,0.0176 -0.0271,0.11267 -0.0526,0.22486 -0.0781,0.33789 0.0104,-0.007 0.0209,-0.0129 0.0312,-0.0195 0.079,-0.0506 0.0762,-0.33522 0.0566,-0.33594 z m -0.99414,1.93359 c -0.19582,0.12132 -0.3911,0.24362 -0.58398,0.36914 0.002,0.089 0.002,0.17867 0.004,0.26758 0.23379,-0.13384 0.41865,-0.37773 0.58008,-0.63672 z m -0.58203,0.0293 c -0.004,0.0994 -0.006,0.19861 -0.004,0.29883 0.005,-0.008 0.0105,-0.0172 0.0156,-0.0254 -0.002,-0.0609 -0.003,-0.18264 -0.004,-0.27344 -0.003,2.8e-4 -0.005,-2.7e-4 -0.008,0 z m -0.043,0.36719 c -0.18925,0.12399 -0.37564,0.25093 -0.55664,0.38672 -0.0819,0.0612 0.20143,-0.0336 0.30274,-0.0449 0.0388,-0.005 0.0767,-0.0133 0.11328,-0.0234 0.0434,-0.1126 0.0893,-0.22103 0.14062,-0.31836 z m -0.63281,1.27929 c -0.10651,0.0264 -0.21413,0.0513 -0.30664,0.0957 -0.01,0.004 -0.0133,0.0299 -0.002,0.0293 0.12276,-0.006 0.22301,-0.0525 0.30859,-0.125 z" />
    </clipPath>
    <clipPath
       clipPathUnits="userSpaceOnUse"
       id="clipPath13191">
      <path
         id="path13193"
         style="fill:#ff0000;fill-opacity:1;fill-rule:nonzero;stroke:none"
         d="m 150.21094,304.19531 v 245.02344 h 600.23047 v -60.32813 c -0.49919,0.77535 -0.6066,1.0853 -1.03516,1.26172 -0.0359,0.043 -0.0731,0.0835 -0.10937,0.12305 0.002,0.0962 -10e-4,0.16635 -0.0156,0.18359 -0.22677,0.27271 -0.46994,0.53033 -0.71875,0.78321 -0.006,0.0383 -0.0124,0.0835 -0.0176,0.11133 -0.0113,0.0635 -0.20668,0.62097 -0.37109,0.66992 -0.16744,0.0498 -0.34081,0.0827 -0.51563,0.11133 -0.12943,0.12746 -0.25818,0.25472 -0.38476,0.38476 -0.0243,-10e-4 -0.0576,0.002 -0.0879,0.002 -0.0998,0.15264 -0.20166,0.3035 -0.30274,0.45508 0.22733,0.0129 0.45254,0.0179 0.67188,-0.004 0.0578,-0.006 0.0742,-0.12658 0.13086,-0.11524 0.0835,0.0187 0.0651,0.33655 -0.0332,0.62305 -0.14026,0.40907 -0.32418,0.80218 -0.48632,1.20312 -0.0774,0.12377 -0.15816,0.24582 -0.23633,0.36914 -0.003,0.0149 -0.005,0.0301 -0.008,0.0449 -0.0227,0.11263 -0.25352,0.38471 -0.19532,0.28515 0.0654,-0.11118 0.13403,-0.22108 0.20313,-0.33008 0.0224,-0.12108 0.0304,-0.24547 0.0351,-0.36914 -0.22483,0.53255 -0.4653,1.05866 -0.70703,1.58399 -0.0389,0.18107 -0.0772,0.36214 -0.11719,0.54297 -0.0605,0.0393 -0.12266,0.0766 -0.18359,0.11523 -0.0333,0.0736 -0.0667,0.14699 -0.0996,0.2207 -0.0565,0.005 -0.11344,0.0116 -0.16992,0.0176 -0.17927,0.24778 -0.43097,0.58246 -0.78906,1.11914 -0.01,0.11864 -0.0271,0.23623 -0.0586,0.35157 -0.34334,1.25717 -1.33452,1.54231 -2.57812,1.75585 -0.31518,0.0541 -0.73094,0.0206 -0.93164,-0.22851 -0.65043,-0.80751 -0.9751,-1.82917 -1.46289,-2.74414 0.0196,-1.56971 0.16739,-3.13308 0.11523,-4.70313 -0.15277,-0.72734 0.29653,-1.35874 0.47266,-2.01367 0.008,-0.0283 -0.0633,0.0423 -0.0859,0.0234 -0.0801,-0.0586 -0.0318,-0.19508 -0.0469,-0.29297 0.21215,-1.8995 0.12274,-1.38845 0.34179,-1.65039 -0.0123,-0.0848 -0.0246,-0.17003 -0.0352,-0.2207 0.0151,0.0265 0.0244,0.0958 0.043,0.0742 0.0212,-0.0239 0.0468,-0.0585 0.0742,-0.0977 0.008,-0.4617 -0.0203,-0.925 0.0215,-1.38477 0.0538,-0.59211 0.64004,-1.59966 0.5293,-2.15625 -0.008,0.0287 -0.008,0.10862 -0.0273,0.0859 -0.16592,-0.21219 -0.11643,-1.26329 -0.0937,-1.61328 -0.0151,-0.82569 0.5766,-1.4761 0.88086,-2.1875 0.19046,-0.44565 0.26835,-1.01522 0.38477,-1.48242 0.0238,-0.099 0.0665,-0.19521 0.0703,-0.29688 0.008,-0.19767 -0.0593,0.17658 -0.082,0.0254 -0.0499,-0.3481 -0.0647,-0.69417 -0.0723,-1.04492 0.0621,-0.85307 -0.008,-0.65752 0.69922,-1.92578 0,0 0,-0.002 0,-0.002 0.0472,-0.13369 0.0954,-0.26288 0.14648,-0.375 0.037,-0.0812 0.098,-0.1488 0.16211,-0.21289 -0.009,-0.0369 -0.0137,-0.0729 -0.0176,-0.10547 0.005,0.007 0.0128,0.0138 0.0215,0.0195 0.0338,0.0221 0.0851,-0.0164 0.13281,-0.0664 -0.0268,-0.0747 -0.0511,-0.13174 -0.0723,-0.17578 -0.0296,0.0334 -0.0663,0.0785 -0.0859,0.13086 0.004,-0.0507 0.0175,-0.0881 0.0469,-0.10937 0.0279,-0.023 0.0233,-0.0193 0.0352,-0.0293 -0.19316,-0.39219 -0.16283,0.34695 -0.16016,-0.62891 0.002,-0.9049 0.19538,-1.24322 0.5,-1.24414 1.19509,-0.004 4.10967,5.17672 3.98438,1.62891 -0.0267,-0.75494 0.0368,-0.25013 -0.50391,-1.43945 -0.035,-0.32475 0.34132,0.55776 0.4668,0.85937 0.16366,0.38907 0.14113,0.88744 0.15625,1.28906 -0.21297,1.29013 -0.2556,1.33266 -0.71094,2.14844 -0.0228,0.0873 -0.0417,0.16908 -0.0508,0.22852 -0.0753,0.11918 -0.15079,0.23848 -0.22656,0.35742 0.0555,0.67442 0.15379,1.39442 -0.0742,2.05859 -0.21918,0.88001 -0.44329,1.70937 -0.80273,2.55078 -0.0714,0.1677 -0.11961,0.36633 -0.26172,0.48047 -0.11112,0.0877 -0.0555,-0.36778 -0.0781,-0.15234 -0.004,0.0703 0.0107,0.2721 -0.0195,0.20898 -0.0272,-0.0559 -0.0642,-0.23972 -0.0566,-0.17773 0.0593,0.50321 0.27821,0.98877 0.19922,1.51172 -0.13796,1.22625 -0.0261,0.73316 -0.28125,1.64257 -0.0797,0.28356 -0.15821,0.5669 -0.24024,0.84961 -0.0181,0.0625 -0.026,0.17897 -0.0391,0.26954 0.12313,-0.24691 0.26163,-0.42433 0.56641,-0.66993 0.0326,-0.15784 0.0682,-0.27738 0.10742,-0.31054 0.11617,-0.0981 0.24111,-0.18034 0.37305,-0.25 0.2929,-0.85442 0.7297,-1.33846 1.37695,-1.93946 0.10054,-0.0903 0.19911,-0.18266 0.30078,-0.27148 0.006,-0.006 0.0182,-0.0172 0.0273,-0.0254 0.0231,-0.70931 0.21516,-1.46118 0.29101,-1.87891 l -0.002,-0.002 c 0.32123,-1.76954 1.24438,-2.67839 2.17383,-2.8457 v -175.6836 z m 593.29101,171.61914 c 0.002,0.004 0.002,0.007 0.004,0.0117 0.0387,-0.0419 0.0743,-0.0873 0.10156,-0.13672 0.0299,-0.0541 -0.0327,0.0486 -0.10547,0.125 z m 0.004,0.0117 c -0.0449,0.0487 -0.0935,0.0935 -0.14063,0.14063 0.014,0.0601 0.0335,0.125 0.0566,0.1914 0.02,-0.0102 0.0273,-0.004 0.01,0.0312 0.14025,0.38763 0.39023,0.8087 0.34766,0.62696 -0.11453,-0.48708 -0.2037,-0.79336 -0.27344,-0.99024 z m -2.75977,12.71094 c -7.1e-4,0.0429 -0.002,0.0861 -0.004,0.12891 0.0644,-0.10132 0.14598,-0.25097 0.2539,-0.4961 0.0633,-0.14408 -0.11511,0.17409 -0.25,0.36719 z m -0.004,0.12891 c -0.03,0.0472 -0.0555,0.0881 -0.0781,0.11523 0.0238,0.16369 0.0486,0.32419 0.0586,0.22461 0.011,-0.11308 0.0157,-0.22633 0.0195,-0.33984 z m 6.91601,3.46875 c 0.30181,-0.29722 0.60746,-0.59089 0.9043,-0.89258 0.0174,-0.10321 0.0362,-0.22237 0.0449,-0.33399 -0.0327,0.0282 -0.0641,0.0545 -0.0977,0.084 -0.30772,0.27035 -0.29731,0.34632 0.0977,-0.26367 -0.009,-0.0519 -0.0316,-0.0706 -0.0742,-0.0254 -0.42312,0.44884 -0.77713,0.95499 -1.11914,1.47071 0.0816,-0.0123 0.16286,-0.0257 0.24414,-0.0391 z m -4.31445,-16.36329 c -0.002,0.0264 -0.002,0.0558 0.002,0.0879 -0.0172,-0.0247 -0.0138,-0.0553 -0.002,-0.0879 z m -0.36523,1.00977 c -0.0279,0.0329 -0.0558,0.0657 -0.082,0.0996 -0.25783,1.21587 -0.1416,0.59551 0.082,-0.0996 z m 4.07421,1.6543 c -0.0548,0.0993 -0.11199,0.20566 -0.17773,0.32812 7.5e-4,0.01 10e-4,0.0196 0.002,0.0293 0.0482,-0.0593 0.12575,-0.1692 0.14453,-0.23047 0.0129,-0.0408 0.024,-0.0836 0.0312,-0.12695 z m -0.53125,0.96289 c -0.0313,0.0501 -0.0627,0.10012 -0.0937,0.15039 -0.0227,0.0367 0.063,-0.0611 0.0781,-0.10156 0.006,-0.0161 0.01,-0.0327 0.0156,-0.0488 z m 2.72657,3.10156 c -0.44888,0.0168 -0.70687,0.15461 -0.51563,0.49805 0.3305,0.59338 0.98195,0.79613 1.70899,0.9082 v -1.2793 c -0.43171,-0.0851 -0.86409,-0.13924 -1.19336,-0.12695 z m -0.63477,1.23047 c -0.005,-0.0143 -0.18985,0.1851 -0.22656,0.27539 -0.0182,0.045 -0.035,0.089 -0.0508,0.13476 0.0905,-0.12893 0.18179,-0.25856 0.26758,-0.39062 0.008,-0.0117 0.0105,-0.0175 0.01,-0.0195 z m -0.25586,2.26172 c -0.008,0.001 -0.0169,2.4e-4 -0.0234,0.002 -1.20866,0.3187 -1.45223,0.34383 -1.6914,0.6875 0.61601,-0.22128 1.32174,-0.2834 1.9414,-0.51562 -0.0865,-0.0479 -0.16133,-0.10698 -0.22656,-0.17383 z m -3.43945,1.39648 c -0.0111,-0.007 0.0324,0.15061 0.084,0.32813 -0.0132,-0.0998 -0.0268,-0.20023 -0.0645,-0.28907 -0.0108,-0.0256 -0.0168,-0.0373 -0.0195,-0.0391 z m 0.85351,0.12305 c -0.0675,0.0955 -0.12537,0.19123 -0.0898,0.21094 -0.0306,0.56707 -0.0432,0.76598 -0.0508,0.89648 0.002,-9.3e-4 0.004,-0.003 0.006,-0.004 0.0225,-0.25802 0.07,-0.73838 0.13476,-1.10351 z m 1.34571,0.55664 c -0.10712,0.002 -0.3118,0.0135 -0.63672,0.0254 -0.0799,0.0951 -0.16161,0.18862 -0.24219,0.2832 0.72441,-0.25598 1.17417,-0.31422 0.87891,-0.30859 z m -2.00977,0.0527 c 0.005,0.0689 0.008,0.1239 0.0117,0.18555 0.0166,-0.0386 0.0349,-0.0741 0.0508,-0.10937 -0.006,-0.002 -0.0122,-0.007 -0.0195,-0.0156 -0.0164,-0.0187 -0.0304,-0.0398 -0.043,-0.0606 z m 0.87891,0.90821 c -0.12686,0.19309 -0.24239,0.39465 -0.35742,0.59765 0.57875,-0.0564 1.15834,-0.10854 1.66992,-0.36328 0.39742,-0.19616 -0.87547,-0.15651 -1.3125,-0.23437 z m -0.82227,3.89843 c -0.0183,0.003 -0.0364,0.007 -0.0547,0.01 0.0195,0.006 0.0381,0.005 0.0547,-0.01 z m -0.51367,0.0859 c -0.0535,0.009 -0.10668,0.0183 -0.16016,0.0274 3.7e-4,0.0253 0.002,0.0508 0.002,0.0762 0.0533,-0.0339 0.10526,-0.0692 0.1582,-0.10352 z m 1.83203,2.27344 c -0.003,-10e-5 -0.006,0.005 -0.01,0.0176 -0.0271,0.11267 -0.0526,0.22486 -0.0781,0.33789 0.0104,-0.007 0.0209,-0.0129 0.0312,-0.0195 0.079,-0.0506 0.0762,-0.33522 0.0566,-0.33594 z m -0.99414,1.93359 c -0.19582,0.12132 -0.3911,0.24362 -0.58398,0.36914 0.002,0.089 0.002,0.17867 0.004,0.26758 0.23379,-0.13384 0.41865,-0.37773 0.58008,-0.63672 z m -0.58203,0.0293 c -0.004,0.0994 -0.006,0.19861 -0.004,0.29883 0.005,-0.008 0.0105,-0.0172 0.0156,-0.0254 -0.002,-0.0609 -0.003,-0.18264 -0.004,-0.27344 -0.003,2.8e-4 -0.005,-2.7e-4 -0.008,0 z m -0.043,0.36719 c -0.18925,0.12399 -0.37564,0.25093 -0.55664,0.38672 -0.0819,0.0612 0.20143,-0.0336 0.30274,-0.0449 0.0388,-0.005 0.0767,-0.0133 0.11328,-0.0234 0.0434,-0.1126 0.0893,-0.22103 0.14062,-0.31836 z m -0.63281,1.27929 c -0.10651,0.0264 -0.21413,0.0513 -0.30664,0.0957 -0.01,0.004 -0.0133,0.0299 -0.002,0.0293 0.12276,-0.006 0.22301,-0.0525 0.30859,-0.125 z" />
    </clipPath>
  </defs>
  <sodipodi:namedview
     id="namedview209"
     pagecolor="#ffffff"
     bordercolor="#999999"
     borderopacity="1"
     inkscape:pageshadow="0"
     inkscape:pageopacity="0"
     inkscape:pagecheckerboard="0"
     showgrid="false"
     inkscape:zoom="0.67178375"
     inkscape:cx="551.51676"
     inkscape:cy="362.46783"
     inkscape:window-width="1920"
     inkscape:window-height="1001"
     inkscape:window-x="-1929"
     inkscape:window-y="-9"
     inkscape:window-maximized="1"
     inkscape:current-layer="svg207" />
  <g
     id="g23129">
    <circle
       id="XMLID_69_"
       cx="119.06"
       cy="119.06"
       r="118.4"
       fill="#1362b7"
       stroke-width="0.4625" />
    <g
       style="overflow:visible"
       id="g1377"
       transform="matrix(0.46581943,0,0,0.46581943,0.65428853,-21.03459)">
      <g
         id="g2834"
         transform="matrix(1.3598163,0,0,1.3598163,-90.892778,-288.97487)">
        <path
           id="path2836"
           style="fill:none"
           d="" />
        <g
           id="g2838">
          <g
             id="g2840">
            <path
               id="path2844"
               style="fill:#bd9705;stroke-width:1.68871"
               transform="matrix(0.59216797,0,0,0.59216797,-16.023081,177.64779)"
               d="m 455.5957,150.16406 c -155.83585,0 -282.19922,126.34986 -282.19922,282.19922 -0.002,155.86287 126.36168,282.19727 282.19922,282.19727 155.86288,0 282.21289,-126.33609 282.21289,-282.19727 0,-136.05676 -96.30198,-249.61061 -224.46289,-276.26367 -0.0729,-0.003 -0.1462,-0.003 -0.21875,-0.006 -1.21223,-0.0522 -2.7119,-0.38486 -3.82031,-0.71289 -0.0777,-0.023 -0.15096,-0.0591 -0.22656,-0.0879 -17.32423,-3.32465 -35.19042,-5.12891 -53.48438,-5.12891 z" />
            <path
               id="path2846"
               style="fill:#bd9705"
               d="" />
            <path
               id="path2906"
               style="fill:#bd9705;stroke-width:1.68871"
               transform="matrix(0.59216797,0,0,0.59216797,-16.023081,177.64779)"
               d="m 579.24414,171.72461 c 2.2e-4,10e-4 -2.2e-4,0.003 0,0.004 0.0465,0.0623 0.0919,0.12496 0.14258,0.18359 0.0166,-6.3e-4 0.0298,-9.5e-4 0.0469,-0.002 -0.0634,-0.0618 -0.12615,-0.12392 -0.18945,-0.18555 z m 0.20508,0.20117 c 0.008,0.0373 0.0107,0.0367 0.0176,0.0684 0.0243,0.0265 0.0492,0.0524 0.0742,0.0781 -0.003,-0.0107 -0.007,-0.021 -0.01,-0.0312 -0.0234,-0.0353 -0.0467,-0.0704 -0.0703,-0.10547 -0.004,-0.004 -0.008,-0.006 -0.0117,-0.01 z" />
            <path
               id="path2912"
               style="fill:#bd9705;stroke-width:1.68871"
               transform="matrix(0.59216797,0,0,0.59216797,-16.023081,177.64779)"
               d="m 254.08398,228.50586 c -0.004,-0.007 -0.118,0.12545 -0.12304,0.12305 0.0527,-0.0376 0.10183,-0.0828 0.15429,-0.1211 -0.004,-0.005 -0.029,0.002 -0.0312,-0.002 z" />
            <path
               id="path2920"
               style="fill:#ffe91f;stroke-width:1.68871"
               transform="matrix(0.59216797,0,0,0.59216797,-16.023081,177.64779)"
               d="m 455.5957,156.78516 c -152.18148,0 -275.56445,123.39495 -275.56445,275.57812 0,152.195 123.38128,275.58789 275.56445,275.58789 152.20851,0 275.58985,-123.39289 275.58985,-275.58789 0,-152.18148 -123.38303,-275.57812 -275.58985,-275.57812 z" />
            <path
               id="path2922"
               style="fill:#ffe91f"
               d="" />
            <path
               id="path2924"
               style="fill:#bd9705;stroke-width:1.68871"
               transform="matrix(0.59216797,0,0,0.59216797,-16.023081,177.64779)"
               d="m 455.5957,262.7793 c -93.64404,0 -169.58398,75.93994 -169.58398,169.58398 0,93.66937 75.93994,169.58203 169.58398,169.58203 93.67106,0 169.59766,-75.91097 169.59766,-169.58203 0,-93.64404 -75.9266,-169.58398 -169.59766,-169.58398 z" />
            <path
               id="path2926"
               style="fill:#bd9705"
               d="" />
            <path
               id="path2928"
               style="fill:#0067b1;stroke-width:1.68871"
               transform="matrix(0.59216797,0,0,0.59216797,-16.023081,177.64779)"
               d="m 455.5957,269.13867 c -90.14841,0 -163.22461,73.0762 -163.22461,163.22461 0,90.14841 73.0762,163.23633 163.22461,163.23633 90.16192,0 163.22461,-73.08792 163.22461,-163.23633 0,-90.14841 -73.06438,-163.22461 -163.22461,-163.22461 z" />
            <path
               id="path2930"
               style="fill:#00aeef"
               d="" />
            <path
               id="path2932"
               style="fill:#ffffff;stroke-width:1.68871"
               transform="matrix(0.59216797,0,0,0.59216797,-16.023081,177.64779)"
               d="m 453.3125,280.40234 c -45.99033,47.11164 -37.89118,86.47946 -32.01953,106.73047 5.89697,20.25101 20.32995,50.79351 20.99023,63.66992 0.73797,14.34053 0.60742,27.46643 0.60742,27.63868 h -12.15039 c -2.07035,-37.94363 -6.49296,-55.97658 -26.73046,-69.23633 -20.25102,-13.24455 -42.78317,-5.80462 -47.11133,0.38281 0,0 -14.72335,10.29193 -14.35352,39 0.17225,13.66842 10.30521,23.91834 12.89063,25.7793 2.5719,1.82212 16.30538,9.64532 26.00195,6.29492 -15.01432,-35.47642 36.87539,-44.51338 36.70312,-2.375 h -20.74023 l -0.0273,23.29883 h 44.1582 c -3.11398,25.58058 -14.89293,28.52253 -19.49805,32.75781 1.86096,9.4078 11.18707,11.55738 19.14258,13.24609 -2.66478,10.40921 4.84049,19.20837 11.76758,25.76563 h 0.74023 c 6.9254,-6.55726 14.4462,-15.35642 11.79493,-25.76563 7.942,-1.68871 17.28145,-3.83997 19.1289,-13.24609 -4.60511,-4.2336 -16.37452,-7.17723 -19.52734,-32.75781 h 44.18359 l -0.0371,-23.21875 h -19.76367 l -0.61914,0.0371 c -0.19758,-42.13839 51.38554,-33.21861 36.35937,2.25781 9.66958,3.3504 23.43005,-4.47449 26.00196,-6.29492 2.59892,-1.86096 12.71837,-12.11088 12.89062,-25.7793 0.38334,-28.70807 -14.35547,-39 -14.35547,-39 -4.32816,-6.18912 -26.86208,-13.62905 -47.09961,-0.38281 -20.25101,13.25975 -24.67199,31.2927 -26.75585,69.23633 h -12.08399 c 0,-0.17056 -0.17146,-13.29815 0.55469,-27.63868 0.66028,-12.87641 15.0931,-43.41891 20.97656,-63.66992 5.89698,-20.25101 13.98431,-59.61883 -32.01953,-106.73047 z" />
            <path
               id="path2936"
               style="fill:none;stroke:#000000;stroke-width:0.580916"
               transform="matrix(0.59216797,0,0,0.59216797,-16.023081,177.64779)"
               d="m 455.5957,150.16406 c -155.83585,0 -282.19922,126.34986 -282.19922,282.19922 -0.002,155.86287 126.36168,282.19727 282.19922,282.19727 155.86288,0 282.21289,-126.33609 282.21289,-282.19727 0,-136.05676 -96.30198,-249.61061 -224.46289,-276.26367 -0.0729,-0.003 -0.1462,-0.003 -0.21875,-0.006 -1.21223,-0.0522 -2.7119,-0.38486 -3.82031,-0.71289 -0.0777,-0.023 -0.15096,-0.0591 -0.22656,-0.0879 -17.32423,-3.32465 -35.19042,-5.12891 -53.48438,-5.12891 z" />
            <path
               id="path2938"
               style="fill:none;stroke:#000000;stroke-width:0.193"
               d="" />
            <path
               id="path2940"
               style="fill:none;stroke:#000000;stroke-width:0.580916"
               transform="matrix(0.59216797,0,0,0.59216797,-16.023081,177.64779)"
               d="m 455.5957,156.78516 c -152.18148,0 -275.56445,123.39495 -275.56445,275.57812 0,152.195 123.38128,275.58789 275.56445,275.58789 152.20851,0 275.58985,-123.39289 275.58985,-275.58789 0,-152.18148 -123.38303,-275.57812 -275.58985,-275.57812 z" />
            <path
               id="path2942"
               style="fill:none;stroke:#000000;stroke-width:0.193"
               d="" />
            <path
               id="path2944"
               style="fill:none;stroke:#000000;stroke-width:0.580916"
               transform="matrix(0.59216797,0,0,0.59216797,-16.023081,177.64779)"
               d="m 455.5957,262.7793 c -93.64404,0 -169.58398,75.93994 -169.58398,169.58398 0,93.66937 75.93994,169.58203 169.58398,169.58203 93.67106,0 169.59766,-75.91097 169.59766,-169.58203 0,-93.64404 -75.9266,-169.58398 -169.59766,-169.58398 z" />
            <path
               id="path2946"
               style="fill:none;stroke:#000000;stroke-width:0.193"
               d="" />
            <path
               id="path2948"
               style="fill:none;stroke:#000000;stroke-width:0.580916"
               transform="matrix(0.59216797,0,0,0.59216797,-16.023081,177.64779)"
               d="m 455.5957,269.13867 c -90.14841,0 -163.22461,73.0762 -163.22461,163.22461 0,90.14841 73.0762,163.23633 163.22461,163.23633 90.16192,0 163.22461,-73.08792 163.22461,-163.23633 0,-90.14841 -73.06438,-163.22461 -163.22461,-163.22461 z" />
            <path
               id="path2950"
               style="fill:none;stroke:#000000;stroke-width:0.193"
               d="" />
            <path
               id="path2970"
               style="fill:none;stroke:#000000;stroke-width:0.242"
               d="" />
            <path
               id="path2972"
               style="stroke-width:1.68871"
               transform="matrix(0.59216797,0,0,0.59216797,-16.023081,177.64779)"
               d="m 332.24023,580.65039 -32.24414,49.14453 10.26368,6.74024 11.63671,-17.72852 11.76954,7.7168 c 13.20571,8.66815 23.04648,-0.93644 25.96289,-5.38282 6.33266,-9.65773 4.57891,-19.51412 -4.9336,-25.7539 z m 4.70899,15.22656 8.14062,5.34375 c 6.35969,4.18294 7.73095,7.91564 4.57813,12.70313 -1.42527,2.20376 -5.02831,7.66606 -12.69336,2.62695 l -9.50977,-6.24023 z" />
            <path
               id="path2974"
               style="stroke-width:1.68871"
               transform="matrix(0.59216797,0,0,0.59216797,-16.023081,177.64779)"
               d="m 389.82812,612.11133 c -9.18993,-0.17792 -21.44929,3.68527 -27.31054,22.63086 -8.13958,26.35907 10.43617,35.60934 17.84961,37.90429 7.44045,2.29496 27.99518,5.13056 36.13476,-21.22851 8.12776,-26.37259 -10.43633,-35.60738 -17.86328,-37.90235 -2.08883,-0.64545 -5.21447,-1.33467 -8.81055,-1.40429 z m 1.14844,10.61719 c 1.65303,0.0111 3.21825,0.29071 4.60352,0.7207 6.33266,1.95215 14.03863,8.62835 9.18359,24.3418 -4.86855,15.72695 -14.97414,16.88753 -21.32031,14.92187 -6.33435,-1.95215 -14.05215,-8.61653 -9.18359,-24.3418 3.80355,-12.28668 10.81314,-15.68214 16.71679,-15.64257 z" />
            <path
               id="polyline2976"
               style="stroke-width:1.68871"
               transform="matrix(0.59216797,0,0,0.59216797,-16.023081,177.64779)"
               d="m 429.96094,622.81641 -1.82032,58.76171 41.47852,1.28126 0.33008,-10.63477 -29.20899,-0.89649 1.49024,-48.12695 z" />
            <path
               id="polyline2978"
               style="stroke-width:1.68871"
               transform="matrix(0.59216797,0,0,0.59216797,-16.023081,177.64779)"
               d="m 488.10352,620.74414 -12.15235,1.7168 8.20703,58.19336 12.17774,-1.71485 z" />
            <path
               id="path2980"
               style="stroke-width:1.68871"
               transform="matrix(0.59216797,0,0,0.59216797,-16.023081,177.64779)"
               d="m 528.72461,609.14062 c -3.05602,0.0128 -6.4095,0.56983 -10.04297,1.83985 -14.30168,5.00027 -22.0592,18.81388 -15.27734,38.20703 6.70249,19.17024 20.78026,25.44986 35.54297,20.27734 13.90483,-4.85504 18.85308,-16.04139 16.96679,-28.90429 l -11.61133,4.04883 c 0.98959,7.2834 -2.21492,12.482 -8.62695,14.7246 -9.82829,3.43146 -16.88734,-4.14366 -20.39648,-14.11718 -5.4748,-15.69994 1.42646,-22.25684 6.99414,-24.20899 9.57836,-3.3504 13.5491,2.28343 15.64648,5.29102 l 11.56836,-4.06445 c -2.70985,-6.23505 -9.84933,-13.13959 -20.76367,-13.09376 z" />
            <path
               id="polyline2982"
               style="stroke-width:1.68871"
               transform="matrix(0.59216797,0,0,0.59216797,-16.023081,177.64779)"
               d="m 582.0625,576.93164 -35.54102,24.61719 33.47071,48.32617 36.68945,-25.42188 -5.92383,-8.55078 -26.79492,18.5625 -8.6543,-12.51953 23.55079,-16.32031 -5.92383,-8.5332 -23.55078,16.30468 -7.04493,-10.1582 25.64649,-17.77148 z" />
            <path
               id="path2984"
               style="stroke-width:1.68871"
               transform="matrix(0.59216797,0,0,0.59216797,-16.023081,177.64779)"
               d="m 258.51758,481.59961 c -2.16966,0.006 -4.53996,0.43113 -7.125,1.4082 -9.88064,3.74725 -10.33122,11.79651 -9.32813,20.00196 l 1.78125,14.64453 c 0.34281,2.49253 0.76599,6.37129 -3.53515,7.99414 -4.97325,1.87447 -8.54935,-2.71698 -10.19922,-7.08399 -3.81311,-10.02756 1.66256,-13.15316 3.99805,-14.38086 l -4.16993,-11.02929 c -6.70249,2.63945 -16.02775,11.31971 -9.65625,28.16797 6.75484,17.83784 18.81202,17.03291 24.9336,14.71093 12.08441,-4.57809 10.83277,-13.89125 9.55273,-23.5625 l -0.87109,-6.41211 c -0.81734,-6.34617 -1.2406,-10.9123 3.06054,-12.53515 5.8041,-2.20377 9.3928,3.35099 11.46485,8.77344 3.7996,10.04107 -1.44976,13.77415 -4.48438,15.01367 l 4.18164,11.02929 c 6.80719,-2.58541 17.07186,-10.40962 9.47266,-30.47656 -1.54739,-4.06367 -7.36003,-16.29599 -19.07617,-16.26367 z" />
            <path
               d="m 127.516,430.241 c 9.125,-0.797 13.508,4.375 14.266,13.117 0.281,3.195 -0.086,7.992 -3.242,11.375 -1.961,2.07 -4.695,3.031 -8.172,3.438 l -22.992,1.992 -0.641,-7.398 22.508,-1.938 c 4.828,-0.43 6.711,-3.414 6.422,-6.789 -0.43,-4.977 -3.023,-6.797 -7.227,-6.43 l -22.844,1.977 -0.641,-7.391 22.563,-1.953 m -25.571,7.711 0.477,5.461 -3.695,3.438 4.227,2.695 0.469,5.461 -7.523,-4.898 -0.523,-6.039 z"
               id="path2986" />
            <path
               d="m 139.906,424.546 1.398,-6.992 -13.352,-2.68 1.477,-7.367 c 1.07,-5.273 2.922,-5.203 7.586,-4.266 3.516,0.711 5.328,0.773 7.039,0.625 l 1.586,-7.891 -0.898,-0.188 c -0.875,1.414 -2.109,1.164 -7.102,0.164 -6.367,-1.281 -7.719,0.023 -9.516,2.586 -0.469,-3.609 -3.313,-6.156 -7.078,-6.914 -2.945,-0.594 -9.984,-0.273 -11.805,8.805 l -3.461,17.25 34.126,6.868 m -17.703,-10.836 -9.133,-1.828 1.797,-8.891 c 0.836,-4.188 3.664,-4.453 5.461,-4.086 3.375,0.672 4.297,2.734 3.555,6.445 z"
               id="path2988" />
            <path
               id="polyline2990"
               style="stroke-width:1.68871"
               transform="matrix(0.59216797,0,0,0.59216797,-16.023081,177.64779)"
               d="m 243.0293,298.17578 -19.76368,38.44336 52.27149,26.88867 20.41016,-39.69922 -9.26368,-4.74804 -14.89453,28.9707 -13.53711,-6.95117 13.10157,-25.47656 -9.2461,-4.76172 -13.10156,25.47461 -10.99024,-5.64649 14.24805,-27.74609 z" />
            <path
               id="polyline2992"
               style="stroke-width:1.68871"
               transform="matrix(0.59216797,0,0,0.59216797,-16.023081,177.64779)"
               d="m 284.42773,248.08203 -31.78125,35.69922 7.77149,6.91406 11.80664,-13.25781 36.13477,32.16211 8.16796,-9.16797 -36.14843,-32.17773 11.82031,-13.27149 z" />
            <path
               id="path2994"
               style="stroke-width:1.68871"
               transform="matrix(0.59216797,0,0,0.59216797,-16.023081,177.64779)"
               d="m 318.93945,201.0625 -10.47461,7.0332 0.27735,14.20899 6.86133,-4.60547 z m 15.45117,11.11914 -35.89843,24.0918 32.74414,48.79883 37.06055,-24.85547 -5.79297,-8.62696 -27.0586,18.15235 -8.48242,-12.63672 23.78711,-15.97852 -5.79297,-8.62695 -23.78711,15.96289 -6.89844,-10.26367 25.89649,-17.38867 z" />
            <path
               id="path2996"
               style="stroke-width:1.68871"
               transform="matrix(0.59216797,0,0,0.59216797,-16.023081,177.64779)"
               d="m 413.5625,186.29297 c -0.46949,-0.0129 -0.94798,-0.0126 -1.43555,0.002 -1.614,0.0479 -3.32906,0.24763 -5.14843,0.6211 l -25.42188,5.22656 11.83398,57.58789 24.93555,-5.13281 c 19.0115,-3.90599 20.23635,-22.71687 17.7168,-35.06641 -1.98072,-9.57887 -7.92626,-22.83935 -22.48047,-23.23828 z m -2.875,10.5957 c 4.81489,0.0477 10.5249,2.76211 13.25586,16.04883 1.95215,9.46015 0.68594,19.99941 -9.10352,22.00391 l -11.70312,2.41601 -7.75586,-37.67969 11.55859,-2.375 c 1.12263,-0.23087 2.39988,-0.42743 3.74805,-0.41406 z" />
            <path
               id="path2998"
               style="stroke-width:1.68871"
               transform="matrix(0.59216797,0,0,0.59216797,-16.023081,177.64779)"
               d="m 451.90039,181.2168 -3.19336,38.84179 c -0.30228,5.88516 0.52842,10.72618 3.4043,14.57813 4.76216,6.21445 12.65138,8.17955 18.02148,8.61523 14.77622,1.21419 24.61824,-4.62958 25.88477,-20.03906 l 3.1289,-38.11719 -12.48242,-1.02734 -3.16601,38.60156 c -0.58092,7.09765 -4.35311,10.89851 -12.75782,10.21289 -5.71121,-0.47453 -10.14476,-4.44668 -9.47265,-12.61328 l 3.11523,-38.02344 z" />
            <path
               d="m 322.188,340.522 -1.641,-4.953 c 3.164,-1.375 6.367,-4.18 9.078,-9.219 7.719,-14.391 -2.016,-21.883 -6.078,-24.055 -4.055,-2.18 -15.672,-6.148 -23.398,8.242 -7.734,14.398 2.016,21.875 6.07,24.055 1.797,0.969 5.133,2.32 8.961,2.164 l 1.773,5.414 5.235,-1.648 m -10.672,-14.867 1.508,4.563 c -1.469,-0.023 -2.828,-0.477 -3.898,-1.047 -3.453,-1.859 -7.18,-6.602 -2.57,-15.195 4.609,-8.586 10.625,-8.109 14.086,-6.25 3.453,1.859 7.188,6.602 2.57,15.195 -1.531,2.852 -3.234,4.695 -4.938,5.813 l -1.617,-4.766 z"
               id="path3000" />
            <path
               id="path3002"
               style="stroke-width:1.68871"
               transform="matrix(0.59216797,0,0,0.59216797,-16.023081,177.64779)"
               d="m 615.06055,239.09766 -27.61328,27.49414 c -4.07824,4.26061 -6.57087,8.48246 -6.86133,13.28515 -0.43569,7.81029 4.2865,14.43315 8.09961,18.25977 10.44805,10.5004 21.74197,12.44184 32.70507,1.51758 l 27.10157,-26.9668 -8.83985,-8.86523 -27.42773,27.31054 c -5.06613,5.0256 -10.39453,5.47423 -16.33203,-0.51562 -4.03771,-4.04953 -4.84485,-9.94601 0.96094,-15.73828 l 27.0332,-26.90235 z" />
            <path
               id="path3004"
               style="stroke-width:1.68871"
               transform="matrix(0.59216797,0,0,0.59216797,-16.023081,177.64779)"
               d="m 662.59375,291.97461 -51.33203,28.64258 21.74219,38.95898 9.07617,-5.0664 -15.8711,-28.45899 13.28516,-7.41406 13.9707,25.02539 9.07618,-5.06445 -13.97071,-25.02735 10.80469,-6.02929 15.18555,27.24414 9.10351,-5.06446 z m 13.07422,11.35937 4.04883,7.2168 16.28125,4.6836 -6.1211,-11.01563 z" />
            <path
               d="m 389.68,393.968 1.922,8.109 c 0.75,3.219 0.375,5.391 -2.406,6.055 -2.688,0.633 -4.297,-1.328 -4.961,-4.109 l -1.961,-8.305 7.406,-1.75 m -29.633,-0.172 3.391,14.352 c 1.641,6.93 3.25,8.492 5.594,9.977 2.18,1.383 4.992,1.914 7.68,1.273 3.352,-0.789 6.391,-2.656 6.969,-7.172 1.047,1.242 3.055,3.664 7.922,2.508 3.484,-0.82 8.18,-4.172 6.219,-12.477 l -3.891,-16.469 z m 16.516,3.273 2.133,9.008 c 0.602,2.555 0.07,5.367 -2.898,6.07 -3.453,0.813 -5.43,-0.813 -6.234,-4.25 l -2.055,-8.688 z"
               id="path3006" />
            <path
               id="polyline3008"
               style="stroke-width:1.68871"
               transform="matrix(0.59216797,0,0,0.59216797,-16.023081,177.64779)"
               d="m 646.28711,418.9043 -1.85938,44.56836 10.38086,0.44726 1.35938,-32.56054 15.22656,0.63281 -1.20117,28.6289 10.38281,0.43555 1.1875,-28.62891 12.36133,0.51368 -1.30664,31.17578 10.38476,0.42187 1.82032,-43.17968 z" />
            <path
               id="path3010"
               style="stroke-width:1.68871"
               transform="matrix(0.59216797,0,0,0.59216797,-16.023081,177.64779)"
               d="m 658.6582,473.74609 c -12.17454,0.0774 -20.70813,6.99076 -24.38867,18.14258 -4.60511,13.99772 1.25317,24.72382 12.59961,31.04297 l 3.85156,-11.66211 c -6.37319,-3.65437 -8.55001,-9.36749 -6.41211,-15.81836 3.24402,-9.86882 13.57586,-10.87211 23.61524,-7.56055 15.7793,5.19786 16.78299,14.67083 14.93555,20.27735 -3.16635,9.6324 -10.06618,9.34233 -13.70704,9.18359 l -3.83984,11.66016 c 8.44355,2.09738 22.17787,-0.88291 27.67969,-17.58594 4.76216,-14.39287 -1.47719,-28.94376 -20.99024,-35.38281 -4.82211,-1.5895 -9.28557,-2.32268 -13.34375,-2.29688 z" />
          </g>
        </g>
      </g>
    </g>
  </g>
</svg>
