<svg width="900" height="900" version="1.1" viewBox="0 0 238.12 238.12" xmlns="http://www.w3.org/2000/svg">
 <circle id="XMLID_69_" cx="119.06" cy="119.06" r="118.4" fill="#1362b7" stroke-width=".4625"/>
 <g transform="matrix(.32054 0 0 .32054 38.969 -42.369)">
  <g fill="#bd9705">
   <path d="m446.18 712.4c20.797-2.156 26.883-2.547 35.57 16.148 8.734 18.742 17.445 39.227 17.445 39.227-17-10.461-34.102 0.711-38.797 3.063-1.742 0.859-44.891 37.906-54.055 13.07l-21.359-46.336v0.063c-108.06 30.742-163.7 28.578-269.83-0.383l-0.203 0.32-21.563 46.336c-9.141 24.836-52.305-12.211-54.047-13.07-4.688-2.352-21.789-13.523-38.789-3.063 0 0 8.719-20.484 17.438-39.227 8.688-18.695 14.781-18.305 35.578-16.148l0.031-0.016c3.633-7.813 7.875-16.93 11.906-25.68 10.016-21.789 37.047-13.508 37.047-13.508 118.99 33.555 173.9 35.742 294.65 0 0 0 27.055-8.227 37.047 13.508 4.023 8.742 8.258 17.844 11.875 25.656l0.056 0.04"/>
   <path d="m253.77 600.79c92.297 0 167.12-74.813 167.12-167.11 0-92.289-74.82-167.11-167.12-167.11-92.281 0-167.11 74.82-167.11 167.11-1e-3 92.297 74.827 167.11 167.11 167.11"/>
   <line x1="251.76" x2="251.76" y1="640.53" y2="640.53"/>
   <path d="m252.45 650.05c0.461 0.18 1.266 0.375 2.047 0h-2.047"/>
   <path d="m257.73 650.05c0.867 0.469 1.813 0.18 2.25 0h-2.25"/>
   <path d="m252.45 650.05c0.461 0.18 1.266 0.375 2.047 0h-2.047"/>
   <path d="m257.73 650.05c0.867 0.469 1.813 0.18 2.25 0h-2.25"/>
   <path d="m252.02 650.05c-1.969 6.805-4.211 8.039-7.977 7.563-1.008-0.133-1.828-0.844-2.445-1.844l-0.078-0.211c-2.398 5.672-8.719 11.766-8.719 11.766-2.188 2.117-5.063 3.156-8.07 2.625-2.023-0.359-4.742-5.273-6.539-6.313-2.273-1.32-3.695 0.414-6 2.234-1.547 1.195-5.336 4.18-7.07 5.383-5.734 3.953-9.383 0-14.555-6.844-0.672-0.867-2.523-0.75-3.922-0.625-5.781 0.547-10.359 4.344-16.164 4.133-4.672-0.188-9.5-1.172-12.625-4.43-2.539-2.648 1.484-3.195 3.891-4.445 0 0 1.063-2.82-0.898-2.164-1.961 0.648-12.641 0.313-16.656-1.164-2.453-0.891-4.844-1.695-7.195-2.727-1.234-0.531-1.922-1.609-2.234-2.938h117.26"/>
   <path d="m254.5 650.05c-0.781 0.375-1.586 0.18-2.047 0h2.047"/>
   <path d="m259.98 650.05c-0.438 0.18-1.383 0.469-2.25 0h2.25"/>
   <path d="m376.42 650.05c-0.445 0.727-1.406 1.602-3.086 2.617-7.672 4.648-16.5 3.594-25.055 4.563-2.641 0.297-3.938 3.031-2.617 5.063 0.992 1.523 1.82 4.359 0.656 5.195 0 0-4.148 5.594-28-0.508-0.961-0.234-2.813-1.07-3.883 0.211-0.578 0.711 1.016 4.141 0.547 4.844-0.813 1.211-2.508 1.57-3.773 1.359-15.844-2.563-18.891-10.266-20.789-10.313-1.867-0.055-2.867 3.203-2.867 3.203-2.547 6.227-8.008 3.781-11.82 0.461-2.781-2.43-4.969-5.828-6.492-9.43l-0.117 0.094c-0.289 0.164-0.586 0.25-0.914 0.289-3.773 0.477-6.023-0.789-7.945-7.648h116.16"/>
   <path d="m134.77 650.05c-0.016-0.047-0.023-0.102-0.039-0.156-1.398-6.773 10.219-5.555 3.703-9.813l-7.18-5.227c-5.664-2.367-5.758-5.813-5.57-8.141h13.469c2.391 1.055 4.836 1.922 7.563 1.789 0.297-0.016 0.828-0.43 1.367-0.461-0.039-0.477 0-0.93 0.117-1.328h8.453c5.539 3.664 10.75 8.063 17.5 8.828 1.375-2.266 3.828-2.641 6.07-1.352 3.992 2.313 7.43 5.25 11.352 7.586 3.938 2.352 8.406 1.242 12.813 1.039 1.93-0.102 1.859-2.102 1.57-3.211-0.289-1.141-1.578-1.461-1.805-2.5-0.516-2.305 2.336-2.938 3.938-2.898 5.797 0.125 11.148 2.43 16.797 4.109 3.539 1.047 7.148 1.531 10.898 0.391l1.422-0.484c5.789-4.703 12.398-6.898 12.398-6.898 0.414-0.156 0.813-0.32 1.234-0.477l0.266-0.133c-3.914-0.656-15.469 1.391-15.469 1.391-3.781 0.516-6.867 2.859-10.555 3.023-6.984 0.359-13.453-1.344-20.484-1.359-7.102-0.016-12.367 0.906-19.078-2.18-0.336-0.164-0.836-1.625-0.445-1.742 2.469-0.75 3.273 0.375 5.32-1.68 0.391-0.398 0.492-0.93 0.375-1.453h63.945c-0.016 0.297-0.031 0.641-0.055 0.992l-0.094 0.461c0.367 0.141 0.75 0.258 1.117 0.375l0.297 0.063c0.531-0.266 1.039-0.523 1.547-0.766l0.094-0.086c-0.016-0.367-0.031-0.727-0.047-1.039h60.977c-0.172 1.938 1.672 4.023 5.961 3.664 0 0 3.859-0.32 3.859 1.781 0 3.203-3.914 4.563-6.523 4.922-5.328 0.758-10.57-0.469-15.961-1.797-4.148-1.008-8.633-1.031-12.961 1.578-9.711 5.844-17.711-9.422-31.539-6.375-1.477 0.328-2.883 0.68-4.203 1.063l-0.43 0.156s9.508-0.914 15.891 2.328c6.375 3.25 13.445 7.18 17.781 4.93 0 0 7.852-5.258 12.891-3.25 0 0 3.195 0.313 3.703 3.563 0.531 3.242-4.07-0.102-3.758 3.563 0.234 2.742 3.453 2.93 4.289 2.867 11.305-0.828 19.781-10.336 23.289-12.219 2.641-1.438 6.664-1.008 8.391 2.133 0 0 1.453 3.445 2.117 3.867 0 0 5.195 6.805 10.109-2.734 2.141-4.133 4.258-7.563 6.227-10.039h8.383c0.063 0.805 0.148 1.617 0.367 2.375 0.781 2.547 3.313 2.398 4.773 1.813 3.367-1.344 7.352-4.539 10.859-3.563 2.594 0.711 3.391 2.586 2.719 5.438 0 0 0.07 4.383-12.344 11.422 0 0-1.695 1.789 1.664 2.539-0.289-0.063 3.906 0.805 2.32 3.313h-116.16c-0.016-0.039-0.023-0.078-0.039-0.117 0 0-0.102 0.047-0.242 0.117h-2.25c-0.508-0.211-0.992-0.719-1.328-1.641-1.117-3.031 1.414-5.773 1.414-5.773 0.563-0.734 1.594-1.438 2.836-2.016l-0.172-0.313c-3.266-4.586-4.578-5.016-4.578-5.016s-1.961 1.086-4.148 5.234l0.117 0.125c1.141 0.57 2.117 1.25 2.656 1.953 0 0 2.516 2.75 1.383 5.781-0.359 0.961-0.883 1.469-1.414 1.664h-2.047c-0.234-0.086-0.375-0.164-0.375-0.164-0.016 0.063-0.039 0.117-0.055 0.164h-117.26"/>
   <path d="m347.47 626.72c-4.273 1.039-9.688 1.594-15.016 0.109 0 0-0.109-0.047-0.297-0.109h15.313"/>
   <path d="m125.68 626.72c0.039-0.461 0.102-0.867 0.117-1.227 0.055-0.883 2.289-1.938 3.133-1.945 3.727-0.023 6.922 1.75 10.219 3.172h-13.469"/>
   <path d="m148.2 626.72c0.586-2.133 2.969-3.266 4.93-2.172 1.203 0.672 2.367 1.398 3.523 2.172h-8.453"/>
   <path d="m190.77 626.72c-0.133-0.711-0.641-1.391-1.172-1.641-7.008-3.203-14.672-0.875-22.234-0.547-4.398 0.188-8.375-1.219-12.195-3.156-2.07-1.047-5.43-2.773-3.727-5.195 1.164-1.625 6.727 1.469 4.82-2.422-1.375-2.797-3.984-4.586-6.742-5.781-9.359-4.055-19.961-9.305-23.063-19.563-0.805-2.734 0.836-6.148 3.625-6.75 4.172-0.891 7.266 2.656 11.242 3.961 3.734 1.227 7.031-1.367 10.609-0.672 3.016 0.578 4.906 3.07 7.555 4.414 1.5 0.758 3.805 1.086 4.859-0.578 1.961-3.055-2.391-4.109-3.266-6.414-1.625-4.359 5.547-2.375 8.086-1.352 8.164 3.289 12.672 10.586 19 16.734 1.156 1.133 3.719 1.25 5.461 0.758 0.453-0.141 1.813-1.406 1.055-1.945-0.898-0.664-1.227-0.945-1.984-1.82-0.445-0.516 1.227-1.758 1.32-1.742 8.867 2.031 14.055 7.422 21.266 13.203 1.734 1.406 4.313 1.68 6.375 1.156 2.289-0.547 0.844-4.008 2.617-5.047 1.977-1.195 4.031 0.844 5.742 2.234 3.664 2.969 6.398 6.344 9.336 9.93 0.891 1.07 1.391 2.461 2.328 3.406 0 0 4.43 5.461 9.734 8.711l0.039-0.633c0.203-3.297-0.391-5.844-0.977-6.633l-0.188 0.133c-1.672 1.094-4.164 2.367-5.766 1.273-1.328-0.891-1.039-0.688-1.563-1.32-2.07-2.508 0.258-3.602 0.258-3.602l0.195-0.094c0-0.07-0.063-0.086-0.094-0.109-5.719-5.281-3.93-7.984-1.641-9.625 2.523-1.797 6.469-1.289 8.68 4.531l0.422-0.422c0.953-1.094 2.523 0.133 2.523 0.133 0.305 0.227 2.305 4.391 0.297 6.617-0.148 0.148-0.281 0.297-0.422 0.438l-0.117 0.078c1.023 2.313 1.852 4.734 1.648 9.352h-63.941"/>
   <path d="m257.57 626.72c-0.164-4.563 0.656-6.859 1.688-9.156l-0.078-0.219c-0.164-0.133-0.297-0.289-0.438-0.438-2-2.242 0.039-6.383 0.336-6.617 0 0 1.578-1.211 2.523-0.102l0.414 0.414c2.258-5.805 6.203-6.297 8.703-4.484 2.289 1.656 4.063 4.383-1.695 9.609l0.102 0.211s2.328 1.109 0.234 3.617c-0.508 0.625-0.234 0.414-1.555 1.305-1.617 1.078-4.094-0.203-5.758-1.297l-0.188-0.148c-0.602 0.789-1.203 3.328-1.023 6.625l0.172-0.086c10.625-6.18 15.102-12.523 15.102-12.523 2.594-3.75 5.281-11.633 8.406-12.875-0.258 0.102 3.094-2.781 5.133 1.141 0.523 1.008-0.438 4.625 0.508 5.242 2.094 1.359 4.359 0.086 5.969-1.578 1.852-1.906 3.25-4.289 5.039-6.297 2.148-2.406 4-4.086 7.117-5.32 0 0 5.422-1.969 5.547-1.563 0 0 2.508-0.109 2.406 1.148-0.109 1.195-1.156 1.578-0.219 2.836 0.914 1.195 7.328-1.789 10.68-6.813 3.352-5.031 11.938-10.578 17.797-9.32 0 0 2.828 0.313 6.391 3.664 0 0 0.938 1.992-0.117 2.211 0 0-1.984 0.727-2.719 2.609-2.328 5.984 6.297 2.953 9.211 1.781 0 0 5.656-3.086 7.961-3.664 2.297-0.578 5.797-1.094 7.43 0.727 1.625 1.836 9.461 0.844 10.313 0.367 0.836-0.461 4.188-1.461 3.82 2.781-0.813 9.383-10.133 12.938-18 14.648-13.508 2.93-30.602 8.18-16.328 12.867 7.625 2.523 3.961 5.141 3.445 5.563-0.273 0.211-3.648 1.992-8.43 3.133h-15.313c-1.914-0.586-12.273-3.641-13.414-0.828-0.109 0.266-0.172 0.539-0.195 0.828h-60.977"/>
   <path d="m357.68 626.72c2.539-3.219 4.773-4.844 6.375-4.383 1.867 0.547 1.883 2.406 2.008 4.383h-8.383"/>
   <path d="m252.02 650.05c-1.969 6.805-4.211 8.039-7.977 7.563-1.008-0.133-1.828-0.844-2.445-1.844l-0.078-0.211c-2.398 5.672-8.719 11.766-8.719 11.766-2.188 2.117-5.063 3.156-8.07 2.625-2.023-0.359-4.742-5.273-6.539-6.313-2.273-1.32-3.695 0.414-6 2.234-1.547 1.195-5.336 4.18-7.07 5.383-5.734 3.953-9.383 0-14.555-6.844-0.672-0.867-2.523-0.75-3.922-0.625-5.781 0.547-10.359 4.344-16.164 4.133-4.672-0.188-9.5-1.172-12.625-4.43-2.539-2.648 1.484-3.195 3.891-4.445 0 0 1.063-2.82-0.898-2.164-1.961 0.648-12.641 0.313-16.656-1.164-2.453-0.891-4.844-1.695-7.195-2.727-1.234-0.539-1.922-1.609-2.234-2.938h117.26"/>
   <path d="m254.5 650.05c-0.781 0.375-1.586 0.18-2.047 0h2.047"/>
   <path d="m259.98 650.05c-0.438 0.18-1.383 0.469-2.25 0h2.25"/>
   <path d="m376.42 650.05c-0.445 0.727-1.406 1.602-3.086 2.617-7.672 4.648-16.5 3.594-25.055 4.563-2.641 0.297-3.938 3.031-2.617 5.063 0.992 1.523 1.82 4.359 0.656 5.195 0 0-4.148 5.594-28-0.508-0.961-0.234-2.813-1.07-3.883 0.211-0.578 0.711 1.016 4.141 0.547 4.844-0.813 1.211-2.508 1.57-3.773 1.359-15.844-2.563-18.891-10.266-20.789-10.313-1.867-0.055-2.867 3.203-2.867 3.203-2.547 6.227-8.008 3.781-11.82 0.461-2.781-2.43-4.969-5.828-6.492-9.43l-0.117 0.094c-0.289 0.164-0.586 0.25-0.914 0.289-3.773 0.477-6.023-0.781-7.945-7.648h116.16"/>
   <path d="m134.77 650.05c-0.016-0.047-0.023-0.102-0.039-0.156-1.398-6.773 10.219-5.555 3.703-9.813l-7.18-5.227c-5.672-2.367-5.758-5.813-5.57-8.141h13.461c2.398 1.055 4.844 1.922 7.57 1.789 0.297-0.016 0.828-0.43 1.367-0.461-0.039-0.477 0-0.93 0.117-1.328h8.453c5.531 3.664 10.75 8.063 17.5 8.828 1.375-2.266 3.828-2.641 6.07-1.352 3.992 2.313 7.43 5.25 11.352 7.586 3.938 2.352 8.406 1.242 12.813 1.039 1.93-0.102 1.859-2.102 1.57-3.211-0.289-1.141-1.578-1.461-1.805-2.5-0.516-2.305 2.336-2.938 3.938-2.898 5.797 0.125 11.148 2.43 16.797 4.109 3.539 1.047 7.148 1.531 10.898 0.391l1.422-0.484c5.789-4.703 12.398-6.898 12.398-6.898 0.414-0.156 0.813-0.32 1.234-0.477l0.266-0.133c-3.914-0.656-15.469 1.391-15.469 1.391-3.781 0.516-6.867 2.859-10.555 3.023-6.984 0.359-13.453-1.344-20.484-1.359-7.102-0.016-12.367 0.906-19.078-2.18-0.336-0.164-0.836-1.625-0.445-1.742 2.469-0.75 3.273 0.375 5.32-1.68 0.391-0.398 0.492-0.93 0.375-1.453h63.945c-0.016 0.297-0.031 0.641-0.055 0.992l-0.094 0.461c0.367 0.141 0.75 0.258 1.117 0.375l0.297 0.063c0.531-0.266 1.039-0.523 1.547-0.766l0.094-0.086c-0.016-0.367-0.031-0.727-0.047-1.039h60.977c-0.172 1.938 1.672 4.023 5.961 3.664 0 0 3.859-0.32 3.859 1.781 0 3.203-3.914 4.563-6.523 4.922-5.328 0.758-10.57-0.469-15.961-1.797-4.148-1.008-8.633-1.031-12.961 1.578-9.711 5.844-17.711-9.422-31.539-6.375-1.477 0.328-2.883 0.68-4.203 1.063l-0.43 0.156s9.508-0.914 15.891 2.328c6.375 3.25 13.445 7.18 17.781 4.93 0 0 7.852-5.258 12.891-3.25 0 0 3.195 0.313 3.703 3.563 0.531 3.242-4.07-0.102-3.758 3.563 0.234 2.742 3.453 2.93 4.289 2.867 11.305-0.828 19.781-10.336 23.289-12.219 2.641-1.438 6.664-1.008 8.391 2.133 0 0 1.453 3.445 2.117 3.867 0 0 5.195 6.805 10.109-2.734 2.141-4.133 4.258-7.563 6.227-10.039h8.383c0.063 0.805 0.148 1.617 0.367 2.375 0.781 2.547 3.313 2.398 4.773 1.813 3.367-1.344 7.352-4.539 10.859-3.563 2.594 0.711 3.391 2.586 2.719 5.438 0 0 0.07 4.383-12.344 11.422 0 0-1.695 1.789 1.664 2.539-0.289-0.063 3.906 0.805 2.32 3.313h-116.15c-0.016-0.039-0.023-0.078-0.039-0.117 0 0-0.102 0.047-0.242 0.117h-2.25c-0.508-0.211-0.992-0.719-1.328-1.641-1.117-3.031 1.414-5.773 1.414-5.773 0.563-0.734 1.594-1.438 2.836-2.016l-0.172-0.313c-3.266-4.586-4.578-5.016-4.578-5.016s-1.961 1.086-4.148 5.234l0.117 0.125c1.141 0.57 2.117 1.25 2.656 1.953 0 0 2.516 2.75 1.383 5.781-0.359 0.961-0.883 1.469-1.414 1.664h-2.047c-0.234-0.086-0.375-0.164-0.375-0.164-0.016 0.063-0.039 0.117-0.055 0.164h-117.26"/>
   <path d="m347.48 626.72c-4.281 1.031-9.695 1.594-15.023 0.109 0 0-0.109-0.047-0.297-0.109h15.32"/>
   <path d="m125.68 626.72c0.039-0.461 0.102-0.867 0.117-1.227 0.055-0.883 2.289-1.938 3.133-1.945 3.727-0.023 6.922 1.75 10.211 3.172h-13.461"/>
   <path d="m148.2 626.72c0.586-2.133 2.969-3.266 4.93-2.172 1.203 0.672 2.367 1.398 3.523 2.172h-8.453"/>
   <path d="m190.77 626.72c-0.133-0.711-0.641-1.391-1.172-1.641-7.008-3.203-14.672-0.875-22.234-0.547-4.398 0.188-8.375-1.219-12.195-3.156-2.07-1.047-5.43-2.773-3.727-5.195 1.164-1.625 6.727 1.469 4.82-2.422-1.375-2.797-3.984-4.586-6.742-5.781-9.359-4.055-19.961-9.305-23.063-19.563-0.805-2.734 0.836-6.148 3.625-6.75 4.172-0.891 7.266 2.656 11.242 3.961 3.734 1.227 7.031-1.367 10.609-0.672 3.016 0.578 4.906 3.07 7.555 4.414 1.5 0.758 3.805 1.086 4.859-0.578 1.961-3.055-2.391-4.109-3.266-6.414-1.625-4.359 5.547-2.375 8.086-1.352 8.164 3.289 12.672 10.586 19 16.734 1.156 1.133 3.719 1.25 5.461 0.758 0.453-0.141 1.813-1.406 1.055-1.945-0.898-0.664-1.227-0.945-1.984-1.82-0.445-0.516 1.227-1.758 1.32-1.742 8.867 2.031 14.055 7.422 21.266 13.203 1.734 1.406 4.313 1.68 6.375 1.156 2.289-0.547 0.844-4.008 2.617-5.047 1.977-1.195 4.031 0.844 5.742 2.234 3.664 2.969 6.398 6.344 9.336 9.93 0.891 1.07 1.391 2.461 2.328 3.406 0 0 4.43 5.461 9.734 8.711l0.039-0.633c0.203-3.297-0.391-5.844-0.977-6.633l-0.188 0.133c-1.672 1.094-4.164 2.367-5.766 1.273-1.328-0.891-1.039-0.688-1.563-1.32-2.07-2.508 0.258-3.602 0.258-3.602l0.195-0.094c0-0.07-0.063-0.086-0.094-0.109-5.719-5.281-3.93-7.984-1.641-9.625 2.523-1.797 6.469-1.289 8.68 4.531l0.422-0.422c0.953-1.094 2.523 0.133 2.523 0.133 0.305 0.227 2.305 4.391 0.297 6.617-0.148 0.148-0.281 0.297-0.422 0.438l-0.117 0.078c1.023 2.313 1.852 4.734 1.648 9.352h-63.941"/>
   <path d="m257.57 626.72c-0.164-4.563 0.656-6.859 1.688-9.156l-0.078-0.219c-0.164-0.133-0.297-0.289-0.438-0.438-2-2.242 0.039-6.383 0.336-6.617 0 0 1.578-1.211 2.523-0.102l0.414 0.414c2.258-5.805 6.203-6.297 8.703-4.484 2.289 1.656 4.063 4.383-1.695 9.609l0.102 0.211s2.328 1.109 0.234 3.617c-0.508 0.625-0.234 0.414-1.555 1.305-1.617 1.078-4.094-0.203-5.758-1.297l-0.188-0.148c-0.602 0.789-1.203 3.328-1.023 6.625l0.172-0.086c10.625-6.18 15.102-12.523 15.102-12.523 2.594-3.75 5.281-11.633 8.406-12.875-0.258 0.102 3.094-2.781 5.133 1.141 0.523 1.008-0.438 4.625 0.508 5.242 2.094 1.359 4.359 0.086 5.969-1.578 1.852-1.906 3.25-4.289 5.039-6.297 2.148-2.406 4-4.086 7.117-5.32 0 0 5.422-1.969 5.547-1.563 0 0 2.508-0.109 2.406 1.148-0.109 1.195-1.156 1.578-0.219 2.836 0.914 1.195 7.328-1.789 10.68-6.813 3.352-5.031 11.938-10.578 17.797-9.32 0 0 2.828 0.313 6.391 3.664 0 0 0.938 1.992-0.117 2.211 0 0-1.984 0.727-2.719 2.609-2.328 5.984 6.297 2.953 9.211 1.781 0 0 5.656-3.086 7.961-3.664 2.297-0.578 5.797-1.094 7.43 0.727 1.625 1.836 9.461 0.844 10.313 0.367 0.836-0.461 4.188-1.461 3.82 2.781-0.813 9.383-10.133 12.938-18 14.648-13.508 2.93-30.602 8.18-16.328 12.867 7.625 2.523 3.961 5.141 3.445 5.563-0.273 0.211-3.641 1.992-8.422 3.133h-15.32c-1.922-0.586-12.273-3.641-13.414-0.828-0.109 0.266-0.172 0.539-0.195 0.828h-60.978"/>
   <path d="m357.68 626.72c2.539-3.219 4.773-4.844 6.375-4.383 1.867 0.547 1.883 2.398 2.008 4.383h-8.383"/>
   <path d="m389.88 541.77c2.047-2.367 1.203-6.047 2.406-8.844 1.273-2.961 5.023-3.234 7.75-4.633 1.578-0.789 3.18-1.984 3.75-3.609 0 0 1.188-2.313 1.766-4.492 2.781-10.484-0.453-13.32 6.773-19.281 5.203-4.289 10.969-8.734 12.023-15.836 0.461-3.086 4.297-5.32 6.352-3.617 0.977 0.797-0.336 3.844 1.547 4.93 0.75 0.438 2.063 0.516 2.734 0.039 0 0 2.578-1.969 4-4.344 1.93-3.133 2.453-7.086 5.773-9.336 2.531-1.695 5.852-2.172 8.07-0.797 1.125 0.695 1.188 3.352-0.016 4.953-5.188 6.898-9.813 14.313-9.055 22.867 0.063 0.625 0.344 1.68 1.055 2.07 1.414 0.781 3.391-1.578 4.781-0.742 1.602 0.961 1.148 3.359 0.25 4.523-2.305 2.984-6.484 3.547-8.898 6.422-2.156 2.547-1.75 4.984-1.422 6.5 0.375 1.758 3.172 0.164 3.734 1.352 0 0 3.203 1.539-0.297 11.5l-0.039-0.242c-0.852 4.602-11.18 10.016-10.672 9.719-1.555 0.93-3.789 2.563-4.922 4.367 0 0-2.539 4.648 0.266 5.664 2.797 1.008 2.664 2.68 2.656 3l-0.023-0.344c1.234 4.133-3.422 6.031-6.133 8.219-3.188 2.586-7.531 3.281-11.891 4.117-8.414 1.594-12 6.773-17.531 8.672 0 0-1.953 1.195-8.688 3.117-7.625 2.18-15.258 2.758-23.266 3.695-6.227 0.727-15.031-1.266-20.828-3.031l1.164-0.914c3.875 0.625 11.375 0.883 14.656-0.891 6.008-3.234 7.523-5.156 11.195-10.805 1.156-1.789 3.453-7.633 4.633-9.453 2.836-4.453 7.234-6.672 11.789-9.086"/>
   <path d="m385.32 547.2s3.695-2.625 4.93-6.039"/>
   <path d="m356.98 292.85c-4.695-2.891-8.094-8.359-13.258-9.961-4.852-1.516-9.719-1.07-14.734-2.359-0.586-0.164-1.688-0.563-2.164-1.422-2.164-3.906-3.664-8.648-7.781-10.172-3.492-1.297-7.664 0.055-11.367 1.477-2.203 0.852-4.844 0.672-7-0.734-3.07-2.023-5-6.133-8.5-5.758-7.43 0.805-16.398 4.383-21.875-2.688-2.688-3.469-3.297-8.445 0.922-11.531 0.664-0.484 0.375-2.469-0.375-2.914-3.648-2.125-7.539-3.25-11.164-5.516-2.906-1.828-5.297-3.625-5.969-6.984-1.086-5.445-0.211-14.602-0.43-11.984l1.313-4.578c1.648-1.953 3.281-3.523 5.75-2.734 3.57 1.141 3.859 5.25 5.305 8.227 0.906 1.836 2.727 3.328 4.57 4.094 1.781 0.734 3.609-0.719 5.477-1.203 3.898-1.016 7.914 4.938 11.805 3.602 1.422-0.484 1.023-5.469 2.227-6.141 1.688-0.945 3.977 0.141 5.641 1.195 5.641 3.57 9.836 7.406 15.453 11.055 2.32 1.508 7.188-0.453 7.414-3.922 0 0 1.086-2.188 3.047-1.969 0 0 5.227 2.617 6.531 4.797 0.469 0.773 2.617 1.961 11.336 19.609 8.719 17.656 7.188 21.359 14.164 30.953l3.703 3.922-0.041 3.639"/>
   <path d="m414.95 492.24c3.063-1.938 7.797-9.727 10.727-11.898 3.203-2.383 1.281-0.414 4.578-2.836 2.117-1.57 6.867-0.406 8.719-2.406 0.539-0.57 2.398-2.484 2.609-3.258 1.156-4.32 3.633-4.219 6.977-7.195 1.961-1.742 7.414-8.063 7.414-8.063 2.711-4.461-0.344-8.648 2.383-13.094 1.859-3.008 2.109-3.875 4.594-6.742 3.367-3.891-1.055-9.945-5.453-10.523-0.664-0.094-0.508-1.102-0.5-1.289 0.711-9.992 4.633-19.359 3.391-29.813-0.297-2.469-1.938-4.125-3.125-6.266-0.75-1.344-2.359-1.703-3.57-1.906-1.227-0.203-2.328 0.047-3.57 1-0.242 0.195-0.977 0.094-1.086-0.109-3.531-7.469 1.898-14.797-0.469-22.008-0.383-1.156-1.789-2.578-3.313-2.016-1.875 0.68-4.516 2.281-5.398 8e-3 -0.914-2.359-8e-3 -5.086-0.477-7.539-0.32-1.695-0.734-3.5-1.914-5.18-3.227-4.602-0.945-10.711-2.461-15.563-0.727-2.352-3.992-0.117-5.438 1.445-0.25 0.273-2.805 6.477-2.805 6.477-1.656 4.063-0.109 7.953-4.75 10.422 0 0-4.273 2.5-0.523 17.07 1.531 5.977-5.758 10.188-3.656 16.539 0.945 2.883 3.352 6.188 3.875 9 0.773 4.117-0.203 8.328 0.094 12.617 0.211 3.281 2.766 5.828 3.789 8.992 0.359 1.117 0.32 2.336 0.313 3.453-0.047 7.469-5.023 14.063-2.711 21.836 0.57 1.938 1.82 3.672 2.07 5.398 0.781 5.57-1.938 11.141-4.617 16.219-3.031 5.727 1.031 13.242-2.164 19.391-1.109 2.117-4.141 5.523-4.141 5.523l0.608 2.314"/>
   <path d="m416.52 378.57c0.016 0.211-2.398-0.664-2.398-0.664-1.094-8.281-2.828-10.891-2.828-10.891-3.617-4.625-5.102-8.43-8.414-13.273-0.633-0.922-1.695-1.711-1.82-2.922-0.461-5.258-0.695-10.211-4.68-13.906-3.727-3.461-8.164-5.516-10.766-9.758-2.867-4.688-1.914-10.859-6.203-14.445-5.891-4.914-12.781-7.211-19.227-11.008-0.602-0.352-1.305-1.648-1.656-2.203-2.25-3.594 0.898-6.766 3.109-9.828 1.18-1.633 0.93-4.375-0.836-5.461-1.461-0.898-3.992-0.836-4.367-2.805-0.344-1.859 1.305-3.414 2.633-4.758 0.977-0.984 0.914-3.531-0.203-3.938-4.453-1.641-10.742-1.695-12.281-6.477-0.805-2.492-0.297-5.781 0.891-8.219s4.477-2.922 7.305-2.102c6.656 1.906 12.492 4.992 16.023 11.531 0.258 0.492 1.484 1.164 2.063 0.656 0.797-0.688 1.367-1.297 1.891-1.867 4.063-4.359 10.047 1.195 13.664 4.492 4.5 4.078 6.633 9.539 10.391 14.039 1.039 1.258 2.984-1.469 4.805-1.742 1.273-0.188 2.883 0.297 3.758 1.227 4.797 5.086 5.914 11.93 9.172 18.141 0.492 0.953 5.492 0.195 7.164 1.641 2.211 1.891 2.914 8.359 2.188 10.891-3.117 10.797 0.195 14.867-3.047 24.633-2e-3 1e-3 -7.635 17.43-6.331 39.016"/>
   <path d="m82.422 314.49c0.313-0.875 0.305-3.422 0.531-4.211 1.719-6.375 1.328-13.484 6.008-18.297 0.695-0.719 2.586-0.461 3.961-0.125 2.141 0.523 3.586 2.43 5.586 3.078 0.305 0.102 1.234-0.039 1.508-0.336 2.945-3.336 3.281-7.734 4.945-11.664 2.133-5.008 6.016-8.828 10.461-12.242 1.75-1.344 4.258-2.211 5.641-0.359 0.359 0.484 1.758 2.906 1.461 3.836 0 0 0.219 2.836 2.398 1.086 0.32-1.844 2.648-5.32 3.75-6.602 1.211-1.406 1.938-3.211 3.898-4.234 0 0 5.859-2.234 7.391-2.234 2.461 0 6.273 0.125 8.289 1.766 1.633 1.32 1.633 3.555 1.148 5.32-1.055 3.883-4.984 0.789-7.781 1.852-0.508 0.203-0.648 1.141-0.695 1.609-0.375 3.484 2.438 6.539 1.391 10.102-0.906 3.023-3.734 4.094-5.789 6.391-2.461 2.75-3.328 6.5-1.414 9.516 0 0 4.672 6.547 2.148 11.156-0.977 1.781-2.641 3.141-4.273 4-3.68 1.906-8.055 2.172-11.117 5.086-3.125 2.961-1.258 8.227-3.875 11.406-3.773 4.594-9.078 7.344-12.945 11.914-3.516 4.164-0.57 10.242-3.102 14.828-1.93 3.5-5.328 4.672-7.961 7.922 0 0-1.531 6.102-0.234 11.328l-2.602 2.398c-1.758-4.797-0.445-20.484-7.422-34.219-6.969-13.727-7.836-24.844-7.836-24.844 0.094-2.07-0.539-4.414 1.961-5.008 0 0 3.484 2.836 4.57-0.219"/>
   <path d="m149.11 295.74c4.148-8.492 7.414-9.578 7.414-9.578 4.297-2.328 10.328-1.242 15.047-1.75 1.648-0.172 3.773-1.188 5.008-2.398 3.367-3.313 2.711-8.125 7.742-9.164 4.609-0.953 10.477 0.789 14.922-0.203 3.797-0.859 4.344-4.906 5.469-8.773 0.352-1.195 3.211-1.805 4.125-1.906 8.438-0.938 16.391 5.648 24.617 1.742 2.148-1.016 3.57-3.305 4.797-5.883 1.375-2.891 0.234-8.266-3.492-8.727-0.75-0.086-0.461-2.555-0.211-2.828 2.672-2.844 8.578-3.031 11.117-6.094 2.578-3.125 4.023-4.195 5.438-7.852 1.266-3.273 1.461-8.023 0.883-11.555-0.453-2.758-3.633-4.766-6.383-5.492-1.313-0.336-2.148 0.938-2.781 1.734-2.992 3.688-3.602 9.508-9.039 10.453-3.289 0.578-5.758-2.57-8.836-1.57-1.539 0.5-2.836 1.719-4.328 2.258-2.313 0.82-2.766-3.258-4.813-3.453-8.336-0.797-16.82 5-21.492 12.391-0.5 0.805-1.563 1.492-2.43 1.602-2.078 0.273-4.156 0.258-6.406-0.32-5.219-1.352-10.414 0.992-14.945 3.391-6.695 3.547-10.242 10.688-12.219 18.211-0.367 1.398-1.219 3.383-2.234 4.391-1.75 1.75-4.969 1.234-5.438 3.922-1.133 6.516 0.258 12.984-1.875 19.078-0.883 2.547-3.211 6.953-4.227 9.688l4.57-1.315"/>
   <path d="m92.891 488.84c-4.711-3.805-13.063-6.344-18.078-10.055-2.219-1.617-5.508-1.633-7.648-3.383-1.422-1.148-2.188-3.219-3.445-4.703-5.016-5.906-11.336-10.023-15.797-16.305-2.266-3.172-1.156-7.453-2.961-11.109-1.656-3.359-3.109-6.305-4.93-9.523-1.742-3.086-2.844-6.477-3.25-10.055 0 0-0.555-8.75 6.852-2.867 0 0 1.313-0.875 0.43-4.352-0.867-3.492-1.914-14.227-1.828-14.852 0.523-3.586-0.203-7.375 1.258-10.648 1.82-4.102 6-6.953 10.477-8.172 1.156-0.32 2.156-1.492 1.648-2.734-2.398-5.844-3.305-13.07-1.414-18.859 0.578-1.781 1.594-3.586 3.391-3.938 1.75-0.352 2.93 1.961 4.602 2.844 0.75 0.414 1.625-0.555 2.008-0.984 2.141-2.414 1.25-6.422 3.789-8.406 0.789-0.609 1.742-1.531 1.914-2.078 1.406-4.586-1.016-9.906 1.508-13.945 0.492-0.789 2.766-0.836 4.188 0.461 0.836 0.773 1.609 1.773 1.891 2.539 2 5.602 4.047 10.539 6.727 16.117 0.883 1.859 1.219 3.734 1.164 5.664-0.133 4.938-2.258 9.695-1.016 14.57 0.938 3.633 3.18 6.813 4.055 10.469 0.633 2.594 0.164 5.313-0.797 7.82-1.211 3.148-3.648 5.188-5.805 7.789-0.859 1.047-1.219 3.148-0.602 4.203 2.188 3.727 5.258 7.617 1.992 11.32-2.219 2.523-5.359 4.383-4.5 7.914 0.672 2.766 3.805 4.43 4.445 7.172 0.406 1.789 0.102 4.086-0.859 5.602-1.336 2.102-1.445 4.359-2.25 6.586-0.391 1.125-1.102 2.305-0.367 3.75 1.547 2.984 3.445 5.648 3.914 8.695 0.695 4.508-1.438 8.859-1.367 13.672 0.031 2.484 0.461 4.742 0.641 7.195 0.063 0.828 1.32 1.5 2.055 2.336 0 0 4.914 4.586 5.781 4.586 0.879 0 2.184 5.664 2.184 5.664"/>
   <path d="m161.32 577.76c-6.32 1.531-8.305 1.219-8.305 1.219-6.523 0.664-13.539-0.445-20.023 0.742-8.117 1.508-15.867-1.75-22.742-6.227-5.32-3.461-11.727-1.672-17.102-4.164-6.5-3-10.922-6.172-13.547-12.93-0.453-1.156-0.195-6.055 0.617-6.828 1.453-1.383 2.797-2.547 2.305-4.484-0.438-1.695-1.172-3.477-2.688-4.531-6.727-4.672-13.219-9.828-16.016-17.484-0.961-2.641 1.539-3.797 4.102-5.031 2.711-1.305-4.539-5.266-4.539-5.266-2.898-3.031-6.492-5.734-7.492-9.695-0.633-2.539-0.539-6.297 1.789-7.711 2.328-1.422 7.906 0.133 6.648-4.008-1.523-5.031-5.57-8.852-8.742-13.273-0.922-1.281-0.805-4.063 0.898-4.539 1.617-0.461 3.719-0.148 5.227 0.656 2.57 1.352 4.563 3.703 7.086 5.172 3.297 1.938 7.438 1.797 10.781 3.5 1.75 0.883 3.484 2.258 4.5 4.195 1.93 3.688 3.266 7.016 5.664 10.242 1.844 2.453 5.039 3.266 7.008 5.453 2.07 2.305 3.688 4.938 4.594 8.227 0.898 3.25 0.477 6.508 1.469 9.578 0.5 1.531 0.641 3.336 1.922 4.391 3.57 2.938 7.828 4.875 9.422 9.094 2.219 5.883 2.867 12.445 7.969 16.734 3.914 3.297 8.367 4.891 12.164 8.313 4.164 3.773 5.391 9.641 9.375 13.43 0 0 6.977 2.617 11.336 2.617l6.32 2.608"/>
  </g>
  <path d="m253.77 596.87c90.133 0 163.2-73.07 163.2-163.2 0-90.117-73.063-163.19-163.2-163.19-90.117 0-163.18 73.07-163.18 163.19 0 90.125 73.062 163.2 163.18 163.2" fill="#ffe91f"/>
  <path d="m253.77 534.1c55.469 0 100.43-44.953 100.43-100.42 0-55.453-44.961-100.42-100.43-100.42-55.453 0-100.42 44.969-100.42 100.42 0 55.468 44.969 100.42 100.42 100.42" fill="#bd9705"/>
  <path d="m253.77 530.34c53.391 0 96.656-43.281 96.656-96.664s-43.266-96.656-96.656-96.656c-53.383 0-96.656 43.273-96.656 96.656s43.273 96.664 96.656 96.664" fill="#0067b1"/>
  <path d="m219.29 474.67 0.016-13.797h12.281c0.102-24.953-30.625-19.602-21.734 1.406-5.742 1.984-13.875-2.648-15.398-3.727-1.531-1.102-7.531-7.172-7.633-15.266-0.219-17 8.5-23.094 8.5-23.094 2.563-3.664 15.906-8.07 27.898-0.227 11.984 7.852 14.602 18.531 15.828 41h7.195c0-0.102 0.078-7.875-0.359-16.367-0.391-7.625-8.938-25.711-12.43-37.703-3.477-11.992-8.273-35.305 18.961-63.203 27.242 27.898 22.453 51.211 18.961 63.203-3.484 11.992-12.031 30.078-12.422 37.703-0.43 8.492-0.328 16.266-0.328 16.367h7.156c1.234-22.469 3.852-33.148 15.844-41 11.984-7.844 25.328-3.438 27.891 0.227 0 0 8.727 6.094 8.5 23.094-0.102 8.094-6.094 14.164-7.633 15.266-1.523 1.078-9.672 5.711-15.398 3.727 8.898-21.008-21.648-26.289-21.531-1.336l0.367-0.023h11.703l0.023 13.75h-26.164c1.867 15.148 8.836 16.891 11.563 19.398-1.094 5.57-6.625 6.844-11.328 7.844 1.57 6.164-2.883 11.375-6.984 15.258h-0.438c-4.102-3.883-8.547-9.094-6.969-15.258-4.711-1-10.234-2.273-11.336-7.844 2.727-2.508 9.703-4.25 11.547-19.398h-26.149" fill="#fff"/>
  <g fill="none" stroke="#000">
   <path d="m58.953 360.02c-0.367 5.539 2.102 10.367 5.406 15 1.383 1.945 2.906 4.094 2.445 6.797m-6.82-15.601c-0.367 5.531 2.102 10.359 5.406 15 1.391 1.945 2.906 4.094 2.438 6.789m213.41 264.7c4.664 2.836 9.984 4.156 15.273 4.5 5.773 0.383 11.352 1.664 17.422 0.352 5.367-1.164 10.438-0.789 15.68-2.25 3.391-0.961 6.641-1.742 9.969-2.773 7.117-2.195 12.953-6.711 20.102-8.969 5.266-1.648 10.336-3.227 15.109-5.938 1.109-0.641 2.852-1.102 3.211-2.781" stroke-width=".258"/>
   <path d="m253.77 600.79c92.297 0 167.12-74.813 167.12-167.11 0-92.289-74.82-167.11-167.12-167.11-92.281 0-167.11 74.82-167.11 167.11-1e-3 92.297 74.827 167.11 167.11 167.11z" stroke-width=".344"/>
   <path d="m253.77 596.87c90.133 0 163.2-73.07 163.2-163.2 0-90.117-73.063-163.19-163.2-163.19-90.117 0-163.18 73.07-163.18 163.19 0 90.125 73.062 163.2 163.18 163.2z" stroke-width=".344"/>
   <path d="m253.77 534.1c55.469 0 100.43-44.953 100.43-100.42 0-55.453-44.961-100.42-100.43-100.42-55.453 0-100.42 44.969-100.42 100.42 0 55.468 44.969 100.42 100.42 100.42z" stroke-width=".344"/>
   <path d="m253.77 530.34c53.391 0 96.656-43.281 96.656-96.664s-43.266-96.656-96.656-96.656c-53.383 0-96.656 43.273-96.656 96.656s43.273 96.664 96.656 96.664z" stroke-width=".344"/>
   <path d="m161.32 577.76c-6.32 1.531-8.305 1.219-8.305 1.219-6.523 0.664-13.539-0.445-20.023 0.742-8.117 1.508-15.867-1.75-22.742-6.227-5.32-3.461-11.727-1.672-17.102-4.164-6.5-3-10.922-6.172-13.547-12.93-0.453-1.156-0.195-6.055 0.617-6.828 1.453-1.383 2.797-2.547 2.305-4.484-0.438-1.695-1.172-3.477-2.688-4.531-6.727-4.672-13.219-9.828-16.016-17.484-0.961-2.641 1.539-3.797 4.102-5.031 2.711-1.305-4.539-5.266-4.539-5.266-2.898-3.031-6.492-5.734-7.492-9.695-0.633-2.539-0.539-6.297 1.789-7.711 2.328-1.422 7.906 0.133 6.648-4.008-1.523-5.031-5.57-8.852-8.742-13.273-0.922-1.281-0.805-4.063 0.898-4.539 1.617-0.461 3.719-0.148 5.227 0.656 2.57 1.352 4.563 3.703 7.086 5.172 3.297 1.938 7.438 1.797 10.781 3.5 1.75 0.883 3.484 2.258 4.5 4.195 1.93 3.688 3.266 7.016 5.664 10.242 1.844 2.453 5.039 3.266 7.008 5.453 2.07 2.305 3.688 4.938 4.594 8.227 0.898 3.25 0.477 6.508 1.469 9.578 0.5 1.531 0.641 3.336 1.922 4.391 3.57 2.938 7.828 4.875 9.422 9.094 2.219 5.883 2.867 12.445 7.969 16.734 3.914 3.297 8.367 4.891 12.164 8.313 4.164 3.773 5.391 9.641 9.375 13.43 0 0 6.977 2.617 11.336 2.617zm-68.429-88.914c-4.711-3.805-13.063-6.344-18.078-10.055-2.219-1.617-5.508-1.633-7.648-3.383-1.422-1.148-2.188-3.219-3.445-4.703-5.016-5.906-11.336-10.023-15.797-16.305-2.266-3.172-1.156-7.453-2.961-11.109-1.656-3.359-3.109-6.305-4.93-9.523-1.742-3.086-2.844-6.477-3.25-10.055 0 0-0.555-8.75 6.852-2.867 0 0 1.313-0.875 0.43-4.352-0.867-3.492-1.914-14.227-1.828-14.852 0.523-3.586-0.203-7.375 1.258-10.648 1.82-4.102 6-6.953 10.477-8.172 1.156-0.32 2.156-1.492 1.648-2.734-2.398-5.844-3.305-13.07-1.414-18.859 0.578-1.781 1.594-3.586 3.391-3.938 1.75-0.352 2.93 1.961 4.602 2.844 0.75 0.414 1.625-0.555 2.008-0.984 2.141-2.414 1.25-6.422 3.789-8.406 0.789-0.609 1.742-1.531 1.914-2.078 1.406-4.586-1.016-9.906 1.508-13.945 0.492-0.789 2.766-0.836 4.188 0.461 0.836 0.773 1.609 1.773 1.891 2.539 2 5.602 4.047 10.539 6.727 16.117 0.883 1.859 1.219 3.734 1.164 5.664-0.133 4.938-2.258 9.695-1.016 14.57 0.938 3.633 3.18 6.813 4.055 10.469 0.633 2.594 0.164 5.313-0.797 7.82-1.211 3.148-3.648 5.188-5.805 7.789-0.859 1.047-1.219 3.148-0.602 4.203 2.188 3.727 5.258 7.617 1.992 11.32-2.219 2.523-5.359 4.383-4.5 7.914 0.672 2.766 3.805 4.43 4.445 7.172 0.406 1.789 0.102 4.086-0.859 5.602-1.336 2.102-1.445 4.359-2.25 6.586-0.391 1.125-1.102 2.305-0.367 3.75 1.547 2.984 3.445 5.648 3.914 8.695 0.695 4.508-1.438 8.859-1.367 13.672 0.031 2.484 0.461 4.742 0.641 7.195 0.063 0.828 1.32 1.5 2.055 2.336 0 0 4.914 4.586 5.781 4.586 0.879 0 2.184 5.664 2.184 5.664zm323.63-110.27c0.016 0.211-2.398-0.664-2.398-0.664-1.094-8.281-2.828-10.891-2.828-10.891-3.617-4.625-5.102-8.43-8.414-13.273-0.633-0.922-1.695-1.711-1.82-2.922-0.461-5.258-0.695-10.211-4.68-13.906-3.727-3.461-8.164-5.516-10.766-9.758-2.867-4.688-1.914-10.859-6.203-14.445-5.891-4.914-12.781-7.211-19.227-11.008-0.602-0.352-1.305-1.648-1.656-2.203-2.25-3.594 0.898-6.766 3.109-9.828 1.18-1.633 0.93-4.375-0.836-5.461-1.461-0.898-3.992-0.836-4.367-2.805-0.344-1.859 1.305-3.414 2.633-4.758 0.977-0.984 0.914-3.531-0.203-3.938-4.453-1.641-10.742-1.695-12.281-6.477-0.805-2.492-0.297-5.781 0.891-8.219s4.477-2.922 7.305-2.102c6.656 1.906 12.492 4.992 16.023 11.531 0.258 0.492 1.484 1.164 2.063 0.656 0.797-0.688 1.367-1.297 1.891-1.867 4.063-4.359 10.047 1.195 13.664 4.492 4.5 4.078 6.633 9.539 10.391 14.039 1.039 1.258 2.984-1.469 4.805-1.742 1.273-0.188 2.883 0.297 3.758 1.227 4.797 5.086 5.914 11.93 9.172 18.141 0.492 0.953 5.492 0.195 7.164 1.641 2.211 1.891 2.914 8.359 2.188 10.891-3.117 10.797 0.195 14.867-3.047 24.633-2e-3 1e-3 -7.635 17.43-6.331 39.016zm-1.57 113.67c3.063-1.938 7.797-9.727 10.727-11.898 3.203-2.383 1.281-0.414 4.578-2.836 2.117-1.57 6.867-0.406 8.719-2.406 0.539-0.57 2.398-2.484 2.609-3.258 1.156-4.32 3.633-4.219 6.977-7.195 1.961-1.742 7.414-8.063 7.414-8.063 2.711-4.461-0.344-8.648 2.383-13.094 1.859-3.008 2.109-3.875 4.594-6.742 3.367-3.891-1.055-9.945-5.453-10.523-0.664-0.094-0.508-1.102-0.5-1.289 0.711-9.992 4.633-19.359 3.391-29.813-0.297-2.469-1.938-4.125-3.125-6.266-0.75-1.344-2.359-1.703-3.57-1.906-1.227-0.203-2.328 0.047-3.57 1-0.242 0.195-0.977 0.094-1.086-0.109-3.531-7.469 1.898-14.797-0.469-22.008-0.383-1.156-1.789-2.578-3.313-2.016-1.875 0.68-4.516 2.281-5.398 8e-3 -0.914-2.359-8e-3 -5.086-0.477-7.539-0.32-1.695-0.734-3.5-1.914-5.18-3.227-4.602-0.945-10.711-2.461-15.563-0.727-2.352-3.992-0.117-5.438 1.445-0.25 0.273-2.805 6.477-2.805 6.477-1.656 4.063-0.109 7.953-4.75 10.422 0 0-4.273 2.5-0.523 17.07 1.531 5.977-5.758 10.188-3.656 16.539 0.945 2.883 3.352 6.188 3.875 9 0.773 4.117-0.203 8.328 0.094 12.617 0.211 3.281 2.766 5.828 3.789 8.992 0.359 1.117 0.32 2.336 0.313 3.453-0.047 7.469-5.023 14.063-2.711 21.836 0.57 1.938 1.82 3.672 2.07 5.398 0.781 5.57-1.938 11.141-4.617 16.219-3.031 5.727 1.031 13.242-2.164 19.391-1.109 2.117-4.141 5.523-4.141 5.523zm-332.53-177.75c0.313-0.875 0.305-3.422 0.531-4.211 1.719-6.375 1.328-13.484 6.008-18.297 0.695-0.719 2.586-0.461 3.961-0.125 2.141 0.523 3.586 2.43 5.586 3.078 0.305 0.102 1.234-0.039 1.508-0.336 2.945-3.336 3.281-7.734 4.945-11.664 2.133-5.008 6.016-8.828 10.461-12.242 1.75-1.344 4.258-2.211 5.641-0.359 0.359 0.484 1.758 2.906 1.461 3.836 0 0 0.219 2.836 2.398 1.086 0.32-1.844 2.648-5.32 3.75-6.602 1.211-1.406 1.938-3.211 3.898-4.234 0 0 5.859-2.234 7.391-2.234 2.461 0 6.273 0.125 8.289 1.766 1.633 1.32 1.633 3.555 1.148 5.32-1.055 3.883-4.984 0.789-7.781 1.852-0.508 0.203-0.648 1.141-0.695 1.609-0.375 3.484 2.438 6.539 1.391 10.102-0.906 3.023-3.734 4.094-5.789 6.391-2.461 2.75-3.328 6.5-1.414 9.516 0 0 4.672 6.547 2.148 11.156-0.977 1.781-2.641 3.141-4.273 4-3.68 1.906-8.055 2.172-11.117 5.086-3.125 2.961-1.258 8.227-3.875 11.406-3.773 4.594-9.078 7.344-12.945 11.914-3.516 4.164-0.57 10.242-3.102 14.828-1.93 3.5-5.328 4.672-7.961 7.922 0 0-1.531 6.102-0.234 11.328l-2.602 2.398c-1.758-4.797-0.445-20.484-7.422-34.219-6.969-13.727-7.836-24.844-7.836-24.844 0.094-2.07-0.539-4.414 1.961-5.008 0 0 3.484 2.836 4.57-0.219zm274.56-21.64c-4.695-2.891-8.094-8.359-13.258-9.961-4.852-1.516-9.719-1.07-14.734-2.359-0.586-0.164-1.688-0.563-2.164-1.422-2.164-3.906-3.664-8.648-7.781-10.172-3.492-1.297-7.664 0.055-11.367 1.477-2.203 0.852-4.844 0.672-7-0.734-3.07-2.023-5-6.133-8.5-5.758-7.43 0.805-16.398 4.383-21.875-2.688-2.688-3.469-3.297-8.445 0.922-11.531 0.664-0.484 0.375-2.469-0.375-2.914-3.648-2.125-7.539-3.25-11.164-5.516-2.906-1.828-5.297-3.625-5.969-6.984-1.086-5.445-0.211-14.602-0.43-11.984l1.313-4.578c1.648-1.953 3.281-3.523 5.75-2.734 3.57 1.141 3.859 5.25 5.305 8.227 0.906 1.836 2.727 3.328 4.57 4.094 1.781 0.734 3.609-0.719 5.477-1.203 3.898-1.016 7.914 4.938 11.805 3.602 1.422-0.484 1.023-5.469 2.227-6.141 1.688-0.945 3.977 0.141 5.641 1.195 5.641 3.57 9.836 7.406 15.453 11.055 2.32 1.508 7.188-0.453 7.414-3.922 0 0 1.086-2.188 3.047-1.969 0 0 5.227 2.617 6.531 4.797 0.469 0.773 2.617 1.961 11.336 19.609 8.719 17.656 7.188 21.359 14.164 30.953l3.703 3.922z" stroke-width=".516"/>
   <path d="m84.555 558.68c7.625 2.805 15.664 0.766 23.555-1.195 1.266-0.32 2.586-0.109 3.906-0.109-0.125 0.422 0.133 0.656 0.438 0.875m-42.727-34.001c4.883 6.539 13.633 5.992 20.414 9.313 0.82 0.406 1.984 0.891 2.188 2.031 0.047 0.266-0.227 0.57-0.367 0.852m-30.509-31.813c1.031 1.375 2.594 2.258 4.016 2.828 5.695 2.313 13.969 1.734 17.344 7.633m24.515 16.351c1.648 4.57 0.359 9.25 0.984 13.945 0.336 2.641 1.609 4.703 2.945 6.984m-17.116-43.811c0.922 7.977-1.133 15.75 0.602 23.938 0.5 2.336 2.023 4.211 2.445 6.57m-16.125-48.821c0.523 3.992-0.961 7.813-0.867 11.766m2.171-45.328c-1.945 4.695-5.836 9.461-3.914 14.82m-25.281-16.125c2.414 4.234 8.633 4.016 13.023 5.383 0.734 0.227 1.383 0.914 2.227 1.148m-27.024-33.125c1.992 6.633 6.711 11.648 12.727 15.109 4.539 2.609 9.758 5.07 10.813 10.609m14.812-21.351c-1.563 4.172-6.32 4.938-9.906 7.141-2.063 1.25-4.148 3.164-3.602 5.93m16.125-34c-0.672 2.477-3.094 3.305-4.914 4.07-4.922 2.063-11.984 2.914-13.391 9.008h0.445m20.907-34.875c-0.352 2.273-2.648 2.805-4.094 3.609-3.656 2.047-7.734 2.328-11.945 3.297-1.672 0.383-4.148 1.094-4.438 3.563m-17.429-6.54c-0.148 2.047-0.023 4.047 0.484 6.078 1.516 5.992 6.188 8.953 9.766 13.68 1.164 1.531 1.734 3.516 1.945 5.523m22.664-59.718c-0.094 3.656-4.586 4.813-6.977 6.977m20.493-29.204c2.719-5.523 9-5.227 14.352-6.289 1.281-0.25 2.453-1.109 3.516-2m-11.337-16.125c1.133-2.688 4.578-2.461 7.008-2.781 6.117-0.797 12.164 0.109 18.258-0.453 1.961-0.18 3.742-1.398 5.68-1.992m-52.297 14.383c-0.313 2.141 1.141 3.828 2.281 5.594 3.039 4.688 7.523 7.602 9.492 12.711m-0.875-42.712c-0.703 5.898 1.047 11.055 4.492 16.32 1.031 1.555 0.977 3.852 0.734 5.906m20.493-46.202c-0.828 5.203-0.672 10.484-1.32 15.688m84.132-36.173c1.164 0 2.461-0.305 3.422 0.148 4.313 2.031 8.422 4.016 13.172 4.898 2.914 0.547 5.961 0.797 8.578-0.117 2.414-0.859 4.906 0.188 7.078-1m-57.523 8.712c5.789-0.57 10.875 1.695 16.563 3.031 1.539 0.367 2.883-0.461 4.344-0.414m-37.048 9.586c3.844-1.852 8.398-0.289 12.633-0.945 0.633-0.086 1.18-0.508 1.766-0.797m1.742-32.695c0.383 1.953-1.148 3.375-1.594 5.156-1.461 5.75 0.547 11.211-1.023 16.641m41.406-37.047c-2.266 0.93-2.328 3.453-3.727 5.367-2.156 2.93-0.469 6.625-1.5 9.883m214.88 115.08c0.141 0.922 0.555 1.805 1.016 2.523 2.398 3.727 7.461 5.617 7.43 10.547-8e-3 1.07 1.117 1.961 1.57 3.055m-11.336 10.031c2.109 5.609 8.109 7.758 12.141 11.844 1.18 1.211 2.164 2.617 2.695 4.273m-11.782 8.719c-0.016 1.633 1.117 2.805 2.266 3.305 5.953 2.602 10.664 7.828 9.945 14.563m-12.211 13.515c0 0.734-0.188 1.539 0.109 2.133 1.172 2.414 2.844 4.477 3.836 7.016 1.055 2.695 0.242 5.719 1.719 8.297m18.313-1.313c-3.727 5.523-10.828 5.391-16.555 7.406m25.711-31.383c-2.313 2.961-4.148 6.188-6.664 9.039-3.992 4.523-10.617 2.078-15.133 5.773m17.446-55.351c-1.547 7.305-8.727 10.18-12.93 16.234-0.906 1.289-1.383 2.773-1.906 4.258m6.547-44.469c-2.383 3.148-5.625 5.313-8.055 8.461-1.25 1.602-1.648 3.82-1.969 5.922m-46.203-60.14c3.648 2.766 9.203 0.727 12.203 4.359m-37.492-26.594c6.977 0.492 13.898-1.422 20.859 0.297 2.75 0.672 5.469 1.641 7.922 3.195m28.539 11.11c1.523 9.367-3.773 18.328-8.539 26.602-1.492 2.602-1.148 6.141-1.266 9.359v-0.43m-8.273-59.719c2.656 8.781 1.391 18.602-0.883 27.461m-22.671-47.07c0.852 4.211 1.688 8.305 1.313 12.641m-77.321-17.586c0.594 0 1.219 0.133 1.727-0.063 1.961-0.773 3.461-2.227 5.289-3.344 2.586-1.57 5.406-1.484 8.25-1.383m-43.423-5.96c1.164 0 2.383 0.219 3.445-0.117 6.469-2.023 12.18-6.164 19.227-5.547m-22.234 6.531c1.164 0 2.375 0.227 3.445-0.109 6.461-2.031 12.18-6.172 19.227-5.555m25.281-13.953c9.164 7.57 3.688 20.563 7.398 30.516m-36.617-39.665c1.5 1.023 2.797 2.391 3.297 3.984 2.008 6.258 3.055 12.891 5.867 18.68m84.547 72.789c3.648 2.781 9.211 0.727 12.211 4.359m-38.351-26.578c6.977 0.477 13.883-1.43 20.852 0.281 2.75 0.68 5.469 1.648 7.906 3.203m30.523 9.157c1.508 9.367-2.695 18.539-7.453 26.805-1.492 2.609-1.156 6.148-1.266 9.367v-0.438m-10.469-61.015c2.656 8.781 1.391 18.602-0.867 27.453m-21.351-45.766c0.828 4.219 1.672 8.313 1.305 12.641m-59.282-47.516c9.172 7.563 3.695 20.555 7.414 30.516m-36.187-38.797c1.492 1.023 2.789 2.391 3.297 3.984 2 6.258 3.063 12.891 5.859 18.68m0.43 17.875c0.594 0 1.219 0.133 1.719-0.063 1.977-0.773 3.469-2.227 5.305-3.344 2.578-1.57 5.391-1.492 8.242-1.383m-43.595-5.663c1.164 0 2.383 0.219 3.461-0.117 6.445-2.031 12.172-6.164 19.203-5.555m-138.16 27.461c3.828-1.867 8.391-0.289 12.633-0.938 0.625-0.102 1.164-0.516 1.75-0.805m4.36-11.335c5.781-0.57 10.891 1.695 16.57 3.031 1.523 0.367 2.875-0.461 4.352-0.414m4.796-16.133c1.164 0 2.445-0.305 3.406 0.156 4.313 2.039 8.43 4.016 13.188 4.891 2.906 0.547 5.969 0.805 8.578-0.125 2.422-0.852 4.891 0.203 7.086-0.992m-20.922-28.766c-2.266 0.922-2.328 3.445-3.734 5.367-2.156 2.93-0.477 6.625-1.508 9.875m-34-0.429c0.398 1.953-1.125 3.375-1.586 5.164-1.461 5.742 0.547 11.195-1.016 16.625m-76.726 71.922c2.734-5.516 9-5.211 14.344-6.281 1.289-0.25 2.477-1.109 3.531-2m-10.023-16.555c1.109-2.688 4.57-2.484 7.008-2.797 6.102-0.789 12.141 0.117 18.258-0.445 1.953-0.188 3.742-1.398 5.688-1.992m-54.493 13.945c-0.313 2.141 1.141 3.82 2.281 5.602 3.039 4.688 7.523 7.586 9.492 12.703m-0.445-42.711c-0.703 5.898 1.063 11.055 4.508 16.32 1.023 1.555 0.969 3.844 0.727 5.906m21.358-45.336c-0.828 5.211-0.664 10.484-1.305 15.695m-35.741 166.95c-1.938 4.688-5.844 9.453-3.93 14.82m2.617-39.234c-1.57 4.188-6.32 4.953-9.922 7.141-2.039 1.258-4.133 3.172-3.594 5.938m15.704-33.126c-0.672 2.477-3.109 3.305-4.922 4.063-4.922 2.063-11.992 2.914-13.383 9.008h0.43m21.789-35.305c-0.352 2.273-2.648 2.805-4.094 3.609-3.656 2.047-7.742 2.328-11.953 3.297-1.664 0.383-4.141 1.102-4.438 3.563m17.008-40.969c-0.125 3.648-4.594 4.805-6.984 6.969m-24.844 88.476c2.422 4.242 8.633 4.023 13.031 5.391 0.727 0.227 1.391 0.914 2.227 1.156m-27.461-35.305c2 6.633 6.719 11.648 12.727 15.102 4.539 2.602 9.75 5.07 10.805 10.609m-15.243-58.406c-0.148 2.055-0.023 4.055 0.484 6.086 1.516 5.984 6.188 8.953 9.766 13.68 1.164 1.523 1.734 3.508 1.945 5.508m389.24 41.851c-3.734 5.531-10.852 5.398-16.57 7.406m25.719-31.383c-2.313 2.953-4.141 6.195-6.672 9.047-3.984 4.516-10.602 2.063-15.117 5.781m18.734-57.109c-1.531 7.305-8.719 10.18-12.93 16.234-0.891 1.289-1.375 2.773-1.883 4.258m6.532-44.469c-2.383 3.148-5.633 5.313-8.063 8.461-1.242 1.602-1.641 3.82-1.961 5.922m-10.89 56.664c0 0.742-0.195 1.547 0.102 2.141 1.18 2.406 2.852 4.469 3.836 7.008 1.055 2.703 0.227 5.727 1.727 8.297m-7.845-47.954c-0.016 1.633 1.117 2.797 2.258 3.305 5.945 2.609 10.68 7.82 9.945 14.57m-15.687-43.148c2.109 5.609 8.102 7.758 12.125 11.852 1.18 1.203 2.172 2.609 2.688 4.266m-11.766-40.962c0.125 0.914 0.555 1.797 1.023 2.516 2.406 3.734 7.453 5.625 7.43 10.563-8e-3 1.055 1.102 1.961 1.57 3.047m-324.73 156.04c1.641 4.57 0.367 9.25 0.977 13.938 0.336 2.648 1.602 4.703 2.953 6.984m-17.437-45.758c0.93 7.969-1.133 15.75 0.602 23.922 0.492 2.344 2.023 4.219 2.445 6.586m-17.438-49.695c0.531 3.984-0.953 7.813-0.875 11.766m2.188 58.406c7.633 2.805 15.664 0.773 23.563-1.195 1.258-0.313 2.578-0.102 3.891-0.102-0.109 0.414 0.133 0.656 0.445 0.867m-41.845-34.867c4.875 6.547 13.633 5.992 20.391 9.313 0.836 0.406 1.992 0.898 2.203 2.031 0.047 0.258-0.227 0.563-0.367 0.859m-31.383-32.258c1.031 1.383 2.594 2.25 4.016 2.828 5.688 2.313 13.977 1.727 17.344 7.633m13.077-151.68c1.25-5.938 0.133-11.906 0.805-17.836 1.156-10.039 3.898-19.578 7.156-29.195 1.133-3.359 2.914-6.508 5.336-8.969 5.625-5.719 8.773-12.656 15.586-17.492 3.5-2.484 7.359-3.789 10.164-6.867 3.516-3.883 6.297-7.813 9.016-12.422 0.727-1.227 2.219-0.211 3.359-0.5m-53.172 93.711c1.258-5.93 0.148-11.906 0.82-17.82 1.148-10.055 3.891-19.594 7.148-29.211 1.133-3.359 2.906-6.508 5.336-8.969 5.625-5.719 8.789-12.656 15.586-17.484 3.5-2.484 7.352-3.789 10.164-6.875 3.516-3.875 6.305-7.797 9.008-12.406 0.734-1.242 2.227-0.227 3.375-0.508m-68.218 76.929c0.742 6.547 0.039 12.25-1.328 18.914-2.195 10.734-6.758 19.531-9.07 30.18-3.875 17.953-3.242 34.898-0.484 52.578 1.742 11.227 7.711 21.055 13.719 30.617m-2.188-135.12c0.75 6.539 1.141 12.891-0.227 19.563-2.195 10.727-6.766 19.539-9.07 30.188-3.883 17.945-3.242 34.891-0.492 52.578 1.742 11.211 7.711 21.047 13.719 30.609m-19.173 3.922c7.008 1.391 11.469 7.023 14.922 12.844 3.203 5.398 2.992 11.898 5.43 17.539 2.891 6.75 4.461 13.672 8.539 20.094 2.742 4.305 5.102 8.359 8.367 12.094 10.656 12.172 22.188 22.781 37.117 29.32 2.383 1.039 4.375 2.398 6.695 3.125m-81.296-96.102c7.016 1.391 12.578 6.367 16.023 12.172 3.211 5.414 3 11.914 5.414 17.555 2.914 6.734 4.477 13.672 8.563 20.086 2.734 4.313 5.094 8.359 8.367 12.109 10.664 12.172 22.18 22.781 37.102 29.313m297.34-229.97c-0.648 21.938 1.266 43.125 4.977 65.438 2.359 14.156 0.773 27.516-3.484 40.992-0.633 2.008-0.188 4.281-0.766 6.445-2.438 8.969-5.93 17.008-9.773 25.211m9.569-136.43c-0.445 21.945 1.633 43.117 5.555 65.398 2.484 14.133 1 27.5-3.141 41.023-0.617 2.008-0.141 4.273-0.711 6.453-2.359 8.984-5.773 17.047-9.555 25.289m-72.781-219.68c8.492 5.594 16.164 11.984 23.273 19.422 3.016 3.156 5.75 6.227 8.352 9.922 4.313 6.117 7.469 12.188 10.359 18.727 2.484 5.68 4.656 11.453 6.688 17.359 4 11.602 6.297 22.992 9.195 35.18 0.133 0.578 0.086 1.797 0.969 2.258m-56.656-101.56c8.508 5.586 16.18 11.984 23.266 19.414 3.016 3.164 5.758 6.227 8.352 9.922 4.313 6.117 7.484 12.188 10.367 18.734 2.492 5.68 4.648 11.445 6.695 17.352 4 11.602 6.281 23 9.188 35.18 0.141 0.578 0.078 1.805 0.969 2.266m-261.09-78.899c3.508-4.5 7.5-8.25 12.375-11.516 7.242-4.844 13.234-9.586 20.617-13.992 7.742-4.609 15.063-8.563 22.914-12.617 11.031-5.695 22.328-9.531 33.211-15.492 2.609-1.43 3.508-6.313 2.852-8.711m-92.407 61.016c3.516-4.492 7.508-8.242 12.383-11.508 7.227-4.844 13.219-9.586 20.602-14 7.742-4.609 15.078-8.563 22.922-12.609 11.023-5.688 22.328-9.539 33.211-15.492 2.609-1.43 3.039-5.367 2.852-8.719m14.819-0.43c1.055 8.57 6.766 10.063 15.078 14.805 7.211 4.109 14.477 7.305 21.68 11.414 18.211 10.422 36.695 19.523 50.859 34.805m-87.617-61.024c1.055 8.57 5.023 10.5 13.336 15.234 7.219 4.117 14.477 7.305 21.688 11.43 18.188 10.406 36.695 19.516 50.844 34.789" stroke-width=".258"/>
   <path d="m149.11 295.74c4.148-8.492 7.414-9.578 7.414-9.578 4.297-2.328 10.328-1.242 15.047-1.75 1.648-0.172 3.773-1.188 5.008-2.398 3.367-3.313 2.711-8.125 7.742-9.164 4.609-0.953 10.477 0.789 14.922-0.203 3.797-0.859 4.344-4.906 5.469-8.773 0.352-1.195 3.211-1.805 4.125-1.906 8.438-0.938 16.391 5.648 24.617 1.742 2.148-1.016 3.57-3.305 4.797-5.883 1.375-2.891 0.234-8.266-3.492-8.727-0.75-0.086-0.461-2.555-0.211-2.828 2.672-2.844 8.578-3.031 11.117-6.094 2.578-3.125 4.023-4.195 5.438-7.852 1.266-3.273 1.461-8.023 0.883-11.555-0.453-2.758-3.633-4.766-6.383-5.492-1.313-0.336-2.148 0.938-2.781 1.734-2.992 3.688-3.602 9.508-9.039 10.453-3.289 0.578-5.758-2.57-8.836-1.57-1.539 0.5-2.836 1.719-4.328 2.258-2.313 0.82-2.766-3.258-4.813-3.453-8.336-0.797-16.82 5-21.492 12.391-0.5 0.805-1.563 1.492-2.43 1.602-2.078 0.273-4.156 0.258-6.406-0.32-5.219-1.352-10.414 0.992-14.945 3.391-6.695 3.547-10.242 10.688-12.219 18.211-0.367 1.398-1.219 3.383-2.234 4.391-1.75 1.75-4.969 1.234-5.438 3.922-1.133 6.516 0.258 12.984-1.875 19.078-0.883 2.547-3.211 6.953-4.227 9.688z" stroke-width=".516"/>
   <path d="m200.49 253.57c1.164 0 2.461-0.305 3.422 0.148 4.313 2.031 8.422 4.016 13.172 4.898 2.914 0.547 5.961 0.797 8.578-0.117 2.414-0.859 4.906 0.188 7.078-1m-57.523 8.712c5.789-0.57 10.875 1.695 16.563 3.031 1.539 0.367 2.883-0.461 4.344-0.414m-37.048 9.586c3.844-1.852 8.398-0.289 12.633-0.945 0.633-0.086 1.18-0.508 1.766-0.797m1.742-32.695c0.383 1.953-1.148 3.375-1.594 5.156-1.461 5.75 0.547 11.211-1.023 16.641m41.406-37.047c-2.266 0.93-2.328 3.453-3.727 5.367-2.156 2.93-0.469 6.625-1.5 9.883m-49.258 35.312c3.828-1.867 8.391-0.289 12.633-0.938 0.625-0.102 1.164-0.516 1.75-0.805m4.36-11.335c5.781-0.57 10.891 1.695 16.57 3.031 1.523 0.367 2.875-0.461 4.352-0.414m4.796-16.133c1.164 0 2.445-0.305 3.406 0.156 4.313 2.039 8.43 4.016 13.188 4.891 2.906 0.547 5.969 0.805 8.578-0.125 2.422-0.852 4.891 0.203 7.086-0.992m-20.922-28.766c-2.266 0.922-2.328 3.445-3.734 5.367-2.156 2.93-0.477 6.625-1.508 9.875m-34-0.429c0.398 1.953-1.125 3.375-1.586 5.164-1.461 5.742 0.547 11.195-1.016 16.625m-20.929 20.492c3.508-4.5 7.5-8.25 12.375-11.516 7.242-4.844 13.234-9.586 20.617-13.992 7.742-4.609 15.063-8.563 22.914-12.617 11.031-5.695 22.328-9.531 33.211-15.492 2.609-1.43 3.508-6.313 2.852-8.711m-92.407 61.016c3.516-4.492 7.508-8.242 12.383-11.508 7.227-4.844 13.219-9.586 20.602-14 7.742-4.609 15.078-8.563 22.922-12.609 11.023-5.688 22.328-9.539 33.211-15.492 2.609-1.43 3.039-5.367 2.852-8.719" stroke-width=".258"/>
   <path d="m385.32 547.2s3.695-2.625 4.93-6.039l-0.375 0.609c2.047-2.367 1.203-6.047 2.406-8.844 1.273-2.961 5.023-3.234 7.75-4.633 1.578-0.789 3.18-1.984 3.75-3.609 0 0 1.188-2.313 1.766-4.492 2.781-10.484-0.453-13.32 6.773-19.281 5.203-4.289 10.969-8.734 12.023-15.836 0.461-3.086 4.297-5.32 6.352-3.617 0.977 0.797-0.336 3.844 1.547 4.93 0.75 0.438 2.063 0.516 2.734 0.039 0 0 2.578-1.969 4-4.344 1.93-3.133 2.453-7.086 5.773-9.336 2.531-1.695 5.852-2.172 8.07-0.797 1.125 0.695 1.188 3.352-0.016 4.953-5.188 6.898-9.813 14.313-9.055 22.867 0.063 0.625 0.344 1.68 1.055 2.07 1.414 0.781 3.391-1.578 4.781-0.742 1.602 0.961 1.148 3.359 0.25 4.523-2.305 2.984-6.484 3.547-8.898 6.422-2.156 2.547-1.75 4.984-1.422 6.5 0.375 1.758 3.172 0.164 3.734 1.352 0 0 3.203 1.539-0.297 11.5l-0.039-0.242c-0.852 4.602-11.18 10.016-10.672 9.719-1.555 0.93-3.789 2.563-4.922 4.367 0 0-2.539 4.648 0.266 5.664 2.797 1.008 2.664 2.68 2.656 3l-0.023-0.344c1.234 4.133-3.422 6.031-6.133 8.219-3.188 2.586-7.531 3.281-11.891 4.117-8.414 1.594-12 6.773-17.531 8.672 0 0-1.953 1.195-8.688 3.117-7.625 2.18-15.258 2.758-23.266 3.695-6.227 0.727-15.031-1.266-20.828-3.031l1.164-0.914c3.875 0.625 11.375 0.883 14.656-0.891 6.008-3.234 7.523-5.156 11.195-10.805 1.156-1.789 3.453-7.633 4.633-9.453 2.839-4.452 7.238-6.671 11.792-9.085z" stroke-width=".516"/>
   <path d="m355.23 641.5c2.25-2.813 1.898-6.492 3.695-9.469 0.664-1.086 1.586-2.109 2.414-3.172m-16.57 20.055c6.766 2.75 14.188 2.109 21.359 2.172m-71.914 3.922c-0.391 1 0.547 1.547 0.992 2.078 2.922 3.602 6.477 6.242 10.773 7.945m17.43-13.07c3.375-2.508 4.047-6.516 6.195-9.969 0.938-1.531 2.281-2.633 3.398-3.984m14.821 10.031c6.766 2.75 14.172 2.125 21.359 2.188m-12.202-10.032c2.242-2.813 1.898-6.5 3.688-9.469 0.672-1.086 1.586-2.117 2.406-3.172m-38.36 24.407c3.383-2.508 4.039-6.516 6.188-9.969 0.953-1.531 2.289-2.633 3.414-3.984m-20.938 18.742c0.305 0 0.625-0.07 0.867 0.039 0.656 0.32 0.539 1.266 0.977 1.594 5.344 3.891 11.5 5.172 17.781 5.789m-36.625-8.281c-0.375 1 0.57 1.523 1 2.078 2.938 3.602 6.492 6.234 10.781 7.945m8.719-9.164c0.289 0 0.609-0.07 0.844 0.039 0.664 0.32 0.547 1.266 0.977 1.594 5.344 3.891 11.523 5.172 17.789 5.789m89.359-152.13c0.203-0.484 0.383-1.039 0.875-1.273 6.391-2.938 14.117-2.875 19.609-7.438m-19.18-17c-0.469 5.414 0.75 10.742 0.867 16.125m-14.382 0.438c5.25 6.414 5.695 14.781 5.234 22.672m-1.742 15.242c0.078-0.844 1-1.211 1.453-1.523 5.125-3.563 11.266-3.383 16.219-7.023 3.305-2.43 6.047-6.203 5.867-10.625m-41.414 40.538c4.234 1.594 8.57 1.781 13.055 0.75 4.547-1.063 8.805-2.055 12.672-4.672m-26.157-23.977c1.477 5.578 2.227 11.188 1.664 16.992-0.406 4.078-3.328 7.289-3.852 11.344m-21.351 11.758c5.984-5.57 6.953-13.672 7.398-21.352m18.313 7.852c4.227 1.594 8.578 1.773 13.047 0.742 4.563-1.055 8.82-2.047 12.672-4.672m-9.156-15.257c0.086-0.844 1.008-1.219 1.461-1.523 5.133-3.57 11.266-3.391 16.211-7.031 3.32-2.43 6.055-6.195 5.867-10.617m-13.946-9.595c0.203-0.492 0.391-1.039 0.883-1.273 6.383-2.945 14.117-2.883 19.602-7.438m-19.18-20.055c-0.469 5.422 0.75 10.742 0.875 16.125m-16.57 5.235c5.25 6.414 5.695 14.781 5.234 22.664m-20.929 6.101c1.492 5.578 2.25 11.188 1.672 16.992-0.406 4.078-3.328 7.289-3.844 11.344m-20.485 10.899c5.977-5.578 6.945-13.68 7.414-21.359m-23.968 26.156c6.719 0.586 13.039-1.414 19.141-3.961 6.32-2.633 11.492-6.57 17.422-10.414 4.648-3.016 7.469-7.063 10.875-11.281 5.008-6.219 9-12.75 11.609-20 2.648-7.328 4.656-14.766 7.703-21.961 1.789-4.273 4.297-8.078 7.352-11.742 3.68-4.422 7.297-8.242 10.352-13.164 2.648-4.273 4.18-8.789 6.68-12.984m-90.275 106.81c6.727 0.547 13.031-1.492 19.133-4.047 6.313-2.656 11.469-6.617 17.383-10.508 4.625-3.023 7.43-7.094 10.805-11.328 4.984-6.227 8.953-12.789 11.523-20.047 2.617-7.344 4.602-14.789 7.602-21.992 1.789-4.281 4.266-8.094 7.297-11.781 3.672-4.438 7.266-8.266 10.289-13.195 2.633-4.305 4.148-8.813 6.633-13.023" stroke-width=".258"/>
   <path d="m270.91 646.33s-7.828-1.602-10.68 3.609m-3.734-18.148c18.742 6.07 20.164 17.203 21.07 17.484 0 0 1.688-2.516 5.031-0.82-3.914-11.836-19.922-17.281-19.922-17.281 0.313 0.156 0.391-0.047 0.305-0.07-0.508-0.109-0.969-0.43-1.523-0.273m-1.226 19.109c1.938 6.969 4.188 8.242 7.984 7.766 3.797-0.461 5.008-8.953 2.695-11.375 0 0 2.797-1.125 2.094-3.797-0.711-2.664-5.469-3.148-5.469-3.148-3.055-0.602-8.148 1.242-9.711 3.258 0 0-2.531 2.742-1.414 5.773 1.133 3.03 3.821 1.523 3.821 1.523zm-8.469-9.407c2.188-4.148 4.148-5.234 4.148-5.234s1.313 0.43 4.578 5.016m-13.086-1.086c3.055-4.367 5.82-5.57 5.852-6.273m-1.172 16.937c-1.984 6.953-4.234 8.211-8.031 7.727-3.789-0.5-4.953-8.984-2.625-11.398 0 0-2.789-1.148-2.07-3.82 0.727-2.656 5.5-3.094 5.5-3.094 3.055-0.594 8.133 1.281 9.68 3.305 0 0 2.516 2.75 1.383 5.781-1.149 3.022-3.837 1.499-3.837 1.499zm-10.336-4.032s7.961-0.641 10.172 4.859m-0.461-24.749c0.203-3.297-0.391-5.844-0.977-6.633m4.18 8.375c0.359-5.266-0.492-7.852-1.594-10.344m-9.648-1.64c0-0.07-0.063-0.086-0.094-0.109-5.719-5.281-3.93-7.984-1.641-9.625 2.523-1.797 6.469-1.289 8.68 4.531-8e-3 -8e-3 -0.016 0-0.016-8e-3 0 0.039 0.016 0.07 0.031 0.102m0.407-0.516c0.953-1.094 2.523 0.133 2.523 0.133 0.305 0.227 2.305 4.391 0.297 6.617-0.875 0.953-1.883 1.656-2.938 2.375-1.664 1.125-4.406 2.695-6.141 1.516-1.328-0.891-1.039-0.688-1.563-1.32-2.07-2.508 0.258-3.602 0.258-3.602 4.056-2.399 4.728-1.962 7.564-5.719-0.07 0.109-0.117 0.133-0.148 0.164m-9.11 45.297c-2.398 5.672-8.719 11.766-8.719 11.766-2.188 2.117-5.063 3.156-8.07 2.625-2.023-0.359-4.742-5.273-6.539-6.313-2.273-1.32-3.695 0.414-6 2.234-1.547 1.195-5.336 4.18-7.07 5.383-5.734 3.953-9.383 0-14.555-6.844-0.672-0.867-2.523-0.75-3.922-0.625-5.781 0.547-10.359 4.344-16.164 4.133-4.672-0.188-9.5-1.172-12.625-4.43-2.539-2.648 1.484-3.195 3.891-4.445 0 0 1.063-2.82-0.898-2.164-1.961 0.648-12.641 0.313-16.656-1.164-2.453-0.891-4.844-1.695-7.195-2.727-1.289-0.563-1.984-1.695-2.273-3.094-1.398-6.773 10.219-5.555 3.703-9.813l-7.18-5.227c-6.766-2.836-5.586-7.18-5.453-9.367 0.055-0.883 2.289-1.938 3.133-1.945 6.43-0.047 11.297 5.289 17.781 4.961 0.297-0.016 0.828-0.43 1.367-0.461-0.242-2.961 2.703-4.797 5.047-3.5 6.938 3.836 12.883 10.078 21.023 11 1.375-2.266 3.828-2.641 6.07-1.352 3.992 2.313 7.43 5.25 11.352 7.586 3.938 2.352 8.406 1.242 12.813 1.039 1.93-0.102 1.859-2.102 1.57-3.211-0.289-1.141-1.578-1.461-1.805-2.5-0.516-2.305 2.336-2.938 3.938-2.898 5.797 0.125 11.148 2.43 16.797 4.109 3.539 1.047 7.148 1.531 10.898 0.391m19.898-10.163c-6.969-1.961-14-10.656-14-10.656-0.938-0.945-1.438-2.336-2.328-3.406-2.938-3.586-5.672-6.961-9.336-9.93-1.711-1.391-3.766-3.43-5.742-2.234-1.773 1.039-0.328 4.5-2.617 5.047-2.063 0.523-4.641 0.25-6.375-1.156-7.211-5.781-12.398-11.172-21.266-13.203-0.094-0.016-1.766 1.227-1.32 1.742 0.758 0.875 1.086 1.156 1.984 1.82 0.758 0.539-0.602 1.805-1.055 1.945-1.742 0.492-4.305 0.375-5.461-0.758-6.328-6.148-10.836-13.445-19-16.734-2.539-1.023-9.711-3.008-8.086 1.352 0.875 2.305 5.227 3.359 3.266 6.414-1.055 1.664-3.359 1.336-4.859 0.578-2.648-1.344-4.539-3.836-7.555-4.414-3.578-0.695-6.875 1.898-10.609 0.672-3.977-1.305-7.07-4.852-11.242-3.961-2.789 0.602-4.43 4.016-3.625 6.75 3.102 10.258 13.703 15.508 23.063 19.563 2.758 1.195 5.367 2.984 6.742 5.781 1.906 3.891-3.656 0.797-4.82 2.422-1.703 2.422 1.656 4.148 3.727 5.195 3.82 1.938 7.797 3.344 12.195 3.156 7.563-0.328 15.227-2.656 22.234 0.547 0.953 0.445 1.734 2.156 0.797 3.094-2.047 2.055-2.852 0.93-5.32 1.68-0.391 0.117 0.109 1.578 0.445 1.742 6.711 3.086 11.977 2.164 19.078 2.18 7.031 0.016 13.5 1.719 20.484 1.359 3.688-0.164 6.773-2.508 10.555-3.023 0 0 11.555-2.047 15.469-1.391m13.631 8.436s-2.531-4.828-7.984-7.445c0 0 9.508-0.914 15.891 2.328 6.375 3.25 13.445 7.18 17.781 4.93 0 0 7.852-5.258 12.891-3.25 0 0 3.195 0.313 3.703 3.563 0.531 3.242-4.07-0.102-3.758 3.563 0.234 2.742 3.453 2.93 4.289 2.867 11.305-0.828 19.781-10.336 23.289-12.219 2.641-1.438 6.664-1.008 8.391 2.133 0 0 1.453 3.445 2.117 3.867 0 0 5.195 6.805 10.109-2.734 4.914-9.508 9.773-15.242 12.602-14.422 2.625 0.766 1.594 4.156 2.375 6.758 0.781 2.547 3.313 2.398 4.773 1.813 3.367-1.344 7.352-4.539 10.859-3.563 2.594 0.711 3.391 2.586 2.719 5.438 0 0 0.07 4.383-12.344 11.422 0 0-1.695 1.789 1.664 2.539-0.391-0.086 6.75 1.375-0.766 5.93-7.672 4.648-16.5 3.594-25.055 4.563-2.641 0.297-3.938 3.031-2.617 5.063 0.992 1.523 1.82 4.359 0.656 5.195 0 0-4.148 5.594-28-0.508-0.961-0.234-2.813-1.07-3.883 0.211-0.578 0.711 1.016 4.141 0.547 4.844-0.813 1.211-2.508 1.57-3.773 1.359-15.844-2.563-18.891-10.266-20.789-10.313-1.867-0.055-2.867 3.203-2.867 3.203-2.547 6.227-8.008 3.781-11.82 0.461-2.852-2.484-5.055-5.984-6.609-9.68m-8.289-31.033c-0.18-3.297 0.422-5.836 1.023-6.625m-4.242 8.344c-0.328-5.258 0.547-7.852 1.656-10.336m56.961-24.094c-0.109 1.195-1.156 1.578-0.219 2.836 0.914 1.195 7.328-1.789 10.68-6.813 3.352-5.031 11.938-10.578 17.797-9.32 0 0 2.828 0.313 6.391 3.664 0 0 0.938 1.992-0.117 2.211 0 0-1.984 0.727-2.719 2.609-2.328 5.984 6.297 2.953 9.211 1.781 0 0 5.656-3.086 7.961-3.664 2.297-0.578 5.797-1.094 7.43 0.727 1.625 1.836 9.461 0.844 10.313 0.367 0.836-0.461 4.188-1.461 3.82 2.781-0.813 9.383-10.133 12.938-18 14.648-13.508 2.93-30.602 8.18-16.328 12.867 7.625 2.523 3.961 5.141 3.445 5.563-0.523 0.406-12.148 6.383-23.445 3.242 0 0-12.445-4.039-13.711-0.938-0.844 2.078 0.844 4.906 5.766 4.492 0 0 3.859-0.32 3.859 1.781 0 3.203-3.914 4.563-6.523 4.922-5.328 0.758-10.57-0.469-15.961-1.797-4.148-1.008-8.633-1.031-12.961 1.578-9.711 5.844-17.711-9.422-31.539-6.375-24.109 5.289-25.797 18.547-26.781 18.836 0 0-1.68-2.508-5.031-0.836 3.984-11.836 20.031-17.164 20.031-17.164 18.906-7.117 26.508-17.898 26.508-17.898 2.594-3.75 5.281-11.633 8.406-12.875-0.258 0.102 3.094-2.781 5.133 1.141 0.523 1.008-0.438 4.625 0.508 5.242 2.094 1.359 4.359 0.086 5.969-1.578 1.852-1.906 3.25-4.289 5.039-6.297 2.148-2.406 4-4.086 7.117-5.32 0 0 5.422-1.969 5.547-1.563-2e-3 2e-3 2.506-0.108 2.404 1.15zm-47.296 22.524c8e-3 -0.078 0.055-0.094 0.086-0.125 5.758-5.227 3.984-7.953 1.695-9.609-2.5-1.813-6.445-1.32-8.703 4.484 0-0.016 8e-3 0 8e-3 -0.016 0.016 0.039-8e-3 0.07-0.016 0.102m-0.406-0.5c-0.945-1.109-2.523 0.102-2.523 0.102-0.297 0.234-2.336 4.375-0.336 6.617 0.867 0.969 1.875 1.672 2.93 2.398 1.656 1.125 4.383 2.711 6.133 1.555 1.32-0.891 1.047-0.68 1.555-1.305 2.094-2.508-0.234-3.617-0.234-3.617-4.033-2.415-4.713-1.985-7.525-5.75 0.078 0.094 0.109 0.117 0.148 0.148" stroke-width=".516"/>
   <path d="m278.52 651.08c0.055 3.688-0.555 8.32 3.055 10.898m2.171-13.945c5.039 0.422 7.594-5.164 11.844-6.781 0.867-0.328 1.969-0.453 2.984-0.625m-6.554-14.383c2.078-0.328 4.07 0.141 6.07 0.609 6.75 1.523 12.922 3.719 19.656 4.18m-2.617-16.125c2.641-0.258 5.359-0.141 7.773 0.672 9.633 3.203 19.117 6.711 29.281 5.859m-23.968-12.195c2.406-2.805 4.711-5.805 5.82-9.25 1.672-5.148 2.633-11.141 8.125-13.422m-42.726 33.125c0.945 0.242 1.633-0.414 2.086-0.961 1.578-1.945 2.977-4.172 3.5-6.148 1.406-5.297 2.766-10.508 6.195-14.68m-105.92 66.258c7.25-4.469 14.203-9.047 20.047-15.258m-58.844 14.813c8.898 0.133 17.758-3.359 24.844-8.719m-46.641-3.922c7.141 1.07 14.195-0.328 20.93-2.617m44.023-9.149c3.398 3.914 9.031 4.031 13.07 6.977m-44.452-8.289c2.516 5.195 7.211 10.008 13.07 11.336m-39.227-19.617c0.898 4.531 0.813 9.859 5.234 12.641m38.345-11.329c8.047-0.398 14.609-6.344 21.898-9.375 1.977-0.82 4.094-1.914 6.438-1.516m-62.329 0c7.695-0.422 14.922-4 21.906-7.172 2.898-1.32 6.227-1.734 9.477-1.992m33.133-3.921c2.148 4.641 3.141 9.438 6.172 13.898 0.234 0.32 0.805 0.344 1.234 0.484m-34.429-23.531c4.563 5.281 10.031 9.547 15.492 14.18 0.25 0.219 0.633 1 1.063 1.516m-47.79-28.532c1.234 0.789 2.68 1.406 3.383 2.68 1.742 3.242 4.25 5.75 5.844 9.07 1.391 2.898 4.5 4 6.539 6.5 1.117 1.352 2.82 1.836 4.289 2.672m38.64 0.195c2.156 4.648 3.156 9.438 6.188 13.883 0.203 0.32 0.781 0.352 1.211 0.5m-36.609-23.539c4.578 5.281 10.047 9.555 15.5 14.188 0.25 0.203 0.633 1 1.07 1.5m-47.078-27.891c1.234 0.781 2.688 1.398 3.375 2.68 1.758 3.234 4.266 5.742 5.852 9.063 1.391 2.906 4.508 4 6.539 6.492 1.109 1.359 2.82 1.844 4.289 2.68m5.234 25.733c8.031-0.414 14.594-6.352 21.875-9.383 1.969-0.82 4.109-1.906 6.453-1.523m-62.328-0.43c7.695-0.422 14.906-4 21.891-7.172 2.906-1.32 6.227-1.734 9.492-1.992m19.179 27.024c3.406 3.922 9.039 4.039 13.07 6.984m-43.585-8.289c2.516 5.195 7.211 10 13.07 11.336m-38.789-19.18c0.906 4.523 0.805 9.852 5.234 12.641m44.024 23.969c7.242-4.461 14.203-9.039 20.047-15.242m-56.664 12.632c8.906 0.133 17.758-3.359 24.844-8.727m-48.376-3.905c7.125 1.055 14.18-0.328 20.914-2.617m117.25 5.226c0.063 3.688-0.555 8.32 3.055 10.891m3.477-15.688c5.031 0.422 7.602-5.164 11.852-6.781 0.859-0.328 1.969-0.453 2.984-0.625m-8.29-13.516c2.07-0.328 4.063 0.148 6.063 0.602 6.742 1.547 12.914 3.727 19.656 4.195m-3.492-15.695c2.641-0.25 5.359-0.133 7.773 0.672 9.633 3.203 19.117 6.719 29.281 5.859m-21.804-14.812c2.43-2.805 4.719-5.805 5.844-9.25 1.664-5.141 2.633-11.141 8.117-13.414m-42.719 33.117c0.938 0.25 1.633-0.414 2.063-0.953 1.609-1.938 3-4.18 3.516-6.148 1.422-5.313 2.766-10.516 6.18-14.68m-41.829 30.945c6.859-5.438 12.203-12.508 14.805-20.922m-15.25 20.047c6.875-5.43 12.219-12.492 14.82-20.93m-154.08-18.516c7.172 2.461 13.5 7.992 21.102 9.961 1.742 0.445 3.063 1.953 4.867 2.305 10.313 2.047 18.172 7.461 28.297 9.703 10.898 2.414 21.172 3.875 31.273 7.734 8.875 3.383 17.359 7.25 26.344 10.359 1.594 0.555 3.305 1.422 5.156 1.117m-118.13-42.71c7.172 2.469 13.281 6.906 20.883 8.875 1.75 0.445 3.07 1.953 4.875 2.305 10.313 2.047 18.172 7.453 28.305 9.703 10.875 2.406 21.164 3.883 31.258 7.734 8.883 3.375 17.359 7.25 26.352 10.359 1.586 0.555 3.297 1.43 5.148 1.125m-114.21 4.368c3.289 3.344 7.711 4.68 11.492 7.656 2.469 1.953 5.438 2.836 8.227 4.352 7.047 3.789 14.602 5.453 22.258 7.594 10.695 3 21.648 2.016 32.563 1.609 8.078-0.305 15.117-5.039 23.109-5.969m-98.508-17c3.281 3.344 7.703 4.688 11.477 7.664 2.477 1.961 5.43 2.844 8.242 4.352 7.047 3.797 14.602 5.461 22.25 7.594 10.695 3.008 21.633 2.023 32.547 1.617 8.078-0.305 15.109-5.031 23.109-5.961m52.305 6.101c4.672 2.836 9.992 4.148 15.281 4.5 5.781 0.375 11.352 1.656 17.43 0.352 5.367-1.172 10.445-0.781 15.68-2.258 3.391-0.961 6.633-1.734 9.961-2.766 7.133-2.203 12.953-6.719 20.117-8.969 5.258-1.648 10.336-3.227 15.094-5.953 1.109-0.633 2.859-1.094 3.211-2.773m-114.63-3.891c7.164 0.063 14.492 0.734 21.266-1.805 8.414-3.172 15.945-8.016 24.258-11.555 3.922-1.656 7.531-3.727 11.805-4.602 3.016-0.609 5.977-0.992 8.555-2.141 13-5.82 26.82-5.766 40.227-9.672 3.148-0.922 6.328-2 9.313-3.461m-111.5 34.51c7.164-8e-3 14.5 0.586 21.234-2.039 8.383-3.25 15.867-8.188 24.148-11.797 3.906-1.703 7.477-3.805 11.758-4.727 3-0.641 5.961-1.055 8.531-2.227 12.938-5.945 26.75-6.055 40.133-10.102 3.117-0.945 6.508-4.023 9.484-5.508" stroke-width=".258"/>
   <path d="m45.453 730.3c6.539-16.125 56.445 3.273 56.445 3.273 4.164 1.172 8.266 2.32 12.289 3.406l0.852-0.156c110.67 30.281 166.41 31.609 282.93-2.867l0.336-0.273c7.727-2.75 50.375-17.25 56-3.383m-339.35 7.281-21.563 46.336m352.62-71.492c20.938-2.172 27.031-2.602 35.742 16.133 8.734 18.742 17.445 39.227 17.445 39.227-17-10.461-34.102 0.711-38.797 3.063-1.742 0.859-44.891 37.906-54.055 13.07-9.141-24.852 29.219-22.664 29.219-22.664 29.633-6.117 20.047-27.023 20.047-27.906 0-0.859-11.328-24.836-21.359-46.633-9.992-21.734-37.047-13.508-37.047-13.508-120.75 35.742-175.66 33.555-294.65 0 0 0-27.031-8.281-37.047 13.508-7.133 15.484-2.469 5.336-12.461 26.883-5.125 11.047-8.898 19.258-8.898 19.75 0 0.883-9.594 21.789 20.047 27.906 0 0 35.461-2.016 30.055 19.914-0.227 0.875-0.508 1.789-0.859 2.75-9.141 24.836-52.305-12.211-54.047-13.07-4.688-2.352-21.789-13.523-38.789-3.063 0 0 8.719-20.484 17.438-39.227 8.711-18.734 14.82-18.305 35.734-16.133m352.62 71.492-21.359-46.336" stroke-width=".516"/>
  </g>
  <path d="m174.59 544.08 6.969 4.57c7.82 5.133 13.648-0.555 15.375-3.188 3.75-5.719 2.711-11.555-2.922-15.25l-13.297-8.727-19.094 29.102 6.078 3.992 6.891-10.499m3.297-5.031 5.617-8.547 4.82 3.164c3.766 2.477 4.578 4.688 2.711 7.523-0.844 1.305-2.977 4.539-7.516 1.555z"/>
  <path d="m198.65 553.52c-4.82 15.609 6.18 21.086 10.57 22.445 4.406 1.359 16.578 3.039 21.398-12.57 4.813-15.617-6.18-21.086-10.578-22.445s-16.561-3.039-21.39 12.57m6.954 2.149c2.883-9.313 8.875-10 12.625-8.836 3.75 1.156 8.313 5.109 5.438 14.414-2.883 9.313-8.867 10-12.625 8.836-3.751-1.156-8.321-5.102-5.438-14.414z"/>
  <polyline points="244.97 575.19 262.27 575.72 262.07 582.02 237.51 581.26 238.59 546.46 245.85 546.69 244.97 575.19"/>
  <polyline points="277.89 579.69 270.68 580.71 265.82 546.25 273.02 545.23 277.89 579.69"/>
  <path d="m302.52 548.52c-1.242-1.781-3.594-5.117-9.266-3.133-3.297 1.156-7.383 5.039-4.141 14.336 2.078 5.906 6.258 10.391 12.078 8.359 3.797-1.328 5.695-4.406 5.109-8.719l6.875-2.398c1.117 7.617-1.813 14.242-10.047 17.117-8.742 3.063-17.078-0.656-21.047-12.008-4.016-11.484 0.578-19.664 9.047-22.625 9.836-3.438 16.188 1.938 18.242 6.664l-6.85 2.407"/>
  <polyline points="332.16 524.34 316.98 534.87 321.15 540.88 335.09 531.23 338.6 536.28 324.66 545.94 329.78 553.36 345.65 542.37 349.16 547.43 327.43 562.48 307.61 533.87 328.66 519.29 332.16 524.34"/>
  <path d="m140.27 483.98c1.797-0.734 4.906-2.945 2.656-8.891-1.227-3.211-3.352-6.5-6.789-5.195-2.547 0.961-2.297 3.664-1.813 7.422l0.516 3.797c0.758 5.727 1.5 11.242-5.656 13.953-3.625 1.375-10.766 1.852-14.766-8.711-3.773-9.977 1.75-15.117 5.719-16.68l2.469 6.531c-1.383 0.727-4.625 2.578-2.367 8.516 0.977 2.586 3.094 5.305 6.039 4.195 2.547-0.961 2.297-3.258 2.094-4.734l-1.055-8.672c-0.594-4.859-0.328-9.625 5.523-11.844 9.797-3.703 14.43 5.945 15.516 8.797 4.5 11.883-1.578 16.516-5.609 18.047l-2.477-6.531"/>
  <path d="m127.52 430.24c9.125-0.797 13.508 4.375 14.266 13.117 0.281 3.195-0.086 7.992-3.242 11.375-1.961 2.07-4.695 3.031-8.172 3.438l-22.992 1.992-0.641-7.398 22.508-1.938c4.828-0.43 6.711-3.414 6.422-6.789-0.43-4.977-3.023-6.797-7.227-6.43l-22.844 1.977-0.641-7.391 22.563-1.953m-25.571 7.711 0.477 5.461-3.695 3.438 4.227 2.695 0.469 5.461-7.523-4.898-0.523-6.039z"/>
  <path d="m139.91 424.55 1.398-6.992-13.352-2.68 1.477-7.367c1.07-5.273 2.922-5.203 7.586-4.266 3.516 0.711 5.328 0.773 7.039 0.625l1.586-7.891-0.898-0.188c-0.875 1.414-2.109 1.164-7.102 0.164-6.367-1.281-7.719 0.023-9.516 2.586-0.469-3.609-3.313-6.156-7.078-6.914-2.945-0.594-9.984-0.273-11.805 8.805l-3.461 17.25 34.126 6.868m-17.703-10.836-9.133-1.828 1.797-8.891c0.836-4.188 3.664-4.453 5.461-4.086 3.375 0.672 4.297 2.734 3.555 6.445z"/>
  <polyline points="133.36 357.03 124.92 373.46 131.43 376.8 139.19 361.72 144.66 364.54 136.91 379.62 144.92 383.74 153.74 366.58 159.23 369.4 147.14 392.9 116.19 376.98 127.89 354.22 133.36 357.03"/>
  <polyline points="171.41 355.55 166.58 360.98 145.18 341.94 138.19 349.79 133.59 345.69 152.41 324.55 157.01 328.64 150.01 336.5 171.41 355.55"/>
  <path d="m185.41 308.4-15.336 10.297 4.086 6.078 14.086-9.453 3.43 5.109-14.086 9.461 5.023 7.484 16.023-10.75 3.43 5.109-21.945 14.719-19.391-28.898 21.258-14.266 3.422 5.11m-14.547-1.843-4.063 2.727-0.164-8.414 6.203-4.164z"/>
  <path d="m216.93 325.53 14.766-3.039c11.258-2.313 11.984-13.453 10.492-20.766-1.336-6.461-5.719-15.75-17.211-13.391l-15.055 3.094 7.008 34.102m1.179-29.64 6.844-1.406c3.039-0.625 8-0.813 10.07 9.258 1.156 5.602 0.406 11.844-5.391 13.031l-6.93 1.43z"/>
  <path d="m277.7 309.83c-0.75 9.125-6.578 12.586-15.328 11.867-3.18-0.258-7.852-1.422-10.672-5.102-1.703-2.281-2.195-5.148-2.016-8.633l1.891-23 7.391 0.609-1.844 22.516c-0.398 4.836 2.227 7.188 5.609 7.469 4.977 0.406 7.211-1.844 7.555-6.047l1.875-22.859 7.391 0.609-1.852 22.571"/>
  <path d="m322.19 340.52-1.641-4.953c3.164-1.375 6.367-4.18 9.078-9.219 7.719-14.391-2.016-21.883-6.078-24.055-4.055-2.18-15.672-6.148-23.398 8.242-7.734 14.398 2.016 21.875 6.07 24.055 1.797 0.969 5.133 2.32 8.961 2.164l1.773 5.414 5.235-1.648m-10.672-14.867 1.508 4.563c-1.469-0.023-2.828-0.477-3.898-1.047-3.453-1.859-7.18-6.602-2.57-15.195 4.609-8.586 10.625-8.109 14.086-6.25 3.453 1.859 7.188 6.602 2.57 15.195-1.531 2.852-3.234 4.695-4.938 5.813l-1.617-4.766z"/>
  <path d="m351.94 355.09c-6.492 6.469-13.18 5.32-19.367-0.898-2.258-2.266-5.055-6.188-4.797-10.813 0.172-2.844 1.648-5.344 4.063-7.867l16.352-16.281 5.227 5.258-16.008 15.93c-3.438 3.43-2.961 6.922-0.57 9.32 3.516 3.547 6.672 3.281 9.672 0.305l16.242-16.172 5.234 5.25-16.048 15.968"/>
  <path d="m383.43 375.9-8.992-16.133-6.398 3.57 8.273 14.82-5.375 3-8.273-14.82-7.867 4.391 9.398 16.852-5.375 3-12.875-23.07 30.398-16.961 12.477 22.352-5.391 2.999m3.054-14.351-2.398-4.273 8.414 0.523 3.625 6.523z"/>
  <path d="m389.68 393.97 1.922 8.109c0.75 3.219 0.375 5.391-2.406 6.055-2.688 0.633-4.297-1.328-4.961-4.109l-1.961-8.305 7.406-1.75m-29.633-0.172 3.391 14.352c1.641 6.93 3.25 8.492 5.594 9.977 2.18 1.383 4.992 1.914 7.68 1.273 3.352-0.789 6.391-2.656 6.969-7.172 1.047 1.242 3.055 3.664 7.922 2.508 3.484-0.82 8.18-4.172 6.219-12.477l-3.891-16.469zm16.516 3.273 2.133 9.008c0.602 2.555 0.07 5.367-2.898 6.07-3.453 0.813-5.43-0.813-6.234-4.25l-2.055-8.688z"/>
  <polyline points="394.24 452.48 395.02 434.02 387.7 433.72 386.99 450.67 380.84 450.41 381.56 433.46 372.54 433.08 371.73 452.37 365.59 452.1 366.69 425.71 401.47 427.16 400.39 452.73 394.24 452.48"/>
  <path d="m380.23 484.01c2.156 0.094 6.242 0.266 8.117-5.438 1.094-3.32 0.5-8.93-8.844-12.008-5.945-1.961-12.063-1.367-13.984 4.477-1.266 3.82 0.023 7.203 3.797 9.367l-2.281 6.906c-6.719-3.742-10.188-10.094-7.461-18.383 2.906-8.805 10.922-13.148 22.344-9.383 11.555 3.813 15.25 12.43 12.43 20.953-3.258 9.891-11.391 11.656-16.391 10.414l2.273-6.905"/>
  <path d="m85.703 704.73c-0.328 1.258-0.547 3.742 2.297 4.547 1.547 0.43 3.414 0.383 4.078-1.977 0.5-1.742-0.547-2.547-2.047-3.57l-1.516-1.031c-2.289-1.539-4.508-3.039-3.125-7.961 0.703-2.484 2.875-6.609 7.945-5.18 4.789 1.344 4.82 6.188 4.07 8.938l-3.141-0.891c0.203-1.016 0.602-3.453-2.25-4.266-1.25-0.344-2.914-0.102-3.477 1.914-0.492 1.742 0.406 2.398 1 2.797l3.43 2.414c1.93 1.344 3.539 3.148 2.406 7.156-1.883 6.719-6.844 5.969-8.219 5.578-5.703-1.602-5.359-6.578-4.586-9.344l3.135 0.876"/>
  <polyline points="112.64 699.82 104.33 697.52 103.03 702.23 110.66 704.33 109.58 708.29 101.94 706.19 100.34 711.98 109.02 714.37 107.94 718.33 96.047 715.05 102.22 692.68 113.73 695.86 112.64 699.82"/>
  <path d="m110.71 719.08 3.219 0.859 2.344-8.773 3.383 0.898c2.43 0.648 2.242 1.875 1.422 4.93-0.609 2.32-0.797 3.508-0.859 4.625l3.633 0.977 0.156-0.602c-0.602-0.563-0.383-1.367 0.5-4.648 1.109-4.18 0.594-5.055-0.477-6.219 1.75-0.336 3.195-2.219 3.859-4.688 0.508-1.93 0.93-6.539-3.25-7.656l-7.938-2.125-5.992 22.422m6.57-11.695 1.602-5.992 4.086 1.094c1.93 0.508 1.836 2.359 1.516 3.547-0.594 2.219-1.648 2.836-3.359 2.383z"/>
  <polyline points="141.53 703.19 144.94 704.05 133.84 725.17 130.71 724.37 131.16 700.53 134.69 701.43 133.7 719.33 133.75 719.34 141.53 703.19"/>
  <polyline points="144.12 727.73 140.83 726.93 146.38 704.39 149.67 705.21 144.12 727.73"/>
  <path d="m161.02 715.71c0.047-1.414 0.148-4.078-2.594-4.719-1.578-0.375-4.266 0.594-5.766 6.977-0.953 4.063-0.68 7.977 2.125 8.633 1.82 0.422 3.445-0.75 4.492-3.43l3.305 0.773c-1.82 4.75-4.867 7.656-8.828 6.727-4.203-0.984-6.273-5.75-4.445-13.555 1.852-7.898 5.984-11.18 10.055-10.219 4.734 1.102 5.57 6.203 4.961 9.594l-3.305-0.781"/>
  <polyline points="179.24 716.09 170.81 714.31 169.8 719.08 177.55 720.73 176.69 724.74 168.94 723.1 167.7 728.98 176.52 730.85 175.66 734.87 163.59 732.31 168.4 709.61 180.09 712.08 179.24 716.09"/>
  <polyline points="193.96 738.2 190.62 737.64 194.48 714.75 197.83 715.32 193.96 738.2"/>
  <polyline points="210.55 717.23 213.68 717.66 210.42 740.65 207.06 740.17 202.83 722.86 202.78 722.85 200.45 739.23 197.33 738.79 200.58 715.82 204.11 716.31 208.23 733.22 208.28 733.23 210.55 717.23"/>
  <polyline points="221.16 741.77 217.78 741.44 219.67 722.43 214.78 721.94 215.2 717.86 228.34 719.17 227.94 723.26 223.05 722.76 221.16 741.77"/>
  <path d="m241.92 719.94-11.93-0.648-1.266 23.164 12.313 0.672 0.227-4.102-8.992-0.484 0.328-6 7.914 0.43 0.211-4.102-7.898-0.43 0.258-4.875 8.609 0.469 0.226-4.094m-1.445-7.141-3.477-0.188-2.383 4.602 2.281 0.117z"/>
  <path d="m252.26 730.73h6.781l8e-3 12.508h-2.266l-0.328-2.906c-0.867 1.422-2.109 3.523-5.078 3.523-3.906 8e-3 -7.461-4-7.469-12.148 0-6.336 2.461-12.32 7.938-12.289 4.977 0 6.953 4.617 7.133 7.82l-3.398 8e-3c0-0.914-1.156-3.82-3.555-3.82-2.422 0-4.664 2.398-4.656 8.344 0 6.336 2.43 7.984 4.734 7.977 0.75 0 3.234-0.414 3.93-5.102h-3.773v-3.915"/>
  <path d="m263.12 743.08 3.313-0.188-0.523-9.07 3.5-0.203c2.508-0.141 2.711 1.07 2.898 4.234 0.141 2.391 0.344 3.57 0.633 4.664l3.742-0.219-0.031-0.617c-0.742-0.344-0.789-1.18-0.984-4.57-0.258-4.328-1.016-4.992-2.398-5.758 1.563-0.859 2.336-3.109 2.195-5.664-0.125-2-1.18-6.5-5.492-6.25l-8.195 0.477 1.342 23.164m2.563-13.156-0.359-6.203 4.227-0.234c1.984-0.125 2.469 1.664 2.539 2.883 0.141 2.297-0.672 3.219-2.43 3.32z"/>
  <polyline points="283.08 741.66 279.7 741.98 277.52 718.87 280.91 718.55 283.08 741.66"/>
  <polyline points="293.2 740.51 289.83 740.92 287.5 721.96 282.62 722.56 282.12 718.49 295.23 716.87 295.73 720.95 290.86 721.55 293.2 740.51"/>
  <path d="m308.45 714.76-11.789 1.891 3.672 22.914 12.18-1.953-0.648-4.047-8.891 1.422-0.961-5.938 7.828-1.258-0.656-4.047-7.82 1.25-0.766-4.813 8.5-1.359-0.649-4.062m-2.922-6.672-3.445 0.555-1.352 5 2.266-0.36z"/>
  <path d="m335.59 726.11c1.031 4.805-0.219 7.516-3.398 8.203-5.281 1.133-6.313-3.672-7.242-8l3.094-0.664c0.773 3.57 1.313 5.273 3.086 4.891 1.727-0.367 1.516-1.977 1.148-3.711l-3.461-16.125 3.313-0.711 3.46 16.117"/>
  <path d="m351.43 720.98c1.414 5.945-0.492 9.086-4.477 10.031-1.453 0.344-3.734 0.352-5.672-1.547-1.188-1.18-1.953-2.922-2.531-5.18l-3.547-14.969 3.367-0.797 3.469 14.656c0.758 3.141 2.352 4.219 3.898 3.852 2.266-0.531 2.813-2.328 2.164-5.063l-3.523-14.875 3.367-0.797 3.485 14.689"/>
  <path d="m357.56 720.43c0.344 1.242 1.391 3.516 4.266 2.773 1.547-0.398 3.148-1.375 2.531-3.758-0.445-1.75-1.75-1.914-3.555-2.055l-1.836-0.125c-2.758-0.195-5.422-0.375-6.695-5.32-0.641-2.508-0.836-7.164 4.273-8.477 4.82-1.234 7.273 2.938 8 5.688l-3.156 0.813c-0.344-0.984-1.211-3.297-4.086-2.555-1.258 0.32-2.578 1.359-2.047 3.391 0.445 1.758 1.555 1.875 2.266 1.922l4.18 0.359c2.336 0.211 4.633 0.945 5.664 4.984 1.742 6.766-2.93 8.602-4.313 8.953-5.734 1.477-7.938-3-8.656-5.781l3.164-0.812"/>
  <polyline points="378.64 722.26 375.36 723.16 370.37 704.71 365.63 705.99 364.56 702.03 377.31 698.58 378.38 702.54 373.65 703.83 378.64 722.26"/>
  <polyline points="388.5 719.54 385.23 720.45 378.99 698.09 382.27 697.19 388.5 719.54"/>
  <path d="m397.44 700.77c-0.633-1.258-1.859-3.641-4.555-2.859-1.563 0.438-3.453 2.594-1.641 8.906 1.141 4.008 3.281 7.289 6.047 6.5 1.805-0.516 2.648-2.336 2.258-5.188l3.266-0.922c0.734 5.031-0.516 9.055-4.438 10.172-4.148 1.188-8.281-1.969-10.477-9.68-2.234-7.797-0.219-12.68 3.805-13.828 4.68-1.336 7.891 2.727 9 5.969l-3.265 0.93"/>
  <polyline points="413.96 692.31 405.69 694.73 407.06 699.42 414.66 697.19 415.83 701.12 408.23 703.36 409.92 709.12 418.56 706.58 419.72 710.52 407.89 714 401.34 691.73 412.81 688.37 413.96 692.31"/>
 </g>
</svg>
