<svg id="Capa_1" enable-background="new 0 0 512 512" height="512" viewBox="0 0 512 512" width="512" xmlns="http://www.w3.org/2000/svg"><g><circle cx="256" cy="256" fill="#b16de2" r="256"/><path d="m320.288 101.074-24.282-24.282-11.057 11.057-28.775-28.775-26.534 26.534-13.231-13.231-23.549 23.549 50.739 50.739-88.307 88.307 124.078 124.078-83.652 83.652 69.129 69.129c135.377-4.6 244.083-114.296 247.08-250.074l-176.161-176.161z" fill="#9f47d3"/><g><path d="m182.452 121.846v90.57l79.605 230.286 15.304-224.423-15.304-96.433z" fill="#f7a690"/><path d="m222.255 73.199v13.267c0-10.991-8.91-19.901-19.901-19.901-10.991 0-19.901 8.91-19.901 19.901v57.492c0 10.991 8.91 19.901 19.901 19.901 10.991 0 19.901-8.91 19.901-19.901v3.673c0 10.991 8.91 19.901 19.901 19.901 10.991 0 19.901-8.91 19.901-19.901v-7.139l7.983-25.833-7.983-25.052v-16.41c0-10.991-8.91-19.901-19.901-19.901-10.991.002-19.901 8.912-19.901 19.903z" fill="#fdcdbf"/><path d="m262.057 124.049h-96.607c-12.592 0-22.8 10.208-22.8 22.8v57.541c0 23.919 19.391 43.31 43.31 43.31h9.76v195.001h66.337l13.104-159.019-13.104-58.162c0-34.059-27.61-61.67-61.67-61.67h21.867c21.983.002 39.803-17.819 39.803-39.801z" fill="#fcbeac"/><path d="m262.057 121.846v320.856h66.337v-195.001l13.268-35.285v-90.57z" fill="#e89885"/><path d="m262.057 90.889v48.647c0 10.991 8.91 19.901 19.901 19.901 10.991 0 19.901-8.91 19.901-19.901v-8.845c0 10.991 8.91 19.901 19.901 19.901 10.991 0 19.901-8.91 19.901-19.901v-30.957c0-10.991-8.91-19.901-19.901-19.901-10.991 0-19.901 8.91-19.901 19.901v-8.845c0-10.991-8.91-19.901-19.901-19.901-10.991 0-19.901 8.91-19.901 19.901z" fill="#fcbeac"/></g><g><path d="m217.884 325.44c0 8.768 3.747 16.811 9.988 23.102v15.39c0 2.644 2.164 4.716 4.808 4.748 2.595.032 4.688 2.145 4.688 4.748v15.593c0 5.958 3.587 11.33 9.09 13.615l6.017 2.498c3.067 1.273 6.325 1.91 9.583 1.91l6.485-55.534-6.485-62.551c-24.397-.002-44.174 16.332-44.174 36.481z" fill="#555a65"/><path d="m277.657 402.635c5.503-2.284 9.09-7.657 9.09-13.615v-15.593c0-2.602 2.094-4.716 4.688-4.748 2.644-.033 4.808-2.104 4.808-4.748v-15.39c6.241-6.291 9.988-14.335 9.988-23.102 0-20.149-19.777-36.482-44.173-36.482v118.085c3.258 0 6.515-.637 9.583-1.91z" fill="#333940"/><path d="m233.211 342.705c1.663-4.129 7.286-4.917 9.831-5.273 2.453-.343 8.625-1.208 11.351 2.592 2.617 3.648.161 8.952-.536 10.457-.685 1.479-3.38 7.297-8.669 7.686-5.013.368-8.428-4.43-9.474-5.899-1.093-1.535-4.057-5.701-2.503-9.563z" fill="#fcbeac"/><path d="m290.903 342.705c-1.663-4.129-7.286-4.917-9.831-5.273-2.453-.343-8.625-1.208-11.351 2.592-2.617 3.648-.161 8.952.536 10.457.685 1.479 3.38 7.297 8.669 7.686 5.013.368 8.428-4.43 9.474-5.899 1.093-1.535 4.057-5.701 2.503-9.563z" fill="#e89885"/><path d="m262.057 354.771 2.515 9.197-2.515 4.835c-.034.39-.22 2.047-1.609 3.217-1.08.91-2.866 1.509-4.022.894-2.353-1.252-2.089-7.534.089-11.976 1.603-3.268 4.075-5.2 5.542-6.167z" fill="#fcbeac"/><path d="m262.057 354.771v14.032c.034.39.22 2.047 1.609 3.217 1.08.91 2.866 1.509 4.022.894 2.353-1.252 2.089-7.534-.089-11.976-1.603-3.268-4.075-5.2-5.542-6.167z" fill="#e89885"/></g></g></svg>