<svg width="900" height="900" version="1.1" viewBox="0 0 238.12 238.12" xmlns="http://www.w3.org/2000/svg">
 <g transform="matrix(.4625 0 0 .4625 .66146 .66146)">
  <circle cx="256" cy="256" r="256" fill="#b16de2"/>
  <path d="m320.29 101.07-24.282-24.282-11.057 11.057-28.775-28.775-26.534 26.534-13.231-13.231-23.549 23.549 50.739 50.739-88.307 88.307 124.08 124.08-83.652 83.652 69.129 69.129c135.38-4.6 244.08-114.3 247.08-250.07l-176.16-176.16z" fill="#9f47d3"/>
  <path d="m182.45 121.85v90.57l79.605 230.29 15.304-224.42-15.304-96.433z" fill="#f7a690"/>
  <path d="m222.26 73.199v13.267c0-10.991-8.91-19.901-19.901-19.901s-19.901 8.91-19.901 19.901v57.492c0 10.991 8.91 19.901 19.901 19.901s19.901-8.91 19.901-19.901v3.673c0 10.991 8.91 19.901 19.901 19.901s19.901-8.91 19.901-19.901v-7.139l7.983-25.833-7.983-25.052v-16.41c0-10.991-8.91-19.901-19.901-19.901-10.991 2e-3 -19.901 8.912-19.901 19.903z" fill="#fdcdbf"/>
  <path d="m262.06 124.05h-96.607c-12.592 0-22.8 10.208-22.8 22.8v57.541c0 23.919 19.391 43.31 43.31 43.31h9.76v195h66.337l13.104-159.02-13.104-58.162c0-34.059-27.61-61.67-61.67-61.67h21.867c21.983 2e-3 39.803-17.819 39.803-39.801z" fill="#fcbeac"/>
  <path d="m262.06 121.85v320.86h66.337v-195l13.268-35.285v-90.57z" fill="#e89885"/>
  <path d="m262.06 90.889v48.647c0 10.991 8.91 19.901 19.901 19.901s19.901-8.91 19.901-19.901v-8.845c0 10.991 8.91 19.901 19.901 19.901s19.901-8.91 19.901-19.901v-30.957c0-10.991-8.91-19.901-19.901-19.901s-19.901 8.91-19.901 19.901v-8.845c0-10.991-8.91-19.901-19.901-19.901s-19.901 8.91-19.901 19.901z" fill="#fcbeac"/>
  <path d="m217.88 325.44c0 8.768 3.747 16.811 9.988 23.102v15.39c0 2.644 2.164 4.716 4.808 4.748 2.595 0.032 4.688 2.145 4.688 4.748v15.593c0 5.958 3.587 11.33 9.09 13.615l6.017 2.498c3.067 1.273 6.325 1.91 9.583 1.91l6.485-55.534-6.485-62.551c-24.397-2e-3 -44.174 16.332-44.174 36.481z" fill="#555a65"/>
  <path d="m277.66 402.64c5.503-2.284 9.09-7.657 9.09-13.615v-15.593c0-2.602 2.094-4.716 4.688-4.748 2.644-0.033 4.808-2.104 4.808-4.748v-15.39c6.241-6.291 9.988-14.335 9.988-23.102 0-20.149-19.777-36.482-44.173-36.482v118.08c3.258 0 6.515-0.637 9.583-1.91z" fill="#333940"/>
  <path d="m233.21 342.7c1.663-4.129 7.286-4.917 9.831-5.273 2.453-0.343 8.625-1.208 11.351 2.592 2.617 3.648 0.161 8.952-0.536 10.457-0.685 1.479-3.38 7.297-8.669 7.686-5.013 0.368-8.428-4.43-9.474-5.899-1.093-1.535-4.057-5.701-2.503-9.563z" fill="#fcbeac"/>
  <path d="m290.9 342.7c-1.663-4.129-7.286-4.917-9.831-5.273-2.453-0.343-8.625-1.208-11.351 2.592-2.617 3.648-0.161 8.952 0.536 10.457 0.685 1.479 3.38 7.297 8.669 7.686 5.013 0.368 8.428-4.43 9.474-5.899 1.093-1.535 4.057-5.701 2.503-9.563z" fill="#e89885"/>
  <path d="m262.06 354.77 2.515 9.197-2.515 4.835c-0.034 0.39-0.22 2.047-1.609 3.217-1.08 0.91-2.866 1.509-4.022 0.894-2.353-1.252-2.089-7.534 0.089-11.976 1.603-3.268 4.075-5.2 5.542-6.167z" fill="#fcbeac"/>
  <path d="m262.06 354.77v14.032c0.034 0.39 0.22 2.047 1.609 3.217 1.08 0.91 2.866 1.509 4.022 0.894 2.353-1.252 2.089-7.534-0.089-11.976-1.603-3.268-4.075-5.2-5.542-6.167z" fill="#e89885"/>
 </g>
</svg>
