<svg width="900" height="900" version="1.1" viewBox="0 0 238.12 238.12" xmlns="http://www.w3.org/2000/svg">
 <g transform="matrix(.4625 0 0 .4625 .66146 .661)">
  <circle cx="256" cy="256" r="256" fill="#ffb551"/>
  <path d="m512 256c0-2.88-0.065-5.744-0.159-8.6l-164.59-177.9-3e-3 2e-3c-13.408-16.388-33.786-26.851-56.612-26.851-40.31 0-72.996 32.62-73.11 72.903-5.858-27.329-30.141-47.823-59.22-47.823-33.455 0-60.576 27.121-60.576 60.576s27.121 60.576 60.576 60.576c1.111 0 2.212-0.036 3.307-0.094l-0.038 0.094h-83.386c-10.119 0-18.397 8.279-18.397 18.397v176.54c0 4.723 1.819 9.031 4.772 12.298l-8e-3 0.021 0.296 0.296c0.235 0.248 0.475 0.489 0.724 0.724l97.401 97.402c28.835 11.251 60.205 17.435 93.023 17.435 141.38 0 256-114.62 256-256z" fill="#ff8900"/>
  <polygon points="370.25 349.95 455.67 400.8 455.67 190.31 370.25 241.16" fill="#00459f"/>
  <path d="m356.69 188.89h-279.4c-9.62 0-17.492 7.871-17.492 17.492v178.35c0 9.62 7.871 17.492 17.492 17.492h279.4c9.62 0 17.492-7.871 17.492-17.492v-178.35c-1e-3 -9.621-7.872-17.492-17.493-17.492z" fill="#004db1"/>
  <path d="m356.69 188.89h-139.7v213.33h139.7c9.62 0 17.492-7.871 17.492-17.492v-178.35c-1e-3 -9.621-7.872-17.493-17.493-17.493z" fill="#003d8d"/>
  <rect x="59.799" y="207.97" width="314.38" height="175.15" fill="#006ef5"/>
  <circle cx="158.17" cy="128.31" r="60.576" fill="#004db1"/>
  <circle cx="290.51" cy="115.77" r="73.117" fill="#003d8d"/>
  <circle cx="290.51" cy="115.77" r="46.267" fill="#e1e1e3"/>
  <circle cx="158.17" cy="128.31" r="38.332" fill="#fff"/>
  <rect x="216.98" y="207.97" width="157.19" height="175.15" fill="#005ed3"/>
  <polygon points="174.8 356.12 174.8 295.56 174.8 234.99 279.7 295.56" fill="#fff"/>
  <polygon points="216.99 331.76 279.7 295.56 216.99 259.35" fill="#e1e1e3"/>
 </g>
</svg>
