<svg width="900" height="900" version="1.1" viewBox="0 0 238.12 238.12" xmlns="http://www.w3.org/2000/svg">
 <g transform="matrix(.4625 0 0 .4625 .66133 .66133)">
  <circle cx="256" cy="256" r="256" fill="#ffdf47"/>
  <path d="m512 256c0-32.636-6.119-63.838-17.252-92.541l-97.748-97.748-19.897 15.46 6.356 7.091c14.671 16.369 25.318 35.945 30.707 56.959l-52.114-52.355-19.378 15.058 3.592 4.462c11.174 13.878 19.01 30.629 22.009 48.31l-39.991-41.589-19.282 14.983c7.682 13.084 13.349 27.71 13.349 42.447 0 0.699-29.354-26.785-29.354-26.785-8.303-11.451-21.78-18.906-37.007-18.906-15.603 0-29.373 7.827-37.616 19.763l-15.394-16.521-19.28-14.984-14.39-11.181-54.325-42.211-5.178 5.777c-25.91 28.908-41.117 66.214-41.117 105.05s15.207 76.139 41.116 105.05l5.177 5.777 70.699 70.6-31.832 105.97 40.602 40.602c19.717 4.866 40.326 7.466 61.546 7.466 141.39-1e-3 256-114.62 256-256z" fill="#fec000"/>
  <path d="m324.79 463.93h33.342l-86.317-287.4h-31.637l-86.329 287.4h33.342l12.923-43.021h111.75zm-68.793-229.06 20.84 69.39h-41.684zm-46.29 154.1 15.854-52.778h60.867l15.851 52.778z" fill="#3a4de3"/>
  <polygon points="255.99 304.27 255.99 336.2 286.43 336.2 302.28 388.98 255.99 388.98 255.99 420.91 311.87 420.91 324.79 463.93 358.14 463.93 271.82 176.54 255.99 176.54 255.99 234.9 256 234.88 276.84 304.27" fill="#1c2ede"/>
  <circle cx="256" cy="176.53" r="45.69" fill="#ff0335"/>
  <g fill="#1c2ede">
   <path d="m402.18 281.58c25.909-28.908 41.116-66.214 41.116-105.05s-15.207-76.139-41.116-105.05l-5.177-5.777-19.897 15.46 6.356 7.092c21.77 24.29 34.698 55.639 34.698 88.272s-12.928 63.981-34.699 88.272l-6.356 7.092 19.897 15.458z"/>
   <path d="m394.13 176.54c0-29.02-10.846-57.306-28.836-79.649l-3.237-4.02-19.379 15.058 3.592 4.462c14.471 17.973 23.378 40.756 23.378 64.151s-8.908 46.178-23.378 64.151l-3.591 4.461 19.379 15.058 3.236-4.02c17.991-22.347 28.836-50.633 28.836-79.652z"/>
   <path d="m328.29 119.1-19.282 14.983c7.682 13.084 13.349 27.71 13.349 42.447 0 14.738-5.667 29.363-13.349 42.447l19.282 14.983c10.856-17.48 18.205-37.338 18.205-57.43 0-20.091-7.349-39.95-18.205-57.43z"/>
  </g>
  <g fill="#3a4de3">
   <path d="m109.81 71.489c-25.909 28.908-41.116 66.214-41.116 105.05s15.207 76.139 41.116 105.05l5.177 5.777 19.897-15.46-6.356-7.091c-21.771-24.29-34.698-55.639-34.698-88.272s12.928-63.981 34.7-88.272l6.356-7.092-19.897-15.46z"/>
   <path d="m117.86 176.54c0 29.02 10.846 57.306 28.836 79.649l3.237 4.02 19.379-15.058-3.592-4.462c-14.471-17.973-23.378-40.756-23.378-64.151s8.908-46.178 23.378-64.151l3.591-4.461-19.379-15.058-3.236 4.02c-17.99 22.347-28.836 50.633-28.836 79.652z"/>
   <path d="m183.7 233.96 19.282-14.983c-7.682-13.084-13.349-27.71-13.349-42.448s5.668-29.363 13.349-42.447l-19.282-14.983c-10.856 17.48-18.205 37.338-18.205 57.43s7.349 39.951 18.205 57.431z"/>
  </g>
  <path d="m301.68 176.54c0-25.052-20.165-45.384-45.148-45.676v91.352c24.983-0.291 45.148-20.624 45.148-45.676z" fill="#c2001b"/>
 </g>
</svg>
