<svg width="900" height="900" version="1.1" viewBox="0 0 238.12 238.12" xmlns="http://www.w3.org/2000/svg">
 <g transform="matrix(.4625 0 0 .4625 .66146 .66146)">
  <circle id="XMLID_2_" cx="256" cy="256" r="256" fill="#ffd01c"/>
  <path d="m511.44 272.7-159.15-159.15-44.951 2.574-82.618-82.618-21.153 23.775-37.291 402 49.864 49.625c12.988 2.03 26.296 3.093 39.854 3.093 135.77 0 246.84-105.7 255.44-239.3z" fill="#ffa412"/>
  <path d="m230.96 110.65h-54.776v-59.751c0-15.126 12.262-27.388 27.388-27.388s27.388 12.262 27.388 27.388z" fill="#1b2e7f"/>
  <path d="m256 480.63h-39.457c-38.582 0-69.859-31.277-69.859-69.859v-262.69c0-28.88 23.411-52.291 52.291-52.291h57.025l67.654 43.105-3.351 271.32z" fill="#3557aa"/>
  <path d="m313.03 95.786h-57.026v384.84h39.457c38.582 0 69.859-31.277 69.859-69.859v-262.69c1e-3 -28.88-23.411-52.292-52.29-52.292z" fill="#1b2e7f"/>
  <path d="m256 241.05h-73.933v-95.54h73.933l32.406 42.874z" fill="#99e6fc"/>
  <path d="m256 145.51h72.214v95.54h-72.214z" fill="#01c0fa"/>
  <path d="m193.22 278.34h5.555c6.75 0 12.223 5.472 12.223 12.223v5.555c0 6.75-5.472 12.223-12.223 12.223h-5.555c-6.75 0-12.223-5.472-12.223-12.223v-5.555c0-6.751 5.472-12.223 12.223-12.223z" fill="#eaeaea"/>
  <path d="m253.22 278.34h2.777l6.282 10.223 0.244 10.25-6.526 9.527h-2.777c-6.75 0-12.223-5.472-12.223-12.223v-5.555c0-6.75 5.472-12.222 12.223-12.222z" fill="#eaeaea"/>
  <g fill="#ccc">
   <path d="m258.78 308.34c6.75 0 12.223-5.472 12.223-12.223v-5.555c0-6.75-5.472-12.223-12.223-12.223h-2.777v30h2.777z"/>
   <path d="m313.22 278.34h5.555c6.75 0 12.223 5.472 12.223 12.223v5.555c0 6.75-5.472 12.223-12.223 12.223h-5.555c-6.75 0-12.223-5.472-12.223-12.223v-5.555c0-6.751 5.472-12.223 12.223-12.223z"/>
  </g>
  <path d="m193.22 338.34h5.555c6.75 0 12.223 5.472 12.223 12.223v5.555c0 6.75-5.472 12.223-12.223 12.223h-5.555c-6.75 0-12.223-5.472-12.223-12.223v-5.555c0-6.751 5.472-12.223 12.223-12.223z" fill="#eaeaea"/>
  <path d="m253.22 338.34h2.777l7.806 8.886-0.306 10.986c0 6.75-7.5 10.128-7.5 10.128h-2.777c-6.75 0-12.223-5.472-12.223-12.223v-5.555c0-6.75 5.472-12.222 12.223-12.222z" fill="#eaeaea"/>
  <g fill="#ccc">
   <path d="m258.78 368.34c6.75 0 12.223-5.472 12.223-12.223v-5.555c0-6.75-5.472-12.223-12.223-12.223h-2.777v30h2.777z"/>
   <path d="m313.22 338.34h5.555c6.75 0 12.223 5.472 12.223 12.223v5.555c0 6.75-5.472 12.223-12.223 12.223h-5.555c-6.75 0-12.223-5.472-12.223-12.223v-5.555c0-6.751 5.472-12.223 12.223-12.223z"/>
  </g>
  <path d="m193.22 398.34h5.555c6.75 0 12.223 5.472 12.223 12.223v5.555c0 6.75-5.472 12.223-12.223 12.223h-5.555c-6.75 0-12.223-5.472-12.223-12.223v-5.555c0-6.751 5.472-12.223 12.223-12.223z" fill="#eaeaea"/>
  <path d="m253.22 398.34h2.777l7.985 7.606-0.485 11.827c0 6.75-7.5 10.567-7.5 10.567h-2.777c-6.75 0-12.223-5.472-12.223-12.223v-5.555c0-6.75 5.472-12.222 12.223-12.222z" fill="#eaeaea"/>
  <path d="m258.78 428.34c6.75 0 12.223-5.472 12.223-12.223v-5.555c0-6.75-5.472-12.223-12.223-12.223h-2.777v30h2.777z" fill="#ccc"/>
  <path d="m313.22 398.34h5.555c6.75 0 12.223 5.472 12.223 12.223v5.555c0 6.75-5.472 12.223-12.223 12.223h-5.555c-6.75 0-12.223-5.472-12.223-12.223v-5.555c0-6.751 5.472-12.223 12.223-12.223z" fill="#ccc"/>
 </g>
</svg>
