<svg width="900" height="900" version="1.1" viewBox="0 0 238.12 238.12" xmlns="http://www.w3.org/2000/svg">
 <g transform="matrix(.4625 0 0 .4625 .66146 .66146)">
  <path d="m256 0c-59.939 0-115.06 20.606-158.68 55.112l-2.392 29.419-21.805-7.642c-45.224 46.169-73.118 109.38-73.118 179.11 0 141.38 114.62 256 256 256s256-114.62 256-256-114.62-256-256-256z" fill="#00ed89"/>
  <path d="m256 0c-59.939 0-115.06 20.606-158.68 55.112l-2.392 29.419-5.756-2.017 65.252 342.61 86.417 86.417c5.018 0.293 10.071 0.459 15.164 0.459 141.38 0 256-114.62 256-256s-114.62-256-256-256z" fill="#00dc80"/>
  <path d="m73.117 76.889 76.402 313.63 27.963-6.318-80.167-329.09c-8.524 6.743-16.602 14.022-24.198 21.777z" fill="#454553"/>
  <path d="m250.94 303.34h-82.986l-16.696-73.721h-50.512l42.976 178.01c3.621 14.997 17.042 25.564 32.47 25.564h74.749l16.844-64.925z" fill="#525264"/>
  <path d="m395.98 190.57-36.349 72.698c-40.15 0-72.698-32.548-72.698-72.698s32.548-72.698 72.698-72.698z" fill="#ebf3ff"/>
  <path d="m432.33 190.57c0 40.15-32.548 72.698-72.698 72.698v-145.4c40.15 0 72.698 32.548 72.698 72.698z" fill="#d7e8ff"/>
  <path d="m359.63 433.19h-10.256v-92.076l-50.05-58.434 60.306-15.18 6.154 66.05z" fill="#ff6426"/>
  <path d="m359.63 433.19h10.256v-92.076l50.05-58.434-60.306-15.18z" fill="#ff4c04"/>
  <path d="m359.63 282.68h-60.306v-30.359h62.699l21.133 15.179z" fill="#ff7037"/>
  <path d="m359.63 252.32h60.306v30.358h-60.306z" fill="#ff6426"/>
  <path d="m367.83 313.13c-6.264-6.264-14.76-9.783-23.619-9.783h-93.28v129.85h56.525c11.883 0 22.872-6.313 28.857-16.579l36.755-63.044c7.641-13.106 5.49-29.716-5.238-40.443z" fill="#454553"/>
  <path d="m250.94 328.61h-100.31l17.647 73.094c0.885 3.667 4.138 6.228 7.911 6.228h74.749l16.844-39.661z" fill="#606074"/>
  <path d="m344.22 328.61h-93.281v79.322h56.525c2.885 0 5.579-1.549 7.031-4.04l36.755-63.044c1.86-3.191 1.336-7.243-1.278-9.856-1.512-1.514-3.609-2.382-5.752-2.382z" fill="#525264"/>
 </g>
</svg>
