<svg width="900" height="900" version="1.1" viewBox="0 0 238.12 238.12" xmlns="http://www.w3.org/2000/svg">
 <g transform="matrix(.4625 0 0 .4625 .66146 .66146)">
  <g id="XMLID_62_">
   <circle cx="256" cy="256" r="256" fill="#5e478e"/>
  </g>
  <path d="m509.16 217.77-183.76-183.77-127.91 16-43.321 22.48 69.911 69.911-77.722 313.39 48.939 48.954c19.466 4.735 39.794 7.263 60.716 7.263 141.38 0 256-114.62 256-256 0-12.994-0.976-25.76-2.845-38.234z" fill="#36325e"/>
  <path d="m237.06 132.8h18.937l13.922-34.787-13.922-41.26h-18.937z" fill="#f99830"/>
  <path d="m256 56.748h18.937v76.047h-18.937z" fill="#d66a21"/>
  <path d="m186.61 171.18h69.39l34.695-28.405-34.695-19.597h-69.39z" fill="#fff"/>
  <path d="m256 123.17h69.39v48.002h-69.39z" fill="#d3d3d3"/>
  <path d="m164.52 57.605-10.359 14.875 26.26 18.287 10.358-14.874c4.314-6.194 11.397-9.893 18.945-9.893h46.28l27.334-16-27.334-16h-46.28c-18.01 0-34.909 8.824-45.204 23.605z" fill="#ffe35a"/>
  <path d="m256 34h69.39v32h-69.39z" fill="#fb2"/>
  <path d="m177.01 167.43c-23.861 0-43.204 19.343-43.204 43.204v214.79c0 23.861 19.343 43.204 43.204 43.204h78.993l87.475-197.1-87.475-104.1z" fill="#ffe35a"/>
  <path d="m334.99 167.43h-78.993v301.2h78.993c23.861 0 43.204-19.343 43.204-43.204v-214.79c0-23.861-19.343-43.204-43.204-43.204z" fill="#fb2"/>
  <path d="m197.01 332.96c0 36.377 41.608 9.916 58.988 9.916l32.253-31.441-32.253-36.426c-30.514 0-58.988 28.247-58.988 57.951z" fill="#7f5f52"/>
  <path d="m256 275.01v67.867c17.381 0 58.988 26.461 58.988-9.916 0-29.704-28.474-57.951-58.988-57.951z" fill="#4c3a3a"/>
  <path d="m234.2 235.4c0 12.037 9.758 21.795 21.795 21.795l13.048-21.795-13.048-21.795c-12.037 0-21.795 9.758-21.795 21.795z" fill="#7f5f52"/>
  <path d="m277.8 235.4c0-12.037-9.758-21.795-21.795-21.795v43.589c12.037 0 21.795-9.757 21.795-21.794z" fill="#4c3a3a"/>
  <circle transform="matrix(.383 -.924 .924 .383 -48.484 452.71)" cx="314.52" cy="262.64" r="20.313" fill="#4c3a3a"/>
  <circle transform="matrix(.383 -.924 .924 .383 -120.74 344.58)" cx="197.48" cy="262.64" r="20.313" fill="#7f5f52"/>
  <path d="m183.28 389.62v32.731h72.718l34.581-16.366-34.581-16.365z" fill="#7f5f52"/>
  <path d="m256 389.62h72.718v32.732h-72.718z" fill="#4c3a3a"/>
 </g>
</svg>
