<svg width="900" height="900" version="1.1" viewBox="0 0 238.12 238.12" xmlns="http://www.w3.org/2000/svg">
 <g transform="matrix(.4625 0 0 .4625 .66146 .66146)">
  <circle cx="256" cy="256" r="256" fill="#28bd9e"/>
  <path d="m342.13 139.55 10.428 10.428-10.428 10.428 10.742 10.742-48.095 48.095 6.277 6.277-20.116 20.116-117.44-117.44-11.358 11.358 10.607 10.607-10.607 10.607 10.323 10.323-10.323 10.323 8.976 8.976-63.25 63.25-9.904-9.904-21.963 21.962 55.662 55.662-35.662 35.662 154.92 154.92c1.691 0.033 3.382 0.064 5.08 0.064 131.56 0 239.92-99.247 254.35-226.95l-156.86-156.86z" fill="#249887"/>
  <path d="m162.66 263.81v93.206h93.337l9.235-46.603-9.235-46.603z" fill="#fdcdbf"/>
  <path d="m412.48 285.1c4.686-4.686 4.686-12.284 0-16.97-4.58-5.262-12.728-5.7-17.678-0.707l-44.651 44.651h-71.159c-10.448-2.299-12.481-18.376-2.975-23.265h49.328c6.627 0 12-5.373 12-12 0.481-6.958-4.969-13.031-12-13h-69.35v93.206h90.526c5.853 0 65.959-71.915 65.959-71.915z" fill="#fcbeac"/>
  <path d="m96 263.81h40v93.206h-40z" fill="#555a65"/>
  <path d="m133.71 263.81h99.471v120h-99.471z" fill="#fff"/>
  <path d="m158.5 128.19h15v50h-15z" fill="#fff"/>
  <path d="m126 176.69h80v17h-80z" fill="#fdd437"/>
  <path d="m116 192.69h100v45h-100z" fill="#c98456"/>
  <path d="m338.49 128.19h15v50h-15z" fill="#e9edf5"/>
  <path d="m305.99 176.69h80v17h-80z" fill="#faba35"/>
  <path d="m295.99 192.69h100v45h-100z" fill="#b1744b"/>
  <path d="m76 235.69v30h180l11.706-15-11.706-15z" fill="#e9edf5"/>
  <path d="m256 235.69h180v30h-180z" fill="#cdd2e1"/>
 </g>
</svg>
