<svg width="900" height="900" version="1.1" viewBox="0 0 238.12 238.12" xmlns="http://www.w3.org/2000/svg">
 <g transform="matrix(.4625 0 0 .4625 .66146 .66146)">
  <circle cx="256" cy="256" r="256" fill="#005fd2"/>
  <path d="m511.49 271.94-200.4-200.4s-60.11 56.177-60.11 107.07c0 22.128 8.099 36.814 18.674 46.348l54.853 54.942-13.244 6.199-18.55-18.575c-2.337-2.313-5.184-4.136-8.309-5.183 0 0-60.672-20.166-65.033-21.626-6.81-2.281-15.065-6.037-23.406-2.133-2.361 1.105-37.889 17.734-65.143 30.492l-14.228-13.402-53.804 25.182 58.689 125.39 103.93 103.93c10.032 1.194 20.237 1.826 30.59 1.826 136.03 0 247.26-106.1 255.49-240.06z" fill="#003d8d"/>
  <path d="m146.89 384.92 67.615-31.648c13.385-6.265 15.919-7.631 40.479-0.03 19.58 6.059 40.3-2.995 58.147-11.349l97.015-45.41c14.42-6.749 21.24-22.625 15.233-35.46-6.007-12.834-22.567-17.767-36.987-11.017l-90.509 42.364c-1.727 0.808-3.674 0.948-5.383 0.386l-88.696-29.165c-1.709-0.562-3.656-0.422-5.383 0.386l-88.705 41.52z" fill="#ffdba9"/>
  <path d="m284.41 262.35s-60.672-20.166-65.033-21.626c-6.81-2.281-15.065-6.037-23.406-2.133-3.862 1.808-96.446 45.143-96.446 45.143l15.868 33.902 87.873-41.131 45.124 15.111c0.094 0.031 21.759 7.271 21.759 7.271 10.227 3.425 23.921-1.285 27.843-11.332 3.923-10.047-3.354-21.78-13.582-25.205z" fill="#ffc473"/>
  <polygon points="175.29 381.06 121.48 406.25 62.794 280.86 62.795 280.86 116.6 255.68" fill="#ff73af"/>
  <rect transform="matrix(.9057 -.4239 .4239 .9057 -138.63 89.042)" x="101.13" y="314.72" width="59.41" height="82.839" fill="#ff127f"/>
  <path d="m311.1 71.543s-60.11 56.177-60.11 107.07 42.846 62.427 60.11 62.427 60.11-11.531 60.11-62.427-60.11-107.07-60.11-107.07z" fill="#00efd1"/>
  <path d="m371.21 178.62c0 50.89-42.85 62.42-60.11 62.42v-169.5s60.11 56.18 60.11 107.08z" fill="#00ceb4"/>
 </g>
</svg>
