<svg width="900" height="900" version="1.1" viewBox="0 0 238.12 238.12" xmlns="http://www.w3.org/2000/svg">
 <g transform="matrix(.4625 0 0 .4625 .66146 .66146)">
  <circle cx="256" cy="256" r="256" fill="#1b56db"/>
  <path d="m75.924 318.92 192.76 192.77c121.88-5.95 221.37-97.141 240.12-215.23l-135.78-135.78z" fill="#1149aa"/>
  <path d="m378.95 225.34v-47.146c0-15.937-12.919-28.856-28.856-28.856h-241.59c-17.996 0-32.585 14.589-32.585 32.585v137h364.82v-64.727c0-15.937-12.919-28.856-28.856-28.856h-32.941z" fill="#fec007"/>
  <rect x="75.924" y="261.67" width="364.82" height="57.25" fill="#fe9f00"/>
  <circle cx="141.53" cy="319.99" r="37.29" fill="#212121"/>
  <circle cx="141.53" cy="319.99" r="19.18" fill="#616161"/>
  <circle cx="381.26" cy="319.99" r="37.29" fill="#0c0c0c"/>
  <circle cx="381.26" cy="319.99" r="19.18" fill="#424242"/>
  <g fill="#47d7fd">
   <rect x="88.44" y="179.34" width="69.46" height="50.08"/>
   <rect x="335.45" y="179.34" width="43.506" height="45.993"/>
   <rect x="174.89" y="179.34" width="69.46" height="50.08"/>
  </g>
  <rect x="259.26" y="179.34" width="62.862" height="139.58" fill="#37474f"/>
  <rect x="259.26" y="261.67" width="62.862" height="57.25" fill="#263238"/>
 </g>
</svg>
