<svg width="900" height="900" version="1.1" viewBox="0 0 238.12 238.12" xmlns="http://www.w3.org/2000/svg">
 <g transform="matrix(.4625 0 0 .4625 .66146 .66146)">
  <circle cx="256" cy="256" r="256" fill="#ff6c52"/>
  <path d="m370.91 211.25-57.465-52.617-181.92-16.036-40.577 36.337 94.795 84.793-106.43 95.919 151.09 151.09c8.419 0.835 16.957 1.263 25.596 1.263 112.27 0 207.66-72.274 242.19-172.84l-48.267-48.902z" fill="#f92814"/>
  <path d="m79.313 301.59h114.68v58.055h-114.68z" fill="#fff"/>
  <path d="m449.92 290.26-79.012-79.012h-77.54v90.341h-100.27v58.055h256.82v-37.091l-6.093-12.513 6.093-12.512z" fill="#e9edf5"/>
  <path d="m415.36 284.78h-100.27v-56.149h44.117z" fill="#a3d4ff"/>
  <circle transform="matrix(.707 -.707 .707 .707 -215.9 210.08)" cx="145.64" cy="365.66" r="39.438" fill="#636978"/>
  <circle transform="matrix(.924 -.383 .383 .924 -128.85 83.569)" cx="145.64" cy="365.66" r="17.867" fill="#414952"/>
  <circle transform="matrix(.707 -.707 .707 .707 -148.46 372.92)" cx="375.92" cy="365.66" r="39.438" fill="#414952"/>
  <circle transform="matrix(.924 -.383 .383 .924 -111.32 171.69)" cx="375.92" cy="365.66" r="17.867" fill="#23272b"/>
  <path d="m422.03 297.53h27.89v25.026h-27.89z" fill="#ffce00"/>
  <path d="m193.1 69.156-101.1 90.536v99.846l101.1 8.455 0.893-0.075v-197.96z" fill="#ffce00"/>
  <path d="m294.2 159.69-101.1-90.537v198.84l101.1-8.453z" fill="#fdba12"/>
  <path d="m92.004 259.54v42.052l74.273 1e-3 26.826-7.258 0.893 0.242v-35.036z" fill="#fa0"/>
  <path d="m193.1 259.54v34.795l26.748 7.258 74.351 1e-3v-42.052z" fill="#fa0"/>
  <path d="m193.1 50.864-120.34 107.77 18.182 20.303 102.16-91.485 0.893 0.8v-36.585z" fill="#414952"/>
  <path d="m295.26 178.94-102.16-91.487v-36.585l120.34 107.77z" fill="#23272b"/>
  <path d="m166.28 234.4h27.719v67.196h-27.719z" fill="#636978"/>
  <path d="m193.1 234.4h26.826v67.196h-26.826z" fill="#414952"/>
  <path d="m111.12 174.6h50.298v50.298h-50.298z" fill="#fff"/>
  <path d="m224.79 174.6h50.298v50.298h-50.298z" fill="#e9edf5"/>
 </g>
</svg>
