<svg width="900" height="900" version="1.1" viewBox="0 0 238.12 238.12" xmlns="http://www.w3.org/2000/svg">
 <g transform="matrix(.4625 0 0 .4625 .66146 .66146)">
  <circle id="XMLID_47_" cx="256" cy="256" r="256" fill="#8c3b25"/>
  <path d="m512 256c0-39.926-9.145-77.715-25.447-111.39l-74.439-74.439-140.49 130.3-127.58-127.58-46.89 41.434 59.223 59.223-7.947 189.15-53.486 66.395 63.736 63.736c30.003 12.342 62.86 19.165 97.316 19.165 141.38 0 256-114.62 256-256z" fill="#56251e"/>
  <path d="m94.947 429.1c4.141 3.659 10.447 3.333 14.189-0.732l146.86-159.56 53.125-73.738-53.125 28.77-162.07 191.09c-3.574 4.214-3.12 10.513 1.02 14.171z" fill="#fff"/>
  <path d="m418.28 92.499-29.084-25.701-133.2 157.04v44.968z" fill="#f3eae6"/>
  <path d="m122.8 66.798-29.084 25.701 162.28 176.31 37.313 20.71-37.313-65.678z" fill="#fff"/>
  <path d="m418.07 414.93-162.07-191.09v44.968l146.86 159.56c3.742 4.066 10.049 4.391 14.189 0.732 4.141-3.659 4.594-9.958 1.02-14.172z" fill="#f3eae6"/>
  <circle transform="matrix(.514 -.858 .858 .514 -21.713 148.88)" cx="120.6" cy="93.613" r="31.287" fill="#ff9f50"/>
  <circle transform="matrix(.895 -.446 .446 .895 -.703 184.24)" cx="391.4" cy="93.613" r="31.287" fill="#ea792d"/>
  <path d="m357.7 170.84c-13.329-13.063-29.101-23.495-46.393-30.627l-39.627 2.91-4.139-13.408c-3.818-0.312-7.671-0.448-11.543-0.442l-100.84 164.22 97.75 119.06 24.176 5.544c1.186-0.184 2.372-0.368 3.555-0.572 5.125-0.882 10.134-2.019 15.031-3.4 6.783-1.919 13.333-4.305 19.626-7.124l-0.579-14.021 38.314-10.509c26.863-24.179 44.256-57.966 47.589-94.862z" fill="#51c487"/>
  <g fill="#6eea89">
   <path d="m199.57 341.98-69.713 4.432c20.811 36.472 56.664 62.255 97.764 70.451l5e-3 -2e-3c-4e-3 -1e-3 -7e-3 -1e-3 -0.01-2e-3 0.01 2e-3 -28.046-74.879-28.046-74.879z"/>
   <path d="m231.36 131.38c-1.183 0.204-2.362 0.427-3.539 0.66l-20.955 15.843-25.247 1.854c-26.797 15.985-47.59 40.191-59.518 68.57l4.477 73.934c20.194 8.94 182.55 24.688 182.55 24.688l-53.126-158.48v-29.171c-3.1 5e-3 -6.211 0.095-9.333 0.303-5.08 0.317-10.182 0.922-15.306 1.804z"/>
  </g>
  <path d="m256 395.5v-34.491l-33.275-6.421s12.423 38.506 33.275 40.912z" fill="#6eea89"/>
  <path d="m121.4 289.52-8.093 11.681c3.058 16.336 8.75 31.533 16.552 45.218 18.472 7.69 38.392 12.841 59.107 15.375 10.326 20.61 23.347 39.227 38.651 55.072 9.231 1.847 18.731 2.798 28.383 2.789l12.184-5.244-12.183-18.912c-8.018-9.984-15.245-20.808-21.603-32.326 7.172-0.421 14.382-1.145 21.603-2.164l37.313-24.104-37.313-19.977c-44.365 7.25-127.88-21.975-134.6-27.408z" fill="#51c487"/>
  <g fill="#329e7d">
   <path d="m277.08 418.1c-0.169-0.154-0.327-0.309-0.496-0.463-7.341-6.795-14.214-14.201-20.588-22.137v24.156c6.963-8e-3 14.005-0.512 21.084-1.556z"/>
   <path d="m399.08 249.81c-0.45-2.612-0.968-5.185-1.549-7.737-1.554-6.842-3.578-13.463-6.031-19.84-5.431 13.19-13.76 25.995-24.807 37.923-26.778 28.933-65.879 49.059-110.09 56.672-0.198 0.034-0.402 0.062-0.602 0.094v44.08c2.664-0.376 5.329-0.786 7.995-1.245 4.486-0.772 8.927-1.664 13.327-2.653 10.469 18.703 23.24 35.552 37.974 49.893 3.856-1.709 7.602-3.582 11.259-5.622 9.595-5.326 18.455-11.681 26.475-18.908-1.546-1.317-3.079-2.676-4.601-4.089-10.799-9.991-20.363-21.701-28.51-34.754 30.619-12.72 57.622-31.064 78.746-53.876 0.658-0.715 1.306-1.429 1.954-2.142 1.121-12.335 0.66-25.008-1.543-37.796z"/>
  </g>
  <path d="m249.55 275.86c-44.209 7.613-87.791 1.716-122.7-16.592-4.992-2.611-15.471 2.128-15.471 2.128-0.709 7.9-0.77 15.952-0.143 24.073 0.346 4.521 0.911 9.06 1.696 13.618 0.121 0.703 0.251 1.405 0.382 2.107 41.838 19.976 92.152 26.27 142.69 17.75l53.125-38.554-53.126-5.747c-2.139 0.433-4.288 0.844-6.453 1.217z" fill="#6eea89"/>
  <path d="m391.5 222.24c-2.082-5.425-4.472-10.676-7.149-15.735-2.078-3.931-4.333-7.737-6.746-11.431-4.813 8.315-10.822 16.404-17.968 24.114-25.467 27.516-62.081 47.066-103.63 55.464v44.3c0.313-0.053 0.626-0.099 0.94-0.153 53.589-9.229 101.41-34.101 134.67-70.018 2.038-2.204 4.013-4.443 5.919-6.7-1.555-6.843-3.579-13.464-6.031-19.841z" fill="#51c487"/>
  <path d="m244.99 233.11c-0.906 0.167-1.81 0.337-2.72 0.494-13.312 2.292-26.566 3.357-39.546 3.23 0.186-37.449 8.615-73.352 24.784-104.2 0.109-0.191 0.205-0.401 0.314-0.592-16.763 3.303-32.295 9.387-46.207 17.699-11.456 25.175-18.034 53.282-19.537 82.57-14.136-3.105-27.581-7.782-39.977-14.003-4.358 10.353-7.53 21.263-9.389 32.531-0.576 3.485-1.021 7.013-1.34 10.567 41.006 18.134 89.56 23.522 138.29 15.131 2.123-0.366 4.234-0.765 6.338-1.179l25.831-69.137-25.829-47.775c-7.493 23.429-11.227 48.703-11.012 74.667z" fill="#51c487"/>
  <path d="m377.6 195.07c-5.762-8.827-12.444-16.939-19.898-24.233-1.706 2.053-3.49 4.09-5.346 6.093-16.887 18.246-38.678 32.984-63.557 43.296 1.362-26.991 7.957-52.554 19.54-74.637 0.963-1.83 1.943-3.622 2.97-5.382-9.975-4.127-20.462-7.161-31.285-8.961-4.119-0.701-8.278-1.223-12.481-1.534-4.524 9.181-8.365 18.792-11.543 28.729v116.91c51.014-10.046 96.39-34.336 128.33-68.839 8e-3 -0.011 8e-3 -0.011 0.016-0.012-2.078-3.931-4.332-7.738-6.746-11.432z" fill="#329e7d"/>
 </g>
</svg>
