<svg width="900" height="900" version="1.1" viewBox="0 0 238.12 238.12" xmlns="http://www.w3.org/2000/svg">
 <g transform="matrix(.4625 0 0 .4625 .66146 .66146)">
  <circle cx="256" cy="256" r="256" fill="#324a5e"/>
  <path d="m507.86 302.05-188.27-188.27-36.73-13.072h-55.596v66.801l35.628 285.02 52.527 52.527c98.072-23.313 174.28-103.04 192.44-203.01z" fill="#2b3b4e"/>
  <path d="m341.34 170.67c0-47.128-38.205-85.333-85.333-85.333s-85.333 38.205-85.333 85.333c0 37.152 23.75 68.742 56.889 80.458v147.1l35.34 54.303 34.478-56.889-15.515-32.754 15.515-32.754-12.355-32.754v-46.442c32.84-11.876 56.314-43.327 56.314-80.265zm-85.333-56.889c11.902 0 21.549 9.647 21.549 21.549s-9.647 21.549-21.549 21.549-21.549-9.647-21.549-21.549 9.647-21.549 21.549-21.549z" fill="#fff"/>
  <path d="m341.34 170.67c0-47.128-38.205-85.333-85.333-85.333-0.193 0-0.381 0.014-0.574 0.014v28.46c0.193-5e-3 0.381-0.029 0.574-0.029 11.902 0 21.549 9.647 21.549 21.549s-9.647 21.549-21.549 21.549c-0.193 0-0.381-0.024-0.574-0.029v284.2l7.47 11.478 34.478-56.889-15.515-32.754 15.515-32.754-12.355-32.754v-46.442c32.84-11.88 56.314-43.329 56.314-80.267z" fill="#e6f3ff"/>
  <path d="m251.28 405.55h-0.895c-3.086 0-5.585-2.501-5.585-5.585v-145.7c0-3.086 2.501-5.585 5.585-5.585h0.895c3.086 0 5.585 2.501 5.585 5.585v145.7c3e-3 3.085-2.499 5.587-5.585 5.587z" fill="#cfdbe6"/>
 </g>
</svg>
