<svg width="900" height="900" version="1.1" viewBox="0 0 238.12 238.12" xmlns="http://www.w3.org/2000/svg">
 <g transform="matrix(.4625 0 0 .4625 .66146 .66146)">
  <g id="XMLID_2049_">
   <g id="XMLID_2050_">
    <g id="XMLID_2051_">
     <g id="XMLID_2052_">
      <g id="XMLID_2053_">
       <g id="XMLID_2054_">
        <g id="XMLID_2055_">
         <g id="XMLID_2056_">
          <g id="XMLID_2057_">
           <g id="XMLID_2058_">
            <g id="XMLID_2059_">
             <g id="XMLID_2060_">
              <g id="XMLID_2061_">
               <g id="XMLID_2062_">
                <g id="XMLID_2063_">
                 <circle cx="256" cy="256" r="256" fill="#ffcd40"/>
                </g>
               </g>
              </g>
             </g>
            </g>
           </g>
          </g>
         </g>
        </g>
       </g>
      </g>
     </g>
    </g>
   </g>
  </g>
  <path d="m508.37 299.2-264.18-264.18-99.803 406.69s28.925 30.211 63.505 65.777c15.582 2.962 31.664 4.513 48.108 4.513 126.66 0 231.84-91.987 252.37-212.8z" fill="#f79e00"/>
  <path d="m388.49 292.16h-23.233v-61.661h23.233c12.36 0 22.379 10.02 22.379 22.379v16.902c0 12.361-10.019 22.38-22.379 22.38z" fill="#dd1d42"/>
  <path d="m388.49 397.28h-23.233v-61.662h23.233c12.36 0 22.379 10.02 22.379 22.379v16.903c0 12.36-10.019 22.38-22.379 22.38z" fill="#333"/>
  <path d="m172.04 116.58h102.73v54.632h-102.73z" fill="#fff"/>
  <path d="m223.41 116.59h51.36v54.63h-51.36z" fill="#d3d3d3"/>
  <path d="m333.53 451.48h-163.84c-20.788 0-37.641-16.853-37.641-37.641v-23.927l29.643-76.021-29.643-76.021v-31.639c0-20.788 16.853-37.641 37.641-37.641h163.84c20.788 0 37.641 16.852 37.641 37.641v207.61c0 20.789-16.852 37.641-37.641 37.641z" fill="#35b75d"/>
  <path d="m371.17 206.23v207.61c0 20.79-16.85 37.64-37.64 37.64h-110.12v-282.89h110.12c20.79 0 37.64 16.85 37.64 37.64z" fill="#09825a"/>
  <path d="m274.77 88.326s-30.579-33.382-30.579-53.303h-41.568c0 19.921-30.58 53.303-30.58 53.303v36.034h102.73z" fill="#4f4f4f"/>
  <path d="m274.77 88.33v36.03h-51.36v-89.34h20.78c0 19.92 30.58 53.31 30.58 53.31z" fill="#333"/>
  <path d="m132.04 237.87h185.74v152.04h-185.74z" fill="#fff"/>
  <path d="m223.41 237.87h94.37v152.04h-94.37z" fill="#d3d3d3"/>
 </g>
</svg>
