<svg width="900" height="900" version="1.1" viewBox="0 0 238.12 238.12" xmlns="http://www.w3.org/2000/svg">
 <g transform="matrix(.4625 0 0 .4625 .66146 .66146)">
  <g id="XMLID_195_">
   <circle cx="256" cy="256" r="256" fill="#7dedff"/>
  </g>
  <path d="m492.89 158.82-88.593-88.593-370.26 100.65 65.64 65.64-19.028 199.36 32.767 32.767c40.751 27.381 89.802 43.363 142.59 43.363 141.38 0 256-114.62 256-256 0-34.405-6.804-67.216-19.112-97.184z" fill="#6cbaea"/>
  <path d="m80.645 157.21v278.66h120.02l55.337-62.092 95.623-118.21-95.623-98.353z" fill="#fff"/>
  <path d="m256 157.21v216.56l55.337 62.092h120.02v-278.66z" fill="#e5e5e5"/>
  <path d="m34.033 170.87h221.97l74.535-55.134-74.535-45.512h-148.3z" fill="#ea285b"/>
  <path d="m477.97 170.87-73.671-100.65h-148.3v100.65z" fill="#b2145c"/>
  <path d="m200.66 435.87h55.337l45.722-66.623-45.722-66.623h-55.337z" fill="#f99830"/>
  <path d="m256 302.62h55.337v133.25h-55.337z" fill="#d66a21"/>
  <path d="m164.56 137.29c0 50.503 40.941 91.444 91.444 91.444l52.641-96.804-52.641-86.084c-50.503 0-91.444 40.941-91.444 91.444z" fill="#ffe35a"/>
  <path d="m347.44 137.29c0-50.503-40.941-91.444-91.444-91.444v182.89c50.503 0 91.444-40.941 91.444-91.444z" fill="#fb2"/>
  <path d="m208.97 171.8c0 29.003 33.174 7.906 47.031 7.906l25.715-25.067-25.715-29.043c-24.328 0-47.031 22.521-47.031 46.204z" fill="#7f5f52"/>
  <path d="m256 125.6v54.11c13.858 0 47.031 21.097 47.031-7.906 0-23.683-22.703-46.204-47.031-46.204z" fill="#5b4745"/>
  <path d="m238.62 94.024c0 9.597 7.78 17.377 17.377 17.377l10.403-17.377-10.403-17.377c-9.597 0-17.377 7.78-17.377 17.377z" fill="#7f5f52"/>
  <path d="m273.38 94.024c0-9.597-7.78-17.377-17.377-17.377v34.753c9.597 0 17.377-7.779 17.377-17.376z" fill="#5b4745"/>
  <circle transform="matrix(.924 -.383 .383 .924 -21.251 124.63)" cx="302.66" cy="115.74" r="16.195" fill="#5b4745"/>
  <circle transform="matrix(.23 -.973 .973 .23 48.605 292.88)" cx="209.34" cy="115.74" r="16.195" fill="#7f5f52"/>
  <path d="m121.22 238.42h39.153v39.153h-39.153z" fill="#7dedff"/>
  <path d="m121.22 336.68h39.153v39.153h-39.153z" fill="#7dedff"/>
  <path d="m351.62 238.42h39.153v39.153h-39.153z" fill="#6cbaea"/>
  <path d="m351.62 336.68h39.153v39.153h-39.153z" fill="#6cbaea"/>
 </g>
</svg>
