<svg width="900" height="900" version="1.1" viewBox="0 0 238.12 238.12" xmlns="http://www.w3.org/2000/svg">
 <g transform="matrix(.4625 0 0 .4625 .66146 .66146)">
  <g id="XMLID_56_">
   <circle cx="256" cy="256" r="256" fill="#eaeaea"/>
  </g>
  <path d="m512 256c0-13.998-1.141-27.728-3.303-41.116l-148.1-148.1-80.539 58.537-58.537-58.537-67.775 94.22 58.014 57.461-25.785 22.779-73.063-73.109-60.21 61.156 72.627 72.624-19.945 114.04 88.486 88.438c19.894 4.961 40.701 7.609 62.13 7.609 141.38 0 256-114.62 256-256z" fill="#c6c6c6"/>
  <path d="m90.496 372.24c0 97.845 116.74 36.441 165.5 36.441l101.17-84.895-101.17-122.98c-85.612 0-165.5 91.533-165.5 171.43z" fill="#ea285b"/>
  <path d="m256 200.81v207.87c48.765 0 165.5 61.403 165.5-36.441 0-79.897-79.892-171.43-165.5-171.43z" fill="#b2145c"/>
  <circle transform="matrix(.162 -.987 .987 .162 -126.66 247.45)" cx="82.414" cy="198.33" r="42.915" fill="#ea285b"/>
  <circle transform="matrix(.162 -.987 .987 .162 164.15 590.02)" cx="429.58" cy="198.33" r="42.915" fill="#b2145c"/>
  <path d="m236.94 250.48v40.391h-40.391v38.114h40.391v40.391h19.057l19.573-59.448-19.573-59.448z" fill="#fff"/>
  <path d="m275.06 290.87v-40.391h-19.057v118.9h19.057v-40.391h40.391v-38.114z" fill="#d3d3d3"/>
  <ellipse cx="186.46" cy="112.73" rx="52.535" ry="61.7" fill="#ea285b"/>
  <ellipse cx="325.54" cy="112.73" rx="52.535" ry="61.7" fill="#b2145c"/>
 </g>
</svg>
