<svg width="900" height="900" version="1.1" viewBox="0 0 238.12 238.12" xmlns="http://www.w3.org/2000/svg">
 <g transform="matrix(.4625 0 0 .4625 .66156 .66133)">
  <circle cx="256" cy="256" r="256" fill="#7584f2"/>
  <path d="m512 256c0-19.246-2.124-37.995-6.15-56.027l-61.208-61.208-311.94 59.008-45.499 19.346 135.07 135.07-62.111 68.092 91.686 91.686c1.382 0.022 2.767 0.033 4.154 0.033 141.38-1e-3 256-114.62 256-256z" fill="#4855b7"/>
  <path d="m331.88 94.13h-151.76l-47.423 28.147 73.131 119.22h110.47l54.459-84.985z" fill="#fff"/>
  <path d="m370.76 156.51-38.885-62.379h-75.892v147.36h60.318z" fill="#e9edf5"/>
  <path d="m331.88 94.13c1.281 5.659 1.946 11.552 1.92 17.605-0.184 41.881-34.09 76.463-75.961 77.428-43.807 1.01-79.636-34.2-79.636-77.778 0-5.93 0.664-11.705 1.921-17.255l-112.76 44.635 19.843 78.354 43.932-10.154v138.24c3.775-0.304 7.612-0.386 11.499-0.232 49.477 1.965 89.324 42.518 90.464 92.021 0.115 5.01-0.161 9.934-0.799 14.744 0.689 0.014 1.38 0.021 2.073 0.021h43.259c57.016 0 103.24-46.221 103.24-103.24v-141.56l43.932 10.154 19.843-78.354z" fill="#bcdefa"/>
  <path d="m331.88 94.13c1.281 5.659 1.946 11.552 1.92 17.605-0.184 41.881-34.09 76.463-75.961 77.428-0.621 0.014-1.248 0.021-1.851 0.021l0.014 262.58h21.63c0.693 0 1.383-7e-3 2.073-0.021-0.638-4.81-0.914-9.734-0.799-14.744 1.14-49.503 40.987-90.056 90.464-92.021 3.887-0.154 7.725-0.072 11.499 0.232v-138.24l43.932 10.154 19.843-78.354z" fill="#92cbf7"/>
  <path d="m193.36 254.91c0-17.699 14.348-32.047 32.047-32.047 14.371 0 26.532 9.459 30.598 22.491 4.066-13.032 16.227-22.491 30.598-22.491 17.699 0 32.047 14.348 32.047 32.047 0 35.342-62.645 78.36-62.645 78.36s-62.645-45.114-62.645-78.36z" fill="#ff6c52"/>
  <path d="m256 333.27s62.645-43.018 62.645-78.36c0-17.699-14.348-32.047-32.047-32.047-14.371 0-26.532 9.459-30.598 22.491z" fill="#ff432e"/>
  <path d="m380.87 348.52v-5.88c-4.683-0.519-9.47-0.696-14.334-0.502-49.477 1.965-89.324 42.518-90.464 92.021-0.138 6.006 0.285 11.889 1.222 17.599h0.339c57.016-1e-3 103.24-46.221 103.24-103.24z" fill="#e9edf5"/>
  <path d="m145.47 342.14c-4.864-0.193-9.651-0.016-14.334 0.502v5.88c0 57.016 46.221 103.24 103.24 103.24h0.339c0.936-5.71 1.36-11.592 1.222-17.599-1.14-49.503-40.987-90.055-90.464-92.02z" fill="#fff"/>
 </g>
</svg>
