<svg width="900" height="900" version="1.1" viewBox="0 0 238.12 238.12" xmlns="http://www.w3.org/2000/svg">
 <g transform="matrix(.4625 0 0 .4625 .66146 .66146)">
  <circle cx="256" cy="256" r="256" fill="#606aea"/>
  <path d="m512 256c0-2.227-0.029-4.448-0.086-6.662l-189.98-189.98-10.318 93.764-101.09-101.09-7.638 226.76-53.044 168.12 61.131 61.131c14.617 2.593 29.661 3.95 45.023 3.95 141.38 0 256-114.62 256-256z" fill="#4855b7"/>
  <path d="m190.06 59.36-47.464 64.886 42.499 42.104z" fill="#19cffc"/>
  <path d="m321.94 59.36 47.464 64.886-42.499 42.104z" fill="#1ea1e3"/>
  <path d="m362.15 446.92c-6.835-242.76-72.417-207.15-35.254-280.57 5.125-12.595 6.793-26.331 4.832-39.787l-9.797-67.203-20.463-7.326v45.473l-45.472 34.862-45.473-34.862v-45.473l-20.463 7.326-9.797 67.203c-1.962 13.456-0.294 27.192 4.832 39.787 29.193 82.405-28.419 37.808-35.254 280.57z" fill="#96e8ff"/>
  <path d="m326.9 166.35c5.125-12.595 6.793-26.331 4.832-39.787l-9.797-67.203-20.463-7.326v45.473l-45.473 34.862v314.55h106.15c-6.835-242.76-72.416-207.15-35.253-280.57z" fill="#19cffc"/>
  <path d="m333.16 383.29c-2.131 0-4.959 0.534-7.854 1.473 0.939-2.894 1.473-5.723 1.473-7.854 0-6.911-5.602-12.513-12.513-12.513s-12.513 5.602-12.513 12.513c0 2.131 0.534 4.96 1.473 7.854-2.894-0.939-5.723-1.473-7.854-1.473-6.91 0-12.512 5.602-12.512 12.512 0 6.911 5.602 12.513 12.512 12.513 2.131 0 4.96-0.534 7.854-1.473-0.939 2.894-1.473 5.723-1.473 7.854 0 6.91 5.602 12.512 12.512 12.512 6.911 0 12.513-5.602 12.513-12.512 0-2.13-0.534-4.959-1.473-7.854 2.894 0.939 5.723 1.473 7.854 1.473 6.911 0 12.512-5.602 12.512-12.512 2e-3 -6.911-5.6-12.513-12.511-12.513z" fill="#e9edf5"/>
  <path d="m216.63 339.86c-2.131 0-4.959 0.534-7.854 1.473 0.939-2.894 1.473-5.723 1.473-7.854 0-6.911-5.602-12.513-12.513-12.513s-12.513 5.602-12.513 12.513c0 2.13 0.534 4.96 1.473 7.854-2.894-0.939-5.723-1.473-7.854-1.473-6.91 0-12.512 5.602-12.512 12.512 0 6.911 5.602 12.513 12.512 12.513 2.131 0 4.96-0.534 7.854-1.473-0.939 2.894-1.473 5.723-1.473 7.854 0 6.91 5.602 12.512 12.512 12.512 6.911 0 12.513-5.602 12.513-12.512 0-2.13-0.534-4.959-1.473-7.854 2.894 0.939 5.723 1.473 7.854 1.473 6.911 0 12.512-5.602 12.512-12.512 1e-3 -6.911-5.6-12.513-12.511-12.513z" fill="#fff"/>
  <path d="m295.37 268.71c2.13 0 4.96-0.534 7.854-1.473-0.939 2.894-1.473 5.723-1.473 7.854 0 6.91 5.602 12.512 12.512 12.512 6.911 0 12.513-5.602 12.513-12.512 0-2.13-0.534-4.96-1.473-7.854 2.894 0.939 5.723 1.473 7.854 1.473 1.449 0 2.834-0.259 4.128-0.712-3.037-9.246-6.033-16.992-8.784-23.72-1.035 0.232-2.112 0.527-3.198 0.88 0.623-1.921 1.063-3.808 1.292-5.486-1.951-4.664-3.739-8.834-5.282-12.704-2.008-1.372-4.434-2.177-7.049-2.177-6.911 0-12.513 5.602-12.513 12.512 0 2.131 0.534 4.96 1.473 7.854-2.894-0.939-5.723-1.473-7.854-1.473-6.91 0-12.512 5.602-12.512 12.512 0 6.912 5.602 12.514 12.512 12.514z" fill="#e9edf5"/>
  <path d="m195.14 223.66c2.131 0 4.96-0.534 7.854-1.473-0.939 2.894-1.473 5.723-1.473 7.854 0 6.91 5.602 12.512 12.512 12.512 6.911 0 12.513-5.602 12.513-12.512 0-2.13-0.534-4.959-1.473-7.854 2.894 0.939 5.723 1.473 7.854 1.473 6.911 0 12.512-5.602 12.512-12.512 0-6.911-5.602-12.512-12.512-12.512-2.131 0-4.959 0.534-7.854 1.473 0.939-2.894 1.473-5.723 1.473-7.854 0-6.911-5.602-12.513-12.513-12.513s-12.513 5.602-12.513 12.513c0 2.13 0.534 4.959 1.473 7.854-2.894-0.939-5.723-1.473-7.854-1.473-0.7 0-1.381 0.071-2.049 0.182 0.719 8.968-0.49 16.185-2.908 23.818 1.522 0.656 3.197 1.024 4.958 1.024z" fill="#fff"/>
  <path d="m268.51 137.06c2.131 0 4.96-0.534 7.854-1.473-0.939 2.894-1.473 5.723-1.473 7.854 0 6.91 5.602 12.512 12.512 12.512 6.911 0 12.513-5.602 12.513-12.512 0-2.13-0.534-4.959-1.473-7.854 2.894 0.939 5.723 1.473 7.854 1.473 6.911 0 12.512-5.602 12.512-12.512 0-6.911-5.602-12.512-12.512-12.512-2.131 0-4.959 0.534-7.854 1.473 0.939-2.894 1.473-5.723 1.473-7.854 0-2.112-0.528-4.097-1.451-5.842l-40.666 31.177c2.189 3.632 6.161 6.07 10.711 6.07z" fill="#e9edf5"/>
 </g>
</svg>
