<svg id="Capa_1" enable-background="new 0 0 512 512" height="512" viewBox="0 0 512 512" width="512" xmlns="http://www.w3.org/2000/svg"><g><g><g><g><g><g id="XMLID_195_"><circle cx="256" cy="256" fill="#7dedff" r="256"/></g></g></g></g></g><path d="m492.888 158.816-88.593-88.593-370.262 100.646 65.64 65.64-19.028 199.361 32.767 32.767c40.751 27.381 89.802 43.363 142.588 43.363 141.385 0 256-114.615 256-256 0-34.405-6.804-67.216-19.112-97.184z" fill="#6cbaea"/><g><g><path d="m80.645 157.214v278.656h120.018l55.337-62.092 95.623-118.211-95.623-98.353z" fill="#fff"/></g><path d="m256 157.214v216.564l55.337 62.092h120.018v-278.656z" fill="#e5e5e5"/><g><path d="m34.033 170.869h221.967l74.535-55.134-74.535-45.512h-148.296z" fill="#ea285b"/></g><path d="m477.967 170.869-73.671-100.646h-148.296v100.646z" fill="#b2145c"/><g><path d="m200.663 435.87h55.337l45.722-66.623-45.722-66.623h-55.337z" fill="#f99830"/><path d="m256 302.624h55.337v133.246h-55.337z" fill="#d66a21"/><path d="m164.556 137.291c0 50.503 40.941 91.444 91.444 91.444l52.641-96.804-52.641-86.084c-50.503 0-91.444 40.941-91.444 91.444z" fill="#ffe35a"/></g><path d="m347.444 137.291c0-50.503-40.941-91.444-91.444-91.444v182.888c50.503 0 91.444-40.941 91.444-91.444z" fill="#fb2"/><g><path d="m208.969 171.802c0 29.003 33.174 7.906 47.031 7.906l25.715-25.067-25.715-29.043c-24.328 0-47.031 22.521-47.031 46.204z" fill="#7f5f52"/><path d="m256 125.598v54.11c13.858 0 47.031 21.097 47.031-7.906 0-23.683-22.703-46.204-47.031-46.204z" fill="#5b4745"/><path d="m238.623 94.024c0 9.597 7.78 17.377 17.377 17.377l10.403-17.377-10.403-17.377c-9.597 0-17.377 7.78-17.377 17.377z" fill="#7f5f52"/><path d="m273.377 94.024c0-9.597-7.78-17.377-17.377-17.377v34.753c9.597 0 17.377-7.779 17.377-17.376z" fill="#5b4745"/><g><ellipse cx="302.66" cy="115.735" fill="#5b4745" rx="16.195" ry="16.195" transform="matrix(.924 -.383 .383 .924 -21.251 124.633)"/><ellipse cx="209.34" cy="115.735" fill="#7f5f52" rx="16.195" ry="16.195" transform="matrix(.23 -.973 .973 .23 48.605 292.885)"/></g></g><g><g><path d="m121.224 238.424h39.153v39.153h-39.153z" fill="#7dedff"/><path d="m121.224 336.682h39.153v39.153h-39.153z" fill="#7dedff"/><g><path d="m351.623 238.424h39.153v39.153h-39.153z" fill="#6cbaea"/></g><g><path d="m351.623 336.682h39.153v39.153h-39.153z" fill="#6cbaea"/></g></g></g></g></g></svg>