<svg width="900" height="900" version="1.1" viewBox="0 0 238.12 238.12" xmlns="http://www.w3.org/2000/svg">
 <g transform="matrix(.4625 0 0 .4625 .66146 .66146)">
  <circle cx="256" cy="256" r="256" fill="#b9eaff"/>
  <path d="m512 256c0-22.49-2.911-44.298-8.358-65.08l-108.88-108.88-254.76 103.42-91 178.57 138.75 138.75c21.731 5.998 44.615 9.217 68.253 9.217 141.38 0 256-114.62 256-256z" fill="#35ccff"/>
  <polygon points="256 433.74 295.35 35.121 216.65 35.121" fill="#333"/>
  <polygon points="295.35 35.121 256 35.121 256 433.74" fill="#1a1a1a"/>
  <path d="m216.65 35.121-93.306 42.093c-5.411 2.863-9.346 7.896-10.819 13.838l-63.524 272.98 56.359 7.374 43.191-178.56 1.204 72.968c0.769 10.058 0.134 20.174-1.887 30.057l-12.413 139.34h120.55v-183.02z" fill="#4d4d4d"/>
  <path d="m216.65 35.121 39.351 217.08s-119.81-201.29-39.351-217.08z" fill="#fff"/>
  <path d="m295.35 35.121 93.306 42.093c5.411 2.863 9.346 7.896 10.819 13.838l63.524 272.98-56.359 7.374-43.191-178.56-1.204 72.968c-0.769 10.058-0.134 20.174 1.887 30.057l12.413 139.34h-120.55v-183.02z" fill="#333"/>
  <path d="m295.35 35.121-39.351 217.08s119.81-201.29 39.351-217.08z" fill="#e0e0e0"/>
  <rect x="172.9" y="283.27" width="53.825" height="8.02" fill="#333"/>
  <rect x="285.27" y="283.27" width="53.825" height="8.02" fill="#1a1a1a"/>
 </g>
</svg>
