<svg width="900" height="900" version="1.1" viewBox="0 0 238.12 238.12" xmlns="http://www.w3.org/2000/svg">
 <g transform="matrix(.4625 0 0 .4625 .66146 .66146)">
  <circle cx="256" cy="256" r="256" fill="#a365d9"/>
  <path d="m104.2 376.48 134.95 134.95c5.572 0.362 11.188 0.566 16.853 0.566 136.82 0 248.56-107.33 255.64-242.38l-91.836-91.836-39.649 14.574-85.225-85.225-58.171 63.458 14.233 14.233h-109.31l-14.438 7.477 104.68 104.68-90.071 68.931z" fill="#7847a1"/>
  <path d="m270.5 97.102c-18.356 0-33.74 13.926-33.74 32.282v41.204h33.74l8.103-58.431z" fill="#ff5d6e"/>
  <path d="m304.24 129.5c0-18.356-15.384-32.282-33.74-32.282v73.372l33.74 0.083z" fill="#ef296a"/>
  <path d="m242.89 263.79-110.58 96.996-17.789 8.541 41.474 4.173 114.5-75.516 12.253-21.962-12.253-19.907z" fill="#b8d7fd"/>
  <path d="m132.31 360.78-20.551 5.739c-4.47 1.248-7.561 5.321-7.561 9.962h47.268l4.529-2.987z" fill="#ffc9b7"/>
  <path d="m342.92 362.42-9.162-52.661-63.264-11.776v-41.868l27.605 7.675 47.756 15.177c11.118 3.533 18.669 13.857 18.669 25.522v56.297l-8.981 5.21z" fill="#99c6fc"/>
  <path d="m342.92 362.42 2.447 14.067h47.268c0-4.641-3.091-8.714-7.561-9.962l-20.551-5.739z" fill="#fdb59e"/>
  <path d="m270.45 200.9h-25.684v-23.125h12.531v-17.904h13.153l8.25 12.624z" fill="#ffc9b7"/>
  <path d="m296.23 177.78v23.669l-25.784-0.544v-41.029h13.152v17.904z" fill="#fdb59e"/>
  <circle cx="241.26" cy="136.98" r="5.683" fill="#ffc9b7"/>
  <circle cx="299.73" cy="136.98" r="5.683" fill="#fdb59e"/>
  <path d="m270.5 168.26c-15.542 0-28.906-21.343-30.599-36.799l-0.013-2.983s18.583-25.155 30.612-25.155l11.671 33.56z" fill="#ffd5c8"/>
  <path d="m270.5 168.26c15.609 0 29.011-21.183 30.612-36.684v-2.999s-18.701-25.255-30.612-25.255z" fill="#ffc9b7"/>
  <path d="m270.5 156.59c-0.919-1.121-2.245-1.424-3.398-0.787-2.173 1.2-3.646 3.094-3.646 3.094s3.153 4.059 7.043 4.059l2.347-2.26z" fill="#ff5d6e"/>
  <path d="m270.5 156.59v6.366c3.89 0 7.043-4.059 7.043-4.059s-1.472-1.894-3.646-3.094c-1.152-0.636-2.477-0.334-3.397 0.787z" fill="#ef296a"/>
  <path d="m270.5 133.52h-2.692l-2.384 17.396h5.076l2.347-7.588z" fill="#ffc9b7"/>
  <path d="m270.5 150.92h5.076l-2.384-17.396h-2.692z" fill="#fdb59e"/>
  <path d="m209.84 177.78h-88.656c0 11.279 9.143 20.422 20.422 20.422h68.234l19.485-10.211z" fill="#ffc9b7"/>
  <path d="m331.15 177.78h88.656c0 11.279-9.143 20.422-20.422 20.422h-68.234l-19.485-10.211z" fill="#fdb59e"/>
  <path d="m279.59 191.69c-2.862 0.936-5.915 1.448-9.089 1.448-11.124 0-20.795-6.215-25.734-15.36h-34.921v29.422h19.5l13.551 56.586h27.604l24.507-48.498z" fill="#fff"/>
  <path d="m331.15 177.78h-34.915c-4.94 9.146-14.61 15.36-25.734 15.36v70.648h27.605l13.551-56.586h19.494v-29.422z" fill="#e9edf0"/>
  <path d="m270.5 97.102c-18.356 0-33.74 14.021-33.74 34.358h33.74l8.103-19.304z" fill="#ff5d6e"/>
  <path d="m304.24 131.57c0-20.546-15.384-34.472-33.74-34.472v34.358z" fill="#ef296a"/>
 </g>
</svg>
