<svg enable-background="new 0 0 512 512" height="512" viewBox="0 0 512 512" width="512" xmlns="http://www.w3.org/2000/svg"><g id="_x30_4_Contamination"><g><g><ellipse cx="255.147" cy="375.457" fill="#66d5f2" rx="255.147" ry="92.212"/></g><g><g><path d="m355.959 73.954-8.827 16.924-44.89-23.412 8.827-16.924c2.773-5.317 9.331-7.379 14.647-4.606l25.637 13.37c5.317 2.774 7.379 9.332 4.606 14.648z" fill="#6d6d6d"/></g><g><path d="m491.332 185.428-3.691 7.057-73.341 140.602-14.657 28.12-.054.054-8.36 16.069c-14.603 4.669-29.369 8.523-44.135 11.617-78.553 16.503-159.657 11.454-242.77-11.617l69.758-133.762 14.657-28.12 73.341-140.602 3.691-7.058 195.594 102.005 13.083 6.84z" fill="#6d6d6d"/></g><g opacity=".4"><g><path d="m257.986 129.706c-3.988-2.08-5.534-6.998-3.455-10.986l9.479-18.176c2.08-3.988 6.998-5.534 10.986-3.455 3.988 2.08 5.534 6.998 3.455 10.986l-9.479 18.176c-2.081 3.988-6.999 5.535-10.986 3.455z" fill="#fff"/></g></g><g opacity=".08"><path d="m491.332 185.428c-43.63 83.641-95.45 182.986-100.104 191.903-14.603 4.669-29.369 8.523-44.135 11.617 34.856-66.92 78.609-150.78 114.273-219.155.564.294 31.873 16.63 29.966 15.635z"/></g><g><g><path d="m422.182 355.11c-4.051 7.767-13.632 10.78-21.399 6.729l-227.841-118.827c-7.767-4.051-10.78-13.632-6.729-21.399 4.051-7.767 13.632-10.78 21.399-6.729l227.841 118.827c7.767 4.05 10.78 13.631 6.729 21.399z" fill="#5b5b5b"/></g><g><g><path d="m510.192 186.357c-4.051 7.767-13.632 10.78-21.399 6.729l-227.841-118.826c-7.767-4.051-10.78-13.632-6.729-21.399 4.051-7.767 13.632-10.78 21.399-6.729l227.841 118.827c7.767 4.05 10.78 13.631 6.729 21.398z" fill="#5b5b5b"/></g></g></g><g opacity=".08"><path d="m422.202 355.092c-4.067 7.798-13.661 10.815-21.41 6.773l-30.18-15.74c7.749 4.042 17.343 1.025 21.41-6.773 4.042-7.749 1.025-17.344-6.725-21.385l30.18 15.74c7.75 4.042 10.766 13.636 6.725 21.385z"/></g><g opacity=".08"><path d="m510.189 186.384c-4.042 7.749-13.636 10.766-21.385 6.725l-30.18-15.74c7.749 4.042 17.343 1.025 21.385-6.725 4.067-7.798 1.05-17.392-6.7-21.433l30.18 15.74c7.75 4.041 10.767 13.635 6.7 21.433z"/></g><g><g><ellipse cx="294.197" cy="288.361" fill="#ffce29" rx="77.115" ry="77.115" transform="matrix(.285 -.959 .959 .285 -65.993 488.279)"/></g><g><g><path d="m275.178 305.848-35.507 13.802c-2.392.93-5.127-.127-6.227-2.446-11.61-24.47-4.163-46.862-.504-55.943.946-2.347 3.517-3.583 5.945-2.871l35.955 10.532c-9.822 10.457-9.535 26.762.338 36.926z" fill="#5b5b5b"/></g><g><path d="m346.443 253.217-26.793 25.583c-2.1-6.369-6.592-11.95-12.993-15.288-6.416-3.346-13.548-3.827-19.973-1.904l5.587-36.255c.381-2.476 2.561-4.295 5.064-4.182 9.485.428 19.016 2.875 27.97 7.544 8.665 4.519 15.938 10.684 21.636 17.916 1.562 1.983 1.328 4.843-.498 6.586z" fill="#5b5b5b"/></g><g><path d="m350.974 324.442c-11.034 17.395-29.066 28.212-48.444 30.655-2.478.312-4.796-1.309-5.386-3.736l-9.305-38.245c14.228 3.553 28.628-5.111 32.27-19.014l29.762 23.893c1.941 1.56 2.437 4.343 1.103 6.447z" fill="#5b5b5b"/></g></g><g><path d="m310.715 295.755c-4.727 9.063-15.905 12.579-24.968 7.852-9.049-4.719-12.564-15.897-7.837-24.961 4.727-9.063 15.905-12.578 24.954-7.859 9.063 4.726 12.578 15.904 7.851 24.968z" fill="#5b5b5b"/></g></g></g></g></g></svg>