<svg height="512pt" viewBox="0 -18 512 511" width="512pt" xmlns="http://www.w3.org/2000/svg"><path d="m512 238.394531c0-4.53125-2.566406-8.460937-6.316406-10.425781v-94.636719c3.621094-.875 6.316406-4.132812 6.316406-8.023437 0-3.894532-2.695312-7.148438-6.316406-8.027344v-.238281h-238.925782c-4.566406 0-8.265624 3.699219-8.265624 8.265625 0 4.5625 3.699218 8.265625 8.265624 8.265625h.003907v93.578125c-4.789063 1.488281-8.273438 5.957031-8.273438 11.242187 0 5.28125 3.480469 9.75 8.273438 11.238281v94.109376c-4.789063 1.488281-8.273438 5.957031-8.273438 11.238281s3.480469 9.75 8.273438 11.242187v93.578125h-.003907c-4.566406 0-8.265624 3.703125-8.265624 8.265625 0 4.566406 3.699218 8.265625 8.265624 8.265625h238.925782v-.242187c3.621094-.875 6.316406-4.128906 6.316406-8.023438 0-3.894531-2.695312-7.148437-6.316406-8.027344v-94.632812c3.75-1.964844 6.316406-5.894531 6.316406-10.425781s-2.566406-8.457031-6.316406-10.421875v-95.742188c3.75-1.964844 6.316406-5.890625 6.316406-10.421875zm0 0" fill="#89e5ff"/><path d="m512 238.394531c0-4.53125-2.566406-8.460937-6.316406-10.425781v-94.636719c3.621094-.875 6.316406-4.132812 6.316406-8.023437 0-3.894532-2.695312-7.148438-6.316406-8.027344v-.238281h-22.9375v.238281 358.8125l20.988281.238281h1.949219v-.238281c3.621094-.878906 6.316406-4.132812 6.316406-8.027344 0-3.890625-2.695312-7.144531-6.316406-8.023437v-94.636719c3.75-1.964844 6.316406-5.894531 6.316406-10.425781s-2.566406-8.457031-6.316406-10.421875v-95.742188c3.75-1.964844 6.316406-5.890625 6.316406-10.421875zm0 0" fill="#67cbef"/><path d="m471.570312 244.636719h-172.652343c-4.324219 0-7.832031-3.507813-7.832031-7.832031 0-4.324219 3.507812-7.832032 7.832031-7.832032h172.652343c4.328126 0 7.832032 3.507813 7.832032 7.832032 0 4.324218-3.503906 7.832031-7.832032 7.832031zm0 0" fill="#67cbef"/><path d="m471.570312 364.398438h-172.652343c-4.324219 0-7.832031-3.503907-7.832031-7.828126 0-4.328124 3.507812-7.832031 7.832031-7.832031h172.652343c4.328126 0 7.832032 3.503907 7.832032 7.832031 0 4.324219-3.503906 7.828126-7.832032 7.828126zm0 0" fill="#67cbef"/><path d="m335.738281 161.214844c0-6.003906-3.394531-11.203125-8.367187-13.808594v-125.332031c4.800781-1.160157 8.367187-5.472657 8.367187-10.628907s-3.566406-9.464843-8.367187-10.628906v-.316406h-316.425782c-6.042968 0-10.945312 4.898438-10.945312 10.945312 0 6.046876 4.902344 10.945313 10.945312 10.945313h.011719v123.9375c-6.347656 1.972656-10.957031 7.890625-10.957031 14.886719s4.609375 12.914062 10.957031 14.882812v124.636719c-6.347656 1.96875-10.957031 7.886719-10.957031 14.882813 0 6.996093 4.609375 12.914062 10.957031 14.886718v123.9375h-.011719c-6.042968 0-10.945312 4.898438-10.945312 10.945313s4.902344 10.945312 10.945312 10.945312h316.425782v-.316406c4.800781-1.164063 8.367187-5.476563 8.367187-10.628906 0-5.15625-3.566406-9.46875-8.367187-10.628907v-125.332031c4.972656-2.605469 8.367187-7.804687 8.367187-13.808593 0-6-3.394531-11.199219-8.367187-13.804688v-126.792969c4.972656-2.605469 8.367187-7.804687 8.367187-13.804687zm0 0" fill="#ff8086"/><path d="m335.738281 161.214844c0-6.003906-3.394531-11.203125-8.367187-13.808594v-125.332031c4.800781-1.160157 8.367187-5.472657 8.367187-10.628907s-3.566406-9.464843-8.367187-10.628906v-.316406h-32.777344c-.164062 7.269531 5.285156 475.832031 5.285156 475.832031h27.492188v-.316406c4.800781-1.160156 8.367187-5.472656 8.367187-10.628906s-3.566406-9.464844-8.367187-10.628907v-125.332031c4.972656-2.605469 8.367187-7.804687 8.367187-13.808593 0-6-3.394531-11.199219-8.367187-13.804688v-126.792969c4.972656-2.605469 8.367187-7.804687 8.367187-13.804687zm0 0" fill="#e5646e"/><path d="m282.199219 166.941406h-228.65625c-4.324219 0-7.832031-3.507812-7.832031-7.832031s3.503906-7.832031 7.832031-7.832031h228.65625c4.324219 0 7.832031 3.507812 7.832031 7.832031s-3.507812 7.832031-7.832031 7.832031zm0 0" fill="#e5646e"/><path d="m282.199219 325.550781h-228.65625c-4.324219 0-7.832031-3.503906-7.832031-7.828125 0-4.328125 3.503906-7.832031 7.832031-7.832031h228.65625c4.324219 0 7.832031 3.503906 7.832031 7.832031 0 4.324219-3.507812 7.828125-7.832031 7.828125zm0 0" fill="#e5646e"/><path d="m269.820312 238.414062c0 56.308594-45.644531 101.953126-101.949218 101.953126-56.304688 0-101.949219-45.644532-101.949219-101.953126 0-56.304687 45.644531-101.949218 101.949219-101.949218 56.304687 0 101.949218 45.644531 101.949218 101.949218zm0 0" fill="#ffe07e"/><path d="m167.871094 136.464844c-4.945313 0-9.804688.359375-14.558594 1.039062 49.410156 7.066406 87.390625 49.550782 87.390625 100.910156 0 51.363282-37.984375 93.847657-87.390625 100.914063 4.753906.679687 9.613281 1.039063 14.558594 1.039063 56.304687 0 101.949218-45.644532 101.949218-101.953126 0-56.304687-45.644531-101.949218-101.949218-101.949218zm0 0" fill="#ffd064"/><g fill="#5d5360"><path d="m200.496094 182.414062-18.074219 31.3125c-4.28125-2.488281-9.25-3.894531-14.554687-3.894531-5.300782 0-10.273438 1.40625-14.550782 3.902344l-18.085937-31.320313c-.6875-1.191406-.238281-2.714843.984375-3.363281 9.445312-5 20.222656-7.839843 31.652344-7.839843 11.433593 0 22.210937 2.828124 31.648437 7.832031 1.21875.644531 1.679687 2.171875.980469 3.371093zm0 0"/><path d="m153.304688 264.152344-18.074219 31.3125c-.691407 1.179687-2.214844 1.578125-3.371094.847656-18.386719-11.558594-30.824219-31.71875-31.679687-54.847656-.039063-1.375 1.054687-2.527344 2.433593-2.527344h36.136719c0 10.777344 5.855469 20.183594 14.554688 25.214844zm0 0"/><path d="m235.554688 241.46875c-.84375 23.125-13.289063 43.285156-31.675782 54.855469-1.160156.730469-2.695312.332031-3.382812-.855469l-18.074219-31.304688c8.707031-5.03125 14.566406-14.4375 14.566406-25.222656h36.144531c1.378907 0 2.476563 1.148438 2.421876 2.527344zm0 0"/><path d="m186.933594 238.941406c0 7.058594-3.832032 13.21875-9.535156 16.511719-2.804688 1.625-6.054688 2.550781-9.527344 2.550781s-6.730469-.925781-9.535156-2.554687c-5.695313-3.296875-9.527344-9.457031-9.527344-16.507813 0-7.054687 3.832031-13.210937 9.527344-16.503906 2.804687-1.628906 6.0625-2.558594 9.535156-2.558594s6.722656.929688 9.527344 2.550782c5.703124 3.292968 9.535156 9.457031 9.535156 16.511718zm0 0"/></g></svg>