<?xml version="1.0"?>
<svg xmlns="http://www.w3.org/2000/svg" id="Filled_outline" data-name="Filled outline" viewBox="0 0 64 64" width="512" height="512"><rect x="35" y="17" width="25.99965" height="4" rx="2" ry="2" style="fill:#ff675b"/><rect x="50.99965" y="55" width="4" height="6" rx="1" ry="1" transform="translate(105.9993 116) rotate(-180)" style="fill:#898989"/><path d="M58.99965,21V47l-1.62127,6.48507A2,2,0,0,1,55.4381,55H51.99977a1,1,0,0,0-1,1.00012L51,57.99988A1,1,0,0,1,50,59H41.99953L42,55H40.56155a2,2,0,0,1-1.94028-1.51493L37,47V21Z" style="fill:#e65d52"/><path d="M52.43845,13h-8.8769a2,2,0,0,0-1.94028,1.51493L41,17H55l-.62127-2.48507A2,2,0,0,0,52.43845,13Z" style="fill:#cc5249"/><rect x="9.00018" y="55" width="4" height="6" rx="1" ry="1" style="fill:#898989"/><rect x="3.00018" y="17" width="25.99965" height="4" rx="2" ry="2" style="fill:#82e28c"/><path d="M26.99982,21V47l-1.62126,6.48507A2,2,0,0,1,23.43827,55H21.99982l.00047,4H13.99982a1,1,0,0,1-1-1.00012l.00024-1.99976a1,1,0,0,0-1-1.00012H8.56173a2,2,0,0,1-1.94029-1.51493L5.00018,47V21Z" style="fill:#73c97c"/><path d="M20.43862,13H11.56173a2,2,0,0,0-1.94029,1.51493L9.00018,17h14l-.62127-2.48507A2,2,0,0,0,20.43862,13Z" style="fill:#73c97c"/><rect x="13" y="7" width="38" height="4" rx="2" ry="2" style="fill:#ffde7e"/><rect x="20" y="55" width="4" height="6" rx="1" ry="1" style="fill:#a3a3a3"/><path d="M48,11V39L46.1095,54.124a1,1,0,0,1-.99228.876h-4.1171a1,1,0,0,0-1,1.00012l.00023,1.99976a1,1,0,0,1-1,1.00012H24.99965a1,1,0,0,1-1-1.00012l.00023-1.99976a1,1,0,0,0-1-1.00012h-4.1171a1,1,0,0,1-.99228-.876L16,39V11Z" style="fill:#ffd04a"/><rect x="40" y="55" width="4" height="6" rx="1" ry="1" transform="translate(84 116) rotate(-180)" style="fill:#a3a3a3"/><path d="M41.76393,3H22.23607a2,2,0,0,0-1.78886,1.10557L19,7H45L43.55279,4.10557A2,2,0,0,0,41.76393,3Z" style="fill:#e6bb43"/><path d="M14,56a2.00229,2.00229,0,0,0-2-2H8.56152a.99964.99964,0,0,1-.9707-.75781L6,46.877V22h7V20H5a1,1,0,0,1,0-2h8V16H10.28027l.31055-1.24219a1.00451,1.00451,0,0,1,.68945-.71728l-.56054-1.91992a3.00916,3.00916,0,0,0-2.06836,2.15185L8.2196,16H5a2.99253,2.99253,0,0,0-1,5.81567V47l1.65137,6.72754A2.99217,2.99217,0,0,0,8.00562,55.9447C8.00507,55.9635,8,55.98108,8,56v4a2.00229,2.00229,0,0,0,2,2h2a2.00229,2.00229,0,0,0,2-2h3V58H14Zm-2,4H10l-.001-4H12v4Z"/><path d="M62,19a3.00328,3.00328,0,0,0-3-3H55.78064l-.432-1.72607a3.00959,3.00959,0,0,0-2.06933-2.15381L52.71875,14.04a1.00173,1.00173,0,0,1,.68945.71777L53.71875,16H50.999v2H59a1,1,0,0,1,0,2H51v2h7V46.877l-1.5918,6.36524A.99936.99936,0,0,1,55.43848,54H52a2.00229,2.00229,0,0,0-2,2v2H47v2h3a2.00229,2.00229,0,0,0,2,2h2a2.00229,2.00229,0,0,0,2-2V56c0-.01892-.00507-.03656-.00562-.05536a2.99125,2.99125,0,0,0,2.35328-2.2171l1.62207-6.48486L59.998,21.81635A2.99492,2.99492,0,0,0,62,19ZM54,60H52V56h2Z"/><path d="M48.99219,39.124,48.99945,12H49a3,3,0,0,0,0-6H45.61816L44.44727,3.6582A2.9843,2.9843,0,0,0,41.76367,2H22.23633a2.9843,2.9843,0,0,0-2.6836,1.6582L18.38184,6H15a3,3,0,0,0,0,6V39l1.89844,15.24805A2.00307,2.00307,0,0,0,18.88281,56H19v4a2.00229,2.00229,0,0,0,2,2h2a2.00229,2.00229,0,0,0,2-2H39a2.00229,2.00229,0,0,0,2,2h2a2.00229,2.00229,0,0,0,2-2V56h.11719a2.00307,2.00307,0,0,0,1.98437-1.752ZM21.3418,4.55273A.99577.99577,0,0,1,22.23633,4H41.76367a.99577.99577,0,0,1,.89453.55273L43.38184,6H20.61816ZM14,9a1.001,1.001,0,0,1,1-1H49a1,1,0,0,1,0,2H15A1.001,1.001,0,0,1,14,9Zm9,51H21l-.001-4H23Zm20,0H41V56h2Zm4-21.0625L45.11719,54H41a2.00229,2.00229,0,0,0-2,2v2H25V56a2.00229,2.00229,0,0,0-2-2H18.88281L17,38.9375V12H47Z"/><path d="M26,32a5.00588,5.00588,0,0,1,5-5h2.58594l-2.293,2.293L32.707,30.707,37.41406,26l-4.707-4.707L31.293,22.707,33.58594,25H31a7.00818,7.00818,0,0,0-7,7v3h2Z"/><path d="M31.41406,37l2.293-2.293L32.293,33.293,27.58594,38l4.707,4.707L33.707,41.293,31.41406,39H34a7.00818,7.00818,0,0,0,7-7V29H39v3a5.00588,5.00588,0,0,1-5,5Z"/></svg>
