<svg enable-background="new 0 0 492 492" height="512" viewBox="0 0 492 492" width="512" xmlns="http://www.w3.org/2000/svg"><g id="Layer_2"><path clip-rule="evenodd" d="m246.26.98c135.21 0 245.76 110.549 245.76 245.76 0 135.21-110.549 245.76-245.76 245.76-135.21 0-245.76-110.55-245.76-245.76 0-135.21 110.55-245.76 245.76-245.76z" fill="#43a047" fill-rule="evenodd"/></g><g id="Layer_1"><g><g clip-rule="evenodd" fill="#fffffe" fill-rule="evenodd"><path d="m196.771 248.728 18.607 8.918-5.33-12.753z"/><path d="m185.734 280.338 9.661 12.527 14.904-31.102-13.475-6.458z"/><path d="m233.303 280.508-25.43-.013-7.201 15.028 32.622.016z"/><path d="m265.012 276.94-9.504 10.033 8.88 10.592z"/><path d="m297.761 294.867 7.546-13.904-34.474-1.045-.453 14.936z"/><path d="m292.418 245.221-13.748 6.075 10.276 23.261 16.657.504z"/><path d="m256.797 226.772 13.353 3.568 5.073-12.855z"/><path d="m215.847 217.816 11.899 9.186 15.541-20.128-7.502-14.88z"/><path d="m256.934 189.441h-15.82l15.524 30.796 13.343-6.726z"/><path d="m185.014 381.14h122.492c8.223 0 15.108-5.518 15.674-12.562l17.167-213.243h-188.175l17.167 213.243c.568 7.044 7.452 12.562 15.675 12.562zm109.978-142.57c.73.283 1.319.844 1.636 1.561l16.274 36.833c.318.721.336 1.539.048 2.273-.073.184-.163.359-.269.523l-10.566 19.47c-.517.952-1.513 1.545-2.596 1.545-.001 0-.001 0-.002 0l-29.316-.013-.143 4.731c-.037 1.225-.827 2.3-1.985 2.701-.317.11-.643.163-.967.163-.858 0-1.692-.374-2.264-1.056l-15.552-18.55c-.964-1.15-.913-2.84.119-3.929l16.647-17.574c.843-.89 2.147-1.167 3.279-.696s1.855 1.592 1.818 2.817l-.141 4.645 11.388.345-10.327-23.377c-.659-1.492.016-3.236 1.508-3.895l19.152-8.463c.716-.318 1.529-.336 2.259-.054zm-85.626-22.026 24.611-31.874c.494-.64 1.229-1.049 2.034-1.133.175-.018.35-.018.522-.005h22.159c1.084 0 2.081.593 2.597 1.546l13.969 25.771 4.228-2.131c1.095-.552 2.416-.37 3.321.456s1.206 2.126.756 3.266l-8.886 22.518c-.454 1.151-1.56 1.87-2.746 1.87-.253 0-.509-.033-.763-.101l-23.387-6.249c-1.184-.316-2.05-1.331-2.175-2.55-.126-1.219.514-2.39 1.609-2.941l4.149-2.091-5.128-10.173-15.618 20.228c-.582.754-1.456 1.149-2.34 1.149-.63 0-1.265-.201-1.803-.616l-16.575-12.796c-.62-.479-1.025-1.184-1.125-1.961-.101-.778.112-1.562.591-2.183zm-29.746 63.009 11.874-26.802-4.269-2.046c-1.105-.53-1.769-1.687-1.668-2.909.101-1.221.947-2.253 2.124-2.593l23.256-6.716c1.441-.417 2.966.314 3.545 1.699l9.336 22.335c.473 1.131.198 2.436-.69 3.28-.561.533-1.294.813-2.036.813-.433 0-.869-.095-1.276-.29l-4.191-2.008-4.923 10.274 25.556.013c.784 0 1.534.312 2.088.866s.865 1.306.864 2.089l-.011 20.939c-.001 1.631-1.323 2.952-2.954 2.952-.001 0-.001 0-.001 0l-40.266-.02c-1.03-.001-1.935-.529-2.464-1.328l-13.534-17.547c-.66-.859-.799-2.01-.36-3.001z"/><path d="m256.781 112.339h-21.044c-.892 0-2.241 1.732-2.241 4.342v8.018h25.529v-8.018c0-2.61-1.35-4.342-2.244-4.342z"/><path d="m355.051 146.287v-12.539c0-1.732-1.409-3.14-3.141-3.14h-211.3c-1.732 0-3.141 1.409-3.141 3.14v12.539c0 1.732 1.409 3.14 3.141 3.14h211.299c1.733 0 3.142-1.409 3.142-3.14z"/></g></g></g></svg>