<svg id="Capa_1" enable-background="new 0 0 512 512" height="512" viewBox="0 0 512 512" width="512" xmlns="http://www.w3.org/2000/svg"><g><circle cx="256" cy="256" fill="#fb7c82" r="256"/><path d="m512 256c0-5.741-.208-11.433-.581-17.08l-172.919-172.92-77.037 77.037-22.622-22.622-102.841 102.84 130.122 130.122-92.621 92.622 65.421 65.421c5.646.372 11.337.58 17.078.58 141.385 0 256-114.615 256-256z" fill="#fa455c"/><path d="m173.5 66-27.5 107.255v50l27.5 222.745h82.5l22.641-190-22.641-190z" fill="#c3e54d"/><path d="m366 223.255v-50l-27.5-107.255h-82.5v380h82.5z" fill="#9bc933"/><path d="m196 109.755v65h60l11.468-32.5-11.468-32.5z" fill="#83b22d"/><path d="m256 109.755h60v65h-60z" fill="#688e14"/><path d="m136 173.255v50h120l9.251-25-9.251-25z" fill="#9bc933"/><path d="m256 173.255h120v50h-120z" fill="#83b22d"/><g><path d="m207.458 302.581-20.167 34.167 12.966 23.504h41.725v-22.711l-28.934.146 13.923-23.588 6.661 3.932-6.349-26.701-27.289 6.845z" fill="#555a65"/><path d="m242.564 244.294-20.652 35.625 19.862 11.874 14.226-25.079 5.851-10.714-5.851-11.706z" fill="#555a65"/><g fill="#333940"><path d="m262.866 294.138 26.364 7.628 7.486-27.12-7.511 4.325-19.799-34.677h-13.406v22.42l13.569 23.564z"/><path d="m273.505 360.676h39.676l13.649-23.114-20.565-35.674-20.202 11.287 14.833 24.842h-27.391v-7.735l-17.505 19.041 17.505 20.021z"/></g></g></g></svg>