<?xml version="1.0" encoding="UTF-8" standalone="no"?>
<!-- Created with Inkscape (http://www.inkscape.org/) -->

<svg
   version="1.1"
   id="svg2"
   width="190.66667"
   height="384"
   viewBox="0 0 190.66667 384"
   sodipodi:docname="P-150-5.eps"
   xmlns:inkscape="http://www.inkscape.org/namespaces/inkscape"
   xmlns:sodipodi="http://sodipodi.sourceforge.net/DTD/sodipodi-0.dtd"
   xmlns="http://www.w3.org/2000/svg"
   xmlns:svg="http://www.w3.org/2000/svg">
  <defs
     id="defs6" />
  <sodipodi:namedview
     id="namedview4"
     pagecolor="#ffffff"
     bordercolor="#000000"
     borderopacity="0.25"
     inkscape:showpageshadow="2"
     inkscape:pageopacity="0.0"
     inkscape:pagecheckerboard="0"
     inkscape:deskcolor="#d1d1d1" />
  <g
     id="g8"
     inkscape:groupmode="layer"
     inkscape:label="ink_ext_XXXXXX"
     transform="matrix(1.3333333,0,0,-1.3333333,0,384)">
    <g
       id="g10"
       transform="scale(0.1)">
      <path
         d="M 1.84375,244.949 V 2635.65 c 0,129.58 105.06625,234.88 234.75425,234.88 h 956.352 c 129.57,0 234.88,-105.3 234.88,-234.88 V 244.949 c 0,-129.691 -105.31,-234.7576 -234.88,-234.7576 H 236.598 C 106.91,10.1914 1.96094,115.258 1.84375,244.949"
         style="fill:#ffffff;fill-opacity:1;fill-rule:evenodd;stroke:none"
         id="path12" />
      <path
         d="M 1.84375,244.949 V 2635.65 c 0,129.58 105.06625,234.88 234.75425,234.88 h 956.352 c 129.57,0 234.88,-105.3 234.88,-234.88 V 244.949 c 0,-129.691 -105.31,-234.7576 -234.88,-234.7576 H 236.598 C 106.91,10.1914 1.96094,115.258 1.84375,244.949 Z"
         style="fill:none;stroke:#231f20;stroke-width:2.16;stroke-linecap:butt;stroke-linejoin:miter;stroke-miterlimit:2.6131;stroke-dasharray:none;stroke-opacity:1"
         id="path14" />
      <path
         d="M 25.9883,245.066 C 25.9883,128.527 120.18,34.3359 236.719,34.3359 h 956.351 c 116.42,0 210.73,94.1911 210.73,210.7301 V 2635.78 c 0,116.42 -94.31,210.73 -210.73,210.73 H 236.719 C 120.18,2846.51 25.9883,2752.2 25.9883,2635.78 V 245.066"
         style="fill:#231f20;fill-opacity:1;fill-rule:evenodd;stroke:none"
         id="path16" />
      <path
         d="M 68.3008,245.188 V 2635.78 c 0,92.99 75.4222,168.41 168.5392,168.41 h 956.23 c 93,0 168.42,-75.42 168.42,-168.41 V 245.188 c 0,-93.114 -75.42,-168.5396 -168.42,-168.5396 H 236.84 c -93.117,0 -168.5392,75.4256 -168.5392,168.5396"
         style="fill:#ffffff;fill-opacity:1;fill-rule:evenodd;stroke:none"
         id="path18" />
      <path
         d="m 1053.04,2555.5 c -186.727,186.68 -489.442,186.68 -676.165,0 -186.676,-186.72 -186.676,-489.43 0,-676.16 186.723,-186.67 489.438,-186.67 676.165,0 186.67,186.73 186.67,489.44 0,676.16"
         style="fill:#ef2c30;fill-opacity:1;fill-rule:evenodd;stroke:none"
         id="path20" />
      <path
         d="m 1053.02,1463.23 c -186.719,186.66 -489.411,186.66 -676.129,0 -186.664,-186.72 -186.664,-489.417 0,-676.132 186.718,-186.664 489.41,-186.664 676.129,0 186.66,186.715 186.66,489.412 0,676.132"
         style="fill:#009270;fill-opacity:1;fill-rule:evenodd;stroke:none"
         id="path22" />
      <path
         d="m 714.957,1504.01 c 209.219,0 378.853,-169.63 378.853,-378.85 0,-209.219 -169.634,-378.851 -378.853,-378.851 -209.223,0 -378.855,169.632 -378.855,378.851 0,209.22 169.632,378.85 378.855,378.85"
         style="fill:#ffffff;fill-opacity:1;fill-rule:evenodd;stroke:none"
         id="path24" />
      <path
         d="M 959.559,1927.99 C 810.672,1801.84 587.363,1808.94 446.957,1949.39 306.504,2089.8 299.355,2313.16 425.559,2462 l 165.519,-165.53 0.461,-0.45 0.774,-0.78 105.125,-105.12 262.121,-262.13"
         style="fill:#ffffff;fill-opacity:1;fill-rule:evenodd;stroke:none"
         id="path26" />
      <path
         d="m 982.73,2485.2 c 140.41,-140.41 147.6,-363.67 21.45,-512.56 l -288.11,288.1 -49.488,49.5 -76.117,76.11 -0.41,0.41 -119.879,119.88 c 148.836,126.11 372.101,118.97 512.554,-21.44"
         style="fill:#ffffff;fill-opacity:1;fill-rule:evenodd;stroke:none"
         id="path28" />
      <path
         d="m 644.922,1436.52 -2.59,-0.2 -2.664,-0.43 -2.453,-0.48 -2.52,-0.57 -2.382,-0.7 -2.45,-0.84 -2.312,-0.98 -2.242,-1.05 -2.243,-1.12 -2.101,-1.33 -2.102,-1.33 -2.031,-1.47 -1.82,-1.54 -1.891,-1.62 -1.754,-1.75 -1.679,-1.82 -1.614,-1.89 -1.469,-1.96 -1.402,-1.96 -1.258,-2.1 -1.191,-2.18 -1.191,-2.24 -0.981,-2.24 -0.84,-2.31 -0.84,-2.38 -0.562,-2.45 -0.559,-2.45 -0.422,-2.52 -0.281,-2.53 -0.207,-2.59 v -2.59 l 0.067,-2.59 0.351,-3.15 0.422,-3.09 0.629,-3.01 0.91,-3.01 0.91,-2.8 1.121,-2.81 1.403,-2.73 1.398,-2.66 19.617,-266.54 196.067,-1.61 80.273,-189.201 79.16,31.942 -12.89,32.64 -41.118,-15.617 -65.496,155.296 -0.632,1.54 -0.563,1.41 -0.629,1.54 -0.699,1.39 -0.699,1.48 -0.633,1.4 -0.699,1.47 -0.84,1.33 -0.77,1.33 -0.843,1.4 -0.911,1.26 -0.98,1.19 -0.981,1.19 -1.121,1.13 -1.187,1.05 -1.262,0.98 -2.316,1.47 -2.45,1.33 -2.453,1.12 -2.589,0.91 -2.59,0.77 -2.735,0.42 -2.66,0.28 h -2.734 l -161.742,0.21 -2.942,40.56 133.582,0.49 0.281,42.73 -136.804,-0.28 -8.969,117.12 2.031,0.14 2.594,0.21 2.59,0.35 2.523,0.42 2.524,0.63 2.379,0.77 2.449,0.77 2.312,0.98 2.243,1.06 2.171,1.19 2.172,1.26 2.035,1.4 2.028,1.4 1.894,1.54 1.821,1.68 1.82,1.68 1.613,1.82 1.61,1.82 1.539,2.04 1.336,2.03 1.328,2.03 1.191,2.17 1.117,2.24 1.055,2.24 0.84,2.39 0.769,2.38 0.633,2.38 0.559,2.52 0.422,2.45 0.277,2.6 0.211,2.52 v 2.66 l -0.07,2.59 -0.211,2.59 -0.352,2.6 -0.558,2.52 -0.559,2.52 -0.703,2.38 -0.84,2.45 -0.98,2.31 -1.051,2.25 -1.121,2.17 -1.332,2.17 -1.329,2.03 -1.468,2.03 -1.547,1.89 -1.61,1.82 -1.75,1.76 -1.82,1.67 -1.82,1.62 -2.035,1.54 -1.961,1.33 -2.098,1.33 -2.172,1.19 -2.176,1.05 -2.308,1.05 -2.313,0.84 -2.382,0.77 -2.454,0.7 -2.449,0.57 -2.523,0.42 -2.52,0.28 -2.594,0.2 h -2.593 l -2.59,-0.07"
         style="fill:#231f20;fill-opacity:1;fill-rule:evenodd;stroke:none"
         id="path30" />
      <path
         d="m 814.57,1034.65 0.141,-3.85 v -3.78 l -0.074,-3.79 -0.207,-3.78 -0.211,-3.85 -0.348,-3.72 -0.496,-3.78 -0.484,-3.64 -0.563,-3.71 -0.769,-3.715 -0.774,-3.504 -0.91,-3.64 -0.98,-3.504 -1.051,-3.571 -1.121,-3.433 -1.262,-3.434 -1.262,-3.5 -1.398,-3.293 -1.399,-3.363 -1.543,-3.293 -1.609,-3.223 -1.754,-3.289 -1.75,-3.086 -1.75,-3.148 -1.965,-3.086 -1.957,-3.012 -2.105,-2.941 -2.031,-2.942 -2.239,-2.871 -2.172,-2.8 -2.312,-2.735 -2.449,-2.801 -2.387,-2.593 -2.52,-2.59 -2.523,-2.52 -2.66,-2.527 -2.664,-2.379 -2.801,-2.383 -2.731,-2.238 -2.875,-2.242 -2.871,-2.106 -3.011,-2.097 -3.012,-1.965 -3.012,-1.961 -3.152,-1.891 -3.152,-1.82 -3.223,-1.75 -3.293,-1.613 -3.289,-1.539 -3.367,-1.543 -3.36,-1.399 -3.429,-1.332 -3.504,-1.262 -3.504,-1.261 -3.574,-1.051 -3.571,-0.981 -3.715,-0.91 -3.64,-0.84 -3.645,-0.773 -3.781,-0.699 -3.781,-0.488 -3.781,-0.422 -3.856,-0.489 -3.852,-0.281 -3.921,-0.211 h -3.856 -3.922 l -3.781,0.07 -3.855,0.211 -3.852,0.348 -3.711,0.281 -3.785,0.493 -3.711,0.628 -3.715,0.704 -3.711,0.765 -3.644,0.774 -3.641,0.98 -3.574,0.981 -3.504,1.121 -3.5,1.191 -3.434,1.262 -3.429,1.328 -3.434,1.473 -3.363,1.468 -3.223,1.684 -3.289,1.613 -3.223,1.746 -3.152,1.824 -3.152,1.891 -3.082,1.961 -3.082,2.031 -2.946,2.102 -2.937,2.172 -2.805,2.312 -2.871,2.242 -2.734,2.379 -2.661,2.453 -2.664,2.594 -2.589,2.52 -2.524,2.593 -2.449,2.731 -2.383,2.73 -2.308,2.805 -2.243,2.871 -2.172,3.012 -2.171,2.941 -2.032,3.012 -2.035,3.016 -1.89,3.218 -1.821,3.157 -1.75,3.289 -1.679,3.293 -1.684,3.293 -1.469,3.363 -1.472,3.43 -1.332,3.504 -1.262,3.503 -1.258,3.571 -1.051,3.57 -1.121,3.645 -0.914,3.644 -0.836,3.711 -0.773,3.711 -0.7,3.855 -0.562,3.71 -0.418,3.92 -0.422,3.86 -0.277,3.92 -0.215,5.81 -0.066,5.89 0.281,5.81 0.418,5.74 0.562,5.75 0.836,5.6 1.055,5.61 1.262,5.46 1.398,5.46 1.68,5.33 1.82,5.33 2.035,5.18 2.242,5.11 2.379,4.98 2.594,4.9 2.734,4.76 2.938,4.77 3.016,4.55 3.222,4.48 3.36,4.34 3.574,4.21 3.64,3.99 3.852,3.99 4.066,3.78 4.063,3.72 4.269,3.5 4.344,3.36 4.485,3.22 4.691,3.02 4.625,2.87 4.902,2.66 4.977,2.59 -2.453,44.83 -3.571,-1.47 -3.574,-1.47 -3.504,-1.54 -3.504,-1.61 -3.5,-1.68 -3.363,-1.75 -3.43,-1.83 -3.293,-1.89 -3.293,-1.89 -3.222,-2.03 -3.223,-2.1 -3.219,-2.03 -3.015,-2.17 -3.082,-2.31 -3.012,-2.32 -3.012,-2.31 -2.875,-2.38 -2.941,-2.45 -2.801,-2.52 -2.801,-2.6 -2.664,-2.66 -2.66,-2.59 -2.664,-2.8 -2.519,-2.73 -2.524,-2.81 -2.519,-2.87 -2.317,-3.01 -2.375,-2.94 -2.316,-3.01 -2.168,-3.08 -2.172,-3.09 -2.106,-3.15 -2.027,-3.22 -2.035,-3.15 -1.957,-3.29 -1.824,-3.3 -1.75,-3.29 -1.754,-3.43 -1.68,-3.43 -1.609,-3.44 -1.473,-3.57 -1.539,-3.5 -1.402,-3.51 -1.328,-3.64 -1.266,-3.64 -1.188,-3.64 -1.121,-3.72 -1.05,-3.64 -0.985,-3.78 -0.91,-3.78 -0.836,-3.79 -0.703,-3.78 -0.703,-3.85 -0.629,-3.92 -0.488,-3.86 -0.422,-3.92 -0.352,-3.92 -0.281,-3.93 -0.277,-4.06 -0.071,-3.99 -0.14,-4 0.14,-3.98 0.071,-4.07 0.211,-4.06 0.347,-4.98 0.563,-4.97 0.562,-4.9 0.766,-4.903 0.773,-4.766 1.051,-4.761 1.121,-4.766 1.121,-4.691 1.328,-4.696 1.403,-4.551 1.543,-4.484 1.679,-4.555 1.68,-4.48 1.891,-4.274 1.964,-4.414 2.032,-4.203 2.097,-4.203 2.317,-4.133 2.308,-4.062 2.454,-3.992 2.523,-3.996 2.66,-3.852 2.66,-3.852 2.871,-3.64 2.875,-3.715 2.942,-3.57 3.011,-3.575 3.153,-3.359 3.222,-3.434 3.293,-3.296 3.36,-3.149 3.504,-3.152 3.504,-3.016 3.574,-3.008 3.64,-2.875 3.711,-2.73 3.856,-2.66 3.851,-2.664 3.993,-2.524 3.992,-2.379 3.996,-2.382 4.133,-2.172 4.129,-2.172 4.273,-2.031 4.274,-1.961 4.273,-1.821 4.414,-1.683 4.48,-1.61 4.415,-1.543 4.554,-1.398 4.551,-1.332 4.625,-1.117 4.625,-1.125 4.691,-0.981 4.762,-0.84 4.695,-0.773 4.836,-0.559 4.829,-0.558 4.906,-0.422 4.832,-0.137 4.976,-0.215 h 4.973 l 4.973,0.145 4.972,0.207 3.711,0.281 3.715,0.281 3.57,0.489 3.715,0.422 3.574,0.488 3.571,0.633 3.644,0.629 3.5,0.769 3.571,0.703 3.437,0.981 3.5,0.91 3.363,0.98 3.504,0.981 3.36,1.121 3.363,1.191 3.363,1.188 3.293,1.195 3.289,1.398 3.223,1.403 3.152,1.398 3.153,1.543 3.152,1.539 3.152,1.543 3.086,1.68 3.008,1.754 3.016,1.75 2.941,1.82 2.942,1.961 2.941,1.824 2.801,2.028 2.804,1.965 2.871,2.101 2.661,2.102 2.734,2.242 2.66,2.172 2.59,2.242 2.594,2.308 2.523,2.313 2.449,2.383 2.454,2.449 2.449,2.453 2.386,2.59 2.309,2.523 2.242,2.59 2.313,2.664 2.101,2.66 2.172,2.735 2.028,2.805 2.035,2.726 2.031,2.805 1.891,2.937 1.89,2.875 1.821,2.942 1.824,2.945 1.679,3.082 1.684,2.938 1.609,3.156 1.543,3.008 1.61,3.152 1.402,3.152 1.399,3.157 1.332,3.218 1.328,3.297 1.261,3.289 -30.539,73.201"
         style="fill:#231f20;fill-opacity:1;fill-rule:evenodd;stroke:none"
         id="path32" />
      <path
         d="m 711.371,2262.25 73.746,-74.59 c 64.785,0 126.586,58.57 126.586,133.87 0,71.72 -55.226,129.81 -120.367,134.83 H 590.645 v -71.72 l 75.543,-74.58 v 71.95 h 118.453 c 26.773,0 52.832,-23.9 52.832,-58.8 0,-17.22 -6.575,-33.95 -19.125,-46.86 -7.77,-8.01 -15.418,-12.55 -35.141,-14.1 h -71.836"
         style="fill:#231f20;fill-opacity:1;fill-rule:evenodd;stroke:none"
         id="path34" />
      <path
         d="m 702.523,2187.54 -111.878,109.85 v -319.15 l 75.543,0.12 v 209.18 h 36.335"
         style="fill:#231f20;fill-opacity:1;fill-rule:evenodd;stroke:none"
         id="path36" />
    </g>
  </g>
</svg>
