<svg id="Layer_1" viewBox="0 0 512 512" xmlns="http://www.w3.org/2000/svg" data-name="Layer 1"><rect fill="#ffe177" height="480" rx="45.91" width="480" x="16" y="16"/><g fill="#424e82"><path d="m179.8 173.27c11.58 0 21.88 8.95 21.88 20.83v81.93c0 8.55-7.01 15.57-15.57 15.57s-15.57-6.99-15.57-15.57v-62.8c0-.96-1.09-.82-1.09-.14v181.05c0 8.56-7.01 15.56-15.57 15.56-4.29 0-8.18-1.75-11-4.57s-4.57-6.71-4.57-11v-93.95c0-3.45-3.44-3.4-3.4 0v93.95c0 4.29-1.75 8.18-4.57 11s-6.71 4.57-11 4.57c-8.56 0-15.57-7.01-15.57-15.56v-181.05c0-.68-1.09-.82-1.09.14v62.8c0 4.29-1.75 8.18-4.57 11s-6.71 4.57-11 4.57c-8.56 0-15.57-7.02-15.57-15.57v-81.93c0-32.92 83.1-20.83 108.23-20.83z" fill-rule="evenodd"/><circle cx="136.62" cy="135.04" r="32.75" transform="matrix(.23 -.973 .973 .23 -26.2 236.99)"/><path d="m411.64 173.27c11.72 0 16.81 8.48 20.93 18.02 10.76 24.87 22.61 50.41 32.63 75.46 3.07 7.58 1.87 17.77-6.37 21.48-10.14 4.56-17.79-1.86-21.76-11.08l-24.79-56.4c9.84 29.66 19.98 59.23 29.8 88.9 1.04 3.15-.67 6.53-3.82 7.57-.62.2-1.25.3-1.88.3h-27.05v76.63c0 8.57-6.99 15.56-15.56 15.56s-15.57-7.02-15.57-15.56v-76.63h-3.19v76.63c0 8.56-7.01 15.56-15.57 15.56s-15.56-6.99-15.56-15.56v-76.63h-27.05c-4.23 0-7.08-4.24-5.61-8.12 9.8-29.58 19.91-59.07 29.72-88.65l-24.75 56.31c-4.04 9.23-11.52 15.78-21.79 11.17-8.01-3.6-9.97-15.03-6.09-22.13l32.35-74.81c4.12-9.54 9.21-18.02 20.93-18.02h70.03z" fill-rule="evenodd"/><circle cx="376.62" cy="135.04" r="32.75"/><path d="m262.63 443.27c0 3.31-2.69 6-6 6s-6-2.69-6-6v-373.41c0-3.31 2.69-6 6-6s6 2.69 6 6z" fill-rule="evenodd"/></g></svg>