<?xml version="1.0" encoding="iso-8859-1"?>
<!-- Generator: Adobe Illustrator 19.0.0, SVG Export Plug-In . SVG Version: 6.00 Build 0)  -->
<svg version="1.1" id="Capa_1" xmlns="http://www.w3.org/2000/svg" xmlns:xlink="http://www.w3.org/1999/xlink" x="0px" y="0px"
	 viewBox="0 0 455.111 455.111" style="enable-background:new 0 0 455.111 455.111;" xml:space="preserve">
<path style="fill:#5CA4DA;" d="M406.756,455.111h-358.4C21.333,455.111,0,433.778,0,406.756v-358.4C0,21.333,21.333,0,48.356,0
	h358.4c27.022,0,48.356,21.333,48.356,48.356v358.4C455.111,433.778,433.778,455.111,406.756,455.111z"/>
<path style="fill:#6DAFE0;" d="M366.933,0c-17.067,73.956-61.156,153.6-129.422,221.867C164.978,294.4,78.222,339.911,0,354.133
	V48.356C0,21.333,21.333,0,48.356,0H366.933z"/>
<g>
	<path style="fill:#FFFFFF;" d="M85.333,96.711c0-17.067,14.222-31.289,31.289-31.289s31.289,14.222,31.289,31.289
		S133.689,128,116.622,128S85.333,113.778,85.333,96.711z"/>
	<path style="fill:#FFFFFF;" d="M263.111,98.133c0-18.489,14.222-32.711,32.711-32.711c18.489,0,32.711,14.222,32.711,32.711
		s-14.222,32.711-32.711,32.711C278.756,130.844,263.111,116.622,263.111,98.133z"/>
	<path style="fill:#FFFFFF;" d="M182.044,172.089V256c0,5.689-4.267,9.956-9.956,9.956s-9.956-4.267-9.956-9.956v-85.333
		c0-2.844-2.844-4.267-4.267-4.267c-2.844,0-4.267,1.422-4.267,4.267v204.8c0,7.111-5.689,12.8-12.8,12.8
		c-7.111,0-12.8-5.689-12.8-12.8v-89.6h-18.489v89.6c0,7.111-5.689,12.8-12.8,12.8c-7.111,0-12.8-5.689-12.8-12.8V172.089
		c0-2.844-2.844-4.267-5.689-4.267c-2.844,0-4.267,1.422-4.267,4.267v85.333c0,5.689-4.267,9.956-9.956,9.956
		c-5.689,0-9.956-4.267-9.956-9.956v-83.911c0-17.067,14.222-31.289,31.289-31.289h66.844
		C169.244,140.8,182.044,155.022,182.044,172.089z"/>
	<path style="fill:#FFFFFF;" d="M399.644,230.4c-5.689,5.689-12.8,4.267-18.489,0l-42.667-42.667
		c1.422,19.911,5.689,41.244,14.222,59.733l18.489,42.667c2.844,7.111-1.422,14.222-8.533,14.222h-27.022v72.533
		c0,7.111-5.689,12.8-12.8,12.8h-1.422c-7.111,0-12.8-5.689-12.8-12.8v-72.533h-24.178v72.533c0,7.111-5.689,12.8-12.8,12.8h-1.422
		c-7.111,0-12.8-5.689-12.8-12.8v-72.533H230.4c-7.111,0-12.8-7.111-8.533-14.222l18.489-42.667
		c8.533-18.489,12.8-38.4,14.222-59.733L211.911,230.4c-5.689,5.689-12.8,4.267-17.067,0c-5.689-5.689-5.689-12.8,0-18.489
		l62.578-62.578c2.844-2.844,5.689-4.267,8.533-4.267h61.156c2.844,0,5.689,1.422,8.533,4.267l62.578,62.578
		C403.911,217.6,403.911,226.133,399.644,230.4z"/>
</g>
<g>
</g>
<g>
</g>
<g>
</g>
<g>
</g>
<g>
</g>
<g>
</g>
<g>
</g>
<g>
</g>
<g>
</g>
<g>
</g>
<g>
</g>
<g>
</g>
<g>
</g>
<g>
</g>
<g>
</g>
</svg>
