<svg clip-rule="evenodd" fill-rule="evenodd" height="512" image-rendering="optimizeQuality" shape-rendering="geometricPrecision" text-rendering="geometricPrecision" viewBox="0 0 2833 2833" width="512" xmlns="http://www.w3.org/2000/svg" xmlns:xlink="http://www.w3.org/1999/xlink"><linearGradient id="id0" gradientUnits="userSpaceOnUse" x1="-.004" x2="2833.33" y1="1416.67" y2="1416.67"><stop offset="0" stop-color="#26a9e0"/><stop offset=".0901961" stop-color="#2297d3"/><stop offset=".231373" stop-color="#1e84c6"/><stop offset=".368627" stop-color="#1c79be"/><stop offset=".521569" stop-color="#1b75bb"/><stop offset=".960784" stop-color="#2b388f"/><stop offset="1" stop-color="#2b388f"/></linearGradient><g id="Layer_x0020_1"><circle cx="1417" cy="1417" fill="url(#id0)" r="1417"/><g fill="#fefefe"><path d="m1005 2122h-163c-46 0-83-36-86-84l-40-460c-48-9-84-51-84-101v-329c0-56 46-102 102-102h38c9 0 17 6 19 15 16 60 70 102 132 102 63 0 117-42 133-102 2-9 10-15 19-15h38c56 0 102 46 102 102v329c0 50-36 92-84 101l-40 460c-3 48-40 84-86 84z"/><path d="m923 1043c-97 0-176-79-176-177 0-97 79-176 176-176 98 0 177 79 177 176 0 98-79 177-177 177z"/><path d="m1942 2122h-154c-43 0-79-35-79-79v-225h-153c-7 0-13-3-17-8-4-6-4-13-2-19l142-372v-353c0-11 9-20 20-20h38c19 57 73 96 134 96s115-39 134-96h33c11 0 20 9 20 20v353l142 372c2 6 2 13-2 19-4 5-10 8-17 8h-158v224c0 44-37 80-81 80zm-162-1076h182c-17 34-52 56-91 56s-74-22-91-56z"/><path d="m1868 1022c-85 0-155-70-155-156 0-85 70-155 155-155 86 0 156 70 156 155 0 86-70 156-156 156z"/><path d="m1375 2270c-11 0-20-9-20-20v-1667c0-11 9-20 20-20s20 9 20 20v1667c0 11-9 20-20 20z"/></g></g></svg>