<?xml version="1.0" encoding="iso-8859-1"?>
<!-- Generator: Adobe Illustrator 19.0.0, SVG Export Plug-In . SVG Version: 6.00 Build 0)  -->
<svg version="1.1" id="Layer_1" xmlns="http://www.w3.org/2000/svg" xmlns:xlink="http://www.w3.org/1999/xlink" x="0px" y="0px"
	 viewBox="0 0 512 512" style="enable-background:new 0 0 512 512;" xml:space="preserve">
<polygon style="fill:#555970;" points="426.667,512 392.533,512 358.4,443.733 426.667,477.867 "/>
<polygon style="fill:#5475AC;" points="85.333,512 392.533,512 392.533,443.733 85.333,477.867 "/>
<g>
	<polygon style="fill:#69A8FF;" points="426.667,477.867 392.533,477.867 358.4,34.133 426.667,68.267 	"/>
	<polygon style="fill:#69A8FF;" points="85.333,477.867 119.467,477.867 153.6,34.133 85.333,68.267 	"/>
</g>
<path style="fill:#CDE2FF;" d="M358.4,0h-34.133l68.267,68.267h34.133C426.667,30.72,395.947,0,358.4,0z"/>
<path style="fill:#E6F1FF;" d="M392.533,68.267h-307.2C85.333,30.72,116.053,0,153.6,0h170.667
	C361.813,0,392.533,30.72,392.533,68.267z"/>
<path style="fill:#CDE2FF;" d="M426.667,76.8H85.333c-4.714,0-8.533-3.821-8.533-8.533c0-4.713,3.82-8.533,8.533-8.533h341.333
	c4.714,0,8.533,3.821,8.533,8.533C435.2,72.979,431.38,76.8,426.667,76.8z"/>
<path style="fill:#5475AC;" d="M358.4,34.133h-34.133L358.4,477.867h34.133v-409.6C392.533,49.448,377.219,34.133,358.4,34.133z"/>
<path style="fill:#4482D9;" d="M324.267,34.133H153.6c-18.819,0-34.133,15.314-34.133,34.133v73.956l11.378,34.133l-11.378,34.133
	v125.156l11.378,34.133l-11.378,34.133v73.956H358.4v-409.6C358.4,49.448,343.086,34.133,324.267,34.133z"/>
<polygon style="fill:#E6F1FF;" points="307.2,147.911 273.067,147.911 238.933,108.089 273.067,68.267 307.2,68.267 "/>
<rect x="204.8" y="68.267" style="fill:#FFFFFF;" width="68.267" height="79.644"/>
<polygon style="fill:#555970;" points="392.533,341.333 358.4,341.333 324.267,273.067 358.4,204.8 392.533,204.8 "/>
<g>
	<path style="fill:#5475AC;" d="M341.333,204.8c-28.232,0-51.2,22.968-51.2,51.2v34.133c0,28.232,22.968,51.2,51.2,51.2H358.4
		v-51.199l-11.378-17.067l11.378-17.067v-51.2h-17.067V204.8z"/>
	<rect x="119.467" y="142.222" style="fill:#5475AC;" width="25.6" height="68.267"/>
</g>
<path style="fill:#555970;" d="M142.222,219.022c-4.714,0-8.533-3.821-8.533-8.533v-68.267c0-4.713,3.82-8.533,8.533-8.533
	s8.533,3.821,8.533,8.533v68.267C150.756,215.202,146.936,219.022,142.222,219.022z"/>
<rect x="119.467" y="335.644" style="fill:#5475AC;" width="25.6" height="68.267"/>
<path style="fill:#555970;" d="M142.222,412.444c-4.714,0-8.533-3.821-8.533-8.533v-68.267c0-4.713,3.82-8.533,8.533-8.533
	s8.533,3.821,8.533,8.533v68.267C150.756,408.624,146.936,412.444,142.222,412.444z"/>
<path style="fill:#FFFFFF;" d="M341.333,238.933c-9.425,0-17.067,7.641-17.067,17.067v34.133c0,9.425,7.641,17.067,17.067,17.067
	s17.067-7.641,17.067-17.067V256C358.4,246.575,350.759,238.933,341.333,238.933z"/>
<g>
</g>
<g>
</g>
<g>
</g>
<g>
</g>
<g>
</g>
<g>
</g>
<g>
</g>
<g>
</g>
<g>
</g>
<g>
</g>
<g>
</g>
<g>
</g>
<g>
</g>
<g>
</g>
<g>
</g>
</svg>
