<svg enable-background="new 0 0 492 492" height="512" viewBox="0 0 492 492" width="512" xmlns="http://www.w3.org/2000/svg"><g id="Layer_1"><g><ellipse clip-rule="evenodd" cx="246.259" cy="246.739" fill="#a5dadb" fill-rule="evenodd" rx="238.017" ry="238.017" transform="matrix(.707 -.707 .707 .707 -102.343 246.399)"/><g clip-rule="evenodd" fill-rule="evenodd"><path d="m61.862 98.407-.687-1.307c.584-.721 1.163-1.446 1.756-2.16z" fill="#81cacc"/><path d="m8.251 247.452 5.347 9.39-4.075 14.69c-.82-7.918-1.249-15.951-1.272-24.08z" fill="#aadbdd"/><path d="m13.597 256.842-5.347-9.39c-.001-.238-.009-.475-.009-.713 0-3.797.099-7.571.274-11.325z" fill="#a2d7da"/><path d="m86.289 422.983 55.795-10.352-6.434 44.898c-17.921-9.423-34.502-21.051-49.361-34.546z" fill="#c4e6e7"/><path d="m63.987 399.788 40.952-160.555 37.145 173.398-55.795 10.352c-7.946-7.217-15.391-14.974-22.302-23.195z" fill="#bde4e4"/><path d="m104.939 239.233-89.783-49.603c1.386-5.629 2.973-11.179 4.752-16.643l90.236-20.013z" fill="#a8dbdc"/><path d="m61.175 97.099.687 1.307-1.973.289c.425-.534.856-1.064 1.286-1.596z" fill="#86cccd"/><path d="m59.889 98.696 1.973-.289-13.87 16.622c3.738-5.617 7.707-11.066 11.897-16.333z" fill="#92d1d3"/><path d="m47.991 115.028 13.87-16.622 48.282 54.567-90.236 20.013c6.747-20.71 16.248-40.176 28.084-57.958z" fill="#9bd4d7"/><path d="m13.597 256.842-5.081-21.428c.736-15.709 3.002-31.016 6.64-45.784l89.783 49.603z" fill="#aadbdd"/><path d="m15.715 306.142 89.224-66.908-40.952 160.554c-22.543-26.819-39.287-58.674-48.272-93.646z" fill="#b9e2e3"/><path d="m9.523 271.532 4.075-14.69 91.341-17.609-89.224 66.908c-2.887-11.236-4.97-22.795-6.192-34.609z" fill="#b3dfe0"/><path d="m201.485 335.169-96.546-95.936 63.864-18.485z" fill="#bce3e4"/><path d="m168.803 220.748-58.66-67.774 40.855-70.415z" fill="#a5dadb"/><path d="m104.939 239.233 5.204-86.259 58.66 67.774z" fill="#b2dee0"/><path d="m336.658 189.941-47.532-85.374 82.074-60.438c3.418 2.112 6.777 4.31 10.077 6.587z" fill="#9ad4d6"/><path d="m61.862 98.407 1.069-3.468c11.918-14.378 25.496-27.329 40.439-38.564l47.628 26.184z" fill="#8acdd0"/><path d="m110.143 152.974-48.281-54.567 89.136-15.848z" fill="#97d4d5"/><path d="m150.998 82.559-47.628-26.184c14.482-10.888 30.252-20.151 47.032-27.544z" fill="#86cccd"/><path d="m142.084 412.632-37.145-173.399 96.546 95.936z" fill="#c0e4e5"/><path d="m313.639 312.285-62.388-42.241 85.407-80.103z" fill="#bbe2e4"/><path d="m135.65 457.53 6.434-44.898 43.248 64.241c-17.423-4.605-34.063-11.131-49.682-19.343z" fill="#c6e7e8"/><path d="m251.251 270.044 37.875-165.478 47.532 85.375z" fill="#addcde"/><path d="m150.998 82.559-.597-53.728c8.243-3.631 16.725-6.818 25.425-9.511l78.392 16.585z" fill="#86cccd"/><path d="m201.485 335.169-32.682-114.421 82.448 49.296z" fill="#bde4e4"/><path d="m261.645 480.397-119.561-67.765 59.401-77.463z" fill="#c8e7e9"/><path d="m185.332 476.872-43.248-64.241 119.561 67.766-8.279 4.245c-2.361.069-4.73.114-7.108.114-21.061 0-41.478-2.748-60.926-7.884z" fill="#cae9ea"/><path d="m251.251 270.044-82.448-49.296 120.323-116.182z" fill="#b2dee0"/><path d="m168.803 220.748-17.805-138.189 138.128 22.007z" fill="#a2d7da"/><path d="m289.126 104.566-138.128-22.007 103.22-46.655z" fill="#90d1d3"/><path d="m253.367 484.642 8.279-4.245 1.834 3.734c-3.353.24-6.724.411-10.113.511z" fill="#d2ecec"/><path d="m261.645 480.397-60.16-145.228 105.466 118.822z" fill="#cceaeb"/><path d="m306.951 453.991-105.466-118.822 112.154-22.884z" fill="#c8e7e9"/><path d="m263.479 484.131-1.834-3.734 45.306-26.406-2.747 23.647c-13.175 3.296-26.783 5.496-40.725 6.493z" fill="#d4edee"/><path d="m201.485 335.169 49.766-65.125 62.388 42.241z" fill="#c0e4e5"/><path d="m289.126 104.566-34.908-68.662 97.501-2.583c6.677 3.306 13.177 6.913 19.481 10.809z" fill="#8acdd0"/><path d="m306.951 453.991 6.688-141.706 69.805 45.771z" fill="#cae9ea"/><path d="m254.218 35.904-78.392-16.585c3.105-.961 6.241-1.849 9.399-2.685l156.998 12.243c3.203 1.413 6.368 2.895 9.495 4.443z" fill="#81cacc"/><path d="m416.071 413.497-32.627-55.442 48.273-52.806 6.928 81.629c-6.874 9.421-14.421 18.317-22.574 26.619z" fill="#c9e8e9"/><path d="m383.444 358.056-69.805-45.771 118.078-7.035z" fill="#c3e5e7"/><path d="m431.717 305.25-95.06-115.309 101.587-83.892c3.851 5.246 7.494 10.653 10.913 16.213z" fill="#aadbdd"/><path d="m336.658 189.941 44.619-139.224c21.939 15.14 41.207 33.866 56.968 55.332z" fill="#97d4d5"/><path d="m357.463 457.216-50.512-3.224 76.493-95.936 32.627 55.442c-17.1 17.408-36.852 32.199-58.608 43.718z" fill="#d2ecec"/><path d="m313.639 312.285 23.019-122.344 95.059 115.309z" fill="#b9e2e3"/><path d="m304.204 477.638 2.747-23.647 50.512 3.224c-16.678 8.829-34.527 15.737-53.259 20.423z" fill="#daeff0"/><path d="m282.985 11.543-81.778 1.455c14.59-2.795 29.647-4.277 45.052-4.277 12.491.001 24.755.968 36.726 2.822z" fill="#79c7c9"/><path d="m342.224 28.878-156.998-12.244c5.258-1.391 10.588-2.601 15.981-3.636l81.778-1.455c20.754 3.219 40.62 9.121 59.239 17.335z" fill="#81cacc"/><path d="m431.717 305.25 17.441-182.988c21.801 35.46 34.557 77.069 35.082 121.622z" fill="#a7dadc"/><path d="m431.717 305.25 52.523-61.366c.011.952.036 1.9.036 2.855 0 16.148-1.616 31.917-4.681 47.163z" fill="#addcdd"/><path d="m438.645 386.879-6.928-81.629 35.049 31.213c-7.339 18.01-16.814 34.921-28.121 50.416z" fill="#c6e7e8"/><path d="m466.766 336.462-35.049-31.213 47.878-11.348c-2.964 14.724-7.287 28.955-12.829 42.561z" fill="#bbe2e4"/></g><path d="m246.259 1.291c67.778 0 129.139 27.473 173.557 71.891 44.418 44.417 71.891 105.779 71.891 173.557s-27.473 129.139-71.891 173.556c-44.418 44.418-105.779 71.891-173.557 71.891s-129.139-27.473-173.557-71.891c-44.417-44.417-71.89-105.779-71.89-173.556s27.473-129.139 71.89-173.557c44.418-44.418 105.779-71.891 173.557-71.891zm163.039 82.409c-41.725-41.725-99.368-67.532-163.039-67.532s-121.314 25.807-163.039 67.532-67.532 99.368-67.532 163.039 25.808 121.314 67.532 163.039c41.725 41.724 99.368 67.532 163.039 67.532s121.314-25.807 163.039-67.532 67.532-99.368 67.532-163.039-25.807-121.315-67.532-163.039z" fill="#556d6e"/></g><g><g fill="#556d6e"><path d="m340.694 152.14c10.76 0 19.513-8.754 19.513-19.514 0-10.761-8.753-19.515-19.513-19.515-10.761 0-19.515 8.755-19.515 19.515s8.754 19.514 19.515 19.514z"/><path d="m371.567 176.24h-61.748c-10.307 0-18.693 8.385-18.693 18.693v88.424h19.525c1.751 0 3.17 1.419 3.17 3.17v93.842h53.743v-93.842c0-1.751 1.419-3.17 3.17-3.17h19.526v-88.424c0-10.307-8.385-18.693-18.693-18.693z"/><path d="m143.161 132.626c0 10.76 8.755 19.514 19.515 19.514s19.513-8.754 19.513-19.514c0-10.761-8.753-19.515-19.513-19.515-10.761 0-19.515 8.754-19.515 19.515z"/><path d="m186.212 176.24h-47.072c-8.618 0-16.062 6.43-17.316 14.956l-19.564 132.997h30.375c1.751 0 3.17 1.419 3.17 3.17v53.006h53.742v-53.006c0-1.751 1.419-3.17 3.17-3.17h30.374l-19.563-132.997c-1.256-8.526-8.7-14.956-17.316-14.956z"/><path d="m251.684 106.77c-1.751 0-3.17 1.419-3.17 3.17v273.599c0 1.751 1.419 3.17 3.17 3.17s3.17-1.419 3.17-3.17v-273.599c0-1.751-1.419-3.17-3.17-3.17z"/></g></g></g></svg>