<svg id="Layer_1" enable-background="new 0 0 68 68" height="512" viewBox="0 0 68 68" width="512" xmlns="http://www.w3.org/2000/svg"><g><g><path d="m13.068 9.19h5.5v53.954h-5.5z" fill="#666"/></g><g><path d="m49.434 9.19h5.5v53.954h-5.5z" fill="#666"/></g><g><path d="m13.068 58.406h5.5v4.738h-5.5z" fill="#595857"/></g><g><path d="m49.434 58.406h5.5v4.738h-5.5z" fill="#595857"/></g><g><path d="m21.98752 62.44266v2.53334c0 .56554-.45846 1.024-1.024 1.024h-10.29154c-.56554 0-1.024-.45846-1.024-1.024v-2.53334c0-.56554.45846-1.024 1.024-1.024h10.29153c.56555 0 1.02401.45846 1.02401 1.024z" fill="#e5e8f9"/></g><g><path d="m58.35418 62.44266v2.53334c0 .56554-.45846 1.024-1.024 1.024h-10.29154c-.56554 0-1.024-.45846-1.024-1.024v-2.53334c0-.56554.45846-1.024 1.024-1.024h10.29153c.56554 0 1.02401.45846 1.02401 1.024z" fill="#e5e8f9"/></g><g><path d="m66 20.96472v8.50667c0 1.84001-1.49332 3.33333-3.31999 3.33333h-57.36002c-1.82666.00001-3.31999-1.49332-3.31999-3.33333v-8.50667c0-1.82666 1.49333-3.31999 3.31999-3.31999h57.36002c1.82667 0 3.31999 1.49333 3.31999 3.31999z" fill="#ff4848"/></g><g><g><path d="m24.66663 17.64473-9.89331 15.16h-8.77336l9.89331-15.16z" fill="#e5e8f9"/></g><g><path d="m43.33329 17.64473-9.89331 15.16h-8.77335l9.89339-15.16z" fill="#e5e8f9"/></g><g><path d="m62.00004 17.64473-9.89339 15.16h-8.77328l9.89331-15.16z" fill="#e5e8f9"/></g></g><g><path d="m66 40.6241v8.50667c0 1.84001-1.49332 3.33333-3.31999 3.33333h-57.36002c-1.82666 0-3.31999-1.49332-3.31999-3.33333v-8.50667c0-1.82666 1.49333-3.31999 3.31999-3.31999h57.36002c1.82667 0 3.31999 1.49333 3.31999 3.31999z" fill="#ff4848"/></g><g><g><path d="m24.66663 37.30411-9.89331 15.15999h-8.77336l9.89331-15.15999z" fill="#e5e8f9"/></g><g><path d="m43.33329 37.30411-9.89331 15.15999h-8.77335l9.89339-15.15999z" fill="#e5e8f9"/></g><g><path d="m62.00004 37.30411-9.89339 15.15999h-8.77328l9.89331-15.15999z" fill="#e5e8f9"/></g></g><g><path d="m30.49469 20.995h-16.99121c-.20703 0-.375-.16797-.375-.375s.16797-.375.375-.375h16.99121c.20703 0 .375.16797.375.375s-.16797.375-.375.375z" fill="#fff"/></g><g><path d="m10.00739 20.995h-1.53809c-.20703 0-.375-.16797-.375-.375s.16797-.375.375-.375h1.53809c.20703 0 .375.16797.375.375s-.16797.375-.375.375z" fill="#fff"/></g><g><path d="m57.8334 7.64279c0 3.12527-2.52993 5.64287-5.6552 5.64287-3.11285 0-5.64279-2.5176-5.64279-5.64287 0-3.11278 2.52994-5.64279 5.64279-5.64279 3.12527 0 5.6552 2.53001 5.6552 5.64279z" fill="#fc3"/></g><g><path d="m21.46675 7.64279c0 3.12527-2.52993 5.64287-5.6552 5.64287-3.11286 0-5.64279-2.5176-5.64279-5.64287-.00001-3.11278 2.52993-5.64279 5.64278-5.64279 3.12527 0 5.65521 2.53001 5.65521 5.64279z" fill="#fc3"/></g><g><path d="m30.49469 40.65418h-16.99121c-.20703 0-.375-.16797-.375-.375s.16797-.375.375-.375h16.99121c.20703 0 .375.16797.375.375s-.16797.375-.375.375z" fill="#fff"/></g><g><path d="m10.00739 40.65418h-1.53809c-.20703 0-.375-.16797-.375-.375s.16797-.375.375-.375h1.53809c.20703 0 .375.16797.375.375s-.16797.375-.375.375z" fill="#fff"/></g></g></svg>