<svg id="Layer_1" enable-background="new 0 0 53 53" viewBox="0 0 53 53" xmlns="http://www.w3.org/2000/svg"><g><g><g><g><g><g><g><path d="m8.4561787 44.92976v3.7699394c.8456068.2104454 1.8787785.3632431 3.0247679.4356003v-4.2055397z" fill="#71645e"/><path d="m11.4809465 44.92976v4.2055397c.4870777.0307693.9918871.0484772 1.5124273.0484772s1.0252628-.0177307 1.5122538-.0484772v-4.2055397z" fill="#5e514c"/><path d="m6.184278 44.2622414v3.032196c0 .5580673.8806343 1.0590286 2.2719007 1.405262v-3.7699394z" fill="#5e514c"/><path d="m14.5056276 44.92976v4.2055397c1.1460762-.0723801 2.1791601-.2251778 3.0247679-.4356003v-3.7699394z" fill="#71645e"/><path d="m17.5303955 44.92976v3.7699394c1.3912659-.3462334 2.2719002-.8471718 2.2719002-1.405262v-3.032196z" fill="#5e514c"/></g><path d="m19.8022957 44.2916222c0 1.0414276-3.0485287 1.8893318-6.8089399 1.8893318s-6.8090343-.8479042-6.8090343-1.8893318c0-1.0449524 3.0486221-1.8928566 6.8090343-1.8928566s6.8089399.8479042 6.8089399 1.8928566z" fill="#7b6f69"/></g></g><g><g><g><path d="m9.5837507 42.0543671v2.8330269c.6354551.1581459 1.4118605.2729683 2.2730455.3273468v-3.1603737z" fill="#a5311e"/><path d="m11.8567963 42.0543671v3.1603737c.3660288.0231209.7453814.0364265 1.1365557.0364265.3911753 0 .770462-.0133247 1.136425-.0364265v-3.1603737z" fill="#99281c"/><path d="m7.8764682 41.5527458v2.2786255c0 .4193764.661777.7958374 1.7072825 1.0560226v-2.8330269z" fill="#99281c"/><path d="m14.129777 42.0543671v3.1603737c.8612509-.0543938 1.6375914-.1692162 2.2730455-.3273468v-2.8330269z" fill="#a5311e"/><path d="m16.4028225 42.0543671v2.8330269c1.0455055-.2601852 1.707283-.636631 1.707283-1.0560226v-2.2786255z" fill="#99281c"/></g><path d="m18.1101055 41.5748215c0 .7826118-2.2909012 1.4197922-5.1167669 1.4197922s-5.116838-.6371803-5.116838-1.4197922c0-.7852554 2.2909722-1.4224396 5.116838-1.4224396s5.1167669.6371841 5.1167669 1.4224396z" fill="#b33b20"/></g></g></g><g><path d="m10.9906168 23.5519638v17.5663452c0 1.0676956 3.9297237 1.0676956 3.9297237 0l.0000763-17.5663452z" fill="#f3f2fd"/></g><g><path d="m12.165638 39.9206696v-16.3687058h-1.1777153v17.5623779c0 1.0743179 3.9311085 1.0743179 3.9311085 0v-.4536057c-1.1538487.1910325-2.7533932-.055664-2.7533932-.7400664z" fill="#e4defa"/></g></g><g><g><g><g><g><path d="m37.1317406 40.8996696v3.7699394c.8456078.2104454 1.8787804.3632431 3.0247688.4356003v-4.2055397z" fill="#71645e"/><path d="m40.1565094 40.8996696v4.2055397c.4870796.0307693.9918861.048481 1.5124283.048481.5205383 0 1.0252609-.0177345 1.5122528-.048481v-4.2055397z" fill="#5e514c"/><path d="m34.8598404 40.2321548v3.032196c0 .5580635.8806343 1.0590286 2.2719002 1.4052582v-3.7699394z" fill="#5e514c"/><path d="m43.1811905 40.8996696v4.2055397c1.1460762-.0723763 2.1791611-.2251778 3.0247688-.4356003v-3.7699394z" fill="#71645e"/><path d="m46.2059593 40.8996696v3.7699394c1.3912659-.3462296 2.2719002-.8471718 2.2719002-1.4052582v-3.032196z" fill="#5e514c"/></g><path d="m48.4778595 40.2615318c0 1.0414314-3.0485306 1.8893356-6.8089409 1.8893356s-6.8090324-.8479042-6.8090324-1.8893356c0-1.0449486 3.0486221-1.8928566 6.8090324-1.8928566s6.8089409.8479081 6.8089409 1.8928566z" fill="#7b6f69"/></g></g><g><g><g><path d="m38.2593155 38.0242805v2.8330231c.6354523.1581459 1.4118576.2729721 2.2730446.3273468v-3.1603699z" fill="#a5311e"/><path d="m40.5323601 38.0242805v3.1603699c.3660278.0231209.7453804.0364304 1.1365547.0364304s.770462-.0133247 1.136425-.0364304v-3.1603699z" fill="#99281c"/><path d="m36.5520325 37.5226555v2.2786293c0 .4193726.6617775.7958374 1.707283 1.0560188v-2.8330231z" fill="#99281c"/><path d="m42.8053398 38.0242805v3.1603699c.8612518-.05439 1.6375923-.1692162 2.2730446-.3273468v-2.8330231z" fill="#a5311e"/><path d="m45.0783844 38.0242805v2.8330231c1.0455055-.2601814 1.707283-.6366272 1.707283-1.0560188v-2.2786293z" fill="#99281c"/></g><path d="m46.7856674 37.544735c0 .782608-2.2909012 1.4197922-5.1167641 1.4197922-2.8258667 0-5.1168404-.6371841-5.1168404-1.4197922 0-.7852592 2.2909737-1.4224396 5.1168404-1.4224396 2.8258629 0 5.1167641.6371803 5.1167641 1.4224396z" fill="#b33b20"/></g></g></g><g><path d="m39.6661797 19.5218754v17.5663433c0 1.0676956 3.9297218 1.0676956 3.9297218 0l.0000801-17.5663433z" fill="#f3f2fd"/></g><g><path d="m40.8412018 35.890583v-16.3687076h-1.1777153v17.5623798c0 1.0743179 3.9311066 1.0743179 3.9311066 0v-.4536057c-1.1538468.1910287-2.7533913-.055664-2.7533913-.7400665z" fill="#e4defa"/></g></g></g><g><path d="m25.3511696 8.2801561-2.3546867-1.28093 5.5279236-.7768989 2.3546829 1.2809286c-2.1152268 1.7852374-4.096695 2.8216277-5.5279198.7769003z" fill="#f9d12b"/><path d="m34.5091057 6.9930868-2.3546753-1.2809267 5.5279236-.7768989 2.3547554 1.280931c-2.2657128 1.2050786-4.326294 1.9513979-5.5280037.7768946z" fill="#f9d12b"/><path d="m49.2565041 5.366807c-.0068932-.0034471-.0137863-.0068936-.024044-.0103407-.0208511-.0137668-.0413628-.0241075-.0655746-.0344272-.0413628-.0206604-.9222031.9538693-1.454277 1.4670033l.836113-.9986372c.1304474-.2618952-.7961273.3114486-.2584686-.0647349-.3581429-.1446443-1.5470772 2.1818953-1.9808846 2.2438765l-2.6383745-2.2652788-2.3553314-1.2810106 4.1563034-.5819607c.437336-.0619812.8506279-.0068727 1.2156639.1411974.0137901.0068936.030941.0137665.0447273.0241072.0585136.0206604.1136627.0482149.1686478.079195l.0137863.0068937.3719292.2031574z" fill="#f9d12b"/><path d="m16.1876831 9.5679979-2.3546906-1.2809267 5.5307121-.7772913 2.3546734 1.2809286c-1.7044563 2.1976891-3.5868892 1.9141341-5.5306949.7772894z" fill="#f9d12b"/><path d="m12.5551434 10.0775776-2.5059433 3.4159937c-1.4807425.206605-2.6824985 1.6701126-2.685945 3.2713709.8654265 4.1153011 1.4070964 8.0757713-2.5044751 9.907095l-2.3553331-1.2810116.0240445-12.6205902c.0034468-1.6012583 1.2052417-3.0647659 2.6825373-3.2713709l4.9896975-.7024975z" fill="#f9d12b"/><g><path d="m49.3915253 5.4463959c-.1101341-.0701494-.2267303-.1305704-.3487167-.1803603l-9.876297 21.2887192-5.5279236.7768974 10.0313224-21.6260286 4.1569443-.5842204c.5849953-.0822153 1.1251679.0439859 1.5646706.3249927z" fill="#ffe03c"/></g><g><path d="m42.7993507 26.0442085 4.9899406-.7013016c1.481266-.2081795 2.6809158-1.671545 2.6838722-3.2673473l.0234605-12.6235542z" fill="#ffe03c"/></g><g><path d="m34.5091209 6.9930887 5.5279236-.7768988-10.0313225 21.6260285-5.5306243.7772789z" fill="#ffe03c"/></g><g><path d="m25.3511734 8.2801542 5.5279236-.7768984-10.0313244 21.6260281-5.530694.7772884z" fill="#ffe03c"/></g><g><path d="m16.1876831 9.5679998 5.5307121-.7772913-10.0341653 21.6264286-4.1569448.5842209c-.5799904.0815125-1.116333-.04282-1.5543442-.319767.1080632.0678825.2220163.1264935.3412328.1747532z" fill="#ffe03c"/></g><g><path d="m7.5648446 10.7798605 4.9899888-.7012978-7.6972504 16.5921889.0234413-12.6205635c.0029698-1.5987788 1.2053037-3.0625353 2.6838203-3.2703276z" fill="#ffe03c"/></g><path d="m49.3908501 5.446002-.1997528-.1067491-.0242119-.0172138c.0242119.0103197.0447235.0206604.0655746.0344272.0102577.0034471.0171509.0068936.024044.0103407 0 .0034261.0033646.0034261.0033646.0034261.0448914.0241069.0896187.0482144.1309815.0757689z" fill="#f9d12b"/><path d="m49.23246 5.3564663c-.0137863-.0068936-.0275764-.0137668-.0413628-.0172133-.0482559-.0275545-.0965157-.051662-.1481323-.0723224.0413628.0137877.0825577.0344481.1239204.0551085.024212.0103197.0447236.0206604.0655747.0344272z" fill="#f9d12b"/><path d="m40.0371094 6.2161818-2.354744-1.2809272 3.6328583-.5105648 2.354763 1.2809286c-1.4448433 1.8886022-2.6566429 2.0642056-3.6328773.5105634z" fill="#f9234c"/><path d="m30.8790894 7.5032506-2.3546677-1.2809305 3.6300125-.5101652 2.3546715 1.2809267c-1.5048714 1.0971322-2.7842617 1.4851088-3.6300163.510169z" fill="#f9234c"/><path d="m21.7183781 8.7907038-2.3546696-1.2809296 3.632782-.5105543 2.3546791 1.2809305c-1.1488304.8891249-2.3597889 1.0588007-3.6327915.5105534z" fill="#f9234c"/><path d="m3.9594834 29.5754166c.0417678.0197392.0946891.0515175.1352727.073595.7398143.4024525 1.4795861.8049107 2.2194161 1.2073383-.0762134-.030859-.1502762-.0659409-.2220249-.1049728l-2.3546932-1.2809277c.0717512.0390301.1458145.0741139.2220293.1049672z" fill="#ffe03c"/><path d="m6.0915971 30.7491856-2.3554173-1.2775421c-.0791948-.0447693-.1583896-.0929832-.2306907-.1480923-.0516195-.0378742-.0688541-.048193-.0826418-.0619812-.4718063-.3718872-.7954798-.9366341-.8919091-1.6150246-.0068097-.055088-.0137036-.0998554-.0172346-.1446228-.0033629-.0275555-.0033629-.0482159-.0068097-.0654278 0-.0344276-.0034471-.0585346-.0034471-.079195-.0034468-.031002-.0034468-.0482159-.0034468-.0654297v-.0860882l.0034468-1.8147564 2.3553331 1.2810116-.0034471 1.8147354v.0860882c0 .0172348 0 .0344486.0034471.0654278 0 .0206604 0 .0447674.0034471.079216 0 .0172138.0034466.0378742.0068936.0654278.0034471.0447693.0068936.0895157.0172348.1446247.0964293.6783676.4201026 1.2431145.8919091 1.6150246.0137033.0137653.0274911.024107.0826416.0619812.0723009.0550861.151496.103302.230691.1446228z" fill="#f9234c"/><g fill="#ffe03c"><path d="m3.6269314 29.4061222c.7849038.4269829 1.5697796.8539486 2.3546875 1.2809296.038125.0238571.0769854.0465641.1165476.0680828l-2.3546906-1.2809277c-.0395622-.0215206-.0784223-.0442257-.1165445-.0680847z"/><path d="m3.6269314 29.4061222c-.0004497-.0002823-.0008993-.0005627-.0013487-.000845.7849073.4269829 1.569778.8539524 2.3546858 1.2809334.0004539.0002766.0009036.0005589.0013533.0008411-.4411283-.2399654-.8822436-.4799309-1.3233695-.7198944-.0361404-.0196609-.0843277-.0458736-.1204686-.0655346-.0383129-.0208416-.089396-.0486317-.1277089-.0694733-.0397596-.0216293-.092773-.0504684-.1325326-.0720959-.0404854-.0220242-.0944643-.0513916-.1349497-.0734158-.1718832-.0935019-.3466302-.1817663-.5156611-.2805155z"/><path d="m3.6255827 29.4052773c-.0024471-.0015335-.0048912-.0030727-.0073323-.0046158l2.3546882 1.2809296c.0024433.001543.0048876.0030804.0073347.0046158-.3924375-.2134743-.7848649-.4269562-1.1772981-.6404343-.3474283-.1889954-.6948571-.3779984-1.0422859-.5669956-.0405324-.022049-.095274-.0502091-.1351066-.0734997z"/><path d="m5.9729409 30.681591-2.3546941-1.2809257-.008107-.0050144 2.3546863 1.2809333z"/><path d="m5.9648304 30.6765804c-.0356436-.0226002-.0706582-.0461712-.1049566-.0708027.0342459.0247136.0693826.0480996.1049566.0708027z"/><path d="m5.9648304 30.6765804-2.3546913-1.2809277c-.0356429-.0226002-.0706575-.0461712-.1049557-.0708027l2.3546903 1.2809315c.0342985.0246277.0693131.0481988.1049567.0707989z"/></g><g><g fill="#ff3654"><path d="m49.0428123 5.2660165c.121994.0497947.2385826.1102204.3487167.1803737.0173378.0110784.0330276.0214334.0487175.0319858.5966263.4226642.9720001 1.0726571 1.0460892 1.863852.0026398.0282569.0043945.0495181.0058517.0709066.0020409.0287199.0033455.0514822.0043488.074307.0012932.0298095.0018578.0486088.0024185.067534.0006752.039166.0010834.0614896.0010414.0838709l-.0033684 1.8131475-7.6972504 16.5921879-3.6328583.5105648z"/><path d="m43.6699142 5.7056184-10.0313224 21.6260295-3.6328583.5105648 10.0313225-21.626029z"/><path d="m34.5091248 6.9930835-10.0340157 21.6264062-3.6273212.5097866 10.0313224-21.6260276z"/><path d="m25.351181 8.2801485-10.034091 21.6264181-3.6328573.5105648 10.0341663-21.6264286z"/></g><g><path d="m12.5548067 10.0785551-2.3546543-1.2809267 3.6328573-.5105648 2.3546734 1.2809286c-1.2332382.5165424-2.4437761.680728-3.6328764.5105629z" fill="#f9234c"/></g><path d="m16.1877003 9.5679922-9.8735247 21.2883463c-.1616125-.0654163-.3136897-.1495934-.4542904-.2505627-.0525923-.0388432-.0675321-.0504494-.082397-.0622292-.4702945-.3736458-.7949572-.9387856-.892519-1.6166744-.0074573-.053009-.0127606-.0976143-.0170159-.1426163-.0027132-.0293369-.0042491-.0482216-.0055604-.0672226-.0024781-.0351887-.0037093-.0569382-.0047908-.0787582-.0012155-.0303078-.001781-.0481377-.0022712-.0660038-.0008211-.0414162-.0011544-.0633526-.0011134-.0853996l.0033731-1.8161259 7.6972523-16.5921898z" fill="#ff3654"/></g></g><g opacity=".3"><g><path d="m21.6775665 22.4877777c-.0876522 0-.1769276-.0186672-.2617378-.0580292-.3124619-.1448689-.447998-.515564-.3031292-.8278217l1.8820782-4.0563297c.1448689-.3120556.5157642-.447794.8274155-.3031292.3124619.1448689.447998.515564.3031292.8278236l-1.8820782 4.0563278c-.1055069.2274475-.3303166.3611584-.5656777.3611584z" fill="#fff"/></g><g><path d="m24.3383656 16.7534847c-.0876522 0-.1769276-.0186653-.2617378-.0580273-.3124638-.1448689-.447998-.5153599-.3031292-.8278227l.577446-1.2449799c.1444626-.3118534.5161724-.4475918.8274174-.3031292.3124619.1448689.4479961.5153599.3031273.8278227l-.577446 1.2449799c-.1051007.2272454-.3303166.3611565-.5656777.3611565z" fill="#fff"/></g></g><g opacity=".3"><g><path d="m40.2891045 19.3486404c-.0876503 0-.1769257-.0186672-.2617378-.0580292-.3124619-.1448689-.447998-.5155621-.3031273-.8278217l1.8820763-4.0563288c.1448708-.3120565.5157661-.4477949.8274193-.3031292.3124619.1448689.447998.515563.3031273.8278217l-1.8820763 4.0563288c-.105507.2274476-.3303185.3611584-.5656815.3611584z" fill="#fff"/></g><g><path d="m42.9499054 13.6143484c-.0876503 0-.1769257-.0186663-.2617378-.0580282-.3124619-.1448689-.447998-.5153599-.3031311-.8278227l.5774498-1.2449799c.1444626-.3118534.5161705-.4475918.8274155-.3031282.3124619.1448689.447998.5153599.3031273.8278217l-.577446 1.2449799c-.1050988.2272453-.3303185.3611574-.5656777.3611574z" fill="#fff"/></g></g></g></svg>