<svg height="512" viewBox="0 0 64 64" width="512" xmlns="http://www.w3.org/2000/svg"><g id="_12-Traffic-cone" data-name="12-Traffic-cone"><path d="m58.71 56.79-5.09-16a4 4 0 0 0 -3.81-2.79h-35.62a4 4 0 0 0 -3.81 2.79l-5.09 16a4 4 0 0 0 3.81 5.21h45.8a4 4 0 0 0 3.81-5.21z" fill="#fcaa52"/><path d="m58.71 56.79-5.09-16a4 4 0 0 0 -3.81-2.79h-4a4 4 0 0 1 3.81 2.79l5.09 16a4 4 0 0 1 -3.81 5.21h4a4 4 0 0 0 3.81-5.21z" fill="#fc9e3a"/><path d="m49 45.73-11.63-41.54a3 3 0 0 0 -2.89-2.19h-5a3 3 0 0 0 -2.89 2.19l-11.59 41.54a1 1 0 0 0 0 .49c.09.4 2.35 9.78 17 9.78s16.89-9.38 17-9.78a1 1 0 0 0 0-.49z" fill="#fcb860"/><path d="m49 45.73-11.63-41.54a3 3 0 0 0 -2.89-2.19h-4a3 3 0 0 1 2.89 2.19l11.63 41.54a1 1 0 0 1 0 .49c-.09.38-2.15 8.9-15 9.71.64 0 1.3.07 2 .07 14.63 0 16.89-9.38 17-9.78a1 1 0 0 0 0-.49z" fill="#fcaa52"/><path d="m43.92 27.65c-2.39 1.81-6.13 3.35-11.92 3.35s-9.53-1.54-11.92-3.35l2.92-10.32a22.15 22.15 0 0 0 9 1.67 22.15 22.15 0 0 0 9-1.67z" fill="#e7eaef"/><path d="m49 46.22c-.09.4-2.35 9.78-17 9.78s-16.89-9.38-17-9.78a1 1 0 0 1 0-.49l2.48-8.73c1.86 2.61 5.93 6 14.52 6s12.66-3.39 14.52-6l2.48 8.73a1 1 0 0 1 0 .49z" fill="#e7eaef"/><g fill="#d8dbe0"><path d="m49 45.73-2.48-8.73a12.2 12.2 0 0 1 -3.14 3l1.62 5.73a1 1 0 0 1 0 .49c-.09.38-2.14 8.9-15 9.71.64 0 1.3.07 2 .07 14.63 0 16.89-9.38 17-9.78a1 1 0 0 0 0-.49z"/><path d="m40.45 29.57a14.47 14.47 0 0 0 3.47-1.92l-2.92-10.32a18.24 18.24 0 0 1 -3.67 1.15z"/></g></g></svg>