<?xml version="1.0" encoding="UTF-8" standalone="no"?>
<!-- Created with Inkscape (http://www.inkscape.org/) -->

<svg
   version="1.1"
   id="svg2"
   width="192"
   height="192"
   viewBox="0 0 192 192"
   sodipodi:docname="T-090-10-D.eps"
   xmlns:inkscape="http://www.inkscape.org/namespaces/inkscape"
   xmlns:sodipodi="http://sodipodi.sourceforge.net/DTD/sodipodi-0.dtd"
   xmlns="http://www.w3.org/2000/svg"
   xmlns:svg="http://www.w3.org/2000/svg">
  <defs
     id="defs6" />
  <sodipodi:namedview
     id="namedview4"
     pagecolor="#ffffff"
     bordercolor="#000000"
     borderopacity="0.25"
     inkscape:showpageshadow="2"
     inkscape:pageopacity="0.0"
     inkscape:pagecheckerboard="0"
     inkscape:deskcolor="#d1d1d1" />
  <g
     id="g8"
     inkscape:groupmode="layer"
     inkscape:label="ink_ext_XXXXXX"
     transform="matrix(1.3333333,0,0,-1.3333333,0,192)">
    <g
       id="g10"
       transform="scale(0.1)">
      <path
         d="M 1436.17,120.18 C 1436.17,55.8906 1384.11,3.82813 1319.82,3.82813 H 120.242 C 56.0039,3.82813 3.82422,55.8906 3.82422,120.18 v 1199.58 c 0,64.24 52.17968,116.42 116.41778,116.42 H 1319.82 c 64.29,0 116.35,-52.18 116.35,-116.42 V 120.18"
         style="fill:#f47216;fill-opacity:1;fill-rule:evenodd;stroke:none"
         id="path12" />
      <path
         d="M 1436.17,120.18 C 1436.17,55.8906 1384.11,3.82813 1319.82,3.82813 H 120.242 C 56.0039,3.82813 3.82422,55.8906 3.82422,120.18 v 1199.58 c 0,64.24 52.17968,116.42 116.41778,116.42 H 1319.82 c 64.29,0 116.35,-52.18 116.35,-116.42 z"
         style="fill:none;stroke:#231f20;stroke-width:2.16;stroke-linecap:butt;stroke-linejoin:miter;stroke-miterlimit:2.6131;stroke-dasharray:none;stroke-opacity:1"
         id="path14" />
      <path
         d="M 1416.14,120.238 V 1319.76 c 0,53.2 -43.12,96.31 -96.38,96.31 H 120.242 c -53.199,0 -96.3162,-43.11 -96.3162,-96.31 V 120.238 c 0,-53.2575 43.1172,-96.3786 96.3162,-96.3786 H 1319.76 c 53.26,0 96.38,43.1211 96.38,96.3786"
         style="fill:#231f20;fill-opacity:1;fill-rule:evenodd;stroke:none"
         id="path16" />
      <path
         d="m 1380.69,120.238 c 0,-33.6403 -27.29,-60.9294 -60.93,-60.9294 H 120.242 c -33.5897,0 -60.8787,27.2891 -60.8787,60.9294 V 1319.76 c 0,33.59 27.289,60.88 60.8787,60.88 H 1319.76 c 33.64,0 60.93,-27.29 60.93,-60.88 V 120.238"
         style="fill:#f47216;fill-opacity:1;fill-rule:evenodd;stroke:none"
         id="path18" />
      <path
         d="m 459.266,280.18 108.527,-108.532 281.469,281.469 34.511,-60.008 c 3.895,-10.371 13.977,-17.058 24.977,-16.671 12.449,0.484 22.699,9.773 24.469,22.042 L 980.582,693.859 685.824,645.52 c -11.242,-1.59 -20.121,-10.551 -21.5,-21.86 -1.379,-10.859 4.442,-21.41 14.34,-26.031 L 740.852,561.758 459.266,280.18"
         style="fill:#231f20;fill-opacity:1;fill-rule:evenodd;stroke:none"
         id="path20" />
      <path
         d="m 730.328,947.859 2.692,-2.703 c 11.039,-11.031 30.89,-19.789 52.781,-19.789 26.808,0 51.762,14.762 63.879,35.688 19.851,33.941 23.148,117.315 23.148,125.835 0,72.69 -17.328,107.71 -19.367,111.49 -13.68,25.19 -38.27,40.07 -67.242,40.07 -32.321,0 -60.449,-20.4 -70.824,-49.78 -6.063,-17.34 -15.051,-60.16 -15.051,-116.72 0,-40.84 8.39,-82.942 11.449,-91.884 4.078,-11.812 9.957,-23.207 18.535,-32.207"
         style="fill:#231f20;fill-opacity:1;fill-rule:evenodd;stroke:none"
         id="path22" />
      <path
         d="m 930.051,1231.85 0.301,-228.09 c 3.289,-46.604 38.679,-78.752 81.558,-78.752 20.99,0 39.05,7.5 54.7,21.351 16.43,14.579 25.85,33.289 26.69,61.301 v 224.3 h -41.98 v -226.7 c 0,-22.194 -17.22,-39.104 -39.59,-39.104 -15.109,0 -29.148,8.211 -36.281,22.309 -3.117,6.113 -3.66,13.075 -4.019,19.975 v 223.23 l -41.379,0.18"
         style="fill:#231f20;fill-opacity:1;fill-rule:evenodd;stroke:none"
         id="path24" />
      <path
         d="m 117.316,931.965 80.786,0.301 c 24.589,1.8 53.023,20.332 64.773,42.101 6.598,12.059 18.359,46.003 18.359,108.923 0,73.65 -15.781,105.56 -33.351,123.79 -14.281,14.87 -31.07,23.03 -56.68,24.77 h -74.07 l 0.183,-299.885"
         style="fill:#231f20;fill-opacity:1;fill-rule:evenodd;stroke:none"
         id="path26" />
      <path
         d="m 1157.47,931.965 h 43.01 v 140.465 h 37.36 l 40.31,-140.465 h 44.08 l -42.58,147.965 c 26.15,12.66 40.54,32.81 40.54,73.65 0,58.6 -41.2,75.63 -59.44,77.37 H 1157.47 V 931.965"
         style="fill:#231f20;fill-opacity:1;fill-rule:evenodd;stroke:none"
         id="path28" />
      <path
         d="m 575.355,931.965 h 42.458 v 261.925 h 53.679 v 37.96 H 521.676 v -37.96 h 53.679 V 931.965"
         style="fill:#231f20;fill-opacity:1;fill-rule:evenodd;stroke:none"
         id="path30" />
      <path
         d="m 338.684,931.965 h 149.519 v 42.285 h -107.23 v 98.06 h 63.269 v 41.81 h -63.09 v 74.97 h 102.852 v 42.46 H 338.684 V 931.965"
         style="fill:#231f20;fill-opacity:1;fill-rule:evenodd;stroke:none"
         id="path32" />
      <path
         d="m 757.02,983.367 -2.098,3.903 c -1.5,2.878 -13.199,37.66 -13.199,87.92 0,44.26 8.218,83.01 12.476,94.7 6.891,19.08 18.949,26.27 31.781,26.27 8.641,0 17.34,-3.41 23.508,-9.47 6.18,-6 14.461,-16.62 19.082,-57.71 1.68,-13.48 2.52,-27.04 2.52,-40.59 0,-41.75 -7.5,-79.05 -12.117,-92.433 -7.2,-20.629 -19.551,-28.301 -34.075,-28.301 -12.585,0 -22.066,5.75 -27.878,15.711"
         style="fill:#f47216;fill-opacity:1;fill-rule:evenodd;stroke:none"
         id="path34" />
      <path
         d="m 469.875,1290.53 h -63.66 l -25.871,-36.49 h 55.629 l 33.902,36.49"
         style="fill:#231f20;fill-opacity:1;fill-rule:evenodd;stroke:none"
         id="path36" />
      <path
         d="m 159.414,974.547 v 214.723 h 28.488 c 19.082,0 35.813,-11.64 42.289,-34.79 4.551,-16.55 8.571,-44.2 8.571,-70.95 0,-54.7 -11.926,-86.792 -13.489,-89.483 -5.578,-9.598 -18.171,-18.121 -32.089,-19.5 h -33.77"
         style="fill:#f47216;fill-opacity:1;fill-rule:evenodd;stroke:none"
         id="path38" />
      <path
         d="m 1199.76,1114.6 v 74.97 h 50.98 c 15.65,0 28.31,-9.96 28.31,-37.85 0,-22.91 -9.78,-33.58 -25.49,-37.12 h -53.8"
         style="fill:#f47216;fill-opacity:1;fill-rule:evenodd;stroke:none"
         id="path40" />
    </g>
  </g>
</svg>
