<?xml version="1.0" encoding="UTF-8" standalone="no"?>
<!-- Created with Inkscape (http://www.inkscape.org/) -->

<svg
   version="1.1"
   id="svg2"
   width="193.33333"
   height="192"
   viewBox="0 0 193.33333 192"
   sodipodi:docname="T-090-2-d.eps"
   xmlns:inkscape="http://www.inkscape.org/namespaces/inkscape"
   xmlns:sodipodi="http://sodipodi.sourceforge.net/DTD/sodipodi-0.dtd"
   xmlns="http://www.w3.org/2000/svg"
   xmlns:svg="http://www.w3.org/2000/svg">
  <defs
     id="defs6" />
  <sodipodi:namedview
     id="namedview4"
     pagecolor="#ffffff"
     bordercolor="#000000"
     borderopacity="0.25"
     inkscape:showpageshadow="2"
     inkscape:pageopacity="0.0"
     inkscape:pagecheckerboard="0"
     inkscape:deskcolor="#d1d1d1" />
  <g
     id="g8"
     inkscape:groupmode="layer"
     inkscape:label="ink_ext_XXXXXX"
     transform="matrix(1.3333333,0,0,-1.3333333,0,192)">
    <g
       id="g10"
       transform="scale(0.1)">
      <path
         d="M 1349.76,3.00391 103.051,2.90234 C 77.25,2.90234 54.0469,13.3516 37.1719,30.2344 20.332,47.0234 9.92969,70.3242 9.98047,95.9336 V 1342.78 c -0.10156,25.7 10.39843,48.91 27.23043,65.79 16.8789,16.88 40.0899,27.33 65.7891,27.23 l 1246.76,0.1 c 25.7,0 48.9,-10.36 65.74,-27.24 16.88,-16.88 27.23,-40.09 27.27,-65.88 l 0.06,-1246.7566 c 0,-25.6992 -10.45,-49 -27.28,-65.789 -16.84,-16.7813 -40.04,-27.33206 -65.79,-27.23049"
         style="fill:#f47216;fill-opacity:1;fill-rule:evenodd;stroke:none"
         id="path12" />
      <path
         d="M 1349.76,3.00391 103.051,2.90234 C 77.25,2.90234 54.0469,13.3516 37.1719,30.2344 20.332,47.0234 9.92969,70.3242 9.98047,95.9336 V 1342.78 c -0.10156,25.7 10.39843,48.91 27.23043,65.79 16.8789,16.88 40.0899,27.33 65.7891,27.23 l 1246.76,0.1 c 25.7,0 48.9,-10.36 65.74,-27.24 16.88,-16.88 27.23,-40.09 27.27,-65.88 l 0.06,-1246.7566 c 0,-25.6992 -10.45,-49 -27.28,-65.789 -16.84,-16.7813 -40.04,-27.33206 -65.79,-27.23049 z"
         style="fill:none;stroke:#231f20;stroke-width:2.16;stroke-linecap:butt;stroke-linejoin:miter;stroke-miterlimit:2.6131;stroke-dasharray:none;stroke-opacity:1"
         id="path14" />
      <path
         d="m 1349.76,19.7344 c 42.58,0 77.05,34.4297 77.05,77.0078 L 1426.77,1343.5 c 0.04,42.48 -34.48,77.01 -77.06,77.01 H 103 c -42.5781,0 -76.9609,-34.53 -77.0508,-77.01 L 26.0391,96.7422 c 0,-42.5781 34.4297,-77.0977 77.0119,-77.0977 l 1246.709,0.0899"
         style="fill:#231f20;fill-opacity:1;fill-rule:evenodd;stroke:none"
         id="path16" />
      <path
         d="M 1349.76,48.0234 H 103.051 c -26.8518,0 -48.7229,21.7696 -48.7697,48.7188 L 54.3281,1343.5 c 0,26.85 21.8203,48.72 48.6719,48.72 h 1246.71 c 26.95,-0.1 48.72,-21.87 48.72,-48.72 l 0.05,-1246.7578 c 0,-26.8477 -21.87,-48.7188 -48.72,-48.7188"
         style="fill:#f47216;fill-opacity:1;fill-rule:evenodd;stroke:none"
         id="path18" />
      <path
         d="m 921.727,406.363 -17.508,-64.949 c -4.903,-10.762 -2.332,-23.422 6.277,-31.414 9.711,-8.988 24.461,-9.746 35.031,-1.809 L 1203.9,495.152 945.285,680.863 c -9.707,7.282 -23.129,7.242 -32.687,-0.23 -9.231,-7.192 -12.801,-19.508 -8.801,-30.461 l 18.121,-67.609 H 248.191 v -176.2 h 673.536"
         style="fill:#231f20;fill-opacity:1;fill-rule:evenodd;stroke:none"
         id="path20" />
      <path
         d="m 736.066,944.887 2.59,-2.586 c 10.551,-10.551 29.582,-19.039 50.59,-19.039 25.75,0 49.672,14.238 61.332,34.289 19.027,32.609 22.199,112.589 22.199,120.739 0,69.77 -16.64,103.34 -18.609,106.98 -13.09,24.17 -36.68,38.41 -64.492,38.41 -31.028,0 -58.028,-19.51 -67.946,-47.76 -5.8,-16.59 -14.429,-57.68 -14.429,-111.97 0,-39.17 8,-79.548 10.98,-88.13 3.879,-11.371 9.535,-22.25 17.785,-30.933"
         style="fill:#231f20;fill-opacity:1;fill-rule:evenodd;stroke:none"
         id="path22" />
      <path
         d="m 923.988,1217.35 0.289,-218.799 c 3.211,-44.742 37.157,-75.621 78.263,-75.621 20.18,0 37.49,7.242 52.5,20.519 15.78,14 24.79,31.942 25.61,58.841 v 215.21 h -40.28 V 999.992 c 0,-21.304 -16.55,-37.551 -37.98,-37.551 -14.484,0 -27.952,7.907 -34.816,21.43 -2.969,5.848 -3.496,12.57 -3.886,19.139 v 214.2 l -39.7,0.14"
         style="fill:#231f20;fill-opacity:1;fill-rule:evenodd;stroke:none"
         id="path24" />
      <path
         d="m 156.758,929.641 77.543,0.289 c 23.539,1.722 50.828,19.511 62.137,40.418 6.281,11.562 17.601,44.122 17.601,104.492 0,70.68 -15.148,101.27 -31.98,118.78 -13.719,14.24 -29.829,22.1 -54.379,23.73 h -71.071 l 0.149,-287.709"
         style="fill:#231f20;fill-opacity:1;fill-rule:evenodd;stroke:none"
         id="path26" />
      <path
         d="m 1138.05,929.641 h 41.27 v 134.789 h 35.83 l 38.7,-134.789 h 42.3 l -40.86,141.989 c 25.08,12.13 38.89,31.45 38.89,70.63 0,56.25 -39.52,72.6 -57.02,74.23 h -99.11 V 929.641"
         style="fill:#231f20;fill-opacity:1;fill-rule:evenodd;stroke:none"
         id="path28" />
      <path
         d="m 365.539,929.641 h 143.43 v 40.57 h -102.86 v 94.079 h 60.707 v 40.14 H 406.25 v 71.92 h 98.688 v 40.71 H 365.539 V 929.641"
         style="fill:#231f20;fill-opacity:1;fill-rule:evenodd;stroke:none"
         id="path30" />
      <path
         d="m 590.199,929.641 h 40.711 v 251.319 h 51.5 v 36.39 H 538.699 v -36.39 h 51.5 V 929.641"
         style="fill:#231f20;fill-opacity:1;fill-rule:evenodd;stroke:none"
         id="path32" />
      <path
         d="m 427.578,1288.2 -26.996,-38.87 h 56.789 l 35.41,38.87 h -65.203"
         style="fill:#231f20;fill-opacity:1;fill-rule:evenodd;stroke:none"
         id="path34" />
      <path
         d="m 761.668,978.98 -2.012,3.739 c -1.441,2.742 -12.711,36.111 -12.711,84.351 0,42.49 7.914,79.65 11.993,90.87 6.617,18.32 18.167,25.22 30.5,25.22 8.289,0 16.64,-3.31 22.578,-9.11 5.902,-5.75 13.859,-15.92 18.273,-55.38 1.629,-12.95 2.449,-25.95 2.449,-38.94 0,-40.04 -7.203,-75.86 -11.652,-88.66 -6.91,-19.812 -18.746,-27.191 -32.707,-27.191 -12.082,0 -21.141,5.559 -26.711,15.101"
         style="fill:#f47216;fill-opacity:1;fill-rule:evenodd;stroke:none"
         id="path36" />
      <path
         d="m 197.18,970.5 v 206 h 27.328 c 18.269,0 34.34,-11.13 40.57,-33.38 4.371,-15.87 8.203,-42.39 8.203,-68.04 0,-52.51 -11.461,-83.291 -12.953,-85.881 -5.316,-9.211 -17.449,-17.359 -30.777,-18.699 H 197.18"
         style="fill:#f47216;fill-opacity:1;fill-rule:evenodd;stroke:none"
         id="path38" />
      <path
         d="m 1178.62,1104.86 v 71.92 h 48.91 c 15.04,0 27.18,-9.54 27.18,-36.3 0,-21.96 -9.39,-32.22 -24.45,-35.62 h -51.64"
         style="fill:#f47216;fill-opacity:1;fill-rule:evenodd;stroke:none"
         id="path40" />
    </g>
  </g>
</svg>
