<?xml version="1.0" encoding="UTF-8" standalone="no"?>
<!-- Created with Inkscape (http://www.inkscape.org/) -->

<svg
   version="1.1"
   id="svg2"
   width="192"
   height="192"
   viewBox="0 0 192 192"
   sodipodi:docname="T-090-3-g.eps"
   xmlns:inkscape="http://www.inkscape.org/namespaces/inkscape"
   xmlns:sodipodi="http://sodipodi.sourceforge.net/DTD/sodipodi-0.dtd"
   xmlns="http://www.w3.org/2000/svg"
   xmlns:svg="http://www.w3.org/2000/svg">
  <defs
     id="defs6" />
  <sodipodi:namedview
     id="namedview4"
     pagecolor="#ffffff"
     bordercolor="#000000"
     borderopacity="0.25"
     inkscape:showpageshadow="2"
     inkscape:pageopacity="0.0"
     inkscape:pagecheckerboard="0"
     inkscape:deskcolor="#d1d1d1" />
  <g
     id="g8"
     inkscape:groupmode="layer"
     inkscape:label="ink_ext_XXXXXX"
     transform="matrix(1.3333333,0,0,-1.3333333,0,192)">
    <g
       id="g10"
       transform="scale(0.1)">
      <path
         d="M 1343.38,3.55469 96.6719,3.45313 c -25.8008,0 -49,10.44917 -65.8789,27.33207 C 13.9531,47.5742 3.55078,70.875 3.60156,96.4844 V 1343.33 C 3.5,1369.03 14,1392.24 30.832,1409.12 c 16.8828,16.88 40.0899,27.33 65.7891,27.23 l 1246.7589,0.1 c 25.7,0 48.91,-10.36 65.74,-27.24 16.88,-16.88 27.23,-40.09 27.28,-65.88 l 0.05,-1246.7558 c 0,-25.6992 -10.45,-49 -27.28,-65.789 -16.84,-16.7813 -40.04,-27.33207 -65.79,-27.23051"
         style="fill:#f47216;fill-opacity:1;fill-rule:evenodd;stroke:none"
         id="path12" />
      <path
         d="M 1343.38,3.55469 96.6719,3.45313 c -25.8008,0 -49,10.44917 -65.8789,27.33207 C 13.9531,47.5742 3.55078,70.875 3.60156,96.4844 V 1343.33 C 3.5,1369.03 14,1392.24 30.832,1409.12 c 16.8828,16.88 40.0899,27.33 65.7891,27.23 l 1246.7589,0.1 c 25.7,0 48.91,-10.36 65.74,-27.24 16.88,-16.88 27.23,-40.09 27.28,-65.88 l 0.05,-1246.7558 c 0,-25.6992 -10.45,-49 -27.28,-65.789 -16.84,-16.7813 -40.04,-27.33207 -65.79,-27.23051 z"
         style="fill:none;stroke:#231f20;stroke-width:2.16;stroke-linecap:butt;stroke-linejoin:miter;stroke-miterlimit:2.6131;stroke-dasharray:none;stroke-opacity:1"
         id="path14" />
      <path
         d="m 1343.38,20.2852 c 42.58,0 77.05,34.4296 77.05,77.0078 l -0.04,1246.757 c 0.04,42.48 -34.48,77.01 -77.06,77.01 H 96.6211 c -42.5781,0 -76.9609,-34.53 -77.0508,-77.01 L 19.6602,97.293 c 0,-42.5782 34.4296,-77.0977 77.0117,-77.0977 L 1343.38,20.2852"
         style="fill:#231f20;fill-opacity:1;fill-rule:evenodd;stroke:none"
         id="path16" />
      <path
         d="M 1343.38,48.5742 H 96.6719 c -26.8516,0 -48.7227,21.7696 -48.7696,48.7188 l 0.0469,1246.757 c 0,26.85 21.8242,48.72 48.6719,48.72 H 1343.33 c 26.95,-0.1 48.72,-21.87 48.72,-48.72 L 1392.1,97.293 c 0,-26.8477 -21.87,-48.7188 -48.72,-48.7188"
         style="fill:#f47216;fill-opacity:1;fill-rule:evenodd;stroke:none"
         id="path18" />
      <path
         d="m 1076.12,647.652 -421.737,-0.187 23.879,89.086 c 4.32,11.797 0.48,25.039 -9.489,32.801 -10.308,8.058 -24.742,8.109 -35.203,0.238 L 355.023,569.594 633.332,368.191 c 11.367,-8.535 27.238,-7.718 37.688,1.961 9.312,8.59 12.043,22.25 6.761,33.809 l -24.019,89.195 v -0.051 l 267.996,0.098 V 192.832 h 154.362 v 454.82"
         style="fill:#231f20;fill-opacity:1;fill-rule:evenodd;stroke:none"
         id="path20" />
      <path
         d="m 729.688,952.641 2.593,-2.59 c 10.547,-10.551 29.578,-19.039 50.59,-19.039 25.75,0 49.668,14.238 61.324,34.289 19.035,32.609 22.203,112.589 22.203,120.739 0,69.77 -16.64,103.34 -18.609,106.98 -13.09,24.17 -36.68,38.41 -64.492,38.41 -31.027,0 -58.027,-19.51 -67.945,-47.76 -5.801,-16.59 -14.43,-57.68 -14.43,-111.97 0,-39.17 8,-79.548 10.98,-88.13 3.879,-11.367 9.539,-22.246 17.786,-30.929"
         style="fill:#231f20;fill-opacity:1;fill-rule:evenodd;stroke:none"
         id="path22" />
      <path
         d="m 917.609,1225.1 0.289,-218.8 c 3.211,-44.741 37.161,-75.62 78.262,-75.62 20.18,0 37.49,7.242 52.5,20.519 15.78,14 24.79,31.942 25.61,58.841 v 215.21 h -40.28 v -217.51 c 0,-21.299 -16.54,-37.549 -37.982,-37.549 -14.481,0 -27.949,7.911 -34.809,21.43 -2.969,5.848 -3.5,12.569 -3.89,19.139 v 214.2 l -39.7,0.14"
         style="fill:#231f20;fill-opacity:1;fill-rule:evenodd;stroke:none"
         id="path24" />
      <path
         d="m 1131.67,937.391 h 41.28 v 134.789 h 35.82 l 38.7,-134.789 h 42.3 l -40.86,141.989 c 25.08,12.13 38.89,31.45 38.89,70.63 0,56.25 -39.51,72.6 -57.02,74.23 h -99.11 V 937.391"
         style="fill:#231f20;fill-opacity:1;fill-rule:evenodd;stroke:none"
         id="path26" />
      <path
         d="m 150.383,937.391 77.539,0.289 c 23.539,1.722 50.828,19.511 62.141,40.422 6.281,11.558 17.597,44.118 17.597,104.488 0,70.68 -15.148,101.27 -31.98,118.78 -13.719,14.24 -29.828,22.1 -54.379,23.73 H 150.23 l 0.153,-287.709"
         style="fill:#231f20;fill-opacity:1;fill-rule:evenodd;stroke:none"
         id="path28" />
      <path
         d="m 359.16,937.391 h 143.43 v 40.57 H 399.73 v 94.079 h 60.711 v 40.14 h -60.57 v 71.92 h 98.688 v 40.71 H 359.16 V 937.391"
         style="fill:#231f20;fill-opacity:1;fill-rule:evenodd;stroke:none"
         id="path30" />
      <path
         d="m 583.82,937.391 h 40.711 v 251.319 h 51.5 v 36.39 H 532.32 v -36.39 h 51.5 V 937.391"
         style="fill:#231f20;fill-opacity:1;fill-rule:evenodd;stroke:none"
         id="path32" />
      <path
         d="m 421.203,1288.75 -27.004,-38.87 h 56.793 l 35.41,38.87 h -65.199"
         style="fill:#231f20;fill-opacity:1;fill-rule:evenodd;stroke:none"
         id="path34" />
      <path
         d="m 755.289,986.73 -2.012,3.743 c -1.437,2.738 -12.707,36.107 -12.707,84.347 0,42.49 7.91,79.65 11.989,90.87 6.617,18.32 18.171,25.22 30.5,25.22 8.289,0 16.64,-3.31 22.578,-9.11 5.902,-5.75 13.863,-15.92 18.273,-55.38 1.629,-12.95 2.449,-25.95 2.449,-38.94 0,-40.04 -7.199,-75.86 -11.652,-88.66 -6.91,-19.808 -18.75,-27.187 -32.707,-27.187 -12.082,0 -21.141,5.558 -26.711,15.097"
         style="fill:#f47216;fill-opacity:1;fill-rule:evenodd;stroke:none"
         id="path36" />
      <path
         d="m 190.805,978.25 v 206 h 27.328 c 18.269,0 34.34,-11.13 40.57,-33.38 4.371,-15.87 8.199,-42.39 8.199,-68.04 0,-52.51 -11.461,-83.287 -12.953,-85.881 -5.316,-9.207 -17.449,-17.359 -30.777,-18.699 h -32.367"
         style="fill:#f47216;fill-opacity:1;fill-rule:evenodd;stroke:none"
         id="path38" />
      <path
         d="m 1172.24,1112.61 v 71.92 h 48.91 c 15.05,0 27.19,-9.54 27.19,-36.3 0,-21.96 -9.4,-32.22 -24.46,-35.62 h -51.64"
         style="fill:#f47216;fill-opacity:1;fill-rule:evenodd;stroke:none"
         id="path40" />
    </g>
  </g>
</svg>
