<?xml version="1.0" encoding="UTF-8" standalone="yes"?>
<!-- Created with sK1/UniConvertor (http://sk1project.org/) -->
<svg xmlns="http://www.w3.org/2000/svg" xmlns:xlink="http://www.w3.org/1999/xlink"
  width="595.276pt" height="841.89pt" viewBox="0 0 595.276 841.89"
  fill-rule="evenodd">
<g>
<path style="stroke:#2c2c2b; stroke-width:0.216; fill:#ef7e20" d="M 304.128 515.658C 302.328 517.53 299.952 518.394 297.576 518.394C 295.2 518.394 292.824 517.53 291.024 515.658L 202.896 427.53C 201.024 425.658 200.16 423.282 200.16 420.978C 200.16 418.602 201.024 416.226 202.896 414.426L 291.024 326.298C 292.824 324.426 295.2 323.562 297.576 323.562C 299.952 323.562 302.328 324.426 304.128 326.298L 392.256 414.426C 394.128 416.226 394.992 418.602 394.992 420.978C 394.992 423.354 394.128 425.73 392.256 427.53L 304.128 515.658z"/>
<path style="stroke:none; fill:#2c2c2b" d="M 302.976 514.506L 391.176 426.306C 394.128 423.282 394.128 418.53 391.176 415.506L 302.976 327.306C 299.952 324.354 295.2 324.354 292.176 327.306L 203.976 415.506C 201.024 418.53 201.024 423.282 203.976 426.306L 292.176 514.506C 295.2 517.458 299.952 517.458 302.976 514.506z"/>
<path style="stroke:none; fill:#ef7e20" d="M 300.96 512.49C 299.088 514.362 296.064 514.362 294.192 512.49L 205.992 424.29C 204.12 422.418 204.12 419.394 205.992 417.522L 294.192 329.322C 296.064 327.45 299.088 327.45 300.96 329.322L 389.16 417.522C 391.032 419.394 391.032 422.418 389.16 424.29L 300.96 512.49z"/>
<path style="stroke:none; fill:#2c2c2b" d="M 290.16 481.962L 290.16 497.082L 305.424 497.082L 305.424 481.674C 305.28 476.202 303.336 470.874 300.024 466.482C 297.72 463.386 294.84 460.866 291.384 459.066C 289.8 458.202 288.144 457.41 286.488 456.69C 284.688 455.898 282.888 455.25 281.088 454.602C 276.552 452.802 272.808 449.346 270.432 445.026C 268.632 441.714 267.768 437.898 267.984 434.082C 267.696 428.97 269.208 423.93 272.304 419.97C 274.608 417.018 277.632 414.642 281.088 413.202C 281.952 412.77 282.816 412.338 283.752 411.978C 284.688 411.618 285.552 411.258 286.56 410.97C 291.888 409.314 296.568 406.074 299.88 401.538C 303.048 397.362 304.92 392.394 305.208 387.138L 305.208 374.61L 314.856 377.418C 316.008 377.706 317.232 377.202 317.88 376.194C 318.6 375.258 318.6 373.89 317.952 372.882L 297.648 344.802L 277.56 373.026C 276.984 373.89 276.84 374.97 277.344 375.906C 277.92 377.058 279.144 377.706 280.368 377.49L 289.944 374.682L 289.944 385.77C 289.728 388.218 288.792 390.594 287.208 392.466C 285.624 394.41 283.536 395.85 281.16 396.498C 280.656 396.642 280.224 396.786 279.792 396.93C 279.432 397.074 279 397.218 278.64 397.362C 275.112 398.658 271.8 400.314 268.776 402.474C 265.104 405.066 261.864 408.234 259.2 411.906C 256.032 416.73 253.872 422.058 253.008 427.746C 251.712 435.666 252.864 443.73 256.176 451.002C 258.408 455.322 261.36 459.138 264.96 462.378C 268.92 465.906 273.6 468.57 278.712 470.226L 283.536 472.314C 285.192 472.962 286.704 474.114 287.784 475.482C 289.296 477.354 290.088 479.658 290.16 481.962z"/>
</g>
</svg>