<?xml version="1.0" encoding="UTF-8" standalone="yes"?>
<!-- Created with sK1/UniConvertor (http://sk1project.org/) -->
<svg xmlns="http://www.w3.org/2000/svg" xmlns:xlink="http://www.w3.org/1999/xlink"
  width="595.276pt" height="841.89pt" viewBox="0 0 595.276 841.89"
  fill-rule="evenodd">
<g>
<path style="stroke:#2c2c2b; stroke-width:0.216; fill:#ef7e20" d="M 291.024 515.658L 202.896 427.53C 201.024 425.73 200.16 423.354 200.16 420.978C 200.16 418.602 201.024 416.226 202.896 414.426L 291.024 326.298C 292.824 324.426 295.2 323.562 297.576 323.562C 299.952 323.562 302.328 324.426 304.128 326.298L 392.256 414.426C 394.128 416.226 394.992 418.602 394.992 420.978C 394.992 423.282 394.128 425.658 392.256 427.53L 304.128 515.658C 302.328 517.53 299.952 518.394 297.576 518.394C 295.2 518.394 292.824 517.53 291.024 515.658z"/>
<path style="stroke:none; fill:#2c2c2b" d="M 292.176 514.506C 295.2 517.458 299.952 517.458 302.976 514.506L 391.176 426.306C 394.128 423.282 394.128 418.53 391.176 415.506L 302.976 327.306C 299.952 324.354 295.2 324.354 292.176 327.306L 203.976 415.506C 201.024 418.53 201.024 423.282 203.976 426.306L 292.176 514.506z"/>
<path style="stroke:none; fill:#ef7e20" d="M 294.192 512.49L 205.992 424.29C 204.12 422.418 204.12 419.394 205.992 417.522L 294.192 329.322C 296.064 327.45 299.088 327.45 300.96 329.322L 389.16 417.522C 391.032 419.394 391.032 422.418 389.16 424.29L 300.96 512.49C 299.088 514.362 296.064 514.362 294.192 512.49z"/>
<path style="stroke:none; fill:#2c2c2b" d="M 304.992 481.962C 305.064 479.586 305.928 477.354 307.368 475.482C 308.52 474.114 309.96 472.962 311.616 472.314L 316.512 470.226C 321.552 468.57 326.232 465.906 330.192 462.378C 333.792 459.138 336.744 455.322 338.976 451.002C 342.288 443.73 343.44 435.666 342.144 427.746C 341.28 422.058 339.192 416.73 336.024 411.906C 333.36 408.234 330.12 405.066 326.376 402.474C 323.352 400.314 320.04 398.658 316.512 397.362C 316.152 397.218 315.72 397.074 315.36 396.93C 314.928 396.786 314.496 396.642 314.064 396.498C 311.616 395.85 309.528 394.41 307.944 392.466C 306.36 390.522 305.424 388.218 305.208 385.77L 305.208 374.682L 314.784 377.49C 316.08 377.706 317.232 377.058 317.808 375.906C 318.312 374.97 318.168 373.89 317.592 373.026L 297.504 344.802L 277.2 372.882C 276.552 373.89 276.552 375.258 277.272 376.194C 277.92 377.202 279.144 377.706 280.296 377.418L 289.944 374.61L 289.944 387.138C 290.232 392.394 292.104 397.362 295.272 401.538C 298.584 406.002 303.264 409.314 308.592 410.97C 309.6 411.258 310.536 411.618 311.4 411.978C 312.336 412.338 313.2 412.77 314.136 413.202C 317.592 414.642 320.544 417.018 322.848 419.97C 325.944 423.93 327.528 428.97 327.24 434.082C 327.384 437.898 326.52 441.714 324.72 445.026C 322.416 449.346 318.6 452.73 314.064 454.602C 312.264 455.25 310.464 455.898 308.664 456.69C 307.008 457.41 305.352 458.202 303.768 459.066C 300.312 460.866 297.432 463.386 295.128 466.482C 291.816 470.874 289.872 476.202 289.728 481.674L 289.728 497.082L 304.992 497.082L 304.992 481.962z"/>
</g>
</svg>