<?xml version="1.0" encoding="UTF-8" standalone="no"?>
<!-- Created with Inkscape (http://www.inkscape.org/) -->

<svg
   version="1.1"
   id="svg2"
   width="193.33333"
   height="192"
   viewBox="0 0 193.33333 192"
   sodipodi:docname="T-080-2.eps"
   xmlns:inkscape="http://www.inkscape.org/namespaces/inkscape"
   xmlns:sodipodi="http://sodipodi.sourceforge.net/DTD/sodipodi-0.dtd"
   xmlns="http://www.w3.org/2000/svg"
   xmlns:svg="http://www.w3.org/2000/svg">
  <defs
     id="defs6" />
  <sodipodi:namedview
     id="namedview4"
     pagecolor="#ffffff"
     bordercolor="#000000"
     borderopacity="0.25"
     inkscape:showpageshadow="2"
     inkscape:pageopacity="0.0"
     inkscape:pagecheckerboard="0"
     inkscape:deskcolor="#d1d1d1" />
  <g
     id="g8"
     inkscape:groupmode="layer"
     inkscape:label="ink_ext_XXXXXX"
     transform="matrix(1.3333333,0,0,-1.3333333,0,192)">
    <g
       id="g10"
       transform="scale(0.1)">
      <path
         d="M 1349.76,3.00391 103.051,2.90234 C 77.25,2.90234 54.0469,13.3516 37.1719,30.2344 20.332,47.0234 9.92969,70.3242 9.98047,95.9336 V 1342.78 c -0.10156,25.7 10.39843,48.91 27.23043,65.79 16.8789,16.88 40.086,27.33 65.7891,27.23 l 1246.76,0.1 c 25.7,0 48.9,-10.36 65.74,-27.24 16.88,-16.88 27.23,-40.09 27.27,-65.88 l 0.06,-1246.7566 c 0,-25.6992 -10.45,-49 -27.28,-65.789 -16.84,-16.7813 -40.04,-27.33206 -65.79,-27.23049"
         style="fill:#f47216;fill-opacity:1;fill-rule:evenodd;stroke:none"
         id="path12" />
      <path
         d="M 1349.76,3.00391 103.051,2.90234 C 77.25,2.90234 54.0469,13.3516 37.1719,30.2344 20.332,47.0234 9.92969,70.3242 9.98047,95.9336 V 1342.78 c -0.10156,25.7 10.39843,48.91 27.23043,65.79 16.8789,16.88 40.086,27.33 65.7891,27.23 l 1246.76,0.1 c 25.7,0 48.9,-10.36 65.74,-27.24 16.88,-16.88 27.23,-40.09 27.27,-65.88 l 0.06,-1246.7566 c 0,-25.6992 -10.45,-49 -27.28,-65.789 -16.84,-16.7813 -40.04,-27.33206 -65.79,-27.23049 z"
         style="fill:none;stroke:#231f20;stroke-width:2.16;stroke-linecap:butt;stroke-linejoin:miter;stroke-miterlimit:2.6131;stroke-dasharray:none;stroke-opacity:1"
         id="path14" />
      <path
         d="m 1349.76,19.7344 c 42.58,0 77.05,34.4297 77.05,77.0078 L 1426.77,1343.5 c 0.04,42.48 -34.48,77.01 -77.06,77.01 H 103 c -42.5781,0 -76.9609,-34.53 -77.0508,-77.01 L 26.0391,96.7422 c 0,-42.5781 34.4297,-77.0977 77.0119,-77.0977 l 1246.709,0.0899"
         style="fill:#231f20;fill-opacity:1;fill-rule:evenodd;stroke:none"
         id="path16" />
      <path
         d="M 1349.76,48.0234 H 103.051 c -26.8518,0 -48.7229,21.7696 -48.7697,48.7188 L 54.3281,1343.5 c 0,26.85 21.8203,48.72 48.6719,48.72 h 1246.71 c 26.95,-0.1 48.72,-21.87 48.72,-48.72 l 0.05,-1246.7578 c 0,-26.8477 -21.87,-48.7188 -48.72,-48.7188"
         style="fill:#f47216;fill-opacity:1;fill-rule:evenodd;stroke:none"
         id="path18" />
      <path
         d="m 321.672,312.172 h 41.566 l 19.852,80.851 h 57.258 l 20.281,-80.851 h 41.43 L 431.43,599.883 H 391 L 321.672,312.172"
         style="fill:#231f20;fill-opacity:1;fill-rule:evenodd;stroke:none"
         id="path20" />
      <path
         d="m 651.379,1127.35 0.289,-218.799 c 3.211,-44.742 37.164,-75.621 78.207,-75.621 20.191,0 37.5,7.242 52.512,20.519 15.769,14 24.789,31.942 25.601,58.84 V 1127.5 H 767.707 V 909.992 c 0,-21.304 -16.539,-37.551 -37.969,-37.551 -14.437,0 -27.91,7.907 -34.769,21.43 -2.969,5.848 -3.5,12.57 -3.879,19.141 v 214.198 l -39.711,0.14"
         style="fill:#231f20;fill-opacity:1;fill-rule:evenodd;stroke:none"
         id="path22" />
      <path
         d="m 534.43,312.172 h 41.277 v 134.793 h 35.824 l 38.696,-134.793 h 42.304 l -40.863,141.98 c 25.082,12.141 38.891,31.461 38.891,70.641 0,56.238 -39.508,72.598 -57.02,74.23 H 534.43 V 312.172"
         style="fill:#231f20;fill-opacity:1;fill-rule:evenodd;stroke:none"
         id="path24" />
      <path
         d="m 140.309,312.172 89.05,0.141 c 39.219,1.488 69.289,30.16 69.289,79.789 0,47.722 -26.328,66.23 -36.777,71.98 17.891,10.07 31.309,30.402 31.309,62.531 0,26.852 -7.571,42.821 -21.242,56.012 -11.848,11.457 -22.727,16.586 -44.309,17.258 h -87.32 V 312.172"
         style="fill:#231f20;fill-opacity:1;fill-rule:evenodd;stroke:none"
         id="path26" />
      <path
         d="m 749.25,312.172 h 41.289 v 134.793 h 35.816 l 38.704,-134.793 h 42.289 l -40.852,141.98 c 25.07,12.141 38.883,31.461 38.883,70.641 0,56.238 -39.512,72.598 -57.012,74.23 H 749.25 V 312.172"
         style="fill:#231f20;fill-opacity:1;fill-rule:evenodd;stroke:none"
         id="path28" />
      <path
         d="m 439.82,839.641 h 41.289 V 974.43 h 35.821 l 38.687,-134.789 h 42.305 l -40.863,141.992 c 25.082,12.129 38.89,31.447 38.89,70.627 0,56.25 -39.511,72.6 -57.008,74.23 H 439.82 V 839.641"
         style="fill:#231f20;fill-opacity:1;fill-rule:evenodd;stroke:none"
         id="path30" />
      <path
         d="m 869.516,839.641 h 143.424 v 40.57 H 910.078 v 94.078 h 60.707 v 40.141 h -60.558 v 71.92 h 98.683 v 40.71 H 869.516 V 839.641"
         style="fill:#231f20;fill-opacity:1;fill-rule:evenodd;stroke:none"
         id="path32" />
      <path
         d="M 964.078,312.172 H 1107.5 v 40.57 h -102.85 v 94.078 h 60.7 v 40.133 h -60.56 v 71.93 h 98.67 V 599.59 H 964.078 V 312.172"
         style="fill:#231f20;fill-opacity:1;fill-rule:evenodd;stroke:none"
         id="path34" />
      <path
         d="m 1169.02,312.172 h 143.43 v 40.57 h -102.86 v 94.078 h 60.71 v 40.133 h -60.57 v 71.93 h 98.68 V 599.59 H 1169.02 V 312.172"
         style="fill:#231f20;fill-opacity:1;fill-rule:evenodd;stroke:none"
         id="path36" />
      <path
         d="m 1015.82,662.523 -24.554,-35.332 h 51.644 l 32.18,35.332 h -59.27"
         style="fill:#231f20;fill-opacity:1;fill-rule:evenodd;stroke:none"
         id="path38" />
      <path
         d="m 181.309,353.313 v 89.339 h 40.281 c 27.859,0 35.629,-37.359 35.629,-51.121 0,-27.48 -11.797,-37.211 -27.719,-37.929 l -48.191,-0.289"
         style="fill:#f47216;fill-opacity:1;fill-rule:evenodd;stroke:none"
         id="path40" />
      <path
         d="m 575,487.383 v 71.93 h 48.91 c 15.051,0 27.188,-9.54 27.188,-36.297 0,-21.961 -9.399,-32.223 -24.461,-35.633 H 575"
         style="fill:#f47216;fill-opacity:1;fill-rule:evenodd;stroke:none"
         id="path42" />
      <path
         d="m 789.816,487.383 v 71.93 h 48.911 c 15.058,0 27.191,-9.54 27.191,-36.297 0,-21.961 -9.402,-32.223 -24.461,-35.633 h -51.641"
         style="fill:#f47216;fill-opacity:1;fill-rule:evenodd;stroke:none"
         id="path44" />
      <path
         d="m 480.391,1014.86 v 71.92 h 48.91 c 15.047,0 27.187,-9.54 27.187,-36.3 0,-21.96 -9.398,-32.22 -24.461,-35.62 h -51.636"
         style="fill:#f47216;fill-opacity:1;fill-rule:evenodd;stroke:none"
         id="path46" />
      <path
         d="m 181.449,482.934 v 76.527 h 50.211 c 9.399,0 21.238,-8.438 21.238,-31.891 0,-8.007 -1.769,-16.5 -5.418,-24.355 -6.851,-14.961 -14.382,-19.664 -27.761,-20.281 h -38.27"
         style="fill:#f47216;fill-opacity:1;fill-rule:evenodd;stroke:none"
         id="path48" />
      <path
         d="m 392.73,433.734 18.559,76.957 18.84,-76.957 z"
         style="fill:#f47216;fill-opacity:1;fill-rule:evenodd;stroke:none"
         id="path50" />
    </g>
  </g>
</svg>
