<svg id="Smooth" enable-background="new 0 0 128 128" height="512" viewBox="0 0 128 128" width="512" xmlns="http://www.w3.org/2000/svg" xmlns:xlink="http://www.w3.org/1999/xlink"><linearGradient id="lg1"><stop offset="0" stop-color="#ffd385"/><stop offset="1" stop-color="#ffb66a"/></linearGradient><linearGradient id="SVGID_1_" gradientUnits="userSpaceOnUse" x1="61.98" x2="64.98" xlink:href="#lg1" y1="77.572" y2="140.572"/><linearGradient id="SVGID_2_" gradientUnits="userSpaceOnUse" x1="14.657" x2="17.073" xlink:href="#lg1" y1="150.682" y2="160.682"/><linearGradient id="SVGID_3_" gradientUnits="userSpaceOnUse" x1="23.585" x2="26.002" xlink:href="#lg1" y1="148.25" y2="158.25"/><linearGradient id="SVGID_4_" gradientUnits="userSpaceOnUse" x1="34.041" x2="36.458" xlink:href="#lg1" y1="145.998" y2="155.998"/><linearGradient id="SVGID_5_" gradientUnits="userSpaceOnUse" x1="113.123" x2="115.539" xlink:href="#lg1" y1="126.645" y2="136.645"/><linearGradient id="SVGID_6_" gradientUnits="userSpaceOnUse" x1="121.421" x2="123.838" xlink:href="#lg1" y1="124.881" y2="134.881"/><linearGradient id="SVGID_7_" gradientUnits="userSpaceOnUse" x1="103.013" x2="105.43" xlink:href="#lg1" y1="129.33" y2="139.33"/><linearGradient id="SVGID_8_" gradientUnits="userSpaceOnUse" x1="27.427" x2="45.92" y1="32.002" y2="32.002"><stop offset=".0487" stop-color="#f37e3e"/><stop offset="1" stop-color="#ea5c43"/></linearGradient><linearGradient id="SVGID_9_" gradientUnits="userSpaceOnUse" x1="-42.618" x2="6.243" y1="91.5" y2="91.5"><stop offset=".0081" stop-color="#809000"/><stop offset="1" stop-color="#a5b636"/></linearGradient><linearGradient id="SVGID_10_" gradientUnits="userSpaceOnUse" x1="-107.192" x2="-23.969" y1="83" y2="83"><stop offset="0" stop-color="#f5a519"/><stop offset=".9973" stop-color="#ffb054"/></linearGradient><linearGradient id="SVGID_11_" gradientUnits="userSpaceOnUse" x1="-12.1" x2="5.435" xlink:href="#lg1" y1="37.89" y2="37.89"/><linearGradient id="SVGID_12_" gradientUnits="userSpaceOnUse" x1="85.55" x2="136.16" y1="12.494" y2="12.494"><stop offset=".0399" stop-color="#fb9e4b"/><stop offset=".8094" stop-color="#f37e3e"/></linearGradient><linearGradient id="SVGID_13_" gradientUnits="userSpaceOnUse" x1="59.431" x2="78.071" xlink:href="#lg1" y1="46" y2="46"/><linearGradient id="SVGID_14_" gradientUnits="userSpaceOnUse" x1="66.676" x2="85.316" xlink:href="#lg1" y1="35" y2="35"/><linearGradient id="SVGID_15_" gradientUnits="userSpaceOnUse" x1="69.949" x2="88.589" xlink:href="#lg1" y1="45" y2="45"/><linearGradient id="SVGID_16_" gradientUnits="userSpaceOnUse" x1="83.425" x2="102.065" xlink:href="#lg1" y1="46" y2="46"/><linearGradient id="SVGID_17_" gradientUnits="userSpaceOnUse" x1="82.19" x2="100.83" xlink:href="#lg1" y1="39" y2="39"/><linearGradient id="SVGID_18_" gradientUnits="userSpaceOnUse" x1="69.279" x2="87.919" xlink:href="#lg1" y1="28" y2="28"/><linearGradient id="SVGID_19_" gradientUnits="userSpaceOnUse" x1="82.913" x2="101.553" xlink:href="#lg1" y1="33" y2="33"/><linearGradient id="SVGID_20_" gradientUnits="userSpaceOnUse" x1="98.742" x2="117.382" xlink:href="#lg1" y1="45" y2="45"/><linearGradient id="SVGID_21_" gradientUnits="userSpaceOnUse" x1="100.425" x2="119.065" xlink:href="#lg1" y1="39" y2="39"/><linearGradient id="SVGID_22_" gradientUnits="userSpaceOnUse" x1="118.016" x2="136.656" xlink:href="#lg1" y1="47" y2="47"/><linearGradient id="SVGID_23_" gradientUnits="userSpaceOnUse" x1="201.415" x2="316.228" y1="57" y2="57"><stop offset="0" stop-color="#809000"/><stop offset="1" stop-color="#6b7f00"/></linearGradient><g><g><path d="m105 116c-10.335 0-10.665-2-21-2-10.333 0-9.671 2-20.004 2s-9.663-2-19.996-2-10.667 2-21 2-10.667-2-21-2v12h124v-12c-10.335 0-10.665 2-21 2z" fill="url(#SVGID_1_)"/><g><circle cx="7" cy="119" fill="url(#SVGID_2_)" r="1"/><circle cx="17" cy="121" fill="url(#SVGID_3_)" r="1"/><circle cx="28" cy="121" fill="url(#SVGID_4_)" r="1"/><circle cx="112" cy="122" fill="url(#SVGID_5_)" r="1"/><circle cx="120" cy="119" fill="url(#SVGID_6_)" r="1"/><circle cx="101" cy="121" fill="url(#SVGID_7_)" r="1"/></g></g><g><path d="m91 23 7-8 4 4-7 8c-.531.602-.567 1.433 0 2 2.667 2.694 2.666 7.226 0 10l-9 9c-1.374 1.35-2.673 1.327-4 0l-12-12c-1.337-1.23-1.331-2.884 0-4l9-9c2.774-2.666 7.306-2.667 10 0 0 0 1 1 2 0z" fill="url(#SVGID_8_)"/><path d="m88 121h-48c-4.051 0-7.52-2.977-8-7l-7.102-52h78.203l-7.101 52c-.48 4.023-3.949 7-8 7z" fill="url(#SVGID_9_)"/><path d="m113 55h-4v4h4c1 0 1 1 1 1-1.575 26.336-23.589 47-50 47s-48.425-20.664-50-47c0 0 0-1 1-1h4v-4h-4c-2.761 0-5 2.239-5 5 1.702 28.445 25.476 51 54 51s52.298-22.555 54-51c0-2.761-2.239-5-5-5z" fill="url(#SVGID_10_)"/><path d="m47 30c-22.285 14.361-17.717 13.262-23 22h80c-8.008-16.516-16.496-17.878-25-23-12.297-7.406-19.884-6.808-32 1z" fill="url(#SVGID_11_)"/><path d="m113.994 15.987-13-13c-1.078-1.172-2.547-1.453-4 0-3.764 3.851-4.188 9.812 0 14l3 3.031c4.229 4.073 10.17 3.854 14-.031 1.5-1.588 1.172-2.894 0-4zm-10 2-5-5c-1.5-1.5-1.125-4.875 0-6l11 11c-1.39 1.125-4.499 1.5-6 0z" fill="url(#SVGID_12_)"/><g><circle cx="34" cy="46" fill="url(#SVGID_13_)" r="1"/><circle cx="53" cy="35" fill="url(#SVGID_14_)" r="1"/><circle cx="46" cy="45" fill="url(#SVGID_15_)" r="1"/><circle cx="59" cy="46" fill="url(#SVGID_16_)" r="1"/><circle cx="65" cy="39" fill="url(#SVGID_17_)" r="1"/><circle cx="63" cy="28" fill="url(#SVGID_18_)" r="1"/><circle cx="72" cy="33" fill="url(#SVGID_19_)" r="1"/><circle cx="76" cy="45" fill="url(#SVGID_20_)" r="1"/><circle cx="84" cy="39" fill="url(#SVGID_21_)" r="1"/><circle cx="94" cy="47" fill="url(#SVGID_22_)" r="1"/></g><path d="m107 62h-86c-2.209 0-4-1.791-4-4v-2c0-2.209 1.791-4 4-4h86c2.209 0 4 1.791 4 4v2c0 2.209-1.791 4-4 4z" fill="url(#SVGID_23_)"/></g></g></svg>