<svg id="Filloutline" enable-background="new 0 0 128 128" height="512" viewBox="0 0 128 128" width="512" xmlns="http://www.w3.org/2000/svg" xmlns:xlink="http://www.w3.org/1999/xlink"><linearGradient id="lg1"><stop offset="0" stop-color="#ffd385"/><stop offset="1" stop-color="#ffb66a"/></linearGradient><linearGradient id="SVGID_1_" gradientUnits="userSpaceOnUse" x1="61.98" x2="64.98" xlink:href="#lg1" y1="77.572" y2="140.572"/><linearGradient id="SVGID_2_" gradientUnits="userSpaceOnUse" x1="27.427" x2="45.92" y1="32.002" y2="32.002"><stop offset=".0487" stop-color="#f37e3e"/><stop offset="1" stop-color="#ea5c43"/></linearGradient><linearGradient id="SVGID_3_" gradientUnits="userSpaceOnUse" x1="-42.618" x2="6.243" y1="91.5" y2="91.5"><stop offset=".0081" stop-color="#809000"/><stop offset="1" stop-color="#a5b636"/></linearGradient><linearGradient id="SVGID_4_" gradientUnits="userSpaceOnUse" x1="-107.192" x2="-23.969" y1="83" y2="83"><stop offset="0" stop-color="#f5a519"/><stop offset=".9973" stop-color="#ffb054"/></linearGradient><linearGradient id="SVGID_5_" gradientUnits="userSpaceOnUse" x1="-12.1" x2="5.435" xlink:href="#lg1" y1="37.89" y2="37.89"/><linearGradient id="SVGID_6_" gradientUnits="userSpaceOnUse" x1="85.55" x2="136.16" y1="12.494" y2="12.494"><stop offset=".0399" stop-color="#fb9e4b"/><stop offset=".8094" stop-color="#f37e3e"/></linearGradient><linearGradient id="SVGID_7_" gradientUnits="userSpaceOnUse" x1="201.415" x2="316.228" y1="57" y2="57"><stop offset="0" stop-color="#809000"/><stop offset="1" stop-color="#6b7f00"/></linearGradient><g><g><g><path d="m105 116c-10.335 0-10.665-2-21-2-10.333 0-9.671 2-20.004 2s-9.663-2-19.996-2-10.667 2-21 2-10.667-2-21-2v12h124v-12c-10.335 0-10.665 2-21 2z" fill="url(#SVGID_1_)"/></g><g><path d="m91 23 7-8 4 4-7 8c-.531.602-.567 1.433 0 2 2.667 2.694 2.666 7.226 0 10l-9 9c-1.374 1.35-2.673 1.327-4 0l-12-12c-1.337-1.23-1.331-2.884 0-4l9-9c2.774-2.666 7.306-2.667 10 0 0 0 1 1 2 0z" fill="url(#SVGID_2_)"/><path d="m88 121h-48c-4.051 0-7.52-2.977-8-7l-7.102-52h78.203l-7.101 52c-.48 4.023-3.949 7-8 7z" fill="url(#SVGID_3_)"/><path d="m113 55h-4v4h4c1 0 1 1 1 1-1.575 26.336-23.589 47-50 47s-48.425-20.664-50-47c0 0 0-1 1-1h4v-4h-4c-2.761 0-5 2.239-5 5 1.702 28.445 25.476 51 54 51s52.298-22.555 54-51c0-2.761-2.239-5-5-5z" fill="url(#SVGID_4_)"/><path d="m47 30c-22.285 14.361-17.717 13.262-23 22h80c-8.008-16.516-16.496-17.878-25-23-12.297-7.406-19.884-6.808-32 1z" fill="url(#SVGID_5_)"/><path d="m113.994 15.987-13-13c-1.078-1.172-2.547-1.453-4 0-3.764 3.851-4.188 9.812 0 14l3 3.031c4.229 4.073 10.17 3.854 14-.031 1.5-1.588 1.172-2.894 0-4zm-10 2-5-5c-1.5-1.5-1.125-4.875 0-6l11 11c-1.39 1.125-4.499 1.5-6 0z" fill="url(#SVGID_6_)"/><path d="m107 62h-86c-2.209 0-4-1.791-4-4v-2c0-2.209 1.791-4 4-4h86c2.209 0 4 1.791 4 4v2c0 2.209-1.791 4-4 4z" fill="url(#SVGID_7_)"/></g></g><g fill="#3a322b"><path d="m126 113c-5.261 0-8.018.517-10.685 1.018-2.695.504-5.241.982-10.315.982-3.778 0-6.175-.276-8.056-.581.014-.095.036-.187.048-.283l2.018-14.779c11.429-9.459 19.04-23.457 19.99-39.357 0-3.309-2.691-6-6-6h-1.424c-.774-1.763-2.531-3-4.576-3h-2.381c-2.695-5.433-5.465-9.232-8.264-12.063 2.404-3.193 2.19-7.777-.649-10.644-.254-.254-.031-.547.046-.635l5.011-5.726c1.924 1.349 4.104 2.035 6.276 2.035 2.769 0 5.518-1.098 7.682-3.293.905-.959 1.333-1.945 1.272-2.93-.054-.873-.492-1.705-1.303-2.474l-12.96-12.959c-.771-.837-1.683-1.29-2.64-1.31-.676-.038-1.721.196-2.812 1.287-3.98 4.072-4.296 9.975-.974 14.274l-5.012 5.731c-.112.112-.282.28-.589-.004-3.1-3.066-8.212-3.072-11.411.004l-3.362 3.362c-9.888-4.727-17.41-3.624-28.473 3.504-17.879 11.524-18.73 13.286-21.007 17.998-.521 1.079-1.122 2.306-2.025 3.843h-2.425c-2.045 0-3.802 1.237-4.576 3h-1.424c-3.309 0-6 2.691-5.998 6.06.949 15.868 8.56 29.851 19.99 39.304l2.015 14.755c.012.102.035.2.05.3-1.882.305-4.28.581-8.057.581-5.073 0-7.62-.478-10.315-.982-2.667-.501-5.425-1.018-10.685-1.018h-1v14h126v-14zm-14.413-53.02 1.415-.039c-.692 11.568-5.4 22.005-12.708 30.013l3.681-26.954h3.025c2.053 0 3.818-1.246 4.587-3.02zm-81.531 32.39-4.011-29.37h75.911l-4.01 29.362c-8.847 8.457-20.83 13.638-33.946 13.638s-25.098-5.181-33.944-13.63zm67.645-88.676c.461-.461.906-.694 1.324-.694h.023c.504.011.936.367 1.238.694l13 13 .021.021c.437.411.669.799.69 1.153.025.41-.221.892-.716 1.417-3.557 3.61-8.854 3.614-12.577.03l-3.004-3.035c-3.603-3.604-3.6-8.901.001-12.586zm-18.008 20.027c2.368-2.277 6.31-2.281 8.6-.014.686.687 2.16 1.253 3.46-.049l4.897-5.597 2.57 2.597-4.971 5.68c-.903 1.023-.886 2.44.039 3.366 2.042 2.062 2.229 5.444.594 7.83-3.477-3.112-6.985-4.924-10.433-6.703-1.621-.837-3.297-1.701-4.935-2.688-.929-.56-1.827-1.061-2.712-1.533zm-52.442 24.306c2.098-4.344 2.883-5.969 20.291-17.187 12.061-7.771 19.289-8.001 30.942-.984 1.693 1.021 3.399 1.9 5.049 2.752 6.563 3.386 12.774 6.616 18.837 18.392h-76.639c.63-1.14 1.099-2.102 1.52-2.973zm-9.251 7.973c0-1.654 1.346-3 3-3h86c1.654 0 3 1.346 3 3v2c0 1.654-1.346 3-3 3h-86c-1.654 0-3-1.346-3-3zm3 7h3.025l3.683 26.964c-7.309-7.999-12.017-18.422-12.708-29.964h1.424c.774 1.763 2.531 3 4.576 3zm-10-3c0-2.206 1.794-4 4-4h1v2h-1c-1.299 0-2 1.03-1.998 2.06 1.607 26.882 24.009 47.94 50.998 47.94s49.391-21.058 51-48c0-.97-.701-2-2-2h-1v-2h1c2.206 0 4 1.794 4.002 3.94-1.679 28.071-24.96 50.06-53.002 50.06s-51.323-21.989-53-50zm53 52c12.222 0 23.564-4.036 32.748-10.868l-1.741 12.749c-.416 3.488-3.429 6.119-7.007 6.119h-48c-3.578 0-6.591-2.631-7.009-6.136l-1.738-12.727c9.184 6.827 20.525 10.863 32.747 10.863zm61 13h-122v-9.993c4.42.059 6.803.505 9.315.976 2.667.5 5.425 1.017 10.685 1.017 3.738 0 6.22-.252 8.585-.642 1.338 3.332 4.628 5.642 8.415 5.642h48c3.791 0 7.082-2.315 8.417-5.641 2.363.389 4.844.641 8.583.641 5.261 0 8.018-.517 10.685-1.018 2.512-.471 4.895-.917 9.315-.976z"/><path d="m103.287 18.694c.889.888 2.206 1.278 3.535 1.278 1.423 0 2.86-.447 3.801-1.208l.864-.699-12.493-12.492-.707.707c-1.55 1.55-1.839 5.574 0 7.414zm-4.072-10.071 9.112 9.111c-1.189.382-2.802.369-3.626-.454l-5-5c-.783-.784-.832-2.506-.486-3.657z"/><circle cx="7" cy="119" r="1"/><circle cx="17" cy="121" r="1"/><circle cx="28" cy="121" r="1"/><circle cx="112" cy="122" r="1"/><circle cx="120" cy="119" r="1"/><circle cx="101" cy="121" r="1"/><circle cx="34" cy="46" r="1"/><circle cx="53" cy="35" r="1"/><circle cx="46" cy="45" r="1"/><circle cx="59" cy="46" r="1"/><circle cx="65" cy="39" r="1"/><circle cx="63" cy="28" r="1"/><circle cx="72" cy="33" r="1"/><circle cx="76" cy="45" r="1"/><circle cx="84" cy="39" r="1"/><circle cx="94" cy="47" r="1"/></g></g></svg>